<?xml version="1.0" encoding="UTF-8"?>
<svg id="Capa_1" data-name="Capa 1" xmlns="http://www.w3.org/2000/svg" viewBox="0 0 300 300">
  <path d="m271.5,98.2c-3.17-7.13-6.35-14.25-9.54-21.37-4.03-9.01-8.19-18.32-12.25-27.5-7.05-16-19.12-23.78-36.9-23.78h-.32c-23.36.13-44.4.19-64.34.19-21.26,0-40.93-.07-60.14-.21h-.46c-18.41,0-30.84,8.29-38,25.34-4.61,10.96-9.47,22.02-14.18,32.71-2.3,5.22-4.68,10.63-6.99,15.95-1.92,4.37-2.85,8.8-2.85,13.55.03,25.21.03,50.85.03,75.64,0,16.71,0,33.42.01,50.13,0,2.36.05,4.86.64,7.36,4.13,17.32,17.63,28.13,35.24,28.2,10.52.04,21.84.06,35.62.06,8.78,0,17.56,0,26.34-.02,8.78,0,17.56-.02,26.35-.02h1.54c8.53,0,17.07.01,25.6.02,8.53.01,17.05.02,25.58.02,14.18,0,25.78-.03,36.5-.09,20.18-.12,35.41-15.4,35.43-35.54.04-22.96.03-46.3.03-68.87,0-18.79,0-38.23.02-57.34,0-5.21-.97-9.93-2.96-14.42Zm-113.15-49.83c-.02-1.66.11-3.51,1.26-4.67.88-.89,2.19-1.28,4.25-1.28h.22c7.09.09,14.7.13,23.96.13,6.09,0,12.17-.02,18.26-.04l6.81-.02h.11c10.2,0,17,4.41,20.8,13.49,4.37,10.45,9.33,21.72,15.61,35.45.85,1.88,1.28,3.34.61,4.38-.7,1.09-2.35,1.24-3.87,1.24h-.28c-5.29-.07-11.07-.1-18.2-.1-3.8,0-7.6,0-11.4.02-3.8,0-7.6.02-11.4.02s-7.44,0-11.16-.02c-3.72,0-7.44-.02-11.16-.02-7.15,0-12.95.04-18.24.11-.12,0-.23,0-.34,0-1.62,0-3.43-.16-4.58-1.33-.92-.94-1.32-2.36-1.28-4.62.22-12.8.23-26.38.02-42.76Zm-108.01,43.1c6.25-13.68,11.21-24.94,15.61-35.45,3.68-8.85,10.42-13.38,20.04-13.46,6.84-.06,13.67-.06,18.86-.06,2.63,0,5.27,0,7.9,0,2.63,0,5.27,0,7.9,0,6.52,0,11.5-.01,16.13-.04h.07c1.7,0,2.85.36,3.61,1.13.79.8,1.14,1.99,1.12,3.88-.11,17.2-.1,31.36.02,44.54.01,1.83-.35,3.05-1.15,3.86-.81.81-2.02,1.17-3.93,1.17h-.16c-5.63-.05-11.59-.07-19.3-.07-3.69,0-7.38,0-11.08.01-3.69,0-7.39.01-11.08.01s-7.31,0-10.96-.01c-3.66,0-7.31-.01-10.97-.01-7.62,0-13.49.03-19.06.1h-.26c-1.62,0-3.21-.15-3.91-1.24-.68-1.05-.25-2.5.6-4.36Zm207.22,145.48c-.02,13.22-6.45,19.95-19.66,20.58-.79.04-1.56.04-2.15.04h-.95s-.95,0-.95,0h-32.19s-32.2,0-32.2,0c-30.79,0-67.15,0-103.31-.03-2.99,0-5.86-.21-8.54-.62-9.03-1.38-15.12-8.32-15.14-17.25-.04-18.94-.05-38.2-.05-56.83,0-20.97,0-42.66-.07-64-.01-1.81.36-3.03,1.16-3.83,1.08-1.09,2.76-1.18,4.53-1.18,21.58.03,43.04.04,61.18.04h20.48s20.47,0,20.47,0h50.41s50.38,0,50.38,0c6.21,0,6.58.38,6.58,6.71v116.36Z" fill="#FF8D24"/>
</svg>