<svg width="13" height="13" viewBox="0 0 13 13" fill="none" xmlns="http://www.w3.org/2000/svg">
<path d="M12.9889 12.2348L11.4846 4.53455C11.4241 4.22455 11.1301 3.99889 10.7868 3.99889H8.2851C8.75416 3.57498 9.04566 2.98607 9.04566 2.33568C9.04566 1.04777 7.90371 0 6.50003 0C5.09634 0 3.95434 1.04777 3.95434 2.33568C3.95434 2.98607 4.24584 3.57498 4.7149 3.99889H2.21317C1.86987 3.99889 1.57596 4.22455 1.51537 4.53455L0.0111173 12.2348C-0.0258876 12.4244 0.0304941 12.6193 0.165234 12.767C0.299926 12.9147 0.499034 13 0.708918 13H12.2911C12.501 13 12.7001 12.9147 12.8348 12.767C12.9695 12.6193 13.0259 12.4244 12.9889 12.2348ZM6.50003 1.30088C7.12193 1.30088 7.62785 1.76507 7.62785 2.33568C7.62785 2.90629 7.12193 3.37053 6.50003 3.37053C5.87812 3.37053 5.37216 2.90629 5.37216 2.33568C5.37216 1.76507 5.87812 1.30088 6.50003 1.30088ZM6.31476 10.0656C6.27785 10.128 6.20658 10.1669 6.12917 10.1669H5.79476C5.7198 10.1669 5.65042 10.1304 5.61252 10.0711L4.7849 8.77476L4.25563 9.27048V9.86745C4.25563 10.0328 4.1095 10.1669 3.92925 10.1669C3.74899 10.1669 3.60287 10.0328 3.60287 9.86745V7.49998C3.60287 7.3346 3.74899 7.20052 3.92925 7.20052C4.1095 7.20052 4.25563 7.3346 4.25563 7.49998V8.51775L5.51176 7.26318C5.55174 7.22324 5.60817 7.20052 5.66725 7.20052H5.95426C6.03905 7.20052 6.11556 7.24701 6.14869 7.3186C6.18177 7.39019 6.165 7.47301 6.10611 7.52891L5.23482 8.35583L6.30621 9.86749C6.34841 9.92711 6.35172 10.0031 6.31476 10.0656ZM9.53051 9.67054C9.53051 9.72943 9.50121 9.78536 9.45106 9.82209C9.32081 9.91745 9.14921 10.003 8.93626 10.0788C8.6767 10.1712 8.41389 10.2174 8.14781 10.2174C7.80961 10.2174 7.51494 10.1524 7.26342 10.0222C7.01209 9.89203 6.8231 9.70588 6.69668 9.4637C6.57021 9.22156 6.50702 8.95822 6.50702 8.67355C6.50702 8.36468 6.57758 8.0901 6.71875 7.85005C6.85987 7.60991 7.06644 7.42583 7.33847 7.29761C7.54566 7.19918 7.80375 7.14987 8.1125 7.14987C8.51389 7.14987 8.82737 7.22715 9.05308 7.3816C9.15086 7.44851 9.23352 7.52652 9.30106 7.61559C9.36562 7.70071 9.37871 7.81003 9.33589 7.90594C9.29307 8.00191 9.2002 8.0715 9.0891 8.09058L9.08834 8.09071C8.95818 8.11304 8.82623 8.06014 8.75577 7.95728C8.71068 7.89146 8.65316 7.83513 8.58336 7.78826C8.4576 7.70396 8.30065 7.66181 8.1125 7.66181C7.82724 7.66181 7.60044 7.74481 7.43219 7.91067C7.26385 8.07666 7.17968 8.32283 7.17968 8.64926C7.17968 9.00137 7.26489 9.2654 7.4355 9.44145C7.60601 9.61746 7.82946 9.70549 8.10594 9.70549C8.24261 9.70549 8.37972 9.6809 8.5172 9.63164C8.65458 9.58238 8.77259 9.52267 8.87113 9.4526V9.07617H8.39593C8.2455 9.07617 8.12361 8.96429 8.12361 8.82631C8.12361 8.68829 8.24554 8.57646 8.39593 8.57646H9.31935C9.43599 8.57646 9.53051 8.66323 9.53051 8.7702V9.67054Z" fill="#FF8D24"/>
</svg>
