<svg width="16" height="14" viewBox="0 0 16 14" fill="none" xmlns="http://www.w3.org/2000/svg">
<path d="M13.6906 7.32812H12.4531C12.5793 7.67347 12.6482 8.04617 12.6482 8.43462V13.1117C12.6482 13.2736 12.62 13.4291 12.5687 13.5737H14.6146C15.3788 13.5737 16.0005 12.9519 16.0005 12.1877V9.63802C16.0006 8.36436 14.9643 7.32812 13.6906 7.32812Z" fill="#FF8D24"/>
<path d="M3.35238 8.43462C3.35238 8.04614 3.4213 7.67347 3.54743 7.32812H2.30993C1.03623 7.32812 0 8.36436 0 9.63805V12.1877C0 12.9519 0.621722 13.5737 1.38596 13.5737H3.43186C3.38057 13.429 3.35238 13.2736 3.35238 13.1117V8.43462Z" fill="#FF8D24"/>
<path d="M9.41638 6.125H6.58727C5.31358 6.125 4.27734 7.16123 4.27734 8.43493V13.112C4.27734 13.3671 4.48418 13.574 4.73933 13.574H11.2643C11.5195 13.574 11.7263 13.3671 11.7263 13.112V8.43493C11.7263 7.16123 10.6901 6.125 9.41638 6.125Z" fill="#FF8D24"/>
<path d="M8.00063 0C6.46885 0 5.22266 1.24619 5.22266 2.77801C5.22266 3.81702 5.79612 4.72446 6.64302 5.20089C7.04472 5.42685 7.50783 5.55599 8.00063 5.55599C8.49344 5.55599 8.95655 5.42685 9.35825 5.20089C10.2052 4.72446 10.7786 3.81699 10.7786 2.77801C10.7786 1.24622 9.53242 0 8.00063 0Z" fill="#FF8D24"/>
<path d="M3.12053 2.58984C1.97494 2.58984 1.04297 3.52182 1.04297 4.66741C1.04297 5.81299 1.97494 6.74497 3.12053 6.74497C3.41112 6.74497 3.68784 6.68477 3.93921 6.57657C4.37382 6.38946 4.73217 6.05824 4.95391 5.64335C5.10955 5.35216 5.19809 5.01997 5.19809 4.66741C5.19809 3.52185 4.26612 2.58984 3.12053 2.58984Z" fill="#FF8D24"/>
<path d="M12.8783 2.58984C11.7328 2.58984 10.8008 3.52182 10.8008 4.66741C10.8008 5.02 10.8893 5.3522 11.045 5.64335C11.2667 6.05827 11.6251 6.38949 12.0597 6.57657C12.311 6.68477 12.5877 6.74497 12.8783 6.74497C14.0239 6.74497 14.9559 5.81299 14.9559 4.66741C14.9559 3.52182 14.0239 2.58984 12.8783 2.58984Z" fill="#FF8D24"/>
</svg>
