<?xml version="1.0" encoding="UTF-8"?>
<svg id="Capa_1" data-name="Capa 1" xmlns="http://www.w3.org/2000/svg" viewBox="0 0 300 300">
  <defs>
    <style>
      .cls-1 {
        fill: #7C7C7C;
      }
    </style>
  </defs>
  <path class="cls-1" d="m198.96,237.76c-8.84,26.49-24.74,39.32-48.3,39.51-24.15.19-39.78-12.13-49.61-39.74-3.43,14.69-10.7,26.03-23.68,33.26-12.83,7.15-26.41,8.46-40.48,4.16C14.53,268.12.2,246.04,3.46,223.29c2.02-14.06,8.78-25.49,20.93-33.57,12.09-8.04,25.55-9.64,40.38-7.2-14.82-18.43-17.51-37.76-5.65-57.39,12.01-19.88,31.35-25.45,54.3-22.23-22.11-26.45-11.23-56.22,4.69-69.28,17.68-14.52,45.86-14.81,63.61-.15,10.53,8.69,16.46,19.94,17.39,33.43.93,13.37-3.03,25.31-13.01,36.09,23.61-3.3,42.97,2.28,54.97,22.2,11.75,19.53,9.15,38.75-5.67,57.28,16.46-2.65,31.43-.38,44,9.91,12.65,10.35,18.16,23.98,17.56,40.12-.81,21.86-18.39,40.82-41.66,44.33-21.03,3.18-48.53-7.08-56.34-39.04v-.02Zm32.3-87.95c-.16-16.94-15.4-31.56-32.55-31.2-17.44.37-31.99,14.55-32.08,31.27-.08,16.8,15.01,31.45,32.34,31.4,17.4-.06,32.43-14.71,32.27-31.46h.01Zm-48.88,79.45c-.15-16.94-15.39-31.56-32.53-31.21-17.44.36-31.98,14.53-32.08,31.26-.09,16.8,14.99,31.45,32.33,31.41,17.39-.03,32.43-14.69,32.28-31.46Zm0-158.94c-.18-16.84-15.57-31.57-32.58-31.17-17.5.41-32,14.57-32.04,31.29-.05,16.76,15.11,31.46,32.37,31.37,17.39-.09,32.43-14.77,32.25-31.49Zm-48.88,79.64c.05-16.76-15.11-31.46-32.37-31.37-17.21.09-31.97,14.31-32.25,31.09-.28,16.7,14.66,31.34,32.17,31.57,17.12.22,32.41-14.52,32.45-31.29Zm-48.88,79.3c-.14-16.81-15.49-31.55-32.53-31.21-17.45.35-32,14.5-32.09,31.24-.09,16.74,15.03,31.45,32.33,31.41,17.34-.03,32.43-14.72,32.29-31.45Zm130.9.11c0,16.77,15.21,31.48,32.41,31.33,17.27-.15,31.98-14.36,32.21-31.12.24-16.71-14.74-31.37-32.2-31.53-17.17-.17-32.41,14.56-32.42,31.32Zm-65.41-88.34c2.24-8.71,6.03-16.41,11.97-23.19-8.22,1.05-16.07.59-24.9-.23,7.06,7.16,10.52,14.95,12.92,23.44h0Zm-.08,17.8c-2.24,8.71-6.03,16.41-11.97,23.2,8.22-1.05,16.07-.59,24.9.24-7.06-7.16-10.52-14.95-12.92-23.44Zm-48.71,61.63c2.04-8.71,6-16.35,11.88-23.2-8.19,1.06-16.03.64-24.58-.24,3.27,4,5.93,7.32,7.88,11.13,2.01,3.9,2.98,8.16,4.82,12.32h0Zm97.67,0c2.25-8.7,6.02-16.39,11.97-23.2-8.22,1.05-16.05.6-24.95-.26,7.12,7.16,10.55,14.97,12.98,23.45h0Z"/>
</svg>