<svg width="12" height="13" viewBox="0 0 12 13" fill="none" xmlns="http://www.w3.org/2000/svg">
<path d="M11.27 3.04127L8.38 0.161272C8.16 -0.0587282 7.81 -0.0487282 7.6 0.161272C7.38 0.381272 7.39 0.731272 7.6 0.941272L9.54 2.87127H0.55C0.24 2.87127 0 3.12127 0 3.42127C0 3.73127 0.25 3.97127 0.55 3.97127H9.53L7.59 5.90127C7.37 6.12127 7.37 6.47127 7.59 6.68127C7.81 6.90127 8.16 6.90127 8.37 6.68127L11.26 3.80127C11.48 3.61127 11.48 3.26127 11.27 3.04127Z" fill="#FF8D24"/>
<path d="M0.161272 9.18195L3.05127 12.062C3.27127 12.282 3.62127 12.272 3.83127 12.062C4.05127 11.842 4.04127 11.492 3.83127 11.282L1.89127 9.35195H10.8713C11.1813 9.35195 11.4213 9.10195 11.4213 8.80195C11.4213 8.49195 11.1713 8.25195 10.8713 8.25195H1.89127L3.83127 6.32195C4.05127 6.10195 4.05127 5.75195 3.83127 5.54195C3.61127 5.32195 3.26127 5.32195 3.05127 5.54195L0.161272 8.42195C-0.0587282 8.61195 -0.0487282 8.96195 0.161272 9.18195Z" fill="#FF8D24"/>
</svg>
