<?xml version="1.0" encoding="UTF-8"?>
<svg id="Capa_1" data-name="Capa 1" xmlns="http://www.w3.org/2000/svg" viewBox="0 0 1249.8 1251.64">
  <defs>
    <style>
      .cls-1 {
        stroke-width: 0px;
        fill: #7C7C7C;
      }
    </style>
  </defs>
  <g>
    <path class="cls-1" d="m624.74,78.05c-130.05,0-260.12,1.73-390.12-.65-79.87-1.46-158.89,58.58-158.26,156.84.57,88.6-.62,177.2.84,265.82.57,34.62-.89,69.41-.82,104.12.14,69.42,2.32,138.86.99,208.24-1.31,68.58-.68,137.13-.85,205.7-.1,37.11,9.93,71.2,34.18,100.23,30.39,36.36,69.02,54.85,116.66,54.81,163.45-.12,326.9-.07,490.34.04,95.3.07,190.6.31,285.9.62,35.13.11,69.47-2.61,99.79-23.16,44.82-30.37,69.35-72.16,69.68-126.65.51-82.39.1-164.78.2-247.17.03-21.77,8.66-35.7,24.98-41.37,25.88-8.99,50.59,7.79,51.01,35.31.49,32.06.17,64.13.17,96.2,0,52.96.23,105.93-.09,158.89-.69,115.76-88.38,212.09-203.53,223.08-49.72,4.75-99.67,1.79-149.5,1.88-221.34.39-442.69.23-664.03.04-108.51-.1-201.19-71.61-225.48-173.64C2.46,1059.02,0,1040.55,0,1021.69.13,757.59-.04,493.5.12,229.4.19,110.09,89.97,12.36,208.41,1.61,220.87.48,233.27,0,245.74,0c254.75.03,509.49.1,764.24.04,63.97-.01,121.11,18.02,168.18,62.87,41.98,40,66.84,88.66,70.58,146.8,1.77,27.51.87,55.21.59,82.81-.22,21.78-17.13,39.16-37.21,39.27-20.48.11-37.94-16.5-38.72-38.26-.77-21.35-.19-42.75-.26-64.12-.28-85.98-65.37-151.18-151.57-151.3-132.27-.19-264.54-.05-396.81-.06Z"/>
    <path class="cls-1" d="m676.25,633.03v130.82c0,20.67-4.69,36.16-14.06,46.49-9.37,10.33-21.75,15.5-37.12,15.5s-26.97-5.17-36.22-15.5c-9.25-10.33-13.88-25.82-13.88-46.49v-156.77c0-24.74-.85-43.97-2.52-57.66-1.68-13.69-6.25-24.92-13.69-33.7-7.45-8.77-19.23-13.15-35.32-13.15-32.2,0-53.4,11.05-63.61,33.16-10.22,22.11-15.32,53.82-15.32,95.14v132.99c0,20.42-4.63,35.86-13.88,46.31-9.25,10.45-21.44,15.68-36.58,15.68s-27.09-5.23-36.58-15.68c-9.5-10.45-14.24-25.89-14.24-46.31v-281.47c0-18.5,4.26-32.56,12.79-42.17,8.52-9.61,19.76-14.42,33.7-14.42s24.69,4.5,33.7,13.51c9.01,9.01,13.51,21.44,13.51,37.3v9.37c17.06-20.42,35.32-35.44,54.78-45.05,19.46-9.61,41.08-14.42,64.87-14.42s46.01,4.93,63.79,14.78c17.78,9.86,32.44,24.75,43.97,44.69,16.58-20.18,34.36-35.14,53.34-44.87,18.98-9.73,40-14.6,63.07-14.6,26.9,0,50.09,5.29,69.56,15.86,19.46,10.58,34,25.71,43.61,45.41,8.41,17.78,12.61,45.77,12.61,83.97v192.09c0,20.67-4.69,36.16-14.06,46.49-9.37,10.33-21.75,15.5-37.12,15.5s-27.09-5.23-36.58-15.68c-9.5-10.45-14.24-25.89-14.24-46.31v-165.42c0-21.14-.9-38.08-2.7-50.82-1.8-12.73-6.67-23.43-14.6-32.08-7.93-8.65-19.95-12.97-36.04-12.97-12.97,0-25.29,3.84-36.94,11.53-11.66,7.69-20.72,18.02-27.21,30.99-7.21,16.58-10.81,45.9-10.81,87.94Z"/>
  </g>
  <path class="cls-1" d="m1123.89,485.75c13.72,0,25.53-4.03,35.45-12.08,9.91-8.05,14.87-19.6,14.87-34.66,0-11.48-3.95-21.36-11.85-29.63-7.9-8.27-18.56-12.41-31.98-12.41-9.1,0-16.59,1.27-22.48,3.8-5.89,2.54-10.55,5.89-13.98,10.06-3.43,4.18-6.67,9.54-9.73,16.1-3.06,6.56-5.85,12.75-8.39,18.56-1.49,3.13-4.18,5.59-8.05,7.38-3.88,1.79-8.35,2.68-13.42,2.68-5.97,0-11.44-2.42-16.44-7.27-5-4.84-7.49-11.29-7.49-19.34s2.35-15.91,7.04-24.49c4.7-8.57,11.55-16.73,20.57-24.49,9.02-7.75,20.24-13.98,33.66-18.67,13.42-4.7,28.4-7.04,44.95-7.04,14.46,0,27.65,1.98,39.58,5.93,11.93,3.95,22.29,9.66,31.09,17.11,8.8,7.46,15.43,16.1,19.9,25.94s6.71,20.43,6.71,31.76c0,14.91-3.24,27.7-9.73,38.35-6.49,10.66-15.77,21.06-27.84,31.2,11.63,6.26,21.43,13.42,29.41,21.47,7.97,8.05,13.98,16.96,18,26.73,4.03,9.77,6.04,20.32,6.04,31.65,0,13.57-2.72,26.69-8.16,39.36-5.44,12.67-13.46,23.97-24.04,33.88-10.59,9.92-23.15,17.67-37.68,23.26-14.54,5.59-30.6,8.39-48.19,8.39s-33.92-3.21-48.08-9.62c-14.17-6.41-25.83-14.42-35-24.04s-16.1-19.57-20.8-29.86-7.04-18.79-7.04-25.5c0-8.64,2.8-15.62,8.39-20.91,5.59-5.29,12.56-7.94,20.91-7.94,4.17,0,8.2,1.23,12.08,3.69,3.87,2.46,6.41,5.41,7.6,8.83,7.75,20.73,16.06,36.12,24.94,46.18,8.87,10.06,21.36,15.1,37.46,15.1,9.24,0,18.15-2.27,26.73-6.82,8.57-4.55,15.65-11.29,21.25-20.24,5.59-8.95,8.39-19.31,8.39-31.09,0-17.44-4.77-31.12-14.31-41.04-9.54-9.91-22.81-14.87-39.81-14.87-2.98,0-7.6.3-13.87.89-6.26.6-10.29.89-12.08.89-8.2,0-14.54-2.05-19.01-6.15-4.47-4.1-6.71-9.8-6.71-17.11s2.68-12.93,8.05-17.33c5.37-4.4,13.34-6.6,23.93-6.6h9.17Z"/>
</svg>
