<svg width="13" height="13" viewBox="0 0 13 13" fill="none" xmlns="http://www.w3.org/2000/svg">
<path d="M6.49 0C2.9 0 0 2.91 0 6.49C0 10.07 2.91 12.98 6.49 12.98C10.07 12.98 12.98 10.07 12.98 6.49C12.98 2.91 10.07 0 6.49 0ZM6.49 12.06C3.42 12.06 0.919998 9.57 0.919998 6.49C0.919998 3.41 3.41 0.92 6.49 0.92C9.57 0.92 12.06 3.41 12.06 6.49C12.05 9.56 9.56 12.05 6.49 12.06Z" fill="#7C7C7C"/>
<path d="M6.49031 2.32031C6.23031 2.32031 6.03031 2.53031 6.03031 2.78031V6.03031H2.78031C2.52031 6.03031 2.32031 6.24031 2.32031 6.49031C2.32031 6.75031 2.53031 6.95031 2.78031 6.95031H6.49031C6.75031 6.95031 6.95031 6.74031 6.95031 6.49031V2.78031C6.95031 2.52031 6.75031 2.32031 6.49031 2.32031Z" fill="#7C7C7C"/>
</svg>
