<svg width="20" height="16" viewBox="0 0 20 16" fill="none" xmlns="http://www.w3.org/2000/svg">
<path d="M16.8945 5.34165C16.5537 5.01134 16.2557 4.72441 15.9603 4.43664C14.9678 3.47073 13.9727 2.50733 12.9845 1.53642C12.4706 1.03094 12.671 0.229358 13.3544 0.0400139C13.7149 -0.0600799 14.0249 0.040848 14.2895 0.29859C15.4473 1.42798 16.6068 2.55487 17.7654 3.68343C18.3949 4.2965 19.026 4.90874 19.6537 5.52349C20.117 5.97725 20.1144 6.49106 19.6477 6.94565C17.8802 8.6681 16.111 10.3889 14.3452 12.1122C14.1277 12.3249 13.8811 12.4583 13.5685 12.4375C13.1866 12.4108 12.9048 12.2273 12.7704 11.8744C12.6334 11.5166 12.713 11.1896 12.9896 10.9177C13.5916 10.3272 14.1979 9.73994 14.8025 9.15105C15.4268 8.54298 16.0519 7.93492 16.6762 7.32601C16.7301 7.27346 16.7806 7.21841 16.8611 7.135C16.749 7.12999 16.6753 7.12332 16.6008 7.12332C11.3934 7.12249 8.07673 7.12249 2.86927 7.12332C2.17991 7.12332 1.83309 7.46197 1.83309 8.13343C1.83309 10.4298 1.83309 12.7261 1.83224 15.0216C1.83224 15.5696 1.49227 15.9608 0.990446 15.9983C0.456085 16.0383 0.0124972 15.6413 0.0039337 15.1016C-0.00377343 14.5811 0.002221 14.0607 0.002221 13.541C0.002221 11.7168 0.000508305 9.89175 0.00307735 8.06754C0.00479004 6.66122 0.966469 5.57437 2.39571 5.36501C2.54986 5.34248 2.70828 5.34332 2.86414 5.34332C8.07159 5.34248 11.3882 5.34248 16.5957 5.34248C16.6727 5.34165 16.7498 5.34165 16.8945 5.34165Z" fill="#24397C"/>
</svg>
