<svg width="22" height="22" viewBox="0 0 22 22" fill="none" xmlns="http://www.w3.org/2000/svg">
<path d="M18.2188 2.75H14.4375V2.0625C14.4375 0.923398 13.5141 0 12.375 0H9.625C8.4859 0 7.5625 0.923398 7.5625 2.0625V2.75H3.78125C2.83203 2.75 2.0625 3.51953 2.0625 4.46875V5.84375C2.0625 6.22346 2.37029 6.53125 2.75 6.53125H19.25C19.6297 6.53125 19.9375 6.22346 19.9375 5.84375V4.46875C19.9375 3.51953 19.168 2.75 18.2188 2.75ZM8.9375 2.0625C8.9375 1.68352 9.24602 1.375 9.625 1.375H12.375C12.754 1.375 13.0625 1.68352 13.0625 2.0625V2.75H8.9375V2.0625Z" fill="#848484"/>
<path d="M3.36718 7.90625C3.2445 7.90625 3.14675 8.00877 3.15259 8.13132L3.71978 20.0355C3.7722 21.1372 4.67712 22 5.7797 22H16.2202C17.3228 22 18.2277 21.1372 18.2802 20.0355L18.8474 8.13132C18.8532 8.00877 18.7554 7.90625 18.6328 7.90625H3.36718ZM13.75 9.625C13.75 9.24516 14.0576 8.9375 14.4375 8.9375C14.8173 8.9375 15.125 9.24516 15.125 9.625V18.5625C15.125 18.9423 14.8173 19.25 14.4375 19.25C14.0576 19.25 13.75 18.9423 13.75 18.5625V9.625ZM10.3125 9.625C10.3125 9.24516 10.6201 8.9375 11 8.9375C11.3798 8.9375 11.6875 9.24516 11.6875 9.625V18.5625C11.6875 18.9423 11.3798 19.25 11 19.25C10.6201 19.25 10.3125 18.9423 10.3125 18.5625V9.625ZM6.87498 9.625C6.87498 9.24516 7.18263 8.9375 7.56248 8.9375C7.94232 8.9375 8.24998 9.24516 8.24998 9.625V18.5625C8.24998 18.9423 7.94232 19.25 7.56248 19.25C7.18263 19.25 6.87498 18.9423 6.87498 18.5625V9.625Z" fill="#848484"/>
</svg>
