<svg width="19" height="23" viewBox="0 0 19 23" fill="none" xmlns="http://www.w3.org/2000/svg">
<path d="M16.5504 2.81709H12.6769V2.11282C12.6769 0.945925 11.731 0 10.5641 0H7.74699C6.5801 0 5.63418 0.945925 5.63418 2.11282V2.81709H1.76068C0.788301 2.81709 0 3.60539 0 4.57777V5.98631C0 6.37529 0.315294 6.69058 0.704272 6.69058H17.6068C17.9958 6.69058 18.3111 6.37529 18.3111 5.98631V4.57777C18.3111 3.60539 17.5228 2.81709 16.5504 2.81709ZM7.04272 2.11282C7.04272 1.72459 7.35876 1.40854 7.74699 1.40854H10.5641C10.9523 1.40854 11.2684 1.72459 11.2684 2.11282V2.81709H7.04272V2.11282Z" fill="white"/>
<path d="M1.33726 8.09912C1.21159 8.09912 1.11146 8.20415 1.11744 8.32968L1.69847 20.5242C1.75217 21.6528 2.67917 22.5367 3.80864 22.5367H14.5039C15.6334 22.5367 16.5604 21.6528 16.6141 20.5242L17.1951 8.32968C17.2011 8.20415 17.1009 8.09912 16.9753 8.09912H1.33726ZM11.9734 9.8598C11.9734 9.47069 12.2885 9.15553 12.6776 9.15553C13.0667 9.15553 13.3819 9.47069 13.3819 9.8598V19.0153C13.3819 19.4044 13.0667 19.7196 12.6776 19.7196C12.2885 19.7196 11.9734 19.4044 11.9734 19.0153V9.8598ZM8.452 9.8598C8.452 9.47069 8.76716 9.15553 9.15627 9.15553C9.54538 9.15553 9.86054 9.47069 9.86054 9.8598V19.0153C9.86054 19.4044 9.54538 19.7196 9.15627 19.7196C8.76716 19.7196 8.452 19.4044 8.452 19.0153V9.8598ZM4.93064 9.8598C4.93064 9.47069 5.2458 9.15553 5.63491 9.15553C6.02402 9.15553 6.33918 9.47069 6.33918 9.8598V19.0153C6.33918 19.4044 6.02402 19.7196 5.63491 19.7196C5.2458 19.7196 4.93064 19.4044 4.93064 19.0153V9.8598Z" fill="white"/>
</svg>
