<svg width="96" height="96" viewBox="0 0 96 96" fill="none" xmlns="http://www.w3.org/2000/svg">
<path d="M80.8 24.0872H49.6003V17.6873H60.7998C61.7087 17.6873 62.54 17.1738 62.9465 16.3608C63.353 15.5479 63.2651 14.5745 62.7202 13.8472L59.6001 9.68774L62.7202 5.52759C63.2651 4.80029 63.353 3.8269 62.9465 3.01392C62.54 2.20093 61.7087 1.6875 60.7998 1.6875H43.1997C41.4324 1.6875 39.9998 3.12012 39.9998 4.88745V24.0872H18.3999C10.4275 24.1003 3.81812 30.2673 3.25415 38.22C3.22852 38.3079 3.21021 38.3972 3.19995 38.4873C3.19995 38.5452 3.22705 38.5928 3.23218 38.6477C3.23218 38.8616 3.19995 39.0718 3.19995 39.2878V50.0618C1.28906 50.7378 0.00805665 52.5403 0 54.5676V72.0872C0 74.7385 2.14893 76.8874 4.80029 76.8874H44.8V91.2876C44.8 93.0549 46.2327 94.4875 48 94.4875H60.7998C62.5671 94.4875 63.9998 93.0549 63.9998 91.2876V76.8874H91.1997C93.8511 76.8874 96 74.7385 96 72.0872V39.2878C96 30.8928 89.1951 24.0872 80.8 24.0872ZM44.8 33.6877C46.5674 33.6877 48 35.1204 48 36.8877C48 38.655 46.5674 40.0876 44.8 40.0876C43.0327 40.0876 41.6001 38.655 41.6001 36.8877C41.6001 35.1204 43.0327 33.6877 44.8 33.6877ZM56.6799 11.1277L59.2002 14.4873H49.6003V4.88745H59.2002L56.6799 8.2478C56.0449 9.10254 56.0449 10.2729 56.6799 11.1277ZM43.1997 4.88745H46.3997V30.7148C45.3545 30.4116 44.2449 30.4116 43.1997 30.7148V4.88745ZM18.3999 27.2878C25.0276 27.2878 30.3999 32.6602 30.3999 39.2878V49.7673H6.3999V39.2878C6.40723 32.6631 11.7751 27.2944 18.3999 27.2878ZM3.19995 71.9546V54.7002L13.9871 63.3406L3.19995 71.9546ZM6.15527 52.9673H30.3999V55.7197L20.1599 63.9163C20.0662 63.9873 19.938 63.991 19.8398 63.9258L6.15527 52.9673ZM30.3999 59.8184V66.835L26.0222 63.3259L30.3999 59.8184ZM8.00024 73.6875H6.15967L16.5491 65.3848L17.8608 66.4351C18.4688 66.9141 19.2209 67.1741 19.9951 67.1741C20.7795 67.1719 21.5405 66.9075 22.1565 66.4219L23.4624 65.3752L30.3999 70.9358V73.6875H8.00024ZM48 76.8874H51.2V91.2876H48V76.8874ZM60.7998 91.2876H54.3999V76.8874H60.7998V91.2876ZM92.8 72.0872C92.8 72.9712 92.0837 73.6875 91.1997 73.6875H33.5999V39.2878C33.5999 39.0601 33.5779 38.8381 33.5662 38.6125C33.5801 38.5715 33.5911 38.5298 33.5999 38.4873C33.5911 38.4199 33.5771 38.3533 33.5603 38.2873C33.3325 34.6091 31.7651 31.1418 29.1555 28.5403C28.7014 28.0935 28.2209 27.6746 27.7148 27.2878H39.9998V32.699C37.7307 35.272 37.894 39.1765 40.3704 41.551C42.8459 43.9255 46.7542 43.9255 49.2297 41.551C51.7061 39.1765 51.8694 35.272 49.6003 32.699V27.2878H80.8C87.4277 27.2878 92.8 32.6602 92.8 39.2878V72.0872Z" fill="#CACACA"/>
<path d="M75.1997 32.0874H57.5996C56.7163 32.0874 56 32.8037 56 33.6877C56 34.571 56.7163 35.2874 57.5996 35.2874H75.1997C76.0837 35.2874 76.8 34.571 76.8 33.6877C76.8 32.8037 76.0837 32.0874 75.1997 32.0874Z" fill="#CACACA"/>
<path d="M81.5996 35.2874H83.2C84.0833 35.2874 84.7996 34.571 84.7996 33.6877C84.7996 32.8037 84.0833 32.0874 83.2 32.0874H81.5996C80.7163 32.0874 80 32.8037 80 33.6877C80 34.571 80.7163 35.2874 81.5996 35.2874Z" fill="#CACACA"/>
</svg>
