<svg width="33" height="34" viewBox="0 0 33 34" fill="none" xmlns="http://www.w3.org/2000/svg">
<circle cx="16.5" cy="17" r="16.5" fill="#BEBEBE"/>
<path d="M23.1374 10.633H21.4589V9.8726C21.4589 9.73244 21.3518 9.61914 21.2192 9.61914H19.5407C19.4081 9.61914 19.3009 9.73244 19.3009 9.8726V10.633H14.0256V9.8726C14.0256 9.73244 13.9184 9.61914 13.7858 9.61914H12.1073C11.9747 9.61914 11.8675 9.73244 11.8675 9.8726V10.633H10.189C10.0564 10.633 9.94922 10.7463 9.94922 10.8864V13.6745V24.5733C9.94922 24.7135 10.0564 24.8268 10.189 24.8268H23.1374C23.27 24.8268 23.3772 24.7135 23.3772 24.5733V13.6745V10.8864C23.3772 10.7463 23.27 10.633 23.1374 10.633ZM19.7804 10.1261H20.9794V10.8864V11.6468H19.7804V10.8864V10.1261ZM12.3471 10.1261H13.546V10.8864V11.6468H12.3471V10.8864V10.1261ZM10.4288 11.1399H11.8675V11.9003C11.8675 12.0405 11.9747 12.1538 12.1073 12.1538H13.7858C13.9184 12.1538 14.0256 12.0405 14.0256 11.9003V11.1399H19.3009V11.9003C19.3009 12.0405 19.4081 12.1538 19.5407 12.1538H21.2192C21.3518 12.1538 21.4589 12.0405 21.4589 11.9003V11.1399H22.8977V13.4211H10.4288V11.1399ZM10.4288 24.3199V13.928H22.8977V24.3199H10.4288Z" fill="white" stroke="white" stroke-width="0.2"/>
<path d="M18.5836 15.4492H16.9051H16.4255H14.747H14.2674H12.1094V17.7304V18.2373V20.0115V20.5184V22.7996H14.2674H14.747H16.4255H16.9051H18.5836H19.0632H21.2212V20.5184V20.0115V18.2373V17.7304V15.4492H19.0632H18.5836ZM16.9051 15.9561H18.5836V17.7304H16.9051V15.9561ZM18.5836 20.0115H16.9051V18.2373H18.5836V20.0115ZM14.747 18.2373H16.4255V20.0115H14.747V18.2373ZM14.747 15.9561H16.4255V17.7304H14.747V15.9561ZM12.5889 15.9561H14.2674V17.7304H12.5889V15.9561ZM12.5889 18.2373H14.2674V20.0115H12.5889V18.2373ZM14.2674 22.2927H12.5889V20.5184H14.2674V22.2927ZM16.4255 22.2927H14.747V20.5184H16.4255V22.2927ZM18.5836 22.2927H16.9051V20.5184H18.5836V22.2927ZM20.7417 22.2927H19.0632V20.5184H20.7417V22.2927ZM20.7417 20.0115H19.0632V18.2373H20.7417V20.0115ZM20.7417 15.9561V17.7304H19.0632V15.9561H20.7417Z" fill="white" stroke="white" stroke-width="0.2"/>
</svg>
