<?xml version="1.0" encoding="utf-8"?>
<!-- Generator: Adobe Illustrator 22.1.0, SVG Export Plug-In . SVG Version: 6.00 Build 0)  -->
<svg version="1.1" id="Capa_1" xmlns="http://www.w3.org/2000/svg" xmlns:xlink="http://www.w3.org/1999/xlink" x="0px" y="0px"
	 viewBox="0 0 2133 2133" style="enable-background:new 0 0 2133 2133;" xml:space="preserve">
<style type="text/css">
	.st0{enable-background:new    ;}
	.st1{fill:#FF8100;enable-background:new    ;}
	.st2{fill:#FF8100;}
	.st3{fill:#FFFFFF;enable-background:new    ;}
	.st4{fill:#FFFFFF;}
</style>
<g>
	<g class="st0">
		<g>
			<rect x="133" y="460.4" class="st1" width="1867" height="1335"/>
			<rect x="279.6" y="264.7" class="st2" width="1562.7" height="1728.4"/>
		</g>
		<ellipse class="st2" cx="279.4" cy="456.3" rx="146.4" ry="191.5"/>
		<ellipse class="st2" cx="279.4" cy="1798.5" rx="146.4" ry="194.6"/>
		<ellipse class="st2" cx="1848" cy="456.3" rx="152" ry="191.5"/>
		<ellipse class="st2" cx="1848" cy="1801.6" rx="152" ry="191.5"/>
	</g>
	<g>
		<rect x="467.2" y="199.6" class="st2" width="133" height="684"/>
		<circle class="st2" cx="533.8" cy="882.7" r="66.6"/>
		<circle class="st2" cx="533.6" cy="199.6" r="66.6"/>
	</g>
	<g>
		<rect x="1533.9" y="200.1" class="st2" width="133" height="684"/>
		<circle class="st2" cx="1600.6" cy="883.2" r="66.6"/>
		<circle class="st2" cx="1600.4" cy="200.1" r="66.6"/>
	</g>
</g>
<g>
	<g>
		<rect x="265.3" y="861.2" class="st3" width="1600.9" height="874.4"/>
		<rect x="391" y="733" class="st4" width="1340" height="1132"/>
	</g>
	<ellipse class="st4" cx="390.8" cy="858.5" rx="125.5" ry="125.4"/>
	<ellipse class="st4" cx="390.8" cy="1737.5" rx="125.5" ry="127.5"/>
	<ellipse class="st4" cx="1735.8" cy="858.5" rx="130.4" ry="125.4"/>
	<ellipse class="st4" cx="1735.8" cy="1739.6" rx="130.4" ry="125.4"/>
</g>
<g>
	<circle class="st1" cx="1228.2" cy="961.1" r="105.4"/>
	<circle class="st1" cx="1564.2" cy="961.1" r="105.4"/>
	<circle class="st1" cx="1228.2" cy="1297.1" r="105.4"/>
	<circle class="st1" cx="1564.2" cy="1297.1" r="105.4"/>
	<circle class="st1" cx="562.1" cy="1297.1" r="105.4"/>
	<circle class="st1" cx="898.2" cy="1297.1" r="105.4"/>
	<circle class="st1" cx="562.1" cy="1630.2" r="105.4"/>
	<circle class="st1" cx="898.2" cy="1630.2" r="105.4"/>
	<circle class="st1" cx="1228.2" cy="1630.2" r="105.4"/>
</g>
</svg>
