<svg width="54" height="42" viewBox="0 0 54 42" fill="none" xmlns="http://www.w3.org/2000/svg">
<g clip-path="url(#clip0_12718_5559)">
<path d="M47.1001 6.86615H38.5943L38.3913 5.9967C37.5685 2.50841 34.4376 0.078125 30.7831 0.078125H23.2069C19.5631 0.078125 16.4321 2.50841 15.5987 5.9967L15.3956 6.86615H6.90048C3.54517 6.86615 0.820312 9.53737 0.820312 12.8162V35.4639C0.820312 38.9207 3.68408 41.7281 7.21037 41.7281H46.7903C50.3165 41.7281 53.1803 38.9207 53.1803 35.4639V12.8162C53.1803 9.53737 50.4555 6.86615 47.1001 6.86615ZM50.5516 35.4639C50.5516 37.5066 48.8633 39.1617 46.7796 39.1617H7.21037C5.12666 39.1617 3.43831 37.5066 3.43831 35.4639V12.8162C3.43831 10.9411 4.98774 9.42214 6.90048 9.42214H16.4428C17.0519 9.42214 17.5755 9.0136 17.7144 8.42698L18.1525 6.56237C18.7082 4.24732 20.7812 2.63411 23.2069 2.63411H30.7831C33.2087 2.63411 35.2817 4.24732 35.8374 6.56237L36.2755 8.42698C36.4144 9.00313 36.938 9.42214 37.5471 9.42214H47.0895C49.0022 9.42214 50.5516 10.9411 50.5516 12.8162V35.4639Z" fill="#C7C7C7"/>
<path d="M9.67922 16.6312C10.6471 16.6312 11.4317 15.8621 11.4317 14.9133C11.4317 13.9645 10.6471 13.1953 9.67922 13.1953C8.71136 13.1953 7.92676 13.9645 7.92676 14.9133C7.92676 15.8621 8.71136 16.6312 9.67922 16.6312Z" fill="#C7C7C7"/>
<path d="M27.0005 13.5898C20.9417 13.5898 16.0049 18.419 16.0049 24.369C16.0049 30.319 20.9417 35.1481 27.0005 35.1481C33.0593 35.1481 37.9961 30.3085 37.9961 24.3585C37.9961 18.4295 33.0593 13.5898 27.0005 13.5898ZM27.0005 32.5712C22.3843 32.5712 18.6229 28.8839 18.6229 24.3585C18.6229 19.8332 22.3843 16.1458 27.0005 16.1458C31.6167 16.1458 35.3781 19.8332 35.3781 24.3585C35.3781 28.8839 31.6167 32.5712 27.0005 32.5712Z" fill="#C7C7C7"/>
</g>
<defs>
<clipPath id="clip0_12718_5559">
<rect width="52.36" height="41.65" fill="white" transform="translate(0.820312 0.078125)"/>
</clipPath>
</defs>
</svg>
