<svg width="57" height="57" viewBox="0 0 57 57" fill="none" xmlns="http://www.w3.org/2000/svg">
<g clip-path="url(#clip0)">
<path d="M54.8765 13.2408C53.7591 12.0703 52.2161 11.3786 50.4602 11.3786H41.6276V11.2721C41.6276 9.94194 41.0955 8.66494 40.191 7.81361C39.2864 6.90907 38.0627 6.37698 36.7325 6.37698H20.77C19.3866 6.37698 18.1628 6.90907 17.2582 7.81361C16.3537 8.71815 15.8216 9.94194 15.8216 11.2721V11.3786H7.04225C5.28637 11.3786 3.74333 12.0703 2.62596 13.2408C1.50859 14.3582 0.763672 15.9545 0.763672 17.6571V44.1548C0.763672 45.9107 1.45538 47.4538 2.62596 48.5711C3.74333 49.6885 5.33958 50.4334 7.04225 50.4334H50.4602C52.2161 50.4334 53.7591 49.7417 54.8765 48.5711C55.9938 47.4538 56.7388 45.8575 56.7388 44.1548V17.6571C56.7388 15.9013 56.047 14.3582 54.8765 13.2408ZM53.9719 44.1548H53.9187C53.9187 45.1126 53.5463 45.9639 52.9078 46.6024C52.2693 47.2409 51.4179 47.6134 50.4602 47.6134H7.04225C6.0845 47.6134 5.23317 47.2409 4.59467 46.6024C3.95617 45.9639 3.58371 45.1126 3.58371 44.1548V17.6571C3.58371 16.6994 3.95617 15.8481 4.59467 15.2096C5.23317 14.5711 6.0845 14.1986 7.04225 14.1986H17.3114C18.1096 14.1986 18.7481 13.5601 18.7481 12.762V11.2189C18.7481 10.6336 18.9609 10.1016 19.3334 9.7291C19.7058 9.35665 20.2379 9.14381 20.8232 9.14381H36.7325C37.3177 9.14381 37.8498 9.35665 38.2223 9.7291C38.5947 10.1016 38.8076 10.6336 38.8076 11.2189V12.762C38.8076 13.5601 39.4461 14.1986 40.2442 14.1986H50.5134C51.4711 14.1986 52.3225 14.5711 52.961 15.2096C53.5995 15.8481 53.9719 16.6994 53.9719 17.6571V44.1548Z" fill="#E7E7E7"/>
<path d="M28.7513 17.8167C25.1332 17.8167 21.8343 19.3065 19.4931 21.6477C17.0987 24.0421 15.6621 27.2878 15.6621 30.9059C15.6621 34.5241 17.1519 37.823 19.4931 40.1642C21.8875 42.5586 25.1332 43.9952 28.7513 43.9952C32.3695 43.9952 35.6684 42.5054 38.0096 40.1642C40.404 37.7698 41.8406 34.5241 41.8406 30.9059C41.8406 27.2878 40.3507 23.9889 38.0096 21.6477C35.6684 19.3065 32.3695 17.8167 28.7513 17.8167ZM35.9877 38.1955C34.1254 40.0046 31.5714 41.1751 28.7513 41.1751C25.9313 41.1751 23.3773 40.0046 21.515 38.1955C19.6527 36.3332 18.5354 33.7792 18.5354 30.9592C18.5354 28.1391 19.7059 25.5851 21.515 23.7228C23.3773 21.8605 25.9313 20.7432 28.7513 20.7432C31.5714 20.7432 34.1254 21.9137 35.9877 23.7228C37.85 25.5851 38.9673 28.1391 38.9673 30.9592C39.0205 33.7792 37.85 36.3332 35.9877 38.1955Z" fill="#E7E7E7"/>
<path d="M47.6931 22.9779C49.1331 22.9779 50.3003 21.8106 50.3003 20.3707C50.3003 18.9308 49.1331 17.7635 47.6931 17.7635C46.2532 17.7635 45.0859 18.9308 45.0859 20.3707C45.0859 21.8106 46.2532 22.9779 47.6931 22.9779Z" fill="#E7E7E7"/>
</g>
<defs>
<clipPath id="clip0">
<rect x="0.763672" y="0.417542" width="55.9751" height="55.9751" rx="5" fill="white"/>
</clipPath>
</defs>
</svg>
