<svg id="Capa_1" data-name="Capa 1" xmlns="http://www.w3.org/2000/svg" viewBox="0 0 297.45 298.02"><defs><style>.cls-1{fill:#ffffff;}</style></defs><path class="cls-1" d="M235.48,148.72a12.39,12.39,0,0,0-12.39,12.39v99.15a12.42,12.42,0,0,1-12.4,12.4H37.18a12.41,12.41,0,0,1-12.39-12.4V86.75A12.4,12.4,0,0,1,37.18,74.36h99.15a12.4,12.4,0,0,0,0-24.79H37.18A37.22,37.22,0,0,0,0,86.75V260.26a37.22,37.22,0,0,0,37.18,37.18H210.69a37.23,37.23,0,0,0,37.19-37.18V161.11A12.39,12.39,0,0,0,235.48,148.72Z"/><path class="cls-1" d="M116.21,137.43a6.28,6.28,0,0,0-1.7,3.16l-8.76,43.83a6.2,6.2,0,0,0,6.08,7.41,5.69,5.69,0,0,0,1.22-.13l43.81-8.76a6.15,6.15,0,0,0,3.17-1.7l98.06-98.06L214.28,39.37Z"/><path class="cls-1" d="M288.38,9.07a31,31,0,0,0-43.81,0L227.41,26.22,271.23,70l17.15-17.15a31,31,0,0,0,0-43.81Z"/></svg>