<svg width="15" height="15" viewBox="0 0 15 15" fill="none" xmlns="http://www.w3.org/2000/svg">
<path d="M12.4219 1.875H9.84375V1.40625C9.84375 0.62959 9.21416 0 8.4375 0H6.5625C5.78584 0 5.15625 0.62959 5.15625 1.40625V1.875H2.57812C1.93093 1.875 1.40625 2.39968 1.40625 3.04688V3.98438C1.40625 4.24327 1.6161 4.45312 1.875 4.45312H13.125C13.3839 4.45312 13.5938 4.24327 13.5938 3.98438V3.04688C13.5938 2.39968 13.0691 1.875 12.4219 1.875ZM6.09375 1.40625C6.09375 1.14785 6.3041 0.9375 6.5625 0.9375H8.4375C8.6959 0.9375 8.90625 1.14785 8.90625 1.40625V1.875H6.09375V1.40625Z" fill="#24397C"/>
<path d="M2.29492 5.39062C2.21127 5.39062 2.14462 5.46053 2.14861 5.54408L2.53533 13.6605C2.57107 14.4117 3.18806 15 3.93982 15H11.0584C11.8101 15 12.4271 14.4117 12.4629 13.6605L12.8496 5.54408C12.8536 5.46053 12.7869 5.39062 12.7033 5.39062H2.29492ZM9.37409 6.5625C9.37409 6.30352 9.58386 6.09375 9.84285 6.09375C10.1018 6.09375 10.3116 6.30352 10.3116 6.5625V12.6562C10.3116 12.9152 10.1018 13.125 9.84285 13.125C9.58386 13.125 9.37409 12.9152 9.37409 12.6562V6.5625ZM7.03034 6.5625C7.03034 6.30352 7.24011 6.09375 7.49909 6.09375C7.75808 6.09375 7.96784 6.30352 7.96784 6.5625V12.6562C7.96784 12.9152 7.75808 13.125 7.49909 13.125C7.24011 13.125 7.03034 12.9152 7.03034 12.6562V6.5625ZM4.6866 6.5625C4.6866 6.30352 4.89636 6.09375 5.15535 6.09375C5.41433 6.09375 5.6241 6.30352 5.6241 6.5625V12.6562C5.6241 12.9152 5.41433 13.125 5.15535 13.125C4.89636 13.125 4.6866 12.9152 4.6866 12.6562V6.5625Z" fill="#24397C"/>
</svg>
