<svg width="26" height="25" viewBox="0 0 26 25" fill="none" xmlns="http://www.w3.org/2000/svg">
<path d="M23.7522 2.26355C22.9059 1.4488 21.7806 1.00009 20.5838 1.00009L5.48079 1C3.01004 1.00014 1 2.93539 1.00005 5.31398L1 19.8547C1.00005 22.2334 3.01014 24.1686 5.48084 24.1686H20.5838C23.0545 24.1686 25.0645 22.2334 25.0645 19.8547V5.31402C25.0645 4.1617 24.5985 3.07834 23.7522 2.26355ZM23.6545 19.8547C23.6545 21.4849 22.277 22.8111 20.5838 22.8111H5.48084C3.78763 22.8111 2.41008 21.4848 2.41003 19.8547L2.41008 5.31393C2.41003 3.68385 3.78758 2.35763 5.48084 2.35754L20.5838 2.35763C21.404 2.35763 22.1751 2.66511 22.7551 3.22346C23.3351 3.78186 23.6545 4.5243 23.6545 5.31402V19.8547Z" fill="white" stroke="white" stroke-width="0.5"/>
<path d="M17.269 10.8419C16.9937 10.5768 16.5473 10.5768 16.272 10.8419L13.7378 13.2818L13.7377 6.04107C13.7377 5.66621 13.4221 5.3623 13.0327 5.3623C12.6434 5.3623 12.3277 5.66621 12.3277 6.04107L12.3278 13.282L9.79337 10.842C9.51809 10.5769 9.07167 10.5769 8.79634 10.842C8.52101 11.107 8.52101 11.5368 8.79634 11.8019L12.5342 15.4005C12.6665 15.5279 12.8458 15.5994 13.0327 15.5994C13.2197 15.5994 13.3991 15.5278 13.5313 15.4005L17.2691 11.8018C17.5444 11.5367 17.5444 11.1069 17.269 10.8419Z" fill="white" stroke="white" stroke-width="0.5"/>
<path d="M19.829 18.4497H6.23627C5.84691 18.4497 5.53125 18.7536 5.53125 19.1285C5.53125 19.5033 5.84691 19.8072 6.23627 19.8072H19.829C20.2184 19.8072 20.5341 19.5033 20.5341 19.1285C20.5341 18.7536 20.2184 18.4497 19.829 18.4497Z" fill="white" stroke="white" stroke-width="0.5"/>
</svg>
