<svg width="17" height="16" viewBox="0 0 17 16" fill="none" xmlns="http://www.w3.org/2000/svg">
<path d="M15.182 1.31806C14.6545 0.790566 13.9531 0.500059 13.207 0.500059L3.79299 0.5C2.25291 0.500088 1 1.75303 1.00003 3.29299L1 12.7071C1.00003 14.2471 2.25297 15.5 3.79302 15.5H13.207C14.7471 15.5 16 14.2471 16 12.707V3.29302C16 2.54697 15.7095 1.84558 15.182 1.31806ZM15.1211 12.707C15.1211 13.7625 14.2625 14.6211 13.207 14.6211H3.79302C2.7376 14.6211 1.87894 13.7624 1.87891 12.707L1.87894 3.29296C1.87891 2.2376 2.73757 1.37896 3.79302 1.37891L13.207 1.37896C13.7183 1.37896 14.199 1.57804 14.5605 1.93953C14.922 2.30105 15.1211 2.78173 15.1211 3.29302V12.707Z" fill="#24397C" stroke="#24397C" stroke-width="0.5"/>
<path d="M11.1404 6.87208C10.9688 6.70049 10.6906 6.70046 10.5189 6.87208L8.93931 8.45177L8.93929 3.76392C8.93929 3.52122 8.74253 3.32446 8.49983 3.32446C8.25714 3.32446 8.06038 3.52122 8.06038 3.76392L8.06041 8.45186L6.48066 6.87214C6.30907 6.70052 6.03081 6.70052 5.85918 6.87214C5.68756 7.04376 5.68756 7.32199 5.85918 7.49361L8.18911 9.82348C8.27152 9.90592 8.38329 9.95221 8.49983 9.95221C8.61637 9.95221 8.72817 9.90589 8.81058 9.82348L11.1404 7.49355C11.312 7.32193 11.312 7.0437 11.1404 6.87208Z" fill="#24397C" stroke="#24397C" stroke-width="0.5"/>
<path d="M12.7363 11.7971H4.26367C4.02098 11.7971 3.82422 11.9939 3.82422 12.2366C3.82422 12.4793 4.02098 12.676 4.26367 12.676H12.7363C12.979 12.676 13.1758 12.4793 13.1758 12.2366C13.1758 11.9938 12.979 11.7971 12.7363 11.7971Z" fill="#24397C" stroke="#24397C" stroke-width="0.5"/>
</svg>
