<svg width="18" height="18" viewBox="0 0 18 18" fill="none" xmlns="http://www.w3.org/2000/svg">
<path d="M14.0625 10.6876C13.752 10.6876 13.5 10.9396 13.5 11.2501V16.3126H1.125V3.93762H6.1875C6.498 3.93762 6.75 3.68562 6.75 3.37512C6.75 3.06462 6.498 2.81262 6.1875 2.81262H0.5625C0.252 2.81262 0 3.06462 0 3.37512V16.8751C0 17.1856 0.252 17.4376 0.5625 17.4376H14.0625C14.373 17.4376 14.625 17.1856 14.625 16.8751V11.2501C14.625 10.9396 14.373 10.6876 14.0625 10.6876Z" fill="#000000"/>
<path d="M17.8076 4.63962L13.3076 0.702117C13.1422 0.555867 12.906 0.520992 12.7046 0.613242C12.5043 0.704367 12.375 0.904617 12.375 1.12512V2.81262H12.042C8.42621 2.81262 5.31446 5.51149 4.80259 9.09124L4.50559 11.1714C4.46846 11.4335 4.61921 11.6877 4.87009 11.7789C4.93309 11.8014 4.99834 11.8126 5.06246 11.8126C5.25146 11.8126 5.43484 11.717 5.53946 11.5482L6.36859 10.2207C7.50709 8.40049 9.46909 7.31262 11.6167 7.31262H12.375V9.00012C12.375 9.22062 12.5043 9.42087 12.7046 9.51199C12.9037 9.60312 13.1411 9.56937 13.3076 9.42312L17.8076 5.48562C17.9302 5.37874 18 5.22574 18 5.06262C18 4.89949 17.9302 4.74649 17.8076 4.63962ZM13.5 7.76037V6.75012C13.5 6.43962 13.248 6.18762 12.9375 6.18762H11.6167C9.41171 6.18762 7.37209 7.15737 5.99284 8.82349C6.60034 6.00987 9.12821 3.93762 12.042 3.93762H12.9375C13.248 3.93762 13.5 3.68562 13.5 3.37512V2.36487L16.5836 5.06262L13.5 7.76037Z" fill="#000000"/>
</svg>
