<svg width="22" height="21" viewBox="0 0 22 21" fill="none" xmlns="http://www.w3.org/2000/svg">
<g clip-path="url(#clip0)">
<path d="M20.2831 5.6123H5.22666C4.27741 5.6123 3.50781 6.3819 3.50781 7.33115V18.8118C3.50781 19.7611 4.27741 20.5307 5.22666 20.5307H20.2833C21.2326 20.5307 22.0022 19.7611 22.0022 18.8118V7.33115C22.0019 6.38166 21.2326 5.6123 20.2831 5.6123ZM19.2758 10.5931L12.7457 14.9812L6.2158 10.5931V8.1994L12.8649 12.3823L19.2758 8.1994V10.5931Z" fill="white"/>
<path d="M1.95846 16.8315L0 15.3566V4.47459C0 4.2652 0.124519 4.07564 0.31698 3.99271L9.44242 0.0605618C9.6344 -0.0221286 9.85249 -0.0194689 10.0423 0.0675736L19.5362 4.42792H15.9094L10.0537 2.02676C9.87111 1.9518 9.66607 1.95325 9.48449 2.03062L2.27737 5.10347C2.08394 5.18592 1.95846 5.37572 1.95846 5.58607V16.8315Z" fill="white"/>
</g>
<defs>
<clipPath id="clip0">
<rect width="22" height="20.5304" fill="white"/>
</clipPath>
</defs>
</svg>
