<svg width="22" height="22" viewBox="0 0 22 22" fill="none" xmlns="http://www.w3.org/2000/svg">
<path d="M17.4883 1.97656H4.51172C2.0239 1.97656 0 4.00046 0 6.48828V13.4566C0 15.4417 1.30333 17.1707 3.19194 17.7241L5.37093 19.9033C5.49194 20.0241 5.65576 20.0921 5.8268 20.0921C5.99767 20.0921 6.16165 20.0241 6.2825 19.9033L8.28139 17.9042H17.4883C19.9761 17.9042 22 15.8803 22 13.3925V6.48828C22 4.00046 19.9761 1.97656 17.4883 1.97656ZM20.7109 13.3925C20.7109 15.1695 19.2653 16.6151 17.4883 16.6151H8.01451C7.84364 16.6151 7.67966 16.6831 7.55881 16.804L5.8268 18.536L3.98216 16.6913C3.89941 16.6086 3.79568 16.5499 3.68205 16.5217C2.27315 16.171 1.28906 14.9107 1.28906 13.4566V6.48828C1.28906 4.71129 2.73473 3.26562 4.51172 3.26562H17.4883C19.2653 3.26562 20.7109 4.71129 20.7109 6.48828V13.3925Z" fill="#A0A0A0"/>
<path d="M15.0931 8.15625H6.9082C6.5522 8.15625 6.26367 8.44495 6.26367 8.80078C6.26367 9.15678 6.5522 9.44531 6.9082 9.44531H15.0931C15.4491 9.44531 15.7376 9.15678 15.7376 8.80078C15.7376 8.44495 15.4491 8.15625 15.0931 8.15625Z" fill="#A0A0A0"/>
<path d="M15.0931 10.4346H6.9082C6.5522 10.4346 6.26367 10.7231 6.26367 11.0791C6.26367 11.4351 6.5522 11.7236 6.9082 11.7236H15.0931C15.4491 11.7236 15.7376 11.4351 15.7376 11.0791C15.7376 10.7231 15.4491 10.4346 15.0931 10.4346Z" fill="#A0A0A0"/>
</svg>
