<svg width="58" height="13" viewBox="0 0 58 13" fill="none" xmlns="http://www.w3.org/2000/svg">
<path d="M0.796875 0.625H2.25781L5.98438 9.89844L9.70312 0.625H11.1719L6.54688 12H5.40625L0.796875 0.625ZM0.320312 0.625H1.60938L1.82031 7.5625V12H0.320312V0.625ZM10.3516 0.625H11.6406V12H10.1406V7.5625L10.3516 0.625ZM15.8406 3.54688V12H14.3875V3.54688H15.8406ZM14.2781 1.30469C14.2781 1.07031 14.3484 0.872396 14.4891 0.710938C14.6349 0.549479 14.8484 0.46875 15.1297 0.46875C15.4057 0.46875 15.6167 0.549479 15.7625 0.710938C15.9135 0.872396 15.9891 1.07031 15.9891 1.30469C15.9891 1.52865 15.9135 1.72135 15.7625 1.88281C15.6167 2.03906 15.4057 2.11719 15.1297 2.11719C14.8484 2.11719 14.6349 2.03906 14.4891 1.88281C14.3484 1.72135 14.2781 1.52865 14.2781 1.30469ZM19.8062 5.35156V12H18.3609V3.54688H19.7281L19.8062 5.35156ZM19.4625 7.45312L18.8609 7.42969C18.8661 6.85156 18.9521 6.31771 19.1187 5.82812C19.2854 5.33333 19.5198 4.90365 19.8219 4.53906C20.124 4.17448 20.4833 3.89323 20.9 3.69531C21.3219 3.49219 21.788 3.39062 22.2984 3.39062C22.7151 3.39062 23.0901 3.44792 23.4234 3.5625C23.7568 3.67188 24.0406 3.84896 24.275 4.09375C24.5146 4.33854 24.6969 4.65625 24.8219 5.04688C24.9469 5.43229 25.0094 5.90365 25.0094 6.46094V12H23.5562V6.44531C23.5562 6.0026 23.4911 5.64844 23.3609 5.38281C23.2307 5.11198 23.0406 4.91667 22.7906 4.79688C22.5406 4.67188 22.2333 4.60938 21.8687 4.60938C21.5094 4.60938 21.1812 4.6849 20.8844 4.83594C20.5927 4.98698 20.3401 5.19531 20.1266 5.46094C19.9182 5.72656 19.7542 6.03125 19.6344 6.375C19.5198 6.71354 19.4625 7.07292 19.4625 7.45312ZM32.5766 10.0469V3.54688H34.0297V12H32.6469L32.5766 10.0469ZM32.85 8.26562L33.4516 8.25C33.4516 8.8125 33.3917 9.33333 33.2719 9.8125C33.1573 10.2865 32.9698 10.6979 32.7094 11.0469C32.449 11.3958 32.1078 11.6693 31.6859 11.8672C31.2641 12.0599 30.751 12.1562 30.1469 12.1562C29.7354 12.1562 29.3578 12.0964 29.0141 11.9766C28.6755 11.8568 28.3839 11.6719 28.1391 11.4219C27.8943 11.1719 27.7042 10.8464 27.5688 10.4453C27.4385 10.0443 27.3734 9.5625 27.3734 9V3.54688H28.8188V9.01562C28.8188 9.39583 28.8604 9.71094 28.9438 9.96094C29.0323 10.2057 29.1495 10.401 29.2953 10.5469C29.4464 10.6875 29.613 10.7865 29.7953 10.8438C29.9828 10.901 30.1755 10.9297 30.3734 10.9297C30.988 10.9297 31.475 10.8125 31.8344 10.5781C32.1938 10.3385 32.4516 10.0182 32.6078 9.61719C32.7693 9.21094 32.85 8.76042 32.85 8.26562ZM39.9719 3.54688V4.65625H35.4016V3.54688H39.9719ZM36.9484 1.49219H38.3937V9.90625C38.3937 10.1927 38.438 10.4089 38.5266 10.5547C38.6151 10.7005 38.7297 10.7969 38.8703 10.8438C39.0109 10.8906 39.162 10.9141 39.3234 10.9141C39.4432 10.9141 39.5682 10.9036 39.6984 10.8828C39.8339 10.8568 39.9354 10.8359 40.0031 10.8203L40.0109 12C39.8964 12.0365 39.7453 12.0703 39.5578 12.1016C39.3755 12.138 39.1542 12.1562 38.8937 12.1562C38.5396 12.1562 38.2141 12.0859 37.9172 11.9453C37.6203 11.8047 37.3833 11.5703 37.2062 11.2422C37.0344 10.9089 36.9484 10.4609 36.9484 9.89844V1.49219ZM41.3281 7.86719V7.6875C41.3281 7.07812 41.4167 6.51302 41.5938 5.99219C41.7708 5.46615 42.026 5.01042 42.3594 4.625C42.6927 4.23438 43.0964 3.93229 43.5703 3.71875C44.0443 3.5 44.5755 3.39062 45.1641 3.39062C45.7578 3.39062 46.2917 3.5 46.7656 3.71875C47.2448 3.93229 47.651 4.23438 47.9844 4.625C48.3229 5.01042 48.5807 5.46615 48.7578 5.99219C48.9349 6.51302 49.0234 7.07812 49.0234 7.6875V7.86719C49.0234 8.47656 48.9349 9.04167 48.7578 9.5625C48.5807 10.0833 48.3229 10.5391 47.9844 10.9297C47.651 11.3151 47.2474 11.6172 46.7734 11.8359C46.3047 12.0495 45.7734 12.1562 45.1797 12.1562C44.5859 12.1562 44.0521 12.0495 43.5781 11.8359C43.1042 11.6172 42.6979 11.3151 42.3594 10.9297C42.026 10.5391 41.7708 10.0833 41.5938 9.5625C41.4167 9.04167 41.3281 8.47656 41.3281 7.86719ZM42.7734 7.6875V7.86719C42.7734 8.28906 42.8229 8.6875 42.9219 9.0625C43.0208 9.43229 43.1693 9.76042 43.3672 10.0469C43.5703 10.3333 43.8229 10.5599 44.125 10.7266C44.4271 10.888 44.7786 10.9688 45.1797 10.9688C45.5755 10.9688 45.9219 10.888 46.2188 10.7266C46.5208 10.5599 46.7708 10.3333 46.9688 10.0469C47.1667 9.76042 47.3151 9.43229 47.4141 9.0625C47.5182 8.6875 47.5703 8.28906 47.5703 7.86719V7.6875C47.5703 7.27083 47.5182 6.8776 47.4141 6.50781C47.3151 6.13281 47.1641 5.80208 46.9609 5.51562C46.763 5.22396 46.513 4.99479 46.2109 4.82812C45.9141 4.66146 45.5651 4.57812 45.1641 4.57812C44.7682 4.57812 44.4193 4.66146 44.1172 4.82812C43.8203 4.99479 43.5703 5.22396 43.3672 5.51562C43.1693 5.80208 43.0208 6.13281 42.9219 6.50781C42.8229 6.8776 42.7734 7.27083 42.7734 7.6875ZM55.9578 9.75781C55.9578 9.54948 55.9109 9.35677 55.8172 9.17969C55.7286 8.9974 55.5438 8.83333 55.2625 8.6875C54.9865 8.53646 54.5698 8.40625 54.0125 8.29688C53.5438 8.19792 53.1193 8.08073 52.7391 7.94531C52.3641 7.8099 52.0438 7.64583 51.7781 7.45312C51.5177 7.26042 51.3172 7.03385 51.1766 6.77344C51.0359 6.51302 50.9656 6.20833 50.9656 5.85938C50.9656 5.52604 51.0385 5.21094 51.1844 4.91406C51.3354 4.61719 51.5464 4.35417 51.8172 4.125C52.0932 3.89583 52.424 3.71615 52.8094 3.58594C53.1948 3.45573 53.6245 3.39062 54.0984 3.39062C54.7755 3.39062 55.3536 3.51042 55.8328 3.75C56.312 3.98958 56.6792 4.3099 56.9344 4.71094C57.1896 5.10677 57.3172 5.54688 57.3172 6.03125H55.8719C55.8719 5.79688 55.8016 5.57031 55.6609 5.35156C55.5255 5.1276 55.325 4.94271 55.0594 4.79688C54.799 4.65104 54.4786 4.57812 54.0984 4.57812C53.6974 4.57812 53.3719 4.64062 53.1219 4.76562C52.8771 4.88542 52.6974 5.03906 52.5828 5.22656C52.4734 5.41406 52.4188 5.61198 52.4188 5.82031C52.4188 5.97656 52.4448 6.11719 52.4969 6.24219C52.5542 6.36198 52.6531 6.47396 52.7938 6.57812C52.9344 6.67708 53.1323 6.77083 53.3875 6.85938C53.6427 6.94792 53.9682 7.03646 54.3641 7.125C55.0568 7.28125 55.6271 7.46875 56.075 7.6875C56.5229 7.90625 56.8563 8.17448 57.075 8.49219C57.2938 8.8099 57.4031 9.19531 57.4031 9.64844C57.4031 10.0182 57.325 10.3568 57.1688 10.6641C57.0177 10.9714 56.7964 11.237 56.5047 11.4609C56.2182 11.6797 55.8745 11.8516 55.4734 11.9766C55.0776 12.0964 54.6323 12.1562 54.1375 12.1562C53.3927 12.1562 52.7625 12.0234 52.2469 11.7578C51.7313 11.4922 51.3406 11.1484 51.075 10.7266C50.8094 10.3047 50.6766 9.85938 50.6766 9.39062H52.1297C52.1505 9.78646 52.2651 10.1016 52.4734 10.3359C52.6818 10.5651 52.937 10.7292 53.2391 10.8281C53.5411 10.9219 53.8406 10.9688 54.1375 10.9688C54.5333 10.9688 54.8641 10.9167 55.1297 10.8125C55.4005 10.7083 55.6063 10.5651 55.7469 10.3828C55.8875 10.2005 55.9578 9.99219 55.9578 9.75781Z" fill="#5D6273"/>
</svg>
