<svg width="42" height="43" viewBox="0 0 42 43" fill="none" xmlns="http://www.w3.org/2000/svg">
<circle r="21" transform="matrix(1 8.74228e-08 8.74228e-08 -1 21 21.5)" fill="#F1F4FF"/>
<path fill-rule="evenodd" clip-rule="evenodd" d="M10.5001 21C10.5001 21.1989 10.5791 21.3897 10.7198 21.5304C10.8604 21.671 11.0512 21.75 11.2501 21.75L28.9396 21.75L24.2191 26.469C24.1494 26.5388 24.0941 26.6215 24.0563 26.7127C24.0186 26.8038 23.9992 26.9014 23.9992 27C23.9992 27.0986 24.0186 27.1963 24.0563 27.2874C24.0941 27.3785 24.1494 27.4613 24.2191 27.531C24.2889 27.6008 24.3716 27.6561 24.4627 27.6938C24.5539 27.7316 24.6515 27.751 24.7501 27.751C24.8487 27.751 24.9464 27.7316 25.0375 27.6938C25.1286 27.6561 25.2114 27.6008 25.2811 27.531L31.2811 21.531C31.351 21.4614 31.4064 21.3786 31.4442 21.2875C31.482 21.1964 31.5015 21.0987 31.5015 21C31.5015 20.9014 31.482 20.8037 31.4442 20.7126C31.4064 20.6215 31.351 20.5387 31.2811 20.469L25.2811 14.469C25.2114 14.3993 25.1286 14.344 25.0375 14.3062C24.9464 14.2685 24.8487 14.2491 24.7501 14.2491C24.6515 14.2491 24.5539 14.2685 24.4628 14.3062C24.3716 14.344 24.2889 14.3993 24.2191 14.469C24.1494 14.5388 24.0941 14.6215 24.0563 14.7127C24.0186 14.8038 23.9992 14.9014 23.9992 15C23.9992 15.0986 24.0186 15.1963 24.0563 15.2874C24.0941 15.3785 24.1494 15.4613 24.2191 15.531L28.9396 20.25L11.2501 20.25C11.0512 20.25 10.8604 20.329 10.7198 20.4697C10.5791 20.6103 10.5001 20.8011 10.5001 21Z" fill="#24397C"/>
</svg>
