<svg width="42" height="42" viewBox="0 0 42 42" fill="none" xmlns="http://www.w3.org/2000/svg">
<path d="M5.25 29.7502H36.75C37.7125 29.7502 38.5 30.5377 38.5 31.5002C38.5 32.4627 37.7125 33.2502 36.75 33.2502H5.25C4.2875 33.2502 3.5 32.4627 3.5 31.5002C3.5 30.5377 4.2875 29.7502 5.25 29.7502ZM4.375 21.9977C5.005 22.3652 5.81 22.1377 6.1775 21.5077L7 20.0727L7.84 21.5252C8.2075 22.1552 9.0125 22.3652 9.6425 22.0152C10.2725 21.6477 10.4825 20.8602 10.1325 20.2302L9.275 18.7602H10.9375C11.655 18.7602 12.25 18.1652 12.25 17.4477C12.25 16.7302 11.655 16.1352 10.9375 16.1352H9.275L10.0975 14.7002C10.465 14.0702 10.255 13.2652 9.625 12.8977C9.32004 12.7279 8.96079 12.6841 8.62399 12.7757C8.28719 12.8673 7.99954 13.0869 7.8225 13.3877L7 14.8227L6.1775 13.3877C6.00045 13.0869 5.71281 12.8673 5.37601 12.7757C5.03921 12.6841 4.67996 12.7279 4.375 12.8977C3.745 13.2652 3.535 14.0702 3.9025 14.7002L4.725 16.1352H3.0625C2.345 16.1352 1.75 16.7302 1.75 17.4477C1.75 18.1652 2.345 18.7602 3.0625 18.7602H4.725L3.885 20.2127C3.535 20.8427 3.745 21.6477 4.375 21.9977ZM18.375 21.9977C19.005 22.3652 19.81 22.1377 20.1775 21.5077L21 20.0727L21.84 21.5252C22.2075 22.1552 23.0125 22.3652 23.6425 22.0152C24.2725 21.6477 24.4825 20.8602 24.1325 20.2302L23.2925 18.7777H24.955C25.6725 18.7777 26.2675 18.1827 26.2675 17.4652C26.2675 16.7477 25.6725 16.1527 24.955 16.1527H23.275L24.0975 14.7177C24.2706 14.4152 24.318 14.0569 24.2297 13.7198C24.1413 13.3828 23.9242 13.0938 23.625 12.9152C23.4768 12.829 23.313 12.7728 23.1431 12.7499C22.9732 12.727 22.8004 12.7378 22.6346 12.7817C22.4689 12.8255 22.3134 12.9016 22.177 13.0056C22.0407 13.1096 21.9262 13.2394 21.84 13.3877L21 14.8227L20.1775 13.3877C20.092 13.2387 19.9778 13.1082 19.8416 13.0037C19.7053 12.8992 19.5496 12.8228 19.3836 12.7788C19.2176 12.7349 19.0445 12.7243 18.8744 12.7477C18.7043 12.7711 18.5405 12.828 18.3925 12.9152C17.7625 13.2827 17.5525 14.0877 17.92 14.7177L18.7425 16.1527H17.0625C16.891 16.1503 16.7207 16.1821 16.5615 16.2462C16.4024 16.3102 16.2576 16.4052 16.1355 16.5257C16.0134 16.6462 15.9164 16.7897 15.8502 16.948C15.7841 17.1063 15.75 17.2761 15.75 17.4477C15.75 18.1652 16.345 18.7602 17.0625 18.7602H18.725L17.885 20.2127C17.535 20.8427 17.745 21.6477 18.375 21.9977ZM40.25 17.4477C40.25 16.7302 39.655 16.1352 38.9375 16.1352H37.275L38.0975 14.7002C38.2706 14.3977 38.318 14.0394 38.2297 13.7023C38.1413 13.3653 37.9242 13.0763 37.625 12.8977C37.4768 12.8115 37.313 12.7553 37.1431 12.7324C36.9732 12.7095 36.8004 12.7203 36.6346 12.7642C36.4689 12.808 36.3134 12.8841 36.177 12.9881C36.0407 13.0921 35.9262 13.2219 35.84 13.3702L35 14.8227L34.1775 13.3877C34.092 13.2387 33.9778 13.1082 33.8416 13.0037C33.7053 12.8992 33.5496 12.8228 33.3836 12.7788C33.2176 12.7349 33.0445 12.7243 32.8744 12.7477C32.7043 12.7711 32.5405 12.828 32.3925 12.9152C31.7625 13.2827 31.5525 14.0877 31.92 14.7177L32.7425 16.1527H31.08C30.9072 16.1487 30.7354 16.1792 30.5745 16.2425C30.4136 16.3057 30.267 16.4004 30.1432 16.521C30.0193 16.6416 29.9208 16.7856 29.8533 16.9447C29.7858 17.1039 29.7507 17.2748 29.75 17.4477C29.75 18.1652 30.345 18.7602 31.0625 18.7602H32.725L31.885 20.2127C31.7981 20.3616 31.7418 20.5263 31.7194 20.6973C31.697 20.8682 31.709 21.0419 31.7547 21.2082C31.8003 21.3745 31.8787 21.5299 31.9852 21.6655C32.0917 21.8011 32.2243 21.914 32.375 21.9977C33.005 22.3652 33.81 22.1377 34.1775 21.5077L35 20.0727L35.84 21.5252C36.2075 22.1552 37.0125 22.3652 37.6425 22.0152C38.2725 21.6477 38.4825 20.8602 38.1325 20.2302L37.2925 18.7777H38.955C39.655 18.7602 40.25 18.1652 40.25 17.4477Z" fill="black"/>
</svg>
