<svg width="47" height="47" viewBox="0 0 47 47" fill="none" xmlns="http://www.w3.org/2000/svg">
<circle cx="23.5" cy="23.5" r="23.5" fill="#C4C4C4"/>
<path d="M24.0662 27.8417L24.3099 27.598L26.4507 25.4571C26.8137 25.0785 27.2526 24.671 27.6941 24.2137C29.7446 22.0886 30.7705 20.3028 30.7705 18.6938C30.7705 15.003 27.7675 12 24.0767 12C20.3858 12 17.3828 15.003 17.3828 18.6938C17.3828 20.1678 18.2227 21.8161 19.9403 23.7159L24.0662 27.8417ZM24.0767 14.8995C26.1691 14.8995 27.871 16.6014 27.871 18.6938C27.871 18.9913 27.7557 19.3778 27.5304 19.8429C27.3155 20.2857 27.0076 20.781 26.6171 21.3129C26.2503 21.8134 25.8127 22.3415 25.3528 22.8367C24.9348 23.2861 24.4972 23.7132 24.0767 24.0775C23.6574 23.7132 23.2185 23.2861 22.8005 22.8367C22.3406 22.3415 21.903 21.8134 21.5362 21.3129C21.1457 20.7797 20.8391 20.2857 20.623 19.8429C20.3963 19.3778 20.2823 18.9913 20.2823 18.6938C20.2823 16.6014 21.9843 14.8995 24.0767 14.8995Z" fill="white"/>
<path d="M27.1094 30.8608L35.483 22.4886L33.8216 20.3438L25.207 28.9584L27.1094 30.8608Z" fill="white"/>
<path d="M36.4924 23.793L28.2656 31.9844L30.168 33.8868L38.1341 25.9142L36.4924 23.793Z" fill="white"/>
<path d="M12.6562 22.5003L24.0406 33.8847H27.8455L14.3163 20.3555L12.6562 22.5003Z" fill="white"/>
<path d="M10 25.9287L17.9569 33.8816H21.763L11.6627 23.7812L10 25.9287Z" fill="white"/>
</svg>
