<svg width="51" height="51" viewBox="0 0 51 51" fill="none" xmlns="http://www.w3.org/2000/svg">
<circle cx="25.5" cy="25.5" r="25" stroke="#D9DCE6"/>
<path d="M25.6571 29.667C25.8096 29.8194 26.0567 29.8194 26.2092 29.667L28.634 27.2421C29.0451 26.8132 29.5422 26.3517 30.0423 25.8338C32.3648 23.4268 33.5268 21.4041 33.5268 19.5817C33.5268 15.4013 30.1254 12 25.945 12C21.7646 12 18.3633 15.4013 18.3633 19.5817C18.3633 21.2512 19.3145 23.1181 21.26 25.2699L25.6571 29.667ZM25.945 15.2841C28.315 15.2841 30.2427 17.2118 30.2427 19.5817C30.2427 19.9186 30.1121 20.3564 29.8568 20.8832C29.6135 21.3848 29.2647 21.9457 28.8225 22.5482C28.407 23.1151 27.9113 23.7132 27.3904 24.2741C27.0235 24.6687 26.6431 25.0481 26.2688 25.3909C26.0852 25.559 25.805 25.5588 25.6215 25.3906C25.2476 25.0479 24.8665 24.6686 24.4996 24.2741C23.9787 23.7132 23.4831 23.1151 23.0675 22.5482C22.6253 21.9443 22.2781 21.3848 22.0332 20.8832C21.7765 20.3564 21.6474 19.9186 21.6474 19.5817C21.6474 17.2118 23.5751 15.2841 25.945 15.2841Z" fill="url(#paint0_linear_0_1)"/>
<path d="M29.0239 33.0101C29.2191 33.2054 29.5357 33.2054 29.731 33.0101L38.5501 24.1924C38.7282 24.0144 38.7461 23.7317 38.5919 23.5326L37.3275 21.9003C37.143 21.6622 36.7916 21.64 36.5786 21.8529L27.5762 30.8553C27.3809 31.0506 27.3809 31.3672 27.5762 31.5624L29.0239 33.0101Z" fill="url(#paint1_linear_0_1)"/>
<path d="M40.3523 25.8058C40.1682 25.5679 39.8172 25.5453 39.6041 25.7575L31.0426 34.2822C30.8466 34.4773 30.8463 34.7945 31.0418 34.99L32.4886 36.4368C32.6839 36.6321 33.0006 36.632 33.1958 36.4366L41.5539 28.0717C41.7317 27.8937 41.7496 27.6113 41.5956 27.4123L40.3523 25.8058Z" fill="url(#paint2_linear_0_1)"/>
<path d="M13.2773 23.5432C13.1233 23.7422 13.1412 24.0248 13.3192 24.2028L25.7558 36.6394C25.8496 36.7332 25.9768 36.7858 26.1094 36.7858H29.0047C29.4501 36.7858 29.6732 36.2473 29.3582 35.9323L15.2895 21.8636C15.0765 21.6506 14.7249 21.6729 14.5405 21.9111L13.2773 23.5432Z" fill="url(#paint3_linear_0_1)"/>
<path d="M10.2697 27.4295C10.1155 27.6286 10.1335 27.9113 10.3116 28.0893L18.8659 36.6394C18.9596 36.7331 19.0868 36.7857 19.2193 36.7857H22.1162C22.5617 36.7857 22.7847 36.2471 22.4698 35.9322L12.2846 25.747C12.0716 25.534 11.7201 25.5563 11.5357 25.7944L10.2697 27.4295Z" fill="url(#paint4_linear_0_1)"/>
<defs>
<linearGradient id="paint0_linear_0_1" x1="19.9802" y1="15.5325" x2="35.4857" y2="25.2412" gradientUnits="userSpaceOnUse">
<stop stop-color="#FF8D24"/>
<stop offset="1" stop-color="#FFB11A"/>
</linearGradient>
<linearGradient id="paint1_linear_0_1" x1="28.4637" y1="23.7968" x2="39.3343" y2="31.6663" gradientUnits="userSpaceOnUse">
<stop stop-color="#FF8D24"/>
<stop offset="1" stop-color="#FFB11A"/>
</linearGradient>
<linearGradient id="paint2_linear_0_1" x1="31.8794" y1="27.6086" x2="42.3145" y2="35.1675" gradientUnits="userSpaceOnUse">
<stop stop-color="#FF8D24"/>
<stop offset="1" stop-color="#FFB11A"/>
</linearGradient>
<linearGradient id="paint3_linear_0_1" x1="14.8423" y1="24.479" x2="29.3163" y2="36.5188" gradientUnits="userSpaceOnUse">
<stop stop-color="#FF8D24"/>
<stop offset="1" stop-color="#FFB11A"/>
</linearGradient>
<linearGradient id="paint4_linear_0_1" x1="11.4207" y1="27.5979" x2="22.2917" y2="36.9782" gradientUnits="userSpaceOnUse">
<stop stop-color="#FF8D24"/>
<stop offset="1" stop-color="#FFB11A"/>
</linearGradient>
</defs>
</svg>
