<svg width="55" height="44" viewBox="0 0 55 44" fill="none" xmlns="http://www.w3.org/2000/svg">
<g clip-path="url(#clip0_13592_34984)">
<path d="M27.1872 43.6416C20.235 43.6416 13.2829 43.6539 6.33079 43.6355C3.25333 43.6294 0.924922 41.6992 0.260094 38.6494C0.169845 38.2334 0.151796 37.7898 0.151796 37.3616C0.145779 27.2425 0.142771 17.1264 0.148787 7.00733C0.151796 3.44056 2.75095 0.739481 6.25559 0.736422C20.211 0.718068 34.1634 0.718068 48.1187 0.736422C51.6715 0.739481 54.2616 3.43138 54.2646 7.05015C54.2707 17.1417 54.2707 27.2333 54.2646 37.3249C54.2646 40.9436 51.6715 43.6263 48.1187 43.6386C41.1426 43.66 34.1634 43.6447 27.1872 43.6447V43.6416ZM27.2022 40.4909C33.303 40.4909 39.4038 40.4909 45.5046 40.4909C46.3288 40.4909 47.1561 40.5154 47.9804 40.4817C50.1253 40.3961 51.1721 39.2734 51.1721 37.0924C51.1721 34.3148 51.1721 31.5373 51.1721 28.7597C51.1721 21.5222 51.1721 14.2846 51.1721 7.05015C51.1721 5.33712 50.2606 4.2206 48.6542 3.97282C48.1879 3.8994 47.7096 3.87799 47.2373 3.87799C33.8836 3.87187 20.5329 3.87493 7.17913 3.87493C6.90537 3.87493 6.62861 3.86576 6.35486 3.88411C4.25508 4.01259 3.23829 5.11688 3.23829 7.27346C3.23829 10.051 3.23829 12.8286 3.23829 15.6061C3.23829 22.8437 3.23829 30.0812 3.23829 37.3157C3.23829 39.0287 4.14979 40.1422 5.75621 40.393C6.19843 40.4634 6.64967 40.4878 7.0979 40.4878C13.8003 40.4939 20.4998 40.4909 27.2022 40.4909Z" fill="#D7DAE3"/>
<path d="M39.2084 12.9662C41.1818 12.9662 43.1522 12.9509 45.1256 12.9723C46.1695 12.9846 46.7651 13.5933 46.7591 14.5508C46.7531 15.5082 46.1575 16.0956 45.0986 16.1047C42.8754 16.1231 40.6553 16.1139 38.4322 16.1139C36.7085 16.1139 34.9877 16.1323 33.264 16.1017C32.172 16.0833 31.5252 15.2911 31.6847 14.2571C31.811 13.4404 32.3886 12.9754 33.3663 12.9693C35.3126 12.954 37.262 12.9662 39.2084 12.9693V12.9662Z" fill="#D7DAE3"/>
<path d="M39.2413 19.0808C41.1877 19.0808 43.137 19.0686 45.0834 19.0869C46.1934 19.0961 46.8192 19.7569 46.756 20.7755C46.7018 21.6565 46.1212 22.201 45.1435 22.2193C43.8199 22.2438 42.4963 22.2285 41.1756 22.2285C38.6036 22.2285 36.0315 22.2224 33.4624 22.2285C32.7043 22.2285 32.0756 22.0266 31.7718 21.2405C31.3476 20.1362 32.0756 19.1022 33.327 19.0869C35.2975 19.0625 37.2709 19.0808 39.2443 19.0808H39.2413Z" fill="#D7DAE3"/>
<path d="M39.157 28.3431C37.2107 28.3431 35.2613 28.3584 33.315 28.337C32.2651 28.3247 31.6694 27.7282 31.6694 26.7708C31.6694 25.8133 32.2651 25.2168 33.318 25.2046C35.2403 25.1832 37.1625 25.1954 39.0848 25.1954C41.0823 25.1954 43.0798 25.1832 45.0773 25.2015C46.1663 25.2107 46.78 25.8225 46.7589 26.8075C46.7409 27.7558 46.1362 28.3278 45.0743 28.337C43.1009 28.3553 41.1305 28.3431 39.157 28.34V28.3431Z" fill="#D7DAE3"/>
<path d="M24.0311 21.9415C24.0311 21.6906 24.0251 21.4 23.971 21.1033C23.6009 19.1272 22.6082 17.5824 21.0198 16.5087C21.0289 14.811 21.0289 13.3916 21.0198 12.0671C21.6967 11.957 22.151 11.4186 22.151 10.6967C22.151 9.89521 21.5974 9.33541 20.7792 9.30482C20.5084 9.29565 20.2377 9.29565 19.9669 9.2987H19.6661H18.2733C16.8805 9.2987 15.4876 9.2987 14.0948 9.30176C13.2374 9.30176 12.6629 9.82791 12.6298 10.6355C12.6147 11.0362 12.732 11.388 12.9697 11.648C13.1141 11.8071 13.3578 11.9906 13.7579 12.061C13.7518 13.5966 13.7488 14.9915 13.7639 16.4047C13.7639 16.4689 13.7549 16.4904 13.7549 16.4904C13.7549 16.4904 13.7398 16.5179 13.6526 16.5821C11.7303 17.9923 10.7526 19.8705 10.7466 22.1648C10.7466 23.1773 10.7466 24.1898 10.7466 25.1993V26.5666V28.0594C10.7466 29.1301 10.7466 30.2038 10.7466 31.2744C10.7526 33.4554 12.3109 35.0461 14.4528 35.0584C15.4275 35.0645 16.4082 35.0675 17.3919 35.0675C18.3756 35.0675 19.3563 35.0675 20.3309 35.0584C22.4758 35.0461 24.0341 33.4554 24.0371 31.2744C24.0401 28.1604 24.0371 25.0494 24.0371 21.9353L24.0311 21.9415ZM21.2786 28.1114V31.1887C21.2786 32.0575 20.8995 32.241 20.334 32.2533C18.4327 32.29 16.4533 32.29 14.4528 32.2533C13.8782 32.2441 13.4992 32.0606 13.4992 31.201V28.9557C13.4992 26.7349 13.4961 24.511 13.4992 22.2902C13.5052 20.776 14.0918 19.6595 15.2981 18.8794C16.1374 18.338 16.5345 17.5824 16.5165 16.573C16.5014 15.7011 16.5014 14.8079 16.5044 13.9453C16.5044 13.3304 16.5074 12.7156 16.5044 12.1007C17.076 12.116 17.6716 12.116 18.2763 12.1007C18.2733 12.7768 18.2733 13.4497 18.2763 14.1258C18.2763 14.9792 18.2763 15.8296 18.2703 16.68C18.2613 17.613 18.6373 18.3288 19.3863 18.806C20.6769 19.6289 21.2966 20.8096 21.2876 22.4248C21.2816 23.4159 21.2816 24.407 21.2846 25.3981V28.1114H21.2786Z" fill="#D7DAE3"/>
</g>
<defs>
<clipPath id="clip0_13592_34984">
<rect x="0.145508" y="0.722656" width="54.1249" height="42.9266" rx="5" fill="white"/>
</clipPath>
</defs>
</svg>
