<svg width="42" height="43" viewBox="0 0 42 43" fill="none" xmlns="http://www.w3.org/2000/svg">
<circle r="21" transform="matrix(-1 0 0 1 21 21.5)" fill="#F1F4FF"/>
<path fill-rule="evenodd" clip-rule="evenodd" d="M31.5001 22C31.5001 21.8011 31.4211 21.6103 31.2805 21.4696C31.1398 21.329 30.949 21.25 30.7501 21.25H13.0606L17.7811 16.531C17.8509 16.4612 17.9062 16.3785 17.9439 16.2873C17.9816 16.1962 18.0011 16.0986 18.0011 16C18.0011 15.9014 17.9816 15.8037 17.9439 15.7126C17.9062 15.6215 17.8509 15.5387 17.7811 15.469C17.7114 15.3992 17.6286 15.3439 17.5375 15.3062C17.4464 15.2684 17.3487 15.249 17.2501 15.249C17.1515 15.249 17.0539 15.2684 16.9627 15.3062C16.8716 15.3439 16.7889 15.3992 16.7191 15.469L10.7191 21.469C10.6493 21.5386 10.5939 21.6214 10.5561 21.7125C10.5182 21.8036 10.4988 21.9013 10.4988 22C10.4988 22.0986 10.5182 22.1963 10.5561 22.2874C10.5939 22.3785 10.6493 22.4613 10.7191 22.531L16.7191 28.531C16.7889 28.6007 16.8716 28.656 16.9627 28.6938C17.0539 28.7315 17.1515 28.7509 17.2501 28.7509C17.3487 28.7509 17.4464 28.7315 17.5375 28.6938C17.6286 28.656 17.7114 28.6007 17.7811 28.531C17.8509 28.4612 17.9062 28.3785 17.9439 28.2873C17.9816 28.1962 18.0011 28.0986 18.0011 28C18.0011 27.9014 17.9816 27.8037 17.9439 27.7126C17.9062 27.6215 17.8509 27.5387 17.7811 27.469L13.0606 22.75H30.7501C30.949 22.75 31.1398 22.671 31.2805 22.5303C31.4211 22.3896 31.5001 22.1989 31.5001 22Z" fill="#24397C"/>
</svg>
