<svg width="21" height="21" viewBox="0 0 21 21" fill="none" xmlns="http://www.w3.org/2000/svg">
<path d="M18.0208 15.25H15.6458C15.4273 15.25 15.25 15.0727 15.25 14.8542C15.25 14.6357 15.4273 14.4583 15.6458 14.4583H18.0208C18.6755 14.4583 19.2083 13.9255 19.2083 13.2708V7.72917C19.2083 7.07446 18.6755 6.54167 18.0208 6.54167H2.97917C2.32446 6.54167 1.79167 7.07446 1.79167 7.72917V13.2708C1.79167 13.9255 2.32446 14.4583 2.97917 14.4583H5.35417C5.57267 14.4583 5.75 14.6357 5.75 14.8542C5.75 15.0727 5.57267 15.25 5.35417 15.25H2.97917C1.88746 15.25 1 14.3618 1 13.2708V7.72917C1 6.63825 1.88746 5.75 2.97917 5.75H18.0208C19.1125 5.75 20 6.63825 20 7.72917V13.2708C20 14.3618 19.1125 15.25 18.0208 15.25Z" fill="#24397C" stroke="#24397C" stroke-width="0.5"/>
<path d="M12.4788 17.6252H7.72884C7.51034 17.6252 7.33301 17.4478 7.33301 17.2293C7.33301 17.0108 7.51034 16.8335 7.72884 16.8335H12.4788C12.6973 16.8335 12.8747 17.0108 12.8747 17.2293C12.8747 17.4478 12.6973 17.6252 12.4788 17.6252Z" fill="#24397C" stroke="#24397C" stroke-width="0.5"/>
<path d="M12.4788 16.0417H7.72884C7.51034 16.0417 7.33301 15.8643 7.33301 15.6458C7.33301 15.4273 7.51034 15.25 7.72884 15.25H12.4788C12.6973 15.25 12.8747 15.4273 12.8747 15.6458C12.8747 15.8643 12.6973 16.0417 12.4788 16.0417Z" fill="#24397C" stroke="#24397C" stroke-width="0.5"/>
<path d="M9.31217 14.4582H7.72884C7.51034 14.4582 7.33301 14.2808 7.33301 14.0623C7.33301 13.8438 7.51034 13.6665 7.72884 13.6665H9.31217C9.53067 13.6665 9.70801 13.8438 9.70801 14.0623C9.70801 14.2808 9.53067 14.4582 9.31217 14.4582Z" fill="#24397C" stroke="#24397C" stroke-width="0.5"/>
<path d="M15.6455 6.54167C15.427 6.54167 15.2497 6.36433 15.2497 6.14583V2.97917C15.2497 2.32446 14.7169 1.79167 14.0622 1.79167H6.93717C6.28247 1.79167 5.74967 2.32446 5.74967 2.97917V6.14583C5.74967 6.36433 5.57234 6.54167 5.35384 6.54167C5.13534 6.54167 4.95801 6.36433 4.95801 6.14583V2.97917C4.95801 1.88825 5.84547 1 6.93717 1H14.0622C15.1539 1 16.0413 1.88825 16.0413 2.97917V6.14583C16.0413 6.36433 15.864 6.54167 15.6455 6.54167Z" fill="#24397C" stroke="#24397C" stroke-width="0.5"/>
<path d="M14.0622 19.9998H6.93717C5.84547 19.9998 4.95801 19.1116 4.95801 18.0207V11.6873C4.95801 11.4688 5.13534 11.2915 5.35384 11.2915H15.6455C15.864 11.2915 16.0413 11.4688 16.0413 11.6873V18.0207C16.0413 19.1116 15.1539 19.9998 14.0622 19.9998ZM5.74967 12.0832V18.0207C5.74967 18.6754 6.28247 19.2082 6.93717 19.2082H14.0622C14.7169 19.2082 15.2497 18.6754 15.2497 18.0207V12.0832H5.74967Z" fill="#24397C" stroke="#24397C" stroke-width="0.5"/>
</svg>
