<svg width="23" height="24" viewBox="0 0 23 24" fill="none" xmlns="http://www.w3.org/2000/svg">
<path d="M22.0161 3.41281C20.7962 2.40328 19.5806 1.37922 18.6641 0.603554C18.1957 0.201742 17.6052 -0.0122879 16.999 1.39805e-05H16.9955C13.5705 0.00364539 10.0885 1.39805e-05 6.72054 1.39805e-05H2.48489C0.975584 1.39805e-05 0 1.01681 0 2.59284C0 4.81381 0 7.03454 0 9.25503V14.8111C0 17.0384 0 19.2642 0 21.4885C0 22.9411 1.01386 23.9978 2.40765 23.9986C9.01824 23.9986 14.9678 23.9986 20.5903 23.9986C20.8179 24.0007 21.0448 23.9719 21.2652 23.9129C22.3313 23.6158 22.9937 22.6782 22.9944 21.4602V16.2724C22.9944 12.7681 22.9944 9.14536 22.9986 5.58149C23.0007 4.67146 22.6792 3.96188 22.0161 3.41281ZM4.65595 2.41635C4.65595 2.13601 4.65595 1.85494 4.65595 1.57169V1.39012H11.6708V3.07437C11.6708 3.55153 11.6708 4.0287 11.6708 4.50587C11.6708 4.98304 11.4419 5.22126 10.9952 5.22198H8.22706H5.32118C4.91759 5.22198 4.6643 4.99611 4.66082 4.63369C4.65316 3.89652 4.65455 3.14409 4.65595 2.41635ZM17.5076 22.6172H5.48749V20.7928C5.48749 19.6409 5.48749 18.489 5.48749 17.3371C5.48749 16.5847 5.88691 16.17 6.61129 16.17H16.379C17.095 16.17 17.5055 16.5941 17.5062 17.332C17.5062 18.4868 17.5062 19.6416 17.5062 20.7964L17.5076 22.6172ZM21.6758 17.8782V21.4115C21.6758 22.2105 21.2847 22.6223 20.5144 22.6223H18.827V22.1066C18.827 21.6224 18.827 21.1363 18.827 20.6482C18.827 19.5494 18.827 18.4127 18.827 17.295C18.8228 15.8475 17.818 14.7951 16.4381 14.7937C13.2817 14.7908 9.95973 14.7908 6.56397 14.7908C5.18062 14.7908 4.17302 15.8424 4.16954 17.287C4.16606 18.404 4.16954 19.5385 4.16954 20.6388C4.16954 21.123 4.16954 21.6093 4.16954 22.0979V22.5838L4.01298 22.6005L3.94826 22.6085C3.89639 22.6163 3.8441 22.6206 3.7917 22.6215C3.53284 22.6215 3.26285 22.6215 2.9859 22.6215H2.40974C1.73128 22.6215 1.32421 22.1858 1.32073 21.4718V2.63206C1.32073 1.76633 1.69022 1.37995 2.51968 1.37922H3.33591V1.56079C3.33591 1.76125 3.33591 1.95952 3.33591 2.15562C3.33591 2.61172 3.33591 3.04314 3.33591 3.48108C3.33591 3.61182 3.33591 3.74255 3.33591 3.87328C3.32377 4.24052 3.33936 4.60819 3.38254 4.97287C3.45224 5.42798 3.67587 5.84196 4.0129 6.13976C4.34992 6.43756 4.77802 6.59946 5.21959 6.59611C7.34124 6.607 9.26666 6.607 11.1051 6.59611C11.6053 6.59419 12.0843 6.38541 12.4372 6.01553C12.7902 5.64565 12.9883 5.14483 12.9881 4.6228C12.9957 3.99094 12.9943 3.34745 12.9923 2.72502C12.9923 2.44323 12.9923 2.16143 12.9923 1.87963V1.37922H14.3763C15.2399 1.37922 16.1333 1.37922 17.0122 1.37922C17.3139 1.37298 17.6077 1.47993 17.8403 1.68063C18.8973 2.57105 20.0343 3.52757 21.1908 4.48553C21.3504 4.61026 21.4786 4.77373 21.564 4.96179C21.6495 5.14985 21.6898 5.35683 21.6814 5.56479C21.6751 9.66756 21.6758 13.8422 21.6758 17.8782Z" fill="white"/>
</svg>
