<svg id="Capa_1" data-name="Capa 1" xmlns="http://www.w3.org/2000/svg" viewBox="0 0 297.45 297.26"><defs><style>.cls-1{fill:#bababa;}</style></defs><path class="cls-1" d="M.1,117.44c.71-5.19,1.32-10.28,2.24-15.46A121.63,121.63,0,0,1,31.62,42.37C48.5,23.36,69.14,10.23,94,4.13,132.38-5.33,167.87,1.39,199.69,25,227.25,45.53,244,73,248.9,107.06c5,34.38-3.35,65.81-24.19,93.68-1,1.32-1.94,2.64-3.16,4.17.82.81,1.53,1.62,2.34,2.44l68.94,69c5.59,5.59,6.2,12.31,1.32,17.19-1.63,1.63-4.07,2.54-6.1,3.76h-4.68c-2.84-2-6.1-3.76-8.54-6.2-22.57-22.38-44.94-44.86-67.41-67.23-.81-.82-1.63-1.53-2.54-2.45-1.53,1.12-2.85,2.14-4.07,3.16-32.43,23.9-68.22,31.22-107.27,21.56-24.2-6-44.43-18.82-61.21-37.33A120.94,120.94,0,0,1,2.24,148.05C1.32,143.07.71,138,0,132.9.1,127.91.1,122.73.1,117.44Zm227.15,7.83c-.1-56.15-45.86-101.92-102-101.92a102.18,102.18,0,0,0-102,101.92c-.1,56.14,46,102.22,102.09,102S227.35,181.31,227.25,125.27Z"/></svg>