<svg width="67" height="67" viewBox="0 0 67 67" fill="none" xmlns="http://www.w3.org/2000/svg">
<path d="M66.6167 21.8442L59.9336 15.161V1.30859C59.9336 0.585857 59.3476 0 58.625 0H39.3465C38.6239 0 38.0379 0.585857 38.0379 1.30859C38.0379 2.03133 38.6239 2.61719 39.3465 2.61719H57.3164V29.2938L33.4411 53.1692L9.68359 29.4117V2.61719H27.5692C28.2918 2.61719 28.8778 2.03133 28.8778 1.30859C28.8778 0.585857 28.2918 0 27.5692 0H8.375C7.65239 0 7.06641 0.585857 7.06641 1.30859V15.161L0.383287 21.8442C0.137926 22.0896 0 22.4225 0 22.7695V60.457C0 64.0648 2.93518 67 6.54297 67H60.457C64.0648 67 67 64.0648 67 60.457V22.7695C67 22.4225 66.8621 22.0896 66.6167 21.8442ZM64.3828 60.457C64.3828 61.0623 64.2449 61.6359 63.9991 62.1485L46.0812 44.2305L64.3828 25.9289V60.457ZM59.9336 18.8623L63.8408 22.7695L59.9336 26.6766V18.8623ZM3.00087 62.1485C2.75511 61.6359 2.61719 61.0624 2.61719 60.457V26.0465L20.8599 44.2894L3.00087 62.1485ZM7.06641 26.7944L3.10032 22.8284L7.06641 18.8623V26.7944ZM6.54297 64.3828C5.93774 64.3828 5.36406 64.2449 4.85161 63.9991L22.7106 46.14L32.5158 55.9451C32.7613 56.1905 33.0941 56.3284 33.4411 56.3284C33.7882 56.3284 34.1209 56.1905 34.3664 55.9451L44.2305 46.0812L62.1485 63.9993C61.6359 64.245 61.0624 64.3829 60.457 64.3829H6.54297V64.3828Z" fill="#E7E7E7"/>
<path d="M33.457 2.61719C33.8012 2.61719 34.1388 2.47717 34.3822 2.23377C34.6255 1.99037 34.7656 1.65275 34.7656 1.30859C34.7656 0.964434 34.6256 0.626816 34.3822 0.383418C34.1388 0.14002 33.8012 0 33.457 0C33.1116 0 32.7753 0.14002 32.5319 0.383418C32.2886 0.626816 32.1484 0.964434 32.1484 1.30859C32.1484 1.65275 32.2885 1.99037 32.5319 2.23377C32.7753 2.47717 33.1116 2.61719 33.457 2.61719Z" fill="#E7E7E7"/>
<path d="M21.1206 15.8572C19.3452 19.083 18.8782 22.8019 19.8058 26.3287C20.6093 29.3838 22.344 32.0193 24.8227 33.9504C27.2092 35.8097 30.1819 36.8796 33.193 36.9629C33.2054 36.9633 33.2176 36.9634 33.2298 36.9634C33.9358 36.9634 34.5176 36.4011 34.5372 35.6909C34.5571 34.9686 33.9877 34.3666 33.2652 34.3467C28.138 34.205 23.6443 30.6341 22.3368 25.6632C20.7622 19.6759 24.153 13.5139 30.0563 11.6346C33.0512 10.6812 36.2304 10.962 39.0083 12.425C41.7807 13.885 43.8075 16.3386 44.7178 19.3355C45.2976 21.5253 45.1096 23.5553 44.0905 26.118C43.7998 26.8486 42.8975 28.5481 40.7986 28.5481C40.4666 28.5481 40.1307 28.3942 39.8526 28.1148C39.4796 27.74 39.2674 27.2108 39.2701 26.6565V15.8376C39.2701 15.1148 38.6841 14.529 37.9615 14.529C37.2388 14.529 36.6529 15.1148 36.6529 15.8376V16.2544C35.6314 15.4029 34.3626 14.9167 32.9411 14.9167C29.6361 14.9167 26.2176 17.7819 26.2176 22.5766C26.2176 24.6898 26.8873 26.6691 28.1034 28.1496C29.3361 29.6507 31.0493 30.5115 32.8034 30.5115C34.4477 30.5115 35.9288 29.7855 37.0564 28.575C37.2833 29.0893 37.6004 29.5617 37.9974 29.9607C38.7702 30.7374 39.765 31.1651 40.7986 31.1651C43.8225 31.1651 45.738 29.0575 46.5224 27.0851C47.7524 23.992 47.9742 21.3875 47.241 18.6402C47.2374 18.6266 47.2334 18.613 47.2294 18.5995C46.1181 14.9171 43.6315 11.9018 40.2278 10.1093C36.8248 8.31709 32.9305 7.97306 29.2624 9.14072C25.787 10.2471 22.8956 12.6323 21.1206 15.8572ZM32.8036 27.8943C30.6152 27.8943 28.8349 25.5087 28.8349 22.5764C28.8349 19.42 30.9227 17.5338 32.9412 17.5338C35.116 17.5338 36.6349 19.5911 36.6349 22.5368C36.6347 25.4909 34.916 27.8943 32.8036 27.8943Z" fill="#E7E7E7"/>
</svg>
