<svg width="19" height="19" viewBox="0 0 19 19" fill="none" xmlns="http://www.w3.org/2000/svg">
    <g clip-path="url(#clip0)">
    <path d="M16.2592 0.488142C15.9704 0.35507 15.63 0.406853 15.3938 0.619733L14.1473 1.72343C14.1134 1.75361 14.0622 1.75343 14.0285 1.72307L12.3325 0.206143C12.0257 -0.0687145 11.5613 -0.0687145 11.2546 0.206143L9.56007 1.72168C9.52598 1.75213 9.47447 1.75213 9.44038 1.72168L7.74569 0.206143C7.43895 -0.0686696 6.97457 -0.0686696 6.66782 0.206143L4.97156 1.72307C4.93761 1.75343 4.88632 1.75357 4.85219 1.72339L3.60455 0.619733C3.27355 0.325383 2.76659 0.35507 2.47224 0.686067C2.34025 0.834499 2.26803 1.02663 2.26955 1.22523V17.7748C2.26659 18.2185 2.62382 18.5805 3.06745 18.5834C3.26618 18.5848 3.45832 18.5124 3.60679 18.3803L4.85331 17.2766C4.88722 17.2464 4.93837 17.2466 4.9721 17.277L6.66813 18.7939C6.97488 19.0688 7.43926 19.0688 7.74601 18.7939L9.4407 17.2784C9.47478 17.2479 9.5263 17.2479 9.56039 17.2784L11.2551 18.7939C11.5619 19.0686 12.0262 19.0686 12.3329 18.7939L14.0293 17.2769C14.0632 17.2466 14.1145 17.2464 14.1487 17.2766L15.3963 18.3803C15.7274 18.6745 16.2344 18.6446 16.5286 18.3134C16.6603 18.1651 16.7325 17.9732 16.731 17.7748V1.22523C16.7353 0.907301 16.5497 0.617397 16.2592 0.488142ZM5.24301 6.44605H9.71555C9.91397 6.44605 10.0748 6.60692 10.0748 6.80534C10.0748 7.00376 9.91397 7.16463 9.71555 7.16463H5.24301C5.04459 7.16463 4.88371 7.00376 4.88371 6.80534C4.88371 6.60692 5.04459 6.44605 5.24301 6.44605ZM13.7576 12.554H5.24301C5.04459 12.554 4.88371 12.3931 4.88371 12.1947C4.88371 11.9963 5.04459 11.8354 5.24301 11.8354H13.7576C13.956 11.8354 14.1169 11.9963 14.1169 12.1947C14.1169 12.3931 13.956 12.554 13.7576 12.554ZM13.7576 9.85931H5.24301C5.04459 9.85931 4.88371 9.69844 4.88371 9.50002C4.88371 9.3016 5.04459 9.14073 5.24301 9.14073H13.7576C13.956 9.14073 14.1169 9.3016 14.1169 9.50002C14.1169 9.69844 13.956 9.85931 13.7576 9.85931Z" fill="#91D600"/>
    </g>
    <defs>
    <clipPath id="clip0">
    <rect width="19" height="19" fill="white"/>
    </clipPath>
    </defs>
    </svg>
