<?xml version="1.0" encoding="utf-8"?>
<!-- Generator: Adobe Illustrator 22.1.0, SVG Export Plug-In . SVG Version: 6.00 Build 0)  -->
<svg version="1.1" id="Capa_1" xmlns="http://www.w3.org/2000/svg" xmlns:xlink="http://www.w3.org/1999/xlink" x="0px" y="0px"
	 viewBox="0 0 2133 2133" style="enable-background:new 0 0 2133 2133;" xml:space="preserve">
<style type="text/css">
	.st0{fill:#6D6D6D;enable-background:new    ;}
	.st1{fill:#6D6D6D;}
	.st2{enable-background:new    ;}
	.st3{fill:#FFFFFF;}
</style>
<rect x="133" y="317" class="st0" width="1867" height="100"/>
<rect x="262.4" y="199" class="st0" width="1606.4" height="333.5"/>
<ellipse class="st0" cx="1872.3" cy="319.5" rx="127.7" ry="120.5"/>
<ellipse class="st0" cx="1874.2" cy="415" rx="125.8" ry="117.5"/>
<ellipse class="st0" cx="260.4" cy="319.5" rx="127.7" ry="120.5"/>
<ellipse class="st0" cx="259.2" cy="416" rx="125.8" ry="116.5"/>
<path class="st1" d="M607,1934h948c0,0,186.6-15,193.3-215L1853,721c0,0,18-52-44-54s-1498,0-1498,0s-40-2-34,42
	s108.1,1052,108.1,1052S409,1934,607,1934z"/>
<g class="st2">
	<g>
		
			<rect x="692.7" y="1199.3" transform="matrix(0.7024 -0.7118 0.7118 0.7024 -588.1413 1136.7649)" class="st3" width="745.4" height="144.9"/>
		<circle class="st3" cx="804.4" cy="1536.4" r="72.6"/>
		<circle class="st3" cx="1327.2" cy="1006.5" r="72.6"/>
	</g>
	<g>
		
			<rect x="993.4" y="899.5" transform="matrix(0.7024 -0.7118 0.7118 0.7024 -588.3531 1137.2245)" class="st3" width="144.9" height="745.4"/>
		<circle class="st3" cx="1330.5" cy="1533.2" r="72.6"/>
		<circle class="st3" cx="800.5" cy="1010.5" r="72.6"/>
	</g>
</g>
</svg>
