<svg width="47" height="47" viewBox="0 0 47 47" fill="none" xmlns="http://www.w3.org/2000/svg">
<circle cx="23.5" cy="23.5" r="23.5" fill="#C4C4C4"/>
<path d="M38.4965 35.938C40.4982 33.5315 41.8904 30.6787 42.5554 27.621C43.2203 24.5632 43.1384 21.3904 42.3166 18.3709C41.4947 15.3515 39.9572 12.5742 37.8339 10.2741C35.7106 7.97393 33.0642 6.2186 30.1184 5.15656C27.1726 4.09453 24.0141 3.75702 20.9102 4.17261C17.8062 4.58819 14.8481 5.74464 12.2861 7.54411C9.72402 9.34359 7.63342 11.7332 6.19113 14.5107C4.74883 17.2882 3.99726 20.3719 4.00001 23.5011C4.00106 28.0499 5.60537 32.4531 8.53142 35.938L8.50355 35.9616C8.60112 36.0786 8.71262 36.1789 8.81298 36.2945C8.93843 36.4379 9.07363 36.573 9.20326 36.7123C9.59354 37.1357 9.99497 37.5424 10.4159 37.924C10.5441 38.041 10.6766 38.1496 10.8062 38.261C11.2522 38.6454 11.7108 39.0103 12.1861 39.3501C12.2474 39.3919 12.3032 39.4462 12.3645 39.4894V39.4727C15.6291 41.7681 19.5235 43 23.5153 43C27.5072 43 31.4016 41.7681 34.6662 39.4727V39.4894C34.7275 39.4462 34.7819 39.3919 34.8446 39.3501C35.3185 39.0089 35.7785 38.6454 36.2245 38.261C36.3541 38.1496 36.4865 38.0396 36.6148 37.924C37.0357 37.541 37.4371 37.1357 37.8274 36.7123C37.957 36.573 38.0909 36.4379 38.2177 36.2945C38.3167 36.1789 38.4296 36.0786 38.5271 35.9602L38.4965 35.938ZM23.5139 12.3594C24.7545 12.3594 25.9672 12.727 26.9987 13.4156C28.0302 14.1043 28.8341 15.0831 29.3088 16.2282C29.7836 17.3734 29.9078 18.6335 29.6658 19.8493C29.4237 21.065 28.8264 22.1817 27.9492 23.0582C27.072 23.9346 25.9543 24.5315 24.7376 24.7734C23.5209 25.0152 22.2597 24.8911 21.1136 24.4167C19.9675 23.9424 18.9879 23.1391 18.2987 22.1085C17.6095 21.0778 17.2416 19.8661 17.2416 18.6266C17.2416 16.9644 17.9024 15.3703 19.0787 14.195C20.255 13.0197 21.8504 12.3594 23.5139 12.3594ZM12.3729 35.938C12.3971 34.1093 13.1408 32.3637 14.4433 31.0787C15.7457 29.7938 17.5021 29.0728 19.3324 29.0719H27.6955C29.5258 29.0728 31.2822 29.7938 32.5846 31.0787C33.8871 32.3637 34.6308 34.1093 34.655 35.938C31.5981 38.6904 27.629 40.2137 23.5139 40.2137C19.3989 40.2137 15.4298 38.6904 12.3729 35.938Z" fill="#F8F8F8"/>
</svg>
