<svg width="17" height="18" viewBox="0 0 17 18" fill="none" xmlns="http://www.w3.org/2000/svg">
<path d="M12.6225 9.12972C12.4898 8.99912 12.3103 8.92581 12.1231 8.92581C11.936 8.92581 11.7565 8.99912 11.6237 9.12972C11.4918 9.2611 11.4178 9.43882 11.4178 9.62407C11.4178 9.80932 11.4918 9.98704 11.6237 10.1184L14.3083 12.776H1.41667V0.701207C1.41667 0.515235 1.34204 0.336881 1.2092 0.205379C1.07636 0.0738769 0.896195 0 0.708333 0C0.520472 0 0.340304 0.0738769 0.207466 0.205379C0.0746279 0.336881 0 0.515235 0 0.701207V12.776C0 13.1479 0.149255 13.5046 0.414932 13.7677C0.680609 14.0307 1.04094 14.1784 1.41667 14.1784H14.2729L11.6237 16.8079C11.4918 16.9393 11.4178 17.117 11.4178 17.3023C11.4178 17.4875 11.4918 17.6653 11.6237 17.7966C11.7557 17.9262 11.9338 17.9992 12.1196 18C12.2128 18.0005 12.3052 17.9828 12.3915 17.9479C12.4778 17.913 12.5563 17.8616 12.6225 17.7966L17 13.4772L12.6225 9.12972Z" fill="black"/>
</svg>
