<svg width="358" height="364" viewBox="0 0 358 364" fill="none" xmlns="http://www.w3.org/2000/svg">
<path d="M93.5237 332.245C78.7346 332.245 66.3379 344.365 66.3379 358.824C66.3379 373.283 78.7346 385.403 93.5237 385.403C107.769 385.403 120.71 373.283 120.057 359.462C120.71 344.259 108.422 332.245 93.5237 332.245Z" fill="black" fill-opacity="0.03"/>
<path d="M345.127 426.435C362.2 397.623 362.309 363.283 345.345 334.577L175.051 46.2476C158.196 17.2232 127.748 0 93.6021 0C59.4564 0 29.0081 17.3296 12.1527 46.1413L-158.358 334.79C-175.322 363.814 -175.213 398.367 -158.032 427.179C-141.068 455.672 -110.728 472.789 -76.7999 472.789H263.352C297.388 472.789 327.946 455.459 345.127 426.435ZM308.154 405.597C298.693 421.544 281.947 431.006 263.243 431.006H-76.9087C-95.3951 431.006 -112.033 421.757 -121.276 406.128C-130.628 390.287 -130.737 371.363 -121.385 355.415L49.1257 66.8729C58.369 51.0318 74.8981 41.676 93.6021 41.676C112.197 41.676 128.835 51.1381 138.078 66.9793L308.48 355.522C317.615 371.044 317.506 389.755 308.154 405.597Z" fill="black" fill-opacity="0.03"/>
<path d="M86.7415 145.651C73.801 149.266 65.7539 160.748 65.7539 174.675C66.4064 183.074 66.9501 191.579 67.6026 199.978C69.4512 231.98 71.2998 263.343 73.1485 295.344C73.801 306.188 82.3918 314.056 93.4837 314.056C104.576 314.056 113.275 305.657 113.819 294.706C113.819 288.115 113.819 282.055 114.471 275.357C115.667 254.838 116.972 234.319 118.169 213.799C118.821 200.51 120.017 187.22 120.67 173.931C120.67 169.147 120.017 164.894 118.169 160.641C112.623 148.734 99.6821 142.674 86.7415 145.651Z" fill="black" fill-opacity="0.03"/>
</svg>
