<svg width="25" height="25" viewBox="0 0 25 25" fill="none" xmlns="http://www.w3.org/2000/svg">
<circle cx="12.5" cy="12.5" r="12.25" fill="#FFF1E4" stroke="#FF8D24" stroke-width="0.5"/>
<g clip-path="url(#clip0_8970_23875)">
<path d="M11.755 13.2469H11.4849C9.9627 13.2469 8.44052 13.2469 6.91835 13.2469C6.34677 13.2459 6 12.9642 6 12.5006C6 12.0371 6.34577 11.7533 6.91633 11.7533C8.43851 11.7533 9.96069 11.7533 11.4829 11.7533H11.755C11.755 11.6554 11.755 11.5736 11.755 11.4928C11.755 9.93255 11.755 8.37332 11.755 6.81307C11.755 6.41519 11.9597 6.11526 12.2843 6.02942C12.8024 5.89208 13.2429 6.23745 13.244 6.79086C13.247 8.00976 13.244 9.22766 13.244 10.4466C13.244 10.8707 13.244 11.2949 13.244 11.7533C13.3337 11.7533 13.4133 11.7533 13.494 11.7533C15.0232 11.7533 16.5524 11.7533 18.0817 11.7533C18.6532 11.7533 18.999 12.0351 18.999 12.4986C18.999 12.9621 18.6532 13.2459 18.0827 13.2459C16.5605 13.2459 15.0383 13.2459 13.5161 13.2459C13.4345 13.2459 13.3518 13.2459 13.244 13.2459C13.244 13.3439 13.244 13.4257 13.244 13.5065C13.244 15.0667 13.244 16.6259 13.244 18.1862C13.244 18.5841 13.0393 18.884 12.7147 18.9698C12.1966 19.1072 11.756 18.7618 11.755 18.2084C11.752 16.9895 11.755 15.7716 11.755 14.5527C11.755 14.1285 11.755 13.7044 11.755 13.2459V13.2469Z" fill="#FF8D24"/>
</g>
<defs>
<clipPath id="clip0_8970_23875">
<rect width="13" height="13" fill="white" transform="translate(6 6)"/>
</clipPath>
</defs>
</svg>
