<svg width="47" height="20" viewBox="0 0 47 20" fill="none" xmlns="http://www.w3.org/2000/svg">
<rect x="0.25" y="0.25" width="46.5" height="19.5" rx="9.75" fill="#FFF1E4" stroke="#FF8D24" stroke-width="0.5"/>
<path d="M35.4273 10.5748H35.2195C34.0485 10.5748 32.8775 10.5748 31.7065 10.5748C31.2668 10.574 31 10.3573 31 10.0008C31 9.64424 31.266 9.42596 31.7049 9.42596C32.8759 9.42596 34.0469 9.42596 35.2179 9.42596H35.4273C35.4273 9.35061 35.4273 9.2877 35.4273 9.22555C35.4273 8.02543 35.4273 6.82609 35.4273 5.62597C35.4273 5.31992 35.5847 5.08922 35.8344 5.02319C36.233 4.91755 36.5719 5.18321 36.5727 5.60888C36.575 6.54645 36.5727 7.48324 36.5727 8.42081C36.5727 8.74706 36.5727 9.07331 36.5727 9.42596C36.6417 9.42596 36.703 9.42596 36.765 9.42596C37.9415 9.42596 39.1179 9.42596 40.2943 9.42596C40.734 9.42596 41 9.64268 41 9.99922C41 10.3558 40.734 10.574 40.2951 10.574C39.1241 10.574 37.9531 10.574 36.7821 10.574C36.7193 10.574 36.6557 10.574 36.5727 10.574C36.5727 10.6494 36.5727 10.7123 36.5727 10.7744C36.5727 11.9746 36.5727 13.1739 36.5727 14.374C36.5727 14.6801 36.4153 14.9108 36.1656 14.9768C35.767 15.0825 35.4281 14.8168 35.4273 14.3911C35.425 13.4536 35.4273 12.5168 35.4273 11.5792C35.4273 11.2529 35.4273 10.9267 35.4273 10.574V10.5748Z" fill="#FF8D24"/>
<path d="M12.0562 12.5972L14.7793 4.75781H16.106L12.6846 14H11.7388L12.0562 12.5972ZM9.51074 4.75781L12.2085 12.5972L12.5449 14H11.5991L8.18408 4.75781H9.51074ZM19.7432 14.127C19.265 14.127 18.8312 14.0465 18.4419 13.8857C18.0568 13.7207 17.7246 13.4901 17.4453 13.1938C17.1702 12.8976 16.9587 12.5464 16.8105 12.1401C16.6624 11.7339 16.5884 11.2896 16.5884 10.8071V10.5405C16.5884 9.98193 16.6709 9.4847 16.8359 9.04883C17.001 8.60872 17.2253 8.23633 17.5088 7.93164C17.7923 7.62695 18.1139 7.39632 18.4736 7.23975C18.8333 7.08317 19.2057 7.00488 19.5908 7.00488C20.0817 7.00488 20.5049 7.08952 20.8604 7.25879C21.2201 7.42806 21.5142 7.66504 21.7427 7.96973C21.9712 8.27018 22.1405 8.62565 22.2505 9.03613C22.3605 9.44238 22.4155 9.88672 22.4155 10.3691V10.896H17.2866V9.9375H21.2412V9.84863C21.2243 9.54395 21.1608 9.24772 21.0508 8.95996C20.945 8.6722 20.7757 8.43522 20.543 8.24902C20.3102 8.06283 19.9928 7.96973 19.5908 7.96973C19.3242 7.96973 19.0788 8.02686 18.8545 8.14111C18.6302 8.25114 18.4377 8.41618 18.2769 8.63623C18.116 8.85628 17.9912 9.125 17.9023 9.44238C17.8135 9.75977 17.769 10.1258 17.769 10.5405V10.8071C17.769 11.133 17.8135 11.4398 17.9023 11.7275C17.9954 12.0111 18.1287 12.2607 18.3022 12.4766C18.48 12.6924 18.6937 12.8617 18.9434 12.9844C19.1973 13.1071 19.485 13.1685 19.8066 13.1685C20.2214 13.1685 20.5726 13.0838 20.8604 12.9146C21.1481 12.7453 21.3999 12.5189 21.6157 12.2354L22.3267 12.8003C22.1785 13.0246 21.9902 13.2383 21.7617 13.4414C21.5332 13.6445 21.2518 13.8096 20.9175 13.9365C20.5874 14.0635 20.196 14.127 19.7432 14.127ZM24.9609 8.21094V14H23.7866V7.13184H24.9292L24.9609 8.21094ZM27.1064 7.09375L27.1001 8.18555C27.0028 8.16439 26.9097 8.15169 26.8208 8.14746C26.7362 8.139 26.6388 8.13477 26.5288 8.13477C26.258 8.13477 26.0189 8.17708 25.8115 8.26172C25.6042 8.34635 25.4285 8.46484 25.2847 8.61719C25.1408 8.76953 25.0265 8.9515 24.9419 9.16309C24.8615 9.37044 24.8086 9.59896 24.7832 9.84863L24.4531 10.0391C24.4531 9.62435 24.4933 9.23503 24.5737 8.87109C24.6584 8.50716 24.7874 8.18555 24.9609 7.90625C25.1344 7.62272 25.3545 7.40267 25.6211 7.24609C25.8919 7.08529 26.2135 7.00488 26.5859 7.00488C26.6706 7.00488 26.7679 7.01546 26.8779 7.03662C26.988 7.05355 27.0641 7.07259 27.1064 7.09375Z" fill="#FF8D24"/>
</svg>