<svg width="7" height="11" viewBox="0 0 7 11" fill="none" xmlns="http://www.w3.org/2000/svg">
<path d="M0.937095 1.80318C0.818775 1.68831 0.75 1.53128 0.75 1.36489C0.75 1.19845 0.818815 1.04137 0.9372 0.926496C0.942429 0.921422 0.947841 0.916611 0.953418 0.912066C1.00836 0.862394 1.07179 0.823093 1.1404 0.795647C1.21597 0.765416 1.29672 0.75 1.37799 0.75C1.45926 0.75 1.54001 0.765416 1.61558 0.795647C1.69113 0.82587 1.7604 0.87047 1.81897 0.927463C1.81899 0.927482 1.81901 0.927501 1.81903 0.92752C1.81904 0.927529 1.81905 0.927539 1.81906 0.927549L6.05816 5.05016C6.05816 5.05016 6.05817 5.05017 6.05817 5.05017C6.17955 5.1682 6.25 5.32935 6.25 5.5C6.25 5.67065 6.17955 5.8318 6.05817 5.94983L0.937095 1.80318ZM0.937095 1.80318C0.93713 1.80321 0.937165 1.80324 0.9372 1.80328L4.73908 5.49998L0.9372 9.19595L0.937095 1.80318ZM1.81906 10.0725L6.05816 5.94984L0.937038 9.1961C0.818752 9.31097 0.75 9.46797 0.75 9.63434C0.75 9.80078 0.818815 9.95785 0.9372 10.0727L1.1113 9.89332L0.936915 10.0725C0.995502 10.1295 1.06481 10.1741 1.1404 10.2044C1.21597 10.2346 1.29672 10.25 1.37799 10.25C1.45926 10.25 1.54 10.2346 1.61558 10.2044C1.69113 10.1741 1.7604 10.1295 1.81897 10.0725C1.81899 10.0725 1.819 10.0725 1.81902 10.0725C1.81903 10.0725 1.81905 10.0725 1.81906 10.0725Z" fill="#828691" stroke="#828691" stroke-width="0.5" stroke-linejoin="round"/>
</svg>