<svg width="51" height="20" viewBox="0 0 51 20" fill="none" xmlns="http://www.w3.org/2000/svg">
<rect x="0.25" y="0.25" width="50.5" height="19.5" rx="9.75" fill="#FFF1E4" stroke="#FF8D24" stroke-width="0.5"/>
<path d="M15.9443 13.0034V14H11.0503V13.0034H15.9443ZM11.2979 4.75781V14H10.0728V4.75781H11.2979ZM15.2969 8.73145V9.72803H11.0503V8.73145H15.2969ZM15.8809 4.75781V5.76074H11.0503V4.75781H15.8809ZM21.4858 12.667V4.25H22.6665V14H21.5874L21.4858 12.667ZM16.8647 10.6421V10.5088C16.8647 9.98405 16.9282 9.50798 17.0552 9.08057C17.1864 8.64893 17.3704 8.27865 17.6074 7.96973C17.8486 7.66081 18.1343 7.42383 18.4644 7.25879C18.7987 7.08952 19.1711 7.00488 19.5815 7.00488C20.0132 7.00488 20.3898 7.08105 20.7114 7.2334C21.0373 7.38151 21.3123 7.59945 21.5366 7.88721C21.7651 8.17074 21.945 8.51351 22.0762 8.91553C22.2074 9.31755 22.2983 9.77246 22.3491 10.2803V10.8643C22.3026 11.3678 22.2116 11.8206 22.0762 12.2227C21.945 12.6247 21.7651 12.9674 21.5366 13.251C21.3123 13.5345 21.0373 13.7524 20.7114 13.9048C20.3856 14.0529 20.0047 14.127 19.5688 14.127C19.1668 14.127 18.7987 14.0402 18.4644 13.8667C18.1343 13.6932 17.8486 13.4499 17.6074 13.1367C17.3704 12.8236 17.1864 12.4554 17.0552 12.0322C16.9282 11.6048 16.8647 11.1414 16.8647 10.6421ZM18.0454 10.5088V10.6421C18.0454 10.9849 18.0793 11.3065 18.147 11.6069C18.2189 11.9074 18.3289 12.1719 18.4771 12.4004C18.6252 12.6289 18.8135 12.8088 19.042 12.9399C19.2705 13.0669 19.5435 13.1304 19.8608 13.1304C20.2502 13.1304 20.5697 13.0479 20.8193 12.8828C21.0732 12.7178 21.2764 12.4998 21.4287 12.229C21.5811 11.9582 21.6995 11.6641 21.7842 11.3467V9.81689C21.7334 9.58415 21.6593 9.35986 21.562 9.14404C21.4689 8.92399 21.3462 8.72933 21.1938 8.56006C21.0457 8.38656 20.8617 8.24902 20.6416 8.14746C20.4258 8.0459 20.1698 7.99512 19.8735 7.99512C19.5519 7.99512 19.2747 8.06283 19.042 8.19824C18.8135 8.32943 18.6252 8.51139 18.4771 8.74414C18.3289 8.97266 18.2189 9.23926 18.147 9.54395C18.0793 9.8444 18.0454 10.166 18.0454 10.5088ZM25.7705 7.13184V14H24.5898V7.13184H25.7705ZM24.501 5.31006C24.501 5.11963 24.5581 4.95882 24.6724 4.82764C24.7909 4.69645 24.9644 4.63086 25.1929 4.63086C25.4172 4.63086 25.5885 4.69645 25.707 4.82764C25.8298 4.95882 25.8911 5.11963 25.8911 5.31006C25.8911 5.49202 25.8298 5.6486 25.707 5.77979C25.5885 5.90674 25.4172 5.97021 25.1929 5.97021C24.9644 5.97021 24.7909 5.90674 24.6724 5.77979C24.5581 5.6486 24.501 5.49202 24.501 5.31006ZM30.5312 7.13184V8.0332H26.8179V7.13184H30.5312ZM28.0747 5.4624H29.249V12.2988C29.249 12.5316 29.285 12.7072 29.3569 12.8257C29.4289 12.9442 29.522 13.0225 29.6362 13.0605C29.7505 13.0986 29.8732 13.1177 30.0044 13.1177C30.1017 13.1177 30.2033 13.1092 30.3091 13.0923C30.4191 13.0711 30.5016 13.0542 30.5566 13.0415L30.563 14C30.4699 14.0296 30.3472 14.0571 30.1948 14.0825C30.0467 14.1121 29.8669 14.127 29.6553 14.127C29.3675 14.127 29.103 14.0698 28.8618 13.9556C28.6206 13.8413 28.4281 13.6509 28.2842 13.3843C28.1445 13.1134 28.0747 12.7495 28.0747 12.2925V5.4624Z" fill="#FF8D24"/>
<g clip-path="url(#clip0_0_1)">
<path d="M41.0218 6.66333C41.7981 7.44091 42.5623 8.20642 43.3341 8.97956C43.3031 9.01259 43.2656 9.05516 43.2257 9.09518C41.9611 10.3626 40.7003 11.6331 39.4268 12.8916C39.267 13.0492 39.059 13.1813 38.849 13.2601C38.1882 13.5066 37.5147 13.7194 36.8475 13.9506C36.583 14.0421 36.3541 14.0167 36.1556 13.802C36.0122 13.647 35.9634 13.4703 36.0281 13.276C36.2773 12.5251 36.5279 11.7748 36.7942 11.0296C36.8475 10.8809 36.9534 10.7399 37.0657 10.6268C38.3632 9.31816 39.6672 8.0152 40.9692 6.71161C40.9876 6.69319 41.0079 6.67731 41.0225 6.6646L41.0218 6.66333Z" fill="#FF8D24"/>
<path d="M41.6143 6.09648C41.8534 5.85 42.0937 5.5584 42.3778 5.31827C42.9239 4.85642 43.6621 4.90661 44.1688 5.40784C44.3077 5.54506 44.4479 5.68165 44.5823 5.82331C45.1303 6.40205 45.1417 7.125 44.6033 7.712C44.3788 7.95658 44.1333 8.18274 43.9139 8.40064C43.1471 7.63259 42.381 6.86517 41.6143 6.09648Z" fill="#FF8D24"/>
</g>
<defs>
<clipPath id="clip0_0_1">
<rect width="9" height="9" fill="white" transform="translate(36 5)"/>
</clipPath>
</defs>
</svg>
