<svg width="7" height="11" viewBox="0 0 7 11" fill="none" xmlns="http://www.w3.org/2000/svg">
<path d="M6.06309 0.927548C6.0045 0.870516 5.93519 0.825885 5.8596 0.795647C5.78403 0.765414 5.70328 0.75 5.62201 0.75C5.54075 0.75 5.46 0.765414 5.38442 0.795648C5.30884 0.825885 5.23953 0.870515 5.18094 0.927548L0.941839 5.05016C0.820459 5.16819 0.75 5.32934 0.75 5.5C0.75 5.67066 0.82046 5.83181 0.941839 5.94984L5.18094 10.0725C5.18097 10.0725 5.181 10.0725 5.18103 10.0725C5.2396 10.1295 5.30887 10.1741 5.38442 10.2044C5.45999 10.2346 5.54074 10.25 5.62201 10.25C5.70328 10.25 5.78403 10.2346 5.8596 10.2044C5.92821 10.1769 5.99164 10.1376 6.04658 10.0879C6.05216 10.0834 6.05757 10.0786 6.0628 10.0735C6.18118 9.95863 6.25 9.80155 6.25 9.63511C6.25 9.46871 6.18121 9.31166 6.06287 9.19679L5.8887 1.10668M6.06309 0.927548L5.8887 1.10668M6.06309 0.927548C6.06299 0.927456 6.0629 0.927363 6.0628 0.927271L5.8887 1.10668M6.06309 0.927548C6.1813 1.0424 6.25 1.19936 6.25 1.36566C6.25 1.53203 6.18125 1.68903 6.06296 1.8039M5.8887 1.10668C5.96005 1.17592 6 1.26887 6 1.36566C6 1.46245 5.96005 1.5554 5.8887 1.62464M6.06296 1.8039L5.8887 1.62464M6.06296 1.8039L6.0628 1.80405M6.06296 1.8039L6.0628 1.80405M5.8887 1.62464L6.0628 1.80405M5.8887 1.62464L6.0628 1.80405M2.26092 5.50002L2.08161 5.32567L1.90228 5.5L2.08159 5.67435L2.26092 5.50002Z" fill="#24397C" stroke="#24397C" stroke-width="0.5" stroke-linejoin="round"/>
</svg>
