<svg width="16" height="17" viewBox="0 0 16 17" fill="none" xmlns="http://www.w3.org/2000/svg">
<g clip-path="url(#clip0_3467_19933)">
<path d="M0.994102 17.0001C0.810916 16.9113 0.605147 16.8537 0.449565 16.7277C0.0564272 16.4083 -0.0606776 15.9683 0.0279874 15.4565C0.611838 12.0694 1.19402 8.68236 1.77703 5.29531C1.88493 4.66723 2.35001 4.25294 2.95561 4.25116C3.98529 4.2485 5.01498 4.25116 6.04466 4.25116C6.10071 4.25116 6.15675 4.25116 6.24541 4.25116C5.6624 3.57695 5.43488 2.8149 5.6097 1.94286C5.73015 1.3405 6.03881 0.85613 6.50472 0.487972C7.44155 -0.253666 8.75731 -0.134791 9.57788 0.758546C10.3876 1.64035 10.5248 3.14314 9.54442 4.25116H9.72844C10.7422 4.25116 11.7569 4.25116 12.7707 4.25116C13.454 4.25116 13.8957 4.63085 14.0187 5.3441C14.5105 8.19267 14.999 11.0412 15.4883 13.8907C15.5837 14.4451 15.6891 14.9978 15.7694 15.5549C15.8698 16.246 15.4925 16.8146 14.8509 16.9734C14.8317 16.9779 14.8133 16.9912 14.7949 17.0001H0.994102ZM7.89408 15.9373C10.1049 15.9373 12.3156 15.9373 14.5264 15.9373C14.7556 15.9373 14.8083 15.8743 14.7681 15.641C14.6067 14.6891 14.4444 13.7381 14.2813 12.7862C13.8681 10.3785 13.4532 7.97 13.04 5.56234C13.0024 5.34499 12.9706 5.31305 12.764 5.31305C9.51849 5.31305 6.27302 5.31305 3.02754 5.31305C2.81926 5.31305 2.78748 5.3441 2.74984 5.56056C2.50475 6.99061 2.25883 8.41977 2.01291 9.84982C1.68335 11.7687 1.35378 13.6875 1.02505 15.6064C0.976536 15.8885 1.02003 15.9382 1.29272 15.9382C3.49262 15.9382 5.69335 15.9382 7.89324 15.9382L7.89408 15.9373ZM7.89157 3.89188C8.6285 3.89365 9.2274 3.26645 9.23409 2.48667C9.24079 1.71398 8.6377 1.06815 7.90579 1.06372C7.16469 1.05839 6.55407 1.6989 6.5549 2.48046C6.5549 3.25758 7.15548 3.89099 7.89157 3.89276V3.89188Z" fill="#363740"/>
<path d="M10.8993 11.6881C10.7303 11.6881 10.5739 11.6908 10.4183 11.6881C10.1247 11.6828 9.90388 11.4548 9.90305 11.1594C9.90221 10.8622 10.1205 10.6306 10.4133 10.6271C10.742 10.6227 11.0716 10.6227 11.4011 10.6271C11.6931 10.6306 11.9097 10.8542 11.9072 11.162C11.9047 11.4708 11.9198 11.7875 11.8587 12.0855C11.6814 12.9576 10.9486 13.5049 10.0862 13.449C9.31167 13.3985 8.62661 12.7118 8.58395 11.8522C8.54296 11.0148 8.54464 10.1702 8.59148 9.33278C8.63916 8.48646 9.36604 7.82289 10.1791 7.79717C11.008 7.77144 11.7433 8.38622 11.8763 9.22721C11.9039 9.4002 11.9106 9.5794 11.9072 9.75505C11.9014 10.046 11.6822 10.2643 11.412 10.266C11.1352 10.2678 10.9185 10.0451 10.9076 9.74529C10.9051 9.66811 10.9093 9.59005 10.9043 9.51287C10.8817 9.16156 10.6124 8.87768 10.2853 8.85905C9.93651 8.83865 9.64709 9.07285 9.58352 9.42948C9.57516 9.47827 9.56679 9.52795 9.56679 9.57763C9.56595 10.274 9.5601 10.9713 9.56846 11.6677C9.57432 12.1858 10.0243 12.5211 10.466 12.3517C10.727 12.2505 10.8909 12.0075 10.9009 11.6872L10.8993 11.6881Z" fill="#363740"/>
<path d="M4.8835 9.40821C5.38537 8.91496 5.85296 8.44922 6.32807 7.99235C6.41339 7.91074 6.5238 7.83799 6.63421 7.8096C6.85671 7.75194 7.07085 7.87525 7.17038 8.08373C7.27327 8.30019 7.23563 8.53971 7.05579 8.71891C6.61832 9.15537 6.17583 9.58563 5.73585 10.0194C5.53343 10.2182 5.33184 10.4169 5.09596 10.6493C5.15618 10.6954 5.21139 10.7282 5.25572 10.7726C5.8563 11.3723 6.45605 11.9738 7.05495 12.5744C7.21555 12.7349 7.26323 12.9328 7.19297 13.1501C7.12856 13.3488 6.9872 13.4668 6.78812 13.4961C6.61581 13.5209 6.47277 13.4544 6.34814 13.3284C5.92406 12.9017 5.4983 12.4759 5.07337 12.0501C5.02068 11.9968 4.96714 11.9445 4.89688 11.8753C4.89103 11.9356 4.8835 11.9755 4.8835 12.0164C4.88266 12.3206 4.88684 12.6249 4.88182 12.9292C4.87597 13.2308 4.65933 13.4544 4.38246 13.4544C4.10559 13.4544 3.88225 13.2317 3.88142 12.9319C3.87807 11.3945 3.87807 9.8562 3.88142 8.31793C3.88142 8.0163 4.10391 7.79541 4.38246 7.7963C4.66016 7.7963 4.87681 8.01985 4.88099 8.32236C4.88684 8.66923 4.88266 9.01698 4.88266 9.40821H4.8835Z" fill="#363740"/>
</g>
<defs>
<clipPath id="clip0_3467_19933">
<rect width="15.7857" height="17" fill="white"/>
</clipPath>
</defs>
</svg>
