<svg width="14" height="14" viewBox="0 0 14 14" fill="none" xmlns="http://www.w3.org/2000/svg">
<path d="M12.8549 3.7334L9.67467 0.564186C9.43257 0.322093 9.04743 0.333097 8.81634 0.564186C8.57424 0.806279 8.58525 1.19143 8.81634 1.42252L10.9512 3.54633H1.05836C0.717226 3.54633 0.453125 3.82144 0.453125 4.15156C0.453125 4.49269 0.72823 4.7568 1.05836 4.7568H10.9402L8.80533 6.88061C8.56324 7.1227 8.56324 7.50785 8.80533 7.73894C9.04743 7.98103 9.43257 7.98103 9.66366 7.73894L12.8439 4.56972C13.086 4.36064 13.086 3.9755 12.8549 3.7334Z" fill="#363740"/>
<path d="M0.630592 10.4898L3.81081 13.6591C4.05291 13.9012 4.43805 13.8901 4.66914 13.6591C4.91124 13.417 4.90023 13.0318 4.66914 12.8007L2.53432 10.6769H12.4161C12.7572 10.6769 13.0213 10.4018 13.0213 10.0717C13.0213 9.73055 12.7462 9.46645 12.4161 9.46645H2.53432L4.66914 7.34263C4.91124 7.10054 4.91124 6.71539 4.66914 6.4843C4.42705 6.24221 4.0419 6.24221 3.81081 6.4843L0.630592 9.65352C0.388499 9.8626 0.399503 10.2477 0.630592 10.4898Z" fill="#363740"/>
</svg>
