<svg width="20" height="20" viewBox="0 0 20 20" fill="none" xmlns="http://www.w3.org/2000/svg">
<path d="M17.7399 10.005V10.005C17.7371 14.2611 14.2701 17.7443 10.0092 17.7332C5.69003 17.7222 2.29559 14.3103 2.25999 9.99944C2.29282 5.69228 5.68082 2.27575 10.0038 2.25917C14.2691 2.24354 17.7436 5.73771 17.7399 10.005ZM19.1375 10.4559C19.4084 5.26052 15.3056 0.982347 10.3208 0.858477C5.54455 0.654063 1.1399 4.3348 0.863289 9.52696C0.585632 14.7267 4.69379 18.9734 9.66775 19.1452C14.4403 19.3102 18.8656 15.6725 19.1375 10.4559Z" fill="#363740" stroke="#363740" stroke-width="0.3"/>
<path d="M9.29266 6.72437C9.2929 6.90847 9.29314 7.09249 9.29323 7.27641L9.29515 4.96209C9.29113 5.54991 9.29189 6.13756 9.29266 6.72437Z" fill="#363740" stroke="#363740" stroke-width="0.3"/>
</svg>
