<svg width="14" height="11" viewBox="0 0 14 11" fill="none" xmlns="http://www.w3.org/2000/svg">
<path d="M13.9408 5.01239C13.8386 4.53381 13.6525 4.11315 13.235 3.83804C12.9219 3.63152 12.3738 3.57512 12.0527 3.91577C11.9505 4.02398 11.8454 4.12991 11.7512 4.24498C11.5221 4.52466 11.2119 4.63288 10.9229 4.52619C10.6477 4.42483 10.5003 4.1642 10.5003 3.78012C10.5003 2.85268 10.5003 1.926 10.5003 0.998558C10.5003 0.365276 10.1726 0.00557837 9.57265 0.00634044C8.66034 0.00786458 7.74803 0.0208198 6.83646 0.0360612C6.61969 0.0398716 6.41461 0.097027 6.27594 0.298214C6.03728 0.644957 6.11026 1.04809 6.46497 1.33082C7.25758 1.96258 7.16416 2.96318 6.26864 3.43185C5.83219 3.66047 5.3702 3.7344 4.88704 3.66352C4.4776 3.60332 4.11487 3.43871 3.83242 3.11483C3.42589 2.64997 3.30912 1.99154 3.8908 1.45275C3.96817 1.38112 4.05867 1.3232 4.12727 1.24395C4.31484 1.02675 4.44184 0.779081 4.32871 0.481873C4.21121 0.179331 3.99298 0.00405422 3.6682 0.00329215C2.75589 0.00329215 1.84359 -0.00585271 0.931282 0.00634044C0.348136 0.0147232 0 0.404904 0 1.00999V1.14259C0 1.77358 0 2.40458 0 3.03634V8.48972C0 8.53392 0 8.57812 0 8.62232C0 9.09862 0 9.57491 0 10.0512C0 10.6121 0.32843 10.9863 0.862677 10.9924C1.79907 11.0038 2.73546 11.0007 3.67258 10.9939C4.03969 10.9916 4.28346 10.798 4.34769 10.4505C4.40607 10.1343 4.27251 9.8866 4.03093 9.69456C3.24854 9.07347 3.33466 8.05534 4.22726 7.61182C4.51628 7.46855 4.84982 7.37329 5.16803 7.355C5.76286 7.3207 6.31535 7.48607 6.72771 7.98066C7.14445 8.47982 7.09701 9.11919 6.61678 9.549C6.53357 9.62292 6.43723 9.68465 6.36644 9.77C6.18471 9.991 6.07231 10.2394 6.17376 10.5382C6.27886 10.8461 6.50949 10.9901 6.80581 10.9924C7.76044 11.0008 8.71581 11.0053 9.67045 10.9893C10.1755 10.9809 10.5003 10.6007 10.5003 10.0748C10.5003 9.09709 10.4988 8.11936 10.501 7.14086C10.5017 6.7583 10.7251 6.47862 11.0863 6.43746C11.3746 6.40469 11.598 6.5472 11.7753 6.78344C11.9563 7.02502 12.1548 7.24831 12.4658 7.30546C12.9839 7.40148 13.3722 7.17362 13.6496 6.74153C13.9875 6.2157 14.0729 5.63119 13.9408 5.01239Z" fill="black"/>
</svg>
