<svg width="224" height="112" viewBox="0 0 224 112" fill="none" xmlns="http://www.w3.org/2000/svg">
<path d="M104.621 69H83.6587V66.0776L94.7329 53.7729C96.3735 51.9126 97.5015 50.4038 98.1167 49.2466C98.7466 48.0747 99.0615 46.8662 99.0615 45.6211C99.0615 43.9512 98.5562 42.5815 97.5454 41.5122C96.5347 40.4429 95.187 39.9082 93.5024 39.9082C91.481 39.9082 89.9062 40.4868 88.7783 41.644C87.665 42.7866 87.1084 44.3833 87.1084 46.4341H83.0435C83.0435 43.4897 83.9883 41.1094 85.8779 39.293C87.7822 37.4766 90.3237 36.5684 93.5024 36.5684C96.4761 36.5684 98.8271 37.3521 100.556 38.9194C102.284 40.4722 103.148 42.5449 103.148 45.1377C103.148 48.2871 101.142 52.0371 97.1279 56.3877L88.5586 65.6821H104.621V69ZM109.213 66.8687C109.213 66.1655 109.418 65.5796 109.828 65.1108C110.253 64.6421 110.883 64.4077 111.718 64.4077C112.553 64.4077 113.183 64.6421 113.607 65.1108C114.047 65.5796 114.267 66.1655 114.267 66.8687C114.267 67.5425 114.047 68.1064 113.607 68.5605C113.183 69.0146 112.553 69.2417 111.718 69.2417C110.883 69.2417 110.253 69.0146 109.828 68.5605C109.418 68.1064 109.213 67.5425 109.213 66.8687ZM109.235 47.4668C109.235 46.7637 109.44 46.1777 109.85 45.709C110.275 45.2402 110.905 45.0059 111.74 45.0059C112.575 45.0059 113.205 45.2402 113.629 45.709C114.069 46.1777 114.289 46.7637 114.289 47.4668C114.289 48.1406 114.069 48.7046 113.629 49.1587C113.205 49.6128 112.575 49.8398 111.74 49.8398C110.905 49.8398 110.275 49.6128 109.85 49.1587C109.44 48.7046 109.235 48.1406 109.235 47.4668ZM133.185 69H129.098V41.9077L120.902 44.918V41.2266L132.548 36.854H133.185V69Z" fill="#8D8D8D"/>
<path d="M224 27H220.612V3.65571H197V0H224V27Z" fill="#8D8D8D"/>
<g clip-path="url(#clip0)">
<path d="M-2.36041e-06 85L3.38793 85L3.38793 108.344L27 108.344L27 112L0 112L-2.36041e-06 85Z" fill="#8D8D8D"/>
</g>
<g clip-path="url(#clip1)">
<path d="M197 112L197 108.612L220.344 108.612L220.344 85L224 85L224 112L197 112Z" fill="#8D8D8D"/>
</g>
<g clip-path="url(#clip2)">
<path d="M27 -1.18021e-06L27 3.38793L3.6557 3.38793L3.65571 27L0 27L-1.18021e-06 0L27 -1.18021e-06Z" fill="#8D8D8D"/>
</g>
<defs>
<clipPath id="clip0">
<rect width="27" height="27" fill="white" transform="translate(27 112) rotate(180)"/>
</clipPath>
<clipPath id="clip1">
<rect width="27" height="27" fill="white" transform="translate(224 85) rotate(90)"/>
</clipPath>
<clipPath id="clip2">
<rect width="27" height="27" fill="white" transform="translate(0 27) rotate(-90)"/>
</clipPath>
</defs>
</svg>
