<?xml version="1.0" encoding="utf-8"?>
<!-- Generator: Adobe Illustrator 16.0.0, SVG Export Plug-In . SVG Version: 6.00 Build 0)  -->
<!DOCTYPE svg PUBLIC "-//W3C//DTD SVG 1.1//EN" "http://www.w3.org/Graphics/SVG/1.1/DTD/svg11.dtd">
<svg version="1.1" id="Capa_1" xmlns="http://www.w3.org/2000/svg" xmlns:xlink="http://www.w3.org/1999/xlink" x="0px" y="0px"
	 width="190px" height="124px" viewBox="0 0 190 124" enable-background="new 0 0 190 124" xml:space="preserve">
<g id="Capa_1_1_">
	<path fill="#F2F5FF" d="M4.241,0h181.518C188.102,0,190,2.239,190,5v114c0,2.762-1.898,5-4.241,5H4.241C1.899,124,0,121.762,0,119
		V5C0,2.239,1.899,0,4.241,0z"/>
	<path fill="#F2F5FF" d="M4.241,0h181.518C188.102,0,190,2.239,190,5v114c0,2.762-1.898,5-4.241,5H4.241C1.899,124,0,121.762,0,119
		V5C0,2.239,1.899,0,4.241,0z"/>
	<path fill="#8D8D8D" d="M190,27h-3.389V3.656H163V0h27V27z"/>
	<g>
		<g>
			<g>
				<defs>
					<rect id="SVGID_1_" y="97" width="27" height="27"/>
				</defs>
				<clipPath id="SVGID_2_">
					<use xlink:href="#SVGID_1_"  overflow="visible"/>
				</clipPath>
				<g clip-path="url(#SVGID_2_)">
					<path fill="#8D8D8D" d="M0,97h3.388v23.344H27V124H0V97z"/>
				</g>
			</g>
		</g>
	</g>
	<g>
		<g>
			<g>
				<defs>
					<rect id="SVGID_3_" x="163" y="97" width="27" height="27"/>
				</defs>
				<clipPath id="SVGID_4_">
					<use xlink:href="#SVGID_3_"  overflow="visible"/>
				</clipPath>
				<g clip-path="url(#SVGID_4_)">
					<path fill="#8D8D8D" d="M163,124v-3.389h23.344V97H190v27H163z"/>
				</g>
			</g>
		</g>
	</g>
	<g>
		<g>
			<g>
				<defs>
					<rect id="SVGID_5_" width="27" height="27"/>
				</defs>
				<clipPath id="SVGID_6_">
					<use xlink:href="#SVGID_5_"  overflow="visible"/>
				</clipPath>
				<g clip-path="url(#SVGID_6_)">
					<path fill="#8D8D8D" d="M27,0v3.388H3.656V27H0V0H27z"/>
				</g>
			</g>
		</g>
	</g>
</g>
<g id="Capa_2">
	<g enable-background="new    ">
		<path fill="#7A7A7A" d="M67.981,76.315V73.73l3.685-3.207C80.533,62.96,84.537,58.94,84.59,54.249
			c0-3.159-1.709-6.079-6.888-6.079c-3.152,0-5.769,1.437-7.371,2.633l-1.495-2.968c2.403-1.818,5.821-3.159,9.827-3.159
			c7.476,0,10.627,4.595,10.627,9.047c0,5.744-4.646,10.387-11.962,16.706l-2.777,2.296v0.097h15.594v3.493H67.981L67.981,76.315z"
			/>
		<path fill="#7A7A7A" d="M95.747,56.977c0-1.771,1.337-3.016,3.205-3.016c1.867,0,3.097,1.245,3.151,3.016
			c0,1.676-1.229,2.968-3.203,2.968C97.03,59.945,95.747,58.653,95.747,56.977z M95.747,73.875c0-1.771,1.337-3.016,3.205-3.016
			c1.867,0,3.097,1.244,3.151,3.016c0,1.675-1.229,2.967-3.203,2.967C97.03,76.842,95.747,75.55,95.747,73.875z"/>
		<path fill="#7A7A7A" d="M116.627,49.126h-0.107l-6.034,2.92l-0.908-3.207l7.586-3.638h4.004v31.113h-4.539L116.627,49.126
			L116.627,49.126z"/>
	</g>
</g>
</svg>
