<svg width="224" height="75" viewBox="0 0 224 75" fill="none" xmlns="http://www.w3.org/2000/svg">
<path d="M89.5693 35.0264H92.6235C94.5425 34.9971 96.0513 34.4917 97.1499 33.5103C98.2485 32.5288 98.7979 31.2031 98.7979 29.5332C98.7979 25.7832 96.9302 23.9082 93.1948 23.9082C91.437 23.9082 90.0308 24.4136 88.9761 25.4243C87.936 26.4204 87.416 27.7461 87.416 29.4014H83.3511C83.3511 26.8672 84.2739 24.7651 86.1196 23.0952C87.98 21.4106 90.3384 20.5684 93.1948 20.5684C96.2124 20.5684 98.5781 21.3667 100.292 22.9634C102.006 24.5601 102.863 26.7793 102.863 29.6211C102.863 31.0127 102.409 32.3604 101.5 33.6641C100.607 34.9678 99.3838 35.9419 97.8311 36.5864C99.5889 37.1431 100.944 38.0659 101.896 39.355C102.863 40.644 103.346 42.2188 103.346 44.0791C103.346 46.9502 102.409 49.228 100.534 50.9126C98.6587 52.5972 96.2197 53.4395 93.2168 53.4395C90.2139 53.4395 87.7676 52.6265 85.8779 51.0005C84.0029 49.3745 83.0654 47.2285 83.0654 44.5625H87.1523C87.1523 46.2471 87.7017 47.5947 88.8003 48.6055C89.8989 49.6162 91.3711 50.1216 93.2168 50.1216C95.1797 50.1216 96.6812 49.6089 97.7212 48.5835C98.7612 47.5581 99.2812 46.0859 99.2812 44.167C99.2812 42.3066 98.71 40.8784 97.5674 39.8823C96.4248 38.8862 94.7769 38.3735 92.6235 38.3442H89.5693V35.0264ZM109.213 50.8687C109.213 50.1655 109.418 49.5796 109.828 49.1108C110.253 48.6421 110.883 48.4077 111.718 48.4077C112.553 48.4077 113.183 48.6421 113.607 49.1108C114.047 49.5796 114.267 50.1655 114.267 50.8687C114.267 51.5425 114.047 52.1064 113.607 52.5605C113.183 53.0146 112.553 53.2417 111.718 53.2417C110.883 53.2417 110.253 53.0146 109.828 52.5605C109.418 52.1064 109.213 51.5425 109.213 50.8687ZM109.235 31.4668C109.235 30.7637 109.44 30.1777 109.85 29.709C110.275 29.2402 110.905 29.0059 111.74 29.0059C112.575 29.0059 113.205 29.2402 113.629 29.709C114.069 30.1777 114.289 30.7637 114.289 31.4668C114.289 32.1406 114.069 32.7046 113.629 33.1587C113.205 33.6128 112.575 33.8398 111.74 33.8398C110.905 33.8398 110.275 33.6128 109.85 33.1587C109.44 32.7046 109.235 32.1406 109.235 31.4668ZM133.185 53H129.098V25.9077L120.902 28.918V25.2266L132.548 20.854H133.185V53Z" fill="#8D8D8D"/>
<path d="M224 27H220.612V3.65571H197V0H224V27Z" fill="#8D8D8D"/>
<g clip-path="url(#clip0)">
<path d="M-2.36041e-06 48L3.38793 48L3.38793 71.3443L27 71.3443L27 75L0 75L-2.36041e-06 48Z" fill="#8D8D8D"/>
</g>
<g clip-path="url(#clip1)">
<path d="M197 75L197 71.6121L220.344 71.6121L220.344 48L224 48L224 75L197 75Z" fill="#8D8D8D"/>
</g>
<g clip-path="url(#clip2)">
<path d="M27 -1.18021e-06L27 3.38793L3.6557 3.38793L3.65571 27L0 27L-1.18021e-06 0L27 -1.18021e-06Z" fill="#8D8D8D"/>
</g>
<defs>
<clipPath id="clip0">
<rect width="27" height="27" fill="white" transform="translate(27 75) rotate(180)"/>
</clipPath>
<clipPath id="clip1">
<rect width="27" height="27" fill="white" transform="translate(224 48) rotate(90)"/>
</clipPath>
<clipPath id="clip2">
<rect width="27" height="27" fill="white" transform="translate(0 27) rotate(-90)"/>
</clipPath>
</defs>
</svg>
