<?xml version="1.0" encoding="utf-8"?>
<!-- Generator: Adobe Illustrator 16.0.0, SVG Export Plug-In . SVG Version: 6.00 Build 0)  -->
<!DOCTYPE svg PUBLIC "-//W3C//DTD SVG 1.1//EN" "http://www.w3.org/Graphics/SVG/1.1/DTD/svg11.dtd">
<svg version="1.1" id="Capa_1" xmlns="http://www.w3.org/2000/svg" xmlns:xlink="http://www.w3.org/1999/xlink" x="0px" y="0px"
	 width="224px" height="75px" viewBox="0 0 224 75" enable-background="new 0 0 224 75" xml:space="preserve">
<g id="Capa_2">
	<rect fill="#F2F5FF" width="224" height="75"/>
</g>
<g id="Capa_1_1_">
	<path fill="#8D8D8D" d="M92.24,35.522h3.274c2.057-0.029,3.675-0.535,4.853-1.516c1.178-0.981,1.767-2.307,1.767-3.977
		c0-3.75-2.002-5.625-6.007-5.625c-1.884,0-3.392,0.505-4.523,1.516c-1.115,0.996-1.672,2.322-1.672,3.977h-4.358
		c0-2.534,0.989-4.636,2.968-6.306c1.994-1.685,4.522-2.527,7.585-2.527c3.235,0,5.771,0.798,7.609,2.395
		c1.838,1.597,2.756,3.816,2.756,6.658c0,1.392-0.486,2.739-1.461,4.043c-0.958,1.304-2.269,2.278-3.934,2.922
		c1.885,0.557,3.337,1.48,4.358,2.77c1.037,1.289,1.555,2.862,1.555,4.725c0,2.869-1.004,5.148-3.015,6.833
		c-2.01,1.686-4.625,2.526-7.845,2.526c-3.219,0-5.842-0.813-7.868-2.438c-2.01-1.625-3.015-3.771-3.015-6.438h4.381
		c0,1.686,0.589,3.031,1.767,4.043c1.178,1.01,2.756,1.517,4.734,1.517c2.104,0,3.714-0.513,4.829-1.537
		c1.115-1.024,1.673-2.498,1.673-4.417c0-1.859-0.613-3.288-1.837-4.284c-1.225-0.996-2.992-1.51-5.3-1.539H92.24V35.522z
		 M113.3,51.365c0-0.703,0.22-1.289,0.659-1.758c0.455-0.469,1.131-0.703,2.025-0.703c0.896,0,1.572,0.234,2.024,0.703
		c0.474,0.469,0.708,1.055,0.708,1.758c0,0.674-0.234,1.236-0.708,1.691c-0.452,0.452-1.131,0.682-2.024,0.682
		c-0.896,0-1.57-0.229-2.025-0.682C113.52,52.604,113.3,52.039,113.3,51.365z M113.323,31.963c0-0.703,0.221-1.289,0.659-1.758
		c0.455-0.469,1.131-0.703,2.024-0.703c0.896,0,1.57,0.234,2.025,0.703c0.471,0.469,0.706,1.055,0.706,1.758
		c0,0.674-0.235,1.238-0.706,1.692c-0.455,0.454-1.132,0.681-2.025,0.681s-1.569-0.227-2.024-0.681
		C113.544,33.201,113.323,32.637,113.323,31.963z M139,53.496h-4.383V26.404l-8.786,3.01v-3.691l12.485-4.373H139V53.496z"/>
	<path fill="#8D8D8D" d="M224,27h-3.389V3.656H197V0h27V27z"/>
	<g>
		<g>
			<g>
				<defs>
					<rect id="SVGID_1_" y="48" width="27" height="27"/>
				</defs>
				<clipPath id="SVGID_2_">
					<use xlink:href="#SVGID_1_"  overflow="visible"/>
				</clipPath>
				<g clip-path="url(#SVGID_2_)">
					<path fill="#8D8D8D" d="M0,48h3.388v23.344H27V75H0V48z"/>
				</g>
			</g>
		</g>
	</g>
	<g>
		<g>
			<g>
				<defs>
					<rect id="SVGID_3_" x="197" y="48" width="27" height="27"/>
				</defs>
				<clipPath id="SVGID_4_">
					<use xlink:href="#SVGID_3_"  overflow="visible"/>
				</clipPath>
				<g clip-path="url(#SVGID_4_)">
					<path fill="#8D8D8D" d="M197,75v-3.389h23.344V48H224v27H197z"/>
				</g>
			</g>
		</g>
	</g>
	<g>
		<g>
			<g>
				<defs>
					<rect id="SVGID_5_" width="27" height="27"/>
				</defs>
				<clipPath id="SVGID_6_">
					<use xlink:href="#SVGID_5_"  overflow="visible"/>
				</clipPath>
				<g clip-path="url(#SVGID_6_)">
					<path fill="#8D8D8D" d="M27,0v3.388H3.656V27H0V0H27z"/>
				</g>
			</g>
		</g>
	</g>
</g>
</svg>
