<?xml version="1.0" encoding="utf-8"?>
<!-- Generator: Adobe Illustrator 16.0.0, SVG Export Plug-In . SVG Version: 6.00 Build 0)  -->
<!DOCTYPE svg PUBLIC "-//W3C//DTD SVG 1.1//EN" "http://www.w3.org/Graphics/SVG/1.1/DTD/svg11.dtd">
<svg version="1.1" id="Capa_1" xmlns="http://www.w3.org/2000/svg" xmlns:xlink="http://www.w3.org/1999/xlink" x="0px" y="0px"
	 width="100px" height="100px" viewBox="0 0 100 100" enable-background="new 0 0 100 100" xml:space="preserve">
<g id="Capa_1_1_">
	<circle fill="#F2F5FF" cx="50" cy="50" r="50"/>
	<path fill="#8D8D8D" d="M34.519,66.261h-1.377V69h-1.235v-7.109h2.5c0.82,0,1.454,0.185,1.899,0.553
		c0.445,0.367,0.669,0.898,0.669,1.597c0,0.476-0.116,0.874-0.347,1.196c-0.228,0.318-0.547,0.564-0.957,0.736l1.597,2.965V69
		h-1.323L34.519,66.261z M33.142,65.27h1.27c0.417,0,0.742-0.104,0.977-0.313c0.234-0.211,0.352-0.5,0.352-0.864
		c0-0.381-0.109-0.675-0.327-0.884c-0.215-0.208-0.537-0.316-0.967-0.322h-1.304L33.142,65.27L33.142,65.27z M40.358,69.098
		c-0.752,0-1.362-0.236-1.831-0.707c-0.465-0.477-0.698-1.106-0.698-1.896V66.35c0-0.527,0.101-0.998,0.303-1.412
		c0.205-0.416,0.492-0.739,0.859-0.972c0.367-0.231,0.778-0.347,1.23-0.347c0.719,0,1.274,0.229,1.665,0.688
		c0.394,0.459,0.591,1.108,0.591,1.948v0.479h-3.452c0.036,0.436,0.181,0.781,0.435,1.035c0.257,0.254,0.58,0.381,0.967,0.381
		c0.543,0,0.986-0.221,1.328-0.659l0.64,0.61c-0.211,0.315-0.495,0.562-0.85,0.736C41.193,69.012,40.798,69.098,40.358,69.098z
		 M40.217,64.57c-0.326,0-0.589,0.115-0.791,0.343c-0.199,0.228-0.326,0.546-0.381,0.952h2.261v-0.088
		c-0.026-0.396-0.132-0.697-0.317-0.898C40.803,64.674,40.545,64.57,40.217,64.57z M44.665,69h-1.187v-7.5h1.187V69z M49.118,69
		c-0.052-0.102-0.098-0.266-0.137-0.493c-0.377,0.394-0.84,0.591-1.387,0.591c-0.531,0-0.963-0.15-1.299-0.453
		c-0.336-0.304-0.503-0.678-0.503-1.123c0-0.563,0.208-0.996,0.625-1.295c0.42-0.303,1.019-0.453,1.797-0.453h0.728v-0.348
		c0-0.273-0.077-0.492-0.229-0.654c-0.153-0.166-0.386-0.248-0.698-0.248c-0.27,0-0.492,0.067-0.664,0.205
		c-0.172,0.133-0.259,0.304-0.259,0.513h-1.187c0-0.289,0.096-0.562,0.288-0.812c0.192-0.254,0.453-0.453,0.781-0.596
		c0.332-0.143,0.702-0.215,1.108-0.215c0.619,0,1.112,0.156,1.479,0.469c0.368,0.309,0.557,0.746,0.566,1.309v2.384
		c0,0.475,0.067,0.854,0.2,1.138V69H49.118z M47.814,68.146c0.234,0,0.454-0.059,0.659-0.172c0.208-0.113,0.365-0.268,0.469-0.459
		V66.52h-0.64c-0.439,0-0.77,0.076-0.991,0.229s-0.332,0.37-0.332,0.649c0,0.229,0.075,0.41,0.225,0.547
		C47.357,68.078,47.561,68.146,47.814,68.146z M53.542,68.15c0.296,0,0.542-0.086,0.737-0.26c0.195-0.173,0.299-0.386,0.313-0.64
		h1.118c-0.013,0.328-0.116,0.638-0.308,0.923c-0.191,0.283-0.453,0.508-0.781,0.674s-0.684,0.25-1.064,0.25
		c-0.738,0-1.324-0.24-1.758-0.719s-0.648-1.14-0.648-1.982v-0.121c0-0.806,0.215-1.447,0.645-1.93
		c0.43-0.484,1.016-0.728,1.758-0.728c0.629,0,1.141,0.184,1.533,0.552c0.396,0.364,0.605,0.846,0.625,1.439h-1.118
		c-0.014-0.303-0.116-0.551-0.313-0.746c-0.19-0.195-0.438-0.293-0.736-0.293c-0.384,0-0.682,0.14-0.889,0.42
		c-0.209,0.275-0.313,0.697-0.317,1.265v0.19c0,0.572,0.103,1,0.308,1.283C52.852,68.01,53.15,68.15,53.542,68.15z M57.868,69
		h-1.187v-5.283h1.187V69z M56.607,62.345c0-0.183,0.059-0.333,0.172-0.454c0.117-0.121,0.283-0.181,0.498-0.181
		s0.381,0.06,0.498,0.181s0.176,0.271,0.176,0.454c0,0.179-0.059,0.329-0.176,0.449c-0.117,0.117-0.283,0.176-0.498,0.176
		s-0.381-0.059-0.498-0.176C56.666,62.674,56.607,62.523,56.607,62.345z M58.941,66.311c0-0.519,0.104-0.983,0.309-1.396
		c0.205-0.417,0.493-0.734,0.863-0.957c0.371-0.225,0.799-0.337,1.279-0.337c0.713,0,1.291,0.229,1.733,0.688
		c0.444,0.459,0.688,1.066,0.724,1.825l0.004,0.278c0,0.521-0.101,0.986-0.303,1.396c-0.197,0.409-0.484,0.728-0.859,0.951
		c-0.371,0.225-0.801,0.338-1.289,0.338c-0.744,0-1.342-0.248-1.791-0.742c-0.445-0.498-0.67-1.16-0.67-1.987V66.311z
		 M60.129,66.412c0,0.543,0.112,0.971,0.337,1.279c0.226,0.307,0.537,0.459,0.938,0.459c0.4,0,0.712-0.156,0.933-0.469
		c0.226-0.313,0.337-0.771,0.337-1.373c0-0.533-0.115-0.957-0.347-1.27c-0.229-0.313-0.539-0.469-0.933-0.469
		c-0.389,0-0.694,0.154-0.924,0.464C60.242,65.342,60.129,65.801,60.129,66.412z M61.721,61.5h1.354l-1.354,1.479H60.77L61.721,61.5
		z M65.959,63.717l0.034,0.61c0.391-0.472,0.903-0.708,1.538-0.708c1.1,0,1.66,0.63,1.68,1.89V69h-1.188v-3.423
		c0-0.335-0.072-0.583-0.219-0.742c-0.144-0.163-0.38-0.244-0.709-0.244c-0.479,0-0.834,0.216-1.068,0.649V69H64.84v-5.283H65.959z"
		/>
</g>
<g id="Capa_2" display="none">
	<path display="inline" opacity="0.5" fill="#8D8D8D" enable-background="new    " d="M41.7,35h-3.545V17.876l-5.229,1.787V16.66
		l8.32-3.062H41.7V35z M51.484,31.25c0.664,0,1.178,0.19,1.539,0.571c0.36,0.371,0.541,0.84,0.541,1.406
		c0,0.557-0.181,1.021-0.541,1.392c-0.361,0.361-0.875,0.542-1.539,0.542c-0.635,0-1.137-0.181-1.508-0.542
		c-0.371-0.361-0.557-0.825-0.557-1.392s0.181-1.035,0.542-1.406C50.323,31.44,50.831,31.25,51.484,31.25z M51.484,18.813
		c0.664,0,1.178,0.19,1.539,0.571c0.36,0.371,0.541,0.84,0.541,1.406c0,0.557-0.181,1.021-0.541,1.392
		c-0.361,0.361-0.875,0.542-1.539,0.542c-0.635,0-1.137-0.181-1.508-0.542c-0.371-0.361-0.557-0.825-0.557-1.392
		s0.181-1.035,0.542-1.406C50.323,19.004,50.831,18.813,51.484,18.813z M66.721,35h-3.546V17.876l-5.229,1.787V16.66l8.32-3.062
		h0.455V35z"/>
</g>
<g id="Capa_3">
	<g enable-background="new    ">
		<path fill="#919191" d="M30.102,52.346c0.984,0.556,3.269,1.426,5.671,1.426c4.45,0,5.829-2.504,5.789-4.382
			c-0.04-3.165-3.269-4.521-6.616-4.521h-1.93v-2.295h1.93c2.52,0,5.71-1.147,5.71-3.825c0-1.808-1.3-3.408-4.49-3.408
			c-2.048,0-4.017,0.8-5.12,1.495l-0.906-2.226c1.34-0.869,3.939-1.739,6.696-1.739c5.041,0,7.325,2.643,7.325,5.39
			c0,2.33-1.575,4.312-4.726,5.321v0.069c3.151,0.557,5.711,2.643,5.711,5.808c0,3.616-3.19,6.781-9.334,6.781
			c-2.875,0-5.395-0.801-6.655-1.53L30.102,52.346z"/>
		<path fill="#919191" d="M49.754,41.809c0-1.287,0.984-2.191,2.362-2.191c1.379,0,2.284,0.904,2.324,2.191
			c0,1.217-0.906,2.156-2.364,2.156C50.699,43.964,49.754,43.025,49.754,41.809z M49.754,54.084c0-1.287,0.984-2.191,2.362-2.191
			c1.379,0,2.284,0.904,2.324,2.191c0,1.217-0.906,2.156-2.364,2.156C50.699,56.24,49.754,55.301,49.754,54.084z"/>
		<path fill="#919191" d="M65.152,36.105h-0.078l-4.451,2.121l-0.67-2.33l5.592-2.643H68.5v22.604h-3.348V36.105z"/>
	</g>
</g>
</svg>
