<svg width="124" height="124" viewBox="0 0 124 124" fill="none" xmlns="http://www.w3.org/2000/svg">
<rect x="3.05176e-05" width="124" height="124" rx="5" fill="#F2F5FF"/>
<path d="M47.0181 77H42.9312V49.9077L34.7354 52.918V49.2266L46.3809 44.854H47.0181V77ZM59.2129 74.8687C59.2129 74.1655 59.418 73.5796 59.8282 73.1108C60.253 72.6421 60.8828 72.4077 61.7178 72.4077C62.5528 72.4077 63.1826 72.6421 63.6075 73.1108C64.0469 73.5796 64.2666 74.1655 64.2666 74.8687C64.2666 75.5425 64.0469 76.1064 63.6075 76.5605C63.1826 77.0146 62.5528 77.2417 61.7178 77.2417C60.8828 77.2417 60.253 77.0146 59.8282 76.5605C59.418 76.1064 59.2129 75.5425 59.2129 74.8687ZM59.2349 55.4668C59.2349 54.7637 59.44 54.1777 59.8501 53.709C60.2749 53.2402 60.9048 53.0059 61.7398 53.0059C62.5747 53.0059 63.2046 53.2402 63.6294 53.709C64.0689 54.1777 64.2886 54.7637 64.2886 55.4668C64.2886 56.1406 64.0689 56.7046 63.6294 57.1587C63.2046 57.6128 62.5747 57.8398 61.7398 57.8398C60.9048 57.8398 60.2749 57.6128 59.8501 57.1587C59.44 56.7046 59.2349 56.1406 59.2349 55.4668ZM83.1851 77H79.0982V49.9077L70.9024 52.918V49.2266L82.5479 44.854H83.1851V77Z" fill="#8D8D8D"/>
<path d="M124 27H120.612V3.65571H97V0H124V27Z" fill="#8D8D8D"/>
<g clip-path="url(#clip0)">
<path d="M-2.36041e-06 97L3.38793 97L3.38793 120.344L27 120.344L27 124L0 124L-2.36041e-06 97Z" fill="#8D8D8D"/>
</g>
<g clip-path="url(#clip1)">
<path d="M97 124L97 120.612L120.344 120.612L120.344 97L124 97L124 124L97 124Z" fill="#8D8D8D"/>
</g>
<g clip-path="url(#clip2)">
<path d="M27 -1.18021e-06L27 3.38793L3.6557 3.38793L3.65571 27L0 27L-1.18021e-06 0L27 -1.18021e-06Z" fill="#8D8D8D"/>
</g>
<defs>
<clipPath id="clip0">
<rect width="27" height="27" fill="white" transform="translate(27 124) rotate(180)"/>
</clipPath>
<clipPath id="clip1">
<rect width="27" height="27" fill="white" transform="translate(124 97) rotate(90)"/>
</clipPath>
<clipPath id="clip2">
<rect width="27" height="27" fill="white" transform="translate(0 27) rotate(-90)"/>
</clipPath>
</defs>
</svg>
