<svg width="224" height="124" viewBox="0 0 224 124" fill="none" xmlns="http://www.w3.org/2000/svg">
<rect width="224" height="124" rx="5" fill="#F2F5FF"/>
<rect width="224" height="124" rx="5" fill="#F2F5FF"/>
<path d="M100.819 66.2554H105.258V69.5732H100.819V77H96.7324V69.5732H82.1646V67.1782L96.4907 45.0078H100.819V66.2554ZM86.7788 66.2554H96.7324V50.5669L96.249 51.4458L86.7788 66.2554ZM109.213 74.8687C109.213 74.1655 109.418 73.5796 109.828 73.1108C110.253 72.6421 110.883 72.4077 111.718 72.4077C112.553 72.4077 113.183 72.6421 113.607 73.1108C114.047 73.5796 114.267 74.1655 114.267 74.8687C114.267 75.5425 114.047 76.1064 113.607 76.5605C113.183 77.0146 112.553 77.2417 111.718 77.2417C110.883 77.2417 110.253 77.0146 109.828 76.5605C109.418 76.1064 109.213 75.5425 109.213 74.8687ZM109.235 55.4668C109.235 54.7637 109.44 54.1777 109.85 53.709C110.275 53.2402 110.905 53.0059 111.74 53.0059C112.575 53.0059 113.205 53.2402 113.629 53.709C114.069 54.1777 114.289 54.7637 114.289 55.4668C114.289 56.1406 114.069 56.7046 113.629 57.1587C113.205 57.6128 112.575 57.8398 111.74 57.8398C110.905 57.8398 110.275 57.6128 109.85 57.1587C109.44 56.7046 109.235 56.1406 109.235 55.4668ZM121.693 60.96L123.319 45.0078H139.711V48.7651H126.769L125.802 57.4883C127.37 56.5654 129.149 56.104 131.142 56.104C134.057 56.104 136.371 57.0708 138.085 59.0044C139.799 60.9233 140.656 63.5234 140.656 66.8047C140.656 70.1006 139.762 72.7007 137.975 74.605C136.203 76.4946 133.72 77.4395 130.526 77.4395C127.699 77.4395 125.392 76.6558 123.605 75.0884C121.818 73.521 120.8 71.353 120.551 68.5845H124.396C124.645 70.4155 125.297 71.7998 126.352 72.7373C127.406 73.6602 128.798 74.1216 130.526 74.1216C132.416 74.1216 133.896 73.4771 134.965 72.188C136.049 70.8989 136.591 69.1191 136.591 66.8486C136.591 64.71 136.005 62.9961 134.833 61.707C133.676 60.4033 132.13 59.7515 130.197 59.7515C128.424 59.7515 127.033 60.1396 126.022 60.916L124.945 61.7949L121.693 60.96Z" fill="#8D8D8D"/>
<path d="M224 27H220.612V3.65571H197V0H224V27Z" fill="#8D8D8D"/>
<g clip-path="url(#clip0)">
<path d="M-2.36041e-06 97L3.38793 97L3.38793 120.344L27 120.344L27 124L0 124L-2.36041e-06 97Z" fill="#8D8D8D"/>
</g>
<g clip-path="url(#clip1)">
<path d="M197 124L197 120.612L220.344 120.612L220.344 97L224 97L224 124L197 124Z" fill="#8D8D8D"/>
</g>
<g clip-path="url(#clip2)">
<path d="M27 -1.18021e-06L27 3.38793L3.6557 3.38793L3.65571 27L0 27L-1.18021e-06 0L27 -1.18021e-06Z" fill="#8D8D8D"/>
</g>
<defs>
<clipPath id="clip0">
<rect width="27" height="27" fill="white" transform="translate(27 124) rotate(180)"/>
</clipPath>
<clipPath id="clip1">
<rect width="27" height="27" fill="white" transform="translate(224 97) rotate(90)"/>
</clipPath>
<clipPath id="clip2">
<rect width="27" height="27" fill="white" transform="translate(0 27) rotate(-90)"/>
</clipPath>
</defs>
</svg>
