<svg width="100" height="100" viewBox="0 0 100 100" fill="none" xmlns="http://www.w3.org/2000/svg">
<circle cx="50" cy="50" r="50" fill="#F2F5FF"/>
<path d="M30.6074 56H27.0625V38.876L21.833 40.6631V37.6602L30.1533 34.5986H30.6074V56ZM43.3955 34.6719L49.5479 51.0195L55.6855 34.6719H60.4756V56H56.7842V48.9688L57.1504 39.5645L50.8516 56H48.2002L41.916 39.5791L42.2822 48.9688V56H38.5908V34.6719H43.3955ZM64.8701 56V34.6719H72.1797C74.5918 34.6719 76.4277 35.1553 77.6875 36.1221C78.9473 37.0889 79.5771 38.5293 79.5771 40.4434C79.5771 41.4199 79.3135 42.2988 78.7861 43.0801C78.2588 43.8613 77.4873 44.4668 76.4717 44.8965C77.624 45.209 78.5127 45.7998 79.1377 46.6689C79.7725 47.5283 80.0898 48.5635 80.0898 49.7744C80.0898 51.7764 79.4453 53.3145 78.1562 54.3887C76.877 55.4629 75.041 56 72.6484 56H64.8701ZM68.5762 46.376V53.041H72.6924C73.8545 53.041 74.7627 52.7529 75.417 52.1768C76.0713 51.6006 76.3984 50.7998 76.3984 49.7744C76.3984 47.5576 75.2656 46.4248 73 46.376H68.5762ZM68.5762 43.6514H72.209C73.3613 43.6514 74.2598 43.3926 74.9043 42.875C75.5586 42.3477 75.8857 41.6055 75.8857 40.6484C75.8857 39.5938 75.583 38.832 74.9775 38.3633C74.3818 37.8945 73.4492 37.6602 72.1797 37.6602H68.5762V43.6514Z" fill="#8D8D8D"/>
<path d="M21.3867 66.3584V69H20.1514V61.8906H22.8711C23.6654 61.8906 24.2952 62.0973 24.7607 62.5107C25.2295 62.9242 25.4639 63.471 25.4639 64.1514C25.4639 64.848 25.2344 65.39 24.7754 65.7773C24.3197 66.1647 23.68 66.3584 22.8564 66.3584H21.3867ZM21.3867 65.3672H22.8711C23.3105 65.3672 23.6458 65.2646 23.877 65.0596C24.1081 64.8512 24.2236 64.5518 24.2236 64.1611C24.2236 63.777 24.1064 63.471 23.8721 63.2432C23.6377 63.012 23.3154 62.8932 22.9053 62.8867H21.3867V65.3672ZM28.6914 69.0977C27.9395 69.0977 27.3291 68.8617 26.8604 68.3896C26.3949 67.9144 26.1621 67.2829 26.1621 66.4951V66.3486C26.1621 65.8213 26.263 65.3509 26.4648 64.9375C26.6699 64.5208 26.9564 64.1969 27.3242 63.9658C27.6921 63.7347 28.1022 63.6191 28.5547 63.6191C29.2741 63.6191 29.8291 63.8486 30.2197 64.3076C30.6136 64.7666 30.8105 65.416 30.8105 66.2559V66.7344H27.3584C27.3942 67.1706 27.5391 67.5156 27.793 67.7695C28.0501 68.0234 28.3724 68.1504 28.7598 68.1504C29.3034 68.1504 29.7461 67.9307 30.0879 67.4912L30.7275 68.1016C30.516 68.4173 30.2327 68.6631 29.8779 68.8389C29.5264 69.0114 29.1309 69.0977 28.6914 69.0977ZM28.5498 64.5713C28.2243 64.5713 27.9606 64.6852 27.7588 64.9131C27.5602 65.141 27.4333 65.4583 27.3779 65.8652H29.6387V65.7773C29.6126 65.3802 29.5068 65.0807 29.3213 64.8789C29.1357 64.6738 28.8786 64.5713 28.5498 64.5713ZM34.6973 67.5645C34.6973 67.3529 34.6094 67.1917 34.4336 67.0811C34.2611 66.9704 33.973 66.8727 33.5693 66.7881C33.1657 66.7035 32.8288 66.596 32.5586 66.4658C31.9661 66.1794 31.6699 65.7643 31.6699 65.2207C31.6699 64.765 31.862 64.3841 32.2461 64.0781C32.6302 63.7721 33.1185 63.6191 33.7109 63.6191C34.3424 63.6191 34.8519 63.7754 35.2393 64.0879C35.6299 64.4004 35.8252 64.8057 35.8252 65.3037H34.6387C34.6387 65.0758 34.554 64.887 34.3848 64.7373C34.2155 64.5843 33.9909 64.5078 33.7109 64.5078C33.4505 64.5078 33.2373 64.568 33.0713 64.6885C32.9085 64.8089 32.8271 64.9701 32.8271 65.1719C32.8271 65.3542 32.9036 65.4958 33.0566 65.5967C33.2096 65.6976 33.5189 65.8001 33.9844 65.9043C34.4499 66.0052 34.8145 66.1273 35.0781 66.2705C35.3451 66.4105 35.542 66.5798 35.6689 66.7783C35.7992 66.9769 35.8643 67.2178 35.8643 67.501C35.8643 67.9762 35.6673 68.362 35.2734 68.6582C34.8796 68.9512 34.3636 69.0977 33.7256 69.0977C33.2926 69.0977 32.9069 69.0195 32.5684 68.8633C32.2298 68.707 31.9661 68.4922 31.7773 68.2188C31.5885 67.9453 31.4941 67.6507 31.4941 67.335H32.6465C32.6628 67.6149 32.7686 67.8314 32.9639 67.9844C33.1592 68.1341 33.418 68.209 33.7402 68.209C34.0527 68.209 34.2904 68.1504 34.4531 68.0332C34.6159 67.9128 34.6973 67.7565 34.6973 67.5645ZM36.6797 66.3096C36.6797 65.792 36.7822 65.3265 36.9873 64.9131C37.1924 64.4964 37.4805 64.1774 37.8516 63.9561C38.2227 63.7314 38.6491 63.6191 39.1309 63.6191C39.8438 63.6191 40.4215 63.8486 40.8643 64.3076C41.3102 64.7666 41.5511 65.3753 41.5869 66.1338L41.5918 66.4121C41.5918 66.9329 41.4909 67.3984 41.2891 67.8086C41.0905 68.2188 40.804 68.5361 40.4297 68.7607C40.0586 68.9854 39.6289 69.0977 39.1406 69.0977C38.3952 69.0977 37.7979 68.8503 37.3486 68.3555C36.9027 67.8574 36.6797 67.195 36.6797 66.3682V66.3096ZM37.8662 66.4121C37.8662 66.9557 37.9785 67.3822 38.2031 67.6914C38.4277 67.9974 38.7402 68.1504 39.1406 68.1504C39.541 68.1504 39.8519 67.9941 40.0732 67.6816C40.2979 67.3691 40.4102 66.9118 40.4102 66.3096C40.4102 65.7757 40.2946 65.3525 40.0635 65.04C39.8356 64.7275 39.5247 64.5713 39.1309 64.5713C38.7435 64.5713 38.4359 64.7259 38.208 65.0352C37.9801 65.3411 37.8662 65.8001 37.8662 66.4121ZM46.2012 63.7168L46.2354 64.2686C46.6064 63.8356 47.1143 63.6191 47.7588 63.6191C48.4652 63.6191 48.9486 63.8893 49.209 64.4297C49.5931 63.8893 50.1335 63.6191 50.8301 63.6191C51.4128 63.6191 51.8457 63.7803 52.1289 64.1025C52.4154 64.4248 52.5618 64.9001 52.5684 65.5283V69H51.3818V65.5625C51.3818 65.2272 51.3086 64.9814 51.1621 64.8252C51.0156 64.6689 50.7731 64.5908 50.4346 64.5908C50.1644 64.5908 49.943 64.6641 49.7705 64.8105C49.6012 64.9538 49.4824 65.1426 49.4141 65.377L49.4189 69H48.2324V65.5234C48.2161 64.9017 47.8988 64.5908 47.2803 64.5908C46.805 64.5908 46.4681 64.7845 46.2695 65.1719V69H45.083V63.7168H46.2012ZM56.9434 69C56.8913 68.8991 56.8457 68.7347 56.8066 68.5068C56.429 68.9007 55.9668 69.0977 55.4199 69.0977C54.8893 69.0977 54.4564 68.9463 54.1211 68.6436C53.7858 68.3408 53.6182 67.9665 53.6182 67.5205C53.6182 66.9574 53.8265 66.526 54.2432 66.2266C54.6631 65.9238 55.262 65.7725 56.04 65.7725H56.7676V65.4258C56.7676 65.1523 56.6911 64.9342 56.5381 64.7715C56.3851 64.6055 56.1523 64.5225 55.8398 64.5225C55.5697 64.5225 55.3483 64.5908 55.1758 64.7275C55.0033 64.861 54.917 65.0319 54.917 65.2402H53.7305C53.7305 64.9505 53.8265 64.6803 54.0186 64.4297C54.2106 64.1758 54.471 63.9772 54.7998 63.834C55.1318 63.6908 55.5013 63.6191 55.9082 63.6191C56.5267 63.6191 57.0199 63.7754 57.3877 64.0879C57.7555 64.3971 57.9443 64.8333 57.9541 65.3965V67.7793C57.9541 68.2546 58.0208 68.6338 58.1543 68.917V69H56.9434ZM55.6396 68.1455C55.874 68.1455 56.0938 68.0885 56.2988 67.9746C56.5072 67.8607 56.6634 67.7077 56.7676 67.5156V66.5195H56.1279C55.6885 66.5195 55.3581 66.596 55.1367 66.749C54.9154 66.902 54.8047 67.1185 54.8047 67.3984C54.8047 67.6263 54.8796 67.8086 55.0293 67.9453C55.1823 68.0788 55.3857 68.1455 55.6396 68.1455ZM56.2988 61.5H57.6514L56.2988 62.9795H55.3467L56.2988 61.5ZM61.0938 65.4551L62.0996 63.7168H63.418L61.8018 66.3193L63.4717 69H62.1631L61.1084 67.1934L60.0586 69H58.7402L60.4102 66.3193L58.7988 63.7168H60.1074L61.0938 65.4551ZM65.4883 69H64.3018V63.7168H65.4883V69ZM64.2285 62.3447C64.2285 62.1624 64.2855 62.0111 64.3994 61.8906C64.5166 61.7702 64.6826 61.71 64.8975 61.71C65.1123 61.71 65.2783 61.7702 65.3955 61.8906C65.5127 62.0111 65.5713 62.1624 65.5713 62.3447C65.5713 62.5238 65.5127 62.6735 65.3955 62.7939C65.2783 62.9111 65.1123 62.9697 64.8975 62.9697C64.6826 62.9697 64.5166 62.9111 64.3994 62.7939C64.2855 62.6735 64.2285 62.5238 64.2285 62.3447ZM67.9004 63.7168L67.9346 64.2686C68.3057 63.8356 68.8135 63.6191 69.458 63.6191C70.1644 63.6191 70.6478 63.8893 70.9082 64.4297C71.2923 63.8893 71.8327 63.6191 72.5293 63.6191C73.112 63.6191 73.5449 63.7803 73.8281 64.1025C74.1146 64.4248 74.2611 64.9001 74.2676 65.5283V69H73.0811V65.5625C73.0811 65.2272 73.0078 64.9814 72.8613 64.8252C72.7148 64.6689 72.4723 64.5908 72.1338 64.5908C71.8636 64.5908 71.6423 64.6641 71.4697 64.8105C71.3005 64.9538 71.1816 65.1426 71.1133 65.377L71.1182 69H69.9316V65.5234C69.9154 64.9017 69.598 64.5908 68.9795 64.5908C68.5042 64.5908 68.1673 64.7845 67.9688 65.1719V69H66.7822V63.7168H67.9004ZM75.2637 66.3096C75.2637 65.792 75.3662 65.3265 75.5713 64.9131C75.7764 64.4964 76.0645 64.1774 76.4355 63.9561C76.8066 63.7314 77.2331 63.6191 77.7148 63.6191C78.4277 63.6191 79.0055 63.8486 79.4482 64.3076C79.8942 64.7666 80.1351 65.3753 80.1709 66.1338L80.1758 66.4121C80.1758 66.9329 80.0749 67.3984 79.873 67.8086C79.6745 68.2188 79.388 68.5361 79.0137 68.7607C78.6426 68.9854 78.2129 69.0977 77.7246 69.0977C76.9792 69.0977 76.3818 68.8503 75.9326 68.3555C75.4867 67.8574 75.2637 67.195 75.2637 66.3682V66.3096ZM76.4502 66.4121C76.4502 66.9557 76.5625 67.3822 76.7871 67.6914C77.0117 67.9974 77.3242 68.1504 77.7246 68.1504C78.125 68.1504 78.4359 67.9941 78.6572 67.6816C78.8818 67.3691 78.9941 66.9118 78.9941 66.3096C78.9941 65.7757 78.8786 65.3525 78.6475 65.04C78.4196 64.7275 78.1087 64.5713 77.7148 64.5713C77.3275 64.5713 77.0199 64.7259 76.792 65.0352C76.5641 65.3411 76.4502 65.8001 76.4502 66.4121Z" fill="#8D8D8D"/>
</svg>
