<svg width="100" height="100" viewBox="0 0 100 100" fill="none" xmlns="http://www.w3.org/2000/svg">
<circle cx="50" cy="50" r="50" fill="#F2F5FF"/>
<path d="M43.1025 48.3975H45.7539V51.2539H43.1025V56H39.543V51.2539H30.3291L30.2266 49.0859L39.4258 34.6719H43.1025V48.3975ZM33.9619 48.3975H39.543V39.4912L39.2793 39.96L33.9619 48.3975ZM50.4854 52.25C51.1494 52.25 51.6621 52.4404 52.0234 52.8213C52.3848 53.1924 52.5654 53.6611 52.5654 54.2275C52.5654 54.7842 52.3848 55.248 52.0234 55.6191C51.6621 55.9805 51.1494 56.1611 50.4854 56.1611C49.8506 56.1611 49.3477 55.9805 48.9766 55.6191C48.6055 55.2578 48.4199 54.7939 48.4199 54.2275C48.4199 53.6611 48.6006 53.1924 48.9619 52.8213C49.3232 52.4404 49.8311 52.25 50.4854 52.25ZM50.4854 39.8135C51.1494 39.8135 51.6621 40.0039 52.0234 40.3848C52.3848 40.7559 52.5654 41.2246 52.5654 41.791C52.5654 42.3477 52.3848 42.8115 52.0234 43.1826C51.6621 43.5439 51.1494 43.7246 50.4854 43.7246C49.8506 43.7246 49.3477 43.5439 48.9766 43.1826C48.6055 42.8213 48.4199 42.3574 48.4199 41.791C48.4199 41.2246 48.6006 40.7559 48.9619 40.3848C49.3232 40.0039 49.8311 39.8135 50.4854 39.8135ZM57.0332 45.4238L58.1904 34.6719H69.6455V37.748H61.1494L60.5635 42.8457C61.5498 42.2793 62.6631 41.9961 63.9033 41.9961C65.9346 41.9961 67.5117 42.6455 68.6348 43.9443C69.7676 45.2432 70.334 46.9912 70.334 49.1885C70.334 51.3564 69.709 53.085 68.459 54.374C67.209 55.6533 65.4951 56.293 63.3174 56.293C61.3643 56.293 59.7432 55.7412 58.4541 54.6377C57.1748 53.5244 56.4814 52.0596 56.374 50.2432H59.8164C59.9531 51.2783 60.3242 52.0742 60.9297 52.6309C61.5352 53.1777 62.3262 53.4512 63.3027 53.4512C64.3965 53.4512 65.2461 53.0605 65.8516 52.2793C66.4668 51.498 66.7744 50.4336 66.7744 49.0859C66.7744 47.7871 66.4375 46.7617 65.7637 46.0098C65.0898 45.248 64.1621 44.8672 62.9805 44.8672C62.3359 44.8672 61.7891 44.9551 61.3398 45.1309C60.8906 45.2969 60.4023 45.6289 59.875 46.127L57.0332 45.4238Z" fill="#8D8D8D"/>
<path d="M34.5186 66.2607H33.1416V69H31.9062V61.8906H34.4062C35.2266 61.8906 35.8597 62.0745 36.3057 62.4424C36.7516 62.8102 36.9746 63.3424 36.9746 64.0391C36.9746 64.5143 36.859 64.9131 36.6279 65.2354C36.4001 65.5544 36.0811 65.8001 35.6709 65.9727L37.2676 68.9365V69H35.9443L34.5186 66.2607ZM33.1416 65.2695H34.4111C34.8278 65.2695 35.1533 65.1654 35.3877 64.957C35.6221 64.7454 35.7393 64.4574 35.7393 64.0928C35.7393 63.7119 35.6302 63.4173 35.4121 63.209C35.1973 63.0007 34.875 62.8932 34.4453 62.8867H33.1416V65.2695ZM40.3584 69.0977C39.6064 69.0977 38.9961 68.8617 38.5273 68.3896C38.0618 67.9144 37.8291 67.2829 37.8291 66.4951V66.3486C37.8291 65.8213 37.93 65.3509 38.1318 64.9375C38.3369 64.5208 38.6234 64.1969 38.9912 63.9658C39.359 63.7347 39.7692 63.6191 40.2217 63.6191C40.9411 63.6191 41.4961 63.8486 41.8867 64.3076C42.2806 64.7666 42.4775 65.416 42.4775 66.2559V66.7344H39.0254C39.0612 67.1706 39.2061 67.5156 39.46 67.7695C39.7171 68.0234 40.0394 68.1504 40.4268 68.1504C40.9704 68.1504 41.4131 67.9307 41.7549 67.4912L42.3945 68.1016C42.1829 68.4173 41.8997 68.6631 41.5449 68.8389C41.1934 69.0114 40.7979 69.0977 40.3584 69.0977ZM40.2168 64.5713C39.8913 64.5713 39.6276 64.6852 39.4258 64.9131C39.2272 65.141 39.1003 65.4583 39.0449 65.8652H41.3057V65.7773C41.2796 65.3802 41.1738 65.0807 40.9883 64.8789C40.8027 64.6738 40.5456 64.5713 40.2168 64.5713ZM44.665 69H43.4785V61.5H44.665V69ZM49.1182 69C49.0661 68.8991 49.0205 68.7347 48.9814 68.5068C48.6038 68.9007 48.1416 69.0977 47.5947 69.0977C47.0641 69.0977 46.6312 68.9463 46.2959 68.6436C45.9606 68.3408 45.793 67.9665 45.793 67.5205C45.793 66.9574 46.0013 66.526 46.418 66.2266C46.8379 65.9238 47.4368 65.7725 48.2148 65.7725H48.9424V65.4258C48.9424 65.1523 48.8659 64.9342 48.7129 64.7715C48.5599 64.6055 48.3271 64.5225 48.0146 64.5225C47.7445 64.5225 47.5231 64.5908 47.3506 64.7275C47.1781 64.861 47.0918 65.0319 47.0918 65.2402H45.9053C45.9053 64.9505 46.0013 64.6803 46.1934 64.4297C46.3854 64.1758 46.6458 63.9772 46.9746 63.834C47.3066 63.6908 47.6761 63.6191 48.083 63.6191C48.7015 63.6191 49.1947 63.7754 49.5625 64.0879C49.9303 64.3971 50.1191 64.8333 50.1289 65.3965V67.7793C50.1289 68.2546 50.1956 68.6338 50.3291 68.917V69H49.1182ZM47.8145 68.1455C48.0488 68.1455 48.2686 68.0885 48.4736 67.9746C48.682 67.8607 48.8382 67.7077 48.9424 67.5156V66.5195H48.3027C47.8633 66.5195 47.5329 66.596 47.3115 66.749C47.0902 66.902 46.9795 67.1185 46.9795 67.3984C46.9795 67.6263 47.0544 67.8086 47.2041 67.9453C47.3571 68.0788 47.5605 68.1455 47.8145 68.1455ZM53.542 68.1504C53.8382 68.1504 54.084 68.0641 54.2793 67.8916C54.4746 67.7191 54.5788 67.5059 54.5918 67.252H55.71C55.6969 67.5807 55.5944 67.8883 55.4023 68.1748C55.2103 68.458 54.9499 68.6826 54.6211 68.8486C54.2923 69.0146 53.9375 69.0977 53.5566 69.0977C52.8177 69.0977 52.2318 68.8584 51.7988 68.3799C51.3659 67.9014 51.1494 67.2406 51.1494 66.3975V66.2754C51.1494 65.4714 51.3643 64.8285 51.7939 64.3467C52.2236 63.8617 52.8096 63.6191 53.5518 63.6191C54.18 63.6191 54.6911 63.8031 55.085 64.1709C55.4821 64.5355 55.6904 65.0156 55.71 65.6113H54.5918C54.5788 65.3086 54.4746 65.0596 54.2793 64.8643C54.0872 64.6689 53.8415 64.5713 53.542 64.5713C53.1579 64.5713 52.8617 64.7113 52.6533 64.9912C52.445 65.2679 52.3392 65.6895 52.3359 66.2559V66.4463C52.3359 67.0192 52.4385 67.4473 52.6436 67.7305C52.8519 68.0104 53.1514 68.1504 53.542 68.1504ZM57.8682 69H56.6816V63.7168H57.8682V69ZM56.6084 62.3447C56.6084 62.1624 56.6654 62.0111 56.7793 61.8906C56.8965 61.7702 57.0625 61.71 57.2773 61.71C57.4922 61.71 57.6582 61.7702 57.7754 61.8906C57.8926 62.0111 57.9512 62.1624 57.9512 62.3447C57.9512 62.5238 57.8926 62.6735 57.7754 62.7939C57.6582 62.9111 57.4922 62.9697 57.2773 62.9697C57.0625 62.9697 56.8965 62.9111 56.7793 62.7939C56.6654 62.6735 56.6084 62.5238 56.6084 62.3447ZM58.9424 66.3096C58.9424 65.792 59.0449 65.3265 59.25 64.9131C59.4551 64.4964 59.7432 64.1774 60.1143 63.9561C60.4854 63.7314 60.9118 63.6191 61.3936 63.6191C62.1064 63.6191 62.6842 63.8486 63.127 64.3076C63.5729 64.7666 63.8138 65.3753 63.8496 66.1338L63.8545 66.4121C63.8545 66.9329 63.7536 67.3984 63.5518 67.8086C63.3532 68.2188 63.0667 68.5361 62.6924 68.7607C62.3213 68.9854 61.8916 69.0977 61.4033 69.0977C60.6579 69.0977 60.0605 68.8503 59.6113 68.3555C59.1654 67.8574 58.9424 67.195 58.9424 66.3682V66.3096ZM60.1289 66.4121C60.1289 66.9557 60.2412 67.3822 60.4658 67.6914C60.6904 67.9974 61.0029 68.1504 61.4033 68.1504C61.8037 68.1504 62.1146 67.9941 62.3359 67.6816C62.5605 67.3691 62.6729 66.9118 62.6729 66.3096C62.6729 65.7757 62.5573 65.3525 62.3262 65.04C62.0983 64.7275 61.7874 64.5713 61.3936 64.5713C61.0062 64.5713 60.6986 64.7259 60.4707 65.0352C60.2428 65.3411 60.1289 65.8001 60.1289 66.4121ZM61.7207 61.5H63.0732L61.7207 62.9795H60.7686L61.7207 61.5ZM65.959 63.7168L65.9932 64.3271C66.3838 63.8551 66.8965 63.6191 67.5312 63.6191C68.6315 63.6191 69.1914 64.249 69.2109 65.5088V69H68.0244V65.5771C68.0244 65.2419 67.9512 64.9945 67.8047 64.835C67.6615 64.6722 67.4255 64.5908 67.0967 64.5908C66.6182 64.5908 66.2617 64.8073 66.0273 65.2402V69H64.8408V63.7168H65.959Z" fill="#8D8D8D"/>
</svg>
