<?xml version="1.0" encoding="utf-8"?>
<!-- Generator: Adobe Illustrator 25.0.1, SVG Export Plug-In . SVG Version: 6.00 Build 0)  -->
<svg version="1.1" id="Capa_1" xmlns="http://www.w3.org/2000/svg" xmlns:xlink="http://www.w3.org/1999/xlink" x="0px" y="0px"
	 viewBox="0 0 490 397.6" style="enable-background:new 0 0 490 397.6;" xml:space="preserve">
<g>
	<g>
		<path d="M433.1,64.8h-79.6l-1.9-8.3C343.9,23.2,314.6,0,280.4,0h-70.9c-34.1,0-63.4,23.2-71.2,56.5l-1.9,8.3H56.9
			C25.5,64.8,0,90.3,0,121.6v216.2c0,33,26.8,59.8,59.8,59.8h370.4c33,0,59.8-26.8,59.8-59.8V121.6C490,90.3,464.5,64.8,433.1,64.8z
			 M465.4,337.8c0,19.5-15.8,35.3-35.3,35.3H59.8c-19.5,0-35.3-15.8-35.3-35.3V121.6c0-17.9,14.5-32.4,32.4-32.4h89.3l0,0
			c5.7,0,10.6-3.9,11.9-9.5l4.1-17.8c5.2-22.1,24.6-37.5,47.3-37.5h70.9c22.7,0,42.1,15.4,47.3,37.5l4.1,17.8
			c1.3,5.5,6.2,9.5,11.9,9.5H433c17.9,0,32.4,14.5,32.4,32.4V337.8z"/>
		<circle cx="82.9" cy="141.6" r="16.4"/>
		<path d="M245,129c-56.7,0-102.9,46.1-102.9,102.9S188.3,334.8,245,334.8s102.9-46.2,102.9-103C347.9,175.2,301.7,129,245,129z
			 M245,310.2c-43.2,0-78.4-35.2-78.4-78.4s35.2-78.4,78.4-78.4s78.4,35.2,78.4,78.4S288.2,310.2,245,310.2z"/>
	</g>
</g>
</svg>
