<?xml version="1.0" encoding="utf-8"?>
<!-- Generator: Adobe Illustrator 25.0.1, SVG Export Plug-In . SVG Version: 6.00 Build 0)  -->
<svg version="1.1" id="Capa_1" xmlns="http://www.w3.org/2000/svg" xmlns:xlink="http://www.w3.org/1999/xlink" x="0px" y="0px"
	 viewBox="0 0 150 150" style="enable-background:new 0 0 150 150;" xml:space="preserve">
<style type="text/css">
	.st0{fill:#FEF6EE;}
	.st1{fill:#FD7F00;}
	.st2{fill:#FE8000;}
</style>
<g>
	<path class="st0" d="M106.9,0L106.9,0c-0.2,0.2-0.2,0.2-0.4,0.2c-0.2,0-0.4,0-0.4,0c-20.6,0-41.3,0-61.9,0c-0.2,0-0.6,0-0.8-0.2
		l0,0C64.5,0,85.7,0,106.9,0z"/>
	<path class="st0" d="M0.2,43.1L0.2,43.1c0.2,0.2,0.2,0.2,0.2,0.4c0,0.2,0,0.4,0,0.4c0,18.7,0,37.4,0,56.2c0,0.2,0,0.6-0.2,0.8l0,0
		l0,0C0.2,81.8,0.2,62.5,0.2,43.1z"/>
	<path class="st0" d="M150,43.1L150,43.1c0,19.3,0,38.7,0,58l0,0l0,0c-0.2-0.2-0.2-0.2-0.2-0.4s0-0.4,0-0.4c0-18.7,0-37.4,0-56.2
		C149.8,43.8,149.6,43.4,150,43.1z"/>
	<path class="st1" d="M150,43.1C150,43.1,149.8,42.9,150,43.1c0-4.9-1.6-9-4.5-12.6c-3.3-4.1-7.5-6.5-12.8-7.1
		c-1.6-0.2-3.5-0.2-5.1-0.2c-0.4,0-0.6-0.2-0.6-0.6c0-1.6,0-3.5-0.2-5.1c-1-6.3-4.3-11.2-9.8-14.7c-3.1-1.8-6.5-2.6-10-2.8
		c-0.2,0-0.4,0-0.4,0C85.7,0,64.9,0,44,0c-0.2,0-0.4,0-0.4,0s0,0-0.2,0c-4.7,0.2-8.8,1.6-12.4,4.5c-4.1,3.3-6.5,7.5-7.1,12.8
		c-0.6,1.8-0.6,3.7-0.6,5.3c0,0.4-0.2,0.6-0.6,0.6c-1.6,0-3.5,0-5.1,0.2c-6.3,1-11.2,4.3-14.7,9.8C1,36.2,0.2,39.7,0,43.1
		c0,0.2,0,0.2,0,0.4c0,19.1,0,38.1,0,57.2c0,0.2,0,0.2,0,0.4c0,1.6,0.2,3.5,0.8,5.1c2.4,7.9,7.7,12.8,15.9,14.7
		c2,0.4,4.1,0.4,6.1,0.4c0.4,0,0.4,0.2,0.4,0.4c0,4.5,0,9.2,0,13.6c0,0.8,0,1.4,0.2,2.2c1,7.1,7.1,12.4,14.2,12.4
		c24.8,0,49.9,0,74.7,0c1,0,2,0,3.1-0.4c6.9-1.6,11.6-7.3,11.6-14.5c0-4.5,0-9.2,0-13.6c0-0.4,0-0.4,0.4-0.4c1.6,0,3.5,0,5.1-0.2
		c5.9-0.8,10.4-3.7,13.8-8.3c2.4-3.5,3.7-7.1,3.7-11.4c0-0.2,0-0.2,0-0.4c0-19.1,0-38.1,0-57.2C149.8,43.4,150,43.4,150,43.1z
		 M35,18.5c0.6-3.7,3.9-6.7,7.7-6.9c0.4,0,0.8,0,1.4,0c20.8,0,41.7,0,62.5,0c4.1,0,7.5,2.4,8.5,6.3c0.2,1,0.4,2,0.4,3.1
		c0,0.6,0,1.2,0,1.8c0,0.2,0,0.4-0.4,0.4H115c-13.2,0-26.5,0-39.7,0s-26.5,0-39.7,0c-0.4,0-0.6-0.2-0.6-0.6
		C34.8,21.2,34.6,19.9,35,18.5z M115.4,78.2c0,18.9,0,37.9,0,57c0,1.6-0.8,2.6-2.2,3.1c-0.4,0-0.6,0.2-1,0.2c-24.6,0-49.5,0-74.1,0
		c-2,0-3.3-1.2-3.3-3.3c0-18.9,0-37.9,0-56.8c0-2,1.2-3.1,3.1-3.3c0.2,0,0.4,0,0.6,0c12.2,0,24.4,0,36.8,0c12.2,0,24.6,0,36.8,0
		c0.8,0,1.6,0,2.4,0.6c0.6,0.6,1,1.4,1,2.2C115.4,78,115.4,78,115.4,78.2z M138.4,100.7c0,4.3-2.8,7.7-6.9,8.8
		c-1.4,0.2-2.8,0.2-4.3,0.2c-0.2,0-0.2,0-0.2-0.2c0-0.2,0-0.2,0-0.4c0-10.2,0-20.6,0-30.7c0-6.7-4.3-12.4-10.8-14
		c-1.2-0.4-2.4-0.4-3.7-0.4c-24.8,0-49.9,0-74.7,0c-6.9,0-13,5.3-14,12.2c-0.6,0.4-0.6,1.2-0.6,2c0,10.2,0,20.6,0,30.7
		c0,0.4-0.2,0.6-0.6,0.6c-1.4,0-2.8,0-4.1-0.2c-3.7-0.8-6.5-4.1-6.7-7.7c0-0.4,0-0.8,0-1.4c0-18.9,0-37.9,0-56.8
		c0-4.1,2.4-7.5,6.3-8.5c0.8-0.2,1.6-0.4,2.6-0.4c9.6,0,19.1,0,28.9,0c8.5,0,17.1,0,25.6,0c18.1,0,36.4,0,54.5,0
		c4.1,0,7.5,2.6,8.5,6.5c0.2,0.8,0.2,1.6,0.2,2.4C138.4,62.5,138.4,81.6,138.4,100.7z"/>
	<path class="st2" d="M123.9,57.6c-4.7,0-8.5-3.9-8.5-8.5s3.9-8.5,8.5-8.8c4.7,0,8.5,3.9,8.5,8.5C132.7,53.7,128.8,57.6,123.9,57.6z
		"/>
</g>
</svg>
