<?xml version="1.0" encoding="utf-8"?>
<!-- Generator: Adobe Illustrator 25.0.1, SVG Export Plug-In . SVG Version: 6.00 Build 0)  -->
<svg version="1.1" id="Capa_1" xmlns="http://www.w3.org/2000/svg" xmlns:xlink="http://www.w3.org/1999/xlink" x="0px" y="0px"
	 viewBox="0 0 107.1 150" style="enable-background:new 0 0 107.1 150;" xml:space="preserve">
<style type="text/css">
	.st0{fill:#373737;}
	.st1{fill:#393939;}
</style>
<g>
	<path class="st0" d="M53.7,0C17.6-0.2-6,34,1.3,62.5c7.9,31.2,25.2,56.9,43.4,82.4c4.9,6.6,12.2,7.1,17.1,0.2
		c18.4-25.2,35.5-50.9,43.9-82.2C113.2,34,89.5,0,53.7,0z M85,89.2c-7.9,15-16.7,29.7-27,43.4c-1.7,2.1-3.2,8.1-7.5,2.4
		c-16.9-24.2-34.4-48.3-39.4-78.3C7.5,33.8,25.7,12.8,49.9,10.9C74.7,9,96.5,27.8,96.3,52.2C95.5,64.2,91.2,77,85,89.2z"/>
	<path class="st1" d="M54.6,32.1c-12-0.6-22.2,8.8-22.5,20.8C31.9,64.4,40.9,74,52.5,74.7c12,0.6,22.2-8.8,22.5-20.8
		C75.1,42.6,66.1,32.7,54.6,32.1z M53.1,64c-6.2-0.2-9.8-4.1-10.1-10.3c-0.2-6.6,4.1-9.8,9.6-11.1c7.3,0.9,11.6,4.3,11.3,11.1
		C63.8,60.3,59.7,64.2,53.1,64z"/>
</g>
</svg>
