<svg width="18" height="18" viewBox="0 0 18 18" fill="none" xmlns="http://www.w3.org/2000/svg">
<path d="M12.0908 1.44638L3.92255 5.6284L0.675781 4.0309L8.70007 0.0686253C8.88007 -0.0228751 9.09607 -0.0228751 9.28507 0.0686253L12.0908 1.44638Z" fill="#fff"/>
<path d="M17.3155 4.03134L9.00392 8.14886L5.89141 6.6151L5.44141 6.38635L13.6187 2.20508L14.0687 2.43308L17.3155 4.03134Z" fill="#fff"/>
<path d="M8.33854 9.33481L8.32954 17.9996L0.369002 13.8453C0.144001 13.7268 0 13.4891 0 13.2333V5.21729L3.37352 6.87929V9.80131C3.37352 10.1756 3.67952 10.4861 4.04852 10.4861C4.41752 10.4861 4.72352 10.1756 4.72352 9.80131V7.55505L5.17353 7.77405L8.33854 9.33481Z" fill="#fff"/>
<path d="M17.9912 5.22656L9.68869 9.32608L9.67969 17.9909L18.0002 13.6461L17.9912 5.22656Z" fill="#fff"/>
</svg>
