<svg width="40" height="40" viewBox="0 0 40 40" fill="none" xmlns="http://www.w3.org/2000/svg">
<circle cx="20" cy="20" r="20" fill="#C4C4C4"/>
<g clip-path="url(#clip0_13434_4512)">
<path d="M22.2075 28.9869C22.3402 29.4819 22.4658 29.9506 22.6002 30.4524C21.3754 30.7832 20.1419 30.8811 18.8926 30.7465C16.6835 30.5079 14.7398 29.6617 13.0989 28.1747C9.73954 25.1318 8.79692 20.2912 10.7597 16.2521C12.7391 12.1781 17.1107 9.88359 21.597 10.5732C25.983 11.2476 29.5998 14.7237 30.1592 19.3974C30.6796 18.5184 31.2281 17.593 31.7639 16.6894C32.2493 16.9628 32.6839 17.2075 33.0973 17.4402C32.0626 19.2262 31.0115 21.0403 29.9732 22.8326C28.1685 21.7995 26.3474 20.7569 24.5425 19.7232C24.7737 19.3224 25.0232 18.8891 25.2828 18.4385C26.3916 19.0741 27.512 19.7158 28.6394 20.3616C28.7016 18.1289 27.4196 14.8135 24.1907 13.0474C20.9042 11.2499 16.7854 11.7682 14.0452 14.3276C11.2894 16.9011 10.4882 20.983 12.0912 24.3099C12.9943 26.1844 14.3834 27.586 16.2816 28.4655C18.1777 29.3443 20.1531 29.4938 22.2075 28.9869Z" fill="white"/>
</g>
<defs>
<clipPath id="clip0_13434_4512">
<rect width="20.3401" height="23.7301" fill="white" transform="translate(30.3809 7.30994) rotate(75)"/>
</clipPath>
</defs>
</svg>
