<?xml version="1.0" encoding="utf-8"?>
<!-- Generator: Adobe Illustrator 25.0.1, SVG Export Plug-In . SVG Version: 6.00 Build 0)  -->
<svg version="1.1" id="Capa_1" xmlns="http://www.w3.org/2000/svg" xmlns:xlink="http://www.w3.org/1999/xlink" x="0px" y="0px"
	 viewBox="0 0 119 150" style="enable-background:new 0 0 119 150;" xml:space="preserve">
<style type="text/css">
	.st0{fill:#FFFFFF;}
</style>
<g>
	<path class="st0" d="M59.4,149.9c-12.3,0-24.3,0.2-36.6,0C7.1,149.7,0.2,143,0.2,127.7c-0.2-21.1-0.2-42.2,0-63.5
		C0.4,46.7,17.6,36,33.8,42.6c2.2,0.9,3.9,2.2,4.1,4.5c0.2,3-2.2,4.3-4.5,5.4c-0.6,0.2-1.5,0.2-2.2,0.2c-20,3.4-20,3.4-20,23.7
		c0,16.6,0.2,33,0,49.5c-0.2,9,3.2,13.1,12.5,13.1c24.1-0.2,48-0.2,72.2,0c9.3,0,12.7-4.1,12.5-13.1c-0.4-20-0.4-40.1,0-60.3
		c0.2-9.3-3.7-13.4-12.7-12.9c-1.7,0-3.7,0-5.4,0c-4.1,0-8.6-0.4-8.6-5.6c0.2-4.5,4.3-4.7,8.2-5.2c21.3-1.7,29.3,5.4,29.3,26.3
		c0,18.3,0,36.6,0,54.9c0,20.9-5.6,26.5-26.9,26.5C80.9,149.9,70.2,149.9,59.4,149.9z"/>
	<path class="st0" d="M68,92c4.3-4.7,8.4-9.7,12.9-14.2c2.6-2.8,5.8-4.5,9.3-1.1c3,3.2,0.9,6-1.5,8.4c-7.8,8-15.7,15.7-23.5,23.7
		c-4.3,4.3-8,3.7-12.1-0.4c-7.5-7.8-15.3-15.3-22.8-22.8c-2.6-2.6-5.4-5.6-1.3-9c3.7-3.4,6.7-0.9,9.3,1.7c4.5,4.5,8.6,9.3,12.9,14
		c0.9-0.4,1.7-0.9,2.6-1.1c0-11.2,0-22.4,0-33.8c0-14.6-0.2-29.5,0-44.2c0-5-2.6-12.7,5.2-13.1c8-0.2,5.6,7.8,5.6,12.5
		c0.2,22.6,0,45.2,0,67.8c0,3.4,0,6.9,0,10.3C65.9,91.1,66.9,91.5,68,92z"/>
</g>
</svg>
