<?xml version="1.0" encoding="UTF-8"?>
<svg id="Capa_1" data-name="Capa 1" xmlns="http://www.w3.org/2000/svg" viewBox="0 0 300 300">
  <path d="m287.95,226.17c-1.81-.03-3.64,0-5.89,0l.02-.03v-3.63c0-20.33-.1-40.64.07-60.97.03-5.76-1.84-10.6-5.59-14.9-11.98-13.69-23.95-27.42-36-41.06-3.39-3.85-7.73-6.63-13.09-6.82-9.88-.35-19.76-.34-29.64-.49-1.19-.01-2.38,0-3.82,0v-13.04c-.05-16.85-12.46-29.45-29.89-29.52h-32.46c-3.9,0-7.06,3.14-7.06,7.02s3.16,7.02,7.06,7.02h33.61c6.08,0,10.5,2.88,12.98,8.25.73,1.58,1.21,3.39,1.21,5.11.07,46.95.03,93.92.03,140.89,0,.58-.07,1.15-.13,2.15h-7.58c-16.62,0-33.23-.06-49.85.06-2.58.03-3.85-.63-5.02-2.98-8.14-16.33-21.77-25.35-40.45-25.28-18.56.07-32.06,9.11-40.11,25.35-1.19,2.36-2.49,3.07-5.07,2.86-7.68-.59-13.45-6.38-13.45-13.87V83.55c0-7.48,5.77-13.35,13.5-13.79.21-.01.39-.03.6-.03h34.19c3.88,0,7.04-3.14,7.04-7.02s-3.16-7.02-7.04-7.02c-11.27,0-32.14,0-32.87,0-16.88.07-29.81,12.45-29.86,28.32-.15,42.63-.18,85.25.05,127.87.05,10.95,5.33,19.6,15.57,24.69,3.98,1.99,8.53,2.86,12.98,4.29,1.08,26.21,22.21,41.95,44.35,41.9,21.59-.03,42.92-15.39,44.07-42.39h58.83c1.42,26.79,21.9,42.28,44.09,42.38,21.56.09,42.92-14.92,44.4-42.55h9.69c3.57,0,7.13.05,10.71,0,5.45-.07,8.69-2.74,8.64-7.09-.05-4.35-3.24-6.88-8.79-6.94h-.02Zm-211.39,42.61c-16.01-.07-29.42-13.08-29.37-28.55.03-15.46,13.55-28.48,29.51-28.41,16.01.07,29.4,13.08,29.37,28.55-.05,15.46-13.55,28.48-29.51,28.41Zm117.66-156.24c.67-.06,1.45-.21,2.22-.21,8.77-.03,17.53,0,26.3-.03,2.67,0,4.97.69,6.8,2.72,11.45,12.84,22.93,25.66,34.41,38.49.29.34.54.73,1.03,1.4h-70.75v-42.38Zm29.28,156.23c-15.95.07-29.48-12.94-29.51-28.39-.03-15.47,13.32-28.49,29.35-28.56,15.96-.07,29.5,12.94,29.53,28.39.03,15.47-13.32,28.49-29.37,28.56h0Zm43.85-42.98l-.64.65c-.8-.74-1.78-1.39-2.4-2.25-3.31-4.58-5.94-9.79-9.88-13.74-15.54-15.46-40.88-16.82-58.52-3.61-.46.36-.91.69-1.79,1.33h0v-38.85h73.23v56.47h0Z"/>
  <path d="m103.84,138.18l37.19-38.93c2.84-2.96,2.71-7.67,0-10.5-2.85-2.96-7.37-2.83-10.08,0l-24.92,26.13V24.63c0-4.18-3.23-7.41-7.11-7.41s-7.09,3.37-7.09,7.41v90.1l-24.92-26.13c-2.85-2.96-7.37-2.96-10.08,0-2.84,2.96-2.84,7.67,0,10.5l37.18,38.92c2.46,2.96,6.98,2.96,9.82.14h0Z"/>
</svg>