<?xml version="1.0" encoding="utf-8"?>
<!-- Generator: Adobe Illustrator 25.0.1, SVG Export Plug-In . SVG Version: 6.00 Build 0)  -->
<svg version="1.1" id="Capa_1" xmlns="http://www.w3.org/2000/svg" xmlns:xlink="http://www.w3.org/1999/xlink" x="0px" y="0px"
	 viewBox="0 0 150 108.4" style="enable-background:new 0 0 150 108.4;" xml:space="preserve">
<style type="text/css">
	.st0{fill:#FFFFFF;}
</style>
<g>
	<path class="st0" d="M100.1,17c-2.1-2.8-3-3.9-3.9-5.1c-3-3.2-6-6.7-1.6-10.6c3.9-3.2,7.1-0.2,9.9,2.5
		c21.6,22.1,21.4,15.4,0.7,36.8c-3,3-6.4,6.7-10.6,3c-4.4-3.9-1.2-7.6,2.1-10.6c1.2-1.2,2.3-2.1,1.6-4.4c-21.4,0-43.2-0.5-64.9,0.2
		c-12.4,0.2-20,9-21.4,22.5c-0.5,4.8,0.9,11.3-6.7,10.6c-6.2-0.7-5.1-6.9-4.8-11.3c0.7-19.3,14.7-33.1,35-33.6
		C55.9,16.6,77,17,100.1,17z"/>
	<path class="st0" d="M51.1,91.3c0.5,6,10.8,9.7,4.1,15.2c-6.9,5.5-10.6-2.8-14.5-6.7C24.8,84,23.9,88.3,44.2,68.1
		c3.2-3.2,6.9-7.6,11.5-3c3.9,4.1,0.2,7.6-2.8,10.6c-0.7,0.7-1.2,1.8-2.3,3.9c23.2,0,45.5,0.5,67.9-0.2c11.5-0.5,18.4-9.7,19.6-23
		c0.5-4.6-0.5-10.4,6.2-10.1c6.4,0.5,5.5,6.2,5.5,10.8c-0.2,19.8-14.7,33.8-35.4,34.3C93.2,91.6,72.2,91.3,51.1,91.3z"/>
</g>
</svg>
