<svg width="20" height="18" viewBox="0 0 20 18" fill="none" xmlns="http://www.w3.org/2000/svg">
<path d="M17.1132 9.28003H15.5664C15.7241 9.7117 15.8102 10.1776 15.8102 10.6631V16.5092C15.8102 16.7117 15.775 16.906 15.7109 17.0867H18.2681C19.2234 17.0867 20.0005 16.3095 20.0005 15.3543V12.1673C20.0006 10.5753 18.7053 9.28003 17.1132 9.28003Z" fill="#ffffff"/>
<path d="M4.19035 10.6631C4.19035 10.1775 4.27649 9.7117 4.43416 9.28003H2.88732C1.29525 9.28003 0 10.5753 0 12.1674V15.3543C0 16.3096 0.777128 17.0867 1.73239 17.0867H4.28969C4.22559 16.9059 4.19035 16.7117 4.19035 16.5092V10.6631Z" fill="#ffffff"/>
<path d="M11.7713 7.77539H8.23498C6.64291 7.77539 5.34766 9.07064 5.34766 10.6627V16.5089C5.34766 16.8277 5.60619 17.0863 5.92512 17.0863H14.0811C14.4 17.0863 14.6586 16.8278 14.6586 16.5089V10.6627C14.6586 9.07064 13.3633 7.77539 11.7713 7.77539Z" fill="#ffffff"/>
<path d="M9.99971 0.120117C8.08504 0.120117 6.52734 1.67781 6.52734 3.59252C6.52734 4.89125 7.24416 6.02552 8.30275 6.62103C8.80486 6.90347 9.38373 7.06489 9.99971 7.06489C10.6157 7.06489 11.1946 6.90347 11.6967 6.62103C12.7553 6.02552 13.4721 4.89121 13.4721 3.59252C13.4721 1.67785 11.9144 0.120117 9.99971 0.120117Z" fill="#ffffff"/>
<path d="M3.89765 3.35693C2.46571 3.35693 1.30078 4.52186 1.30078 5.95381C1.30078 7.38575 2.46571 8.55068 3.89765 8.55068C4.26088 8.55068 4.60677 8.47544 4.92097 8.34019C5.46422 8.10631 5.91214 7.69229 6.18931 7.1737C6.38385 6.80973 6.49453 6.3945 6.49453 5.95381C6.49453 4.5219 5.3296 3.35693 3.89765 3.35693Z" fill="#ffffff"/>
<path d="M16.0969 3.35669C14.6649 3.35669 13.5 4.52162 13.5 5.95356C13.5 6.3943 13.6107 6.80952 13.8052 7.17346C14.0824 7.69209 14.5303 8.1061 15.0736 8.33995C15.3878 8.47519 15.7336 8.55044 16.0969 8.55044C17.5288 8.55044 18.6937 7.3855 18.6937 5.95356C18.6937 4.52162 17.5288 3.35669 16.0969 3.35669Z" fill="#ffffff"/>
</svg>
