<?xml version="1.0" encoding="utf-8"?>
<!-- Generator: Adobe Illustrator 25.0.1, SVG Export Plug-In . SVG Version: 6.00 Build 0)  -->
<svg version="1.1" id="Capa_1" xmlns="http://www.w3.org/2000/svg" xmlns:xlink="http://www.w3.org/1999/xlink" x="0px" y="0px"
	 viewBox="0 0 150 150" style="enable-background:new 0 0 150 150;" xml:space="preserve">
<style type="text/css">
	.st0{fill:#373737;}
	.st1{fill:#3E3E3E;}
</style>
<g>
	<path class="st0" d="M77.3,0.6C36.3-0.8,1.2,32-0.1,72.8c-1.2,41.7,31.3,75.8,73.5,77.2c41,1.2,75.8-31.8,76.8-72.8
		C151.1,35.6,119.3,2.2,77.3,0.6z M75.5,138.4c-34.8,0.5-63.4-27.4-64.1-62c-0.7-35,27.7-63.9,62.9-64.3c34.8-0.5,63.4,27.4,64.1,62
		C139.1,109.2,111,138,75.5,138.4z"/>
	<path class="st1" d="M69.2,54.5c0-7.6,0-15.2,0-23.1c0-3.9,0.9-7.8,6.2-7.6c4.6,0.2,5.3,3.9,5.3,7.6c0.2,11.8,0.5,23.7,0,35.5
		c-0.2,6.7,2.1,8.8,8.5,8.3c6.5-0.5,12.9-0.2,19.6,0c3.5,0,6,2.1,6.2,5.5c0,3.5-2.5,5.5-6,5.8c-11.1,0.2-22.1,0.2-33.2,0
		c-5.5-0.2-6.5-4.6-6.5-9C69,70,69.2,62.1,69.2,54.5L69.2,54.5z"/>
</g>
<text transform="matrix(1 0 0 1 11.1064 420.945)" style="font-family:'MyriadPro-Regular'; font-size:12px;">maria@booleanwork.com</text>
</svg>
