<?xml version="1.0" encoding="utf-8"?>
<!-- Generator: Adobe Illustrator 25.0.1, SVG Export Plug-In . SVG Version: 6.00 Build 0)  -->
<svg version="1.1" id="Capa_1" xmlns="http://www.w3.org/2000/svg" xmlns:xlink="http://www.w3.org/1999/xlink" x="0px" y="0px"
	 viewBox="0 0 203.1 150" style="enable-background:new 0 0 203.1 150;" xml:space="preserve">
<style type="text/css">
	.st0{fill:#181818;}
	.st1{fill:#171717;}
	.st2{fill:#4A4A4A;}
	.st3{fill:#3D3D3D;}
</style>
<g>
	<path class="st0" d="M49.7,149.8c0.9-0.7,1.8-0.7,2.7,0C51.5,149.8,50.6,149.8,49.7,149.8z"/>
	<path class="st1" d="M55.6,149.5c0,0.2,0,0.2,0,0.5c-0.9,0-1.8,0-2.7,0C53.6,149.1,54.7,149.5,55.6,149.5z"/>
	<path class="st0" d="M155,149.8c0.9-0.7,1.8-0.7,2.7,0C156.8,149.8,155.9,149.8,155,149.8z"/>
	<path class="st2" d="M159.1,149.8c0.7-0.7,1.6-0.5,2.3-0.5c0,0.2,0,0.2,0,0.5C160.7,149.8,159.8,149.8,159.1,149.8z"/>
	<path class="st3" d="M182.1,128.8c-0.2-0.7-0.2-1.4,0.2-2.1c0.2,0.7,0.2,1.4,0.2,2.1H182.1L182.1,128.8z"/>
	<path d="M200.6,68.2c-1.4-3.4-3.4-6.4-5.7-9.1c-5.9-7.8-11.4-16-17.8-23.3c-3.4-3.9-7.5-7.3-13-7.3c-12.8-0.2-25.5,0-38.3,0
		c0-5.2,0-10.9,0-16.6C125.8,5,121,0,114.2,0C80,0,46,0,11.9,0C6.2,0,2.3,3,0.5,8.4C0.2,8.7,0.2,8.9,0,9.1C0,46,0,83,0,119.9
		c0.5,2.3,1.1,4.1,2.7,5.9c2.7,3.2,6.2,4.6,10.3,4.6c4.3,0,8.7,0,13,0c1.4,0,2.3,0.5,2.7,2.1c3.2,9.8,9.6,16,20.1,17.6
		c0.2,0,0.7,0,0.9,0c0.9-0.5,1.8-0.5,2.7,0c0.2,0,0.2,0,0.5,0c0.9-0.5,1.8,0,2.7-0.2c2.3,0,4.3,0,6.4-0.9
		c7.1-3.2,12.1-8.2,14.4-15.7c0.7-2.1,1.6-2.7,3.6-2.7c10.7,0,21.4,0,32.1,0c3,0,5.9-0.5,8.4-2.1c0.9-0.5,1.8-0.7,2.7,0
		c2.7,1.6,5.5,2.3,8.4,2.1c1.4-0.2,2.1,0.5,2.5,1.8c3.2,9.8,9.6,16,20.1,17.6c0.2,0,0.7,0,0.9,0c0.9-0.5,1.8-0.5,2.7,0
		c0.5,0,0.9,0,1.4,0c0.7-0.7,1.6,0,2.3-0.5c10-0.9,18.9-9.8,20.5-20.5c0.2-0.7,0-1.4,0.2-1.6c0.2,0.7,0,1.4,0.2,2.1
		c0,0.9,0.9,0.7,1.4,0.7c2.1,0,3.9,0,5.9,0c8.2,0,13.2-5.2,13.2-13.2c0-12.3,0-24.8,0-37.2C203.1,75.5,202.2,71.8,200.6,68.2z
		 M52.4,141.8c-8.9,0-16.2-7.3-16.2-16.2c0-9.1,7.3-16.2,16.2-16.2s16.2,7.1,16.2,16.2C68.6,134.5,61.3,141.8,52.4,141.8z
		 M117.4,116.7c0,3.9-1.1,4.8-4.8,4.8c-11.4,0-22.8,0-34.4,0c-1.4,0-1.8-0.5-2.3-1.6c-2.7-11.2-12.3-18.7-23.7-18.7
		c-11.2,0-20.7,7.5-23.5,18.7c-0.2,1.1-0.7,1.6-2.1,1.6c-4.6,0-9.3,0-13.9,0c-3,0-5-2.3-5-5c0-34.9,0-69.5,0-104.4
		c0-3,1.1-4.1,4.1-4.1c33.7,0,67.5,0,101.2,0c3,0,4.1,1.4,4.1,4.6c0.2,17.3,0.2,34.9,0.2,52.4C117.4,82.3,117.4,99.6,117.4,116.7z
		 M177.8,52.4c0.7,0,1.6-0.2,2.1,0.5c3.6,5.5,8.4,10,11.2,16.2c0.9,2.1,1.6,3.9,2.3,6.2c0.5,1.1,0,1.6-1.4,1.6c-5.9,0-12.3,0-18.7,0
		c-6.2,0-12.1,0-18.2,0c-3.4,0-5.2-1.8-5.2-5.2c0-4.6,0-9.3,0-13.9c0-3.4,1.8-5.2,5-5.2C162.5,52.4,170.3,52.4,177.8,52.4z
		 M158,141.8c-8.9,0-16.2-7.3-16.2-16.4s7.3-16.2,16.4-16.2s16.2,7.3,16.2,16.2C174.2,134.5,166.9,141.8,158,141.8z M194.5,115.6
		c0,3.9-2.1,5.7-5.7,5.7c-2.1,0-4.3,0.7-6.2,0c-1.8-0.7-1.4-3.4-2.1-5.2c-4.3-9.8-13.9-15.7-25.1-14.8c-9.8,0.7-18.7,8.4-21,18.5
		c-0.2,1.4-0.7,2.1-2.3,1.8c-0.7,0-1.1,0-1.8,0c-3,0-5-1.8-5-5c0-25.1,0-50.2,0-75.5c0-2.7,2.1-5,5-5c10.5,0,20.7,0,31.2,0
		c1.1,0,2.3,0.2,3.2,0.7c3.6,1.8,6.2,4.3,8.9,7.8c-6.6,0-12.8,0-18.9,0c-7.8,0-13,5-13,12.8c0,5,0,9.8,0,14.8
		c0,7.5,5.5,12.8,12.8,12.8c12.5,0,25.1,0,37.4,0c1.8,0,2.5,0.2,2.5,2.3C194.2,96.7,194.5,106,194.5,115.6z"/>
</g>
</svg>
