<?xml version="1.0" encoding="utf-8"?>
<!-- Generator: Adobe Illustrator 25.0.1, SVG Export Plug-In . SVG Version: 6.00 Build 0)  -->
<svg version="1.1" id="Capa_1" xmlns="http://www.w3.org/2000/svg" xmlns:xlink="http://www.w3.org/1999/xlink" x="0px" y="0px"
	 viewBox="0 0 150 150" style="enable-background:new 0 0 150 150;" xml:space="preserve">
<style type="text/css">
	.st0{fill:#373737;}
</style>
<path class="st0" d="M146.2,137.9c-9.3-9.3-18.3-18.7-28-27.5c-6-5.3-6.2-9-2.1-16.2C140.9,52.5,110.8,0,62.4,0
	c-15,0-30.1,5.8-41.2,15.3C-3.1,36.8-7.2,73.1,11.8,99.1c19,26.2,54.6,33.8,82.4,16.9c7.2-4.2,10.9-3.9,16.2,2.1
	c8.6,9.7,18.3,18.7,27.5,28c3.2,3.2,7.2,6,10.9,1.9C151.8,144.4,149.2,141,146.2,137.9z M62.7,113.6C34.4,113.9,11.3,90.3,11.5,62
	c0.2-28,22.9-50.5,50.9-50.5c28.2,0,51.6,23.4,51.2,51.4C113.1,90.7,90.2,113.4,62.7,113.6z"/>
</svg>
