<?xml version="1.0" encoding="utf-8"?>
<!-- Generator: Adobe Illustrator 25.0.1, SVG Export Plug-In . SVG Version: 6.00 Build 0)  -->
<svg version="1.1" id="Capa_1" xmlns="http://www.w3.org/2000/svg" xmlns:xlink="http://www.w3.org/1999/xlink" x="0px" y="0px"
	 viewBox="0 0 185.9 150" style="enable-background:new 0 0 185.9 150;" xml:space="preserve">
<style type="text/css">
	.st0{fill:#373737;}
	.st1{fill:#3C3C3C;}
</style>
<path class="st0" d="M133.9,121.6c-6,0-10.7,0-15.3,0c-4,0-7.2-1.6-7.2-5.8s3.5-5.8,7.2-5.8c6.3,0,12.3,0.2,18.6,0
	c5.8-0.2,11.6-0.5,17.2-1.6c11.9-2.3,19.5-10.5,20.2-20.7c0.7-10.7-5.8-21.4-17.9-23.9c-11.9-2.3-16.7-7.2-19.8-19.3
	c-4.9-20-20.5-31.1-40.4-32.5c-20.5-1.4-35.3,7-43.2,26c-3.5,8.1-10.7,6.7-16.5,8.6c-16,5.3-25.6,17.2-25.1,32.1
	c0.5,14.6,11.9,26.3,27.7,29.8c7.7,1.6,15.3,1.6,23,1.6c2.8,0,5.3,0,8.1,0.5c2.6,0.5,4.2,2.1,4.4,4.6c0.5,3.3-1.4,4.9-4.2,6
	c-14.6,5.8-47.2-2.1-58.6-14.6C-10.4,81.6-0.2,45.4,32.3,35.6c5.3-1.6,9.5-3,12.8-8.4c13-21.6,32.5-30,57.2-26.5
	c24.2,3.5,38.4,18.8,46,40.7c2.1,6,4.6,9.3,11.2,10.9c17.4,4.9,27.9,20.5,26.3,37.4c-1.4,14.9-13.9,27-30.7,30.2
	C148.1,121.4,140.4,121.9,133.9,121.6z"/>
<path class="st1" d="M99.3,69.3c0,21.8,0,43.9,0,65.8c0,3,0,6.3-0.2,9.3c-0.2,3.5-1.9,5.8-5.8,5.6c-4-0.2-5.3-2.8-5.6-6
	c-0.2-8.8-0.2-17.7-0.2-26.7c0-16,0-32.1,0-48.8c-6,1.9-8.4,6.3-11.6,9.1c-3,2.6-6.3,4-9.3,1.4c-3.7-3.3-1.6-7,1.2-10
	c6.5-6.5,13-13,19.8-19.8c4.2-4.2,8.1-3.7,12.1,0.2c6.5,6.5,13,13.2,19.5,19.8c2.8,2.8,4.4,6,1.4,9.1c-3.3,3.5-7.2,1.9-10-1.4
	c-2.8-3.3-5.1-6.7-7.4-10C102,67.9,100.7,68.6,99.3,69.3z"/>
</svg>
