<?xml version="1.0" encoding="utf-8"?>
<!-- Generator: Adobe Illustrator 25.0.1, SVG Export Plug-In . SVG Version: 6.00 Build 0)  -->
<svg version="1.1" id="Capa_1" xmlns="http://www.w3.org/2000/svg" xmlns:xlink="http://www.w3.org/1999/xlink" x="0px" y="0px"
	 viewBox="0 0 183.6 150" style="enable-background:new 0 0 183.6 150;" xml:space="preserve">
<style type="text/css">
	.st0{fill:#F2930A;}
</style>
<path class="st0" d="M174.6,45.8c-3.5-2.2-2.2-6-2.5-9.2c-1.5-16.5-8.7-23.7-25.5-24c-17.2-0.2-34.2,0-51.2,0
	c-4.7,0-9.7,0.2-13.2-2.7C70.5-0.7,56.5-0.2,42.3,0.1C15,0.3,9.6,5.8,9.3,33c0,5,1.7,10.7-4.2,14.5c-7,4.5-8.2,11.7-7.5,19.7
	c2,19,3.7,37.9,5.5,56.9c1.5,19,8.5,25.7,27.7,25.7c20,0,39.9,0,59.9,0c20.7,0,41.4,0.2,62.7,0c15-0.2,23.5-7.5,25-20.7
	c1.7-18.5,3.2-37.2,5.2-55.7C184.6,62.8,185.6,52.5,174.6,45.8z M31.3,13.3c14.7-1.5,30.7-4.7,43.9,7c4.7,4.2,11.2,5,17.5,5
	c16.5-0.2,33.2,0,49.7,0c3,0,5.7,0,8.7,0.5c6.5,1.5,8,6.2,8,12.2c0,7.5-5.5,6-9.7,6c-19.5,0-39.4-0.2-59.4-0.2
	c-18.7,0-37.4,0.2-55.9,0c-5,0-13,2.7-12-7.2C23,27.8,17,14.6,31.3,13.3z M171.3,69.5c-2.5,18.5-4,37.2-5.5,55.7
	c-0.5,8.5-5,12-12.7,12c-41.4,0-83.1,0-124.6,0c-7.7,0-12.2-3.5-12.7-12c-1.2-18.7-3-37.2-5.5-55.7c-1.5-10.2,2.5-13.5,12-13.2
	c22.7,0.2,45.4,0,68.4,0s45.7,0,68.7,0C168.6,56.3,172.6,59.3,171.3,69.5z"/>
</svg>
