<?xml version="1.0" encoding="utf-8"?>
<!-- Generator: Adobe Illustrator 25.0.1, SVG Export Plug-In . SVG Version: 6.00 Build 0)  -->
<svg version="1.1" id="Capa_1" xmlns="http://www.w3.org/2000/svg" xmlns:xlink="http://www.w3.org/1999/xlink" x="0px" y="0px"
	 viewBox="0 0 150 150" style="enable-background:new 0 0 150 150;" xml:space="preserve">
<style type="text/css">
	.st0{fill:#373737;}
	.st1{fill:#3A3A3A;}
	.st2{fill:#383838;}
</style>
<g>
	<path class="st0" d="M123.4,7.3c-0.9-0.6-1.5-1.5-2.4-2.1c-3.6-3.4-7.7-5.1-12.6-5.1c-28.9,0-57.8-0.2-86.7,0.2
		C7.9,0.5,0.4,8.8,0.2,22.7c-0.2,17.5,0,34.9,0,52.4c0,16.7,0,33.4,0,50.3c0,15.8,7.5,24.2,22.9,24.4c34.7,0.2,69.1,0.2,103.8,0
		c15.6-0.2,23.1-8.6,23.1-24.4c0-18.6,0-37,0-55.6C149.9,32.8,149.9,32.8,123.4,7.3z M139.5,68.3c-2.1,18.6-0.4,37.7-0.4,56.5
		c0,11.6-3,14.3-14.6,14.6c-16.5,0-33.4-0.2-50.1-0.2c-16.5,0-32.7,0.2-49.2,0c-11.6-0.2-14.3-3-14.6-14.6c0-33.2,0.2-66.1-0.2-99.3
		c0-10.1,4.1-14.6,13.9-14.3c26.7,0,53.5,0.2,80,0c5.1,0,8.3,2.4,12.2,5.3C134.1,29.6,142,45.6,139.5,68.3z"/>
	<path class="st1" d="M102,30.2c-0.2-9.8-4.7-14.3-14.3-14.3c-14.8,0-29.3,0-43.9,0c-28.2,0-29.3,1.3-27.8,29.7
		c0.4,9,4.7,13.3,13.3,13.3c9.6,0,19.3,0,28.9,0c5.3,0,10.7,0,16,0C102.2,58.9,102.9,58,102,30.2z M84.7,48.4
		c-17.3-0.2-34.7-0.2-52.2,0c-8.8,0-5.8-6.6-5.6-10.7c0-4.1-3.2-10.9,5.6-10.9c9,0,18,0,26.7,0c8.6,0,17.1,0.2,25.5,0
		c8.6-0.4,6.4,5.8,6.2,10.3C90.7,41.6,94.3,48.6,84.7,48.4z"/>
	<path class="st2" d="M75.5,80.7c-15.2-0.4-27.4,11.6-27.4,26.5c0.2,14.6,12,26.3,26.7,26.3c15,0,26.7-11.6,26.7-26.1
		C101.8,92.9,90.2,80.9,75.5,80.7z M76.1,122.7c-9.4,0.4-16.7-6-16.9-15.2c-0.2-8.8,6-15.6,14.8-16c9.4-0.4,16.7,6,16.9,15.2
		C91.1,115.4,84.9,122.2,76.1,122.7z"/>
</g>
</svg>
