<?xml version="1.0" encoding="utf-8"?>
<!-- Generator: Adobe Illustrator 25.0.1, SVG Export Plug-In . SVG Version: 6.00 Build 0)  -->
<svg version="1.1" id="Capa_1" xmlns="http://www.w3.org/2000/svg" xmlns:xlink="http://www.w3.org/1999/xlink" x="0px" y="0px"
	 viewBox="0 0 150 108.7" style="enable-background:new 0 0 150 108.7;" xml:space="preserve">
<style type="text/css">
	.st0{fill:#393939;}
</style>
<g>
	<path class="st0" d="M100.1,17.1c-2.1-2.8-3-3.9-3.9-5.1c-3-3.2-6-6.7-1.6-10.6c3.9-3.2,7.2-0.2,9.9,2.5
		c21.7,22.1,21.5,15.5,0.7,36.9c-3,3-6.5,6.7-10.6,3c-4.4-3.9-1.2-7.6,2.1-10.6c1.2-1.2,2.3-2.1,1.6-4.4c-21.5,0-43.4-0.5-65.1,0.2
		c-12.5,0.2-20.1,9-21.5,22.6c-0.5,4.8,0.9,11.3-6.7,10.6C-1.2,61.6,0,55.4,0.2,51C0.9,31.6,15,17.8,35.3,17.3
		C55.8,16.6,77.1,17.1,100.1,17.1z"/>
	<path class="st0" d="M51,91.6c0.5,6,10.8,9.7,4.2,15.2c-6.9,5.5-10.6-2.8-14.5-6.7c-15.9-15.9-16.8-11.5,3.5-31.8
		c3.2-3.2,6.9-7.6,11.5-3c3.9,4.2,0.2,7.6-2.8,10.6c-0.7,0.7-1.2,1.8-2.3,3.9c23.3,0,45.7,0.5,68.1-0.2c11.5-0.5,18.5-9.7,19.6-23.1
		c0.5-4.6-0.5-10.4,6.2-10.2c6.5,0.5,5.5,6.2,5.5,10.8c-0.2,19.8-14.8,33.9-35.5,34.4C93.2,91.8,72.2,91.6,51,91.6z"/>
</g>
</svg>
