<?xml version="1.0" encoding="utf-8"?>
<!-- Generator: Adobe Illustrator 25.0.1, SVG Export Plug-In . SVG Version: 6.00 Build 0)  -->
<svg version="1.1" id="Capa_1" xmlns="http://www.w3.org/2000/svg" xmlns:xlink="http://www.w3.org/1999/xlink" x="0px" y="0px"
	 viewBox="0 0 203.6 150" style="enable-background:new 0 0 203.6 150;" xml:space="preserve">
<style type="text/css">
	.st0{fill:#383838;}
	.st1{fill:#393939;}
	.st2{fill:#FBFBFB;}
	.st3{fill:#FDFDFD;}
</style>
<path class="st0" d="M170.7,36c-0.8,21.5-17.2,39.3-36,38.4c-19.4-0.8-34.9-19.6-33.8-41.7c0.8-19.6,15.5-33,35.7-32.7
	C157.1,0.5,171.3,15.5,170.7,36z"/>
<path class="st1" d="M85.1,43.1c0,17.2-14.2,33-29.7,33S26,60.8,25.7,43.4c-0.3-17.2,12.8-30,30.3-29.7C72.3,13.9,85.1,27,85.1,43.1
	z"/>
<g>
	<path class="st0" d="M198.5,121.5c-2.2-3.8-5.2-7.4-8.2-10.6c-24.5-26.2-65.4-29.4-102.2-7.9c-0.1,0-0.2,0.1-0.3,0.1
		c-10.3,11.3-22.3,21.9-19.6,39.8c-0.1-0.2-0.3-0.5-0.4-0.7c0,0.3,0.1,0.6,0.1,0.9c4.6,7.4,12,7.1,19.4,7.1h95.1
		C203.2,149.8,208.9,139.5,198.5,121.5z"/>
	<path class="st0" d="M54.6,122.7c-13.1,0-25.9,0-39.5,0c8.5-20.7,30-29.2,56.4-22.4c6,1.6,11.2,3,16.1-1.9c0,0.2,0.1,0.3,0.1,0.5
		c0.1-0.2,0.1-0.3,0.2-0.5c-0.5-5.7-3.8-9-9.3-10.4c-19.1-5.2-37.9-5.5-55.3,4.4c-10.9,6-19.6,14.7-22.6,27.5
		c-2.2,9.5,1.4,15.8,11.2,15.8c17.2,0.3,34.4,1.9,51.5-1.1C66.3,126.5,63,122.7,54.6,122.7z"/>
</g>
<path class="st2" d="M135.6,136c-14.4,0-28.9,0-43.6,0c-3,0-6.8,1.6-8.7-1.6c-2.2-3.8,1.9-6.5,3.3-9.5c0.5-1.1,1.6-2.2,2.5-3.3
	C111.3,95.1,162,95.7,183,123c2.5,3.3,6.3,6.5,4.9,10.6c-1.6,5.2-7.1,2.5-10.6,2.5C163.6,136.3,149.7,136,135.6,136z"/>
<path class="st3" d="M114.8,35.4c-0.3-13.1,7.9-21.5,20.7-21.8c12.8-0.3,21.3,8.2,21.5,21c0.3,13.6-9.5,25.9-20.7,26.2
	C124.9,61.1,114.8,49.1,114.8,35.4z"/>
<path class="st2" d="M39.3,42c1.1-8.7,6-14.7,16.4-14.4c9.8,0.3,14.7,6,15.5,15.3c0.8,9.8-7.9,19.9-16.4,19.6
	C47,62.2,39.3,52.6,39.3,42z"/>
</svg>
