<svg width="16" height="17" viewBox="0 0 16 17" fill="none" xmlns="http://www.w3.org/2000/svg">
<path d="M15.9863 15.9994L14.1349 5.9298C14.0604 5.52441 13.6986 5.22932 13.2761 5.22932H10.197C10.7744 4.67497 11.1331 3.90487 11.1331 3.05435C11.1331 1.37016 9.72764 0 8.00003 0C6.27242 0 4.86688 1.37016 4.86688 3.05435C4.86688 3.90487 5.22565 4.67497 5.80296 5.22932H2.7239C2.30138 5.22932 1.93964 5.52441 1.86507 5.9298L0.0136829 15.9994C-0.0318617 16.2473 0.0375312 16.5021 0.203365 16.6953C0.36914 16.8884 0.614196 17 0.872514 17H15.1275C15.3858 17 15.6309 16.8884 15.7966 16.6953C15.9624 16.5021 16.0319 16.2473 15.9863 15.9994ZM8.00003 1.70115C8.76545 1.70115 9.38812 2.30817 9.38812 3.05435C9.38812 3.80053 8.76545 4.40761 8.00003 4.40761C7.23462 4.40761 6.61188 3.80053 6.61188 3.05435C6.61188 2.30817 7.23462 1.70115 8.00003 1.70115ZM7.77202 13.1627C7.72659 13.2443 7.63887 13.2952 7.5436 13.2952H7.13201C7.03976 13.2952 6.95437 13.2475 6.90772 13.1699L5.8891 11.4747L5.23769 12.1229V12.9036C5.23769 13.1199 5.05784 13.2952 4.83599 13.2952C4.61415 13.2952 4.4343 13.1199 4.4343 12.9036V9.80767C4.4343 9.5914 4.61415 9.41607 4.83599 9.41607C5.05784 9.41607 5.23769 9.5914 5.23769 9.80767V11.1386L6.78371 9.498C6.83292 9.44578 6.90237 9.41607 6.97508 9.41607H7.32832C7.43267 9.41607 7.52685 9.47685 7.56762 9.57047C7.60834 9.66409 7.58769 9.7724 7.51521 9.84549L6.44285 10.9269L7.76149 12.9036C7.81343 12.9816 7.8175 13.081 7.77202 13.1627ZM11.7299 12.6461C11.7299 12.7231 11.6938 12.7962 11.6321 12.8443C11.4718 12.969 11.2606 13.0809 10.9985 13.18C10.679 13.3009 10.3556 13.3613 10.0281 13.3613C9.61183 13.3613 9.24916 13.2762 8.9396 13.1059C8.63027 12.9357 8.39766 12.6923 8.24206 12.3756C8.08641 12.059 8.00864 11.7146 8.00864 11.3423C8.00864 10.9384 8.09548 10.5794 8.26923 10.2654C8.44291 9.95142 8.69716 9.71071 9.03197 9.54303C9.28697 9.41431 9.60462 9.34984 9.98462 9.34984C10.4786 9.34984 10.8645 9.45088 11.1423 9.65287C11.2626 9.74036 11.3643 9.84237 11.4475 9.95885C11.5269 10.0702 11.543 10.2131 11.4903 10.3385C11.4376 10.464 11.3233 10.555 11.1866 10.58L11.1856 10.5802C11.0255 10.6094 10.8631 10.5402 10.7763 10.4057C10.7208 10.3196 10.65 10.2459 10.5641 10.1846C10.4094 10.0744 10.2162 10.0193 9.98462 10.0193C9.63353 10.0193 9.35438 10.1278 9.14731 10.3447C8.94012 10.5618 8.83653 10.8837 8.83653 11.3106C8.83653 11.771 8.9414 12.1163 9.15138 12.3465C9.36125 12.5767 9.63626 12.6918 9.97654 12.6918C10.1448 12.6918 10.3135 12.6596 10.4827 12.5952C10.6518 12.5308 10.797 12.4527 10.9183 12.3611V11.8688H10.3334C10.1483 11.8688 9.99829 11.7225 9.99829 11.5421C9.99829 11.3616 10.1484 11.2154 10.3334 11.2154H11.47C11.6135 11.2154 11.7299 11.3288 11.7299 11.4687V12.6461Z" fill="#fff"/>
</svg>
