<?xml version="1.0" encoding="utf-8"?>
<!-- Generator: Adobe Illustrator 25.0.1, SVG Export Plug-In . SVG Version: 6.00 Build 0)  -->
<svg version="1.1" id="Capa_1" xmlns="http://www.w3.org/2000/svg" xmlns:xlink="http://www.w3.org/1999/xlink" x="0px" y="0px"
	 viewBox="0 0 139.3 150" style="enable-background:new 0 0 139.3 150;" xml:space="preserve">
<style type="text/css">
	.st0{fill:#373737;}
	.st1{fill:#383838;}
</style>
<g>
	<path class="st0" d="M90.3,14.4c-5.5-1.6-11.3-1.6-13.4-9.7C75-1.7,64.4-1.5,62.8,5c-1.8,7.9-7.4,7.4-12.5,9.2
		c-3.2,1.2-6.7,2.1-9.7,3.7c-5.5,3-10.4,6.2-16.4,0.7c-3.2-2.8-6.7-0.9-9.5,1.4c-3,2.5-4.2,6.5-1.6,9.2c5.3,5.8,1.2,9.5-1.6,13.9
		C-2.8,66.4-4,90.4,9.2,114.2c12.9,23.6,33.7,34.9,57.3,35.8c37.6,0,66.3-24.9,72.1-59.6C143.8,57.4,122.8,24.6,90.3,14.4z
		 M69.9,138.5c-32.1,0.2-58.2-25.6-58.2-57.5c0-32.3,25.2-57.3,57.7-57.3s57.7,25.2,57.7,57.5C127,112.8,101.6,138,69.9,138.5z"/>
	<path class="st1" d="M83.6,71.7C72.7,64.6,75.2,53.9,75,44c0-4.8,1.4-11.5-5.5-11.8s-6,6.5-6,11.3c-0.2,9.9,1.8,19.9-8.1,27.9
		c-5.8,4.8-4.4,13.4,0.5,19.9c4.6,6,11.1,8.3,18.5,6c7.6-2.5,11.8-8.1,12.2-16.6C86.3,77.5,86.6,73.1,83.6,71.7z M69.9,86.3
		c-3.7,0.2-5.8-2.1-6-5.3c-0.2-3.2,1.6-5.5,5.1-6c3.7,0,5.8,2.1,6,5.3C75.2,83.5,73.4,86,69.9,86.3z"/>
</g>
</svg>
