<?xml version="1.0" encoding="utf-8"?>
<!-- Generator: Adobe Illustrator 25.0.1, SVG Export Plug-In . SVG Version: 6.00 Build 0)  -->
<svg version="1.1" id="Capa_1" xmlns="http://www.w3.org/2000/svg" xmlns:xlink="http://www.w3.org/1999/xlink" x="0px" y="0px"
	 viewBox="0 0 150 150" style="enable-background:new 0 0 150 150;" xml:space="preserve">
<style type="text/css">
	.st0{fill:#FFFFFF;}
</style>
<g>
	<path class="st0" d="M77.3,0.5C36.4-0.9,1.4,31.8,0,72.5c-1.1,41.6,31.3,75.7,73.4,77c40.9,1.1,75.7-31.7,76.6-72.7
		C150.9,35.4,119.2,2.1,77.3,0.5z M75.5,138c-34.7,0.5-63.2-27.4-63.9-61.9c-0.7-35,27.6-63.7,62.8-64.2
		c34.7-0.5,63.2,27.4,63.9,61.9C138.9,108.8,110.9,137.6,75.5,138z"/>
	<path class="st0" d="M69.3,54.3c0-7.6,0-15.2,0-23c0-3.9,0.9-7.8,6.2-7.6c4.6,0.2,5.3,3.9,5.3,7.6C81,43,81.2,55,80.8,66.7
		c-0.2,6.7,2.1,8.7,8.5,8.3c6.4-0.5,12.9-0.2,19.5,0c3.4,0,6,2.1,6.2,5.5c0,3.4-2.5,5.5-6,5.7c-11,0.2-22.1,0.2-33.1,0
		c-5.5-0.2-6.4-4.6-6.4-9C69,69.7,69.3,61.9,69.3,54.3L69.3,54.3z"/>
</g>
</svg>
