<?xml version="1.0" encoding="utf-8"?>
<!-- Generator: Adobe Illustrator 25.0.1, SVG Export Plug-In . SVG Version: 6.00 Build 0)  -->
<svg version="1.1" id="Capa_1" xmlns="http://www.w3.org/2000/svg" xmlns:xlink="http://www.w3.org/1999/xlink" x="0px" y="0px"
	 viewBox="0 0 150 150" style="enable-background:new 0 0 150 150;" xml:space="preserve">
<style type="text/css">
	.st0{fill:#F2930A;}
</style>
<g>
	<path class="st0" d="M149.6,51.9c-0.2-12.8-7.3-21.6-19.7-24.1c-4.3-0.9-6.4-1.9-7.5-6.8c-3-13.7-10.7-20.3-24.6-20.5
		C74.6,0,51.1-0.2,27.6,0.4C11.4,0.8,0.5,11.5,0.3,26c-0.4,24.4-0.2,48.9,0,73.5c0.2,11.3,7.9,20.3,19,22.4c4.7,1.1,7.3,2.1,8.3,7.5
		c2.8,13,10.5,19.9,23.9,20.1c24.4,0.6,48.9,0.6,73.5,0c16-0.4,24.6-10.3,24.8-26.1c0-11.7,0-23.5,0-35.2
		C149.8,76,150,64.1,149.6,51.9z M26.8,55.3c0,16.4,0,32.7,0,49.1c0,2.8,1.3,6.6-2.1,7.5c-3,0.9-6.4-0.4-9-2.6
		c-3.6-3.2-5.1-7.3-5.1-12.4C11.2,85.4,11,74.1,11,62.8s-0.2-22.9,0-34.2c0.2-11.1,5.8-17.5,16.9-17.7c23.5-0.4,47-0.2,70.3,0
		c4.1,0,7.7,1.3,10.5,4.5c2.6,2.8,4.5,6.2,3,9.6c-1.3,3.2-4.9,1.9-7.7,1.9c-16.4,0-32.7-0.2-49.1,0.2C35.5,27.3,26.8,36.3,26.8,55.3
		z M139.1,123c-0.2,10.7-4.9,15.8-15.6,16c-23.5,0.2-47,0.2-70.3,0c-10.7-0.2-15.4-5.3-15.4-16c0-22.4-0.2-44.6,0-67.1
		c0-13.7,4.1-17.9,17.7-18.2c22.6-0.2,45.5-0.2,68.1,0c10.5,0,15.4,5.1,15.4,16c0.2,11.3,0,22.6,0,34
		C139.1,99.5,139.4,111.3,139.1,123z"/>
	<path class="st0" d="M88.9,119.8c-2.6,0.2-4.5-0.9-5.1-3c-0.4-1.9-0.6-4.3-0.6-6.4c-0.4-15.8-0.4-16-16.9-16.7
		c-4.3-0.2-9.6-0.2-9.6-5.8c0-6,5.8-4.7,9.8-4.9c1.5,0,2.8-0.2,4.3,0c10.7,1.9,14.1-2.8,12.4-12.8c-0.4-2.1,0-4.3,0-6.4
		c0-3.4,0.4-6.8,4.7-7c4.5-0.2,5.8,3,6.2,6.8c0.6,6.2-3,14.3,1.9,18.2c4.1,3,11.5,1.1,17.5,1.3c3.4,0.2,6.6,1.1,6.6,5.1
		c0,4.3-3.4,4.9-6.6,5.3c-6.2,0.9-14.5-2.8-18.2,1.9c-3.2,3.8-1.1,11.5-1.5,17.5C93.9,116.4,92.8,119.4,88.9,119.8z"/>
</g>
</svg>
