<?xml version="1.0" encoding="UTF-8"?>
<svg id="Capa_1" data-name="Capa 1" xmlns="http://www.w3.org/2000/svg" viewBox="0 0 300 300">
  <path d="m282.8,207.58c2.25,0,4.08-.02,5.92,0,5.58.07,8.79,2.62,8.84,7.02.05,4.39-3.21,7.09-8.69,7.16-3.59.05-7.17,0-10.76,0h-9.74c-1.49,27.92-22.96,43.09-44.65,42.99-22.31-.1-42.91-15.75-44.34-42.81h-59.15c-1.17,27.28-22.61,42.79-44.33,42.82-22.26.05-43.5-15.86-44.6-42.33-4.46-1.43-9.05-2.32-13.05-4.33-10.29-5.14-15.61-13.88-15.66-24.95-.22-43.06-.18-86.13-.05-129.19.05-16.04,13.06-28.53,30.04-28.61,43.87-.18,87.75-.19,131.61,0,17.53.07,30,12.81,30.05,29.82v13.18c1.45,0,2.64-.01,3.84,0,9.94.14,19.88.13,29.8.49,5.4.19,9.75,3,13.17,6.89,12.13,13.78,24.16,27.65,36.21,41.48,3.78,4.34,5.66,9.23,5.62,15.06-.16,20.53-.06,41.07-.06,61.6v3.69Zm-103.29,0c.06-1.02.12-1.59.12-2.18,0-47.45.02-94.9-.04-142.34,0-1.73-.48-3.58-1.22-5.17-2.5-5.43-6.94-8.34-13.05-8.34-44.7-.05-89.38-.02-134.08-.02-.21,0-.41.01-.62.02-7.76.44-13.57,6.37-13.57,13.93v130.09c0,7.57,5.79,13.42,13.52,14.02,2.6.2,3.9-.5,5.09-2.89,8.11-16.41,21.68-25.54,40.34-25.62,18.79-.07,32.5,9.04,40.69,25.54,1.18,2.38,2.46,3.04,5.04,3.01,16.7-.12,33.42-.06,50.12-.06h7.64Zm-73.69,14.35c.04-15.63-13.43-28.77-29.53-28.84-16.05-.07-29.64,13.08-29.68,28.7-.04,15.63,13.43,28.77,29.53,28.84,16.05.07,29.64-13.08,29.68-28.7Zm88.41,0c.04,15.62,13.65,28.76,29.69,28.69,16.11-.07,29.56-13.23,29.52-28.86-.04-15.62-13.65-28.76-29.69-28.69-16.11.07-29.56,13.23-29.52,28.86h0Zm.14-32.54c.87-.65,1.34-.98,1.8-1.34,17.75-13.35,43.22-11.97,58.84,3.65,3.98,4,6.62,9.26,9.94,13.88.63.87,1.61,1.52,2.42,2.27l.64-.66v-57.06h-73.65v39.24h.01Zm71.25-53.79c-.49-.68-.74-1.08-1.05-1.42-11.54-12.96-23.09-25.91-34.6-38.89-1.83-2.06-4.14-2.75-6.84-2.75-8.82.02-17.63,0-26.44.02-.78,0-1.55.16-2.23.22v42.81h71.17-.01Z"/>
</svg>