<?xml version="1.0" encoding="utf-8"?>
<!-- Generator: Adobe Illustrator 25.0.1, SVG Export Plug-In . SVG Version: 6.00 Build 0)  -->
<svg version="1.1" id="Capa_1" xmlns="http://www.w3.org/2000/svg" xmlns:xlink="http://www.w3.org/1999/xlink" x="0px" y="0px"
	 viewBox="0 0 203.1 150" style="enable-background:new 0 0 203.1 150;" xml:space="preserve">
<path d="M200.6,68.2c-1.4-3.4-3.4-6.4-5.7-9.1c-5.9-7.8-11.4-16-17.8-23.3c-3.4-3.9-7.5-7.3-13-7.3c-12.8-0.2-25.5,0-38.3,0
	c0-5.2,0-10.9,0-16.6C125.8,5,121,0,114.2,0C80,0,46,0,11.9,0C6.2,0,2.3,3,0.5,8.4C0.2,8.7,0.2,8.9,0,9.1C0,46,0,83,0,119.9
	c0.5,2.3,1.1,4.1,2.7,5.9c2.7,3.2,6.2,4.6,10.3,4.6c4.3,0,8.7,0,13,0c1.4,0,2.3,0.5,2.7,2.1c3.2,9.8,9.6,16,20.1,17.6
	c0.2,0,0.7,0,0.9,0c0.2-0.1,0.4-0.2,0.6-0.2c0.5,0,1,0,1.5,0c0.2,0.1,0.4,0.1,0.6,0.2c0.2,0,0.2,0,0.5,0c0.9,0,1.8,0,2.7,0
	c0-0.1,0-0.2,0-0.2c2.3,0,4.3,0,6.4-0.9c7.1-3.2,12.1-8.2,14.4-15.7c0.7-2.1,1.6-2.7,3.6-2.7c10.7,0,21.4,0,32.1,0
	c3,0,5.9-0.5,8.4-2.1c0.9-0.5,1.8-0.7,2.7,0c2.7,1.6,5.5,2.3,8.4,2.1c1.4-0.2,2.1,0.5,2.5,1.8c3.2,9.8,9.6,16,20.1,17.6
	c0.2,0,0.5,0,0.7,0c0.1,0,0.2,0,0.2,0c0.8,0,1.7,0,2.5,0c-0.2-0.1-0.3-0.2-0.5-0.3c0.2,0.1,0.5,0.1,0.7,0.3c0.4,0,0.8,0,1.1,0
	c0.1,0,0.2,0,0.2,0c0.7,0,1.4,0,2.1,0c0-0.2,0-0.2,0-0.4c0.1,0,0.2-0.1,0.2-0.1c10-0.9,18.9-9.8,20.5-20.5c0,0,0,0,0,0c0,0,0,0,0,0
	h0.4c0,0.2,0,0.3,0.1,0.5c0,0.9,0.9,0.7,1.4,0.7c2.1,0,3.9,0,5.9,0c8.2,0,13.2-5.2,13.2-13.2c0-12.3,0-24.8,0-37.2
	C203.1,75.5,202.2,71.8,200.6,68.2z M52.4,141.8c-8.9,0-16.2-7.3-16.2-16.2c0-9.1,7.3-16.2,16.2-16.2s16.2,7.1,16.2,16.2
	C68.6,134.5,61.3,141.8,52.4,141.8z M177.8,52.4c0.7,0,1.6-0.2,2.1,0.5c3.6,5.5,8.4,10,11.2,16.2c0.9,2.1,1.6,3.9,2.3,6.2
	c0.5,1.1,0,1.6-1.4,1.6c-5.9,0-12.3,0-18.7,0c-6.2,0-12.1,0-18.2,0c-3.4,0-5.2-1.8-5.2-5.2c0-4.6,0-9.3,0-13.9c0-3.4,1.8-5.2,5-5.2
	C162.5,52.4,170.3,52.4,177.8,52.4z M158,141.8c-8.9,0-16.2-7.3-16.2-16.4c0-9.1,7.3-16.2,16.4-16.2s16.2,7.3,16.2,16.2
	C174.2,134.5,166.9,141.8,158,141.8z"/>
</svg>
