<?xml version="1.0" encoding="utf-8"?>
<!-- Generator: Adobe Illustrator 25.0.1, SVG Export Plug-In . SVG Version: 6.00 Build 0)  -->
<svg version="1.1" id="Capa_1" xmlns="http://www.w3.org/2000/svg" xmlns:xlink="http://www.w3.org/1999/xlink" x="0px" y="0px"
	 viewBox="0 0 130.9 150" style="enable-background:new 0 0 130.9 150;" xml:space="preserve">
<style type="text/css">
	.st0{fill:#383838;}
</style>
<g>
	<path class="st0" d="M121.2,108.3c-4.6-2.6-5.4-5.6-5.4-10.3c0.2-18.1,0.2-36.2,0-54.3c-0.2-13.1-8.5-22.1-21.3-23.5
		c-6.2-0.8-12.5-0.8-20.7-1.2c3.6-4,5.8-6,7.8-8c2.4-2.6,6.4-5.4,2.6-9.3c-3.4-3.4-6.6-1-9.5,1.8c-5.4,5.4-10.9,10.9-16.3,16.3
		c-2.2,2.2-4.4,5-1.6,7.8c6.6,7,13.5,13.9,20.7,20.3c2.2,2,5.2,1.6,7.2-0.8c1.8-2.2,0.8-4.4-0.6-6.4c-2.6-3.6-7.4-5.4-8.7-11.3
		c4.4,0,8,0,11.7,0c14.7,0.4,18.7,4.4,18.7,19.5c0,16.1-0.2,32.2,0,48.3c0,5-0.8,8.5-5.8,11.3c-8.7,5-11.1,13.5-8.3,22.7
		c2.6,9.1,9.5,13.9,18.7,14.1c9.3,0,15.9-4.8,19.1-13.5C132.8,123,129.8,113.2,121.2,108.3z M110.3,135.1c-6.2-0.4-9.7-4.6-9.3-10.7
		c0.4-5.6,4-9.3,9.9-9.1c6.2,0,9.3,4,9.9,9.9C119.9,131.7,116.5,135.5,110.3,135.1z"/>
	<path class="st0" d="M73.7,122c-6.6-6.8-13.3-13.5-19.9-19.9c-2.2-2-5-2.2-7.2,0c-2.4,2.2-1.6,4.8,0.4,7c2.8,3,5.6,6,8.9,9.5
		c-4.4,2.6-8.5,1.6-12.3,1.8c-14.3-0.2-18.3-4.2-18.3-18.7c0-16.5,0.2-32.8,0-49.3c0-4.4,0.2-7.6,5.2-10.5c8.9-5,11.9-14.3,8.9-23.3
		c-3-8.9-9.7-13.9-18.9-13.9c-9.5,0-15.9,4.8-19.1,13.7s0,17.9,8.7,23.3c4.2,2.6,5.2,5.2,5.2,9.7c-0.2,17.7,0,35.6,0,53.3
		c0,15.3,8.3,24.3,23.5,25.6c5.4,0.4,11.1,0,16.5,0c0.8,1.2,1.6,2.6,2.4,4c-3.2,1.8-6.4,3.6-9.3,5.8s-5,5.4-1.6,8.5
		c3,2.8,6,1,8.7-1.6c5.8-5.6,11.5-11.5,17.1-17.1C74.9,127.7,76.5,124.8,73.7,122z M19.7,34.7c-6.2-1-9.7-4.4-9.3-10.7
		s4.4-9.7,10.7-9.3C27,15.2,30.2,19,30,24.8C29.8,31.1,26,34.3,19.7,34.7z"/>
</g>
</svg>
