<svg width="12" height="16" viewBox="0 0 12 16" fill="none" xmlns="http://www.w3.org/2000/svg">
<g id="Capa_1" clip-path="url(#clip0_20459_34005)">
<path id="Vector" d="M11.9967 9.58473C11.9967 11.0317 11.9987 12.4786 11.9967 13.9255C11.9947 15.121 11.1361 15.9931 9.94049 15.9951C7.31493 16.0011 4.68937 16.0011 2.06281 15.9951C0.864208 15.9931 0.00165217 15.124 0.000654998 13.9315C-0.000342176 9.97291 -0.000342176 6.01532 0.00165217 2.05773C0.00165217 0.890208 0.861217 0.012074 2.02293 0.00508881C3.64333 -0.00488998 5.26374 0.00508881 6.88415 0.0010973C7.31693 0.0010973 7.67391 0.160758 7.97606 0.464113C9.15073 1.64061 10.3234 2.81911 11.5031 3.99062C11.8411 4.3269 12.0036 4.71508 11.9997 5.19506C11.9897 6.65895 11.9957 8.12184 11.9957 9.58573L11.9967 9.58473ZM1.02775 7.99112C1.02775 9.93598 1.02775 11.8819 1.02775 13.8267C1.02775 14.5931 1.38473 14.9553 2.15356 14.9693C2.21139 14.9703 2.27022 14.9693 2.32806 14.9693C4.77812 14.9693 7.22917 14.9693 9.67923 14.9693C9.80388 14.9693 9.92952 14.9693 10.0522 14.9523C10.6734 14.8665 10.9696 14.5242 10.9696 13.8906C10.9696 11.364 10.9676 8.83632 10.9746 6.30969C10.9746 6.07918 10.9058 6.01132 10.6774 6.01332C9.63137 6.0233 8.58433 6.0223 7.5373 6.01631C6.62489 6.01033 5.9857 5.3637 5.9847 4.45563C5.98271 3.39987 5.9837 2.34412 5.9847 1.28836C5.9847 1.14567 5.98769 1.02592 5.78427 1.02692C4.5388 1.0329 3.29233 1.01394 2.04686 1.03889C1.35881 1.05286 1.02874 1.43904 1.02874 2.12957C1.02874 4.08342 1.02874 6.03627 1.02874 7.99012L1.02775 7.99112ZM7.01079 2.85803C7.01079 3.33202 7.01079 3.80501 7.01079 4.27901C7.01079 4.83383 7.16536 4.9895 7.71978 4.99049C8.69103 4.99149 9.66228 4.99249 10.6335 4.9885C10.7173 4.9885 10.8399 5.04139 10.8768 4.93561C10.9038 4.85678 10.7981 4.7989 10.7412 4.74202C9.82681 3.82497 8.91041 2.90892 7.995 1.99187C7.74272 1.7394 7.49043 1.48594 7.23715 1.23547C7.1863 1.18458 7.13245 1.09976 7.05367 1.13469C6.9719 1.17061 7.01279 1.2684 7.01279 1.33826C7.0098 1.84518 7.01079 2.3521 7.01079 2.85803Z" fill="#FF8D24"/>
<path id="Vector_2" d="M6.00075 6.98717C6.98097 6.98717 7.9602 6.98517 8.94042 6.98717C9.62249 6.98917 10.0034 7.37435 10.0034 8.05291C10.0034 9.68943 10.0034 11.3269 10.0034 12.9635C10.0034 13.5971 9.6165 13.9983 8.98729 14.0003C6.99493 14.0043 5.00158 14.0043 3.00922 14.0003C2.382 13.9993 1.99609 13.5961 1.99609 12.9605C1.99609 11.324 1.99609 9.68643 1.99609 8.04991C1.99609 7.37435 2.37901 6.98917 3.06207 6.98717C4.0423 6.98418 5.02152 6.98717 6.00174 6.98717H6.00075ZM5.98579 8.98293H8.35208C8.7689 8.98293 8.97698 8.77204 8.97632 8.35027C8.97632 8.12675 8.86031 8.01499 8.6283 8.01499C6.99294 8.01499 5.35757 8.01499 3.7222 8.01499C3.01122 8.01499 3.01919 8.01499 3.01919 8.72149C3.01919 8.93603 3.09797 8.98692 3.29641 8.98592C4.19287 8.97794 5.08933 8.98293 5.98579 8.98293ZM4.25569 10.9787C4.57878 10.9787 4.90286 10.9707 5.22594 10.9817C5.41441 10.9887 5.50515 10.9338 5.4882 10.7302C5.47524 10.5735 5.47723 10.4149 5.4882 10.2572C5.50016 10.0776 5.43734 10.0058 5.24888 10.0078C4.58576 10.0157 3.92164 10.0167 3.25852 10.0078C3.06706 10.0048 3.01022 10.0826 3.02219 10.2592C3.03216 10.4079 3.03415 10.5586 3.02219 10.7073C3.00523 10.9088 3.07504 10.9917 3.28743 10.9817C3.61052 10.9667 3.9346 10.9777 4.25769 10.9777L4.25569 10.9787ZM7.76973 10.0107H7.22229C6.48338 10.0107 6.48836 10.0107 6.50931 10.7562C6.51429 10.9348 6.5831 10.9827 6.74863 10.9807C7.41175 10.9747 8.07587 10.9747 8.73899 10.9807C8.90352 10.9817 8.98828 10.9368 8.97731 10.7562C8.96734 10.5825 8.96734 10.4069 8.97731 10.2333C8.98828 10.0537 8.90552 10.0038 8.73999 10.0078C8.4169 10.0157 8.09282 10.0097 7.76973 10.0097V10.0107ZM4.24472 12.9744H4.76724C5.51113 12.9744 5.50415 12.9744 5.49019 12.239C5.4862 12.0444 5.40743 12.0015 5.23492 12.0045C4.73733 12.0115 4.23974 12.0075 3.74215 12.0075C2.99925 12.0075 3.00324 12.0075 3.02019 12.7429C3.02418 12.9116 3.07404 12.9824 3.24954 12.9774C3.5806 12.9685 3.91266 12.9744 4.24472 12.9754V12.9744ZM7.74381 12.0065C7.42072 12.0065 7.09664 12.0145 6.77356 12.0035C6.58509 11.9965 6.49435 12.0514 6.5113 12.255C6.52426 12.4116 6.52227 12.5703 6.5113 12.728C6.49933 12.9076 6.56216 12.9794 6.75062 12.9774C7.41374 12.9695 8.07786 12.9685 8.74098 12.9774C8.93244 12.9804 8.98928 12.9026 8.97731 12.726C8.96734 12.5773 8.96535 12.4266 8.97731 12.2779C8.99426 12.0764 8.92446 11.9935 8.71206 12.0035C8.38898 12.0185 8.0649 12.0075 7.74181 12.0075L7.74381 12.0065Z" fill="#FF8D24"/>
</g>
<defs>
<clipPath id="clip0_20459_34005">
<rect width="12" height="16" fill="white"/>
</clipPath>
</defs>
</svg>
