<svg width="18" height="15" viewBox="0 0 18 15" fill="none" xmlns="http://www.w3.org/2000/svg">
<g clip-path="url(#clip0_874_11345)">
<path d="M6.30478 14.9944C4.55365 14.9944 2.80251 14.996 1.05137 14.9936C0.372836 14.9928 -0.02573 14.5668 0.00129143 13.8647C0.0117998 13.5989 0.0425741 13.3323 0.0868592 13.0697C0.448646 10.9291 2.11797 9.3265 3.98019 9.00597C4.30595 8.94968 4.63771 8.91372 4.96722 8.90903C5.85518 8.89574 6.74313 8.89496 7.63108 8.90668C9.33043 8.92857 10.7033 9.63139 11.7068 11.0746C12.3185 11.9533 12.5775 12.9524 12.5955 14.0258C12.603 14.4644 12.269 14.8748 11.8547 14.96C11.7331 14.985 11.6062 14.9928 11.4824 14.9928C9.75601 14.9952 8.0304 14.9944 6.30403 14.9944H6.30478ZM6.28977 14.0664C6.46466 14.0664 6.6403 14.0664 6.81519 14.0664C8.37192 14.0664 9.9294 14.0649 11.4861 14.0688C11.6348 14.0688 11.7338 14.0477 11.7068 13.8585C11.667 13.5825 11.6498 13.3011 11.5912 13.029C11.2219 11.3028 9.91739 10.0465 8.26158 9.8972C7.00884 9.78462 5.73583 9.80104 4.47859 9.88078C2.57433 10.002 1.0251 11.5522 0.890746 13.803C0.874983 14.0633 0.881739 14.0656 1.13094 14.0656C2.85055 14.0656 4.57016 14.0656 6.28977 14.0656V14.0664Z" fill="#363740"/>
<path d="M9.89382 3.73769C9.86679 5.82738 8.39113 7.47772 6.29772 7.47928C4.21032 7.48085 2.70463 5.83755 2.70313 3.7416C2.70237 1.65268 4.19981 0.00156467 6.29322 1.11483e-06C8.38062 -0.00156244 9.86454 1.64174 9.89382 3.73769ZM9.00286 3.74863C9.00586 2.17647 7.81992 0.931882 6.30823 0.920155C4.80554 0.908429 3.59333 2.15615 3.58732 3.72127C3.58132 5.30281 4.77551 6.556 6.29096 6.55991C7.79666 6.56382 8.99986 5.3161 9.00211 3.74941L9.00286 3.74863Z" fill="#363740"/>
<path d="M15.4259 14.9971C14.9567 14.9971 14.4876 15.001 14.0185 14.9955C13.8323 14.9932 13.6575 14.9525 13.5614 14.7524C13.4773 14.5773 13.4931 14.4115 13.5974 14.2544C13.7123 14.0824 13.8901 14.0707 14.0673 14.0707C14.9305 14.0691 15.7936 14.0707 16.6568 14.0699C17.0171 14.0699 17.1177 13.9636 17.1087 13.5946C17.0667 11.9216 15.7861 10.4846 14.1881 10.3408C13.7348 10.3001 13.2762 10.315 12.8198 10.3048C12.7823 10.3041 12.7447 10.3048 12.7072 10.3048C12.3522 10.3009 12.154 10.1336 12.1563 9.83812C12.1578 9.54339 12.3552 9.37061 12.7125 9.37921C13.2934 9.39328 13.8804 9.37061 14.4531 9.45192C16.1719 9.69662 17.5088 11.0069 17.8826 12.7682C17.9456 13.0653 17.9846 13.3725 17.9959 13.6767C18.0252 14.4459 17.5553 14.9666 16.8137 14.9924C16.3513 15.0088 15.8882 14.9955 15.4251 14.9955V14.9971H15.4259Z" fill="#363740"/>
<path d="M15.3024 4.17883C15.3039 5.80258 14.1878 7.18555 12.6754 7.44119C11.9645 7.5608 11.28 7.44823 10.639 7.09799C10.2802 6.90255 10.2532 6.45693 10.5812 6.25132C10.7493 6.14656 10.9137 6.18175 11.0781 6.27165C11.7604 6.6469 12.4509 6.64534 13.152 6.32325C14.3259 5.78304 14.7995 4.13192 14.0459 2.90922C13.5093 2.03831 12.4464 1.65524 11.4782 1.97343C11.3093 2.02893 11.1464 2.05004 10.9978 1.92887C10.8612 1.81707 10.7884 1.6701 10.8176 1.48403C10.8529 1.26513 10.9955 1.14005 11.1869 1.08611C12.3188 0.768705 13.3546 0.943042 14.2486 1.77095C14.9466 2.4167 15.2822 3.23913 15.3024 4.17805V4.17883Z" fill="#363740"/>
</g>
<defs>
<clipPath id="clip0_874_11345">
<rect width="18" height="15" rx="2" fill="white"/>
</clipPath>
</defs>
</svg>
