<svg width="25" height="21" viewBox="0 0 25 21" fill="none" xmlns="http://www.w3.org/2000/svg">
<path d="M13.2075 18.9869C13.3402 19.4819 13.4658 19.9506 13.6002 20.4524C12.3754 20.7832 11.1419 20.8811 9.89257 20.7465C7.68353 20.5079 5.73977 19.6617 4.09887 18.1747C0.73954 15.1318 -0.203076 10.2912 1.75973 6.25205C3.73911 2.17814 8.11074 -0.116414 12.597 0.573225C16.983 1.24756 20.5998 4.7237 21.1592 9.3974C21.6796 8.51839 22.2281 7.59298 22.7639 6.68943C23.2493 6.96276 23.6839 7.20752 24.0973 7.44015C23.0626 9.22617 22.0115 11.0403 20.9732 12.8326C19.1685 11.7995 17.3474 10.7569 15.5425 9.72317C15.7737 9.32244 16.0232 8.88908 16.2828 8.43854C17.3916 9.07413 18.512 9.71583 19.6394 10.3616C19.7016 8.1289 18.4196 4.8135 15.1907 3.0474C11.9042 1.24992 7.78542 1.76823 5.04515 4.32765C2.28939 6.9011 1.48823 10.983 3.09118 14.3099C3.99433 16.1844 5.38336 17.586 7.28162 18.4655C9.17769 19.3443 11.1531 19.4938 13.2075 18.9869Z" fill="white"/>
</svg>
