<svg width="15" height="15" viewBox="0 0 15 15" fill="none" xmlns="http://www.w3.org/2000/svg">
<g clip-path="url(#clip0_11008:2547)">
<path d="M14.7567 14.6924C14.8258 14.5932 14.8786 14.4813 14.9345 14.3631C14.9556 14.3182 14.9774 14.2722 15 14.227V3.36069C14.9913 3.34402 14.9817 3.32378 14.975 3.29957C14.85 2.84878 14.5095 2.58965 14.0417 2.58886C13.6583 2.58807 13.275 2.58807 12.8921 2.58807C12.6226 2.58807 12.3532 2.58807 12.0837 2.58807C11.8143 2.58807 11.5448 2.58807 11.2754 2.58807H11.2647H11.0869C11.021 2.58807 10.9679 2.53489 10.9679 2.46902V2.26664C10.9679 2.15235 10.9663 2.03568 10.9651 1.92299C10.9619 1.66902 10.9583 1.40632 10.9718 1.1468C11.0032 0.528938 10.7484 0.153541 10.1933 -0.0012207H4.81071C4.79564 0.0035412 4.78095 0.00830311 4.76587 0.013065C4.72103 0.0273507 4.67897 0.040446 4.6377 0.0559222C4.25913 0.195208 4.03929 0.52497 4.03413 0.961081C4.03056 1.26267 4.03135 1.56981 4.03214 1.86664C4.03254 1.99997 4.03294 2.1333 4.03294 2.26664V2.38688V2.46902C4.03294 2.53489 3.97976 2.58807 3.91389 2.58807H3.73611H2.925H2.11389C1.74365 2.58807 1.37302 2.58807 1.00278 2.58807C0.476984 2.58807 0.164683 2.82378 0.0190476 3.32894C0.0142857 3.34561 0.00714286 3.3595 0 3.37061V14.2365C0.0678571 14.4524 0.169048 14.6881 0.393651 14.8262C0.47381 14.8754 0.563889 14.9127 0.659127 14.952C0.695238 14.967 0.73254 14.9825 0.769444 14.9988H14.2369C14.4274 14.9365 14.6385 14.8627 14.7567 14.6924ZM4.68929 0.944018C4.68968 0.856716 4.72143 0.653145 5.0123 0.653145H5.01587C5.21508 0.654335 5.43373 0.654732 5.70397 0.654732C5.83968 0.654732 5.97579 0.654732 6.11191 0.654335C6.24722 0.654335 6.38254 0.653938 6.51786 0.653938H7.27143H8.27619H9.92421C10.2357 0.653938 10.3119 0.731319 10.3123 1.04759C10.3127 1.37576 10.3123 1.70354 10.3123 2.03568V2.45711C10.3123 2.52299 10.2591 2.57616 10.1933 2.57616H4.80754C4.74167 2.57616 4.68849 2.52299 4.68849 2.45711C4.68849 2.31664 4.68849 2.17695 4.68849 2.03807C4.6881 1.66227 4.6881 1.30711 4.68929 0.944018ZM13.9722 14.3444H7.4127H1.02817C0.714286 14.3444 0.655159 14.2218 0.654762 13.996C0.654365 12.3186 0.654365 10.6412 0.654762 8.96386V7.61307V7.49799C0.654762 7.4587 0.674206 7.4218 0.706746 7.39958C0.726984 7.38608 0.750397 7.37894 0.77381 7.37894C0.788492 7.37894 0.803175 7.38172 0.817064 7.38727L1.31548 7.58251C1.67619 7.72378 2.03016 7.86267 2.38452 8.00077L3.03373 8.25473C4.00833 8.63608 5.01627 9.03053 6.00833 9.41545C6.11389 9.45632 6.23413 9.52974 6.2254 9.73291C6.21667 9.93331 6.21905 10.1397 6.22143 10.3389C6.22183 10.3778 6.22222 10.4166 6.22262 10.4551C6.22659 10.8389 6.48214 11.1004 6.85913 11.1055C7.06746 11.1083 7.28175 11.1099 7.49643 11.1099C7.70516 11.1099 7.92024 11.1087 8.13571 11.1059C8.51429 11.1012 8.77183 10.8416 8.77659 10.4595V10.452C8.77937 10.2119 8.78254 9.96347 8.7746 9.72101C8.76984 9.5718 8.83135 9.48053 8.975 9.42458C10.2639 8.92259 11.5734 8.4095 12.8397 7.91346L13.8706 7.5095C13.9357 7.4841 14.0012 7.4591 14.0714 7.43291C14.1052 7.42021 14.1397 7.40712 14.1758 7.39323C14.1897 7.38807 14.204 7.38529 14.2183 7.38529C14.2409 7.38529 14.2635 7.39164 14.2833 7.40473C14.3151 7.42537 14.3353 7.46029 14.3373 7.49839C14.3385 7.51743 14.3393 7.53529 14.3405 7.55196C14.3429 7.58767 14.3448 7.6214 14.3448 7.65632C14.3452 9.7591 14.3452 11.8619 14.3452 13.9647C14.3452 14.2595 14.2615 14.3444 13.9722 14.3444ZM6.88691 10.3254V8.71347C6.88691 8.64759 6.94008 8.59442 7.00595 8.59442H7.99564C8.06151 8.59442 8.11468 8.64759 8.11468 8.71347V10.3254C8.11468 10.3912 8.06151 10.4444 7.99564 10.4444H7.00595C6.94008 10.4444 6.88691 10.3912 6.88691 10.3254ZM14.1591 6.6968C12.8317 7.21307 11.4829 7.74124 10.179 8.25156C9.81349 8.39481 9.44841 8.53767 9.08294 8.68053C9.05198 8.69243 9.02222 8.70235 8.99087 8.71267C8.97698 8.71704 8.9627 8.7218 8.94802 8.72696C8.93571 8.73132 8.92262 8.73331 8.90992 8.73331C8.88849 8.73331 8.86706 8.72735 8.84841 8.71624C8.81825 8.69799 8.79802 8.66743 8.79246 8.63291C8.7881 8.60632 8.78452 8.58093 8.78095 8.55553C8.77381 8.50632 8.76746 8.4595 8.75754 8.41585C8.69683 8.1472 8.48373 7.95275 8.23968 7.94362C7.98095 7.9337 7.72659 7.92894 7.48333 7.92894C7.2377 7.92894 6.99524 7.9341 6.7627 7.94402C6.48294 7.95593 6.2623 8.18648 6.2254 8.50473C6.22262 8.52934 6.22024 8.55354 6.21786 8.58212C6.21667 8.59759 6.21508 8.61386 6.2131 8.63212C6.20952 8.66942 6.18889 8.70275 6.15714 8.7222C6.1381 8.7337 6.11667 8.73966 6.09484 8.73966C6.08016 8.73966 6.06548 8.73688 6.05159 8.73132L5.62738 8.56505L4.86786 8.26783L4.06032 7.95156C3.01071 7.54005 1.9254 7.11505 0.856349 6.70037C0.713492 6.64481 0.652381 6.55394 0.653175 6.3964C0.655952 5.71704 0.655556 5.02577 0.655556 4.35751C0.655556 4.10473 0.655556 3.85196 0.655556 3.59918C0.655556 3.33608 0.747222 3.24283 1.00556 3.24283C3.16508 3.24283 5.3246 3.24283 7.48413 3.24283C9.65437 3.24283 11.825 3.24283 13.9956 3.24283C14.254 3.24283 14.3456 3.33608 14.3456 3.59957C14.3456 3.86029 14.3456 4.12061 14.3456 4.38132C14.3456 5.0468 14.3456 5.73489 14.3476 6.41148C14.3472 6.51664 14.325 6.63212 14.1591 6.6968Z" fill="#FF8D24"/>
</g>
<defs>
<clipPath id="clip0_11008:2547">
<rect width="15" height="15" fill="white"/>
</clipPath>
</defs>
</svg>
