<svg width="103" height="103" viewBox="0 0 103 103" fill="none" xmlns="http://www.w3.org/2000/svg">
<path d="M99.1375 38.9468L90.125 32.1118V14.4843C90.125 14.0575 89.9554 13.6482 89.6536 13.3463C89.3518 13.0445 88.9425 12.875 88.5156 12.875H64.7725L52.4656 3.5406C52.1859 3.3286 51.8445 3.21387 51.4936 3.21387C51.1426 3.21387 50.8012 3.3286 50.5215 3.5406L38.2275 12.875H14.4844C14.0575 12.875 13.6482 13.0445 13.3464 13.3463C13.0446 13.6482 12.875 14.0575 12.875 14.4843V32.1134L3.8625 38.9468C3.66262 39.0968 3.50039 39.2911 3.38866 39.5146C3.27692 39.7381 3.21875 39.9845 3.21875 40.2343V98.1719C3.21875 98.5987 3.38831 99.008 3.69012 99.3099C3.99194 99.6117 4.40129 99.7812 4.82812 99.7812H98.1719C98.5987 99.7812 99.0081 99.6117 99.3099 99.3099C99.6117 99.008 99.7812 98.5987 99.7812 98.1719V40.2343C99.7812 39.9845 99.7231 39.7381 99.6113 39.5146C99.4996 39.2911 99.3374 39.0968 99.1375 38.9468ZM6.4375 43.4756L40.3535 69.2031L6.4375 94.9306V43.4756ZM51.5 64.7854L93.3872 96.5625H9.6128L51.5 64.7854ZM62.6465 69.2031L96.5625 43.4756V94.9306L62.6465 69.2031ZM95.5084 40.2343L90.125 44.3173V36.153L95.5084 40.2343ZM51.5 6.84786L59.4455 12.875H43.5545L51.5 6.84786ZM86.9062 16.0937V46.7588L59.983 67.1801L52.4656 61.4781C52.1859 61.2661 51.8445 61.1514 51.4936 61.1514C51.1426 61.1514 50.8012 61.2661 50.5215 61.4781L43.0105 67.1769L16.0938 46.7588V16.0937H86.9062ZM12.875 44.3173L7.49164 40.2343L12.875 36.1514V44.3173Z" fill="#C8C8C8"/>
<path d="M59.1562 30.75H56.3593C56.2027 29.2054 54.8984 28 53.3125 28H50.5625C48.9766 28 47.6723 29.2054 47.5157 30.75H44.7188C43.2172 30.75 42 31.9672 42 33.4688V34.8438C42 35.7757 42.7555 36.5312 43.6875 36.5312H60.1875C61.1195 36.5312 61.875 35.7757 61.875 34.8438V33.4688C61.875 31.9672 60.6578 30.75 59.1562 30.75Z" fill="white" stroke="#C8C8C8" stroke-width="2"/>
<path d="M43.0912 37.1789C43.0582 36.4861 43.611 35.9062 44.3047 35.9062H59.5703C60.2639 35.9062 60.8168 36.4861 60.7837 37.1789L60.2165 49.083C60.1388 50.7178 58.7942 52 57.1577 52H46.7172C45.0808 52 43.7362 50.7179 43.6584 49.0831L43.0912 37.1789ZM43.0912 37.1789C43.0912 37.1789 43.0912 37.1789 43.0912 37.179L43.6584 49.083L43.0912 37.1789Z" fill="white" stroke="#C8C8C8" stroke-width="2"/>
</svg>
