<svg width="103" height="103" viewBox="0 0 103 103" fill="none" xmlns="http://www.w3.org/2000/svg">
<path d="M99.1375 38.9468L90.125 32.1118V14.4843C90.125 14.0575 89.9554 13.6482 89.6536 13.3463C89.3518 13.0445 88.9425 12.875 88.5156 12.875H64.7725L52.4656 3.5406C52.1859 3.3286 51.8445 3.21387 51.4936 3.21387C51.1426 3.21387 50.8012 3.3286 50.5215 3.5406L38.2275 12.875H14.4844C14.0575 12.875 13.6482 13.0445 13.3464 13.3463C13.0446 13.6482 12.875 14.0575 12.875 14.4843V32.1134L3.8625 38.9468C3.66262 39.0968 3.50039 39.2911 3.38866 39.5146C3.27692 39.7381 3.21875 39.9845 3.21875 40.2343V98.1719C3.21875 98.5987 3.38831 99.008 3.69012 99.3099C3.99194 99.6117 4.40129 99.7812 4.82812 99.7812H98.1719C98.5987 99.7812 99.0081 99.6117 99.3099 99.3099C99.6117 99.008 99.7812 98.5987 99.7812 98.1719V40.2343C99.7812 39.9845 99.7231 39.7381 99.6113 39.5146C99.4996 39.2911 99.3374 39.0968 99.1375 38.9468ZM6.4375 43.4756L40.3535 69.2031L6.4375 94.9306V43.4756ZM51.5 64.7854L93.3872 96.5625H9.6128L51.5 64.7854ZM62.6465 69.2031L96.5625 43.4756V94.9306L62.6465 69.2031ZM95.5084 40.2343L90.125 44.3173V36.153L95.5084 40.2343ZM51.5 6.84786L59.4455 12.875H43.5545L51.5 6.84786ZM86.9062 16.0937V46.7588L59.983 67.1801L52.4656 61.4781C52.1859 61.2661 51.8445 61.1514 51.4936 61.1514C51.1426 61.1514 50.8012 61.2661 50.5215 61.4781L43.0105 67.1769L16.0938 46.7588V16.0937H86.9062ZM12.875 44.3173L7.49164 40.2343L12.875 36.1514V44.3173Z" fill="#C8C8C8"/>
<path d="M60.2876 36.8357C60.2876 32.5405 57.4752 29.0692 53.5818 28.0804C53.5518 28.0701 53.5218 28.0392 53.5218 27.998V27.3387C53.5218 26.4838 53.1314 25.6289 52.4008 25.2374C51.0096 24.4752 49.4682 25.6701 49.4682 27.0915V28.0701C45.5448 29.0383 42.7023 32.5199 42.7023 36.8357V44.4581C42.7023 44.4787 42.6923 44.4993 42.6823 44.5199L40.9608 46.2916C40.3403 46.9199 40 47.7748 40 48.671H63C63 47.7748 62.6597 46.9199 62.0392 46.2916L60.3177 44.5199C60.2976 44.4993 60.2977 44.4787 60.2977 44.4581V36.8357H60.2876Z" fill="white" stroke="#C8C8C8" stroke-width="2.5" stroke-linecap="round" stroke-linejoin="round"/>
<path d="M51.5008 51.4521C51.6409 51.4521 51.9111 51.4521 52.0412 51.4521C52.9921 51.3079 53.6626 50.6178 53.9329 49.7835C54.073 49.5054 54.2031 49.083 54.2031 48.671H48.8785C48.8284 48.671 48.7884 48.7122 48.7984 48.7637C48.8385 50.247 50.0395 51.4521 51.5008 51.4521Z" fill="white" stroke="#C8C8C8" stroke-width="2.5" stroke-linecap="round" stroke-linejoin="round"/>
</svg>
