<svg id="e287cff5-a081-40bf-8226-e7d859089afb" data-name="Capa 1" xmlns="http://www.w3.org/2000/svg" viewBox="0 0 174.98 174.98"><path d="M156,44.26h-18V19a18.05,18.05,0,0,0-18-18H55A18.05,18.05,0,0,0,37,19V44.26H19a18.06,18.06,0,0,0-18,18v50.45a18.05,18.05,0,0,0,18,18H37V156a18.05,18.05,0,0,0,18,18H120a18,18,0,0,0,18-18V130.79h18a18,18,0,0,0,18-18V62.3A18.05,18.05,0,0,0,156,44.26ZM44.19,19A10.87,10.87,0,0,1,55,8.18H119.9A10.86,10.86,0,0,1,130.72,19V44.26H44.19ZM120,166.87H55.08a10.87,10.87,0,0,1-10.82-10.82V127.19h0V102h86.53v24.53a3.19,3.19,0,0,0,0,1.33v28.2A10.87,10.87,0,0,1,120,166.87Zm46.84-54.12A10.87,10.87,0,0,1,156,123.58h-18V98.32a3.59,3.59,0,0,0-3.61-3.61H40.65A3.6,3.6,0,0,0,37,98.32v25.26H19A10.87,10.87,0,0,1,8.18,112.75V62.3A10.87,10.87,0,0,1,19,51.48H156A10.87,10.87,0,0,1,166.81,62.3Z" style="fill:#fff"/><path d="M105.53,145.22H62.3a3.61,3.61,0,1,0,0,7.22h43.23a3.61,3.61,0,0,0,0-7.22Z" style="fill:#fff"/><path d="M105.53,130.79H62.3a3.61,3.61,0,1,0,0,7.22h43.23a3.61,3.61,0,0,0,0-7.22Z" style="fill:#fff"/><path d="M62.23,123.58H76.67a3.61,3.61,0,0,0,0-7.22H62.23a3.61,3.61,0,0,0,0,7.22Z" style="fill:#fff"/></svg>