<svg width="289" height="268" viewBox="0 0 289 268" fill="none" xmlns="http://www.w3.org/2000/svg">
<path d="M188.541 267.2L188.641 267.1H188.441L188.541 267.2Z" fill="white" fill-opacity="0.04"/>
<path d="M111.588 267.2H159.321V267.1H111.488L111.588 267.2Z" fill="white" fill-opacity="0.04"/>
<path d="M35.1348 267.2H82.968L82.8679 267.1H35.1348V267.2Z" fill="white" fill-opacity="0.04"/>
<path d="M27.9297 76.6C27.9297 95.1 38.437 115.8 60.052 139.6L111.888 191.4L114.99 188.3L141.909 161.4C146.512 156.6 152.016 151.5 157.52 145.8C183.237 119.1 196.146 96.7 196.146 76.5C196.146 42.5 175.832 13.2 146.712 0H77.364C48.2438 13.3 27.9297 42.6 27.9297 76.6ZM111.988 29C138.306 29 159.621 50.4 159.621 76.6C159.621 80.3 158.22 85.2 155.318 91C152.616 96.6 148.714 102.8 143.81 109.4C139.207 115.7 133.703 122.3 127.899 128.5C122.695 134.1 117.192 139.5 111.888 144.1C106.584 139.5 101.08 134.2 95.8769 128.5C90.0728 122.3 84.569 115.7 79.9658 109.4C75.0624 102.7 71.2598 96.5 68.4578 91C65.856 85.2 64.355 80.3 64.355 76.6C64.355 50.3 85.7698 29 111.988 29Z" fill="white" fill-opacity="0.04"/>
<path d="M126.197 205.4L150.114 229.2L255.187 124.2L234.372 97.2998L126.197 205.4Z" fill="white" fill-opacity="0.04"/>
<path d="M267.897 140.6L164.625 243.3L188.442 267.1H188.642L288.511 167.2L267.897 140.6Z" fill="white" fill-opacity="0.04"/>
<path d="M0.310547 156L111.488 267.1H159.321L0.310547 108.2V156Z" fill="white" fill-opacity="0.04"/>
<path d="M0.310547 232.3L35.1347 267.1H82.8679L0.310547 184.6V232.3Z" fill="white" fill-opacity="0.04"/>
</svg>
