<svg width="20" height="20" viewBox="0 0 20 20" fill="none" xmlns="http://www.w3.org/2000/svg">
<path d="M6.66732 16.6666V17.4166C6.86623 17.4166 7.057 17.3376 7.19765 17.197L6.66732 16.6666ZM3.33398 16.6666H2.58398C2.58398 17.0808 2.91977 17.4166 3.33398 17.4166V16.6666ZM3.33398 13.3333L2.80365 12.803C2.663 12.9436 2.58398 13.1344 2.58398 13.3333H3.33398ZM12.7447 3.92254L13.2751 4.45287V4.45287L12.7447 3.92254ZM13.9232 3.92254L13.3929 4.45287V4.45287L13.9232 3.92254ZM16.0781 6.07737L16.6084 5.54704V5.54704L16.0781 6.07737ZM16.0781 7.25588L15.5477 6.72555L16.0781 7.25588ZM6.66732 15.9166H3.33398V17.4166H6.66732V15.9166ZM4.08398 16.6666V13.3333H2.58398V16.6666H4.08398ZM3.86431 13.8636L13.2751 4.45287L12.2144 3.39221L2.80365 12.803L3.86431 13.8636ZM13.3929 4.45287L15.5477 6.6077L16.6084 5.54704L14.4536 3.39221L13.3929 4.45287ZM15.5477 6.72555L6.13699 16.1363L7.19765 17.197L16.6084 7.78621L15.5477 6.72555ZM15.5477 6.6077C15.5803 6.64024 15.5803 6.693 15.5477 6.72555L16.6084 7.78621C17.2267 7.16788 17.2267 6.16537 16.6084 5.54704L15.5477 6.6077ZM13.2751 4.45287C13.3076 4.42033 13.3604 4.42033 13.3929 4.45287L14.4536 3.39221C13.8352 2.77388 12.8327 2.77388 12.2144 3.39221L13.2751 4.45287Z" fill="#363740"/>
<path d="M10 6.66663L13.3333 9.99996" stroke="#363740" stroke-width="1.5" stroke-linecap="round" stroke-linejoin="round"/>
</svg>
