<svg width="16" height="16" viewBox="0 0 16 16" fill="none" xmlns="http://www.w3.org/2000/svg">
<path d="M1.72344 0V12H0.270312V0H1.72344ZM6.8875 3.54688L3.2 7.49219L1.1375 9.63281L1.02031 8.09375L2.49687 6.32812L5.12187 3.54688H6.8875ZM5.56719 12L2.55156 7.96875L3.30156 6.67969L7.27031 12H5.56719ZM13.9 3.54688H15.2125V11.8203C15.2125 12.5651 15.0615 13.2005 14.7594 13.7266C14.4573 14.2526 14.0354 14.651 13.4937 14.9219C12.9573 15.1979 12.3375 15.3359 11.6344 15.3359C11.3427 15.3359 10.999 15.2891 10.6031 15.1953C10.2125 15.1068 9.82708 14.9531 9.44687 14.7344C9.07187 14.5208 8.75677 14.2318 8.50156 13.8672L9.25937 13.0078C9.61354 13.4349 9.98333 13.7318 10.3687 13.8984C10.7594 14.0651 11.1448 14.1484 11.525 14.1484C11.9833 14.1484 12.3792 14.0625 12.7125 13.8906C13.0458 13.7188 13.3036 13.4635 13.4859 13.125C13.6734 12.7917 13.7672 12.3802 13.7672 11.8906V5.40625L13.9 3.54688ZM8.07969 7.86719V7.70312C8.07969 7.05729 8.15521 6.47135 8.30625 5.94531C8.4625 5.41406 8.68385 4.95833 8.97031 4.57812C9.26198 4.19792 9.61354 3.90625 10.025 3.70312C10.4365 3.49479 10.9 3.39062 11.4156 3.39062C11.9469 3.39062 12.4104 3.48438 12.8062 3.67188C13.2073 3.85417 13.5458 4.1224 13.8219 4.47656C14.1031 4.82552 14.3245 5.2474 14.4859 5.74219C14.6474 6.23698 14.7594 6.79688 14.8219 7.42188V8.14062C14.7646 8.76042 14.6526 9.31771 14.4859 9.8125C14.3245 10.3073 14.1031 10.7292 13.8219 11.0781C13.5458 11.4271 13.2073 11.6953 12.8062 11.8828C12.4052 12.0651 11.9365 12.1562 11.4 12.1562C10.8948 12.1562 10.4365 12.0495 10.025 11.8359C9.61875 11.6224 9.26979 11.3229 8.97812 10.9375C8.68646 10.5521 8.4625 10.099 8.30625 9.57812C8.15521 9.05208 8.07969 8.48177 8.07969 7.86719ZM9.525 7.70312V7.86719C9.525 8.28906 9.56667 8.6849 9.65 9.05469C9.73854 9.42448 9.87135 9.75 10.0484 10.0312C10.2307 10.3125 10.4625 10.5339 10.7437 10.6953C11.025 10.8516 11.3609 10.9297 11.7516 10.9297C12.2307 10.9297 12.6266 10.8281 12.9391 10.625C13.2516 10.4219 13.499 10.1536 13.6812 9.82031C13.8687 9.48698 14.0146 9.125 14.1187 8.73438V6.85156C14.0615 6.5651 13.9729 6.28906 13.8531 6.02344C13.7385 5.7526 13.5875 5.51302 13.4 5.30469C13.2177 5.09115 12.9911 4.92188 12.7203 4.79688C12.4495 4.67188 12.1318 4.60938 11.7672 4.60938C11.3714 4.60938 11.0302 4.69271 10.7437 4.85938C10.4625 5.02083 10.2307 5.24479 10.0484 5.53125C9.87135 5.8125 9.73854 6.14062 9.65 6.51562C9.56667 6.88542 9.525 7.28125 9.525 7.70312Z" fill="#363740"/>
</svg>
