<svg width="12" height="9" viewBox="0 0 12 9" fill="none" xmlns="http://www.w3.org/2000/svg">
<path d="M1.50781 2.22656V9H0.0546875V0.546875H1.42969L1.50781 2.22656ZM1.21094 4.45312L0.539062 4.42969C0.544271 3.85156 0.619792 3.31771 0.765625 2.82812C0.911458 2.33333 1.1276 1.90365 1.41406 1.53906C1.70052 1.17448 2.05729 0.893229 2.48438 0.695312C2.91146 0.492188 3.40625 0.390625 3.96875 0.390625C4.36458 0.390625 4.72917 0.447917 5.0625 0.5625C5.39583 0.671875 5.6849 0.846354 5.92969 1.08594C6.17448 1.32552 6.36458 1.63281 6.5 2.00781C6.63542 2.38281 6.70312 2.83594 6.70312 3.36719V9H5.25781V3.4375C5.25781 2.99479 5.18229 2.64062 5.03125 2.375C4.88542 2.10938 4.67708 1.91667 4.40625 1.79688C4.13542 1.67188 3.81771 1.60938 3.45312 1.60938C3.02604 1.60938 2.66927 1.6849 2.38281 1.83594C2.09635 1.98698 1.86719 2.19531 1.69531 2.46094C1.52344 2.72656 1.39844 3.03125 1.32031 3.375C1.2474 3.71354 1.21094 4.07292 1.21094 4.45312ZM6.6875 3.65625L5.71875 3.95312C5.72396 3.48958 5.79948 3.04427 5.94531 2.61719C6.09635 2.1901 6.3125 1.8099 6.59375 1.47656C6.88021 1.14323 7.23177 0.880208 7.64844 0.6875C8.0651 0.489583 8.54167 0.390625 9.07812 0.390625C9.53125 0.390625 9.93229 0.450521 10.2812 0.570312C10.6354 0.690104 10.9323 0.875 11.1719 1.125C11.4167 1.36979 11.6016 1.6849 11.7266 2.07031C11.8516 2.45573 11.9141 2.91406 11.9141 3.44531V9H10.4609V3.42969C10.4609 2.95573 10.3854 2.58854 10.2344 2.32812C10.0885 2.0625 9.88021 1.8776 9.60938 1.77344C9.34375 1.66406 9.02604 1.60938 8.65625 1.60938C8.33854 1.60938 8.05729 1.66406 7.8125 1.77344C7.56771 1.88281 7.36198 2.03385 7.19531 2.22656C7.02865 2.41406 6.90104 2.63021 6.8125 2.875C6.72917 3.11979 6.6875 3.38021 6.6875 3.65625Z" fill="#363740"/>
</svg>
