<svg width="38" height="13" viewBox="0 0 38 13" fill="none" xmlns="http://www.w3.org/2000/svg">
<path d="M6.20469 0.625L1.4625 12.9766H0.220314L4.97031 0.625H6.20469ZM8.67813 0.625H10.1391L13.8656 9.89844L17.5844 0.625H19.0531L14.4281 12H13.2875L8.67813 0.625ZM8.20156 0.625H9.49063L9.70156 7.5625V12H8.20156V0.625ZM18.2328 0.625H19.5219V12H18.0219V7.5625L18.2328 0.625ZM25.6594 12.1562C25.0708 12.1562 24.537 12.0573 24.0578 11.8594C23.5839 11.6562 23.175 11.3724 22.8313 11.0078C22.4927 10.6432 22.2323 10.2109 22.05 9.71094C21.8677 9.21094 21.7766 8.66406 21.7766 8.07031V7.74219C21.7766 7.05469 21.8781 6.44271 22.0813 5.90625C22.2844 5.36458 22.5604 4.90625 22.9094 4.53125C23.2583 4.15625 23.6542 3.8724 24.0969 3.67969C24.5396 3.48698 24.9979 3.39062 25.4719 3.39062C26.076 3.39062 26.5969 3.49479 27.0344 3.70312C27.4771 3.91146 27.8391 4.20312 28.1203 4.57812C28.4016 4.94792 28.6099 5.38542 28.7453 5.89062C28.8807 6.39062 28.9484 6.9375 28.9484 7.53125V8.17969H22.6359V7H27.5031V6.89062C27.4823 6.51562 27.4042 6.15104 27.2688 5.79688C27.1385 5.44271 26.9302 5.15104 26.6438 4.92188C26.3573 4.69271 25.9667 4.57812 25.4719 4.57812C25.1438 4.57812 24.8417 4.64844 24.5656 4.78906C24.2896 4.92448 24.0526 5.1276 23.8547 5.39844C23.6568 5.66927 23.5031 6 23.3938 6.39062C23.2844 6.78125 23.2297 7.23177 23.2297 7.74219V8.07031C23.2297 8.47135 23.2844 8.84896 23.3938 9.20312C23.5083 9.55208 23.6724 9.85938 23.8859 10.125C24.1047 10.3906 24.3677 10.599 24.675 10.75C24.9875 10.901 25.3417 10.9766 25.7375 10.9766C26.2479 10.9766 26.6802 10.8724 27.0344 10.6641C27.3885 10.4557 27.6984 10.1771 27.9641 9.82812L28.8391 10.5234C28.6568 10.7995 28.425 11.0625 28.1438 11.3125C27.8625 11.5625 27.5161 11.7656 27.1047 11.9219C26.6984 12.0781 26.2167 12.1562 25.6594 12.1562ZM35.7578 9.75781C35.7578 9.54948 35.7109 9.35677 35.6172 9.17969C35.5286 8.9974 35.3438 8.83333 35.0625 8.6875C34.7865 8.53646 34.3698 8.40625 33.8125 8.29688C33.3438 8.19792 32.9193 8.08073 32.5391 7.94531C32.1641 7.8099 31.8438 7.64583 31.5781 7.45312C31.3177 7.26042 31.1172 7.03385 30.9766 6.77344C30.8359 6.51302 30.7656 6.20833 30.7656 5.85938C30.7656 5.52604 30.8385 5.21094 30.9844 4.91406C31.1354 4.61719 31.3464 4.35417 31.6172 4.125C31.8932 3.89583 32.224 3.71615 32.6094 3.58594C32.9948 3.45573 33.4245 3.39062 33.8984 3.39062C34.5755 3.39062 35.1536 3.51042 35.6328 3.75C36.112 3.98958 36.4792 4.3099 36.7344 4.71094C36.9896 5.10677 37.1172 5.54688 37.1172 6.03125H35.6719C35.6719 5.79688 35.6016 5.57031 35.4609 5.35156C35.3255 5.1276 35.125 4.94271 34.8594 4.79688C34.599 4.65104 34.2786 4.57812 33.8984 4.57812C33.4974 4.57812 33.1719 4.64062 32.9219 4.76562C32.6771 4.88542 32.4974 5.03906 32.3828 5.22656C32.2734 5.41406 32.2188 5.61198 32.2188 5.82031C32.2188 5.97656 32.2448 6.11719 32.2969 6.24219C32.3542 6.36198 32.4531 6.47396 32.5938 6.57812C32.7344 6.67708 32.9323 6.77083 33.1875 6.85938C33.4427 6.94792 33.7682 7.03646 34.1641 7.125C34.8568 7.28125 35.4271 7.46875 35.875 7.6875C36.3229 7.90625 36.6563 8.17448 36.875 8.49219C37.0938 8.8099 37.2031 9.19531 37.2031 9.64844C37.2031 10.0182 37.125 10.3568 36.9688 10.6641C36.8177 10.9714 36.5964 11.237 36.3047 11.4609C36.0182 11.6797 35.6745 11.8516 35.2734 11.9766C34.8776 12.0964 34.4323 12.1562 33.9375 12.1562C33.1927 12.1562 32.5625 12.0234 32.0469 11.7578C31.5313 11.4922 31.1406 11.1484 30.875 10.7266C30.6094 10.3047 30.4766 9.85938 30.4766 9.39062H31.9297C31.9505 9.78646 32.0651 10.1016 32.2734 10.3359C32.4818 10.5651 32.737 10.7292 33.0391 10.8281C33.3411 10.9219 33.6406 10.9688 33.9375 10.9688C34.3333 10.9688 34.6641 10.9167 34.9297 10.8125C35.2005 10.7083 35.4063 10.5651 35.5469 10.3828C35.6875 10.2005 35.7578 9.99219 35.7578 9.75781Z" fill="#9899AA"/>
</svg>
