<svg width="47" height="13" viewBox="0 0 47 13" fill="none" xmlns="http://www.w3.org/2000/svg">
<path d="M0.528126 0.625H1.98906L5.71563 9.89844L9.43438 0.625H10.9031L6.27813 12H5.1375L0.528126 0.625ZM0.0515633 0.625H1.34063L1.55156 7.5625V12H0.0515633V0.625ZM10.0828 0.625H11.3719V12H9.87188V7.5625L10.0828 0.625ZM17.5094 12.1562C16.9208 12.1562 16.387 12.0573 15.9078 11.8594C15.4339 11.6562 15.025 11.3724 14.6813 11.0078C14.3427 10.6432 14.0823 10.2109 13.9 9.71094C13.7177 9.21094 13.6266 8.66406 13.6266 8.07031V7.74219C13.6266 7.05469 13.7281 6.44271 13.9313 5.90625C14.1344 5.36458 14.4104 4.90625 14.7594 4.53125C15.1083 4.15625 15.5042 3.8724 15.9469 3.67969C16.3896 3.48698 16.8479 3.39062 17.3219 3.39062C17.926 3.39062 18.4469 3.49479 18.8844 3.70312C19.3271 3.91146 19.6891 4.20312 19.9703 4.57812C20.2516 4.94792 20.4599 5.38542 20.5953 5.89062C20.7307 6.39062 20.7984 6.9375 20.7984 7.53125V8.17969H14.4859V7H19.3531V6.89062C19.3323 6.51562 19.2542 6.15104 19.1188 5.79688C18.9885 5.44271 18.7802 5.15104 18.4938 4.92188C18.2073 4.69271 17.8167 4.57812 17.3219 4.57812C16.9938 4.57812 16.6917 4.64844 16.4156 4.78906C16.1396 4.92448 15.9026 5.1276 15.7047 5.39844C15.5068 5.66927 15.3531 6 15.2438 6.39062C15.1344 6.78125 15.0797 7.23177 15.0797 7.74219V8.07031C15.0797 8.47135 15.1344 8.84896 15.2438 9.20312C15.3583 9.55208 15.5224 9.85938 15.7359 10.125C15.9547 10.3906 16.2177 10.599 16.525 10.75C16.8375 10.901 17.1917 10.9766 17.5875 10.9766C18.0979 10.9766 18.5302 10.8724 18.8844 10.6641C19.2385 10.4557 19.5484 10.1771 19.8141 9.82812L20.6891 10.5234C20.5068 10.7995 20.275 11.0625 19.9938 11.3125C19.7125 11.5625 19.3661 11.7656 18.9547 11.9219C18.5484 12.0781 18.0667 12.1562 17.5094 12.1562ZM27.6078 9.75781C27.6078 9.54948 27.5609 9.35677 27.4672 9.17969C27.3786 8.9974 27.1938 8.83333 26.9125 8.6875C26.6365 8.53646 26.2198 8.40625 25.6625 8.29688C25.1938 8.19792 24.7693 8.08073 24.3891 7.94531C24.0141 7.8099 23.6938 7.64583 23.4281 7.45312C23.1677 7.26042 22.9672 7.03385 22.8266 6.77344C22.6859 6.51302 22.6156 6.20833 22.6156 5.85938C22.6156 5.52604 22.6885 5.21094 22.8344 4.91406C22.9854 4.61719 23.1964 4.35417 23.4672 4.125C23.7432 3.89583 24.074 3.71615 24.4594 3.58594C24.8448 3.45573 25.2745 3.39062 25.7484 3.39062C26.4255 3.39062 27.0036 3.51042 27.4828 3.75C27.962 3.98958 28.3292 4.3099 28.5844 4.71094C28.8396 5.10677 28.9672 5.54688 28.9672 6.03125H27.5219C27.5219 5.79688 27.4516 5.57031 27.3109 5.35156C27.1755 5.1276 26.975 4.94271 26.7094 4.79688C26.449 4.65104 26.1286 4.57812 25.7484 4.57812C25.3474 4.57812 25.0219 4.64062 24.7719 4.76562C24.5271 4.88542 24.3474 5.03906 24.2328 5.22656C24.1234 5.41406 24.0688 5.61198 24.0688 5.82031C24.0688 5.97656 24.0948 6.11719 24.1469 6.24219C24.2042 6.36198 24.3031 6.47396 24.4438 6.57812C24.5844 6.67708 24.7823 6.77083 25.0375 6.85938C25.2927 6.94792 25.6182 7.03646 26.0141 7.125C26.7068 7.28125 27.2771 7.46875 27.725 7.6875C28.1729 7.90625 28.5063 8.17448 28.725 8.49219C28.9438 8.8099 29.0531 9.19531 29.0531 9.64844C29.0531 10.0182 28.975 10.3568 28.8188 10.6641C28.6677 10.9714 28.4464 11.237 28.1547 11.4609C27.8682 11.6797 27.5245 11.8516 27.1234 11.9766C26.7276 12.0964 26.2823 12.1562 25.7875 12.1562C25.0427 12.1562 24.4125 12.0234 23.8969 11.7578C23.3813 11.4922 22.9906 11.1484 22.725 10.7266C22.4594 10.3047 22.3266 9.85938 22.3266 9.39062H23.7797C23.8005 9.78646 23.9151 10.1016 24.1234 10.3359C24.3318 10.5651 24.587 10.7292 24.8891 10.8281C25.1911 10.9219 25.4906 10.9688 25.7875 10.9688C26.1833 10.9688 26.5141 10.9167 26.7797 10.8125C27.0505 10.7083 27.2563 10.5651 27.3969 10.3828C27.5375 10.2005 27.6078 9.99219 27.6078 9.75781ZM34.6594 12.1562C34.0708 12.1562 33.537 12.0573 33.0578 11.8594C32.5839 11.6562 32.175 11.3724 31.8313 11.0078C31.4927 10.6432 31.2323 10.2109 31.05 9.71094C30.8677 9.21094 30.7766 8.66406 30.7766 8.07031V7.74219C30.7766 7.05469 30.8781 6.44271 31.0813 5.90625C31.2844 5.36458 31.5604 4.90625 31.9094 4.53125C32.2583 4.15625 32.6542 3.8724 33.0969 3.67969C33.5396 3.48698 33.9979 3.39062 34.4719 3.39062C35.076 3.39062 35.5969 3.49479 36.0344 3.70312C36.4771 3.91146 36.8391 4.20312 37.1203 4.57812C37.4016 4.94792 37.6099 5.38542 37.7453 5.89062C37.8807 6.39062 37.9484 6.9375 37.9484 7.53125V8.17969H31.6359V7H36.5031V6.89062C36.4823 6.51562 36.4042 6.15104 36.2688 5.79688C36.1385 5.44271 35.9302 5.15104 35.6438 4.92188C35.3573 4.69271 34.9667 4.57812 34.4719 4.57812C34.1438 4.57812 33.8417 4.64844 33.5656 4.78906C33.2896 4.92448 33.0526 5.1276 32.8547 5.39844C32.6568 5.66927 32.5031 6 32.3938 6.39062C32.2844 6.78125 32.2297 7.23177 32.2297 7.74219V8.07031C32.2297 8.47135 32.2844 8.84896 32.3938 9.20312C32.5083 9.55208 32.6724 9.85938 32.8859 10.125C33.1047 10.3906 33.3677 10.599 33.675 10.75C33.9875 10.901 34.3417 10.9766 34.7375 10.9766C35.2479 10.9766 35.6802 10.8724 36.0344 10.6641C36.3885 10.4557 36.6984 10.1771 36.9641 9.82812L37.8391 10.5234C37.6568 10.7995 37.425 11.0625 37.1438 11.3125C36.8625 11.5625 36.5161 11.7656 36.1047 11.9219C35.6984 12.0781 35.2167 12.1562 34.6594 12.1562ZM44.7578 9.75781C44.7578 9.54948 44.7109 9.35677 44.6172 9.17969C44.5286 8.9974 44.3438 8.83333 44.0625 8.6875C43.7865 8.53646 43.3698 8.40625 42.8125 8.29688C42.3438 8.19792 41.9193 8.08073 41.5391 7.94531C41.1641 7.8099 40.8438 7.64583 40.5781 7.45312C40.3177 7.26042 40.1172 7.03385 39.9766 6.77344C39.8359 6.51302 39.7656 6.20833 39.7656 5.85938C39.7656 5.52604 39.8385 5.21094 39.9844 4.91406C40.1354 4.61719 40.3464 4.35417 40.6172 4.125C40.8932 3.89583 41.224 3.71615 41.6094 3.58594C41.9948 3.45573 42.4245 3.39062 42.8984 3.39062C43.5755 3.39062 44.1536 3.51042 44.6328 3.75C45.112 3.98958 45.4792 4.3099 45.7344 4.71094C45.9896 5.10677 46.1172 5.54688 46.1172 6.03125H44.6719C44.6719 5.79688 44.6016 5.57031 44.4609 5.35156C44.3255 5.1276 44.125 4.94271 43.8594 4.79688C43.599 4.65104 43.2786 4.57812 42.8984 4.57812C42.4974 4.57812 42.1719 4.64062 41.9219 4.76562C41.6771 4.88542 41.4974 5.03906 41.3828 5.22656C41.2734 5.41406 41.2188 5.61198 41.2188 5.82031C41.2188 5.97656 41.2448 6.11719 41.2969 6.24219C41.3542 6.36198 41.4531 6.47396 41.5938 6.57812C41.7344 6.67708 41.9323 6.77083 42.1875 6.85938C42.4427 6.94792 42.7682 7.03646 43.1641 7.125C43.8568 7.28125 44.4271 7.46875 44.875 7.6875C45.3229 7.90625 45.6562 8.17448 45.875 8.49219C46.0938 8.8099 46.2031 9.19531 46.2031 9.64844C46.2031 10.0182 46.125 10.3568 45.9688 10.6641C45.8177 10.9714 45.5964 11.237 45.3047 11.4609C45.0182 11.6797 44.6745 11.8516 44.2734 11.9766C43.8776 12.0964 43.4323 12.1562 42.9375 12.1562C42.1927 12.1562 41.5625 12.0234 41.0469 11.7578C40.5312 11.4922 40.1406 11.1484 39.875 10.7266C39.6094 10.3047 39.4766 9.85938 39.4766 9.39062H40.9297C40.9505 9.78646 41.0651 10.1016 41.2734 10.3359C41.4818 10.5651 41.737 10.7292 42.0391 10.8281C42.3411 10.9219 42.6406 10.9688 42.9375 10.9688C43.3333 10.9688 43.6641 10.9167 43.9297 10.8125C44.2005 10.7083 44.4062 10.5651 44.5469 10.3828C44.6875 10.2005 44.7578 9.99219 44.7578 9.75781Z" fill="#9899AA"/>
</svg>
