<svg width="161" height="161" viewBox="0 0 161 161" fill="none" xmlns="http://www.w3.org/2000/svg">
<rect width="161" height="161" rx="9" fill="#EAEAEA"/>
<g clip-path="url(#clip0)">
<path d="M107.415 57.1382H96.0248L95.7529 55.9727C94.6512 51.2968 90.4587 48.0391 85.5651 48.0391H75.4202C70.5409 48.0391 66.3485 51.2968 65.2324 55.9727L64.9605 57.1382H53.585C49.0921 57.1382 45.4434 60.7189 45.4434 65.114V95.4726C45.4434 100.106 49.2781 103.87 54 103.87H107C111.722 103.87 115.556 100.106 115.556 95.4726V65.114C115.556 60.7189 111.908 57.1382 107.415 57.1382ZM112.036 95.4726C112.036 98.2108 109.776 100.429 106.985 100.429H54C51.2098 100.429 48.949 98.2108 48.949 95.4726V65.114C48.949 62.6005 51.0238 60.5644 53.585 60.5644H66.3628C67.1784 60.5644 67.8795 60.0168 68.0655 59.2305L68.6522 56.731C69.3962 53.6277 72.1721 51.4653 75.4202 51.4653H85.5651C88.8132 51.4653 91.5891 53.6277 92.3332 56.731L92.9198 59.2305C93.1058 60.0028 93.807 60.5644 94.6226 60.5644H107.4C109.962 60.5644 112.036 62.6005 112.036 65.114V95.4726Z" fill="#C7C7C7"/>
<path d="M57.3056 70.2229C58.6016 70.2229 59.6523 69.1919 59.6523 67.9201C59.6523 66.6482 58.6016 65.6172 57.3056 65.6172C56.0096 65.6172 54.959 66.6482 54.959 67.9201C54.959 69.1919 56.0096 70.2229 57.3056 70.2229Z" fill="#C7C7C7"/>
<path d="M80.501 66.1523C72.388 66.1523 65.7773 72.6257 65.7773 80.6015C65.7773 88.5773 72.388 95.0506 80.501 95.0506C88.6141 95.0506 95.2248 88.5632 95.2248 80.5874C95.2248 72.6397 88.6141 66.1523 80.501 66.1523ZM80.501 91.5963C74.3197 91.5963 69.283 86.6535 69.283 80.5874C69.283 74.5213 74.3197 69.5786 80.501 69.5786C86.6824 69.5786 91.7191 74.5213 91.7191 80.5874C91.7191 86.6535 86.6824 91.5963 80.501 91.5963Z" fill="#C7C7C7"/>
</g>
<defs>
<clipPath id="clip0">
<rect width="70.1129" height="55.8306" fill="white" transform="translate(45.4434 48.0391)"/>
</clipPath>
</defs>
</svg>
