<svg width="21" height="15" viewBox="0 0 21 15" fill="none" xmlns="http://www.w3.org/2000/svg">
<path d="M16.6244 14.5H5.24944C2.51451 14.5016 0.236469 12.4033 0.0137556 9.6775C-0.208958 6.95166 1.69827 4.51145 4.39719 4.0691C5.63944 1.86663 7.97079 0.50305 10.4994 0.499927C12.0762 0.493967 13.6078 1.02612 14.8412 2.00848C16.0523 2.9691 16.9133 4.30183 17.2912 5.80073C19.5521 6.14813 21.1638 8.17856 20.989 10.4593C20.8141 12.7401 18.9119 14.5012 16.6244 14.5ZM10.4994 2.24997C8.60219 2.25221 6.85303 3.27556 5.92144 4.92835L5.51194 5.66248L4.68156 5.7981C2.88806 6.09858 1.62345 7.72249 1.7715 9.53495C1.91955 11.3474 3.43095 12.7446 5.24944 12.75H16.6244C17.9969 12.7514 19.1388 11.6953 19.2444 10.3268C19.3499 8.95837 18.3834 7.73964 17.0269 7.5306L15.8754 7.3556L15.5937 6.2251C15.0121 3.88606 12.9097 2.24556 10.4994 2.24997ZM10.4994 11L6.99944 7.49998H9.23069V4.87498H11.7682V7.49998H13.9994L10.4994 11Z" fill="#363740"/>
</svg>
