<svg width="18" height="22" viewBox="0 0 18 22" fill="none" xmlns="http://www.w3.org/2000/svg">
<g clip-path="url(#clip0_1451_20332)">
<path d="M9.97327 0.0380944V0.314226C9.97327 2.03289 9.97327 3.75155 9.97327 5.47021C9.97327 6.31464 10.5334 6.87722 11.4135 6.88066C13.1773 6.88868 14.941 6.88066 16.7048 6.88066H17.1092V7.19002C17.1092 11.1704 17.1092 15.1505 17.1092 19.1301C17.1092 20.7583 15.8949 21.9751 14.2013 21.9831C10.4359 22.0014 6.66974 22.0014 2.90278 21.9831C1.20801 21.9739 -0.00271693 20.7571 -0.00390625 19.129C-0.00390625 13.7171 -0.00390625 8.30523 -0.00390625 2.89336C-0.00390625 1.25834 1.15092 0.0472597 2.84451 0.0174696C5.18151 -0.0237783 7.5209 0.00715915 9.86147 0.00830492C9.89975 0.0142859 9.93724 0.0242745 9.97327 0.0380944ZM7.11891 13.0621C7.11891 13.9489 7.11891 14.8358 7.11891 15.7226C7.11891 16.2302 7.36866 16.4857 7.88958 16.5006C8.23568 16.5097 8.58296 16.5132 8.92905 16.5006C10.1279 16.4513 11.0306 15.6046 11.0532 14.4863C11.0738 13.533 11.0738 12.5782 11.0532 11.6219C11.0487 11.1439 10.8661 10.6834 10.5386 10.3244C10.2112 9.96537 9.76062 9.7317 9.2692 9.66603C8.81851 9.62037 8.36496 9.60658 7.91218 9.62479C7.37223 9.62479 7.1201 9.88602 7.1201 10.4085C7.11772 11.293 7.11891 12.1799 7.11891 13.0621ZM3.56761 14.4657C3.84472 14.4393 4.08972 14.4233 4.33234 14.3901C5.45863 14.2365 6.2079 13.4941 6.39937 12.3334C6.52544 11.5703 6.14843 10.3524 5.08042 9.88373C4.28596 9.54 3.46057 9.57208 2.634 9.66259C2.28909 9.70155 2.12497 9.97425 2.12497 10.365C2.12497 12.1577 2.12497 13.9528 2.12497 15.7501C2.12497 16.2084 2.39495 16.4937 2.83143 16.5029C3.26791 16.512 3.56286 16.2222 3.56642 15.7489C3.56999 15.3296 3.56761 14.9102 3.56761 14.4703V14.4657ZM13.5698 11.0009C14.0586 11.0009 14.5141 11.0135 14.9684 11.0009C15.4227 10.9883 15.6891 10.7201 15.6974 10.3294C15.7058 10.2382 15.6938 10.1462 15.6625 10.0597C15.6312 9.9732 15.5812 9.89407 15.5157 9.82758C15.4503 9.76108 15.371 9.70871 15.283 9.67395C15.195 9.63919 15.1003 9.62283 15.0053 9.62593C14.2726 9.60454 13.54 9.60454 12.8074 9.62593C12.3757 9.63854 12.1188 9.90321 12.1176 10.3008C12.1113 12.1409 12.1113 13.9814 12.1176 15.8223C12.1176 16.006 12.1934 16.1821 12.3282 16.312C12.463 16.4419 12.6459 16.5149 12.8365 16.5149C13.0272 16.5149 13.2101 16.4419 13.3449 16.312C13.4797 16.1821 13.5555 16.006 13.5555 15.8223C13.5638 15.2402 13.5555 14.6582 13.5555 14.0773V13.7599H13.8921C14.2096 13.7599 14.526 13.7599 14.8435 13.7599C15.4037 13.7599 15.701 13.509 15.6963 13.0587C15.6915 12.6084 15.3942 12.3712 14.8304 12.3712H13.5698V11.0009Z" fill="#F45D2D"/>
<path d="M11.4375 0.123047C13.2905 1.90893 15.1422 3.69289 16.9928 5.47495H11.4375V0.123047Z" fill="#F45D2D"/>
<path d="M8.58203 11.0317C9.31228 10.9458 9.61675 11.2002 9.61675 11.8842V14.2009C9.61675 14.9216 9.34796 15.1599 8.58203 15.1004V11.0317Z" fill="#F45D2D"/>
<path d="M3.57812 13.0539V11.0168C4.03363 10.995 4.45346 11.0294 4.74603 11.4121C4.87996 11.5674 4.95982 11.7594 4.97433 11.9609C4.98884 12.1624 4.93728 12.3632 4.82691 12.5349C4.5498 13.007 4.09429 13.062 3.57812 13.0539Z" fill="#F45D2D"/>
</g>
<defs>
<clipPath id="clip0_1451_20332">
<rect width="17.1107" height="22" fill="white"/>
</clipPath>
</defs>
</svg>
