<svg width="23" height="22" viewBox="0 0 23 22" fill="none" xmlns="http://www.w3.org/2000/svg">
<path d="M19.9288 10.0395C19.9288 13.0084 19.9327 15.9785 19.9276 18.9474C19.925 20.4007 18.9977 21.5611 17.5703 21.8976C17.2838 21.9649 16.9806 21.9936 16.6852 21.9948C12.2097 22.0011 7.7356 22.0011 3.26018 21.9986C1.32752 21.9973 0.00370081 20.7086 0.00242175 18.829C-0.000136359 12.961 -0.00141542 9.01121 0.00242175 3.14446C0.00242175 1.61888 0.914389 0.443537 2.36996 0.102027C2.65646 0.0347216 2.9596 0.00480825 3.25506 0.00480825C7.73048 -0.00142369 12.2046 -0.00142369 16.68 0.00106909C18.6153 0.00231548 19.9276 1.28485 19.9288 3.17063C19.9301 6.09965 19.9288 7.11171 19.9288 10.0395ZM18.4208 10.0308C18.4208 7.03942 18.426 5.96379 18.4132 2.97371C18.4119 2.72567 18.339 2.45645 18.2226 2.2346C17.9322 1.67497 17.4181 1.47679 16.7926 1.47804C13.9045 1.48302 11.0164 1.48053 8.12699 1.48053C6.43224 1.48053 4.73749 1.4743 3.04274 1.48427C2.12182 1.4905 1.50787 2.11744 1.50915 3.0111C1.50915 8.97257 1.50915 13.0183 1.51043 18.9798C1.51043 19.1032 1.51555 19.2303 1.54369 19.35C1.71764 20.1103 2.28042 20.5191 3.16169 20.5191C6.73154 20.5216 10.3027 20.5204 13.8725 20.5204C14.8958 20.5204 15.919 20.5303 16.9423 20.5141C17.8107 20.5004 18.4208 19.876 18.4208 19.0359C18.4208 16.0346 18.4208 13.0321 18.4208 10.0308Z" fill="#363740"/>
<path d="M21.5098 7.25401C21.5098 5.74588 21.5098 4.27888 21.5098 2.77075C21.8372 2.79319 22.1455 2.79194 22.4448 2.8418C22.7875 2.89913 22.9884 3.12971 22.9922 3.46873C23.0024 4.50448 23.0037 5.54023 22.9922 6.57598C22.9871 6.97233 22.7236 7.20789 22.2631 7.25027C22.0214 7.27271 21.7758 7.25401 21.5098 7.25401Z" fill="#363740"/>
<path d="M21.5098 13.2279C21.5098 11.7497 21.5098 10.2827 21.5098 8.76086C21.8206 8.77831 22.125 8.77084 22.4205 8.8182C22.7863 8.87678 22.9896 9.10611 22.9922 9.45759C23.0024 10.4933 23.0037 11.5291 22.9909 12.5648C22.9858 12.9388 22.7466 13.1693 22.3181 13.2217C22.0598 13.2541 21.7924 13.2279 21.5098 13.2279Z" fill="#363740"/>
<path d="M21.5098 19.2106C21.5098 17.7311 21.5098 16.2654 21.5098 14.7435C21.8206 14.761 22.125 14.7535 22.4205 14.8009C22.7863 14.8594 22.9896 15.0888 22.9922 15.4403C23.0024 16.476 23.0037 17.5118 22.9909 18.5475C22.9858 18.9214 22.7466 19.152 22.3181 19.2044C22.0598 19.2368 21.7924 19.2106 21.5098 19.2106Z" fill="#363740"/>
<path d="M13.0198 8.40069C12.9968 9.97488 11.7523 11.3422 9.95775 11.3621C8.29753 11.3808 6.87522 9.97737 6.91487 8.3795C6.9558 6.70311 8.25404 5.43927 9.97949 5.41684C11.6461 5.3969 13.0236 6.78039 13.0198 8.40069ZM11.5144 8.39072C11.5144 7.50579 10.8723 6.88384 9.96159 6.88758C9.0688 6.89007 8.41904 7.51576 8.41521 8.37452C8.41137 9.25572 9.05601 9.89013 9.96031 9.89387C10.871 9.89636 11.5144 9.27441 11.5144 8.39072Z" fill="#363740"/>
<path d="M10.2419 12.8328C10.8789 12.8951 11.7972 12.8876 12.6657 13.0895C14.2645 13.4609 15.3812 15.0277 15.3236 16.6305C15.3082 17.0406 15.0537 17.3036 14.6303 17.3447C14.2466 17.3821 13.9256 17.1527 13.8437 16.7664C13.8054 16.5844 13.8092 16.3937 13.7695 16.2117C13.5304 15.095 12.667 14.3883 11.4839 14.3683C10.4721 14.3509 9.4604 14.3484 8.44867 14.3696C7.13763 14.397 6.24101 15.2532 6.11823 16.5595C6.06706 17.1066 5.76648 17.3945 5.30347 17.3434C4.80591 17.2886 4.56801 16.962 4.62301 16.4062C4.80463 14.5652 5.85602 13.3288 7.65181 12.9898C8.40646 12.8477 9.19819 12.8889 10.2419 12.8328Z" fill="#363740"/>
</svg>
