<svg width="32" height="32" viewBox="0 0 32 32" fill="none" xmlns="http://www.w3.org/2000/svg">
<g clip-path="url(#clip0_9316_34464)">
<path d="M4 32C2.93913 32 1.92172 31.5786 1.17157 30.8284C0.421427 30.0783 0 29.0609 0 28V4C0 2.93913 0.421427 1.92172 1.17157 1.17157C1.92172 0.421427 2.93913 0 4 0L28 0C29.0609 0 30.0783 0.421427 30.8284 1.17157C31.5786 1.92172 32 2.93913 32 4V28C32 29.0609 31.5786 30.0783 30.8284 30.8284C30.0783 31.5786 29.0609 32 28 32H4ZM17 23V11.414L21.292 15.708C21.385 15.801 21.4954 15.8747 21.6168 15.925C21.7383 15.9754 21.8685 16.0013 22 16.0013C22.1315 16.0013 22.2617 15.9754 22.3832 15.925C22.5046 15.8747 22.615 15.801 22.708 15.708C22.801 15.615 22.8747 15.5046 22.925 15.3832C22.9754 15.2617 23.0013 15.1315 23.0013 15C23.0013 14.8685 22.9754 14.7383 22.925 14.6168C22.8747 14.4954 22.801 14.385 22.708 14.292L16.708 8.292C16.6151 8.19887 16.5048 8.12499 16.3833 8.07457C16.2618 8.02416 16.1315 7.99821 16 7.99821C15.8685 7.99821 15.7382 8.02416 15.6167 8.07457C15.4952 8.12499 15.3849 8.19887 15.292 8.292L9.292 14.292C9.10423 14.4798 8.99874 14.7344 8.99874 15C8.99874 15.2656 9.10423 15.5202 9.292 15.708C9.47977 15.8958 9.73445 16.0013 10 16.0013C10.2656 16.0013 10.5202 15.8958 10.708 15.708L15 11.414V23C15 23.2652 15.1054 23.5196 15.2929 23.7071C15.4804 23.8946 15.7348 24 16 24C16.2652 24 16.5196 23.8946 16.7071 23.7071C16.8946 23.5196 17 23.2652 17 23Z" fill="#29CC97"/>
</g>
<defs>
<clipPath id="clip0_9316_34464">
<rect width="32" height="32" fill="white"/>
</clipPath>
</defs>
</svg>
