<svg width="33" height="33" viewBox="0 0 33 33" fill="none" xmlns="http://www.w3.org/2000/svg">
<g clip-path="url(#clip0_9226_29196)">
<path d="M4.41278 32.06C3.34979 32.06 2.33034 31.6378 1.5787 30.8862C0.827055 30.1347 0.404785 29.1154 0.404785 28.0525V4.0075C0.404785 2.94464 0.827055 1.92532 1.5787 1.17377C2.33034 0.422218 3.34979 0 4.41278 0L28.4607 0C29.5237 0 30.5432 0.422218 31.2948 1.17377C32.0465 1.92532 32.4687 2.94464 32.4687 4.0075V28.0525C32.4687 29.1154 32.0465 30.1347 31.2948 30.8862C30.5432 31.6378 29.5237 32.06 28.4607 32.06H4.41278ZM17.4388 23.0431V11.4354L21.7393 15.7375C21.8325 15.8306 21.9431 15.9045 22.0648 15.9549C22.1865 16.0053 22.317 16.0313 22.4488 16.0313C22.5805 16.0313 22.711 16.0053 22.8327 15.9549C22.9544 15.9045 23.065 15.8306 23.1582 15.7375C23.2513 15.6443 23.3252 15.5337 23.3757 15.412C23.4261 15.2903 23.452 15.1599 23.452 15.0281C23.452 14.8964 23.4261 14.7659 23.3757 14.6442C23.3252 14.5225 23.2513 14.4119 23.1582 14.3188L17.1462 8.30755C17.0531 8.21425 16.9425 8.14022 16.8208 8.08971C16.6991 8.03921 16.5686 8.01321 16.4368 8.01321C16.305 8.01321 16.1745 8.03921 16.0527 8.08971C15.931 8.14022 15.8204 8.21425 15.7273 8.30755L9.71536 14.3188C9.52721 14.5069 9.42151 14.7621 9.42151 15.0281C9.42151 15.2942 9.52721 15.5493 9.71536 15.7375C9.90351 15.9256 10.1587 16.0313 10.4248 16.0313C10.6909 16.0313 10.946 15.9256 11.1342 15.7375L15.4348 11.4354V23.0431C15.4348 23.3088 15.5403 23.5637 15.7282 23.7516C15.9162 23.9394 16.171 24.045 16.4368 24.045C16.7025 24.045 16.9574 23.9394 17.1453 23.7516C17.3332 23.5637 17.4388 23.3088 17.4388 23.0431Z" fill="#3B4FFF"/>
<rect x="0.404785" width="32.064" height="32.06" rx="6" fill="#3B4FFF"/>
<g clip-path="url(#clip1_9226_29196)">
<path d="M16.4782 22.9993C14.0999 22.9993 11.7208 23.001 9.34255 22.9968C9.09819 22.9968 8.84667 22.986 8.61127 22.9317C7.32145 22.6399 6.68683 21.4832 7.15317 20.2807C7.66605 18.9564 8.18878 17.6355 8.70704 16.3137C9.4786 14.3465 10.2511 12.38 11.0226 10.4128C11.3851 9.48798 12.1218 9.00263 13.1825 9.0018C15.3898 9.00013 17.597 9.00013 19.8043 9.0018C20.8596 9.00263 21.6446 9.51467 22.0071 10.4387C23.288 13.701 24.5689 16.9642 25.847 20.2273C26.2436 21.2389 25.847 22.2838 24.8929 22.7608C24.5143 22.9501 24.1025 22.9985 23.6818 22.9993C21.2812 23.001 18.8797 22.9993 16.4791 22.9993H16.4782ZM17.0161 9.99001C17.0161 10.4987 17.0188 10.9774 17.0161 11.4552C17.0134 11.7871 16.8067 11.9848 16.4674 11.9873C16.164 11.9889 15.9411 11.7713 15.9367 11.4552C15.9313 11.0591 15.9349 10.663 15.9349 10.2677C15.9349 10.1801 15.9349 10.0934 15.9349 9.99835C14.9234 9.99835 13.9469 9.9825 12.9721 10.005C12.5022 10.0159 12.197 10.2852 12.0359 10.6972C10.7362 14.0129 9.43474 17.3269 8.13597 20.6426C8.09838 20.7394 8.06258 20.8411 8.05452 20.9428C8.00261 21.5666 8.4949 22.0094 9.2423 22.0094C11.3968 22.0111 13.5521 22.0103 15.7066 22.0094C15.7773 22.0094 15.8489 22.0011 15.9358 21.9961C15.9358 21.4899 15.9304 21.0037 15.9375 20.5192C15.942 20.2206 16.1774 20.0072 16.4719 20.0138C16.8031 20.0205 17.0108 20.214 17.0143 20.53C17.0188 20.947 17.0143 21.364 17.0161 21.7801C17.0161 21.8526 17.0242 21.926 17.0278 21.9944C17.0779 22.0019 17.1003 22.0086 17.1217 22.0086C19.3586 22.0086 21.5954 22.0161 23.8322 22.0061C24.7085 22.0019 25.1158 21.2489 24.8454 20.5984C24.3397 19.3834 23.8832 18.15 23.4061 16.925C22.6041 14.8652 21.8022 12.8054 21.0002 10.7455C20.8077 10.2519 20.4327 10 19.867 9.99084C19.5985 9.98667 19.3299 9.99001 19.0614 9.99001C18.391 9.99001 17.7206 9.99001 17.0143 9.99001H17.0161Z" fill="white"/>
<path d="M17.0167 16.0214C17.0167 16.4934 17.0184 16.9654 17.0167 17.4374C17.0149 17.7885 16.826 17.9878 16.4984 17.992C16.1735 17.9953 15.9694 17.7927 15.9685 17.4466C15.9649 16.4818 15.9649 15.5169 15.9685 14.5521C15.9703 14.206 16.1762 14.0033 16.5002 14.0083C16.8278 14.0133 17.0149 14.2118 17.0167 14.5646C17.0184 15.0507 17.0167 15.5361 17.0167 16.0223V16.0214Z" fill="white"/>
</g>
</g>
<defs>
<clipPath id="clip0_9226_29196">
<rect width="32.064" height="32.06" fill="white" transform="translate(0.404785)"/>
</clipPath>
<clipPath id="clip1_9226_29196">
<rect width="19" height="14" fill="white" transform="translate(7 9)"/>
</clipPath>
</defs>
</svg>
