<svg width="32" height="32" viewBox="0 0 32 32" fill="none" xmlns="http://www.w3.org/2000/svg">
<rect width="32" height="32" rx="5" fill="#EAEDF3"/>
<path d="M15.4733 22.9968C13.718 22.9968 11.9638 23.001 10.2085 22.9946C9.11068 22.9903 8.28221 22.3214 8.04169 21.2571C8.01069 21.1203 8.00214 20.975 8.00214 20.8339C8.00107 18.3141 8.00321 15.7944 8 13.2746C8 12.9925 8.05773 12.7264 8.1689 12.471C8.59863 11.4836 9.03692 10.4994 9.45916 9.50883C9.89638 8.48511 10.6532 7.99248 11.7746 7.99996C14.2685 8.01599 16.7625 8.01279 19.2564 8.00103C20.3297 7.99569 21.0748 8.4616 21.5077 9.43937C21.9438 10.4236 22.3864 11.4056 22.8236 12.3909C22.9444 12.6623 23 12.9476 22.9989 13.2468C22.9957 15.7666 22.9989 18.2863 22.9968 20.8061C22.9957 22.05 22.0678 22.9861 20.8161 22.9935C19.0351 23.0032 17.2531 22.9957 15.4711 22.9957L15.4733 22.9968ZM15.5139 13.3793C13.4924 13.3793 11.471 13.3793 9.44954 13.3793C9.10212 13.3793 9.10212 13.3793 9.10212 13.7373C9.10212 16.0604 9.10212 18.3836 9.10212 20.7067C9.10212 21.4697 9.47413 21.8875 10.2363 21.8897C13.7447 21.9014 17.2531 21.9004 20.7615 21.8897C21.5248 21.8875 21.8968 21.4697 21.8979 20.7078C21.8979 18.3932 21.8979 16.0786 21.8979 13.7651C21.8979 13.5086 21.7646 13.38 21.4981 13.3793C19.5033 13.3793 17.5086 13.3793 15.5139 13.3793ZM12.1894 12.2787C13.0167 12.2787 13.8441 12.2733 14.6715 12.2819C14.8757 12.284 14.9548 12.2263 14.9527 12.0104C14.9431 11.1299 14.9452 10.2494 14.9527 9.36884C14.9537 9.17756 14.8982 9.09956 14.6951 9.10169C13.6891 9.10917 12.6843 9.10062 11.6784 9.1081C11.13 9.11238 10.7334 9.34961 10.5121 9.87643C10.2096 10.5977 9.89103 11.3126 9.56606 12.0254C9.47199 12.2327 9.51154 12.2851 9.73282 12.2829C10.5517 12.2744 11.3705 12.2797 12.1894 12.2797V12.2787ZM18.7583 12.2787C19.5942 12.2787 20.4312 12.2733 21.2672 12.2819C21.4938 12.284 21.5237 12.2252 21.4318 12.0233C21.1143 11.3276 20.7979 10.6309 20.5093 9.92238C20.2719 9.33892 19.8422 9.10169 19.2382 9.10383C18.2772 9.10704 17.3162 9.11024 16.3552 9.10062C16.1296 9.09849 16.0409 9.15405 16.0441 9.3977C16.0569 10.2601 16.0569 11.1235 16.0441 11.9859C16.0409 12.2284 16.1286 12.2861 16.3552 12.2829C17.1559 12.2712 17.9565 12.2787 18.7583 12.2787Z" fill="#202020"/>
<path d="M15.5 16.9751L17.4116 15.0635C17.5577 14.9174 17.7942 14.9174 17.9403 15.0635C17.9403 15.0635 17.9403 15.0635 17.9403 15.0635L17.905 15.0989C18.0317 15.2255 18.0317 15.4303 17.905 15.5569L15.5 16.9751ZM15.5 16.9751L13.5884 15.0635L13.5884 15.0635C13.4422 14.9174 13.2059 14.9174 13.0597 15.0635L15.5 16.9751ZM17.9403 15.5923L16.0288 17.5039L17.9403 19.4155C17.9403 19.4155 17.9403 19.4155 17.9403 19.4155C18.0866 19.5617 18.0866 19.7981 17.9403 19.9443C17.9403 19.9443 17.9403 19.9443 17.9403 19.9443V15.5923ZM17.9403 15.5923C17.9403 15.5923 17.9403 15.5923 17.9403 15.5923L17.9403 15.5923ZM13.0597 15.5923C12.9134 15.4461 12.9134 15.2097 13.0597 15.0635L13.0597 15.5923ZM13.0597 15.5923L13.095 15.5569M13.0597 15.5923L13.0597 19.9443C13.0597 19.9443 13.0597 19.9442 13.0597 19.9442C12.9134 19.7981 12.9134 19.5617 13.0597 19.4155L14.9712 17.5039L13.0597 15.5923L13.095 15.5569M13.095 15.5569L15.0066 17.4685L13.095 15.0989C12.9683 15.2255 12.9683 15.4303 13.095 15.5569Z" fill="#202020" stroke="#202020" stroke-width="0.1"/>
</svg>
