<svg width="32" height="32" viewBox="0 0 32 32" fill="none" xmlns="http://www.w3.org/2000/svg">
<rect width="32" height="32" rx="5" fill="#EAEDF3"/>
<g clip-path="url(#clip0_14501_35010)">
<path d="M12.275 16.8585C12.292 16.8256 12.2686 16.7338 12.2686 16.645C12.2707 14.7085 12.2686 12.772 12.2707 10.8345C12.2729 9.48857 13.4734 8.68143 14.8323 9.11543C14.9939 9.16731 15.0343 9.12241 15.1077 9.00069C15.4788 8.37813 16.0158 7.99801 16.8133 8.00001C17.5991 8.002 18.134 8.37813 18.4955 8.99271C18.5891 9.15234 18.6582 9.15434 18.8177 9.10246C20.1001 8.68343 21.3272 9.50054 21.3399 10.7746C21.3399 10.8075 21.3442 10.8414 21.3399 10.8744C21.3133 11.0669 21.3686 11.1108 21.5866 11.0579C22.7233 10.7826 23.7441 11.3772 23.9674 12.4348C23.9929 12.5555 23.9972 12.6822 23.9972 12.8069C23.9993 14.7185 24.0036 16.6301 23.9972 18.5426C23.9876 21.2813 21.7706 23.6299 18.8698 23.9421C16.287 24.2205 14.0327 23.5012 12.1442 21.834C10.9511 20.7805 9.8038 19.681 8.64264 18.5965C7.87916 17.8832 7.79303 16.9373 8.40551 16.1542C9.04883 15.3311 10.4322 15.2552 11.2542 15.9915C11.587 16.2898 11.9358 16.5712 12.2761 16.8595L12.275 16.8585ZM13.3649 14.501C13.3649 15.6653 13.3649 16.8286 13.3649 17.9929C13.3649 18.0677 13.3649 18.1426 13.3628 18.2174C13.3564 18.4379 13.2437 18.5965 13.0342 18.6913C12.8173 18.7891 12.6195 18.7442 12.4419 18.6055C12.3739 18.5526 12.3122 18.4917 12.2495 18.4339C11.6604 17.8822 11.0777 17.3234 10.4801 16.7787C9.98882 16.3307 9.28808 16.5153 9.14028 17.1259C9.06691 17.4292 9.23917 17.6527 9.4529 17.8532C10.4992 18.836 11.553 19.8097 12.5897 20.8004C14.2113 22.3508 16.1519 23.0981 18.4774 22.9265C19.8481 22.8257 20.9741 22.288 21.8439 21.2883C22.5883 20.4333 22.8903 19.4276 22.8988 18.3451C22.9137 16.5492 22.903 14.7534 22.903 12.9575C22.903 12.8827 22.9062 12.8069 22.8966 12.7331C22.8233 12.1554 22.2023 11.8571 21.6993 12.1624C21.4282 12.327 21.341 12.5844 21.3399 12.8737C21.3378 13.7218 21.3399 14.5698 21.3378 15.4179C21.3378 15.801 21.1368 16.0125 20.7859 16.0095C20.4371 16.0065 20.2447 15.797 20.2447 15.4079C20.2436 13.9443 20.2447 12.4816 20.2447 11.018C20.2447 10.9352 20.2479 10.8514 20.2415 10.7686C20.2128 10.4374 20.0065 10.175 19.7098 10.0872C19.2143 9.93952 18.7454 10.2418 18.688 10.7477C18.6773 10.8384 18.6826 10.9302 18.6826 11.022C18.6826 12.4936 18.6837 13.9652 18.6816 15.4368C18.6816 15.8738 18.3339 16.1192 17.9287 15.9756C17.6533 15.8778 17.5863 15.6683 17.5863 15.4139C17.5895 13.618 17.5874 11.8222 17.5874 10.0263C17.5874 9.93453 17.5917 9.84275 17.5821 9.75196C17.5151 9.15234 16.8495 8.84605 16.3508 9.19026C16.0934 9.36784 16.0232 9.63024 16.0243 9.91857C16.0254 11.7064 16.0243 13.4933 16.0243 15.2812C16.0243 15.364 16.0275 15.4478 16.0211 15.5306C15.9892 15.9287 15.5426 16.1442 15.179 15.9367C14.9737 15.8189 14.9269 15.6324 14.9269 15.4208C14.9301 13.9572 14.928 12.4946 14.928 11.031C14.928 10.9392 14.9323 10.8474 14.9238 10.7566C14.8621 10.167 14.2273 9.85572 13.719 10.172C13.45 10.3386 13.366 10.598 13.366 10.8863C13.366 12.0915 13.366 13.2978 13.366 14.503L13.3649 14.501Z" fill="#202020"/>
</g>
<defs>
<clipPath id="clip0_14501_35010">
<rect width="16" height="16" fill="white" transform="translate(8 8)"/>
</clipPath>
</defs>
</svg>
