<svg width="32" height="32" viewBox="0 0 32 32" fill="none" xmlns="http://www.w3.org/2000/svg">
<rect width="32" height="32" rx="5" fill="#3B4FFF"/>
<g clip-path="url(#clip0_11200_33158)">
<path d="M19.3789 10.9646C19.3789 10.8473 19.3789 10.7629 19.3789 10.6784C19.3789 9.74756 19.3771 8.81668 19.3799 7.88581C19.3818 7.52078 19.5255 7.21675 19.8693 7.07224C20.2047 6.93054 20.5251 7.00092 20.7994 7.25616C22.1156 8.48074 23.4336 9.70345 24.7498 10.928C25.0063 11.1664 25.0758 11.5324 24.9086 11.8505C24.8306 11.9987 24.7179 12.1385 24.5948 12.253C23.351 13.4176 22.0987 14.5727 20.8539 15.7372C20.5683 16.0037 20.2526 16.1116 19.8919 15.9531C19.5236 15.7907 19.3761 15.4754 19.3771 15.0804C19.3789 14.173 19.3771 13.2655 19.3771 12.3581V12.0776H19.0595C15.2857 12.0776 11.5129 12.0776 7.73906 12.0776C7.46568 12.0776 7.22612 12.0147 7.0805 11.7594C6.90576 11.4535 7.03823 11.1101 7.37549 11.0125C7.50044 10.9768 7.63666 10.9656 7.76725 10.9646C11.5251 10.9618 15.2829 10.9628 19.0407 10.9628H19.3761L19.3789 10.9646ZM20.51 8.49388V14.5483C21.6045 13.5236 22.668 12.528 23.7446 11.5202C22.6614 10.5058 21.6017 9.51484 20.51 8.49294V8.49388Z" fill="white"/>
<path d="M12.6152 19.9403H12.9496C16.7074 19.9403 20.4653 19.9403 24.2231 19.9393C24.5124 19.9393 24.7698 19.9947 24.9202 20.2734C25.094 20.5943 24.9446 20.9397 24.5914 21.0241C24.4796 21.0504 24.3593 21.0485 24.2428 21.0485C20.4775 21.0494 16.7121 21.0494 12.9458 21.0494C12.8463 21.0494 12.7467 21.0494 12.6161 21.0494C12.6161 21.1555 12.6161 21.239 12.6161 21.3225C12.6161 22.2374 12.6133 23.1524 12.618 24.0682C12.6199 24.4539 12.494 24.7654 12.1248 24.9221C11.7574 25.0779 11.4361 24.9944 11.1402 24.7157C9.94428 23.5915 8.73801 22.4786 7.53551 21.361C7.46129 21.2916 7.3852 21.224 7.3138 21.1517C6.8948 20.7285 6.89668 20.2734 7.33165 19.8633C7.9686 19.2628 8.61307 18.6697 9.25378 18.0738C9.88885 17.4836 10.5277 16.8952 11.159 16.3003C11.4371 16.0385 11.7527 15.9475 12.1031 16.1014C12.4517 16.2543 12.6133 16.5518 12.6152 16.9281C12.6189 17.8355 12.6161 18.7429 12.6161 19.6503C12.6161 19.7348 12.6161 19.8202 12.6161 19.9403H12.6152ZM8.24856 20.5343C9.33739 21.5524 10.399 22.5452 11.4812 23.5577V17.5089C10.3905 18.5299 9.33081 19.5218 8.24856 20.5343Z" fill="white"/>
</g>
<defs>
<clipPath id="clip0_11200_33158">
<rect width="18" height="18" fill="white" transform="translate(7 7)"/>
</clipPath>
</defs>
</svg>
