<svg width="32" height="32" viewBox="0 0 32 32" fill="none" xmlns="http://www.w3.org/2000/svg">
<rect width="32" height="32" rx="5" fill="#EAEDF3"/>
<g clip-path="url(#clip0_14476_36917)">
<path d="M15.991 25C10.9807 24.9966 6.99551 20.9964 7 15.9775C7.0045 10.9901 11.0132 6.99551 16.0079 7C21.0182 7.0045 25.0045 11.0036 24.9989 16.0225C24.9944 21.0099 20.9857 25.0045 15.991 25ZM23.8434 15.9978C23.7659 11.6876 20.4455 8.18705 16.0124 8.17358C11.6825 8.1601 8.17904 11.5708 8.17455 16.0023C8.17006 20.3125 11.5545 23.813 15.9888 23.8264C20.3187 23.8399 23.7592 20.4293 23.8434 15.9978Z" fill="#202020"/>
<path d="M15.4163 15.4553C14.883 15.4553 14.3496 15.462 13.8173 15.4519C13.5961 15.4474 13.4973 15.5182 13.4816 15.7495C13.4277 16.5446 13.4221 16.5446 14.2137 16.5446C15.1581 16.5446 16.1035 16.5424 17.0479 16.5469C17.4342 16.5491 17.6531 16.721 17.6947 17.0332C17.7475 17.4251 17.4971 17.6958 17.0603 17.6991C16.2001 17.7059 15.3389 17.7014 14.4787 17.7014C14.4136 17.7014 14.3473 17.698 14.2822 17.7025C14.2205 17.707 14.1374 17.6744 14.1037 17.7452C14.0677 17.8182 14.1441 17.8608 14.1856 17.9069C14.4866 18.2382 14.8437 18.4852 15.2636 18.6436C15.7274 18.8188 16.2069 18.8592 16.6964 18.8525C17.0513 18.848 17.4084 18.8401 17.7621 18.8637C18.0821 18.8839 18.2921 19.113 18.3078 19.405C18.3224 19.6723 18.1326 19.9632 17.8463 19.9912C16.2248 20.1462 14.655 20.08 13.4187 18.7963C13.1705 18.5392 12.9527 18.2561 12.8011 17.9327C12.7158 17.7519 12.599 17.6901 12.4059 17.6991C12.1162 17.7115 11.8264 17.7081 11.5367 17.6991C11.1493 17.6868 10.927 17.4633 10.9337 17.1107C10.9405 16.7704 11.1594 16.5716 11.5367 16.5458C11.7849 16.5278 12.115 16.6626 12.2565 16.4806C12.3755 16.329 12.2621 16.0112 12.2947 15.7731C12.3329 15.4969 12.2251 15.4272 11.9758 15.4542C11.8276 15.4699 11.6771 15.4609 11.5278 15.4542C11.1538 15.4373 10.936 15.2251 10.9337 14.8837C10.9315 14.5411 11.1482 14.3188 11.5176 14.3053C11.8163 14.2941 12.1162 14.2941 12.4148 14.3042C12.5934 14.3098 12.6989 14.2525 12.7955 14.0919C13.5838 12.7825 14.728 12.0705 16.2765 12.057C16.7436 12.0525 17.2118 12.0514 17.679 12.0581C18.063 12.0637 18.3044 12.2917 18.3067 12.6297C18.3089 12.9678 18.0664 13.198 17.6857 13.2104C17.1074 13.2283 16.528 13.1924 15.9486 13.2553C15.2861 13.3271 14.7325 13.5967 14.2721 14.0717C14.2227 14.1234 14.1362 14.1762 14.1666 14.2548C14.2002 14.3401 14.2991 14.3008 14.3687 14.3008C15.267 14.3042 16.1642 14.3008 17.0625 14.3053C17.4398 14.3076 17.661 14.4917 17.6947 14.8073C17.7351 15.1802 17.4993 15.4486 17.0984 15.4553C16.537 15.4654 15.9767 15.4575 15.4152 15.4575V15.4598L15.4163 15.4553Z" fill="#202020"/>
</g>
<defs>
<clipPath id="clip0_14476_36917">
<rect width="18" height="18" fill="white" transform="translate(7 7)"/>
</clipPath>
</defs>
</svg>
