<svg width="32" height="32" viewBox="0 0 32 32" fill="none" xmlns="http://www.w3.org/2000/svg">
<rect width="32" height="32" rx="5" fill="#EAEDF3"/>
<g clip-path="url(#clip0_14476_36964)">
<path d="M16.031 7.00122C17.0221 7.00122 18.0132 6.99766 19.0043 7.0024C19.4055 7.00478 19.641 7.18496 19.6925 7.50265C19.7575 7.90451 19.4925 8.20917 19.0448 8.21628C18.3604 8.22695 17.6747 8.23288 16.9915 8.2151C16.7044 8.20798 16.621 8.30045 16.6296 8.57072C16.648 9.14328 16.6419 9.71584 16.6321 10.2884C16.6284 10.5101 16.7081 10.599 16.9424 10.6251C18.5272 10.7993 19.9366 11.3754 21.162 12.3688C21.5717 12.7007 21.4833 12.7114 21.882 12.3297C22.2242 12.0037 22.553 11.6647 22.9062 11.3505C23.257 11.0376 23.6962 11.1063 23.9157 11.4845C24.0592 11.7323 24.0175 11.9729 23.7575 12.2337C23.3883 12.6035 23.0191 12.9734 22.629 13.3207C22.4242 13.5033 22.4021 13.6349 22.5701 13.8613C23.6827 15.3597 24.1022 17.0524 23.9807 18.8733C23.7501 22.3347 20.9878 25.2817 17.4355 25.8779C13.9654 26.46 10.591 24.9189 8.94118 21.9245C7.39074 19.1115 7.79429 15.6833 9.8685 13.3184C11.2264 11.7702 12.9571 10.8906 15.0289 10.631C15.2852 10.599 15.3821 10.5172 15.376 10.2647C15.3613 9.69214 15.3576 9.11839 15.376 8.54701C15.3846 8.27674 15.2791 8.21154 15.0191 8.21747C14.3346 8.23169 13.6502 8.22813 12.9657 8.21747C12.5315 8.21154 12.2837 7.9543 12.307 7.56667C12.3291 7.2146 12.572 7.00596 12.9964 7.00359C14.0083 6.99766 15.0191 7.00122 16.031 7.00122ZM9.27482 18.277C9.29813 21.6815 12.0813 24.7565 16.0004 24.7601C19.8863 24.7636 22.7063 21.7266 22.7259 18.3126C22.7455 14.8902 19.9304 11.8034 16.0065 11.7998C12.1132 11.7963 9.30426 14.8476 9.27605 18.277H9.27482Z" fill="#202020"/>
<path d="M16.6344 16.7963C16.6344 17.4661 16.6381 18.137 16.6344 18.8068C16.6319 19.2347 16.3927 19.4813 15.9978 19.4777C15.6053 19.4742 15.3746 19.2288 15.3734 18.7949C15.371 17.4649 15.371 16.1337 15.3734 14.8036C15.3734 14.3686 15.6028 14.122 15.9941 14.1173C16.3989 14.1125 16.6319 14.3626 16.6344 14.8143C16.6381 15.4746 16.6344 16.1348 16.6344 16.7951V16.7963Z" fill="#202020"/>
</g>
<defs>
<clipPath id="clip0_14476_36964">
<rect width="16" height="19" fill="white" transform="translate(8 7)"/>
</clipPath>
</defs>
</svg>
