<?xml version="1.0" encoding="UTF-8"?>
<svg id="Capa_1" data-name="Capa 1" xmlns="http://www.w3.org/2000/svg" viewBox="0 0 107.3 131.2">
  <defs>
    <style>
      .cls-1 {
        fill: #e91313;
      }
    </style>
  </defs>
  <path class="cls-1" d="m44.5,122V10c0-5.1,3.9-9.2,8.7-9.2s8.7,4.1,8.7,9.2v112c0,5.1-3.9,9.2-8.7,9.2s-8.7-4.1-8.7-9.2Z"/>
  <path class="cls-1" d="m0,56.2c0-2.3.8-4.7,2.5-6.5L47,2.7C48.6,1,50.8,0,53.1,0s4.5,1,6.1,2.7l45.5,48.2c3.4,3.6,3.4,9.4,0,13s-8.9,3.6-12.3,0L53.1,22.1,14.8,62.7c-3.4,3.6-8.9,3.6-12.3,0C.8,60.9,0,58.6,0,56.2Z"/>
</svg>