<?xml version="1.0" encoding="UTF-8"?>
<svg id="Capa_1" data-name="Capa 1" xmlns="http://www.w3.org/2000/svg" viewBox="0 0 107.3 131.2">
  <defs>
    <style>
      .cls-1 {
        fill: #00ce8e;
      }
    </style>
  </defs>
  <path class="cls-1" d="m62.9,9.2v112c0,5.1-3.9,9.2-8.7,9.2s-8.7-4.1-8.7-9.2V9.2c0-5.1,3.9-9.2,8.7-9.2s8.7,4.1,8.7,9.2Z"/>
  <path class="cls-1" d="m107.3,74.9c0,2.3-.8,4.7-2.5,6.5l-44.5,47.1c-1.6,1.7-3.8,2.7-6.1,2.7s-4.5-1-6.1-2.7L2.5,80.3c-3.4-3.6-3.4-9.4,0-13,3.4-3.6,8.9-3.6,12.3,0l39.4,41.7,38.4-40.6c3.4-3.6,8.9-3.6,12.3,0,1.7,1.8,2.5,4.1,2.5,6.5Z"/>
</svg>