<svg width="32" height="32" viewBox="0 0 32 32" fill="none" xmlns="http://www.w3.org/2000/svg">
<rect width="32" height="32" rx="5" fill="#EAEDF3"/>
<g clip-path="url(#clip0_14476_37032)">
<path d="M15.5466 23.9989C12.8855 23.9989 10.2244 24 7.5644 23.9977C7.17578 23.9977 6.78952 23.9635 6.42578 23.815C5.98976 23.6368 5.63194 23.3695 5.38312 22.9732C5.20421 22.6866 5.06203 22.3896 5.01938 22.0538C4.97317 21.6941 5.01227 21.34 5.13075 20.9974C5.23857 20.6867 5.36061 20.3795 5.48028 20.0722C5.65564 19.6245 5.81677 19.1734 5.98739 18.7245C6.26938 17.981 6.55492 17.2375 6.83692 16.494C7.04071 15.9583 7.24213 15.4215 7.44474 14.8847C7.65208 14.3376 7.85943 13.7906 8.06677 13.2423C8.44 12.2578 8.81322 11.2722 9.18763 10.2877C9.30256 9.98615 9.41156 9.68235 9.53597 9.3854C9.73502 8.90799 10.081 8.54708 10.5419 8.29809C10.8523 8.1302 11.19 8.02398 11.5561 8.01142C11.7481 8.00457 11.9412 8.00114 12.1331 8C14.4708 8 16.8108 8 19.1509 8C19.5585 8 19.9507 8.06053 20.3227 8.22728C20.5206 8.31637 20.6781 8.45685 20.8464 8.58591C21.2457 8.88971 21.4625 9.3043 21.6308 9.75544C22.0632 10.9147 22.5063 12.0705 22.9447 13.2275C23.4056 14.4427 23.8654 15.6579 24.3263 16.8732C24.722 17.9159 25.1225 18.9575 25.5135 20.0026C25.6568 20.3852 25.8263 20.7587 25.927 21.155C26.0869 21.7854 25.9827 22.3725 25.6355 22.9298C25.4246 23.2679 25.1462 23.5317 24.7919 23.7202C24.5324 23.8572 24.2516 23.936 23.9566 23.9703C23.6165 24.0103 23.2765 23.9977 22.9364 23.9977C20.4732 23.9977 18.0099 23.9977 15.5466 23.9977V23.9989ZM19.8227 22.8476C20.9578 22.8476 22.0928 22.8476 23.2291 22.8476C23.3654 22.8476 23.5004 22.8476 23.6355 22.8339C23.8488 22.8133 24.0514 22.7688 24.2398 22.6626C24.6936 22.4079 24.9068 21.8197 24.7208 21.3674C24.5336 20.9117 24.3701 20.448 24.2007 19.9866C24.0372 19.5377 23.8665 19.0912 23.7007 18.6446C23.5146 18.1455 23.3251 17.6475 23.1367 17.1495C22.8547 16.4003 22.5691 15.6534 22.2883 14.9041C22.068 14.3159 21.8571 13.7243 21.6308 13.1384C21.5087 12.822 21.3879 12.5045 21.267 12.1882C20.9767 11.4298 20.6971 10.6669 20.4056 9.90849C20.299 9.63209 20.094 9.43222 19.8263 9.29403C19.6047 9.17981 19.3571 9.15583 19.1142 9.15354C18.1367 9.14555 17.1592 9.15126 16.1817 9.14898C16.1047 9.14898 16.0869 9.17296 16.0881 9.24263C16.0905 9.78057 16.0905 10.3185 16.0881 10.8553C16.0881 11.0735 15.9459 11.3567 15.6225 11.4127C15.4009 11.4504 15.068 11.3818 14.9507 11.0917C14.9151 11.0038 14.895 10.9147 14.895 10.821C14.895 10.298 14.895 9.77372 14.895 9.25062C14.895 9.18362 14.8594 9.15012 14.7883 9.15012C13.8772 9.15012 12.9672 9.15126 12.0561 9.14898C11.8654 9.14898 11.677 9.16154 11.4898 9.19238C11.0573 9.26547 10.7694 9.5156 10.6082 9.89592C10.4625 10.2408 10.3476 10.5995 10.2125 10.949C9.91748 11.7108 9.63075 12.476 9.34165 13.2401C9.06677 13.9687 8.78597 14.6951 8.5099 15.4227C8.26109 16.0771 8.01583 16.7315 7.7682 17.386C7.57625 17.8931 7.37957 18.3979 7.18881 18.9061C6.88075 19.7239 6.58218 20.5451 6.26464 21.3594C6.06085 21.8814 6.33573 22.5072 6.88905 22.7334C7.10706 22.8225 7.33929 22.8453 7.57033 22.8453C9.9791 22.8487 12.3879 22.8476 14.7966 22.8476C14.8938 22.8476 14.8938 22.8476 14.8938 22.7528C14.8938 22.2251 14.8938 21.6963 14.8938 21.1687C14.8938 20.8546 15.0751 20.6376 15.395 20.5851C15.6426 20.5439 15.9542 20.6364 16.0549 20.9437C16.0786 21.0168 16.0881 21.0922 16.0881 21.1687C16.0881 21.6895 16.0881 22.2103 16.0881 22.7322C16.0881 22.8107 16.13 22.8499 16.2137 22.8499C17.4151 22.8499 18.6177 22.8499 19.8191 22.8499L19.8227 22.8476Z" fill="#202020"/>
<path d="M16.0911 15.9971C16.0911 16.5659 16.0947 17.1335 16.0899 17.7023C16.0876 17.9193 16.0023 18.1078 15.7925 18.2094C15.4241 18.3876 14.9063 18.2288 14.9016 17.7046C14.8909 16.5613 14.8909 15.4169 14.9016 14.2736C14.9051 13.9013 15.2061 13.6763 15.5947 13.7334C15.9252 13.7814 16.0899 13.9824 16.0899 14.3068C16.0899 14.8698 16.0899 15.434 16.0899 15.9971H16.0911Z" fill="#202020"/>
</g>
<defs>
<clipPath id="clip0_14476_37032">
<rect width="21" height="16" fill="white" transform="translate(5 8)"/>
</clipPath>
</defs>
</svg>
