<svg width="235" height="234" viewBox="0 0 235 234" fill="none" xmlns="http://www.w3.org/2000/svg">
<path d="M94.6812 113.362V117.071H77.6255V113.362H94.6812ZM88.1528 106.39V124.505H84.1709V106.39H88.1528ZM109.071 102.032V127H104.952V106.919L98.8511 108.987V105.586L108.575 102.032H109.071ZM134.398 123.719V127H117.718V124.18L125.819 115.345C126.708 114.342 127.408 113.476 127.921 112.747C128.434 112.018 128.792 111.363 128.998 110.782C129.214 110.189 129.322 109.614 129.322 109.056C129.322 108.27 129.174 107.58 128.878 106.988C128.593 106.384 128.172 105.911 127.613 105.569C127.055 105.216 126.377 105.04 125.58 105.04C124.657 105.04 123.882 105.239 123.255 105.638C122.629 106.036 122.156 106.589 121.837 107.295C121.518 107.99 121.358 108.788 121.358 109.688H117.24C117.24 108.241 117.57 106.919 118.231 105.723C118.892 104.515 119.849 103.558 121.102 102.852C122.355 102.134 123.865 101.775 125.631 101.775C127.294 101.775 128.707 102.055 129.869 102.613C131.031 103.171 131.914 103.963 132.518 104.988C133.133 106.014 133.441 107.227 133.441 108.628C133.441 109.403 133.316 110.172 133.065 110.936C132.814 111.699 132.455 112.462 131.988 113.226C131.533 113.978 130.991 114.735 130.365 115.499C129.738 116.25 129.049 117.014 128.297 117.789L122.914 123.719H134.398ZM137.44 108.218V106.902C137.44 105.957 137.645 105.097 138.055 104.322C138.465 103.547 139.063 102.926 139.85 102.459C140.636 101.992 141.581 101.758 142.687 101.758C143.826 101.758 144.783 101.992 145.558 102.459C146.344 102.926 146.942 103.547 147.352 104.322C147.762 105.097 147.967 105.957 147.967 106.902V108.218C147.967 109.141 147.762 109.99 147.352 110.765C146.953 111.539 146.361 112.16 145.575 112.627C144.8 113.095 143.849 113.328 142.721 113.328C141.604 113.328 140.647 113.095 139.85 112.627C139.063 112.16 138.465 111.539 138.055 110.765C137.645 109.99 137.44 109.141 137.44 108.218ZM140.294 106.902V108.218C140.294 108.674 140.379 109.107 140.55 109.517C140.733 109.927 141.006 110.258 141.371 110.508C141.735 110.759 142.185 110.884 142.721 110.884C143.268 110.884 143.712 110.759 144.054 110.508C144.407 110.258 144.669 109.927 144.84 109.517C145.011 109.107 145.096 108.674 145.096 108.218V106.902C145.096 106.435 145.005 105.997 144.823 105.586C144.652 105.165 144.39 104.829 144.037 104.578C143.683 104.327 143.233 104.202 142.687 104.202C142.162 104.202 141.718 104.327 141.354 104.578C141 104.829 140.733 105.165 140.55 105.586C140.379 105.997 140.294 106.435 140.294 106.902ZM149.437 122.232V120.899C149.437 119.965 149.642 119.11 150.052 118.335C150.474 117.561 151.078 116.94 151.864 116.473C152.65 116.006 153.596 115.772 154.701 115.772C155.84 115.772 156.797 116.006 157.572 116.473C158.358 116.94 158.95 117.561 159.349 118.335C159.759 119.11 159.964 119.965 159.964 120.899V122.232C159.964 123.166 159.759 124.021 159.349 124.795C158.95 125.57 158.364 126.191 157.589 126.658C156.814 127.125 155.868 127.359 154.752 127.359C153.624 127.359 152.661 127.125 151.864 126.658C151.078 126.191 150.474 125.57 150.052 124.795C149.642 124.021 149.437 123.166 149.437 122.232ZM152.308 120.899V122.232C152.308 122.688 152.399 123.121 152.582 123.531C152.775 123.941 153.054 124.277 153.419 124.539C153.784 124.79 154.222 124.915 154.735 124.915C155.316 124.915 155.783 124.79 156.136 124.539C156.489 124.277 156.74 123.947 156.888 123.548C157.048 123.138 157.127 122.699 157.127 122.232V120.899C157.127 120.432 157.036 119.993 156.854 119.583C156.683 119.173 156.415 118.842 156.051 118.592C155.698 118.341 155.248 118.216 154.701 118.216C154.165 118.216 153.721 118.341 153.368 118.592C153.014 118.842 152.747 119.173 152.564 119.583C152.394 119.993 152.308 120.432 152.308 120.899ZM155.726 105.672L143.575 125.12L141.473 123.907L153.624 104.458L155.726 105.672Z" fill="black"/>
<path d="M135.935 225.443C129.911 226.466 123.72 227 117.4 227C56.654 227 7.40479 177.751 7.40479 117.005C7.40479 56.2584 56.654 7 117.4 7" stroke="#F8F8FB" stroke-width="14" stroke-miterlimit="10" stroke-linecap="round"/>
<path d="M117.4 7C178.146 7 227.395 56.2492 227.395 116.995C227.395 171.431 187.856 216.627 135.926 225.434" stroke="#3B4FFF" stroke-width="14" stroke-miterlimit="10" stroke-linecap="round"/>
<path d="M41.5549 140.616C39.2333 133.154 37.9805 125.222 37.9805 116.995C37.9805 73.1354 73.5401 37.5757 117.4 37.5757" stroke="#F8F8FB" stroke-width="14" stroke-miterlimit="10" stroke-linecap="round"/>
<path d="M117.4 37.5757C161.26 37.5757 196.82 73.1354 196.82 116.995C196.82 160.855 161.26 196.415 117.4 196.415C81.7666 196.415 51.6054 172.942 41.5547 140.616" stroke="#FF8D24" stroke-width="14" stroke-miterlimit="10" stroke-linecap="round"/>
</svg>
