<svg width="33" height="33" viewBox="0 0 33 33" fill="none" xmlns="http://www.w3.org/2000/svg">
<g clip-path="url(#clip0_9226_29279)">
<path d="M4.74432 32.06C3.68134 32.06 2.66189 31.6378 1.91024 30.8862C1.1586 30.1347 0.736328 29.1154 0.736328 28.0525V4.0075C0.736328 2.94464 1.1586 1.92532 1.91024 1.17377C2.66189 0.422218 3.68134 0 4.74432 0L28.7923 0C29.8553 0 30.8747 0.422218 31.6264 1.17377C32.378 1.92532 32.8003 2.94464 32.8003 4.0075V28.0525C32.8003 29.1154 32.378 30.1347 31.6264 30.8862C30.8747 31.6378 29.8553 32.06 28.7923 32.06H4.74432ZM17.7703 23.0431V11.4354L22.0709 15.7375C22.164 15.8306 22.2746 15.9045 22.3964 15.9549C22.5181 16.0053 22.6485 16.0313 22.7803 16.0313C22.9121 16.0313 23.0425 16.0053 23.1642 15.9549C23.286 15.9045 23.3966 15.8306 23.4897 15.7375C23.5829 15.6443 23.6568 15.5337 23.7072 15.412C23.7576 15.2903 23.7836 15.1599 23.7836 15.0281C23.7836 14.8964 23.7576 14.7659 23.7072 14.6442C23.6568 14.5225 23.5829 14.4119 23.4897 14.3188L17.4777 8.30755C17.3846 8.21425 17.2741 8.14022 17.1523 8.08971C17.0306 8.03921 16.9001 8.01321 16.7683 8.01321C16.6365 8.01321 16.506 8.03921 16.3843 8.08971C16.2625 8.14022 16.152 8.21425 16.0589 8.30755L10.0469 14.3188C9.85875 14.5069 9.75305 14.7621 9.75305 15.0281C9.75305 15.2942 9.85875 15.5493 10.0469 15.7375C10.235 15.9256 10.4902 16.0313 10.7563 16.0313C11.0224 16.0313 11.2776 15.9256 11.4657 15.7375L15.7663 11.4354V23.0431C15.7663 23.3088 15.8719 23.5637 16.0598 23.7516C16.2477 23.9394 16.5026 24.045 16.7683 24.045C17.0341 24.045 17.2889 23.9394 17.4768 23.7516C17.6647 23.5637 17.7703 23.3088 17.7703 23.0431Z" fill="#3B4FFF"/>
<rect x="0.736328" width="32.064" height="32.06" rx="6" fill="#3B4FFF"/>
<g clip-path="url(#clip1_9226_29279)">
<path d="M26 16.0028C26.0132 20.8526 22.1148 24.9972 17.0042 25C11.9331 25.0028 7.99156 20.9033 8.00001 15.9859C8.00846 11.0667 11.9585 6.99344 17.0099 7.00001C22.1232 7.00658 26.0169 11.1568 26 16.0028ZM9.10136 15.9887C9.15958 20.4629 12.6467 23.8817 16.9958 23.8855C21.3796 23.8892 24.8865 20.4244 24.8874 16C24.8874 11.5963 21.404 8.12583 17.0193 8.1155C12.6937 8.10423 9.17554 11.492 9.1023 15.9887H9.10136Z" fill="white"/>
<path d="M17.5506 13.2401C17.5506 13.9829 17.5553 14.7265 17.5469 15.4692C17.545 15.6307 17.6013 15.7228 17.7328 15.811C18.6952 16.4523 19.6547 17.0993 20.6124 17.7491C20.9983 18.011 21.0321 18.4646 20.6857 18.6993C20.4453 18.8627 20.2096 18.796 19.9871 18.6486C19.2839 18.181 18.5825 17.7124 17.8792 17.2439C17.5084 16.9969 17.1384 16.7481 16.7666 16.503C16.5272 16.3453 16.408 16.1434 16.4117 15.8401C16.4324 14.2364 16.4352 12.6336 16.4474 11.0298C16.4502 10.6467 16.5666 10.4796 16.8549 10.4082C17.2445 10.3115 17.545 10.535 17.5478 10.9406C17.5544 11.7068 17.5497 12.4739 17.5506 13.2401Z" fill="white"/>
</g>
</g>
<defs>
<clipPath id="clip0_9226_29279">
<rect width="32.064" height="32.06" fill="white" transform="translate(0.736328)"/>
</clipPath>
<clipPath id="clip1_9226_29279">
<rect width="18" height="18" fill="white" transform="translate(8 7)"/>
</clipPath>
</defs>
</svg>
