<svg width="32" height="32" viewBox="0 0 32 32" fill="none" xmlns="http://www.w3.org/2000/svg">
<g clip-path="url(#clip0_9226_29299)">
<path d="M4 32C2.93913 32 1.92172 31.5786 1.17157 30.8284C0.421427 30.0783 0 29.0609 0 28V4C0 2.93913 0.421427 1.92172 1.17157 1.17157C1.92172 0.421427 2.93913 0 4 0L28 0C29.0609 0 30.0783 0.421427 30.8284 1.17157C31.5786 1.92172 32 2.93913 32 4V28C32 29.0609 31.5786 30.0783 30.8284 30.8284C30.0783 31.5786 29.0609 32 28 32H4ZM17 23V11.414L21.292 15.708C21.385 15.801 21.4954 15.8747 21.6168 15.925C21.7383 15.9754 21.8685 16.0013 22 16.0013C22.1315 16.0013 22.2617 15.9754 22.3832 15.925C22.5046 15.8747 22.615 15.801 22.708 15.708C22.801 15.615 22.8747 15.5046 22.925 15.3832C22.9754 15.2617 23.0013 15.1315 23.0013 15C23.0013 14.8685 22.9754 14.7383 22.925 14.6168C22.8747 14.4954 22.801 14.385 22.708 14.292L16.708 8.292C16.6151 8.19887 16.5048 8.12499 16.3833 8.07457C16.2618 8.02416 16.1315 7.99821 16 7.99821C15.8685 7.99821 15.7382 8.02416 15.6167 8.07457C15.4952 8.12499 15.3849 8.19887 15.292 8.292L9.292 14.292C9.10423 14.4798 8.99874 14.7344 8.99874 15C8.99874 15.2656 9.10423 15.5202 9.292 15.708C9.47977 15.8958 9.73445 16.0013 10 16.0013C10.2656 16.0013 10.5202 15.8958 10.708 15.708L15 11.414V23C15 23.2652 15.1054 23.5196 15.2929 23.7071C15.4804 23.8946 15.7348 24 16 24C16.2652 24 16.5196 23.8946 16.7071 23.7071C16.8946 23.5196 17 23.2652 17 23Z" fill="#3B4FFF"/>
<rect width="32" height="32" rx="6" fill="#3B4FFF"/>
<g clip-path="url(#clip1_9226_29299)">
<path d="M15.9847 22.9987C13.6982 22.9987 11.4126 23.0005 9.1261 22.9952C8.89407 22.9952 8.65264 22.9782 8.43 22.9192C7.17119 22.5838 6.63197 21.3275 7.26795 20.2312C7.44174 19.9317 7.63338 19.6411 7.81656 19.346C9.96311 15.8917 12.1115 12.4375 14.2562 8.98145C14.5953 8.4351 15.0632 8.08279 15.7424 8.01394C16.6357 7.92452 17.3168 8.24374 17.7724 8.97698C19.0463 11.0282 20.3145 13.0831 21.5845 15.137C22.6207 16.8118 23.6597 18.4849 24.6912 20.1633C25.282 21.1245 25.004 22.2056 24.0401 22.7439C23.6841 22.9424 23.2924 22.9978 22.8894 22.9987C20.5878 23.0005 18.2853 22.9987 15.9838 22.9987H15.9847ZM15.9763 21.9373C18.3013 21.9373 20.6273 21.9194 22.9514 21.9481C23.6447 21.957 24.0871 21.2148 23.7273 20.6461C21.3891 16.9451 19.0923 13.2199 16.7823 9.50276C16.3924 8.87593 15.608 8.8804 15.2163 9.50902C14.4272 10.7779 13.6381 12.0467 12.8499 13.3156C11.3281 15.7639 9.80341 18.2104 8.29097 20.664C8.18293 20.8393 8.10496 21.0718 8.12469 21.2685C8.16602 21.7031 8.52206 21.9373 9.04719 21.9373C11.3563 21.9382 13.6663 21.9373 15.9753 21.9373H15.9763Z" fill="white"/>
<path d="M16.5228 14.6849C16.5228 15.4673 16.5256 16.2488 16.5218 17.0313C16.52 17.3701 16.395 17.5383 16.116 17.6026C15.7966 17.6769 15.5129 17.5016 15.4603 17.194C15.45 17.1359 15.4481 17.0751 15.4481 17.016C15.4481 15.4745 15.4462 13.932 15.4481 12.3904C15.4481 12.031 15.5787 11.8441 15.8633 11.7734C16.1724 11.6965 16.4288 11.8414 16.4984 12.1391C16.52 12.2321 16.5228 12.3314 16.5228 12.4271C16.5247 13.1791 16.5237 13.932 16.5228 14.684V14.6849Z" fill="white"/>
<path d="M16.8038 19.7559C16.8113 20.1976 16.4375 20.5821 15.9997 20.5804C15.5817 20.5795 15.2078 20.2146 15.1965 19.7988C15.1862 19.3804 15.5647 18.9976 15.995 18.9914C16.4299 18.9842 16.7954 19.3312 16.8029 19.7559H16.8038Z" fill="white"/>
</g>
</g>
<defs>
<clipPath id="clip0_9226_29299">
<rect width="32" height="32" fill="white"/>
</clipPath>
<clipPath id="clip1_9226_29299">
<rect width="18" height="15" fill="white" transform="translate(7 8)"/>
</clipPath>
</defs>
</svg>
