<svg width="34" height="33" viewBox="0 0 34 33" fill="none" xmlns="http://www.w3.org/2000/svg">
<g clip-path="url(#clip0_9226_29309)">
<path d="M4.99432 32.06C3.93134 32.06 2.91189 31.6378 2.16024 30.8862C1.4086 30.1347 0.986328 29.1154 0.986328 28.0525V4.0075C0.986328 2.94464 1.4086 1.92532 2.16024 1.17377C2.91189 0.422218 3.93134 0 4.99432 0L29.0423 0C30.1053 0 31.1247 0.422218 31.8764 1.17377C32.628 1.92532 33.0503 2.94464 33.0503 4.0075V28.0525C33.0503 29.1154 32.628 30.1347 31.8764 30.8862C31.1247 31.6378 30.1053 32.06 29.0423 32.06H4.99432ZM18.0203 23.0431V11.4354L22.3209 15.7375C22.414 15.8306 22.5246 15.9045 22.6464 15.9549C22.7681 16.0053 22.8985 16.0313 23.0303 16.0313C23.1621 16.0313 23.2925 16.0053 23.4142 15.9549C23.536 15.9045 23.6466 15.8306 23.7397 15.7375C23.8329 15.6443 23.9068 15.5337 23.9572 15.412C24.0076 15.2903 24.0336 15.1599 24.0336 15.0281C24.0336 14.8964 24.0076 14.7659 23.9572 14.6442C23.9068 14.5225 23.8329 14.4119 23.7397 14.3188L17.7277 8.30755C17.6346 8.21425 17.5241 8.14022 17.4023 8.08971C17.2806 8.03921 17.1501 8.01321 17.0183 8.01321C16.8865 8.01321 16.756 8.03921 16.6343 8.08971C16.5125 8.14022 16.402 8.21425 16.3089 8.30755L10.2969 14.3188C10.1088 14.5069 10.0031 14.7621 10.0031 15.0281C10.0031 15.2942 10.1088 15.5493 10.2969 15.7375C10.485 15.9256 10.7402 16.0313 11.0063 16.0313C11.2724 16.0313 11.5276 15.9256 11.7157 15.7375L16.0163 11.4354V23.0431C16.0163 23.3088 16.1219 23.5637 16.3098 23.7516C16.4977 23.9394 16.7526 24.045 17.0183 24.045C17.2841 24.045 17.5389 23.9394 17.7268 23.7516C17.9147 23.5637 18.0203 23.3088 18.0203 23.0431Z" fill="#3B4FFF"/>
<rect x="0.986328" width="32.064" height="32.06" rx="6" fill="#3B4FFF"/>
<g clip-path="url(#clip1_9226_29309)">
<path d="M10.0299 13.4966C9.55497 13.4682 9.23691 13.2597 9.07123 12.8678C9.02339 12.7552 9.00478 12.6251 9.00301 12.5034C8.99681 11.8771 8.99947 11.2516 9.00035 10.627C9.00124 9.63131 9.67015 9.0017 10.7333 9.00086C12.453 8.9992 14.1726 9.00086 15.8923 9.00086C18.6672 9.00086 21.4429 9.00086 24.2178 9.00086C25.3536 9.00086 25.9995 9.61213 25.9995 10.6846C25.9995 11.2683 25.9995 11.8521 25.9995 12.435C25.9995 13.0463 25.6841 13.394 25.0453 13.4857C25.016 13.4899 24.9877 13.4957 24.9363 13.5049V13.7493C24.9363 16.146 24.9381 18.5427 24.9363 20.9394C24.9354 21.9176 24.286 22.7073 23.2946 22.9316C23.0961 22.9767 22.8862 22.9959 22.6815 22.9959C19.2271 23 15.7736 23 12.3192 22.9975C10.9805 22.9975 10.0697 22.1327 10.0644 20.8752C10.0547 18.4993 10.0423 16.1235 10.0316 13.7476C10.0316 13.6717 10.0316 13.5966 10.0316 13.4957L10.0299 13.4966ZM11.6459 13.5032V13.7151C11.6459 16.1118 11.6459 18.5093 11.6459 20.906C11.6459 21.3338 11.8319 21.509 12.2944 21.509C15.7639 21.5098 19.2333 21.5098 22.7028 21.509C23.1732 21.509 23.3522 21.3338 23.3522 20.886C23.3522 18.5026 23.3522 16.1201 23.3522 13.7367V13.5032H11.6467H11.6459ZM10.5986 10.4978V11.9913H24.3976V10.4978H10.5986Z" fill="white"/>
<path d="M17.4729 16.4945C16.7057 16.4945 15.9393 16.497 15.1721 16.4937C14.8407 16.492 14.5687 16.3853 14.4146 16.0834C14.2702 15.7999 14.2896 15.5355 14.4872 15.2812C14.6467 15.076 14.8797 15.0093 15.1278 15.0085C16.6986 15.0026 18.2694 15.0018 19.8402 15.0085C20.1867 15.0101 20.4666 15.1411 20.6146 15.4655C20.7475 15.7557 20.6757 16.01 20.4728 16.2385C20.2868 16.4487 20.0228 16.492 19.7525 16.4937C18.9933 16.4987 18.2331 16.4954 17.4738 16.4954L17.4729 16.4945Z" fill="white"/>
</g>
</g>
<defs>
<clipPath id="clip0_9226_29309">
<rect width="32.064" height="32.06" fill="white" transform="translate(0.986328)"/>
</clipPath>
<clipPath id="clip1_9226_29309">
<rect width="17" height="14" fill="white" transform="translate(9 9)"/>
</clipPath>
</defs>
</svg>
