<svg width="33" height="33" viewBox="0 0 33 33" fill="none" xmlns="http://www.w3.org/2000/svg">
<g clip-path="url(#clip0_9226_29289)">
<path d="M4.33075 32.06C3.26776 32.06 2.24831 31.6378 1.49667 30.8862C0.745024 30.1347 0.322754 29.1154 0.322754 28.0525V4.0075C0.322754 2.94464 0.745024 1.92532 1.49667 1.17377C2.24831 0.422218 3.26776 0 4.33075 0L28.3787 0C29.4417 0 30.4612 0.422218 31.2128 1.17377C31.9644 1.92532 32.3867 2.94464 32.3867 4.0075V28.0525C32.3867 29.1154 31.9644 30.1347 31.2128 30.8862C30.4612 31.6378 29.4417 32.06 28.3787 32.06H4.33075ZM17.3567 23.0431V11.4354L21.6573 15.7375C21.7505 15.8306 21.8611 15.9045 21.9828 15.9549C22.1045 16.0053 22.235 16.0313 22.3667 16.0313C22.4985 16.0313 22.6289 16.0053 22.7507 15.9549C22.8724 15.9045 22.983 15.8306 23.0761 15.7375C23.1693 15.6443 23.2432 15.5337 23.2936 15.412C23.344 15.2903 23.37 15.1599 23.37 15.0281C23.37 14.8964 23.344 14.7659 23.2936 14.6442C23.2432 14.5225 23.1693 14.4119 23.0761 14.3188L17.0641 8.30755C16.9711 8.21425 16.8605 8.14022 16.7388 8.08971C16.617 8.03921 16.4865 8.01321 16.3547 8.01321C16.2229 8.01321 16.0924 8.03921 15.9707 8.08971C15.849 8.14022 15.7384 8.21425 15.6453 8.30755L9.63333 14.3188C9.44518 14.5069 9.33948 14.7621 9.33948 15.0281C9.33948 15.2942 9.44518 15.5493 9.63333 15.7375C9.82147 15.9256 10.0767 16.0313 10.3427 16.0313C10.6088 16.0313 10.864 15.9256 11.0522 15.7375L15.3527 11.4354V23.0431C15.3527 23.3088 15.4583 23.5637 15.6462 23.7516C15.8341 23.9394 16.089 24.045 16.3547 24.045C16.6205 24.045 16.8753 23.9394 17.0633 23.7516C17.2512 23.5637 17.3567 23.3088 17.3567 23.0431Z" fill="#3B4FFF"/>
<rect x="0.322754" width="32.064" height="32.06" rx="6" fill="#3B4FFF"/>
<g clip-path="url(#clip1_9226_29289)">
<path d="M16.361 7.27672C16.3492 7.08342 16.3417 6.91101 16.3288 6.73861C16.2987 6.32902 16.5545 6.01869 16.9425 6.00092C17.3444 5.98212 17.625 6.2517 17.6314 6.66756C17.6346 6.86608 17.6314 7.06461 17.6314 7.23597C18.1914 7.38016 18.7438 7.46584 19.25 7.66228C21.6542 8.5964 23.0535 10.3163 23.3685 12.8261C23.4437 13.4258 23.4125 14.0392 23.4222 14.6473C23.448 16.3724 24.0509 17.8791 25.2826 19.1194C25.6448 19.484 25.9371 19.8466 25.9909 20.3586C26.0876 21.2843 25.4309 22.0973 24.4819 22.2226C24.3411 22.2415 24.1971 22.2477 24.0541 22.2477C19.3456 22.2488 14.6371 22.2477 9.92971 22.2509C9.34827 22.2509 8.84528 22.1088 8.44117 21.673C7.78557 20.9646 7.8823 19.879 8.59809 19.2249C9.48154 18.4172 10.0856 17.4183 10.3392 16.2606C10.4789 15.6211 10.5402 14.9576 10.5574 14.3025C10.5799 13.3893 10.5617 12.475 10.8755 11.5994C11.7299 9.22124 13.428 7.79393 15.9849 7.34464C16.0988 7.32478 16.2127 7.30389 16.361 7.27777V7.27672ZM16.9876 21.0106C19.3295 21.0106 21.6703 21.0106 24.0122 21.0106C24.1186 21.0106 24.2293 21.0137 24.3325 20.9918C24.6904 20.9155 24.8366 20.5613 24.6313 20.2645C24.5421 20.136 24.4378 20.0148 24.3282 19.9009C23.477 19.0086 22.844 17.9972 22.4818 16.8248C22.1529 15.759 22.1325 14.6692 22.1497 13.5732C22.1927 10.8763 20.0367 8.71656 17.4605 8.50863C15.0584 8.31428 12.8821 9.64441 12.0986 11.8596C11.7858 12.7425 11.789 13.6494 11.7912 14.5616C11.7955 16.5354 11.1399 18.272 9.78999 19.7546C9.6363 19.9239 9.48261 20.0942 9.34504 20.275C9.14514 20.5394 9.24617 20.8539 9.56752 20.9604C9.69112 21.0012 9.82976 21.0075 9.96195 21.0075C12.3038 21.0106 14.6447 21.0095 16.9866 21.0095L16.9876 21.0106Z" fill="white"/>
<path d="M16.9638 26.0002C15.9427 26.0023 14.9454 25.3127 14.609 24.3702C14.4789 24.0066 14.6058 23.69 14.9303 23.5688C15.2785 23.4392 15.6139 23.5699 15.7654 23.9188C15.9922 24.4413 16.3737 24.76 16.9659 24.7568C17.5667 24.7537 17.9902 24.4653 18.2277 23.9157C18.3771 23.5688 18.7199 23.4382 19.0649 23.5699C19.3873 23.6931 19.512 24.0097 19.3809 24.3734C19.0337 25.3357 18.0503 25.9971 16.9648 26.0002H16.9638Z" fill="white"/>
<path d="M17.6305 13.1825C17.6305 13.8846 17.6326 14.5878 17.6305 15.29C17.6294 15.7173 17.3801 15.9765 16.9717 15.9859C16.6052 15.9932 16.3214 15.7142 16.3193 15.3036C16.3128 13.8898 16.3128 12.4751 16.3193 11.0614C16.3214 10.6518 16.6041 10.3717 16.9706 10.379C17.379 10.3874 17.6283 10.6465 17.6305 11.0739C17.6326 11.776 17.6305 12.4793 17.6305 13.1814V13.1825Z" fill="white"/>
<path d="M17.9526 17.8721C17.9547 18.3747 17.4776 18.8115 16.9359 18.8021C16.4254 18.7927 16.003 18.3841 15.9933 17.8909C15.9836 17.3789 16.4329 16.938 16.9563 16.9474C17.4958 16.9568 17.9494 17.3779 17.9515 17.8721H17.9526Z" fill="white"/>
</g>
</g>
<defs>
<clipPath id="clip0_9226_29289">
<rect width="32.064" height="32.06" fill="white" transform="translate(0.322754)"/>
</clipPath>
<clipPath id="clip1_9226_29289">
<rect width="18" height="20" fill="white" transform="translate(8 6)"/>
</clipPath>
</defs>
</svg>
