<svg width="18" height="22" viewBox="0 0 18 22" fill="none" xmlns="http://www.w3.org/2000/svg">
<g clip-path="url(#clip0_1301_16046)">
<path d="M9.97327 0.039071V0.315203C9.97327 2.03386 9.97327 3.75252 9.97327 5.47119C9.97327 6.31562 10.5334 6.8782 11.4135 6.88163C13.1773 6.88965 14.941 6.88163 16.7048 6.88163H17.1092V7.19099C17.1092 11.1714 17.1092 15.1514 17.1092 19.1311C17.1092 20.7592 15.8949 21.9761 14.2013 21.9841C10.4359 22.0024 6.66974 22.0024 2.90278 21.9841C1.20801 21.9749 -0.00271693 20.7581 -0.00390625 19.13C-0.00390625 13.7181 -0.00390625 8.30621 -0.00390625 2.89434C-0.00390625 1.25932 1.15092 0.0482363 2.84451 0.0184461C5.18151 -0.0228017 7.5209 0.00813571 9.86147 0.00928148C9.89975 0.0152625 9.93724 0.0252511 9.97327 0.039071ZM7.11891 13.0631C7.11891 13.9499 7.11891 14.8367 7.11891 15.7236C7.11891 16.2311 7.36866 16.4867 7.88958 16.5016C8.23568 16.5107 8.58296 16.5142 8.92905 16.5016C10.1279 16.4523 11.0306 15.6056 11.0532 14.4873C11.0738 13.534 11.0738 12.5792 11.0532 11.6228C11.0487 11.1449 10.8661 10.6844 10.5386 10.3254C10.2112 9.96634 9.76062 9.73268 9.2692 9.66701C8.81851 9.62135 8.36496 9.60756 7.91218 9.62576C7.37223 9.62576 7.1201 9.887 7.1201 10.4095C7.11772 11.294 7.11891 12.1808 7.11891 13.0631ZM3.56761 14.4667C3.84472 14.4403 4.08972 14.4243 4.33234 14.391C5.45863 14.2375 6.2079 13.495 6.39937 12.3344C6.52544 11.5713 6.14843 10.3533 5.08042 9.88471C4.28596 9.54098 3.46057 9.57305 2.634 9.66357C2.28909 9.70253 2.12497 9.97522 2.12497 10.3659C2.12497 12.1587 2.12497 13.9537 2.12497 15.7511C2.12497 16.2094 2.39495 16.4947 2.83143 16.5038C3.26791 16.513 3.56286 16.2231 3.56642 15.7499C3.56999 15.3306 3.56761 14.9112 3.56761 14.4712V14.4667ZM13.5698 11.0018C14.0586 11.0018 14.5141 11.0144 14.9684 11.0018C15.4227 10.9892 15.6891 10.7211 15.6974 10.3304C15.7058 10.2391 15.6938 10.1472 15.6625 10.0607C15.6312 9.97417 15.5812 9.89505 15.5157 9.82855C15.4503 9.76205 15.371 9.70969 15.283 9.67493C15.195 9.64017 15.1003 9.6238 15.0053 9.62691C14.2726 9.60552 13.54 9.60552 12.8074 9.62691C12.3757 9.63951 12.1188 9.90418 12.1176 10.3018C12.1113 12.1419 12.1113 13.9824 12.1176 15.8233C12.1176 16.0069 12.1934 16.1831 12.3282 16.313C12.463 16.4429 12.6459 16.5159 12.8365 16.5159C13.0272 16.5159 13.2101 16.4429 13.3449 16.313C13.4797 16.1831 13.5555 16.0069 13.5555 15.8233C13.5638 15.2412 13.5555 14.6591 13.5555 14.0782V13.7609H13.8921C14.2096 13.7609 14.526 13.7609 14.8435 13.7609C15.4037 13.7609 15.701 13.5099 15.6963 13.0596C15.6915 12.6094 15.3942 12.3722 14.8304 12.3722H13.5698V11.0018Z" fill="#F45D2D"/>
<path d="M11.4375 0.123047C13.2905 1.90893 15.1422 3.69289 16.9928 5.47495H11.4375V0.123047Z" fill="#F45D2D"/>
<path d="M8.58203 11.0327C9.31228 10.9468 9.61675 11.2011 9.61675 11.8852V14.2019C9.61675 14.9226 9.34796 15.1609 8.58203 15.1013V11.0327Z" fill="#F45D2D"/>
<path d="M3.57812 13.0549V11.0177C4.03363 10.996 4.45346 11.0303 4.74603 11.413C4.87996 11.5684 4.95982 11.7604 4.97433 11.9619C4.98884 12.1634 4.93728 12.3642 4.82691 12.5359C4.5498 13.0079 4.09429 13.0629 3.57812 13.0549Z" fill="#F45D2D"/>
</g>
<defs>
<clipPath id="clip0_1301_16046">
<rect width="17.1107" height="22" fill="white"/>
</clipPath>
</defs>
</svg>
