<svg width="46" height="45" viewBox="0 0 46 45" fill="none" xmlns="http://www.w3.org/2000/svg">
<ellipse cx="22.93" cy="22.5" rx="22.93" ry="22.5" fill="#EFF4FF"/>
<g clip-path="url(#clip0_0_1)">
<path d="M19.5174 29.8642C18.1001 29.8642 16.6839 29.871 15.2666 29.8619C14.1254 29.8551 13.2537 29.1551 13.041 28.0778C12.9497 27.6157 13.0143 27.1615 13.1746 26.7174C14.0698 24.2334 14.9604 21.747 15.8533 19.2618C16.2976 18.0237 16.7429 16.7857 17.1894 15.5476C17.5434 14.5655 18.3228 14.0048 19.3526 14.0025C21.6951 13.9992 24.0387 13.9992 26.3812 14.0025C27.3743 14.0037 28.2305 14.6188 28.5734 15.5691C29.0488 16.8865 29.5153 18.2061 29.9918 19.5235C30.0719 19.7455 30.0408 19.8134 29.7947 19.7647C29.5598 19.7183 29.316 19.6979 29.0766 19.7013C28.8383 19.7047 28.7626 19.5642 28.6947 19.374C28.3195 18.3103 27.9365 17.2501 27.558 16.1876C27.2797 15.4049 26.949 15.167 26.1285 15.1659C25.3324 15.1647 24.5352 15.1749 23.7392 15.1602C23.4898 15.1557 23.4186 15.2429 23.4275 15.4864C23.4431 15.9191 23.4353 16.353 23.4308 16.7857C23.4264 17.1934 23.2081 17.4279 22.8485 17.4211C22.5012 17.4155 22.293 17.1855 22.2885 16.7902C22.2841 16.3473 22.2796 15.9044 22.2907 15.4615C22.2952 15.2519 22.2451 15.1557 22.0135 15.1591C21.1618 15.1715 20.3101 15.1568 19.4573 15.167C18.8048 15.1738 18.4742 15.4162 18.2582 16.0165C16.9288 19.7126 15.5984 23.4087 14.2713 27.106C14.0453 27.7346 14.2134 28.2749 14.7133 28.54C14.9649 28.6737 15.2432 28.6974 15.5227 28.6974C18.0511 28.6974 20.5784 28.702 23.1068 28.6906C23.4063 28.6895 23.6134 28.745 23.7437 29.0475C23.8316 29.2513 23.9864 29.4247 24.1088 29.6127C24.1478 29.6727 24.228 29.7282 24.189 29.8087C24.15 29.8902 24.0576 29.8596 23.9875 29.8596C23.1168 29.8619 22.2462 29.8608 21.3756 29.8608C20.7554 29.8608 20.1342 29.8608 19.514 29.8608L19.5174 29.8642Z" fill="#22326B"/>
<path d="M28.9632 20.7857C31.7666 20.7823 33.9632 23.024 34 25.8581C34.0345 28.5812 31.8256 31.0256 28.971 30.9995C26.1709 30.9735 23.9809 28.7477 23.9498 25.9079C23.9197 23.1973 26.1208 20.7427 28.9643 20.7857H28.9632ZM32.8465 25.8921C32.8053 23.8033 31.2656 21.9626 28.9676 21.9672C26.6563 21.9717 25.1177 23.818 25.1077 25.8739C25.0987 27.9242 26.6274 29.8034 28.9643 29.8124C31.2533 29.8215 32.8031 27.9899 32.8465 25.8909V25.8921Z" fill="#22326B"/>
<path d="M22.2888 21.9327C22.2888 21.3867 22.2854 20.8396 22.2888 20.2937C22.2921 19.887 22.5125 19.6525 22.8722 19.6593C23.2184 19.6661 23.4288 19.8961 23.4299 20.2925C23.4333 21.244 23.4333 22.1955 23.4299 23.147C23.4299 23.4879 23.2574 23.7802 23.1282 24.0781C23.0414 24.2809 22.635 24.2446 22.4435 24.0407C22.3211 23.9105 22.2843 23.7496 22.2854 23.5729C22.2888 23.0269 22.2865 22.4798 22.2865 21.9338L22.2888 21.9327Z" fill="#22326B"/>
<path d="M31.4882 24.7702C31.4893 24.9549 31.3935 25.0931 31.2744 25.2154C30.4706 26.0366 29.669 26.859 28.8573 27.6712C28.5612 27.9679 28.2773 27.9657 27.9778 27.6712C27.5313 27.2328 27.0927 26.7865 26.6618 26.3323C26.3902 26.0457 26.3913 25.7263 26.6373 25.4827C26.8733 25.2494 27.1773 25.2517 27.4545 25.5088C27.7273 25.7625 27.9934 26.0264 28.2494 26.2983C28.3775 26.4342 28.4632 26.4218 28.589 26.2938C29.2092 25.6594 29.8326 25.0285 30.465 24.4055C30.8035 24.0714 31.2143 24.1212 31.4214 24.4995C31.4681 24.5833 31.4926 24.6728 31.4882 24.7702Z" fill="#22326B"/>
</g>
<defs>
<clipPath id="clip0_0_1">
<rect width="21" height="17" fill="white" transform="translate(13 14)"/>
</clipPath>
</defs>
</svg>
