<svg width="46" height="45" viewBox="0 0 46 45" fill="none" xmlns="http://www.w3.org/2000/svg">
<ellipse cx="22.93" cy="22.5" rx="22.93" ry="22.5" fill="#EFF4FF"/>
<g clip-path="url(#clip0_0_1)">
<path d="M19.5174 29.8642C18.1001 29.8642 16.6839 29.871 15.2666 29.8619C14.1254 29.8551 13.2537 29.1551 13.041 28.0778C12.9497 27.6157 13.0143 27.1615 13.1746 26.7174C14.0698 24.2334 14.9604 21.747 15.8533 19.2618C16.2976 18.0237 16.7429 16.7857 17.1894 15.5476C17.5434 14.5655 18.3228 14.0048 19.3526 14.0025C21.6951 13.9992 24.0387 13.9992 26.3812 14.0025C27.3743 14.0037 28.2305 14.6188 28.5734 15.5691C29.0488 16.8865 29.5153 18.2061 29.9918 19.5235C30.0719 19.7455 30.0408 19.8134 29.7947 19.7647C29.5598 19.7183 29.316 19.6979 29.0766 19.7013C28.8383 19.7047 28.7626 19.5642 28.6947 19.374C28.3195 18.3103 27.9365 17.2501 27.558 16.1876C27.2797 15.4049 26.949 15.167 26.1285 15.1659C25.3324 15.1647 24.5352 15.1749 23.7392 15.1602C23.4898 15.1557 23.4186 15.2429 23.4275 15.4864C23.4431 15.9191 23.4353 16.353 23.4308 16.7857C23.4264 17.1934 23.2081 17.4279 22.8485 17.4211C22.5012 17.4155 22.293 17.1855 22.2885 16.7902C22.2841 16.3473 22.2796 15.9044 22.2907 15.4615C22.2952 15.2519 22.2451 15.1557 22.0135 15.1591C21.1618 15.1715 20.3101 15.1568 19.4573 15.167C18.8048 15.1738 18.4742 15.4162 18.2582 16.0165C16.9288 19.7126 15.5984 23.4087 14.2713 27.106C14.0453 27.7346 14.2134 28.2749 14.7133 28.54C14.9649 28.6737 15.2432 28.6974 15.5227 28.6974C18.0511 28.6974 20.5784 28.702 23.1068 28.6906C23.4063 28.6895 23.6134 28.745 23.7437 29.0475C23.8316 29.2513 23.9864 29.4247 24.1088 29.6127C24.1478 29.6727 24.228 29.7282 24.189 29.8087C24.15 29.8902 24.0576 29.8596 23.9875 29.8596C23.1168 29.8619 22.2462 29.8608 21.3756 29.8608C20.7554 29.8608 20.1342 29.8608 19.514 29.8608L19.5174 29.8642Z" fill="#22326B"/>
<path d="M28.9633 20.7867C31.7667 20.7833 33.9634 23.025 34.0001 25.8591C34.0346 28.5821 31.8257 31.0266 28.9711 31.0005C26.171 30.9745 23.9811 28.7486 23.9499 25.9089C23.9198 23.1983 26.1209 20.7436 28.9644 20.7867H28.9633ZM32.8467 25.893C32.8055 23.8043 31.2657 21.9636 28.9678 21.9681C26.6564 21.9727 25.1178 23.819 25.1078 25.8749C25.0989 27.9251 26.6275 29.8043 28.9644 29.8134C31.2535 29.8225 32.8032 27.9908 32.8467 25.8919V25.893Z" fill="#22326B"/>
<path d="M22.2888 21.9327C22.2888 21.3867 22.2854 20.8396 22.2888 20.2937C22.2921 19.887 22.5125 19.6525 22.8722 19.6593C23.2184 19.6661 23.4288 19.8961 23.4299 20.2925C23.4333 21.244 23.4333 22.1955 23.4299 23.147C23.4299 23.4879 23.2574 23.7802 23.1282 24.0781C23.0414 24.2809 22.635 24.2446 22.4435 24.0407C22.3211 23.9105 22.2843 23.7496 22.2854 23.5729C22.2888 23.0269 22.2865 22.4798 22.2865 21.9338L22.2888 21.9327Z" fill="#22326B"/>
<path d="M31.151 24.265C31.151 24.4519 31.0497 24.5674 30.9428 24.6773C30.5531 25.0794 30.1679 25.4849 29.7704 25.8791C29.6468 26.0014 29.6513 26.0751 29.7727 26.1963C30.1746 26.5961 30.5654 27.0073 30.9595 27.4139C31.1087 27.568 31.2133 27.739 31.1154 27.9645C30.9773 28.2816 30.6344 28.3428 30.3672 28.0834C29.9608 27.6892 29.5589 27.2882 29.1681 26.877C29.0278 26.7286 28.9421 26.7128 28.794 26.8702C28.4055 27.2825 28.0013 27.6813 27.5961 28.0777C27.3689 28.2997 27.1151 28.3009 26.9292 28.0992C26.7488 27.9044 26.7599 27.6654 26.977 27.4366C27.3578 27.0356 27.7452 26.6426 28.1305 26.2461C28.2663 26.1064 28.2659 25.9663 28.1293 25.8259C27.7441 25.4294 27.3567 25.0363 26.977 24.6354C26.761 24.4077 26.751 24.1675 26.9325 23.9738C27.1195 23.7734 27.3723 23.7756 27.5994 23.9976C28.0035 24.3941 28.4055 24.7939 28.7974 25.204C28.931 25.3433 29.0122 25.3637 29.1559 25.2108C29.5444 24.7985 29.9486 24.3998 30.3527 24.0033C30.6177 23.7439 30.935 23.779 31.0975 24.0724C31.1343 24.1381 31.1543 24.2061 31.1521 24.265H31.151Z" fill="#22326B"/>
</g>
<defs>
<clipPath id="clip0_0_1">
<rect width="21" height="17" fill="white" transform="translate(13 14)"/>
</clipPath>
</defs>
</svg>
