<svg width="228" height="355" viewBox="0 0 228 355" fill="none" xmlns="http://www.w3.org/2000/svg">
<rect x="0.5" y="0.5" width="227" height="354" rx="4.5" fill="#F9F9FC" stroke="#DFE1E8"/>
<path d="M150.494 137.514C151.668 137.514 152.795 137.966 153.625 138.771C154.456 139.575 154.922 140.667 154.922 141.805V212.616C154.922 213.754 154.456 214.846 153.625 215.651C152.795 216.456 151.668 216.908 150.494 216.908H77.4282C76.2538 216.908 75.1275 216.456 74.297 215.651C73.4665 214.846 73 213.754 73 212.616V141.805C73 140.667 73.4665 139.575 74.297 138.771C75.1275 137.966 76.2538 137.514 77.4282 137.514H150.494Z" fill="#F9F9FC" stroke="#CACFDC" stroke-width="2" stroke-linecap="round" stroke-linejoin="round"/>
<path d="M97.8007 151.675C95.8301 151.675 93.9037 152.242 92.2652 153.303C90.6268 154.364 89.3497 155.872 88.5956 157.636C87.8415 159.401 87.6442 161.342 88.0286 163.215C88.4131 165.088 89.362 166.809 90.7554 168.159C92.1488 169.51 93.9242 170.429 95.8569 170.802C97.7896 171.174 99.793 170.983 101.614 170.252C103.434 169.522 104.99 168.284 106.085 166.696C107.18 165.108 107.764 163.241 107.764 161.331C107.735 158.779 106.676 156.339 104.814 154.534C102.952 152.729 100.434 151.703 97.8007 151.675ZM122.82 170.773L106.879 186.222C106.739 186.374 106.569 186.495 106.378 186.578C106.187 186.66 105.981 186.703 105.771 186.703C105.562 186.703 105.356 186.66 105.165 186.578C104.974 186.495 104.804 186.374 104.664 186.222L101.565 183.218C101.426 183.067 101.255 182.946 101.064 182.863C100.873 182.781 100.667 182.738 100.458 182.738C100.249 182.738 100.042 182.781 99.8511 182.863C99.6603 182.946 99.4897 183.067 99.3506 183.218L82.0805 199.956C81.9245 200.09 81.7996 200.256 81.7141 200.441C81.6287 200.625 81.5845 200.826 81.5845 201.028C81.5845 201.231 81.6287 201.431 81.7141 201.616C81.7996 201.801 81.9245 201.966 82.0805 202.101C82.3831 202.371 82.7768 202.523 83.1875 202.53H144.74C144.945 202.536 145.149 202.502 145.34 202.428C145.531 202.355 145.704 202.244 145.849 202.104C145.995 201.963 146.109 201.795 146.184 201.61C146.26 201.425 146.296 201.227 146.29 201.028C146.323 200.726 146.244 200.422 146.068 200.17L125.034 170.987C124.755 170.697 124.377 170.514 123.969 170.475C123.561 170.435 123.153 170.541 122.82 170.773Z" fill="#F9F9FC" stroke="#CACFDC" stroke-width="2" stroke-linecap="round" stroke-linejoin="round"/>
</svg>
