<svg width="19" height="22" viewBox="0 0 19 22" fill="none" xmlns="http://www.w3.org/2000/svg">
<g clip-path="url(#clip0_14897_130537)">
<path d="M7.00016 22.0002C3.50132 22.0049 0.414876 19.2249 0.0445489 15.7244C-0.194937 13.4628 0.536371 11.535 2.11231 9.93638C4.88801 7.11996 7.67189 4.3106 10.4768 1.52357C11.9172 0.091858 13.6684 -0.371275 15.5796 0.306968C17.4768 0.980509 18.6415 2.39224 18.9441 4.41757C19.1532 5.8199 18.7735 7.09645 17.8635 8.19551C17.7268 8.36125 17.5843 8.52229 17.4336 8.6751C14.7992 11.3575 12.1766 14.0505 9.52235 16.7129C8.54689 17.6909 7.34478 18.0048 6.03053 17.5087C4.02586 16.7505 3.01534 14.0199 4.85296 12.1227C7.03404 9.87173 9.26184 7.66655 11.4768 5.44845C11.9967 4.92772 12.721 5.00765 13.103 5.60126C13.3273 5.9492 13.3296 6.30184 13.0983 6.64507C13.0118 6.7732 12.902 6.8884 12.7934 6.99889C10.6824 9.15469 8.56441 11.3034 6.46394 13.471C6.25132 13.6896 6.08076 14 6.01067 14.2962C5.89502 14.7816 6.17422 15.2436 6.62399 15.4857C7.04922 15.715 7.56558 15.6527 7.96044 15.3235C8.01301 15.28 8.05974 15.2307 8.1088 15.1813C10.7525 12.5224 13.395 9.86232 16.0375 7.20342C16.9289 6.30537 17.1952 5.2451 16.7607 4.05435C16.0305 2.04783 13.4347 1.47185 11.9312 2.97762C9.14385 5.76935 6.3588 8.56226 3.59011 11.3728C1.04689 13.9541 1.81675 18.0506 5.10296 19.5246C6.881 20.3216 9.02819 19.8914 10.4861 18.4303C12.6649 16.2463 14.8366 14.054 17.013 11.8665C17.4791 11.3987 17.9616 11.3246 18.4242 11.6455C18.9231 11.9911 19.02 12.6012 18.6474 13.0807C18.5819 13.1654 18.506 13.2418 18.4301 13.3182C16.242 15.521 14.0551 17.725 11.8635 19.9255C10.5212 21.2726 8.91371 21.999 7.00132 22.0037L7.00016 22.0002Z" fill="#363740"/>
</g>
<defs>
<clipPath id="clip0_14897_130537">
<rect width="19" height="22" fill="white"/>
</clipPath>
</defs>
</svg>
