<svg width="38" height="38" viewBox="0 0 38 38" fill="none" xmlns="http://www.w3.org/2000/svg">
<circle cx="19" cy="19" r="19" fill="#FFEDED"/>
<path d="M27.3195 23.595L20.6324 11.9819C20.4653 11.6973 20.2267 11.4614 19.9403 11.2975C19.654 11.1336 19.3297 11.0474 18.9998 11.0474C18.6698 11.0474 18.3456 11.1336 18.0592 11.2975C17.7729 11.4614 17.5343 11.6973 17.3672 11.9819L10.6801 23.595C10.5193 23.8702 10.4346 24.1832 10.4346 24.5019C10.4346 24.8206 10.5193 25.1336 10.6801 25.4088C10.8451 25.6951 11.0832 25.9323 11.3701 26.0961C11.657 26.2599 11.9823 26.3444 12.3127 26.341H25.6869C26.017 26.3441 26.342 26.2595 26.6286 26.0957C26.9152 25.9319 27.1531 25.6948 27.318 25.4088C27.479 25.1338 27.564 24.8209 27.5642 24.5021C27.5645 24.1834 27.48 23.8703 27.3195 23.595ZM26.2589 24.7963C26.2006 24.8958 26.1169 24.9779 26.0164 25.0344C25.9159 25.0908 25.8021 25.1195 25.6869 25.1175H12.3127C12.1974 25.1195 12.0837 25.0908 11.9832 25.0344C11.8827 24.9779 11.799 24.8958 11.7407 24.7963C11.6879 24.7069 11.66 24.605 11.66 24.5012C11.66 24.3973 11.6879 24.2954 11.7407 24.206L18.4278 12.5928C18.4873 12.4939 18.5714 12.412 18.6719 12.3551C18.7723 12.2983 18.8858 12.2684 19.0013 12.2684C19.1168 12.2684 19.2303 12.2983 19.3308 12.3551C19.4313 12.412 19.5153 12.4939 19.5748 12.5928L26.2619 24.206C26.3143 24.2957 26.3416 24.3977 26.3411 24.5016C26.3405 24.6054 26.3121 24.7072 26.2589 24.7963ZM18.388 20.2236V17.1648C18.388 17.0026 18.4525 16.847 18.5672 16.7323C18.6819 16.6175 18.8375 16.5531 18.9998 16.5531C19.162 16.5531 19.3176 16.6175 19.4324 16.7323C19.5471 16.847 19.6115 17.0026 19.6115 17.1648V20.2236C19.6115 20.3858 19.5471 20.5414 19.4324 20.6561C19.3176 20.7708 19.162 20.8353 18.9998 20.8353C18.8375 20.8353 18.6819 20.7708 18.5672 20.6561C18.4525 20.5414 18.388 20.3858 18.388 20.2236ZM19.9174 22.9764C19.9174 23.1579 19.8636 23.3353 19.7628 23.4862C19.6619 23.6371 19.5186 23.7547 19.3509 23.8242C19.1833 23.8936 18.9988 23.9118 18.8208 23.8764C18.6428 23.841 18.4793 23.7536 18.3509 23.6252C18.2226 23.4969 18.1352 23.3334 18.0998 23.1554C18.0644 22.9774 18.0826 22.7929 18.152 22.6252C18.2215 22.4576 18.3391 22.3143 18.49 22.2134C18.6409 22.1126 18.8183 22.0588 18.9998 22.0588C19.2432 22.0588 19.4765 22.1555 19.6486 22.3275C19.8207 22.4996 19.9174 22.733 19.9174 22.9764Z" fill="#E60000"/>
</svg>
