<svg width="20" height="20" viewBox="0 0 20 20" fill="none" xmlns="http://www.w3.org/2000/svg">
<path d="M9.93625 19.8152C4.4559 19.8152 0 15.3721 0 9.90759C0 4.44306 4.4559 0 9.93625 0C15.4166 0 19.8725 4.44306 19.8725 9.90759C19.8725 15.3721 15.4094 19.8152 9.93625 19.8152ZM9.93625 1.52864C5.30123 1.52864 1.53306 5.28595 1.53306 9.90759C1.53306 14.5292 5.30123 18.2865 9.93625 18.2865C14.5713 18.2865 18.3395 14.5292 18.3395 9.90759C18.3395 5.28595 14.5713 1.52864 9.93625 1.52864Z" fill="black"/>
<path d="M13.7568 14.4789C13.592 14.4789 13.4201 14.4217 13.2768 14.3146L9.45843 11.2645C9.27933 11.1216 9.17188 10.9002 9.17188 10.6716V5.33561C9.17188 4.91416 9.51572 4.57129 9.9384 4.57129C10.3611 4.57129 10.7049 4.91416 10.7049 5.33561V10.3001L14.2368 13.1217C14.5663 13.386 14.6165 13.8646 14.3586 14.1932C14.201 14.386 13.9789 14.4789 13.7568 14.4789Z" fill="black"/>
</svg>
