<svg width="22" height="21" viewBox="0 0 22 21" fill="none" xmlns="http://www.w3.org/2000/svg">
<g clip-path="url(#clip0_727_16289)">
<path d="M11.9878 20.9975C9.09282 20.9975 6.19899 20.9988 3.30401 20.9963C2.78496 20.9963 2.27395 20.931 1.79853 20.6826C0.58588 20.0478 0.012856 18.9587 0.00711423 17.5234C-0.00551757 13.5161 0.00252085 9.50885 0.00252085 5.50156C0.00252085 4.05121 -0.00207253 2.60086 0.00481754 1.15051C0.00826257 0.35758 0.600809 -0.144272 1.29556 0.0376489C1.71356 0.146802 2.02016 0.56083 2.04887 1.06143C2.05461 1.16556 2.05117 1.2697 2.05117 1.37383C2.05117 6.72734 2.05117 12.0796 2.05117 17.4331C2.05117 18.3226 2.4485 18.7605 3.26267 18.7605C9.09053 18.7605 14.9172 18.7605 20.7451 18.7605C21.1263 18.7605 21.4972 18.8082 21.751 19.1683C21.9933 19.5133 22.0749 19.8884 21.9072 20.3112C21.7246 20.7704 21.3847 20.9511 20.9587 20.9937C20.8634 21.0038 20.768 20.9975 20.6727 20.9975C17.7778 20.9975 14.8839 20.9975 11.9889 20.9975H11.9878Z" fill="#363740"/>
<path d="M15.1401 14.9879C13.2683 14.9879 8.63935 14.9879 6.76755 14.9879C5.98323 14.9879 5.50781 14.5638 5.50781 13.8687C5.50781 13.1737 5.98323 12.7509 6.7687 12.7509C10.5134 12.7509 17.0142 12.7509 20.7578 12.7509C21.1391 12.7509 21.51 12.801 21.7615 13.1636C22.0095 13.5212 22.0819 13.9076 21.8981 14.3355C21.6914 14.8172 21.3182 14.9791 20.8715 14.9841C19.83 14.9941 18.7896 14.9866 17.748 14.9879C16.8787 14.9879 16.0094 14.9879 15.1401 14.9879Z" fill="#363740"/>
<path d="M11.0136 3.73507C12.4467 3.73507 16.6348 3.73256 18.0679 3.73633C18.4193 3.73633 18.7603 3.80282 18.9935 4.13028C19.2381 4.47154 19.3276 4.84667 19.1646 5.27074C18.9877 5.73119 18.6524 5.91938 18.2252 5.96831C18.1586 5.97584 18.092 5.97208 18.0242 5.97208C15.1775 5.97208 9.57472 5.97208 6.72912 5.97208C6.35821 5.97208 5.99763 5.91562 5.75188 5.56558C5.50269 5.21052 5.42575 4.82535 5.60834 4.39501C5.81274 3.91197 6.18366 3.74385 6.63037 3.74009C7.64321 3.73005 8.6549 3.73633 9.66774 3.73633C10.1167 3.73633 10.5657 3.73633 11.0147 3.73633L11.0136 3.73507Z" fill="#363740"/>
<path d="M9.61401 10.4799C8.62988 10.4799 7.64689 10.485 6.66276 10.4774C6.31137 10.4749 5.97375 10.3984 5.74523 10.0647C5.49949 9.70459 5.42714 9.32067 5.61088 8.89159C5.81873 8.40981 6.19194 8.24922 6.6375 8.24545C7.63082 8.23542 8.62414 8.24294 9.61745 8.24294C10.6016 8.24294 14.3406 8.23918 15.3247 8.24545C15.6761 8.24796 16.016 8.31697 16.2469 8.64693C16.496 9.002 16.5764 9.38591 16.3961 9.8175C16.194 10.3018 15.8243 10.4724 15.3776 10.4774C14.375 10.4887 10.6154 10.4812 9.61286 10.4812L9.61401 10.4799Z" fill="#363740"/>
</g>
<defs>
<clipPath id="clip0_727_16289">
<rect width="22" height="21" fill="white"/>
</clipPath>
</defs>
</svg>
