<svg width="16" height="12" viewBox="0 0 16 12" fill="none" xmlns="http://www.w3.org/2000/svg">
<path d="M15.9324 5.4677C15.8157 4.9456 15.603 4.48668 15.1258 4.18656C14.768 3.96126 14.1416 3.89974 13.7746 4.27136C13.6578 4.38941 13.5377 4.50497 13.4301 4.63051C13.1682 4.93562 12.8137 5.05368 12.4834 4.93729C12.1689 4.82671 12.0004 4.54239 12.0004 4.12337C12.0004 3.1116 12.0004 2.10065 12.0004 1.08887C12.0004 0.398004 11.6259 0.00559735 10.9403 0.00642872C9.89761 0.00809146 8.85497 0.0222248 7.81316 0.0388522C7.56542 0.043009 7.33104 0.105362 7.17256 0.324844C6.8998 0.703117 6.98321 1.14291 7.38859 1.45135C8.29444 2.14056 8.18768 3.23215 7.16422 3.74344C6.66541 3.99285 6.13742 4.07349 5.58524 3.99618C5.1173 3.9305 4.70274 3.75092 4.37994 3.39759C3.91534 2.89045 3.78188 2.17215 4.44667 1.58437C4.53508 1.50622 4.63851 1.44304 4.71692 1.35657C4.93129 1.11963 5.07643 0.849438 4.94714 0.525204C4.81284 0.19515 4.56344 0.00393461 4.19226 0.00310324C3.14962 0.00310324 2.10698 -0.00687321 1.06433 0.00642872C0.397873 0.0155738 0 0.441235 0 1.10134V1.246C0 1.93438 0 2.62275 0 3.31196V9.26124C0 9.30946 0 9.35768 0 9.4059C0 9.92551 0 10.4451 0 10.9647C0 11.5766 0.375352 11.9848 0.985924 11.9915C2.05609 12.0039 3.12626 12.0006 4.19727 11.9931C4.61683 11.9906 4.89542 11.7795 4.96882 11.4004C5.03555 11.0553 4.88291 10.7851 4.60682 10.5756C3.71265 9.89807 3.81107 8.78736 4.8312 8.3035C5.1615 8.14721 5.5427 8.04329 5.90637 8.02333C6.58617 7.98592 7.2176 8.16633 7.68887 8.70589C8.16515 9.25044 8.11094 9.94796 7.56209 10.4168C7.467 10.4975 7.3569 10.5648 7.27599 10.6579C7.06829 10.899 6.93984 11.1701 7.05578 11.496C7.17589 11.8318 7.43947 11.989 7.77812 11.9915C8.86915 12.0006 9.961 12.0056 11.052 11.9881C11.6292 11.979 12.0004 11.5641 12.0004 10.9905C12.0004 9.92385 11.9987 8.8572 12.0013 7.78972C12.0021 7.37237 12.2573 7.06726 12.6702 7.02236C12.9997 6.98661 13.2549 7.14208 13.4576 7.39981C13.6645 7.66335 13.8914 7.90694 14.2467 7.96929C14.8389 8.07405 15.2827 7.82547 15.5996 7.35408C15.9858 6.78043 16.0842 6.14194 15.9333 5.46687L15.9324 5.4677Z" fill="black"/>
</svg>
