<svg width="20" height="14" viewBox="0 0 20 14" fill="none" xmlns="http://www.w3.org/2000/svg">
<path d="M4.66406 10.6667C4.1118 10.6667 3.66406 11.1145 3.66406 11.6667C3.66406 12.219 4.11176 12.6667 4.66406 12.6667C5.21637 12.6667 5.66406 12.2191 5.66406 11.6667C5.66344 11.1147 5.21609 10.6673 4.66406 10.6667ZM4.66406 12.0001C4.47996 12.0001 4.33074 11.8508 4.33074 11.6667C4.33074 11.4826 4.47996 11.3334 4.66406 11.3334C4.84816 11.3334 4.99738 11.4826 4.99738 11.6667C4.99719 11.8508 4.84809 11.9999 4.66406 12.0001Z" fill="white"/>
<path d="M15.332 10.6667C14.7798 10.6667 14.332 11.1145 14.332 11.6667C14.332 12.219 14.7798 12.6667 15.332 12.6667C15.8843 12.6667 16.332 12.2191 16.332 11.6667C16.3314 11.1147 15.8841 10.6673 15.332 10.6667ZM15.332 12.0001C15.1479 12.0001 14.9987 11.8508 14.9987 11.6667C14.9987 11.4826 15.148 11.3334 15.332 11.3334C15.5161 11.3334 15.6654 11.4826 15.6654 11.6667C15.6652 11.8508 15.5161 11.9999 15.332 12.0001Z" fill="white"/>
<path d="M19.7459 5.92187L17.4497 3.33594C17.2595 3.12172 16.9865 2.99941 16.7 3H15.6667C14.5621 3 13.6667 2.10457 13.6667 1C13.6661 0.447969 13.2187 0.000585937 12.6667 0H1C0.447969 0.000585937 0.00058597 0.447969 3.25534e-08 1V9.66668C-3.903e-05 9.75508 0.0350782 9.83988 0.0976172 9.90242C0.160117 9.96492 0.244922 10 0.333359 10C0.517447 10 0.66668 10.1493 0.66668 10.3334V11C0.667266 11.5521 1.11465 11.9995 1.66668 12C2.06451 12 2.38847 12.3019 2.55781 12.6619C2.93345 13.4605 3.74425 14 4.66668 14C5.22166 14 5.73623 13.8047 6.13994 13.4752C6.91082 12.846 7.7124 12 8.70747 12H11.2926C12.2877 12 13.0893 12.846 13.8601 13.4752C14.2638 13.8047 14.7784 14 15.3334 14C16.0212 14 16.6469 13.7001 17.0764 13.2165C17.5947 12.633 18.2196 12 19 12C19.552 11.9995 19.9994 11.5521 20 11V6.5866C19.9998 6.34133 19.9093 6.10477 19.7459 5.92187ZM2.66668 9.33332C1.56211 9.33332 0.66668 8.43789 0.66668 7.33332V1C0.666875 0.815977 0.815977 0.666836 1 0.666679H12.6667C12.8507 0.666875 12.9998 0.815977 13 1V7.33332C13 8.43789 12.1046 9.33332 11 9.33332H2.66668ZM2.45006 10.9456C2.37964 11.1625 2.19067 11.3333 1.96266 11.3333H1.66668C1.48266 11.3331 1.33352 11.184 1.33336 11V10.4932C1.33336 10.2208 1.55419 10 1.82659 10H1.91189C2.32287 10 2.57698 10.5547 2.45006 10.9456ZM4.66668 13.3333C3.74621 13.3333 3 12.5871 3 11.6666C3 10.7462 3.74621 10 4.66668 10C5.58715 10 6.33336 10.7462 6.33336 11.6667C6.33227 12.5867 5.58668 13.3323 4.66668 13.3333ZM8 10.7833C8 11.0871 7.75375 11.3333 7.44999 11.3333H7.37064C7.14264 11.3333 6.95368 11.1625 6.88328 10.9456C6.75637 10.5547 7.01051 10 7.42148 10H7.5068C7.77919 10 8 10.2208 8 10.4932V10.7833ZM11 10.6667C11 11.0348 10.7015 11.3333 10.3333 11.3333H9.33334C8.96515 11.3333 8.66668 11.0348 8.66668 10.6667C8.66668 10.2985 8.96515 10 9.33334 10H10.3333C10.7015 10 11 10.2985 11 10.6667ZM13.1167 10.9456C13.0463 11.1625 12.8574 11.3333 12.6293 11.3333H12.3333C11.9652 11.3333 11.6667 11.0348 11.6667 10.6667V10.5897C11.6667 10.264 11.9307 10 12.2564 10H12.5785C12.9895 10 13.2436 10.5547 13.1167 10.9456ZM15.3333 13.3333C14.4129 13.3333 13.6666 12.5871 13.6666 11.6666C13.6666 10.7462 14.4128 9.99996 15.3333 9.99996C16.2538 9.99996 17 10.7462 17 11.6666C16.9989 12.5867 16.2534 13.3323 15.3333 13.3333ZM19.3333 11C19.3331 11.184 19.184 11.3332 19 11.3333C18.2193 11.3333 17.5937 10.7008 17.0749 10.1174C16.6453 9.63443 16.0204 9.33455 15.3333 9.33332C14.4128 9.33332 13.6666 8.58712 13.6666 7.66664V4.33336C13.6666 3.96516 13.9651 3.66668 14.3333 3.66668C14.7015 3.66668 15 3.96516 15 4.33336V7C15.0006 7.55203 15.448 7.99941 16 8H17.3333C18.4379 8 19.3333 8.89543 19.3333 10V11ZM19.3333 7.33332H16C15.816 7.33312 15.6668 7.18402 15.6667 7V4.70004C15.6667 4.12933 16.1293 3.66668 16.7 3.66668C16.7957 3.66613 16.8871 3.70668 16.9509 3.77801L19.2479 6.36492C19.3026 6.42586 19.333 6.50473 19.3334 6.5866V7.33328C19.3334 7.3333 19.3333 7.33332 19.3333 7.33332Z" fill="white"/>
</svg>
