<svg width="92" height="92" viewBox="0 0 92 92" fill="none" xmlns="http://www.w3.org/2000/svg">
<g clip-path="url(#clip0_12058_4113)">
<path d="M1.0593 92.0002C0.0557618 91.3757 -0.118324 90.5361 0.17608 89.3996C1.12841 85.7239 1.96811 82.0226 2.91276 78.3443C3.04332 77.8324 3.31981 77.1745 3.72941 76.9493C4.13902 76.724 4.89935 76.7548 5.37808 76.9621C5.99249 77.2181 6.16145 77.8964 5.99505 78.5849C5.33797 81.288 4.68175 83.9901 4.02638 86.6914C3.93678 87.0575 3.86254 87.4286 3.77037 87.8279C3.87747 87.8415 3.98585 87.8415 4.09294 87.8279C8.17364 86.2921 12.2543 84.741 16.4272 83.1616C16.2352 82.9415 16.1046 82.7675 15.9485 82.6164C11.4991 78.3315 8.95957 73.1226 8.40148 66.9665C8.14548 64.1355 7.90227 61.302 7.69491 58.4659C7.61555 57.3447 8.3426 56.6485 9.36149 56.7406C10.1705 56.8123 10.6697 57.3754 10.7516 58.3404C11.0076 61.2636 11.1817 64.1919 11.4914 67.1099C12.1212 73.0586 14.8681 77.881 19.4634 81.6719C19.5683 81.7325 19.6851 81.7696 19.8058 81.7807C19.9265 81.7917 20.0481 81.7764 20.1623 81.7359C25.8993 79.5832 31.6287 77.41 37.4784 75.1959C37.2224 75.027 37.0355 74.8939 36.8435 74.7966C22.864 67.6432 14.3732 56.3618 11.3711 40.9525C11.3233 40.7171 11.2934 40.4783 11.2815 40.2384C11.2329 39.3015 11.7577 38.6258 12.6076 38.5157C13.3756 38.4184 14.0899 38.9329 14.287 39.8083C14.5635 41.0344 14.7376 42.2836 15.055 43.4943C18.8439 57.6408 27.4883 67.5681 40.9882 73.2762C41.3878 73.4478 41.8344 73.4767 42.2528 73.3581C45.5374 72.1601 48.804 70.9059 52.0757 69.667C52.1832 69.6261 52.2805 69.5493 52.2011 69.5953C49.6411 68.2208 46.8916 66.964 44.3649 65.3616C33.2082 58.2816 24.3787 48.9643 18.0707 37.3203C16.7363 34.9037 15.8638 32.2597 15.4979 29.5236C14.9091 24.9161 17.8019 21.5757 22.2718 21.7549C22.6304 21.7676 22.9866 21.8191 23.3342 21.9085C23.704 21.9921 24.0269 22.2161 24.2347 22.5332C24.4425 22.8503 24.5189 23.2357 24.4478 23.6081C24.3943 23.9832 24.2004 24.3239 23.9053 24.5615C23.6102 24.7991 23.2359 24.9158 22.858 24.888C22.4996 24.888 22.1412 24.8035 21.7853 24.8189C19.7501 24.8957 18.5725 26.0705 18.5034 28.1029C18.4419 29.9971 18.9872 31.771 19.6784 33.5013C21.5908 38.2751 24.4734 42.4602 27.7118 46.4046C33.902 53.9557 41.0368 60.4035 49.7537 64.9572C51.9631 66.1116 54.2645 67.0357 56.7836 67.2609C57.3192 67.3079 57.8583 67.2959 58.3913 67.2251C59.912 67.0305 60.744 66.1654 60.9181 64.65C61.1203 62.9095 60.6877 61.2636 60.1501 59.6331C59.9968 59.2444 59.8761 58.8437 59.7891 58.4351C59.7165 58.0926 59.7744 57.7353 59.9515 57.4332C60.1287 57.1312 60.4122 56.9061 60.7465 56.8021C61.0828 56.6538 61.4638 56.643 61.8079 56.7722C62.1519 56.9014 62.4317 57.1602 62.5872 57.4932C63.7162 60.2397 64.4919 63.063 63.7444 66.0553C63.2682 67.952 62.047 69.2498 60.2064 69.9409C54.4139 72.1149 48.6214 74.2881 42.8289 76.4604C29.3852 81.5337 15.9391 86.6172 2.49036 91.711C2.30676 91.7967 2.1289 91.8941 1.95787 92.0028L1.0593 92.0002Z" fill="black"/>
<path d="M88.7651 92.0009C87.5465 91.2049 87.416 90.6776 88.0637 89.3107C88.5778 88.2908 88.849 87.1658 88.8561 86.0238C88.8632 84.8817 88.606 83.7534 88.1046 82.7272C88 82.5138 87.8812 82.3077 87.7488 82.1103C87.7257 82.0719 87.6464 82.0719 87.6566 82.0745C87.3776 83.0651 87.1933 84.0992 86.799 85.0437C85.8518 87.3142 84.0777 88.5863 81.6303 88.7578C79.0703 88.937 77.0632 87.8542 75.8318 85.5992C74.644 83.4209 74.772 81.2196 76.1979 79.1616C77.4011 77.4196 79.1929 76.1707 81.2437 75.6446C81.4409 75.5908 81.6329 75.5166 81.9093 75.4244C79.9688 73.183 77.5283 71.4293 74.7848 70.3051C73.4172 69.7877 72.0173 69.3602 70.594 69.0252C69.4983 68.7386 68.8788 68.0782 69.058 67.1951C69.2397 66.2429 70.0641 65.777 71.2084 66.0074C77.5598 67.2872 82.5519 70.6148 86.2332 75.9364C86.6012 76.4731 87.0553 76.9453 87.5773 77.334C91.8013 80.4261 93.1709 86.4259 90.6493 90.9873C90.4291 91.384 90.0119 91.6682 89.6867 92.0112L88.7651 92.0009ZM84.6102 81.5523L84.4899 81.5139C84.4803 81.1251 84.4487 80.7371 84.3951 80.3518C84.0751 78.6829 83.2278 78.1863 81.6226 78.7239C80.4124 79.11 79.3713 79.8997 78.6735 80.961C78.4371 81.3056 78.2741 81.6951 78.1944 82.1053C78.1148 82.5154 78.1203 82.9376 78.2105 83.3456C78.3008 83.7535 78.4739 84.1386 78.7191 84.477C78.9643 84.8153 79.2764 85.0997 79.636 85.3125C79.9947 85.5319 80.3955 85.6733 80.8125 85.7273C81.2295 85.7813 81.6531 85.7468 82.0558 85.626C82.4586 85.5053 82.8313 85.3009 83.1497 85.0264C83.4681 84.7518 83.725 84.4132 83.9036 84.0326C84.2595 83.2647 84.3823 82.3816 84.6102 81.5523Z" fill="black"/>
<path d="M91.9984 31.0845C91.2867 32.1263 89.3949 32.6536 88.2838 31.9881C88.0571 31.8405 87.8651 31.6456 87.721 31.4167C87.577 31.1878 87.4842 30.9304 87.4492 30.6622C87.4804 30.3933 87.5695 30.1343 87.7105 29.9032C87.8515 29.672 88.041 29.4743 88.2659 29.3235C89.3462 28.658 91.2458 29.1673 91.9984 30.1861V31.0845Z" fill="black"/>
<path d="M2.94525 15.9446C3.16541 14.6136 3.41374 13.2595 3.59294 11.8978C3.61847 11.5648 3.51282 11.235 3.29854 10.9788C2.4358 10.0676 1.50652 9.20497 0.615624 8.32956C0.131778 7.86114 -0.152388 7.32873 0.085695 6.64274C0.323778 5.95674 0.853708 5.63166 1.57564 5.54207C2.79165 5.38849 4.00767 5.22723 5.21088 4.99174C5.56434 4.9045 5.87004 4.6833 6.06338 4.37486C6.64451 3.33051 7.15652 2.24777 7.67108 1.17014C7.98085 0.519981 8.43909 0.0873959 9.17894 0.0745975C9.94695 0.0592394 10.4385 0.512303 10.761 1.19318C11.2474 2.21705 11.7851 3.223 12.2459 4.26479C12.3343 4.49885 12.4924 4.70017 12.6989 4.84159C12.9053 4.98302 13.1502 5.05776 13.4004 5.05574C14.5601 5.16836 15.7045 5.39617 16.8642 5.54975C17.5426 5.63934 18.0751 5.92602 18.2952 6.59666C18.5154 7.2673 18.2952 7.8765 17.7627 8.38844C16.8949 9.21009 16.068 10.0804 15.1848 10.8867C15.0006 11.0334 14.8654 11.2327 14.7973 11.4582C14.7291 11.6836 14.7312 11.9244 14.8033 12.1486C15.0414 13.2595 15.2053 14.3858 15.3998 15.5043C15.5253 16.2211 15.4817 16.8917 14.8213 17.355C14.1608 17.8183 13.5412 17.657 12.8859 17.3012C11.8619 16.7432 10.8378 16.1724 9.78311 15.6886C9.41943 15.5414 9.01269 15.5414 8.64901 15.6886C7.48419 16.2287 6.3757 16.8891 5.22113 17.4471C4.06655 18.0052 2.87613 17.2244 2.94525 15.9446ZM13.4849 8.16319C11.1015 8.31165 9.84199 7.18283 9.18406 4.99174C8.63366 7.25962 7.23587 8.25277 4.90112 8.17598C6.80835 9.4379 7.2794 11.0889 6.58307 13.2313C8.40837 11.7647 10.1006 11.8798 11.8875 13.2569C11.0222 11.0812 11.611 9.47118 13.4849 8.17087V8.16319Z" fill="black"/>
<path d="M49.2793 47.4911C48.35 47.4783 47.8175 47.1353 47.6178 46.4186C47.4922 46.0737 47.5037 45.6937 47.6499 45.357C47.7961 45.0203 48.0659 44.7526 48.4038 44.6089C49.7401 43.9408 51.0944 43.3137 52.4435 42.6712L79.9639 29.5708C80.2024 29.4527 80.4468 29.3467 80.6961 29.2534C81.046 29.1127 81.436 29.1082 81.7891 29.2409C82.1421 29.3736 82.4326 29.6338 82.6033 29.9701C82.7804 30.3051 82.8234 30.6949 82.7235 31.0605C82.6237 31.4261 82.3885 31.7399 82.0657 31.9385C81.8389 32.0841 81.6009 32.2117 81.354 32.3199C70.9927 37.2498 60.6314 42.1772 50.27 47.102C49.9014 47.271 49.5071 47.4015 49.2793 47.4911Z" fill="black"/>
<path d="M38.3167 20.5675C38.3136 26.6275 37.1039 32.6262 34.7583 38.2139C34.0858 39.8419 33.4032 41.463 32.7103 43.0773C32.1982 44.2752 31.4302 44.7053 30.5189 44.3162C29.6075 43.9271 29.4488 43.0748 29.8993 41.8615C31.2766 38.173 32.869 34.5433 33.9314 30.7653C35.6901 24.5068 35.6697 18.123 34.3589 11.7545C34.3589 11.7238 34.3589 11.6956 34.3384 11.6649C34.0517 10.2537 34.4084 9.43545 35.4085 9.21019C36.3865 8.99006 37.1417 9.6351 37.3388 11.0404C37.7817 14.2016 38.158 17.3705 38.5599 20.5368L38.3167 20.5675Z" fill="black"/>
<path d="M57.8816 50.5173C65.3978 50.5583 71.1784 51.5412 76.7593 53.6017C77.2303 53.7732 77.8191 54.129 77.9625 54.5386C78.1062 55.0885 78.029 55.6728 77.7475 56.1666C77.3762 56.8039 76.6492 56.786 75.9708 56.5761C74.2581 56.0437 72.5659 55.4396 70.8302 55.0019C63.9181 53.2639 56.9804 53.2101 50.0043 54.5335C48.7704 54.7664 47.5313 54.9789 46.2872 55.1452C46.095 55.1823 45.8974 55.181 45.7057 55.1414C45.514 55.1019 45.332 55.0248 45.1703 54.9147C45.0085 54.8045 44.8701 54.6635 44.763 54.4997C44.6559 54.3358 44.5823 54.1525 44.5463 53.9601C44.4978 53.7618 44.4908 53.5555 44.5259 53.3544C44.5609 53.1532 44.6372 52.9615 44.75 52.7912C44.8628 52.621 45.0096 52.476 45.1812 52.3652C45.3528 52.2545 45.5454 52.1805 45.747 52.1478C50.2859 51.3723 54.8121 50.4712 57.8816 50.5173Z" fill="black"/>
<path d="M62.0751 16.8482C63.3014 16.8482 64.5302 16.8303 65.7564 16.8482C66.87 16.8662 67.423 17.3883 67.4333 18.5043C67.4589 20.9582 67.4589 23.413 67.4333 25.8686C67.4333 26.9923 66.8956 27.5605 65.7948 27.5759C63.3099 27.6066 60.8249 27.6066 58.34 27.5759C57.2776 27.5605 56.7195 27.0025 56.7093 25.9505C56.6802 23.4369 56.6802 20.9224 56.7093 18.4071C56.7246 17.3986 57.2878 16.8713 58.2965 16.8508C59.5586 16.8278 60.8181 16.8482 62.0751 16.8482ZM59.8197 24.4556H64.3151V19.9813H59.8248L59.8197 24.4556Z" fill="black"/>
<path d="M55.3698 30.5999C55.0344 31.1399 54.8578 31.6237 54.5378 31.9078C49.5304 36.4436 44.5084 40.9657 39.472 45.4742C38.6681 46.1934 37.7849 46.1448 37.168 45.4383C36.5996 44.7728 36.6713 43.8846 37.424 43.2114C42.4416 38.6859 47.4636 34.1638 52.4898 29.6451C53.0248 29.1639 53.6623 28.9079 54.2818 29.3251C54.7093 29.6118 54.9807 30.1263 55.3698 30.5999Z" fill="black"/>
<path d="M84.298 64.3575C83.6989 64.3602 83.1052 64.2443 82.5512 64.0164C81.9971 63.7886 81.4936 63.4534 81.0698 63.0301C80.6459 62.6067 80.3101 62.1037 80.0816 61.55C79.8531 60.9963 79.7365 60.4028 79.7386 59.8038C79.7318 59.1959 79.8461 58.5927 80.075 58.0295C80.304 57.4663 80.6428 56.9543 81.0718 56.5235C81.5008 56.0926 82.0113 55.7516 82.5736 55.5202C83.1359 55.2888 83.7386 55.1718 84.3466 55.1759C85.5564 55.1904 86.7126 55.6767 87.5691 56.5311C88.4255 57.3855 88.9144 58.5405 88.9317 59.75C88.9317 60.3572 88.8117 60.9585 88.5785 61.5191C88.3453 62.0798 88.0036 62.5889 87.573 63.0171C87.1424 63.4452 86.6313 63.7841 86.0693 64.0141C85.5073 64.2441 84.9053 64.3608 84.298 64.3575ZM85.852 59.7782C85.8408 59.3709 85.6726 58.9836 85.3825 58.6974C85.0924 58.4112 84.7029 58.2482 84.2954 58.2424C84.0942 58.247 83.8958 58.2915 83.7119 58.3734C83.528 58.4552 83.3622 58.5728 83.224 58.7192C83.0859 58.8657 82.9782 59.0381 82.9073 59.2265C82.8363 59.4148 82.8035 59.6154 82.8106 59.8166C82.811 60.0105 82.8496 60.2025 82.9244 60.3814C82.9991 60.5603 83.1085 60.7228 83.2463 60.8593C83.384 60.9958 83.5474 61.1038 83.727 61.177C83.9066 61.2502 84.0989 61.2872 84.2929 61.2858C84.6994 61.292 85.0918 61.1368 85.384 60.8542C85.6763 60.5716 85.8445 60.1846 85.852 59.7782Z" fill="black"/>
<path d="M52.1131 16.8997C52.1117 17.499 51.992 18.0921 51.7607 18.6449C51.5294 19.1978 51.1911 19.6995 50.7653 20.1212C50.3394 20.5429 49.8345 20.8764 49.2794 21.1024C48.7242 21.3283 48.13 21.4424 47.5306 21.438C46.9236 21.4418 46.322 21.3245 45.7608 21.093C45.1997 20.8615 44.6905 20.5204 44.2628 20.0897C43.8351 19.659 43.4977 19.1473 43.2702 18.5846C43.0427 18.022 42.9297 17.4196 42.9379 16.8127C42.9507 15.6023 43.4394 14.4455 44.2983 13.5924C45.1572 12.7394 46.3174 12.2585 47.5281 12.2539C48.1345 12.2569 48.7344 12.3796 49.2933 12.6149C49.8522 12.8502 50.3592 13.1935 50.7852 13.6251C51.2111 14.0567 51.5477 14.5681 51.7756 15.1301C52.0034 15.692 52.1181 16.2934 52.1131 16.8997ZM49.041 16.8997C49.0452 16.4931 48.8895 16.1011 48.6075 15.8081C48.3255 15.5151 47.9397 15.3446 47.5332 15.3332C47.1274 15.3385 46.7398 15.502 46.4529 15.7889C46.166 16.0758 46.0025 16.4633 45.9971 16.869C45.9991 17.2605 46.1537 17.6357 46.4281 17.9149C46.7026 18.1941 47.0752 18.3552 47.4666 18.3639C47.6683 18.376 47.8704 18.3471 48.0605 18.2788C48.2507 18.2106 48.425 18.1044 48.573 17.9668C48.7209 17.8292 48.8393 17.663 48.9211 17.4782C49.0029 17.2935 49.0463 17.0941 49.0487 16.892L49.041 16.8997Z" fill="black"/>
<path d="M33.7081 6.11764C33.3043 6.11847 32.9045 6.03829 32.5322 5.88184C32.16 5.72538 31.8229 5.49584 31.541 5.2068C31.2591 4.91777 31.0381 4.57511 30.891 4.19912C30.7439 3.82313 30.6737 3.42145 30.6847 3.01787C30.6887 2.21828 31.0084 1.45264 31.5741 0.887479C32.1398 0.32232 32.9058 0.00336793 33.7055 4.33401e-06C34.5228 -0.00136348 35.3074 0.321081 35.8875 0.896757C36.4675 1.47243 36.7959 2.25445 36.8006 3.07162C36.7939 3.88538 36.4644 4.66319 35.8846 5.23429C35.3048 5.80539 34.522 6.12309 33.7081 6.11764Z" fill="black"/>
<path d="M84.299 23.7526C84.299 23.9906 84.299 24.2312 84.299 24.4693C84.2503 25.4087 83.659 26.0332 82.8116 26.046C81.9642 26.0588 81.3242 25.4368 81.2526 24.5102C81.2231 24.0337 81.2231 23.5559 81.2526 23.0794C81.3038 22.0913 81.9335 21.4489 82.8065 21.4591C83.6795 21.4693 84.2708 22.1118 84.3067 23.1152C84.3067 23.3353 84.3015 23.5427 84.299 23.7526Z" fill="black"/>
<path d="M80.5065 7.72265C80.0908 7.70049 79.6774 7.64658 79.27 7.56139C78.9283 7.48387 78.6286 7.28023 78.4306 6.9912C78.2327 6.70216 78.1512 6.34907 78.2025 6.00254C78.2085 5.65206 78.3475 5.31697 78.5914 5.0651C78.8352 4.81323 79.1656 4.66339 79.5158 4.64591C80.0811 4.59856 80.6492 4.59086 81.2156 4.62288C82.1475 4.66383 82.7823 5.28839 82.7823 6.12541C82.7823 6.91635 82.1935 7.54347 81.3155 7.66121C81.0478 7.67787 80.7793 7.67787 80.5116 7.66121L80.5065 7.72265Z" fill="black"/>
<path d="M89.6921 24.9404C89.6921 26.1844 88.11 27.8994 87.1832 27.8047C86.6968 27.7561 86.0543 27.4131 85.8367 27.0138C85.7385 26.7643 85.6952 26.4966 85.7098 26.229C85.7244 25.9613 85.7965 25.6999 85.9211 25.4626C86.2632 24.8666 86.7581 24.3727 87.3548 24.0317C87.5976 23.9182 87.8607 23.8547 88.1286 23.8451C88.3964 23.8354 88.6635 23.8797 88.9138 23.9754C89.3183 24.152 89.541 24.7357 89.6921 24.9404Z" fill="black"/>
<path d="M84.2815 37.6062C84.2815 39.119 83.7695 39.8818 82.7454 39.8536C81.7214 39.8255 81.235 39.0857 81.2376 37.6267C81.2208 37.2688 81.2337 36.91 81.276 36.5542C81.333 36.1804 81.526 35.8407 81.8179 35.6003C82.1098 35.3599 82.4802 35.2357 82.8581 35.2513C83.2336 35.2772 83.5866 35.4402 83.8499 35.7091C84.1133 35.9781 84.2687 36.3344 84.2866 36.7103C84.3096 37.0073 84.2815 37.3067 84.2815 37.6062Z" fill="black"/>
<path d="M78.1773 2.37943C78.1773 2.58676 78.1773 2.79666 78.1773 3.00655C78.1312 3.94339 77.5398 4.57307 76.695 4.59355C75.8502 4.61403 75.1744 3.96387 75.1257 2.99119C75.1027 2.54325 75.1052 2.0953 75.1257 1.64736C75.1692 0.672123 75.8041 0.00916646 76.6617 0.0117261C77.5193 0.0142858 78.1414 0.672123 78.1773 1.66272C78.185 1.89309 78.1773 2.12346 78.1773 2.37943Z" fill="black"/>
<path d="M78.1688 9.98293C78.1688 10.2235 78.1688 10.4616 78.1688 10.6996C78.115 11.6365 77.516 12.2354 76.6481 12.2354C75.7803 12.2354 75.1787 11.6288 75.1121 10.6996C75.0839 10.2517 75.0916 9.80375 75.1121 9.35581C75.1479 8.30378 75.7598 7.66898 76.6942 7.69201C77.6286 7.71505 78.1355 8.32425 78.1688 9.36092C78.1688 9.57082 78.1688 9.78071 78.1688 9.98805V9.98293Z" fill="black"/>
<path d="M72.8228 4.61593C73.0609 4.61593 73.3015 4.60313 73.5396 4.61593C74.4894 4.67224 75.0961 5.25073 75.1089 6.1031C75.118 6.49562 74.9731 6.87612 74.7052 7.16315C74.4372 7.45018 74.0676 7.62095 73.6753 7.63891C73.1111 7.69778 72.5422 7.69778 71.978 7.63891C71.7755 7.63178 71.5765 7.58334 71.3934 7.49657C71.2103 7.4098 71.0468 7.28654 70.9131 7.13433C70.7793 6.98213 70.678 6.8042 70.6155 6.61146C70.553 6.41872 70.5305 6.21524 70.5495 6.01351C70.6007 5.19953 71.1895 4.66456 72.106 4.61081C72.3441 4.60569 72.5847 4.61593 72.8228 4.61593Z" fill="black"/>
<path d="M78.7092 27.8334C77.5034 27.8334 75.7677 26.1619 75.8932 25.2737C75.9546 24.8053 76.2797 24.1884 76.6612 23.9939C76.9099 23.8919 77.1775 23.8438 77.4462 23.8526C77.7149 23.8614 77.9787 23.927 78.2202 24.0451C78.817 24.3871 79.3118 24.8818 79.6538 25.4785C79.7672 25.7228 79.8301 25.9874 79.8389 26.2566C79.8477 26.5257 79.8022 26.7939 79.705 27.045C79.5207 27.4443 78.9293 27.6696 78.7092 27.8334Z" fill="black"/>
<path d="M89.6945 36.3835C89.5409 36.5832 89.308 37.1515 88.9009 37.3357C88.6648 37.4355 88.4103 37.4843 88.154 37.479C87.8977 37.4737 87.6454 37.4144 87.4136 37.305C86.7965 36.9419 86.2813 36.4285 85.916 35.8127C85.8004 35.5698 85.7386 35.3048 85.7346 35.0358C85.7306 34.7668 85.7846 34.5001 85.8929 34.2539C86.0952 33.8751 86.7172 33.5577 87.1729 33.5116C88.1278 33.4169 89.7048 35.1242 89.6945 36.3835Z" fill="black"/>
</g>
<defs>
<clipPath id="clip0_12058_4113">
<rect width="92" height="92" fill="white"/>
</clipPath>
</defs>
</svg>
