<svg width="20" height="19" viewBox="0 0 20 19" fill="none" xmlns="http://www.w3.org/2000/svg">
<path d="M5.2206 6.80796L4.32857 5.88295C3.34734 4.866 1.75842 4.866 0.777186 5.88295L0.0078125 6.68731C0.0078125 6.68731 0.989042 6.09553 1.55213 6.68731L3.44769 8.65225L5.22617 6.81371L5.2206 6.80796Z" fill="#363740"/>
<path d="M8.766 5.07286H8.76042L4.36719 9.62325L6.14567 11.4618L10.5333 6.9114L19.002 2.69425V-0.000366211L8.766 5.07286Z" fill="#363740"/>
<path d="M10.6278 8.681V8.69249H10.6222L7.04297 12.3983L8.81587 14.2368L12.3951 10.5253L12.4063 10.5138L18.9961 7.26187V4.56726L10.6278 8.681Z" fill="#363740"/>
<path d="M12.4082 12.3984L9.72656 15.1734L11.4995 17.012L14.1867 14.2254L14.1755 14.2139L19.0036 11.8181V9.08899L12.3971 12.3811L12.4082 12.3926V12.3984Z" fill="#363740"/>
<path d="M12.2461 17.7875L12.681 18.2357C13.6566 19.2469 15.24 19.2469 16.2212 18.2357L14.019 15.949L12.2517 17.7818L12.2461 17.7875Z" fill="#363740"/>
</svg>
