<svg width="15" height="14" viewBox="0 0 15 14" fill="none" xmlns="http://www.w3.org/2000/svg">
<g clip-path="url(#clip0_8153_27369)">
<path d="M1.77657 0.837315C2.46054 0.62578 3.13046 0.399655 3.81073 0.21365C5.12095 -0.151066 6.42006 -0.0314394 7.67476 0.43248C9.12414 0.968613 10.5513 1.04083 11.9896 0.43248C12.2265 0.331818 12.4582 0.209273 12.7054 0.140707C12.9526 0.0721401 13.2125 0.00867945 13.4582 0.0334802C13.9446 0.0816227 14.2022 0.409138 14.2022 0.894211C14.2022 2.36475 14.2022 3.83528 14.2022 5.30582C14.2022 6.53954 14.2022 7.77301 14.2022 9.00623C14.2022 9.41545 14.0193 9.71816 13.6388 9.86623C12.6995 10.231 11.732 10.5023 10.7142 10.4914C9.80705 10.4815 8.90627 10.3409 8.04044 10.0741C6.90048 9.724 5.73608 9.5431 4.54134 9.6598C3.76928 9.73275 3.04163 9.9917 2.32064 10.2616C2.1378 10.3302 1.90092 10.3768 1.80247 10.5132C1.70402 10.6496 1.7662 10.878 1.7662 11.061C1.7662 11.8634 1.7662 12.6658 1.7662 13.4682C1.7662 13.8453 1.61371 13.9956 1.22731 13.9985C0.992656 13.9985 0.758741 13.9985 0.524087 13.9985C0.153969 13.9941 0 13.8402 0 13.4711V0.910258C0 0.388714 0.329405 0.0327507 0.834986 0.00649115C1.34057 -0.0197684 1.71068 0.301911 1.7699 0.813973C1.77099 0.822025 1.77324 0.829883 1.77657 0.837315ZM10.2152 6.71071V8.71373C10.2394 8.72271 10.2641 8.73003 10.2893 8.73561C10.994 8.80856 11.675 8.68528 12.3442 8.48177C12.3878 8.46864 12.4315 8.37455 12.4323 8.31692C12.4389 7.7589 12.436 7.20016 12.436 6.63922V6.23074C11.9837 6.35037 11.5543 6.47656 11.1176 6.5743C10.8215 6.64141 10.5121 6.6684 10.2086 6.7129V4.48229C10.9651 4.44728 11.6631 4.19708 12.3553 3.91625C12.3997 3.89802 12.4345 3.80319 12.4352 3.74338C12.4426 3.34948 12.4389 2.95486 12.4389 2.56024V2.18312L10.2152 2.67694V4.48594C10.062 4.49031 9.90805 4.50126 9.75556 4.49761C9.15144 4.47821 8.55438 4.36344 7.98714 4.15769C7.98714 3.59311 7.99454 3.0278 7.98714 2.46249C7.98188 2.43118 7.96904 2.40157 7.94971 2.37618C7.93039 2.35078 7.90514 2.33035 7.87611 2.31661C7.43196 2.17072 6.98782 2.03504 6.5348 1.91177C6.28904 1.84466 6.03514 1.81038 5.75385 1.75567V3.6522C4.99067 3.57925 4.27338 3.73389 3.54203 3.89437V2.07079C2.94984 2.30712 2.39318 2.52741 1.83949 2.75864C1.79877 2.77542 1.76546 2.86295 1.76546 2.91839C1.75954 3.33198 1.76546 3.74483 1.76546 4.15842V4.50199L3.54203 3.9075C3.54203 4.02567 3.54203 4.10372 3.54203 4.18177C3.54499 4.84409 3.54844 5.50617 3.55239 6.16801C3.53388 6.16801 3.5139 6.15853 3.49835 6.16801C2.95058 6.38684 2.40206 6.60129 1.85799 6.8245C1.83129 6.84421 1.80944 6.86959 1.79406 6.89876C1.77869 6.92793 1.77017 6.96014 1.76916 6.993C1.76102 7.38179 1.76546 7.77057 1.76546 8.16009V8.57952L3.54721 8.03463V6.16363C3.582 6.15196 3.61679 6.13956 3.65158 6.12935C4.34096 5.9305 5.05553 5.82931 5.77384 5.82882V7.8778L8.00195 8.2272V6.44082C8.72258 6.6358 9.46812 6.72671 10.2152 6.71071Z" fill="#363740"/>
<path d="M7.99447 4.15758V6.38381L5.76562 5.83527V3.64697C6.23271 3.73013 6.66723 3.79286 7.09805 3.88842C7.40229 3.95625 7.6932 4.06421 7.99447 4.15758Z" fill="#363740"/>
</g>
<defs>
<clipPath id="clip0_8153_27369">
<rect width="14.2029" height="14" fill="white"/>
</clipPath>
</defs>
</svg>
