<svg width="26" height="26" viewBox="0 0 26 26" fill="none" xmlns="http://www.w3.org/2000/svg">
<g clip-path="url(#clip0_1356_21196)">
<path d="M8.12158 8.10356V6.49044C7.99823 6.49044 7.87896 6.49044 7.76103 6.49044C6.62247 6.49044 5.4839 6.49044 4.34533 6.49044C2.63748 6.49044 1.64123 5.48783 1.64123 3.77023C1.64123 3.27367 1.6087 2.77305 1.6575 2.28192C1.79575 0.904858 2.77574 0.0162127 4.18132 0.00942911C7.34898 -0.004138 10.5166 -0.00278129 13.6829 0.00942911C15.2159 0.0148559 16.2339 1.06766 16.2366 2.60482C16.2366 3.13529 16.2691 3.66848 16.2217 4.19488C16.0997 5.58822 15.0872 6.48094 13.6491 6.48908C12.3655 6.49722 11.0805 6.49044 9.76979 6.49044V8.13206H10.1466C13.8212 8.13206 17.4971 8.17683 21.1704 8.11442C23.2266 8.07914 24.624 9.4752 24.8423 11.3909C25.1377 13.9985 25.604 16.5871 25.8887 19.196C26.031 20.4985 26.0391 21.8375 25.9103 23.14C25.7396 24.8644 24.3855 25.985 22.6451 25.9891C16.2095 26.0013 9.7725 26.0054 3.33689 25.9877C1.39454 25.9823 0.0214864 24.5374 0.0174201 22.5905C0.0174201 22.037 0.0418179 21.4834 0.0119983 20.9326C-0.066617 19.4877 0.260043 18.0862 0.440317 16.6698C0.677518 14.803 0.963515 12.943 1.22105 11.0788C1.46638 9.30968 2.7676 8.15376 4.57033 8.13477C5.71974 8.12256 6.86916 8.1307 8.01992 8.12799C8.04161 8.12799 8.0633 8.11849 8.12158 8.10492V8.10356ZM1.62497 19.4891H24.3516C24.3543 19.4348 24.3624 19.4009 24.357 19.3683C23.9639 16.682 23.5763 13.9944 23.1696 11.3095C23.0016 10.1997 22.4323 9.74247 21.3005 9.74111C20.3869 9.74111 19.4747 9.74111 18.5625 9.74111C13.931 9.74111 9.2981 9.74111 4.66657 9.74111C3.58629 9.74111 2.99532 10.2241 2.83131 11.2783C2.5548 13.0596 2.29998 14.8437 2.03838 16.6278C1.90012 17.5734 1.76458 18.5204 1.62497 19.4877V19.4891ZM1.62632 21.1348C1.62632 21.7724 1.61684 22.3707 1.6331 22.9677C1.63717 23.1305 1.69545 23.3014 1.76593 23.4507C2.09259 24.1494 2.66866 24.3909 3.41415 24.3895C9.80368 24.3814 16.1946 24.3854 22.5841 24.3841C22.7074 24.3841 22.8321 24.3841 22.9555 24.3746C23.6413 24.3135 24.2784 23.7804 24.3435 23.0993C24.4058 22.4548 24.357 21.7996 24.357 21.1348H1.62632ZM8.9484 4.88138C10.5248 4.88138 12.1025 4.88409 13.6789 4.88002C14.3417 4.87866 14.6277 4.58697 14.629 3.93168C14.629 3.51517 14.629 3.0973 14.629 2.68079C14.629 1.86812 14.3756 1.61577 13.5582 1.61577C10.72 1.61577 7.88167 1.61577 5.04338 1.61577C4.72756 1.61577 4.41175 1.60628 4.09729 1.61984C3.53885 1.64291 3.25285 1.94274 3.24878 2.49764C3.24472 2.94806 3.24878 3.39985 3.24878 3.85028C3.24878 4.61546 3.51445 4.88138 4.28569 4.88138C5.84038 4.88138 7.39371 4.88138 8.9484 4.88138Z" fill="#363740"/>
<path d="M4.48573 13.0055C4.48166 12.3665 5.05637 11.7926 5.69749 11.7967C6.34403 11.8007 6.91196 12.3733 6.90248 13.0123C6.89434 13.6431 6.34539 14.1899 5.70698 14.2048C5.06857 14.2197 4.48844 13.6499 4.48438 13.0068L4.48573 13.0055Z" fill="#363740"/>
<path d="M11.7689 13.0122C11.7594 13.6539 11.1698 14.2251 10.5395 14.2034C9.88486 14.1803 9.33049 13.605 9.35218 12.9701C9.37251 12.3365 9.93637 11.7911 10.5653 11.7965C11.2118 11.8006 11.7784 12.3745 11.7703 13.0135L11.7689 13.0122Z" fill="#363740"/>
<path d="M16.637 13C16.637 13.6418 16.0596 14.2129 15.4198 14.2034C14.7719 14.1939 14.2081 13.6214 14.2189 12.9824C14.2311 12.3515 14.7828 11.8048 15.4185 11.7953C16.0582 11.7858 16.6356 12.357 16.6356 12.9987L16.637 13Z" fill="#363740"/>
<path d="M21.512 12.9973C21.5133 13.6376 20.9386 14.2102 20.2975 14.2034C19.651 14.1966 19.0844 13.6241 19.0939 12.9851C19.1034 12.3542 19.6537 11.8074 20.2921 11.7952C20.9318 11.783 21.5106 12.3528 21.512 12.9959V12.9973Z" fill="#363740"/>
<path d="M9.33877 17.0606C9.34013 17.7023 8.76542 18.2735 8.1243 18.2667C7.47776 18.2599 6.91118 17.6874 6.92203 17.0484C6.93152 16.4175 7.48182 15.8708 8.12023 15.8586C8.76 15.8477 9.33877 16.4175 9.34013 17.0592L9.33877 17.0606Z" fill="#363740"/>
<path d="M14.2058 17.0484C14.2167 17.6874 13.6501 18.2599 13.0035 18.2667C12.3624 18.2735 11.7864 17.701 11.7891 17.0606C11.7904 16.4311 12.3312 15.883 12.9751 15.8585C13.6054 15.8341 14.1963 16.4053 14.2072 17.0484H14.2058Z" fill="#363740"/>
<path d="M19.0744 17.0498C19.0838 17.6888 18.5173 18.2613 17.8707 18.2667C17.2296 18.2722 16.6549 17.701 16.6563 17.0593C16.659 16.4298 17.1998 15.8816 17.8436 15.8586C18.4739 15.8355 19.0649 16.4067 19.0744 17.0484V17.0498Z" fill="#363740"/>
</g>
<defs>
<clipPath id="clip0_1356_21196">
<rect width="26" height="26" fill="white"/>
</clipPath>
</defs>
</svg>
