<svg width="18" height="18" viewBox="0 0 18 18" fill="none" xmlns="http://www.w3.org/2000/svg">
<path d="M12.0908 1.44638L3.92255 5.6284L0.675781 4.03089L8.70007 0.0686215C8.88007 -0.0228789 9.09607 -0.0228789 9.28507 0.0686215L12.0908 1.44638Z" fill="#CDD6E1"/>
<path d="M17.3155 4.03143L9.00392 8.14895L5.89141 6.61519L5.44141 6.38644L13.6187 2.20517L14.0687 2.43317L17.3155 4.03143Z" fill="#CDD6E1"/>
<path d="M8.33854 9.3347L8.32954 17.9995L0.369002 13.8452C0.144001 13.7267 0 13.489 0 13.2332V5.21718L3.37352 6.87919V9.8012C3.37352 10.1755 3.67952 10.486 4.04852 10.486C4.41752 10.486 4.72352 10.1755 4.72352 9.8012V7.55494L5.17353 7.77394L8.33854 9.3347Z" fill="#CDD6E1"/>
<path d="M17.9912 5.22685L9.68869 9.32637L9.67969 17.9912L18.0002 13.6464L17.9912 5.22685Z" fill="#CDD6E1"/>
</svg>
