<svg width="16" height="16" viewBox="0 0 16 16" fill="none" xmlns="http://www.w3.org/2000/svg">
<path d="M15.6 4C15.8211 4 16 3.82106 16 3.6V0.4C16 0.178938 15.8211 0 15.6 0H10C9.77894 0 9.6 0.178938 9.6 0.4V4.8H4C1.79441 4.8 0 6.59441 0 8.8V15.2C0 15.6419 0.358125 16 0.8 16H4H7.2H8.8H12H15.2C15.6419 16 16 15.6419 16 15.2V8.8C16 6.59441 14.2056 4.8 12 4.8V4H15.6ZM7.2 15.2H4H0.8V8.8C0.8 7.03253 2.23253 5.6 4 5.6C5.76747 5.6 7.2 7.03253 7.2 8.8V15.2ZM15.2 8.8V15.2H12H8.8H8V8.8C8 7.48694 7.35547 6.32959 6.37547 5.6H9.6V10C9.6 10.6616 10.1384 11.2 10.8 11.2C11.4616 11.2 12 10.6616 12 10V5.6C13.7675 5.6 15.2 7.03253 15.2 8.8ZM11.6 3.2C11.3789 3.2 11.2 3.37894 11.2 3.6V10C11.2 10.2203 11.0208 10.4 10.8 10.4C10.5792 10.4 10.4 10.2203 10.4 10V0.8H15.2V3.2H11.6Z" fill="white"/>
<path d="M14.0008 13.6001H9.20078C8.97972 13.6001 8.80078 13.779 8.80078 14.0001C8.80078 14.2212 8.97972 14.4001 9.20078 14.4001H14.0008C14.2218 14.4001 14.4008 14.2212 14.4008 14.0001C14.4008 13.779 14.2218 13.6001 14.0008 13.6001Z" fill="white"/>
</svg>
