<svg width="321" height="310" viewBox="0 0 321 310" fill="none" xmlns="http://www.w3.org/2000/svg">
<rect x="0.5" y="0.5" width="320" height="309" rx="4.5" fill="#F2F4FF" stroke="#3B4FFF"/>
<path d="M157.627 225.289L240.272 177.736V106.052L157.627 153.833V225.289Z" fill="#CCD3FF"/>
<path d="M95.6367 117.992V148.411L157.808 185.848L157.626 153.834L95.6367 117.992Z" fill="#B3C2FF"/>
<path d="M95.6367 117.992L178.282 70.2099L240.271 106.052L157.626 153.834L95.6367 117.992Z" fill="#E9EDFF"/>
<path d="M157.602 178.032C157.602 178.032 157.511 178.032 157.466 177.986L136.81 166.047C136.81 166.047 136.674 165.91 136.674 165.796V141.894C136.674 141.894 136.719 141.689 136.81 141.643L157.466 129.703C157.466 129.703 157.671 129.658 157.739 129.703L178.394 141.643C178.394 141.643 178.531 141.78 178.531 141.894V165.796C178.531 165.796 178.485 166.001 178.394 166.047L157.739 177.986C157.739 177.986 157.648 178.032 157.602 178.032ZM137.22 165.637L157.602 177.417L177.985 165.637V142.076L157.602 130.296L137.22 142.076V165.637Z" fill="#3B4FFF"/>
<path d="M178.283 166.07C178.283 166.07 178.192 166.07 178.147 166.024L136.813 142.122C136.677 142.053 136.631 141.871 136.699 141.734C136.79 141.598 136.95 141.552 137.086 141.62L178.42 165.523C178.556 165.591 178.602 165.773 178.534 165.91C178.488 166.001 178.374 166.047 178.283 166.047V166.07Z" fill="#3B4FFF"/>
<path d="M136.95 166.07C136.95 166.07 136.768 166.024 136.699 165.933C136.631 165.796 136.677 165.614 136.813 165.546L178.147 141.643C178.283 141.575 178.443 141.62 178.534 141.757C178.602 141.894 178.556 142.076 178.42 142.145L137.086 166.047C137.086 166.047 136.995 166.092 136.95 166.092V166.07Z" fill="#3B4FFF"/>
<path d="M157.603 178.032C157.444 178.032 157.33 177.895 157.33 177.759V129.954C157.33 129.795 157.467 129.681 157.603 129.681C157.74 129.681 157.876 129.818 157.876 129.954V177.759C157.876 177.918 157.74 178.032 157.603 178.032Z" fill="#3B4FFF"/>
<path d="M157.602 201.911C157.602 201.911 157.511 201.911 157.466 201.866L136.81 189.926C136.81 189.926 136.674 189.789 136.674 189.675V165.773C136.674 165.773 136.719 165.568 136.81 165.523L157.466 153.583C157.466 153.583 157.671 153.537 157.739 153.583L178.394 165.523C178.394 165.523 178.531 165.659 178.531 165.773V189.675C178.531 189.675 178.485 189.881 178.394 189.926L157.739 201.866C157.739 201.866 157.648 201.911 157.602 201.911ZM137.22 189.516L157.602 201.296L177.985 189.516V165.956L157.602 154.175L137.22 165.956V189.516Z" fill="#3B4FFF"/>
<path d="M178.283 189.972C178.283 189.972 178.192 189.972 178.147 189.926L136.813 166.024C136.677 165.956 136.631 165.773 136.699 165.637C136.79 165.5 136.95 165.454 137.086 165.523L178.42 189.425C178.556 189.493 178.602 189.676 178.534 189.812C178.488 189.903 178.374 189.949 178.283 189.949V189.972Z" fill="#3B4FFF"/>
<path d="M136.95 189.972C136.95 189.972 136.768 189.926 136.699 189.835C136.631 189.698 136.677 189.516 136.813 189.448L178.147 165.546C178.283 165.477 178.443 165.523 178.534 165.659C178.602 165.796 178.556 165.978 178.42 166.047L137.086 189.949C137.086 189.949 136.995 189.995 136.95 189.995V189.972Z" fill="#3B4FFF"/>
<path d="M157.603 201.912C157.444 201.912 157.33 201.775 157.33 201.638V153.834C157.33 153.674 157.467 153.56 157.603 153.56C157.74 153.56 157.876 153.697 157.876 153.834V201.638C157.876 201.798 157.74 201.912 157.603 201.912Z" fill="#3B4FFF"/>
<path d="M157.602 225.814C157.602 225.814 157.511 225.814 157.466 225.768L136.81 213.828C136.81 213.828 136.674 213.692 136.674 213.578V189.676C136.674 189.676 136.719 189.47 136.81 189.425L157.466 177.485C157.466 177.485 157.671 177.44 157.739 177.485L178.394 189.425C178.394 189.425 178.531 189.562 178.531 189.676V213.578C178.531 213.578 178.485 213.783 178.394 213.828L157.739 225.768C157.739 225.768 157.648 225.814 157.602 225.814ZM137.22 213.418L157.602 225.198L177.985 213.418V189.858L157.602 178.078L137.22 189.858V213.418Z" fill="#3B4FFF"/>
<path d="M178.283 213.874C178.283 213.874 178.192 213.874 178.147 213.828L136.813 189.926C136.677 189.858 136.631 189.676 136.699 189.539C136.79 189.402 136.95 189.357 137.086 189.425L178.42 213.327C178.556 213.395 178.602 213.578 178.534 213.714C178.488 213.806 178.374 213.851 178.283 213.851V213.874Z" fill="#3B4FFF"/>
<path d="M136.95 213.874C136.95 213.874 136.768 213.828 136.699 213.737C136.631 213.601 136.677 213.418 136.813 213.35L178.147 189.448C178.283 189.379 178.443 189.425 178.534 189.562C178.602 189.698 178.556 189.881 178.42 189.949L137.086 213.851C137.086 213.851 136.995 213.897 136.95 213.897V213.874Z" fill="#3B4FFF"/>
<path d="M157.603 225.814C157.444 225.814 157.33 225.677 157.33 225.54V177.736C157.33 177.576 157.467 177.462 157.603 177.462C157.74 177.462 157.876 177.599 157.876 177.736V225.54C157.876 225.7 157.74 225.814 157.603 225.814Z" fill="#3B4FFF"/>
<path d="M178.282 166.07C178.282 166.07 178.191 166.07 178.146 166.024L157.49 154.084C157.49 154.084 157.354 153.948 157.354 153.834V129.932C157.354 129.932 157.399 129.726 157.49 129.681L178.146 117.741C178.146 117.741 178.35 117.696 178.419 117.741L199.074 129.681C199.074 129.681 199.211 129.818 199.211 129.932V153.834C199.211 153.834 199.165 154.039 199.074 154.084L178.419 166.024C178.419 166.024 178.328 166.07 178.282 166.07ZM157.899 153.674L178.282 165.454L198.665 153.674V130.114L178.282 118.334L157.899 130.114V153.674Z" fill="#3B4FFF"/>
<path d="M198.938 154.13C198.938 154.13 198.847 154.13 198.801 154.084L157.467 130.182C157.331 130.114 157.285 129.931 157.354 129.795C157.422 129.658 157.604 129.612 157.74 129.681L199.074 153.583C199.211 153.651 199.256 153.834 199.188 153.97C199.142 154.062 199.029 154.107 198.938 154.107V154.13Z" fill="#3B4FFF"/>
<path d="M157.604 154.13C157.604 154.13 157.422 154.084 157.354 153.993C157.285 153.857 157.331 153.674 157.467 153.606L198.801 129.704C198.938 129.635 199.12 129.681 199.188 129.818C199.256 129.954 199.211 130.137 199.074 130.205L157.74 154.107C157.74 154.107 157.649 154.153 157.604 154.153V154.13Z" fill="#3B4FFF"/>
<path d="M178.283 166.07C178.124 166.07 178.01 165.933 178.01 165.796V117.992C178.01 117.832 178.146 117.718 178.283 117.718C178.419 117.718 178.556 117.855 178.556 117.992V165.796C178.556 165.956 178.419 166.07 178.283 166.07Z" fill="#3B4FFF"/>
<path d="M178.282 189.972C178.282 189.972 178.191 189.972 178.146 189.926L157.49 177.987C157.49 177.987 157.354 177.85 157.354 177.736V153.834C157.354 153.834 157.399 153.629 157.49 153.583L178.146 141.643C178.146 141.643 178.35 141.598 178.419 141.643L199.074 153.583C199.074 153.583 199.211 153.72 199.211 153.834V177.736C199.211 177.736 199.165 177.941 199.074 177.987L178.419 189.926C178.419 189.926 178.328 189.972 178.282 189.972ZM157.899 177.576L178.282 189.357L198.665 177.576V154.016L178.282 142.236L157.899 154.016V177.576Z" fill="#3B4FFF"/>
<path d="M198.938 178.032C198.938 178.032 198.847 178.032 198.801 177.987L157.467 154.084C157.331 154.016 157.285 153.834 157.354 153.697C157.422 153.56 157.604 153.515 157.74 153.583L199.074 177.485C199.211 177.554 199.256 177.736 199.188 177.873C199.142 177.964 199.029 178.009 198.938 178.009V178.032Z" fill="#3B4FFF"/>
<path d="M157.604 178.032C157.604 178.032 157.422 177.987 157.354 177.896C157.285 177.759 157.331 177.577 157.467 177.508L198.801 153.606C198.938 153.538 199.12 153.583 199.188 153.72C199.256 153.857 199.211 154.039 199.074 154.107L157.74 178.009C157.74 178.009 157.649 178.055 157.604 178.055V178.032Z" fill="#3B4FFF"/>
<path d="M178.283 189.972C178.124 189.972 178.01 189.835 178.01 189.699V141.894C178.01 141.735 178.146 141.621 178.283 141.621C178.419 141.621 178.556 141.757 178.556 141.894V189.699C178.556 189.858 178.419 189.972 178.283 189.972Z" fill="#3B4FFF"/>
<path d="M178.282 213.874C178.282 213.874 178.191 213.874 178.146 213.829L157.49 201.889C157.49 201.889 157.354 201.752 157.354 201.638V177.736C157.354 177.736 157.399 177.531 157.49 177.485L178.146 165.546C178.146 165.546 178.35 165.5 178.419 165.546L199.074 177.485C199.074 177.485 199.211 177.622 199.211 177.736V201.638C199.211 201.638 199.165 201.843 199.074 201.889L178.419 213.829C178.419 213.829 178.328 213.874 178.282 213.874ZM157.899 201.479L178.282 213.259L198.665 201.479V177.918L178.282 166.138L157.899 177.918V201.479Z" fill="#3B4FFF"/>
<path d="M198.938 201.912C198.938 201.912 198.847 201.912 198.801 201.866L157.467 177.964C157.331 177.896 157.285 177.713 157.354 177.577C157.422 177.44 157.604 177.394 157.74 177.463L199.074 201.365C199.211 201.433 199.256 201.615 199.188 201.752C199.142 201.843 199.029 201.889 198.938 201.889V201.912Z" fill="#3B4FFF"/>
<path d="M157.604 201.912C157.604 201.912 157.422 201.866 157.354 201.775C157.285 201.638 157.331 201.456 157.467 201.388L198.801 177.485C198.938 177.417 199.12 177.463 199.188 177.599C199.256 177.736 199.211 177.918 199.074 177.987L157.74 201.889C157.74 201.889 157.649 201.934 157.604 201.934V201.912Z" fill="#3B4FFF"/>
<path d="M178.283 213.874C178.124 213.874 178.01 213.738 178.01 213.601V165.796C178.01 165.637 178.146 165.523 178.283 165.523C178.419 165.523 178.556 165.66 178.556 165.796V213.601C178.556 213.76 178.419 213.874 178.283 213.874Z" fill="#3B4FFF"/>
<path d="M198.938 154.13C198.938 154.13 198.847 154.13 198.802 154.084L178.146 142.144C178.146 142.144 178.01 142.008 178.01 141.894V117.992C178.01 117.992 178.055 117.786 178.146 117.741L198.802 105.801C198.802 105.801 199.007 105.756 199.075 105.801L219.73 117.741C219.73 117.741 219.867 117.878 219.867 117.992V141.894C219.867 141.894 219.821 142.099 219.73 142.144L199.075 154.084C199.075 154.084 198.984 154.13 198.938 154.13ZM178.556 141.734L198.938 153.515L219.321 141.734V118.174L198.938 106.394L178.556 118.174V141.734Z" fill="#3B4FFF"/>
<path d="M219.592 142.19C219.592 142.19 219.501 142.19 219.455 142.144L178.122 118.242C177.985 118.174 177.94 117.992 178.008 117.855C178.076 117.718 178.258 117.673 178.395 117.741L219.728 141.643C219.865 141.711 219.91 141.894 219.842 142.03C219.797 142.122 219.683 142.167 219.592 142.167V142.19Z" fill="#3B4FFF"/>
<path d="M178.282 142.19C178.282 142.19 178.1 142.145 178.031 142.053C177.963 141.917 178.009 141.734 178.145 141.666L219.479 117.764C219.615 117.696 219.775 117.741 219.866 117.878C219.934 118.015 219.888 118.197 219.752 118.265L178.418 142.167C178.418 142.167 178.327 142.213 178.282 142.213V142.19Z" fill="#3B4FFF"/>
<path d="M198.937 154.13C198.778 154.13 198.664 153.993 198.664 153.856V106.052C198.664 105.892 198.801 105.778 198.937 105.778C199.074 105.778 199.21 105.915 199.21 106.052V153.856C199.21 154.016 199.074 154.13 198.937 154.13Z" fill="#3B4FFF"/>
<path d="M198.938 178.032C198.938 178.032 198.847 178.032 198.802 177.986L178.146 166.047C178.146 166.047 178.01 165.91 178.01 165.796V141.894C178.01 141.894 178.055 141.689 178.146 141.643L198.802 129.703C198.802 129.703 199.007 129.658 199.075 129.703L219.73 141.643C219.73 141.643 219.867 141.78 219.867 141.894V165.796C219.867 165.796 219.821 166.001 219.73 166.047L199.075 177.986C199.075 177.986 198.984 178.032 198.938 178.032ZM178.556 165.637L198.938 177.417L219.321 165.637V142.076L198.938 130.296L178.556 142.076V165.637Z" fill="#3B4FFF"/>
<path d="M219.592 166.069C219.592 166.069 219.501 166.069 219.455 166.024L178.122 142.122C177.985 142.053 177.94 141.871 178.008 141.734C178.076 141.598 178.258 141.552 178.395 141.62L219.728 165.523C219.865 165.591 219.91 165.773 219.842 165.91C219.797 166.001 219.683 166.047 219.592 166.047V166.069Z" fill="#3B4FFF"/>
<path d="M178.282 166.07C178.282 166.07 178.1 166.024 178.031 165.933C177.963 165.796 178.009 165.614 178.145 165.545L219.479 141.643C219.615 141.575 219.775 141.62 219.866 141.757C219.934 141.894 219.888 142.076 219.752 142.145L178.418 166.047C178.418 166.047 178.327 166.092 178.282 166.092V166.07Z" fill="#3B4FFF"/>
<path d="M198.937 178.032C198.778 178.032 198.664 177.895 198.664 177.759V129.954C198.664 129.795 198.801 129.681 198.937 129.681C199.074 129.681 199.21 129.817 199.21 129.954V177.759C199.21 177.918 199.074 178.032 198.937 178.032Z" fill="#3B4FFF"/>
<path d="M198.938 201.911C198.938 201.911 198.847 201.911 198.802 201.866L178.146 189.926C178.146 189.926 178.01 189.789 178.01 189.675V165.773C178.01 165.773 178.055 165.568 178.146 165.523L198.802 153.583C198.802 153.583 199.007 153.537 199.075 153.583L219.73 165.523C219.73 165.523 219.867 165.659 219.867 165.773V189.675C219.867 189.675 219.821 189.881 219.73 189.926L199.075 201.866C199.075 201.866 198.984 201.911 198.938 201.911ZM178.556 189.516L198.938 201.296L219.321 189.516V165.956L198.938 154.175L178.556 165.956V189.516Z" fill="#3B4FFF"/>
<path d="M219.592 189.972C219.592 189.972 219.501 189.972 219.455 189.926L178.122 166.024C177.985 165.956 177.94 165.773 178.008 165.637C178.076 165.5 178.258 165.454 178.395 165.523L219.728 189.425C219.865 189.493 219.91 189.675 219.842 189.812C219.797 189.903 219.683 189.949 219.592 189.949V189.972Z" fill="#3B4FFF"/>
<path d="M178.282 189.972C178.282 189.972 178.1 189.926 178.031 189.835C177.963 189.699 178.009 189.516 178.145 189.448L219.479 165.546C219.615 165.477 219.775 165.523 219.866 165.66C219.934 165.796 219.888 165.979 219.752 166.047L178.418 189.949C178.418 189.949 178.327 189.995 178.282 189.995V189.972Z" fill="#3B4FFF"/>
<path d="M198.937 201.911C198.778 201.911 198.664 201.775 198.664 201.638V153.834C198.664 153.674 198.801 153.56 198.937 153.56C199.074 153.56 199.21 153.697 199.21 153.834V201.638C199.21 201.798 199.074 201.911 198.937 201.911Z" fill="#3B4FFF"/>
<path d="M219.593 142.19C219.593 142.19 219.502 142.19 219.456 142.145L198.801 130.205C198.801 130.205 198.664 130.068 198.664 129.954V106.052C198.664 106.052 198.71 105.847 198.801 105.801L219.456 93.8617C219.456 93.8617 219.661 93.8161 219.729 93.8617L240.385 105.801C240.385 105.801 240.521 105.938 240.521 106.052V129.954C240.521 129.954 240.476 130.159 240.385 130.205L219.729 142.145C219.729 142.145 219.638 142.19 219.593 142.19ZM199.21 129.795L219.593 141.575L239.975 129.795V106.212L219.593 94.4313L199.21 106.212V129.772V129.795Z" fill="#3B4FFF"/>
<path d="M240.274 130.228C240.274 130.228 240.183 130.228 240.137 130.182L198.803 106.28C198.667 106.211 198.621 106.029 198.69 105.892C198.781 105.756 198.94 105.71 199.076 105.779L240.41 129.681C240.547 129.749 240.592 129.931 240.524 130.068C240.478 130.159 240.365 130.205 240.274 130.205V130.228Z" fill="#3B4FFF"/>
<path d="M198.94 130.228C198.94 130.228 198.758 130.182 198.69 130.091C198.621 129.954 198.667 129.772 198.803 129.704L240.137 105.801C240.274 105.733 240.433 105.779 240.524 105.915C240.592 106.052 240.547 106.234 240.41 106.303L199.076 130.205C199.076 130.205 198.985 130.25 198.94 130.25V130.228Z" fill="#3B4FFF"/>
<path d="M219.593 142.19C219.434 142.19 219.32 142.053 219.32 141.917V94.0895C219.32 93.93 219.457 93.816 219.593 93.816C219.73 93.816 219.866 93.9528 219.866 94.0895V141.894C219.866 142.053 219.73 142.167 219.593 142.167V142.19Z" fill="#3B4FFF"/>
<path d="M219.593 166.07C219.593 166.07 219.502 166.07 219.456 166.024L198.801 154.084C198.801 154.084 198.664 153.947 198.664 153.834V129.931C198.664 129.931 198.71 129.726 198.801 129.681L219.456 117.741C219.456 117.741 219.661 117.695 219.729 117.741L240.385 129.681C240.385 129.681 240.521 129.817 240.521 129.931V153.834C240.521 153.834 240.476 154.039 240.385 154.084L219.729 166.024C219.729 166.024 219.638 166.07 219.593 166.07ZM199.21 153.674L219.593 165.454L239.975 153.674V130.114L219.593 118.333L199.21 130.114V153.674Z" fill="#3B4FFF"/>
<path d="M240.274 154.13C240.274 154.13 240.183 154.13 240.137 154.084L198.803 130.182C198.667 130.114 198.621 129.931 198.69 129.795C198.781 129.658 198.94 129.612 199.076 129.681L240.41 153.583C240.547 153.651 240.592 153.834 240.524 153.97C240.478 154.061 240.365 154.107 240.274 154.107V154.13Z" fill="#3B4FFF"/>
<path d="M198.94 154.13C198.94 154.13 198.758 154.084 198.69 153.993C198.621 153.856 198.667 153.674 198.803 153.606L240.137 129.704C240.274 129.635 240.433 129.681 240.524 129.818C240.592 129.954 240.547 130.137 240.41 130.205L199.076 154.107C199.076 154.107 198.985 154.153 198.94 154.153V154.13Z" fill="#3B4FFF"/>
<path d="M219.593 166.07C219.434 166.07 219.32 165.933 219.32 165.796V117.992C219.32 117.832 219.457 117.718 219.593 117.718C219.73 117.718 219.866 117.855 219.866 117.992V165.796C219.866 165.956 219.73 166.07 219.593 166.07Z" fill="#3B4FFF"/>
<path d="M219.593 189.972C219.593 189.972 219.502 189.972 219.456 189.926L198.801 177.986C198.801 177.986 198.664 177.85 198.664 177.736V153.834C198.664 153.834 198.71 153.628 198.801 153.583L219.456 141.643C219.456 141.643 219.661 141.598 219.729 141.643L240.385 153.583C240.385 153.583 240.521 153.72 240.521 153.834V177.736C240.521 177.736 240.476 177.941 240.385 177.986L219.729 189.926C219.729 189.926 219.638 189.972 219.593 189.972ZM199.21 177.576L219.593 189.357L239.975 177.576V154.016L219.593 142.236L199.21 154.016V177.576Z" fill="#3B4FFF"/>
<path d="M240.274 178.032C240.274 178.032 240.183 178.032 240.137 177.987L198.803 154.084C198.667 154.016 198.621 153.834 198.69 153.697C198.781 153.56 198.94 153.515 199.076 153.583L240.41 177.485C240.547 177.554 240.592 177.736 240.524 177.873C240.478 177.964 240.365 178.009 240.274 178.009V178.032Z" fill="#3B4FFF"/>
<path d="M198.94 178.032C198.94 178.032 198.758 177.987 198.69 177.895C198.621 177.759 198.667 177.576 198.803 177.508L240.137 153.606C240.274 153.538 240.433 153.583 240.524 153.72C240.592 153.857 240.547 154.039 240.41 154.107L199.076 178.009C199.076 178.009 198.985 178.055 198.94 178.055V178.032Z" fill="#3B4FFF"/>
<path d="M219.593 189.972C219.434 189.972 219.32 189.835 219.32 189.698V141.894C219.32 141.734 219.457 141.621 219.593 141.621C219.73 141.621 219.866 141.757 219.866 141.894V189.698C219.866 189.858 219.73 189.972 219.593 189.972Z" fill="#3B4FFF"/>
<path d="M136.948 166.07C136.948 166.07 136.857 166.07 136.812 166.024L116.156 154.084C116.156 154.084 116.02 153.947 116.02 153.834V129.931C116.02 129.931 116.065 129.726 116.156 129.681L136.812 117.741C136.812 117.741 137.016 117.695 137.085 117.741L157.74 129.681C157.74 129.681 157.877 129.817 157.877 129.931V153.834C157.877 153.834 157.831 154.039 157.74 154.084L137.085 166.024C137.085 166.024 136.994 166.07 136.948 166.07ZM116.565 153.674L136.948 165.454L157.331 153.674V130.114L136.948 118.333L116.565 130.114V153.674Z" fill="#3B4FFF"/>
<path d="M157.604 154.13C157.604 154.13 157.513 154.13 157.467 154.084L116.133 130.182C115.997 130.114 115.951 129.931 116.02 129.795C116.088 129.658 116.27 129.612 116.406 129.681L157.74 153.583C157.877 153.651 157.922 153.834 157.854 153.97C157.808 154.061 157.695 154.107 157.604 154.107V154.13Z" fill="#3B4FFF"/>
<path d="M116.293 154.13C116.293 154.13 116.111 154.084 116.043 153.993C115.975 153.857 116.02 153.674 116.157 153.606L157.491 129.704C157.627 129.635 157.786 129.681 157.877 129.818C157.946 129.954 157.9 130.137 157.764 130.205L116.43 154.107C116.43 154.107 116.339 154.153 116.293 154.153V154.13Z" fill="#3B4FFF"/>
<path d="M136.949 166.069C136.79 166.069 136.676 165.933 136.676 165.796V117.992C136.676 117.832 136.812 117.718 136.949 117.718C137.085 117.718 137.222 117.855 137.222 117.992V165.796C137.222 165.956 137.085 166.069 136.949 166.069Z" fill="#3B4FFF"/>
<path d="M136.948 189.972C136.948 189.972 136.857 189.972 136.812 189.926L116.156 177.986C116.156 177.986 116.02 177.85 116.02 177.736V153.833C116.02 153.833 116.065 153.628 116.156 153.583L136.812 141.643C136.812 141.643 137.016 141.598 137.085 141.643L157.74 153.583C157.74 153.583 157.877 153.72 157.877 153.833V177.736C157.877 177.736 157.831 177.941 157.74 177.986L137.085 189.926C137.085 189.926 136.994 189.972 136.948 189.972ZM116.565 177.576L136.948 189.356L157.331 177.576V154.016L136.948 142.236L116.565 154.016V177.576Z" fill="#3B4FFF"/>
<path d="M157.604 178.032C157.604 178.032 157.513 178.032 157.467 177.986L116.133 154.084C115.997 154.016 115.951 153.834 116.02 153.697C116.088 153.56 116.27 153.515 116.406 153.583L157.74 177.485C157.877 177.554 157.922 177.736 157.854 177.873C157.808 177.964 157.695 178.009 157.604 178.009V178.032Z" fill="#3B4FFF"/>
<path d="M116.293 178.032C116.293 178.032 116.111 177.987 116.043 177.896C115.975 177.759 116.02 177.577 116.157 177.508L157.491 153.606C157.627 153.538 157.786 153.583 157.877 153.72C157.946 153.857 157.9 154.039 157.764 154.107L116.43 178.009C116.43 178.009 116.339 178.055 116.293 178.055V178.032Z" fill="#3B4FFF"/>
<path d="M136.949 189.972C136.79 189.972 136.676 189.835 136.676 189.698V141.894C136.676 141.734 136.812 141.62 136.949 141.62C137.085 141.62 137.222 141.757 137.222 141.894V189.698C137.222 189.858 137.085 189.972 136.949 189.972Z" fill="#3B4FFF"/>
<path d="M136.948 213.874C136.948 213.874 136.857 213.874 136.812 213.828L116.156 201.889C116.156 201.889 116.02 201.752 116.02 201.638V177.736C116.02 177.736 116.065 177.531 116.156 177.485L136.812 165.545C136.812 165.545 137.016 165.5 137.085 165.545L157.74 177.485C157.74 177.485 157.877 177.622 157.877 177.736V201.638C157.877 201.638 157.831 201.843 157.74 201.889L137.085 213.828C137.085 213.828 136.994 213.874 136.948 213.874ZM116.565 201.479L136.948 213.259L157.331 201.479V177.918L136.948 166.138L116.565 177.918V201.479Z" fill="#3B4FFF"/>
<path d="M157.604 201.912C157.604 201.912 157.513 201.912 157.467 201.866L116.133 177.964C115.997 177.895 115.951 177.713 116.02 177.576C116.088 177.44 116.27 177.394 116.406 177.462L157.74 201.365C157.877 201.433 157.922 201.615 157.854 201.752C157.808 201.843 157.695 201.889 157.604 201.889V201.912Z" fill="#3B4FFF"/>
<path d="M116.293 201.912C116.293 201.912 116.111 201.866 116.043 201.775C115.975 201.638 116.02 201.456 116.157 201.388L157.491 177.485C157.627 177.417 157.786 177.462 157.877 177.599C157.946 177.736 157.9 177.918 157.764 177.987L116.43 201.889C116.43 201.889 116.339 201.934 116.293 201.934V201.912Z" fill="#3B4FFF"/>
<path d="M136.949 213.874C136.79 213.874 136.676 213.737 136.676 213.601V165.796C136.676 165.637 136.812 165.523 136.949 165.523C137.085 165.523 137.222 165.659 137.222 165.796V213.601C137.222 213.76 137.085 213.874 136.949 213.874Z" fill="#3B4FFF"/>
<path d="M157.602 154.13C157.602 154.13 157.511 154.13 157.466 154.084L136.81 142.144C136.81 142.144 136.674 142.008 136.674 141.894V117.992C136.674 117.992 136.719 117.786 136.81 117.741L157.466 105.801C157.466 105.801 157.671 105.756 157.739 105.801L178.394 117.741C178.394 117.741 178.531 117.878 178.531 117.992V141.894C178.531 141.894 178.485 142.099 178.394 142.144L157.739 154.084C157.739 154.084 157.648 154.13 157.602 154.13ZM137.22 141.734L157.602 153.514L177.985 141.734V118.174L157.602 106.394L137.22 118.174V141.734Z" fill="#3B4FFF"/>
<path d="M178.283 142.19C178.283 142.19 178.192 142.19 178.147 142.144L136.813 118.242C136.677 118.174 136.631 117.992 136.699 117.855C136.79 117.718 136.95 117.673 137.086 117.741L178.42 141.643C178.556 141.711 178.602 141.894 178.534 142.03C178.488 142.122 178.374 142.167 178.283 142.167V142.19Z" fill="#3B4FFF"/>
<path d="M136.95 142.19C136.95 142.19 136.768 142.145 136.699 142.053C136.631 141.917 136.677 141.734 136.813 141.666L178.147 117.764C178.283 117.695 178.443 117.741 178.534 117.878C178.602 118.014 178.556 118.197 178.42 118.265L137.086 142.167C137.086 142.167 136.995 142.213 136.95 142.213V142.19Z" fill="#3B4FFF"/>
<path d="M157.603 154.13C157.444 154.13 157.33 153.993 157.33 153.856V106.052C157.33 105.892 157.467 105.778 157.603 105.778C157.74 105.778 157.876 105.915 157.876 106.052V153.856C157.876 154.016 157.74 154.13 157.603 154.13Z" fill="#3B4FFF"/>
<path d="M157.602 178.032C157.602 178.032 157.511 178.032 157.466 177.986L136.81 166.047C136.81 166.047 136.674 165.91 136.674 165.796V141.894C136.674 141.894 136.719 141.689 136.81 141.643L157.466 129.703C157.466 129.703 157.671 129.658 157.739 129.703L178.394 141.643C178.394 141.643 178.531 141.78 178.531 141.894V165.796C178.531 165.796 178.485 166.001 178.394 166.047L157.739 177.986C157.739 177.986 157.648 178.032 157.602 178.032ZM137.22 165.636L157.602 177.417L177.985 165.636V142.076L157.602 130.296L137.22 142.076V165.636Z" fill="#3B4FFF"/>
<path d="M178.283 166.069C178.283 166.069 178.192 166.069 178.147 166.024L136.813 142.122C136.677 142.053 136.631 141.871 136.699 141.734C136.79 141.598 136.95 141.552 137.086 141.62L178.42 165.523C178.556 165.591 178.602 165.773 178.534 165.91C178.488 166.001 178.374 166.047 178.283 166.047V166.069Z" fill="#3B4FFF"/>
<path d="M136.95 166.069C136.95 166.069 136.768 166.024 136.699 165.933C136.631 165.796 136.677 165.614 136.813 165.545L178.147 141.643C178.283 141.575 178.443 141.62 178.534 141.757C178.602 141.894 178.556 142.076 178.42 142.144L137.086 166.047C137.086 166.047 136.995 166.092 136.95 166.092V166.069Z" fill="#3B4FFF"/>
<path d="M157.603 178.032C157.444 178.032 157.33 177.895 157.33 177.759V129.954C157.33 129.795 157.467 129.681 157.603 129.681C157.74 129.681 157.876 129.817 157.876 129.954V177.759C157.876 177.918 157.74 178.032 157.603 178.032Z" fill="#3B4FFF"/>
<path d="M157.602 201.911C157.602 201.911 157.511 201.911 157.466 201.866L136.81 189.926C136.81 189.926 136.674 189.789 136.674 189.675V165.773C136.674 165.773 136.719 165.568 136.81 165.522L157.466 153.583C157.466 153.583 157.671 153.537 157.739 153.583L178.394 165.522C178.394 165.522 178.531 165.659 178.531 165.773V189.675C178.531 189.675 178.485 189.88 178.394 189.926L157.739 201.866C157.739 201.866 157.648 201.911 157.602 201.911ZM137.22 189.516L157.602 201.296L177.985 189.516V165.955L157.602 154.175L137.22 165.955V189.516Z" fill="#3B4FFF"/>
<path d="M178.283 189.972C178.283 189.972 178.192 189.972 178.147 189.926L136.813 166.024C136.677 165.956 136.631 165.773 136.699 165.637C136.79 165.5 136.95 165.454 137.086 165.523L178.42 189.425C178.556 189.493 178.602 189.675 178.534 189.812C178.488 189.903 178.374 189.949 178.283 189.949V189.972Z" fill="#3B4FFF"/>
<path d="M136.95 189.972C136.95 189.972 136.768 189.926 136.699 189.835C136.631 189.698 136.677 189.516 136.813 189.448L178.147 165.545C178.283 165.477 178.443 165.523 178.534 165.659C178.602 165.796 178.556 165.978 178.42 166.047L137.086 189.949C137.086 189.949 136.995 189.994 136.95 189.994V189.972Z" fill="#3B4FFF"/>
<path d="M157.603 201.911C157.444 201.911 157.33 201.775 157.33 201.638V153.834C157.33 153.674 157.467 153.56 157.603 153.56C157.74 153.56 157.876 153.697 157.876 153.834V201.638C157.876 201.798 157.74 201.911 157.603 201.911Z" fill="#3B4FFF"/>
<path d="M178.282 142.19C178.282 142.19 178.191 142.19 178.146 142.145L157.49 130.205C157.49 130.205 157.354 130.068 157.354 129.954V106.052C157.354 106.052 157.399 105.847 157.49 105.801L178.146 93.8616C178.146 93.8616 178.35 93.8161 178.419 93.8616L199.074 105.801C199.074 105.801 199.211 105.938 199.211 106.052V129.954C199.211 129.954 199.165 130.159 199.074 130.205L178.419 142.145C178.419 142.145 178.328 142.19 178.282 142.19ZM157.899 129.795L178.282 141.575L198.665 129.795V106.211L178.282 94.4313L157.899 106.211V129.772V129.795Z" fill="#3B4FFF"/>
<path d="M198.938 130.228C198.938 130.228 198.847 130.228 198.801 130.182L157.467 106.28C157.331 106.211 157.285 106.029 157.354 105.892C157.422 105.756 157.604 105.71 157.74 105.779L199.074 129.681C199.211 129.749 199.256 129.931 199.188 130.068C199.142 130.159 199.029 130.205 198.938 130.205V130.228Z" fill="#3B4FFF"/>
<path d="M157.604 130.228C157.604 130.228 157.422 130.182 157.354 130.091C157.285 129.954 157.331 129.772 157.467 129.704L198.801 105.801C198.938 105.733 199.12 105.779 199.188 105.915C199.256 106.052 199.211 106.234 199.074 106.303L157.74 130.205C157.74 130.205 157.649 130.25 157.604 130.25V130.228Z" fill="#3B4FFF"/>
<path d="M178.283 142.19C178.124 142.19 178.01 142.053 178.01 141.917V94.0895C178.01 93.93 178.146 93.816 178.283 93.816C178.419 93.816 178.556 93.9528 178.556 94.0895V141.894C178.556 142.053 178.419 142.167 178.283 142.167V142.19Z" fill="#3B4FFF"/>
<path d="M178.282 166.07C178.282 166.07 178.191 166.07 178.146 166.024L157.49 154.084C157.49 154.084 157.354 153.948 157.354 153.834V129.931C157.354 129.931 157.399 129.726 157.49 129.681L178.146 117.741C178.146 117.741 178.35 117.695 178.419 117.741L199.074 129.681C199.074 129.681 199.211 129.817 199.211 129.931V153.834C199.211 153.834 199.165 154.039 199.074 154.084L178.419 166.024C178.419 166.024 178.328 166.07 178.282 166.07ZM157.899 153.674L178.282 165.454L198.665 153.674V130.114L178.282 118.333L157.899 130.114V153.674Z" fill="#3B4FFF"/>
<path d="M198.938 154.13C198.938 154.13 198.847 154.13 198.801 154.084L157.467 130.182C157.331 130.114 157.285 129.931 157.354 129.795C157.422 129.658 157.604 129.612 157.74 129.681L199.074 153.583C199.211 153.651 199.256 153.834 199.188 153.97C199.142 154.061 199.029 154.107 198.938 154.107V154.13Z" fill="#3B4FFF"/>
<path d="M157.604 154.13C157.604 154.13 157.422 154.084 157.354 153.993C157.285 153.856 157.331 153.674 157.467 153.606L198.801 129.704C198.938 129.635 199.12 129.681 199.188 129.818C199.256 129.954 199.211 130.137 199.074 130.205L157.74 154.107C157.74 154.107 157.649 154.153 157.604 154.153V154.13Z" fill="#3B4FFF"/>
<path d="M178.283 166.07C178.124 166.07 178.01 165.933 178.01 165.796V117.992C178.01 117.832 178.146 117.718 178.283 117.718C178.419 117.718 178.556 117.855 178.556 117.992V165.796C178.556 165.956 178.419 166.07 178.283 166.07Z" fill="#3B4FFF"/>
<path d="M178.282 189.972C178.282 189.972 178.191 189.972 178.146 189.926L157.49 177.987C157.49 177.987 157.354 177.85 157.354 177.736V153.834C157.354 153.834 157.399 153.629 157.49 153.583L178.146 141.643C178.146 141.643 178.35 141.598 178.419 141.643L199.074 153.583C199.074 153.583 199.211 153.72 199.211 153.834V177.736C199.211 177.736 199.165 177.941 199.074 177.987L178.419 189.926C178.419 189.926 178.328 189.972 178.282 189.972ZM157.899 177.576L178.282 189.357L198.665 177.576V154.016L178.282 142.236L157.899 154.016V177.576Z" fill="#3B4FFF"/>
<path d="M198.938 178.032C198.938 178.032 198.847 178.032 198.801 177.987L157.467 154.084C157.331 154.016 157.285 153.834 157.354 153.697C157.422 153.56 157.604 153.515 157.74 153.583L199.074 177.485C199.211 177.554 199.256 177.736 199.188 177.873C199.142 177.964 199.029 178.009 198.938 178.009V178.032Z" fill="#3B4FFF"/>
<path d="M157.604 178.032C157.604 178.032 157.422 177.987 157.354 177.895C157.285 177.759 157.331 177.576 157.467 177.508L198.801 153.606C198.938 153.538 199.12 153.583 199.188 153.72C199.256 153.857 199.211 154.039 199.074 154.107L157.74 178.009C157.74 178.009 157.649 178.055 157.604 178.055V178.032Z" fill="#3B4FFF"/>
<path d="M178.283 189.972C178.124 189.972 178.01 189.835 178.01 189.698V141.894C178.01 141.734 178.146 141.621 178.283 141.621C178.419 141.621 178.556 141.757 178.556 141.894V189.698C178.556 189.858 178.419 189.972 178.283 189.972Z" fill="#3B4FFF"/>
<path d="M198.938 130.227C198.938 130.227 198.847 130.227 198.802 130.182L178.146 118.242C178.146 118.242 178.01 118.105 178.01 117.991V94.0892C178.01 94.0892 178.055 93.8842 178.146 93.8386L198.802 81.8989C198.802 81.8989 199.007 81.8533 199.075 81.8989L219.73 93.8386C219.73 93.8386 219.867 93.9753 219.867 94.0892V117.991C219.867 117.991 219.821 118.197 219.73 118.242L199.075 130.182C199.075 130.182 198.984 130.227 198.938 130.227ZM178.556 117.832L198.938 129.612L219.321 117.832V94.2715L198.938 82.4913L178.556 94.2715V117.832Z" fill="#3B4FFF"/>
<path d="M219.592 118.288C219.592 118.288 219.501 118.288 219.455 118.242L178.122 94.3398C177.985 94.2715 177.94 94.0892 178.008 93.9525C178.076 93.8157 178.258 93.7702 178.395 93.8385L219.728 117.741C219.865 117.809 219.91 117.991 219.842 118.128C219.797 118.219 219.683 118.265 219.592 118.265V118.288Z" fill="#3B4FFF"/>
<path d="M178.282 118.288C178.282 118.288 178.1 118.242 178.031 118.151C177.963 118.014 178.009 117.832 178.145 117.764L219.479 93.8616C219.615 93.7932 219.775 93.8388 219.866 93.9755C219.934 94.1122 219.888 94.2945 219.752 94.3629L178.418 118.265C178.418 118.265 178.327 118.311 178.282 118.311V118.288Z" fill="#3B4FFF"/>
<path d="M198.937 130.227C198.778 130.227 198.664 130.091 198.664 129.954V82.1495C198.664 81.99 198.801 81.8761 198.937 81.8761C199.074 81.8761 199.21 82.0128 199.21 82.1495V129.954C199.21 130.114 199.074 130.227 198.937 130.227Z" fill="#3B4FFF"/>
<path d="M198.938 154.13C198.938 154.13 198.847 154.13 198.802 154.084L178.146 142.144C178.146 142.144 178.01 142.008 178.01 141.894V117.991C178.01 117.991 178.055 117.786 178.146 117.741L198.802 105.801C198.802 105.801 199.007 105.756 199.075 105.801L219.73 117.741C219.73 117.741 219.867 117.878 219.867 117.991V141.894C219.867 141.894 219.821 142.099 219.73 142.144L199.075 154.084C199.075 154.084 198.984 154.13 198.938 154.13ZM178.556 141.734L198.938 153.514L219.321 141.734V118.174L198.938 106.394L178.556 118.174V141.734Z" fill="#3B4FFF"/>
<path d="M219.592 142.19C219.592 142.19 219.501 142.19 219.455 142.144L178.122 118.242C177.985 118.174 177.94 117.991 178.008 117.855C178.076 117.718 178.258 117.672 178.395 117.741L219.728 141.643C219.865 141.711 219.91 141.894 219.842 142.03C219.797 142.122 219.683 142.167 219.592 142.167V142.19Z" fill="#3B4FFF"/>
<path d="M178.282 142.19C178.282 142.19 178.1 142.145 178.031 142.053C177.963 141.917 178.009 141.734 178.145 141.666L219.479 117.764C219.615 117.695 219.775 117.741 219.866 117.878C219.934 118.014 219.888 118.197 219.752 118.265L178.418 142.167C178.418 142.167 178.327 142.213 178.282 142.213V142.19Z" fill="#3B4FFF"/>
<path d="M198.937 154.13C198.778 154.13 198.664 153.993 198.664 153.856V106.052C198.664 105.892 198.801 105.778 198.937 105.778C199.074 105.778 199.21 105.915 199.21 106.052V153.856C199.21 154.016 199.074 154.13 198.937 154.13Z" fill="#3B4FFF"/>
<path d="M198.938 178.032C198.938 178.032 198.847 178.032 198.802 177.986L178.146 166.047C178.146 166.047 178.01 165.91 178.01 165.796V141.894C178.01 141.894 178.055 141.689 178.146 141.643L198.802 129.703C198.802 129.703 199.007 129.658 199.075 129.703L219.73 141.643C219.73 141.643 219.867 141.78 219.867 141.894V165.796C219.867 165.796 219.821 166.001 219.73 166.047L199.075 177.986C199.075 177.986 198.984 178.032 198.938 178.032ZM178.556 165.636L198.938 177.417L219.321 165.636V142.076L198.938 130.296L178.556 142.076V165.636Z" fill="#3B4FFF"/>
<path d="M219.592 166.069C219.592 166.069 219.501 166.069 219.455 166.024L178.122 142.122C177.985 142.053 177.94 141.871 178.008 141.734C178.076 141.598 178.258 141.552 178.395 141.62L219.728 165.523C219.865 165.591 219.91 165.773 219.842 165.91C219.797 166.001 219.683 166.047 219.592 166.047V166.069Z" fill="#3B4FFF"/>
<path d="M178.282 166.069C178.282 166.069 178.1 166.024 178.031 165.933C177.963 165.796 178.009 165.614 178.145 165.545L219.479 141.643C219.615 141.575 219.775 141.62 219.866 141.757C219.934 141.894 219.888 142.076 219.752 142.144L178.418 166.047C178.418 166.047 178.327 166.092 178.282 166.092V166.069Z" fill="#3B4FFF"/>
<path d="M198.937 178.032C198.778 178.032 198.664 177.895 198.664 177.759V129.954C198.664 129.795 198.801 129.681 198.937 129.681C199.074 129.681 199.21 129.817 199.21 129.954V177.759C199.21 177.918 199.074 178.032 198.937 178.032Z" fill="#3B4FFF"/>
<path d="M116.292 154.13C116.292 154.13 116.201 154.13 116.155 154.084L95.4998 142.144C95.4998 142.144 95.3633 142.008 95.3633 141.894V117.992C95.3633 117.992 95.4088 117.786 95.4998 117.741L116.155 105.801C116.155 105.801 116.36 105.756 116.428 105.801L137.084 117.741C137.084 117.741 137.22 117.878 137.22 117.992V141.894C137.22 141.894 137.175 142.099 137.084 142.144L116.428 154.084C116.428 154.084 116.337 154.13 116.292 154.13ZM95.9092 141.734L116.292 153.515L136.674 141.734V118.174L116.292 106.394L95.9092 118.174V141.734Z" fill="#3B4FFF"/>
<path d="M136.947 142.19C136.947 142.19 136.856 142.19 136.811 142.144L95.4771 118.242C95.3406 118.174 95.2951 117.992 95.3634 117.855C95.4316 117.718 95.6136 117.673 95.7501 117.741L137.084 141.643C137.22 141.711 137.266 141.894 137.198 142.03C137.152 142.122 137.038 142.167 136.947 142.167V142.19Z" fill="#3B4FFF"/>
<path d="M95.6371 142.19C95.6371 142.19 95.4551 142.145 95.3868 142.053C95.3186 141.917 95.3641 141.734 95.5006 141.666L136.834 117.764C136.971 117.696 137.153 117.741 137.221 117.878C137.289 118.015 137.244 118.197 137.107 118.265L95.7735 142.167C95.7735 142.167 95.6826 142.213 95.6371 142.213V142.19Z" fill="#3B4FFF"/>
<path d="M116.293 154.13C116.133 154.13 116.02 153.993 116.02 153.856V106.052C116.02 105.892 116.156 105.778 116.293 105.778C116.429 105.778 116.565 105.915 116.565 106.052V153.856C116.565 154.016 116.429 154.13 116.293 154.13Z" fill="#3B4FFF"/>
<path d="M116.292 178.032C116.292 178.032 116.201 178.032 116.155 177.986L95.4998 166.047C95.4998 166.047 95.3633 165.91 95.3633 165.796V141.894C95.3633 141.894 95.4088 141.689 95.4998 141.643L116.155 129.703C116.155 129.703 116.36 129.658 116.428 129.703L137.084 141.643C137.084 141.643 137.22 141.78 137.22 141.894V165.796C137.22 165.796 137.175 166.001 137.084 166.047L116.428 177.986C116.428 177.986 116.337 178.032 116.292 178.032ZM95.9092 165.637L116.292 177.417L136.674 165.637V142.076L116.292 130.296L95.9092 142.076V165.637Z" fill="#3B4FFF"/>
<path d="M136.947 166.069C136.947 166.069 136.856 166.069 136.811 166.024L95.4771 142.122C95.3406 142.053 95.2951 141.871 95.3634 141.734C95.4316 141.598 95.6136 141.552 95.7501 141.62L137.084 165.523C137.22 165.591 137.266 165.773 137.198 165.91C137.152 166.001 137.038 166.047 136.947 166.047V166.069Z" fill="#3B4FFF"/>
<path d="M95.6371 166.07C95.6371 166.07 95.4551 166.024 95.3868 165.933C95.3186 165.796 95.3641 165.614 95.5006 165.545L136.834 141.643C136.971 141.575 137.153 141.62 137.221 141.757C137.289 141.894 137.244 142.076 137.107 142.145L95.7735 166.047C95.7735 166.047 95.6826 166.092 95.6371 166.092V166.07Z" fill="#3B4FFF"/>
<path d="M116.293 178.032C116.133 178.032 116.02 177.895 116.02 177.759V129.954C116.02 129.795 116.156 129.681 116.293 129.681C116.429 129.681 116.565 129.817 116.565 129.954V177.759C116.565 177.918 116.429 178.032 116.293 178.032Z" fill="#3B4FFF"/>
<path d="M116.292 201.911C116.292 201.911 116.201 201.911 116.155 201.866L95.4998 189.926C95.4998 189.926 95.3633 189.789 95.3633 189.675V165.773C95.3633 165.773 95.4088 165.568 95.4998 165.523L116.155 153.583C116.155 153.583 116.36 153.537 116.428 153.583L137.084 165.523C137.084 165.523 137.22 165.659 137.22 165.773V189.675C137.22 189.675 137.175 189.881 137.084 189.926L116.428 201.866C116.428 201.866 116.337 201.911 116.292 201.911ZM95.9092 189.516L116.292 201.296L136.674 189.516V165.956L116.292 154.175L95.9092 165.956V189.516Z" fill="#3B4FFF"/>
<path d="M136.947 189.972C136.947 189.972 136.856 189.972 136.811 189.926L95.4771 166.024C95.3406 165.956 95.2951 165.773 95.3634 165.637C95.4316 165.5 95.6136 165.454 95.7501 165.523L137.084 189.425C137.22 189.493 137.266 189.675 137.198 189.812C137.152 189.903 137.038 189.949 136.947 189.949V189.972Z" fill="#3B4FFF"/>
<path d="M95.6371 189.972C95.6371 189.972 95.4551 189.926 95.3868 189.835C95.3186 189.699 95.3641 189.516 95.5006 189.448L136.834 165.546C136.971 165.477 137.153 165.523 137.221 165.66C137.289 165.796 137.244 165.979 137.107 166.047L95.7735 189.949C95.7735 189.949 95.6826 189.995 95.6371 189.995V189.972Z" fill="#3B4FFF"/>
<path d="M116.293 201.911C116.133 201.911 116.02 201.775 116.02 201.638V153.834C116.02 153.674 116.156 153.56 116.293 153.56C116.429 153.56 116.565 153.697 116.565 153.834V201.638C116.565 201.798 116.429 201.911 116.293 201.911Z" fill="#3B4FFF"/>
<path d="M136.948 142.19C136.948 142.19 136.857 142.19 136.812 142.145L116.156 130.205C116.156 130.205 116.02 130.068 116.02 129.954V106.052C116.02 106.052 116.065 105.847 116.156 105.801L136.812 93.8616C136.812 93.8616 137.016 93.816 137.085 93.8616L157.74 105.801C157.74 105.801 157.877 105.938 157.877 106.052V129.954C157.877 129.954 157.831 130.159 157.74 130.205L137.085 142.145C137.085 142.145 136.994 142.19 136.948 142.19ZM116.565 129.795L136.948 141.575L157.331 129.795V106.211L136.948 94.4312L116.565 106.211V129.772V129.795Z" fill="#3B4FFF"/>
<path d="M157.604 130.227C157.604 130.227 157.513 130.227 157.468 130.182L116.157 106.302C116.02 106.234 115.975 106.052 116.043 105.915C116.111 105.778 116.293 105.733 116.43 105.801L157.764 129.703C157.9 129.772 157.946 129.954 157.877 130.091C157.832 130.182 157.718 130.227 157.627 130.227H157.604Z" fill="#3B4FFF"/>
<path d="M116.293 130.227C116.293 130.227 116.111 130.182 116.043 130.091C115.975 129.954 116.02 129.772 116.157 129.703L157.491 105.801C157.627 105.733 157.786 105.778 157.877 105.915C157.946 106.052 157.9 106.234 157.764 106.302L116.43 130.205C116.43 130.205 116.339 130.25 116.293 130.25V130.227Z" fill="#3B4FFF"/>
<path d="M136.949 142.19C136.79 142.19 136.676 142.053 136.676 141.917V94.0893C136.676 93.9298 136.812 93.8159 136.949 93.8159C137.085 93.8159 137.222 93.9526 137.222 94.0893V141.894C137.222 142.053 137.085 142.167 136.949 142.167V142.19Z" fill="#3B4FFF"/>
<path d="M136.948 166.069C136.948 166.069 136.857 166.069 136.812 166.024L116.156 154.084C116.156 154.084 116.02 153.947 116.02 153.834V129.931C116.02 129.931 116.065 129.726 116.156 129.681L136.812 117.741C136.812 117.741 137.016 117.695 137.085 117.741L157.74 129.681C157.74 129.681 157.877 129.817 157.877 129.931V153.834C157.877 153.834 157.831 154.039 157.74 154.084L137.085 166.024C137.085 166.024 136.994 166.069 136.948 166.069ZM116.565 153.674L136.948 165.454L157.331 153.674V130.114L136.948 118.333L116.565 130.114V153.674Z" fill="#3B4FFF"/>
<path d="M157.604 154.13C157.604 154.13 157.513 154.13 157.467 154.084L116.133 130.182C115.997 130.114 115.951 129.931 116.02 129.795C116.088 129.658 116.27 129.612 116.406 129.681L157.74 153.583C157.877 153.651 157.922 153.834 157.854 153.97C157.808 154.061 157.695 154.107 157.604 154.107V154.13Z" fill="#3B4FFF"/>
<path d="M116.293 154.13C116.293 154.13 116.111 154.084 116.043 153.993C115.975 153.856 116.02 153.674 116.157 153.606L157.491 129.704C157.627 129.635 157.786 129.681 157.877 129.818C157.946 129.954 157.9 130.137 157.764 130.205L116.43 154.107C116.43 154.107 116.339 154.153 116.293 154.153V154.13Z" fill="#3B4FFF"/>
<path d="M136.949 166.069C136.79 166.069 136.676 165.933 136.676 165.796V117.992C136.676 117.832 136.812 117.718 136.949 117.718C137.085 117.718 137.222 117.855 137.222 117.992V165.796C137.222 165.956 137.085 166.069 136.949 166.069Z" fill="#3B4FFF"/>
<path d="M136.948 189.972C136.948 189.972 136.857 189.972 136.812 189.926L116.156 177.986C116.156 177.986 116.02 177.85 116.02 177.736V153.833C116.02 153.833 116.065 153.628 116.156 153.583L136.812 141.643C136.812 141.643 137.016 141.598 137.085 141.643L157.74 153.583C157.74 153.583 157.877 153.72 157.877 153.833V177.736C157.877 177.736 157.831 177.941 157.74 177.986L137.085 189.926C137.085 189.926 136.994 189.972 136.948 189.972ZM116.565 177.576L136.948 189.356L157.331 177.576V154.016L136.948 142.236L116.565 154.016V177.576Z" fill="#3B4FFF"/>
<path d="M157.604 178.032C157.604 178.032 157.513 178.032 157.467 177.986L116.133 154.084C115.997 154.016 115.951 153.834 116.02 153.697C116.088 153.56 116.27 153.515 116.406 153.583L157.74 177.485C157.877 177.554 157.922 177.736 157.854 177.873C157.808 177.964 157.695 178.009 157.604 178.009V178.032Z" fill="#3B4FFF"/>
<path d="M116.293 178.032C116.293 178.032 116.111 177.987 116.043 177.896C115.975 177.759 116.02 177.577 116.157 177.508L157.491 153.606C157.627 153.538 157.786 153.583 157.877 153.72C157.946 153.857 157.9 154.039 157.764 154.107L116.43 178.009C116.43 178.009 116.339 178.055 116.293 178.055V178.032Z" fill="#3B4FFF"/>
<path d="M136.949 189.972C136.79 189.972 136.676 189.835 136.676 189.698V141.894C136.676 141.734 136.812 141.62 136.949 141.62C137.085 141.62 137.222 141.757 137.222 141.894V189.698C137.222 189.858 137.085 189.972 136.949 189.972Z" fill="#3B4FFF"/>
<path d="M157.602 130.227C157.602 130.227 157.511 130.227 157.466 130.182L136.81 118.242C136.81 118.242 136.674 118.105 136.674 117.991V94.0892C136.674 94.0892 136.719 93.8841 136.81 93.8385L157.466 81.8988C157.466 81.8988 157.671 81.8532 157.739 81.8988L178.394 93.8385C178.394 93.8385 178.531 93.9752 178.531 94.0892V117.991C178.531 117.991 178.485 118.196 178.394 118.242L157.739 130.182C157.739 130.182 157.648 130.227 157.602 130.227ZM137.22 117.832L157.602 129.612L177.985 117.832V94.2714L157.602 82.4912L137.22 94.2714V117.832Z" fill="#3B4FFF"/>
<path d="M178.283 118.288C178.283 118.288 178.192 118.288 178.147 118.242L136.813 94.3398C136.677 94.2715 136.631 94.0892 136.699 93.9525C136.79 93.8157 136.95 93.7702 137.086 93.8385L178.42 117.741C178.556 117.809 178.602 117.991 178.534 118.128C178.488 118.219 178.374 118.265 178.283 118.265V118.288Z" fill="#3B4FFF"/>
<path d="M136.95 118.288C136.95 118.288 136.768 118.242 136.699 118.151C136.631 118.014 136.677 117.832 136.813 117.764L178.147 93.8614C178.283 93.7931 178.443 93.8386 178.534 93.9754C178.602 94.1121 178.556 94.2943 178.42 94.3627L137.086 118.265C137.086 118.265 136.995 118.311 136.95 118.311V118.288Z" fill="#3B4FFF"/>
<path d="M157.603 130.227C157.444 130.227 157.33 130.091 157.33 129.954V82.1495C157.33 81.99 157.467 81.8761 157.603 81.8761C157.74 81.8761 157.876 82.0128 157.876 82.1495V129.954C157.876 130.114 157.74 130.227 157.603 130.227Z" fill="#3B4FFF"/>
<path d="M157.602 154.13C157.602 154.13 157.511 154.13 157.466 154.084L136.81 142.144C136.81 142.144 136.674 142.008 136.674 141.894V117.991C136.674 117.991 136.719 117.786 136.81 117.741L157.466 105.801C157.466 105.801 157.671 105.755 157.739 105.801L178.394 117.741C178.394 117.741 178.531 117.877 178.531 117.991V141.894C178.531 141.894 178.485 142.099 178.394 142.144L157.739 154.084C157.739 154.084 157.648 154.13 157.602 154.13ZM137.22 141.734L157.602 153.514L177.985 141.734V118.174L157.602 106.393L137.22 118.174V141.734Z" fill="#3B4FFF"/>
<path d="M178.283 142.19C178.283 142.19 178.192 142.19 178.147 142.144L136.813 118.242C136.677 118.174 136.631 117.991 136.699 117.855C136.79 117.718 136.95 117.672 137.086 117.741L178.42 141.643C178.556 141.711 178.602 141.894 178.534 142.03C178.488 142.122 178.374 142.167 178.283 142.167V142.19Z" fill="#3B4FFF"/>
<path d="M136.95 142.19C136.95 142.19 136.768 142.144 136.699 142.053C136.631 141.917 136.677 141.734 136.813 141.666L178.147 117.764C178.283 117.695 178.443 117.741 178.534 117.878C178.602 118.014 178.556 118.197 178.42 118.265L137.086 142.167C137.086 142.167 136.995 142.213 136.95 142.213V142.19Z" fill="#3B4FFF"/>
<path d="M157.603 154.13C157.444 154.13 157.33 153.993 157.33 153.856V106.052C157.33 105.892 157.467 105.778 157.603 105.778C157.74 105.778 157.876 105.915 157.876 106.052V153.856C157.876 154.016 157.74 154.13 157.603 154.13Z" fill="#3B4FFF"/>
<path d="M157.602 178.032C157.602 178.032 157.511 178.032 157.466 177.986L136.81 166.046C136.81 166.046 136.674 165.91 136.674 165.796V141.894C136.674 141.894 136.719 141.689 136.81 141.643L157.466 129.703C157.466 129.703 157.671 129.658 157.739 129.703L178.394 141.643C178.394 141.643 178.531 141.78 178.531 141.894V165.796C178.531 165.796 178.485 166.001 178.394 166.046L157.739 177.986C157.739 177.986 157.648 178.032 157.602 178.032ZM137.22 165.636L157.602 177.417L177.985 165.636V142.076L157.602 130.296L137.22 142.076V165.636Z" fill="#3B4FFF"/>
<path d="M178.283 166.069C178.283 166.069 178.192 166.069 178.147 166.024L136.813 142.122C136.677 142.053 136.631 141.871 136.699 141.734C136.79 141.598 136.95 141.552 137.086 141.62L178.42 165.523C178.556 165.591 178.602 165.773 178.534 165.91C178.488 166.001 178.374 166.047 178.283 166.047V166.069Z" fill="#3B4FFF"/>
<path d="M136.95 166.069C136.95 166.069 136.768 166.024 136.699 165.933C136.631 165.796 136.677 165.614 136.813 165.545L178.147 141.643C178.283 141.575 178.443 141.62 178.534 141.757C178.602 141.894 178.556 142.076 178.42 142.144L137.086 166.047C137.086 166.047 136.995 166.092 136.95 166.092V166.069Z" fill="#3B4FFF"/>
<path d="M157.603 178.032C157.444 178.032 157.33 177.895 157.33 177.759V129.954C157.33 129.795 157.467 129.681 157.603 129.681C157.74 129.681 157.876 129.817 157.876 129.954V177.759C157.876 177.918 157.74 178.032 157.603 178.032Z" fill="#3B4FFF"/>
<path d="M178.282 118.288C178.282 118.288 178.191 118.288 178.146 118.242L157.49 106.303C157.49 106.303 157.354 106.166 157.354 106.052V82.1498C157.354 82.1498 157.399 81.9447 157.49 81.8991L178.146 69.9594C178.146 69.9594 178.35 69.9138 178.419 69.9594L199.074 81.8991C199.074 81.8991 199.211 82.0358 199.211 82.1498V106.052C199.211 106.052 199.165 106.257 199.074 106.303L178.419 118.242C178.419 118.242 178.328 118.288 178.282 118.288ZM157.899 105.893L178.282 117.673L198.665 105.893V82.3093L178.282 70.529L157.899 82.3093V105.893Z" fill="#3B4FFF"/>
<path d="M198.938 106.325C198.938 106.325 198.847 106.325 198.801 106.28L157.467 82.4004C157.331 82.3321 157.285 82.1498 157.354 82.0131C157.422 81.8764 157.604 81.8308 157.74 81.8991L199.074 105.801C199.211 105.87 199.256 106.052 199.188 106.189C199.142 106.28 199.029 106.325 198.938 106.325Z" fill="#3B4FFF"/>
<path d="M157.604 106.325C157.604 106.325 157.422 106.28 157.354 106.189C157.285 106.052 157.331 105.87 157.467 105.801L198.801 81.8991C198.938 81.8308 199.12 81.8764 199.188 82.0131C199.256 82.1498 199.211 82.3321 199.074 82.4004L157.74 106.303C157.74 106.303 157.649 106.348 157.604 106.348V106.325Z" fill="#3B4FFF"/>
<path d="M178.283 118.288C178.124 118.288 178.01 118.151 178.01 118.015V70.2101C178.01 70.0506 178.146 69.9366 178.283 69.9366C178.419 69.9366 178.556 70.0734 178.556 70.2101V117.992C178.556 118.151 178.419 118.265 178.283 118.265V118.288Z" fill="#3B4FFF"/>
<path d="M178.282 142.19C178.282 142.19 178.191 142.19 178.146 142.145L157.49 130.205C157.49 130.205 157.354 130.068 157.354 129.954V106.052C157.354 106.052 157.399 105.847 157.49 105.801L178.146 93.8617C178.146 93.8617 178.35 93.8161 178.419 93.8617L199.074 105.801C199.074 105.801 199.211 105.938 199.211 106.052V129.954C199.211 129.954 199.165 130.159 199.074 130.205L178.419 142.145C178.419 142.145 178.328 142.19 178.282 142.19ZM157.899 129.795L178.282 141.575L198.665 129.795V106.212L178.282 94.4313L157.899 106.212V129.772V129.795Z" fill="#3B4FFF"/>
<path d="M198.938 130.228C198.938 130.228 198.847 130.228 198.801 130.182L157.467 106.28C157.331 106.212 157.285 106.029 157.354 105.893C157.422 105.756 157.604 105.71 157.74 105.779L199.074 129.681C199.211 129.749 199.256 129.931 199.188 130.068C199.142 130.159 199.029 130.205 198.938 130.205V130.228Z" fill="#3B4FFF"/>
<path d="M157.604 130.228C157.604 130.228 157.422 130.182 157.354 130.091C157.285 129.954 157.331 129.772 157.467 129.704L198.801 105.801C198.938 105.733 199.12 105.779 199.188 105.915C199.256 106.052 199.211 106.234 199.074 106.303L157.74 130.205C157.74 130.205 157.649 130.251 157.604 130.251V130.228Z" fill="#3B4FFF"/>
<path d="M178.283 142.19C178.124 142.19 178.01 142.054 178.01 141.917V94.0895C178.01 93.93 178.146 93.8161 178.283 93.8161C178.419 93.8161 178.556 93.9528 178.556 94.0895V141.894C178.556 142.054 178.419 142.167 178.283 142.167V142.19Z" fill="#3B4FFF"/>
<path d="M178.282 166.07C178.282 166.07 178.191 166.07 178.146 166.024L157.49 154.084C157.49 154.084 157.354 153.948 157.354 153.834V129.931C157.354 129.931 157.399 129.726 157.49 129.681L178.146 117.741C178.146 117.741 178.35 117.696 178.419 117.741L199.074 129.681C199.074 129.681 199.211 129.818 199.211 129.931V153.834C199.211 153.834 199.165 154.039 199.074 154.084L178.419 166.024C178.419 166.024 178.328 166.07 178.282 166.07ZM157.899 153.674L178.282 165.454L198.665 153.674V130.114L178.282 118.334L157.899 130.114V153.674Z" fill="#3B4FFF"/>
<path d="M198.938 154.13C198.938 154.13 198.847 154.13 198.801 154.084L157.467 130.182C157.331 130.114 157.285 129.931 157.354 129.795C157.422 129.658 157.604 129.612 157.74 129.681L199.074 153.583C199.211 153.651 199.256 153.834 199.188 153.97C199.142 154.061 199.029 154.107 198.938 154.107V154.13Z" fill="#3B4FFF"/>
<path d="M157.604 154.13C157.604 154.13 157.422 154.084 157.354 153.993C157.285 153.856 157.331 153.674 157.467 153.606L198.801 129.704C198.938 129.635 199.12 129.681 199.188 129.818C199.256 129.954 199.211 130.137 199.074 130.205L157.74 154.107C157.74 154.107 157.649 154.153 157.604 154.153V154.13Z" fill="#3B4FFF"/>
<path d="M178.283 166.07C178.124 166.07 178.01 165.933 178.01 165.796V117.992C178.01 117.832 178.146 117.718 178.283 117.718C178.419 117.718 178.556 117.855 178.556 117.992V165.796C178.556 165.956 178.419 166.07 178.283 166.07Z" fill="#3B4FFF"/>
<path d="M130.078 193.754L157.308 177.872L95.3185 142.031L68.1797 157.251L130.078 193.754Z" fill="#CACEDB"/>
<path d="M157.308 177.872L157.354 223.421L111.584 250.969V233.128L130.852 193.321L157.308 177.872Z" fill="#BDC3D1"/>
<path d="M49.7988 197.263V214.352L111.583 250.741V233.72L49.7988 197.263Z" fill="#D6D9E5"/>
<path d="M130.851 193.321L111.583 233.72L49.7988 197.263L68.953 156.796L130.851 193.321Z" fill="#DFE1E8"/>
<path d="M70.4995 163.107L55.0078 195.987L109.536 228.434L125.05 195.508L70.4995 163.107Z" fill="white"/>
<path d="M136.06 197.104L153.781 186.508V183.82L133.808 195.782L126.961 211.185V227.135L129.213 225.791V212.507L136.06 197.104Z" fill="#EDEFF4"/>
<path d="M144.477 209.886L153.781 204.304V186.508L136.06 197.104L129.213 212.507V225.791L141.975 218.158L144.477 209.886Z" fill="#EDEFF4"/>
<path d="M46 212.849L110.15 250.468L110.014 255.914L46 218.226V212.849Z" fill="#3A3A3A"/>
<path d="M110.014 250.559V255.913L118.522 250.832V245.455L110.014 250.559Z" fill="#4D4D4D"/>
<path d="M116.429 244.293L110.014 248.121L48.0928 211.595L46 212.849L110.014 250.559L118.522 245.455L116.429 244.293Z" fill="#707070"/>
<path d="M61.1504 215.537V217.52L99.0264 239.986V237.959L61.1504 215.537Z" fill="#3A3A3A"/>
<path d="M61.1504 211.801V213.783L99.0264 236.25V234.222L61.1504 211.801Z" fill="#3A3A3A"/>
<path d="M61.1504 208.064V210.069L99.0264 232.513V230.508L61.1504 208.064Z" fill="#3A3A3A"/>
<path d="M55.0078 195.987L59.967 185.437L114.518 217.861L109.536 228.434L55.0078 195.987Z" fill="#EDEFF4"/>
<path d="M50.1406 206.241C50.1406 207.585 50.9596 209.135 51.9605 209.704C52.9614 210.274 53.7804 209.636 53.7804 208.292C53.7804 206.947 52.9614 205.398 51.9605 204.828C50.9596 204.258 50.1406 204.896 50.1406 206.241Z" fill="#3B4FFF"/>
<path d="M107.17 239.668C107.17 241.012 107.989 242.561 108.99 243.131C109.991 243.701 110.81 243.063 110.81 241.718C110.81 240.374 109.991 238.824 108.99 238.255C107.989 237.685 107.17 238.323 107.17 239.668Z" fill="#3B4FFF"/>
<path d="M102.758 237.093C102.758 238.437 103.577 239.987 104.578 240.556C105.579 241.126 106.398 240.488 106.398 239.143C106.398 237.799 105.579 236.25 104.578 235.68C103.577 235.11 102.758 235.748 102.758 237.093Z" fill="#3B4FFF"/>
<path d="M54.3477 208.497C54.3477 209.841 55.1666 211.39 56.1675 211.96C57.1685 212.53 57.9874 211.892 57.9874 210.547C57.9874 209.203 57.1685 207.654 56.1675 207.084C55.1666 206.514 54.3477 207.152 54.3477 208.497Z" fill="#3B4FFF"/>
<path d="M142.566 225.016C137.88 226.907 133.785 233.675 132.921 239.918C131.738 240.579 129.054 242.082 128.371 242.538C128.872 244.953 130.009 246.503 131.624 247.209L137.948 250.764L142.225 241.239C143.499 239.257 144.522 237.024 145.159 234.7L149.095 225.95C147.457 224.401 145.159 223.968 142.566 224.993V225.016Z" fill="#303030"/>
<path d="M152.643 233.196C152.643 239.781 148.662 247.414 143.726 250.263C138.812 253.111 134.809 250.08 134.809 243.518C134.809 236.956 138.79 229.3 143.726 226.452C148.64 223.603 152.643 226.634 152.643 233.196Z" fill="#494949"/>
<path d="M149.503 235.224C149.503 239.485 146.91 244.429 143.725 246.275C140.541 248.121 137.947 246.161 137.947 241.9C137.947 237.639 140.541 232.695 143.725 230.849C146.91 229.003 149.503 230.963 149.503 235.224Z" fill="#969696"/>
<path d="M147.866 236.181C147.866 239.234 146.001 242.789 143.726 244.11C141.429 245.432 139.586 244.019 139.586 240.966C139.586 237.913 141.451 234.358 143.726 233.037C146.024 231.715 147.866 233.128 147.866 236.181Z" fill="white"/>
<path d="M145.728 237.411C145.728 238.892 144.841 240.601 143.726 241.239C142.612 241.877 141.725 241.194 141.725 239.713C141.725 238.232 142.612 236.523 143.726 235.885C144.841 235.247 145.728 235.93 145.728 237.411Z" fill="#383838"/>
<path d="M144.113 234.199C144.113 234.472 143.931 234.814 143.727 234.928C143.522 235.042 143.34 234.928 143.34 234.632C143.34 234.335 143.522 234.016 143.727 233.902C143.931 233.789 144.113 233.902 144.113 234.199Z" fill="#383838"/>
<path d="M146.707 234.199C146.707 234.472 146.525 234.814 146.32 234.928C146.116 235.042 145.934 234.928 145.934 234.632C145.934 234.335 146.116 234.016 146.32 233.902C146.525 233.789 146.707 233.902 146.707 234.199Z" fill="#383838"/>
<path d="M141.725 237.092C141.725 237.366 141.543 237.708 141.338 237.822C141.133 237.935 140.951 237.822 140.951 237.525C140.951 237.229 141.133 236.91 141.338 236.796C141.543 236.682 141.725 236.796 141.725 237.092Z" fill="#383838"/>
<path d="M146.707 239.622C146.707 239.895 146.525 240.237 146.32 240.351C146.116 240.465 145.934 240.351 145.934 240.054C145.934 239.758 146.116 239.439 146.32 239.325C146.525 239.211 146.707 239.325 146.707 239.622Z" fill="#383838"/>
<path d="M141.725 242.493C141.725 242.766 141.543 243.108 141.338 243.222C141.133 243.336 140.951 243.222 140.951 242.926C140.951 242.629 141.133 242.31 141.338 242.196C141.543 242.082 141.725 242.196 141.725 242.493Z" fill="#383838"/>
<path d="M147.32 236.705C147.32 236.978 147.138 237.32 146.934 237.434C146.729 237.548 146.547 237.434 146.547 237.138C146.547 236.842 146.729 236.523 146.934 236.409C147.138 236.295 147.32 236.409 147.32 236.705Z" fill="#383838"/>
<path d="M140.951 240.374C140.951 240.647 140.769 240.989 140.564 241.103C140.36 241.217 140.178 241.103 140.178 240.807C140.178 240.51 140.36 240.191 140.564 240.077C140.769 239.963 140.951 240.077 140.951 240.374Z" fill="#383838"/>
<path d="M144.113 242.493C144.113 242.766 143.931 243.108 143.727 243.222C143.522 243.336 143.34 243.222 143.34 242.926C143.34 242.629 143.522 242.31 143.727 242.196C143.931 242.082 144.113 242.196 144.113 242.493Z" fill="#383838"/>
<path d="M231.945 173.088C227.259 174.979 223.164 181.746 222.3 187.99C221.117 188.65 218.432 190.154 217.75 190.61C218.25 193.025 219.388 194.575 221.003 195.281L227.327 198.836L231.604 189.311C232.878 187.329 233.901 185.096 234.538 182.772L238.474 174.022C236.836 172.472 234.538 172.04 231.945 173.065V173.088Z" fill="#303030"/>
<path d="M241.999 181.268C241.999 187.853 238.018 195.486 233.081 198.334C228.168 201.183 224.164 198.152 224.164 191.59C224.164 185.027 228.145 177.371 233.081 174.523C237.995 171.675 241.999 174.706 241.999 181.268Z" fill="#494949"/>
<path d="M238.882 183.296C238.882 187.557 236.289 192.501 233.104 194.347C229.919 196.192 227.326 194.233 227.326 189.972C227.326 185.711 229.919 180.766 233.104 178.921C236.289 177.075 238.882 179.035 238.882 183.296Z" fill="#969696"/>
<path d="M237.245 184.23C237.245 187.283 235.38 190.838 233.105 192.159C230.83 193.481 228.965 192.068 228.965 189.015C228.965 185.962 230.83 182.407 233.105 181.086C235.403 179.764 237.245 181.177 237.245 184.23Z" fill="white"/>
<path d="M235.107 185.46C235.107 186.941 234.22 188.65 233.105 189.288C231.991 189.926 231.104 189.243 231.104 187.762C231.104 186.281 231.991 184.572 233.105 183.934C234.22 183.296 235.107 183.979 235.107 185.46Z" fill="#383838"/>
<path d="M233.467 182.27C233.467 182.544 233.285 182.886 233.08 183C232.875 183.114 232.693 183 232.693 182.703C232.693 182.407 232.875 182.088 233.08 181.974C233.285 181.86 233.467 181.974 233.467 182.27Z" fill="#383838"/>
<path d="M236.086 182.27C236.086 182.544 235.904 182.886 235.699 183C235.494 183.114 235.312 183 235.312 182.703C235.312 182.407 235.494 182.088 235.699 181.974C235.904 181.86 236.086 181.974 236.086 182.27Z" fill="#383838"/>
<path d="M231.078 185.142C231.078 185.415 230.896 185.757 230.691 185.871C230.487 185.985 230.305 185.871 230.305 185.574C230.305 185.278 230.487 184.959 230.691 184.845C230.896 184.731 231.078 184.845 231.078 185.142Z" fill="#383838"/>
<path d="M236.086 187.671C236.086 187.944 235.904 188.286 235.699 188.4C235.494 188.514 235.312 188.4 235.312 188.104C235.312 187.808 235.494 187.489 235.699 187.375C235.904 187.261 236.086 187.375 236.086 187.671Z" fill="#383838"/>
<path d="M231.078 190.541C231.078 190.815 230.896 191.157 230.691 191.271C230.487 191.385 230.305 191.271 230.305 190.974C230.305 190.678 230.487 190.359 230.691 190.245C230.896 190.131 231.078 190.245 231.078 190.541Z" fill="#383838"/>
<path d="M236.699 184.754C236.699 185.027 236.517 185.369 236.313 185.483C236.108 185.597 235.926 185.483 235.926 185.187C235.926 184.891 236.108 184.572 236.313 184.458C236.517 184.344 236.699 184.458 236.699 184.754Z" fill="#383838"/>
<path d="M230.33 188.445C230.33 188.719 230.148 189.061 229.943 189.174C229.739 189.288 229.557 189.174 229.557 188.878C229.557 188.582 229.739 188.263 229.943 188.149C230.148 188.035 230.33 188.149 230.33 188.445Z" fill="#383838"/>
<path d="M233.467 190.541C233.467 190.815 233.285 191.157 233.08 191.271C232.875 191.385 232.693 191.271 232.693 190.974C232.693 190.678 232.875 190.359 233.08 190.245C233.285 190.131 233.467 190.245 233.467 190.541Z" fill="#383838"/>
<path fill-rule="evenodd" clip-rule="evenodd" d="M186.517 62.0431C186.446 61.7764 186.604 61.5022 186.871 61.4308L191.217 60.2661C191.484 60.1946 191.758 60.3529 191.83 60.6196C191.901 60.8864 191.743 61.1605 191.476 61.232L188.296 62.0843L249.425 97.3772L248.572 94.1965C248.501 93.9297 248.659 93.6556 248.926 93.5841C249.193 93.5126 249.467 93.6709 249.538 93.9376L250.703 98.2843C250.774 98.551 250.616 98.8252 250.349 98.8967L246.003 100.061C245.736 100.133 245.462 99.9745 245.39 99.7078C245.319 99.4411 245.477 99.1669 245.744 99.0954L248.925 98.2432L187.796 62.9503L188.648 66.131C188.719 66.3977 188.561 66.6719 188.294 66.7434C188.028 66.8148 187.753 66.6565 187.682 66.3898L186.517 62.0431Z" fill="#3B4FFF"/>
<path fill-rule="evenodd" clip-rule="evenodd" d="M88.869 108.396C88.6024 108.324 88.4446 108.05 88.5165 107.783L89.6889 103.439C89.7608 103.172 90.0353 103.014 90.3019 103.086C90.5685 103.158 90.7263 103.433 90.6544 103.699L89.7965 106.878L167.704 62.0819L164.524 61.224C164.258 61.1521 164.1 60.8776 164.172 60.611C164.244 60.3444 164.518 60.1866 164.785 60.2586L169.13 61.4309C169.396 61.5029 169.554 61.7773 169.482 62.0439L168.31 66.3885C168.238 66.6551 167.963 66.8129 167.697 66.741C167.43 66.669 167.272 66.3946 167.344 66.128L168.202 62.9488L90.295 107.745L93.4741 108.603C93.7408 108.675 93.8986 108.95 93.8266 109.216C93.7547 109.483 93.4802 109.641 93.2136 109.569L88.869 108.396Z" fill="#3B4FFF"/>
<path fill-rule="evenodd" clip-rule="evenodd" d="M249.646 105.56C249.841 105.365 250.158 105.365 250.353 105.56L253.535 108.742C253.73 108.937 253.73 109.254 253.535 109.449C253.34 109.644 253.023 109.644 252.828 109.449L250.5 107.121L250.5 177.707L252.828 175.378C253.023 175.183 253.34 175.183 253.535 175.378C253.73 175.573 253.73 175.89 253.535 176.085L250.353 179.267C250.158 179.462 249.841 179.462 249.646 179.267L246.464 176.085C246.269 175.89 246.269 175.573 246.464 175.378C246.659 175.183 246.976 175.183 247.171 175.378L249.5 177.707L249.5 107.121L247.171 109.449C246.976 109.644 246.659 109.644 246.464 109.449C246.269 109.254 246.269 108.937 246.464 108.742L249.646 105.56Z" fill="#3B4FFF"/>
<path d="M264.395 131.103L257 128.554L257 127.013L265.531 130.224L265.531 131.209L264.395 131.103ZM257 133.236L264.395 130.681L265.531 130.57L265.531 131.56L257 134.783L257 133.236ZM260.164 133.113L258.998 133.113L258.998 128.472L260.164 128.472L260.164 133.113Z" fill="#3B4FFF"/>
<path d="M258.166 141.282L257 141.282L257 136.998L258.166 136.998L258.166 141.282ZM265.531 137.409L257 137.409L257 135.938L265.531 135.938L265.531 137.409Z" fill="#3B4FFF"/>
<path d="M265.531 144.663L257 144.663L257 143.204L265.531 143.204L265.531 144.663ZM265.531 147.341L264.359 147.341L264.359 140.55L265.531 140.55L265.531 147.341Z" fill="#3B4FFF"/>
<path d="M261.5 155.305L261.031 155.305C260.387 155.305 259.809 155.221 259.297 155.053C258.785 154.885 258.35 154.645 257.99 154.332C257.631 154.023 257.355 153.652 257.164 153.219C256.977 152.785 256.883 152.305 256.883 151.777C256.883 151.254 256.977 150.775 257.164 150.342C257.355 149.912 257.631 149.539 257.99 149.223C258.35 148.906 258.785 148.66 259.297 148.484C259.809 148.313 260.387 148.227 261.031 148.227L261.5 148.227C262.145 148.227 262.721 148.313 263.229 148.484C263.74 148.656 264.176 148.898 264.535 149.211C264.898 149.527 265.174 149.9 265.361 150.33C265.553 150.764 265.648 151.242 265.648 151.766C265.648 152.293 265.553 152.773 265.361 153.207C265.174 153.641 264.898 154.014 264.535 154.326C264.176 154.639 263.74 154.879 263.229 155.047C262.721 155.219 262.145 155.305 261.5 155.305ZM261.031 153.834L261.512 153.834C261.988 153.834 262.408 153.787 262.771 153.693C263.139 153.604 263.445 153.469 263.691 153.289C263.941 153.113 264.129 152.897 264.254 152.639C264.383 152.381 264.447 152.09 264.447 151.766C264.447 151.441 264.383 151.152 264.254 150.898C264.129 150.645 263.941 150.428 263.691 150.248C263.445 150.072 263.139 149.938 262.771 149.844C262.408 149.75 261.988 149.703 261.512 149.703L261.031 149.703C260.555 149.703 260.133 149.75 259.766 149.844C259.398 149.938 259.088 150.074 258.834 150.254C258.584 150.438 258.395 150.656 258.266 150.91C258.141 151.164 258.078 151.453 258.078 151.777C258.078 152.105 258.141 152.397 258.266 152.65C258.395 152.904 258.584 153.119 258.834 153.295C259.088 153.471 259.398 153.604 259.766 153.693C260.133 153.787 260.555 153.834 261.031 153.834Z" fill="#3B4FFF"/>
<path d="M213.825 59.1308L207.92 64.2603L206.586 63.4898L213.632 57.707L214.485 58.1991L213.825 59.1308ZM211.975 66.6011L213.46 58.9199L213.932 57.8798L214.789 58.3749L213.315 67.3745L211.975 66.6011ZM213.45 63.7994L212.867 64.8092L208.848 62.4889L209.431 61.4791L213.45 63.7994Z" fill="#3B4FFF"/>
<path d="M224.441 63.9476L220.176 71.3359L218.902 70.6005L218.644 63.3949L215.589 68.6874L214.315 67.9521L218.58 60.5638L219.854 61.2991L220.116 68.5208L223.178 63.2181L224.441 63.9476Z" fill="#3B4FFF"/>
<path d="M227.619 72.4261L228.887 73.1585C228.568 73.6189 228.183 73.9721 227.734 74.2181C227.288 74.4608 226.794 74.5703 226.253 74.5466C225.711 74.5228 225.143 74.3391 224.548 73.9954C224.091 73.7317 223.727 73.4132 223.455 73.0399C223.186 72.6632 223.008 72.2491 222.921 71.7976C222.836 71.3428 222.848 70.8605 222.958 70.3508C223.071 69.843 223.28 69.3236 223.587 68.7925L223.941 68.1785C224.248 67.6473 224.595 67.207 224.981 66.8575C225.372 66.5099 225.786 66.26 226.226 66.1079C226.668 65.9524 227.12 65.8999 227.582 65.9504C228.048 66.0029 228.513 66.1629 228.976 66.4305C229.565 66.7703 230 67.1657 230.281 67.6166C230.562 68.0674 230.703 68.5485 230.706 69.0596C230.712 69.5728 230.598 70.0909 230.363 70.6141L229.095 69.8817C229.244 69.5442 229.327 69.2289 229.343 68.9358C229.362 68.6447 229.296 68.3765 229.145 68.1311C228.995 67.8824 228.743 67.6555 228.387 67.4504C228.096 67.2824 227.811 67.1901 227.532 67.1733C227.253 67.1566 226.981 67.2111 226.714 67.3369C226.448 67.4626 226.188 67.6579 225.936 67.9228C225.689 68.1862 225.453 68.5142 225.226 68.9066L224.866 69.5307C224.651 69.9029 224.488 70.2597 224.376 70.6013C224.27 70.9414 224.222 71.2588 224.232 71.5534C224.246 71.85 224.325 72.119 224.47 72.3605C224.615 72.6019 224.836 72.8086 225.134 72.9805C225.496 73.1895 225.822 73.3009 226.111 73.3148C226.404 73.3306 226.672 73.2618 226.914 73.1083C227.161 72.9534 227.396 72.726 227.619 72.4261Z" fill="#3B4FFF"/>
<path d="M236.195 74.8471L235.612 75.8568L231.689 73.5922L232.272 72.5824L236.195 74.8471ZM234.368 69.6788L230.103 77.0671L228.829 76.3318L233.095 68.9435L234.368 69.6788ZM238.955 72.3273L234.69 79.7155L233.421 78.9831L237.687 71.5948L238.955 72.3273Z" fill="#3B4FFF"/>
<path d="M244.522 80.1958L244.287 80.6017C243.965 81.1599 243.603 81.6186 243.202 81.9778C242.801 82.3369 242.375 82.594 241.924 82.749C241.477 82.9059 241.018 82.9589 240.547 82.9078C240.078 82.8534 239.615 82.6944 239.158 82.4307C238.705 82.169 238.337 81.8485 238.056 81.4694C237.779 81.0888 237.594 80.6637 237.5 80.1943C237.405 79.7249 237.41 79.2246 237.513 78.6936C237.62 78.1645 237.835 77.6208 238.157 77.0627L238.392 76.6567C238.714 76.0985 239.077 75.6425 239.479 75.2887C239.884 74.9315 240.312 74.6754 240.762 74.5204C241.217 74.364 241.678 74.312 242.144 74.3645C242.615 74.4155 243.078 74.5719 243.531 74.8336C243.988 75.0973 244.356 75.4204 244.636 75.8029C244.917 76.1821 245.103 76.6071 245.192 77.078C245.283 77.5455 245.273 78.0428 245.163 78.5699C245.058 79.0956 244.844 79.6376 244.522 80.1958ZM243.014 79.8664L243.254 79.4503C243.492 79.0376 243.661 78.6505 243.762 78.289C243.868 77.9261 243.904 77.5931 243.872 77.2901C243.844 76.9858 243.75 76.715 243.59 76.4778C243.431 76.2373 243.211 76.0359 242.93 75.8738C242.65 75.7117 242.367 75.623 242.083 75.6077C241.8 75.589 241.519 75.643 241.238 75.7696C240.963 75.8949 240.693 76.093 240.428 76.3642C240.165 76.6319 239.915 76.9721 239.676 77.3848L239.436 77.8009C239.198 78.2137 239.027 78.6024 238.925 78.9673C238.823 79.3322 238.786 79.6695 238.814 79.9792C238.848 80.2875 238.943 80.561 239.099 80.7996C239.256 81.0348 239.475 81.2334 239.756 81.3955C240.04 81.5596 240.323 81.651 240.606 81.6697C240.89 81.685 241.171 81.6283 241.448 81.4997C241.727 81.3677 241.998 81.1652 242.259 80.8921C242.524 80.621 242.775 80.2791 243.014 79.8664Z" fill="#3B4FFF"/>
<path d="M112.286 83.2822L112.867 84.293L109.154 86.4281L108.573 85.4173L112.286 83.2822ZM105.257 78.8279L109.51 86.2236L108.235 86.9568L103.982 79.5611L105.257 78.8279Z" fill="#3B4FFF"/>
<path d="M113.322 75.5018L114.798 83.1827L113.462 83.9509L111.993 74.9545L112.847 74.4638L113.322 75.5018ZM118.857 80.8489L112.956 75.7121L112.293 74.7822L113.151 74.2886L120.198 80.0778L118.857 80.8489ZM117.173 78.1674L117.754 79.1782L113.731 81.4915L113.15 80.4807L117.173 78.1674Z" fill="#3B4FFF"/>
<path d="M116.946 72.1063L119.562 70.6021C120.124 70.2789 120.652 70.088 121.146 70.0295C121.639 69.971 122.087 70.0473 122.487 70.2584C122.89 70.4642 123.23 70.8092 123.508 71.2935C123.721 71.6626 123.84 72.0266 123.866 72.3856C123.892 72.7445 123.837 73.0916 123.701 73.4268C123.563 73.7585 123.353 74.0753 123.071 74.3769L122.793 74.7868L120.441 76.1392L119.85 75.1342L121.613 74.1207C121.917 73.9454 122.14 73.7452 122.281 73.52C122.422 73.2948 122.49 73.0599 122.484 72.8152C122.48 72.5652 122.41 72.3217 122.274 72.0846C122.126 71.8273 121.946 71.633 121.736 71.5018C121.526 71.3652 121.289 71.3056 121.024 71.3227C120.757 71.3365 120.465 71.435 120.147 71.618L118.806 72.3891L122.474 78.7689L121.199 79.502L116.946 72.1063ZM125.42 77.0748L121.773 74.7518L123.106 73.9785L126.744 76.226L126.781 76.2921L125.42 77.0748Z" fill="#3B4FFF"/>
<path d="M131.431 68.5899L133.055 71.4141C133.03 71.6133 132.953 71.8601 132.825 72.1545C132.698 72.4436 132.486 72.7526 132.189 73.0814C131.891 73.4103 131.47 73.7314 130.924 74.0449C130.461 74.3117 129.991 74.4782 129.515 74.5444C129.038 74.6072 128.571 74.5671 128.114 74.4239C127.661 74.2788 127.233 74.0317 126.83 73.6824C126.424 73.3298 126.06 72.8725 125.736 72.3104L125.441 71.7973C125.12 71.2386 124.903 70.7009 124.791 70.1842C124.68 69.6622 124.669 69.1729 124.758 68.7162C124.847 68.2596 125.033 67.8463 125.316 67.4763C125.6 67.101 125.979 66.7771 126.453 66.5044C127.059 66.1559 127.619 65.9693 128.132 65.9446C128.647 65.9147 129.114 66.0151 129.536 66.2461C129.957 66.477 130.328 66.8045 130.648 67.2286L129.398 67.9471C129.21 67.7131 128.998 67.5286 128.762 67.3936C128.531 67.2566 128.273 67.1929 127.99 67.2023C127.709 67.2065 127.397 67.3069 127.055 67.5036C126.76 67.673 126.533 67.8778 126.374 68.1181C126.215 68.3583 126.123 68.6297 126.099 68.9321C126.078 69.2325 126.12 69.56 126.224 69.9143C126.329 70.2687 126.496 70.6457 126.726 71.0453L127.027 71.5685C127.26 71.9748 127.51 72.3111 127.776 72.5774C128.045 72.8417 128.323 73.0355 128.61 73.1587C128.901 73.28 129.197 73.3284 129.498 73.3038C129.797 73.2759 130.096 73.1762 130.394 73.0049C130.685 72.8374 130.91 72.6764 131.069 72.5219C131.226 72.3641 131.34 72.2201 131.409 72.09C131.48 71.9547 131.527 71.8373 131.551 71.7379L130.707 70.2699L129.168 71.155L128.622 70.2051L131.431 68.5899Z" fill="#3B4FFF"/>
<path d="M138.843 64.1652L139.077 64.5716C139.398 65.1303 139.614 65.6733 139.723 66.2007C139.833 66.728 139.842 67.2253 139.75 67.6927C139.661 68.158 139.477 68.5818 139.197 68.9638C138.914 69.3425 138.544 69.6633 138.087 69.9262C137.633 70.1871 137.172 70.3444 136.703 70.3979C136.235 70.4462 135.774 70.3934 135.321 70.2396C134.867 70.0858 134.437 69.8309 134.029 69.4749C133.625 69.117 133.262 68.6587 132.941 68.0999L132.707 67.6936C132.386 67.1348 132.173 66.5925 132.069 66.0666C131.963 65.5373 131.956 65.039 132.048 64.5717C132.141 64.099 132.327 63.6743 132.606 63.2976C132.887 62.9155 133.254 62.594 133.707 62.3331C134.165 62.0702 134.629 61.9137 135.1 61.8635C135.569 61.8099 136.03 61.8627 136.482 62.0218C136.932 62.1776 137.358 62.4354 137.758 62.7953C138.16 63.1498 138.522 63.6065 138.843 64.1652ZM137.802 65.3047L137.563 64.8882C137.325 64.475 137.075 64.1344 136.813 63.8662C136.552 63.5927 136.282 63.394 136.004 63.2702C135.727 63.1411 135.445 63.0867 135.159 63.1068C134.872 63.1236 134.587 63.2128 134.306 63.3744C134.025 63.536 133.807 63.736 133.651 63.9743C133.493 64.2092 133.399 64.4799 133.367 64.7862C133.338 65.0871 133.374 65.4201 133.476 65.7852C133.575 66.1468 133.744 66.5342 133.982 66.9474L134.221 67.3639C134.459 67.777 134.71 68.1194 134.974 68.3909C135.238 68.6625 135.512 68.8636 135.794 68.9941C136.078 69.1193 136.362 69.1745 136.646 69.1597C136.929 69.1415 137.21 69.0516 137.491 68.89C137.776 68.7264 137.997 68.5271 138.155 68.2922C138.311 68.0539 138.402 67.7826 138.43 67.4782C138.456 67.1705 138.416 66.8351 138.311 66.472C138.209 66.1069 138.04 65.7178 137.802 65.3047Z" fill="#3B4FFF"/>
</svg>
