<svg width="128" height="70" viewBox="0 0 128 70" fill="none" xmlns="http://www.w3.org/2000/svg">
<g opacity="0.7">
<path d="M85.8828 58.1765H124C126.236 58.1765 128 56.4118 128 54.1765V34.4118C128 32.6471 126.706 31 124.942 30.5294L112.236 27.3529L104.236 12.7647C103.412 11.3529 101.883 10.4118 100.236 10.4118H85.8828V58.1765Z" fill="#E6E6E6"/>
<path d="M21.5273 58.1765H85.8803V0.411758H21.5273C19.292 0.411758 17.5273 2.17646 17.5273 4.41176V16.8823H37.5273C39.292 16.8823 40.7038 18.2941 40.7038 20.0588C40.7038 21.8235 39.292 23.2353 37.5273 23.2353H17.5273V54.0588C17.5273 56.4118 19.4097 58.1765 21.5273 58.1765Z" fill="white"/>
<path d="M40.236 46.7647C46.5889 46.7647 51.6478 51.8235 51.6478 58.1765C51.6478 64.5294 46.5889 69.5882 40.236 69.5882C33.883 69.5882 28.8242 64.5294 28.8242 58.1765C28.8242 51.8235 33.883 46.7647 40.236 46.7647Z" fill="white"/>
<path d="M40.2342 52.1765C43.5283 52.1765 46.2342 54.8823 46.2342 58.1765C46.2342 61.4706 43.5283 64.1765 40.2342 64.1765C36.94 64.1765 34.2342 61.4706 34.2342 58.1765C34.1165 54.8823 36.8224 52.1765 40.2342 52.1765Z" fill="#DBDBDB"/>
<path d="M112.119 46.7647C118.472 46.7647 123.531 51.8235 123.531 58.1765C123.531 64.5294 118.472 69.5882 112.119 69.5882C105.766 69.5882 100.707 64.5294 100.707 58.1765C100.707 51.8235 105.766 46.7647 112.119 46.7647Z" fill="white"/>
<path d="M112.117 52.1765C115.411 52.1765 118.117 54.8823 118.117 58.1765C118.117 61.4706 115.411 64.1765 112.117 64.1765C108.823 64.1765 106.117 61.4706 106.117 58.1765C105.999 54.8823 108.705 52.1765 112.117 52.1765Z" fill="#DBDBDB"/>
<path d="M3.17647 10.4118H52C53.7647 10.4118 55.1765 11.8235 55.1765 13.5882C55.1765 15.3529 53.7647 16.7647 52 16.7647H3.17647C1.41176 16.7647 0 15.3529 0 13.5882C0 11.9412 1.41176 10.4118 3.17647 10.4118Z" fill="white"/>
<path d="M13.528 23.3529H37.528C39.2927 23.3529 40.7045 24.7647 40.7045 26.5294C40.7045 28.2941 39.2927 29.7059 37.528 29.7059H13.528C11.7633 29.7059 10.3516 28.2941 10.3516 26.5294C10.3516 24.7647 11.7633 23.3529 13.528 23.3529Z" fill="white"/>
<path d="M5.29366 23.3529C7.05836 23.3529 8.47013 24.7647 8.47013 26.5294V26.7647C8.47013 28.5294 7.05836 29.9412 5.29366 29.9412C3.52895 29.9412 2.11719 28.5294 2.11719 26.7647V26.5294C2.23483 24.7647 3.52895 23.3529 5.29366 23.3529Z" fill="white"/>
<path d="M85.8787 54.1765H50.9375C51.4081 55.4706 51.6434 56.7647 51.6434 58.1765H85.8787V54.1765Z" fill="#E7E7E7"/>
<path d="M28.8215 58.1765C28.8215 56.7647 29.0568 55.4706 29.5273 54.1765H17.5273C17.5273 56.4117 19.292 58.1765 21.5273 58.1765H28.8215Z" fill="#E7E7E7"/>
<path d="M85.8828 54.1765V58.1765H100.706C100.706 56.7647 100.942 55.4706 101.412 54.1765H85.8828Z" fill="#D1D1D1"/>
<path d="M122.824 54.1765C123.295 55.4706 123.53 56.7647 123.53 58.1765H124.001C126.236 58.1765 128.001 56.4117 128.001 54.1765H122.824Z" fill="#D1D1D1"/>
<path d="M85.8814 0.411758H82.2344V58.1765H85.8814V0.411758Z" fill="#E7E7E7"/>
</g>
</svg>
