<svg width="22" height="22" viewBox="0 0 22 22" fill="none" xmlns="http://www.w3.org/2000/svg">
<path d="M17.5313 15.4688C17.7352 15.4688 17.9346 15.5292 18.1042 15.6425C18.2738 15.7559 18.4059 15.9169 18.484 16.1054C18.5621 16.2938 18.5825 16.5011 18.5427 16.7012C18.5029 16.9012 18.4047 17.085 18.2605 17.2292C18.1162 17.3734 17.9325 17.4716 17.7324 17.5114C17.5324 17.5512 17.325 17.5308 17.1366 17.4528C16.9482 17.3747 16.7871 17.2425 16.6738 17.0729C16.5605 16.9033 16.5 16.704 16.5 16.5C16.5003 16.2266 16.6091 15.9645 16.8024 15.7711C16.9957 15.5778 17.2578 15.4691 17.5313 15.4688ZM17.5313 16.8438C17.5992 16.8438 17.6657 16.8236 17.7222 16.7858C17.7788 16.748 17.8228 16.6944 17.8488 16.6316C17.8749 16.5687 17.8817 16.4996 17.8684 16.4329C17.8551 16.3663 17.8224 16.305 17.7743 16.2569C17.7262 16.2089 17.665 16.1761 17.5983 16.1629C17.5316 16.1496 17.4625 16.1564 17.3997 16.1824C17.3369 16.2084 17.2832 16.2525 17.2454 16.309C17.2077 16.3656 17.1875 16.432 17.1875 16.5C17.1876 16.5911 17.2239 16.6785 17.2883 16.743C17.3527 16.8074 17.4401 16.8437 17.5313 16.8438Z" fill="#7E858E"/>
<path d="M4.125 15.4688C4.32896 15.4688 4.52834 15.5292 4.69793 15.6425C4.86752 15.7559 4.9997 15.9169 5.07775 16.1054C5.1558 16.2938 5.17623 16.5011 5.13643 16.7012C5.09664 16.9012 4.99843 17.085 4.8542 17.2292C4.70998 17.3734 4.52623 17.4716 4.32618 17.5114C4.12614 17.5512 3.91879 17.5308 3.73036 17.4528C3.54192 17.3747 3.38086 17.2425 3.26754 17.0729C3.15423 16.9033 3.09375 16.704 3.09375 16.5C3.09406 16.2266 3.20282 15.9645 3.39614 15.7711C3.58947 15.5778 3.85159 15.4691 4.125 15.4688ZM4.125 16.8438C4.19299 16.8438 4.25945 16.8236 4.31597 16.7858C4.3725 16.748 4.41656 16.6944 4.44258 16.6316C4.4686 16.5687 4.47541 16.4996 4.46214 16.4329C4.44888 16.3663 4.41614 16.305 4.36807 16.2569C4.31999 16.2089 4.25874 16.1761 4.19206 16.1629C4.12538 16.1496 4.05626 16.1564 3.99345 16.1824C3.93064 16.2084 3.87695 16.2525 3.83918 16.309C3.80141 16.3656 3.78125 16.432 3.78125 16.5C3.78135 16.5911 3.8176 16.6785 3.88204 16.743C3.94649 16.8074 4.03386 16.8437 4.125 16.8438Z" fill="#7E858E"/>
<path d="M1.54688 3.4375H13.9219C14.2409 3.43785 14.5467 3.56472 14.7722 3.79028C14.9978 4.01583 15.1246 4.32164 15.125 4.64062V6.53125H18.5625C18.6231 6.5313 18.6826 6.54733 18.7351 6.57774C18.7875 6.60814 18.831 6.65184 18.8611 6.70441L21.6111 11.5169C21.6407 11.5689 21.6563 11.6277 21.6562 11.6875V15.6406C21.6559 15.9596 21.529 16.2654 21.3035 16.491C21.0779 16.7165 20.7721 16.8434 20.4531 16.8438H19.5645C19.4834 17.3243 19.2346 17.7606 18.8624 18.0752C18.4902 18.3898 18.0186 18.5625 17.5312 18.5625C17.0439 18.5625 16.5723 18.3898 16.2001 18.0752C15.8279 17.7606 15.5791 17.3243 15.498 16.8438H6.15828C6.07713 17.3243 5.82839 17.7606 5.45618 18.0752C5.08397 18.3898 4.61236 18.5625 4.125 18.5625C3.63764 18.5625 3.16603 18.3898 2.79382 18.0752C2.42161 17.7606 2.17287 17.3243 2.09172 16.8438H1.54688C1.22789 16.8434 0.922081 16.7165 0.696527 16.491C0.470974 16.2654 0.344103 15.9596 0.34375 15.6406V4.64062C0.344103 4.32164 0.470974 4.01583 0.696527 3.79028C0.922081 3.56472 1.22789 3.43785 1.54688 3.4375ZM18.9522 8.25H16.5V11.3438H20.72L18.9522 8.25ZM20.9688 13.0625H20.2812C20.1901 13.0625 20.1026 13.0987 20.0382 13.1632C19.9737 13.2276 19.9375 13.3151 19.9375 13.4062C19.9375 13.4974 19.9737 13.5849 20.0382 13.6493C20.1026 13.7138 20.1901 13.75 20.2812 13.75H20.9688V13.0625ZM17.5312 17.875C17.8032 17.875 18.069 17.7944 18.2952 17.6433C18.5213 17.4922 18.6975 17.2774 18.8016 17.0262C18.9057 16.7749 18.9329 16.4985 18.8798 16.2318C18.8268 15.965 18.6958 15.72 18.5035 15.5277C18.3112 15.3354 18.0662 15.2045 17.7995 15.1514C17.5328 15.0984 17.2563 15.1256 17.0051 15.2297C16.7538 15.3337 16.5391 15.51 16.388 15.7361C16.2369 15.9622 16.1562 16.2281 16.1562 16.5C16.1567 16.8645 16.3017 17.214 16.5595 17.4717C16.8173 17.7295 17.1667 17.8745 17.5312 17.875ZM15.125 16.1562H15.498C15.5791 15.6757 15.8279 15.2394 16.2001 14.9248C16.5723 14.6102 17.0439 14.4375 17.5312 14.4375C18.0186 14.4375 18.4902 14.6102 18.8624 14.9248C19.2346 15.2394 19.4834 15.6757 19.5645 16.1562H20.4531C20.5898 16.1561 20.7209 16.1018 20.8176 16.0051C20.9143 15.9084 20.9686 15.7773 20.9688 15.6406V14.4375H20.2812C20.0077 14.4375 19.7454 14.3288 19.552 14.1355C19.3586 13.9421 19.25 13.6798 19.25 13.4062C19.25 13.1327 19.3586 12.8704 19.552 12.677C19.7454 12.4837 20.0077 12.375 20.2812 12.375H20.9688V12.0312H16.1562C16.0651 12.0312 15.9776 11.995 15.9132 11.9306C15.8487 11.8661 15.8125 11.7787 15.8125 11.6875V7.90625C15.8125 7.81508 15.8487 7.72765 15.9132 7.66318C15.9776 7.59872 16.0651 7.5625 16.1562 7.5625H18.5595L18.3631 7.21875H15.125V16.1562ZM4.125 17.875C4.39695 17.875 4.66279 17.7944 4.88891 17.6433C5.11503 17.4922 5.29126 17.2774 5.39533 17.0262C5.4994 16.7749 5.52663 16.4985 5.47358 16.2318C5.42052 15.965 5.28957 15.72 5.09727 15.5277C4.90497 15.3354 4.65997 15.2045 4.39325 15.1514C4.12653 15.0984 3.85006 15.1256 3.59881 15.2297C3.34756 15.3337 3.13282 15.51 2.98173 15.7361C2.83064 15.9622 2.75 16.2281 2.75 16.5C2.75048 16.8645 2.8955 17.214 3.15326 17.4717C3.41101 17.7295 3.76047 17.8745 4.125 17.875ZM1.03125 15.6406C1.03136 15.7773 1.08572 15.9084 1.1824 16.0051C1.27907 16.1018 1.41016 16.1561 1.54688 16.1562H2.09172C2.17287 15.6757 2.42161 15.2394 2.79382 14.9248C3.16603 14.6102 3.63764 14.4375 4.125 14.4375C4.61236 14.4375 5.08397 14.6102 5.45618 14.9248C5.82839 15.2394 6.07713 15.6757 6.15828 16.1562H14.4375V13.75H1.03125V15.6406ZM1.03125 13.0625H14.4375V4.64062C14.4374 4.50391 14.383 4.37282 14.2864 4.27615C14.1897 4.17948 14.0586 4.12511 13.9219 4.125H1.54688C1.41016 4.12511 1.27907 4.17948 1.1824 4.27615C1.08572 4.37282 1.03136 4.50391 1.03125 4.64062V13.0625Z" fill="#7E858E"/>
</svg>
