<svg width="162" height="161" viewBox="0 0 162 161" fill="none" xmlns="http://www.w3.org/2000/svg">
<rect x="1" y="0.5" width="159.999" height="160" rx="4.5" fill="#EFF0F4" stroke="#DFE1E8"/>
<path d="M58.8339 86.0156C58.8339 85.4688 58.7492 84.9805 58.58 84.5508C58.4237 84.1081 58.1307 83.7109 57.7011 83.3594C57.2844 82.9948 56.6919 82.6432 55.9237 82.3047C55.1685 81.9531 54.1919 81.5885 52.994 81.2109C51.6659 80.7943 50.4289 80.3255 49.2831 79.8047C48.1373 79.2839 47.1281 78.6784 46.2557 77.9883C45.3964 77.2982 44.7258 76.5039 44.244 75.6055C43.7623 74.694 43.5214 73.6393 43.5214 72.4414C43.5214 71.2695 43.7688 70.2018 44.2636 69.2383C44.7714 68.2747 45.4875 67.4479 46.412 66.7578C47.3365 66.0547 48.4237 65.5143 49.6737 65.1367C50.9367 64.7591 52.33 64.5703 53.8534 64.5703C55.9628 64.5703 57.7857 64.9544 59.3221 65.7227C60.8716 66.4909 62.0695 67.5326 62.9159 68.8477C63.7623 70.1628 64.1854 71.6406 64.1854 73.2812H58.8339C58.8339 72.3958 58.6451 71.6146 58.2675 70.9375C57.9029 70.2604 57.343 69.7266 56.5878 69.3359C55.8456 68.9453 54.9081 68.75 53.7753 68.75C52.6815 68.75 51.7701 68.9128 51.0409 69.2383C50.3248 69.5638 49.7844 70.0065 49.4198 70.5664C49.0682 71.1263 48.8925 71.7513 48.8925 72.4414C48.8925 72.9622 49.0162 73.431 49.2636 73.8477C49.5109 74.2513 49.882 74.6354 50.3768 75C50.8716 75.3516 51.4836 75.6836 52.2128 75.9961C52.955 76.2956 53.8143 76.5951 54.7909 76.8945C56.3534 77.3633 57.7206 77.8841 58.8925 78.457C60.0774 79.0299 61.0604 79.681 61.8417 80.4102C62.6359 81.1393 63.2284 81.9596 63.619 82.8711C64.0227 83.7826 64.2245 84.8177 64.2245 85.9766C64.2245 87.2005 63.9836 88.2943 63.5018 89.2578C63.0201 90.2214 62.33 91.0417 61.4315 91.7188C60.5331 92.3958 59.4524 92.9102 58.1893 93.2617C56.9393 93.6133 55.5396 93.7891 53.9901 93.7891C52.6099 93.7891 51.2427 93.6068 49.8886 93.2422C48.5474 92.8646 47.33 92.3047 46.2362 91.5625C45.1425 90.8073 44.2701 89.8568 43.619 88.7109C42.968 87.5521 42.6425 86.1979 42.6425 84.6484H48.0331C48.0331 85.5469 48.1763 86.3151 48.4628 86.9531C48.7623 87.5781 49.1789 88.0924 49.7128 88.4961C50.2596 88.8867 50.8977 89.1732 51.6268 89.3555C52.356 89.5378 53.1438 89.6289 53.9901 89.6289C55.0839 89.6289 55.9823 89.4792 56.6854 89.1797C57.4016 88.8672 57.9354 88.4375 58.287 87.8906C58.6516 87.3438 58.8339 86.7188 58.8339 86.0156ZM78.3651 87.832L85.455 64.9609H91.412L81.3729 93.3984H77.4081L78.3651 87.832ZM71.8221 64.9609L78.8729 87.832L79.8886 93.3984H75.8846L65.8846 64.9609H71.8221ZM116.256 78.6914V89.7656C115.839 90.2995 115.182 90.8789 114.283 91.5039C113.398 92.1289 112.239 92.6693 110.807 93.125C109.374 93.5677 107.616 93.7891 105.533 93.7891C103.723 93.7891 102.07 93.4896 100.572 92.8906C99.0748 92.2786 97.7857 91.3867 96.705 90.2148C95.6242 89.043 94.7909 87.6107 94.205 85.918C93.619 84.2253 93.3261 82.2917 93.3261 80.1172V78.2422C93.3261 76.0677 93.5995 74.1341 94.1464 72.4414C94.7063 70.7487 95.5005 69.3164 96.5292 68.1445C97.5708 66.9727 98.8143 66.0807 100.26 65.4688C101.718 64.8568 103.346 64.5508 105.142 64.5508C107.551 64.5508 109.53 64.9479 111.08 65.7422C112.642 66.5365 113.84 67.6302 114.674 69.0234C115.507 70.4036 116.028 71.9922 116.236 73.7891H111.002C110.859 72.7995 110.572 71.9336 110.142 71.1914C109.713 70.4362 109.101 69.8503 108.307 69.4336C107.525 69.0039 106.51 68.7891 105.26 68.7891C104.205 68.7891 103.274 68.9974 102.467 69.4141C101.659 69.8307 100.982 70.4362 100.435 71.2305C99.8886 72.0247 99.4719 73.0078 99.1854 74.1797C98.912 75.3516 98.7753 76.6927 98.7753 78.2031V80.1172C98.7753 81.6406 98.9315 82.9948 99.244 84.1797C99.5565 85.3516 100.006 86.3411 100.592 87.1484C101.191 87.9427 101.926 88.5482 102.799 88.9648C103.684 89.3685 104.687 89.5703 105.807 89.5703C106.822 89.5703 107.662 89.4857 108.326 89.3164C109.003 89.1341 109.544 88.9193 109.947 88.6719C110.351 88.4245 110.663 88.1836 110.885 87.9492V82.6172H105.24V78.6914H116.256Z" fill="#D7DAE3"/>
</svg>
