<svg width="321" height="161" viewBox="0 0 321 161" fill="none" xmlns="http://www.w3.org/2000/svg">
<rect x="0.5" y="0.5" width="320" height="159.5" rx="4.5" fill="#EFF0F4" stroke="#DFE1E8"/>
<g clip-path="url(#clip0_13610_34675)">
<path d="M160.852 101.796C153.957 101.796 147.062 101.808 140.168 101.79C137.115 101.784 134.806 99.8698 134.147 96.8451C134.057 96.4325 134.039 95.9926 134.039 95.5679C134.033 85.532 134.03 75.4992 134.036 65.4634C134.039 61.926 136.617 59.2472 140.093 59.2441C153.934 59.2259 167.771 59.2259 181.612 59.2441C185.135 59.2472 187.704 61.9169 187.707 65.5059C187.713 75.5144 187.713 85.5229 187.707 95.5315C187.707 99.1204 185.135 101.781 181.612 101.793C174.693 101.814 167.771 101.799 160.852 101.799V101.796ZM160.867 98.6714C166.918 98.6714 172.968 98.6714 179.019 98.6714C179.836 98.6714 180.657 98.6957 181.474 98.6623C183.602 98.5774 184.64 97.464 184.64 95.3009C184.64 92.5462 184.64 89.7915 184.64 87.0368C184.64 79.8588 184.64 72.6808 184.64 65.5059C184.64 63.807 183.736 62.6996 182.143 62.4539C181.68 62.3811 181.206 62.3598 180.737 62.3598C167.494 62.3538 154.253 62.3568 141.009 62.3568C140.737 62.3568 140.463 62.3477 140.191 62.3659C138.109 62.4933 137.101 63.5885 137.101 65.7274C137.101 68.4821 137.101 71.2367 137.101 73.9914C137.101 81.1694 137.101 88.3474 137.101 95.5224C137.101 97.2213 138.005 98.3256 139.598 98.5744C140.036 98.6441 140.484 98.6684 140.928 98.6684C147.576 98.6745 154.22 98.6714 160.867 98.6714Z" fill="#D7DAE3"/>
<path d="M172.774 71.3724C174.731 71.3724 176.685 71.3573 178.642 71.3785C179.678 71.3906 180.268 71.9944 180.262 72.9439C180.256 73.8935 179.666 74.476 178.615 74.4851C176.411 74.5033 174.209 74.4942 172.004 74.4942C170.294 74.4942 168.588 74.5124 166.878 74.4821C165.795 74.4639 165.154 73.6781 165.312 72.6527C165.437 71.8427 166.01 71.3815 166.98 71.3755C168.91 71.3603 170.843 71.3724 172.774 71.3755V71.3724Z" fill="#D7DAE3"/>
<path d="M172.807 77.4401C174.737 77.4401 176.67 77.428 178.601 77.4462C179.702 77.4553 180.322 78.1106 180.26 79.1209C180.206 79.9946 179.63 80.5346 178.66 80.5528C177.348 80.5771 176.035 80.5619 174.725 80.5619C172.174 80.5619 169.623 80.5559 167.075 80.5619C166.324 80.5619 165.7 80.3617 165.399 79.582C164.978 78.4868 165.7 77.4614 166.941 77.4462C168.895 77.4219 170.853 77.4401 172.81 77.4401H172.807Z" fill="#D7DAE3"/>
<path d="M172.724 86.6218C170.793 86.6218 168.86 86.637 166.93 86.6158C165.889 86.6036 165.298 86.012 165.298 85.0625C165.298 84.1129 165.889 83.5213 166.933 83.5092C168.839 83.4879 170.746 83.5001 172.652 83.5001C174.633 83.5001 176.614 83.4879 178.595 83.5061C179.675 83.5152 180.284 84.122 180.263 85.0989C180.245 86.0394 179.646 86.6067 178.592 86.6158C176.635 86.634 174.681 86.6218 172.724 86.6188V86.6218Z" fill="#D7DAE3"/>
<path d="M157.722 80.2749C157.722 80.0261 157.716 79.7379 157.662 79.4436C157.295 77.4838 156.311 75.9517 154.735 74.8869C154.744 73.2031 154.744 71.7954 154.735 70.4818C155.407 70.3726 155.857 69.8386 155.857 69.1226C155.857 68.3278 155.308 67.7726 154.497 67.7423C154.228 67.7332 153.96 67.7332 153.691 67.7362H153.393H152.011C150.63 67.7362 149.249 67.7362 147.867 67.7392C147.017 67.7392 146.447 68.261 146.414 69.062C146.399 69.4594 146.516 69.8083 146.751 70.0662C146.895 70.2239 147.136 70.4059 147.533 70.4757C147.527 71.9987 147.524 73.3821 147.539 74.7837C147.539 74.8474 147.53 74.8687 147.53 74.8687C147.53 74.8687 147.515 74.896 147.429 74.9597C145.522 76.3583 144.553 78.221 144.547 80.4964C144.547 81.5006 144.547 82.5047 144.547 83.5059V84.862V86.3425C144.547 87.4043 144.547 88.4692 144.547 89.531C144.553 91.6941 146.098 93.2717 148.222 93.2838C149.189 93.2899 150.162 93.293 151.137 93.293C152.113 93.293 153.085 93.293 154.052 93.2838C156.179 93.2717 157.725 91.6941 157.728 89.531C157.731 86.4426 157.728 83.3572 157.728 80.2688L157.722 80.2749ZM154.992 86.3941V89.4461C154.992 90.3077 154.616 90.4897 154.055 90.5019C152.17 90.5383 150.206 90.5383 148.222 90.5019C147.652 90.4928 147.277 90.3107 147.277 89.4582V87.2314C147.277 85.0289 147.274 82.8233 147.277 80.6208C147.283 79.119 147.864 78.0117 149.061 77.2381C149.893 76.7011 150.287 75.9517 150.269 74.9506C150.254 74.0859 150.254 73.2001 150.257 72.3445C150.257 71.7347 150.26 71.1249 150.257 70.5152C150.824 70.5303 151.415 70.5303 152.014 70.5152C152.011 71.1856 152.011 71.8531 152.014 72.5235C152.014 73.37 152.014 74.2134 152.008 75.0568C151.999 75.9821 152.372 76.692 153.115 77.1653C154.395 77.9813 155.01 79.1524 155.001 80.7542C154.995 81.7372 154.995 82.7201 154.998 83.7031V86.3941H154.992Z" fill="#D7DAE3"/>
</g>
<defs>
<clipPath id="clip0_13610_34675">
<rect x="134.033" y="59.2305" width="53.6795" height="42.5734" rx="5" fill="white"/>
</clipPath>
</defs>
</svg>
