<svg width="15" height="15" viewBox="0 0 15 15" fill="none" xmlns="http://www.w3.org/2000/svg">
<g clip-path="url(#clip0_20459_34184)">
<path d="M8.87424 7.5122L14.7149 1.67132C15.095 1.29139 15.095 0.677106 14.7149 0.297181C14.335 -0.0827437 13.7207 -0.0827437 13.3408 0.297181L7.49992 6.13806L1.65922 0.297181C1.27911 -0.0827437 0.665003 -0.0827437 0.285078 0.297181C-0.0950258 0.677106 -0.0950258 1.29139 0.285078 1.67132L6.12579 7.5122L0.285078 13.3531C-0.0950258 13.733 -0.0950258 14.3473 0.285078 14.7272C0.474417 14.9167 0.723371 15.0119 0.972146 15.0119C1.22092 15.0119 1.4697 14.9167 1.65922 14.7272L7.49992 8.88633L13.3408 14.7272C13.5303 14.9167 13.7791 15.0119 14.0279 15.0119C14.2767 15.0119 14.5254 14.9167 14.7149 14.7272C15.095 14.3473 15.095 13.733 14.7149 13.3531L8.87424 7.5122Z" fill="#9899AA"/>
</g>
<defs>
<clipPath id="clip0_20459_34184">
<rect width="15" height="15" fill="white"/>
</clipPath>
</defs>
</svg>
