<svg width="20" height="20" viewBox="0 0 20 20" fill="none" xmlns="http://www.w3.org/2000/svg">
<g clip-path="url(#clip0_17086_31858)">
<path d="M10.0187 0C12.4891 0 14.947 0 17.4173 0C18.7024 0 19.6631 0.77355 19.9626 2.02121C20 2.19588 20.0125 2.37056 20.0125 2.54523C20.0125 6.26326 20.0125 9.98129 20.0125 13.7118C20.0125 15.1466 18.927 16.2445 17.4922 16.257C15.8079 16.2695 14.1235 16.257 12.4392 16.257C12.2021 16.257 12.0274 16.3194 11.8403 16.4566C10.4055 17.5546 8.9582 18.6401 7.51092 19.7255C7.4111 19.8004 7.31129 19.8752 7.199 19.9251C6.73737 20.1372 6.26326 19.8378 6.25078 19.3387C6.25078 18.4279 6.25078 17.5047 6.25078 16.5939C6.25078 16.3444 6.17592 16.2445 5.91391 16.257C4.82845 16.257 3.75546 16.257 2.66999 16.257C1.06051 16.257 0 15.1965 0 13.5995C0 9.95633 0 6.30069 0 2.65752C0 1.06051 1.06051 0 2.66999 0C5.12789 0 7.5733 0 10.0312 0H10.0187ZM9.99376 1.28509C8.1597 1.28509 6.31316 1.28509 4.4791 1.28509C3.86775 1.28509 3.25639 1.28509 2.64504 1.28509C1.78415 1.31004 1.29757 1.77168 1.29757 2.54523C1.29757 6.26326 1.29757 9.99376 1.29757 13.7118C1.29757 13.9364 1.35995 14.136 1.45976 14.3356C1.73425 14.8596 2.20836 14.9595 2.7199 14.9595C3.88022 14.9595 5.05303 14.9595 6.21335 14.9595C7.04928 14.9595 7.53587 15.446 7.53587 16.2695C7.53587 16.6937 7.53587 17.1179 7.53587 17.5421C7.53587 17.6669 7.46101 17.8665 7.5733 17.9164C7.71054 17.9913 7.82283 17.8041 7.92265 17.7168C8.98316 16.9183 10.0561 16.1198 11.1042 15.3088C11.441 15.0468 11.8029 14.922 12.2271 14.9345C13.8615 14.9345 15.4959 14.9345 17.1179 14.9345C17.2926 14.9345 17.4672 14.9345 17.6419 14.8971C18.3032 14.7973 18.69 14.3481 18.7024 13.6744C18.7024 9.95633 18.7024 6.22583 18.7024 2.5078C18.7024 2.25827 18.64 2.03369 18.5153 1.82158C18.2283 1.31004 17.7417 1.23518 17.2177 1.23518C14.8097 1.23518 12.3893 1.23518 9.98129 1.23518L9.99376 1.28509Z" fill="#8a8c91"/>
<path d="M10.0325 5.61404C11.4423 5.61404 12.8522 5.61404 14.2745 5.61404C14.7611 5.61404 15.0106 5.85109 15.0106 6.26282C15.0106 6.59969 14.7985 6.83675 14.4742 6.88665C14.3868 6.88665 14.312 6.88665 14.2246 6.88665C11.4049 6.88665 8.59767 6.88665 5.77796 6.88665C5.31632 6.88665 5.06679 6.72446 5.00441 6.37511C4.92955 5.93843 5.20404 5.61404 5.67815 5.60156C6.57646 5.60156 7.4623 5.60156 8.36062 5.60156C8.92206 5.60156 9.48351 5.60156 10.045 5.60156L10.0325 5.61404Z" fill="#8a8c91"/>
<path d="M8.12154 10.6427C7.31056 10.6427 6.49959 10.6427 5.68861 10.6427C5.22697 10.6427 4.96496 10.3682 4.98992 9.95652C5.01487 9.5947 5.25192 9.37012 5.66365 9.37012C6.21262 9.37012 6.76159 9.37012 7.31056 9.37012C8.38355 9.37012 9.44406 9.37012 10.5171 9.37012C10.829 9.37012 11.091 9.45745 11.2157 9.76937C11.3904 10.2185 11.091 10.6427 10.567 10.6427C9.7435 10.6427 8.93252 10.6427 8.10907 10.6427H8.12154Z" fill="#8a8c91"/>
</g>
<defs>
<clipPath id="clip0_17086_31858">
<rect width="20" height="20" fill="#8a8c91"/>
</clipPath>
</defs>
</svg>
