<svg width="12" height="14" viewBox="0 0 12 14" fill="none" xmlns="http://www.w3.org/2000/svg">
<path d="M10.1766 2.07192C8.7047 0.600049 6.30783 0.600049 4.83751 2.07192L0.75939 6.14692C0.732827 6.17349 0.718764 6.20942 0.718764 6.24692C0.718764 6.28442 0.732827 6.32036 0.75939 6.34692L1.33595 6.92349C1.36231 6.94973 1.39798 6.96446 1.43517 6.96446C1.47236 6.96446 1.50804 6.94973 1.53439 6.92349L5.61251 2.84849C6.11876 2.34224 6.7922 2.06411 7.50783 2.06411C8.22345 2.06411 8.89689 2.34224 9.40158 2.84849C9.90783 3.35474 10.186 4.02817 10.186 4.74224C10.186 5.45786 9.90783 6.12974 9.40158 6.63599L5.24533 10.7907L4.57189 11.4641C3.9422 12.0938 2.91876 12.0938 2.28908 11.4641C1.98439 11.1594 1.8172 10.7547 1.8172 10.3235C1.8172 9.89224 1.98439 9.48755 2.28908 9.18286L6.41251 5.06099C6.5172 4.95786 6.6547 4.90005 6.80158 4.90005H6.80314C6.95001 4.90005 7.08595 4.95786 7.18908 5.06099C7.29376 5.16567 7.35001 5.30317 7.35001 5.45005C7.35001 5.59536 7.2922 5.73286 7.18908 5.83599L3.81876 9.20317C3.7922 9.22974 3.77814 9.26567 3.77814 9.30317C3.77814 9.34067 3.7922 9.37661 3.81876 9.40317L4.39533 9.97974C4.42168 10.006 4.45736 10.0207 4.49455 10.0207C4.53173 10.0207 4.56741 10.006 4.59376 9.97974L7.96251 6.61099C8.27345 6.30005 8.44376 5.88755 8.44376 5.44849C8.44376 5.00942 8.27189 4.59536 7.96251 4.28599C7.32033 3.6438 6.27658 3.64536 5.63439 4.28599L5.23439 4.68755L1.51251 8.40786C1.25991 8.65899 1.05967 8.95777 0.923413 9.28687C0.787158 9.61597 0.717597 9.96885 0.718764 10.325C0.718764 11.0485 1.00158 11.7282 1.51251 12.2391C2.0422 12.7672 2.73595 13.0313 3.4297 13.0313C4.12345 13.0313 4.8172 12.7672 5.34533 12.2391L10.1766 7.41099C10.8875 6.69849 11.2813 5.75005 11.2813 4.74224C11.2828 3.73286 10.8891 2.78442 10.1766 2.07192Z" fill="white"/>
</svg>
