<svg width="25" height="20" viewBox="0 0 25 20" fill="none" xmlns="http://www.w3.org/2000/svg">
<g clip-path="url(#clip0_667_4567)">
<path d="M8.73574 19.9968C6.31205 19.9968 3.8894 19.9989 1.46571 19.9958C0.510823 19.9947 -0.0385469 19.4257 0.00210862 18.471C0.0167029 18.125 0.0521461 17.7769 0.119905 17.4371C0.685955 14.594 2.7083 12.5669 5.54793 12.0093C5.98785 11.9228 6.44444 11.8895 6.89373 11.8832C8.12695 11.8665 9.36017 11.8655 10.5934 11.8801C12.965 11.9072 14.8768 12.8514 16.2726 14.7868C17.1129 15.953 17.4694 17.2777 17.4954 18.6993C17.5059 19.286 17.0472 19.8342 16.4717 19.9489C16.2945 19.9843 16.11 19.9937 15.9286 19.9937C13.531 19.9968 11.1344 19.9958 8.73678 19.9958L8.73574 19.9968ZM8.7274 18.7597C10.3338 18.7597 11.9402 18.7597 13.5477 18.7597C14.3639 18.7597 15.1802 18.7545 15.9964 18.7628C16.2028 18.7649 16.2872 18.694 16.258 18.4898C16.2038 18.1125 16.1788 17.729 16.0944 17.359C15.5627 15.0276 13.7218 13.3871 11.4555 13.1995C9.72294 13.0557 7.96433 13.0755 6.22657 13.1797C3.60377 13.3371 1.44381 15.3725 1.23741 18.3762C1.21135 18.7587 1.21969 18.7597 1.61478 18.7597C3.9853 18.7597 6.35687 18.7597 8.7274 18.7597Z" fill="#363740"/>
<path d="M13.7434 4.99838C13.6986 7.79984 11.6283 9.98118 8.7376 9.97493C5.82187 9.96868 3.75157 7.75815 3.75783 4.98066C3.76304 2.1792 5.86357 0.0134885 8.75532 -6.02372e-05C11.5626 -0.013609 13.7476 2.20109 13.7434 4.99838ZM12.5061 5.00567C12.5113 2.89937 10.8444 1.22662 8.74281 1.22975C6.65792 1.23287 4.99521 2.88373 4.98583 4.95982C4.97645 7.07029 6.62977 8.73991 8.73656 8.74825C10.8267 8.75659 12.5019 7.09426 12.5071 5.00567H12.5061Z" fill="#363740"/>
<path d="M21.4145 19.9969C20.763 19.9969 20.1115 20.0021 19.4599 19.9948C19.2004 19.9917 18.9596 19.9281 18.8324 19.6592C18.7208 19.4227 18.748 19.2028 18.897 18.9964C19.0534 18.7807 19.2921 18.7629 19.5287 18.7619C20.7359 18.7588 21.9441 18.7619 23.1513 18.7609C23.635 18.7609 23.7757 18.616 23.7653 18.1397C23.7131 15.9094 21.9264 13.9729 19.7216 13.7916C19.0305 13.7353 18.3331 13.7572 17.6388 13.7416C17.3615 13.7353 17.0998 13.6968 16.957 13.407C16.7746 13.036 16.9602 12.6347 17.3636 12.5389C17.422 12.5253 17.4835 12.5055 17.5418 12.5076C18.3914 12.5347 19.2504 12.4972 20.0885 12.6077C22.4622 12.9193 24.3438 14.7098 24.8452 17.0652C24.9245 17.4372 24.9797 17.8187 24.9953 18.1991C25.0423 19.2799 24.373 19.9771 23.2889 19.9959C22.6634 20.0063 22.0379 19.998 21.4125 19.998L21.4145 19.9969Z" fill="#363740"/>
<path d="M21.2507 5.5612C21.2486 7.73941 19.7318 9.55077 17.6188 9.91867C16.6243 10.0917 15.6663 9.93014 14.7656 9.46323C14.5467 9.34963 14.3882 9.18496 14.383 8.91815C14.3778 8.66281 14.4758 8.46167 14.702 8.33347C14.9386 8.19903 15.1638 8.2501 15.3921 8.36995C16.3407 8.86708 17.2998 8.86292 18.2724 8.4304C19.8861 7.71232 20.5501 5.53201 19.515 3.89679C18.778 2.7316 17.2914 2.20945 15.9561 2.6305C15.7142 2.70658 15.4786 2.74306 15.2649 2.57005C15.0773 2.41893 14.9803 2.22091 15.0231 1.97391C15.0721 1.69356 15.2639 1.52576 15.5182 1.45698C17.1194 1.02237 18.5778 1.26521 19.8319 2.40643C20.7774 3.26625 21.2236 4.35223 21.2507 5.56224V5.5612Z" fill="#363740"/>
</g>
<defs>
<clipPath id="clip0_667_4567">
<rect width="25" height="20" fill="white"/>
</clipPath>
</defs>
</svg>
