<svg width="20" height="17" viewBox="0 0 20 17" fill="none" xmlns="http://www.w3.org/2000/svg">
<path d="M17.1132 9.16H15.5664C15.7241 9.59167 15.8102 10.0575 15.8102 10.5431V16.3892C15.8102 16.5916 15.775 16.786 15.7109 16.9667H18.2681C19.2234 16.9667 20.0005 16.1895 20.0005 15.2343V12.0473C20.0006 10.4553 18.7053 9.16 17.1132 9.16Z" fill="#CDD6E1"/>
<path d="M4.19035 10.5431C4.19035 10.0575 4.27649 9.59167 4.43416 9.16H2.88732C1.29525 9.16 0 10.4552 0 12.0473V15.2343C0 16.1895 0.777128 16.9667 1.73239 16.9667H4.28969C4.22559 16.7859 4.19035 16.5916 4.19035 16.3892V10.5431Z" fill="#CDD6E1"/>
<path d="M11.7713 7.65531H8.23498C6.64291 7.65531 5.34766 8.95056 5.34766 10.5426V16.3888C5.34766 16.7077 5.60619 16.9662 5.92512 16.9662H14.0811C14.4 16.9662 14.6586 16.7077 14.6586 16.3888V10.5426C14.6586 8.95056 13.3633 7.65531 11.7713 7.65531Z" fill="#CDD6E1"/>
<path d="M9.99971 0C8.08504 0 6.52734 1.55769 6.52734 3.47241C6.52734 4.77114 7.24416 5.9054 8.30275 6.50091C8.80486 6.78336 9.38373 6.94477 9.99971 6.94477C10.6157 6.94477 11.1946 6.78336 11.6967 6.50091C12.7553 5.9054 13.4721 4.7711 13.4721 3.47241C13.4721 1.55773 11.9144 0 9.99971 0Z" fill="#CDD6E1"/>
<path d="M3.89765 3.23671C2.46571 3.23671 1.30078 4.40164 1.30078 5.83358C1.30078 7.26552 2.46571 8.43046 3.89765 8.43046C4.26088 8.43046 4.60677 8.35522 4.92097 8.21997C5.46422 7.98609 5.91214 7.57207 6.18931 7.05348C6.38385 6.68951 6.49453 6.27428 6.49453 5.83358C6.49453 4.40168 5.3296 3.23671 3.89765 3.23671Z" fill="#CDD6E1"/>
<path d="M16.0969 3.23657C14.6649 3.23657 13.5 4.4015 13.5 5.83344C13.5 6.27417 13.6107 6.6894 13.8052 7.05333C14.0824 7.57197 14.5303 7.98598 15.0736 8.21983C15.3878 8.35507 15.7336 8.43031 16.0969 8.43031C17.5288 8.43031 18.6937 7.26538 18.6937 5.83344C18.6937 4.4015 17.5288 3.23657 16.0969 3.23657Z" fill="#CDD6E1"/>
</svg>
