<svg width="47" height="45" viewBox="0 0 47 45" fill="none" xmlns="http://www.w3.org/2000/svg">
<ellipse cx="23.1605" cy="22.5" rx="22.93" ry="22.5" fill="#EFF4FF"/>
<g clip-path="url(#clip0_0_1)">
<path d="M12.0001 22.5058C11.9254 16.479 16.8645 10.9943 23.5037 11C30.1429 11.0058 35.0533 16.5193 34.9987 22.6021C34.9455 28.567 30.0998 34.0058 23.4793 34C16.853 33.9943 11.9311 28.5181 12.0001 22.5058ZM33.507 22.5216C33.4653 17.2237 29.3784 12.5153 23.4965 12.511C17.6621 12.5067 13.5219 17.1504 13.4903 22.4425C13.4587 27.7619 17.6003 32.4833 23.4893 32.4876C29.3309 32.4919 33.4409 27.8324 33.5084 22.5216H33.507Z" fill="#22326B"/>
<path d="M28.529 19.6443C28.529 19.8787 28.4054 20.0555 28.2517 20.2093C26.3792 22.0869 24.5067 23.9645 22.6256 25.835C22.2448 26.2131 21.874 26.2116 21.4918 25.835C20.562 24.9235 19.6423 24.0005 18.7298 23.0732C18.3719 22.7094 18.3662 22.3083 18.6752 21.9949C18.9899 21.6743 19.4023 21.6858 19.7817 22.0539C20.4514 22.7008 21.121 23.3506 21.7663 24.022C22.0048 24.2708 22.137 24.2348 22.3598 24.0105C23.9175 22.4435 25.4882 20.8879 27.056 19.3309C27.1739 19.213 27.2975 19.0966 27.4354 19.006C27.6639 18.855 27.9125 18.8565 28.1468 19.0002C28.3853 19.1454 28.5276 19.3568 28.5305 19.6457L28.529 19.6443Z" fill="#22326B"/>
</g>
<defs>
<clipPath id="clip0_0_1">
<rect width="23" height="23" fill="white" transform="translate(12 11)"/>
</clipPath>
</defs>
</svg>
