<svg width="22" height="22" viewBox="0 0 22 22" fill="none" xmlns="http://www.w3.org/2000/svg">
<path d="M12.5811 10.6259L20.858 2.35263C21.3956 1.81524 21.3956 0.940426 20.858 0.40304C20.3204 -0.134347 19.4452 -0.134347 18.9075 0.40304L10.6306 8.6763L2.35367 0.40304C1.81605 -0.134347 0.940845 -0.134347 0.403219 0.40304C-0.134406 0.940426 -0.134406 1.81524 0.403219 2.35263L8.68015 10.6259L0.403219 18.8991C-0.134406 19.4365 -0.134406 20.3113 0.403219 20.8487C0.665781 21.1112 1.02836 21.2486 1.37845 21.2486C1.72853 21.2486 2.07861 21.1112 2.35367 20.8487L10.6306 12.5755L18.9075 20.8487C19.1701 21.1112 19.5327 21.2486 19.8828 21.2486C20.2328 21.2486 20.5829 21.1112 20.858 20.8487C21.3956 20.3113 21.3956 19.4365 20.858 18.8991L12.5811 10.6259Z" fill="#898989"/>
</svg>
