<svg width="14" height="26" viewBox="0 0 14 26" fill="none" xmlns="http://www.w3.org/2000/svg">
<path d="M6.62128 21.9028C8.89955 21.9028 10.7465 20.0613 10.7465 17.7896C10.7465 15.5178 8.89955 13.6763 6.62128 13.6763C4.343 13.6763 2.49609 15.5178 2.49609 17.7896C2.49609 20.0613 4.343 21.9028 6.62128 21.9028Z" fill="#ED4E29"/>
<path d="M6.62078 13.4224C4.14567 13.4224 2.12891 15.4282 2.12891 17.9013C2.12891 20.3743 4.14058 22.3802 6.62078 22.3802C9.09589 22.3802 11.1126 20.3743 11.1126 17.9013C11.1126 15.4282 9.09589 13.4224 6.62078 13.4224ZM6.62078 21.6134C4.56837 21.6134 2.89283 19.9478 2.89283 17.8962C2.89283 15.8446 4.56328 14.179 6.62078 14.179C8.67319 14.179 10.3487 15.8446 10.3487 17.8962C10.3487 19.9478 8.67319 21.6134 6.62078 21.6134Z" fill="black"/>
<path d="M8.53434 15.9869C8.38665 15.8396 8.14219 15.8396 7.9945 15.9869L6.61943 17.358L5.24437 15.9869C5.09667 15.8396 4.85221 15.8396 4.70452 15.9869C4.55683 16.1342 4.55683 16.3779 4.70452 16.5252L6.07959 17.8963L4.70452 19.2674C4.55683 19.4147 4.55683 19.6584 4.70452 19.8057C4.78091 19.8818 4.87768 19.9174 4.97444 19.9174C5.07121 19.9174 5.16797 19.8818 5.24437 19.8057L6.61943 18.4346L7.9945 19.8057C8.07089 19.8818 8.16765 19.9174 8.26442 19.9174C8.36118 19.9174 8.45795 19.8818 8.53434 19.8057C8.68203 19.6584 8.68203 19.4147 8.53434 19.2674L7.15927 17.8963L8.53434 16.5252C8.68203 16.3779 8.68203 16.1342 8.53434 15.9869Z" fill="black"/>
<path d="M9.12852 7.9125C9.12852 6.53633 8.00301 5.41406 6.62286 5.41406C5.2427 5.41406 4.11719 6.53633 4.11719 7.9125C4.11719 9.28868 5.2427 10.4109 6.62286 10.4109C8.00301 10.4109 9.12852 9.28868 9.12852 7.9125ZM4.88111 7.9125C4.88111 6.95274 5.66032 6.17578 6.62286 6.17578C7.5854 6.17578 8.3646 6.95274 8.3646 7.9125C8.3646 8.87227 7.5854 9.64922 6.62286 9.64922C5.66032 9.64922 4.88111 8.86719 4.88111 7.9125Z" fill="black"/>
<path d="M3.01971 8.86714C2.96369 8.66401 2.75489 8.54214 2.55118 8.598C2.34746 8.65386 2.22523 8.86206 2.28125 9.06519C2.80582 11.0203 4.58831 12.3863 6.62035 12.3863C9.09546 12.3863 11.1122 10.3804 11.1122 7.90737C11.1122 5.43433 9.10056 3.42847 6.62035 3.42847C4.33367 3.42847 2.41876 5.13472 2.15902 7.39448C2.13356 7.60269 2.28635 7.79058 2.49516 7.81597C2.70396 7.84136 2.89239 7.68901 2.91786 7.48081C3.13176 5.60698 4.72072 4.19019 6.62035 4.19019C8.67276 4.19019 10.3483 5.85581 10.3483 7.90737C10.3483 9.95894 8.67785 11.6246 6.62035 11.6246C4.92953 11.6246 3.4526 10.4921 3.01971 8.86714Z" fill="black"/>
<path d="M12.8594 7.06445C13.0682 7.06445 13.2413 6.89179 13.2413 6.68359V3.5707C13.2413 2.66172 12.4978 1.92031 11.5862 1.92031H11.1023V1.49375C11.1023 0.671093 10.4301 0.00585938 9.61015 0.00585938H4.78215C4.57335 0.00585938 4.40019 0.178516 4.40019 0.386719C4.40019 0.594922 4.57335 0.767578 4.78215 0.767578H9.61015C10.0125 0.767578 10.3384 1.09258 10.3384 1.49375V1.92031H2.90291V1.49375C2.90291 1.09258 3.22884 0.767578 3.63118 0.767578H5.26088C5.46969 0.767578 5.64284 0.594922 5.64284 0.386719C5.64284 0.178516 5.46969 0.00585938 5.26088 0.00585938H3.63118C2.80614 0.00585938 2.13898 0.676171 2.13898 1.49375V1.92031H1.65517C0.743552 1.92031 0 2.66172 0 3.5707V22.4359C0 23.3449 0.743552 24.0863 1.65517 24.0863H2.13898V25.6199C2.13898 25.8281 2.31214 26.0008 2.52095 26.0008H10.7204C10.9292 26.0008 11.1023 25.8281 11.1023 25.6199V24.0863H11.5862C12.4978 24.0863 13.2413 23.3449 13.2413 22.4359V5.38867C13.2413 5.18047 13.0682 5.00781 12.8594 5.00781C12.6506 5.00781 12.4774 5.18047 12.4774 5.38867V22.4359C12.4774 22.9285 12.0751 23.3246 11.5862 23.3246C11.0463 23.3246 2.09315 23.3246 1.65517 23.3246C1.16116 23.3246 0.763923 22.9234 0.763923 22.4359V3.5707C0.763923 3.07812 1.16626 2.68203 1.65517 2.68203H11.5862C12.0802 2.68203 12.4774 3.0832 12.4774 3.5707V6.68359C12.4774 6.89687 12.6506 7.06445 12.8594 7.06445ZM10.3384 25.239H2.90291V24.0863H10.3384V25.239Z" fill="black"/>
</svg>
