<svg width="18" height="18" viewBox="0 0 18 18" fill="none" xmlns="http://www.w3.org/2000/svg">
<path d="M10.5784 8.94389L10.5077 9.0146L10.5784 9.08531L17.5872 16.0944L17.5872 16.0944C18.0043 16.5112 18.0043 17.185 17.5872 17.6019L17.5872 17.6019C17.3793 17.8099 17.1065 17.9143 16.8335 17.9143C16.5604 17.9143 16.2876 17.8099 16.0797 17.6019L9.07062 10.5929L8.99991 10.5221L8.92919 10.5929L1.92035 17.6019C1.71239 17.8099 1.43961 17.9143 1.16658 17.9143C0.893511 17.9143 0.620544 17.8098 0.412837 17.6019L0.412787 17.6019C-0.00426234 17.185 -0.00426234 16.5112 0.412787 16.0944L0.412805 16.0944L7.42165 9.08531L7.49236 9.0146L7.42165 8.94389L0.412805 1.93483L0.412787 1.93482C-0.00426235 1.51796 -0.00426235 0.844162 0.412787 0.427308L0.412804 0.427292C0.829647 0.0104491 1.50326 0.0104194 1.92035 0.427291C1.92035 0.427296 1.92036 0.427302 1.92036 0.427308L8.92919 7.43635L8.99991 7.50706L9.07062 7.43635L16.0797 0.427292C16.4965 0.0104341 17.1704 0.0104339 17.5872 0.427292L17.5872 0.427308C18.0043 0.844162 18.0043 1.51796 17.5872 1.93482L17.5872 1.93483L10.5784 8.94389Z" fill="#9899AA" stroke="white" stroke-width="0.2"/>
</svg>
