<svg width="14" height="14" viewBox="0 0 14 14" fill="none" xmlns="http://www.w3.org/2000/svg">
<g id=".DISCONTINUED / file / cloud_down" clip-path="url(#clip0_16302_42453)">
<path id="Vector" d="M11.0831 11.6664H3.49979C1.6765 11.6675 0.157809 10.2687 0.00933317 8.45142C-0.139143 6.6342 1.13234 5.00739 2.93162 4.71249C3.75979 3.24417 5.31402 2.33512 6.99979 2.33304C8.05096 2.32907 9.07205 2.68383 9.89429 3.33874C10.7017 3.97916 11.2757 4.86764 11.5276 5.86691C13.0349 6.09851 14.1093 7.45213 13.9928 8.97263C13.8763 10.4931 12.6081 11.6672 11.0831 11.6664ZM6.99979 3.49974C5.73495 3.50123 4.56885 4.18347 3.94779 5.28532L3.67479 5.77474L3.1212 5.86516C1.92554 6.06548 1.08246 7.14808 1.18116 8.35639C1.27987 9.5647 2.28746 10.4961 3.49979 10.4997H11.0831C11.9981 10.5007 12.7594 9.79659 12.8297 8.8843C12.9001 7.972 12.2558 7.15952 11.3515 7.02016L10.5838 6.90349L10.396 6.14982C10.0082 4.59046 8.60664 3.4968 6.99979 3.49974ZM6.99979 9.33307L4.66645 6.99974H6.15395V5.24974H7.84562V6.99974H9.33312L6.99979 9.33307Z" fill="white"/>
</g>
<defs>
<clipPath id="clip0_16302_42453">
<rect width="14" height="14" fill="white"/>
</clipPath>
</defs>
</svg>
