<svg width="15" height="15" viewBox="0 0 15 15" fill="none" xmlns="http://www.w3.org/2000/svg">
<path d="M0.375 14.625V1.95833C0.375 1.08388 1.08388 0.375 1.95833 0.375H13.0417C13.9161 0.375 14.625 1.08388 14.625 1.95833V9.875C14.625 10.7495 13.9161 11.4583 13.0417 11.4583H5.125C4.78231 11.4577 4.44877 11.5689 4.175 11.775L0.375 14.625ZM1.95833 1.95833V11.4583L3.64775 10.1917C3.92139 9.98529 4.25502 9.87408 4.59775 9.875H13.0417V1.95833H1.95833ZM6.70833 8.73579L3.77363 5.80029L4.89304 4.68167L6.70833 6.49696L10.107 3.09833L11.2264 4.21775L6.70833 8.735V8.73579Z" fill="black"/>
</svg>
