<svg width="24" height="24" viewBox="0 0 24 24" fill="none" xmlns="http://www.w3.org/2000/svg">
<path d="M12.0651 7.33337C9.4651 7.33337 7.39844 9.40004 7.39844 12C7.39844 14.6 9.4651 16.6667 12.0651 16.6667C14.6651 16.6667 16.7318 14.6 16.7318 12C16.7318 9.40004 14.6651 7.33337 12.0651 7.33337ZM12.0651 15.3334C10.1984 15.3334 8.73177 13.8667 8.73177 12C8.73177 10.1334 10.1984 8.66671 12.0651 8.66671C13.9318 8.66671 15.3984 10.1334 15.3984 12C15.3984 13.8667 13.9318 15.3334 12.0651 15.3334Z" fill="black"/>
<path d="M21.8654 9.80004L19.9987 9.20004L19.5987 8.20004L20.532 6.46671C20.732 6.06671 20.6654 5.53337 20.332 5.20004L18.732 3.60004C18.3987 3.26671 17.8654 3.20004 17.4654 3.40004L15.732 4.33337L14.732 3.93337L14.132 2.06671C13.9987 1.66671 13.5987 1.33337 13.132 1.33337H10.8654C10.3987 1.33337 9.9987 1.66671 9.93203 2.13337L9.33203 4.00004C8.93203 4.06671 8.5987 4.20004 8.26536 4.40004L6.53203 3.46671C6.13203 3.26671 5.5987 3.33337 5.26536 3.66671L3.66536 5.26671C3.33203 5.60004 3.26536 6.13337 3.46536 6.53337L4.33203 8.20004C4.1987 8.53337 4.06536 8.93337 3.93203 9.26671L2.06536 9.86671C1.66536 10 1.33203 10.4 1.33203 10.8667V13.1334C1.33203 13.6 1.66536 14 2.13203 14.1334L3.9987 14.7334L4.3987 15.7334L3.46536 17.4667C3.26536 17.8667 3.33203 18.4 3.66536 18.7334L5.26536 20.3334C5.5987 20.6667 6.13203 20.7334 6.53203 20.5334L8.26536 19.6L9.26536 20L9.86536 21.9334C9.9987 22.3334 10.3987 22.6667 10.8654 22.6667H13.132C13.5987 22.6667 13.9987 22.3334 14.132 21.9334L14.732 20L15.732 19.6L17.4654 20.5334C17.8654 20.7334 18.3987 20.6667 18.732 20.3334L20.332 18.7334C20.6654 18.4 20.732 17.8667 20.532 17.4667L19.5987 15.7334L19.9987 14.7334L21.932 14.1334C22.332 14 22.6654 13.6 22.6654 13.1334V10.8667C22.6654 10.4 22.332 9.93337 21.8654 9.80004ZM21.332 12.9334L18.932 13.6667L18.8654 14L18.2654 15.4L18.0654 15.7334L19.2654 17.9334L17.932 19.2667L15.732 18.0667L15.3987 18.2667C14.932 18.5334 14.4654 18.7334 13.9987 18.8667L13.6654 18.9334L12.932 21.3334H11.0654L10.332 18.9334L9.9987 18.8667L8.5987 18.2667L8.26536 18.0667L6.06536 19.2667L4.73203 17.9334L5.93203 15.7334L5.73203 15.4C5.46536 14.9334 5.26536 14.4667 5.13203 14L5.06536 13.6667L2.66536 12.9334V11.0667L4.93203 10.4L5.06536 10.0667C5.1987 9.53337 5.3987 9.06671 5.66536 8.60004L5.86536 8.26671L4.73203 6.06671L6.06536 4.73337L8.1987 5.93337L8.53203 5.73337C8.9987 5.46671 9.46536 5.26671 9.9987 5.13337L10.332 5.00004L11.0654 2.66671H12.932L13.6654 5.00004L13.9987 5.13337C14.4654 5.26671 14.932 5.46671 15.3987 5.73337L15.732 5.93337L17.932 4.73337L19.2654 6.06671L18.0654 8.26671L18.2654 8.60004C18.532 9.06671 18.732 9.53337 18.8654 10L18.932 10.3334L21.332 11.0667V12.9334Z" fill="black"/>
</svg>
