<svg width="18" height="18" viewBox="0 0 18 18" fill="none" xmlns="http://www.w3.org/2000/svg">
<g clip-path="url(#clip0_16085_40898)">
<path d="M16.3337 11.1585C15.8043 11.1551 15.2383 11.1518 14.6823 11.1607C14.6112 11.1629 14.5618 11.1484 14.5371 11.1193C14.5124 11.0914 14.5016 11.0377 14.5035 10.9573C14.5124 10.5962 14.5193 10.2429 14.5016 9.89304C14.4956 9.78572 14.5085 9.71753 14.5401 9.67953C14.5737 9.6404 14.6329 9.6214 14.7485 9.62363C15.5781 9.63146 15.9129 9.63034 16.469 9.62922C16.6793 9.62922 16.9213 9.62922 17.2344 9.6281H17.2828C17.3658 9.6281 17.4517 9.62922 17.5366 9.61581C17.8171 9.56997 17.9998 9.32963 18.0018 9.00209C18.0028 8.67232 17.823 8.42974 17.5435 8.38279C17.4527 8.36714 17.3608 8.36826 17.2709 8.36938H17.2166C15.3095 8.36938 13.9732 8.36938 12.3178 8.36938H10.8146C10.7109 8.36938 10.6062 8.36938 10.5025 8.36826C10.2576 8.36714 10.0038 8.36491 9.7539 8.37273C9.68279 8.37609 9.63736 8.36155 9.61168 8.33361C9.586 8.30454 9.57513 8.252 9.57711 8.16704C9.58699 7.74896 9.58699 7.3823 9.57711 7.04917C9.57415 6.96645 9.586 6.91167 9.61168 6.88261C9.63834 6.85131 9.68871 6.83789 9.77464 6.83901C10.3653 6.84683 10.944 6.85354 11.5258 6.83677C12.3801 6.8133 13.027 6.06209 13.0299 5.08954C13.0329 4.05439 13.0329 2.97005 13.0299 1.77169C13.028 0.775663 12.3751 0.0188625 11.5119 0.0110374C9.85958 -0.00237706 8.18452 -0.00237706 6.53415 0.0110374C5.67192 0.0188625 5.02007 0.775663 5.01711 1.77169C5.01513 2.64698 5.01513 3.52228 5.01711 4.39757V4.97775C5.0181 6.10345 5.6581 6.83454 6.64674 6.84125H6.78007C7.26205 6.84572 7.75982 6.84907 8.2497 6.83789C8.3455 6.83677 8.40378 6.85131 8.43439 6.88708C8.46303 6.92061 8.47489 6.98322 8.47094 7.07712C8.45513 7.44713 8.45513 7.77802 8.47094 8.08656C8.47686 8.20281 8.46402 8.27659 8.43044 8.31684C8.39587 8.3582 8.32773 8.37497 8.21711 8.37609C7.16131 8.36714 6.08674 8.36826 5.04871 8.36938C4.69217 8.36938 4.33563 8.36938 3.97908 8.36938H1.04378C0.857108 8.36938 0.816615 8.36938 0.808713 8.36714C0.80575 8.36714 0.80575 8.36714 0.78896 8.36714C0.769207 8.36714 0.715874 8.36938 0.562787 8.37385C0.382047 8.37832 0.231923 8.44875 0.131183 8.57618C0.0324171 8.70139 -0.0120273 8.86907 0.0027875 9.06358C0.0225406 9.32069 0.149948 9.62699 0.64575 9.6281H1.10106C1.94649 9.63146 2.29612 9.63258 3.31933 9.62587C3.41711 9.62587 3.47242 9.6404 3.50303 9.67617C3.53168 9.70971 3.54353 9.77119 3.53958 9.86733C3.52575 10.2049 3.52575 10.5526 3.53958 10.9315C3.54254 11.0254 3.53168 11.0836 3.50303 11.116C3.47439 11.1484 3.42007 11.1641 3.33415 11.1618C2.68723 11.1495 2.12229 11.1495 1.60773 11.1618C0.743528 11.1819 0.0887134 11.9376 0.0867381 12.9191C0.0837752 14.0404 0.0837752 15.1571 0.0867381 16.237C0.0897011 17.2296 0.745504 17.9831 1.61168 17.9898C2.41859 17.9965 3.24427 17.9987 4.08279 17.9987C4.92131 17.9987 5.72822 17.9954 6.56378 17.9898C7.43587 17.9831 8.09563 17.2218 8.09859 16.2191C8.10057 15.2857 8.09958 14.3522 8.09859 13.4177V13.0119C8.0976 11.8907 7.45464 11.1629 6.46205 11.1574H6.22501C5.7776 11.1529 5.31439 11.1495 4.85908 11.1607C4.77019 11.1629 4.7139 11.1484 4.68427 11.1126C4.65464 11.078 4.6418 11.0143 4.64575 10.9114C4.6576 10.5951 4.6576 10.2575 4.64575 9.84832C4.64279 9.75666 4.65464 9.69965 4.68032 9.66946C4.706 9.63928 4.75834 9.6214 4.83143 9.62475C7.6255 9.63034 10.4443 9.63034 13.2087 9.62475C13.2867 9.62475 13.3332 9.63928 13.3588 9.66946C13.3855 9.70077 13.3964 9.75554 13.3934 9.84944C13.3825 10.2619 13.3825 10.5995 13.3934 10.9125C13.3974 11.0143 13.3855 11.078 13.3549 11.1126C13.3253 11.1473 13.2699 11.1629 13.1781 11.1607C12.627 11.1484 12.0541 11.1484 11.4764 11.1607C10.6023 11.1786 9.94254 11.9387 9.93958 12.9292C9.9376 14.0102 9.9376 15.1169 9.93958 16.2191C9.94155 17.2218 10.6013 17.9831 11.4744 17.9887C13.1781 18.001 14.8443 18.001 16.4275 17.9887C17.2937 17.982 17.9495 17.2285 17.9514 16.2359C17.9544 15.2946 17.9534 14.3545 17.9524 13.4132V13.0018C17.9514 11.9063 17.2996 11.1652 16.3307 11.1585H16.3337ZM16.8413 13.1427C16.8413 14.1085 16.8413 15.0733 16.8413 16.0391C16.8413 16.5634 16.6971 16.7322 16.2487 16.7333C14.7179 16.7367 13.1702 16.7367 11.6472 16.7333C11.2067 16.7333 11.0576 16.5634 11.0566 16.0659C11.0556 15.0733 11.0546 14.0795 11.0566 13.0868C11.0566 12.5916 11.2067 12.4239 11.6492 12.4206C11.9633 12.4183 12.2774 12.4183 12.5924 12.4183C12.8206 12.4183 13.0487 12.4183 13.2779 12.4183H13.9633H14.5895C15.1267 12.4183 15.665 12.4183 16.2023 12.4183C16.704 12.4194 16.8423 12.5759 16.8423 13.1427H16.8413ZM9.7055 5.5814H9.02106H8.41464C7.86254 5.5814 7.30945 5.5814 6.75736 5.5814C6.26945 5.58028 6.12921 5.42043 6.12822 4.87267C6.12822 3.89788 6.12723 2.9231 6.12822 1.94831C6.12822 1.4408 6.27538 1.26865 6.70699 1.26753C8.21908 1.26306 9.77563 1.26306 11.3332 1.26753C11.7598 1.26865 11.9119 1.43968 11.9129 1.91925C11.9149 2.92198 11.9149 3.92471 11.9129 4.92633C11.9129 5.40478 11.7608 5.57581 11.3341 5.57917C10.7919 5.58364 10.2487 5.58252 9.70649 5.5814H9.7055ZM1.77563 12.4206C3.2581 12.4161 4.81464 12.4161 6.4018 12.4206C6.83736 12.4206 6.98353 12.5927 6.98452 13.0969C6.9855 14.0895 6.98649 15.0833 6.98452 16.076C6.98452 16.5578 6.8334 16.7288 6.40871 16.7322C5.8655 16.7367 5.3134 16.7355 4.77908 16.7344H4.09563H3.49217C2.93908 16.7344 2.38501 16.7344 1.83192 16.7344C1.33612 16.7333 1.19982 16.5813 1.19982 16.029C1.19982 15.0453 1.19884 14.0616 1.19982 13.0779C1.19982 12.5949 1.35094 12.4228 1.77563 12.4217V12.4206Z" fill="#363740"/>
</g>
<defs>
<clipPath id="clip0_16085_40898">
<rect width="18" height="18" fill="white"/>
</clipPath>
</defs>
</svg>
