<svg width="12" height="15" viewBox="0 0 12 15" fill="none" xmlns="http://www.w3.org/2000/svg">
<g clip-path="url(#clip0_4482_19192)">
<path d="M2.74349 8.71546C2.74349 7.3343 2.74006 5.95226 2.74434 4.57109C2.74777 3.56859 3.3882 2.74059 4.33726 2.51112C4.5233 2.46662 4.71877 2.44656 4.90995 2.44568C6.06734 2.43958 7.22473 2.44568 8.38212 2.44045C8.73877 2.4387 9.02769 2.55649 9.2806 2.81911C10.0462 3.61309 10.8204 4.39834 11.598 5.1801C11.8672 5.45057 12 5.75245 11.9983 6.1477C11.9863 8.37955 11.994 10.6123 11.9923 12.8441C11.9915 13.8676 11.3622 14.6947 10.4028 14.9285C10.2108 14.9756 10.0076 14.9948 9.80957 14.9957C8.18065 15.0009 6.55173 15.0009 4.92367 14.9983C3.62996 14.9957 2.74606 14.0901 2.7452 12.7735C2.7452 11.4211 2.7452 10.0687 2.7452 8.71633L2.74349 8.71546ZM10.9747 6.61972C10.8735 6.61972 10.7964 6.61972 10.7201 6.61972C10.1131 6.61972 9.50522 6.62932 8.89823 6.61536C8.27924 6.6014 7.88744 6.17998 7.88744 5.55614C7.88744 5.00385 7.88744 4.45069 7.88744 3.89839C7.88744 3.76316 7.88744 3.62792 7.88744 3.48483C6.7875 3.48483 5.71584 3.46738 4.64675 3.49268C4.13407 3.5049 3.76028 3.97605 3.76028 4.51351C3.76028 7.31336 3.76028 10.1132 3.76028 12.9131C3.76028 13.5055 4.16322 13.9539 4.74106 13.9574C6.49172 13.9662 8.24152 13.9662 9.99218 13.9574C10.5709 13.9548 10.9755 13.5072 10.9755 12.9165C10.9755 11.2806 10.9755 9.6438 10.9755 8.00786C10.9755 7.55765 10.9755 7.10657 10.9755 6.61972H10.9747ZM10.4809 5.57796C9.9596 5.04224 9.43663 4.50653 8.92224 3.97779V5.57796H10.4809Z" fill="#3B4FFF"/>
<path d="M1.79824 11.4906C1.28728 11.3536 0.995785 10.8842 1.00779 10.3642C1.03951 8.99787 1.01722 7.63066 1.01722 6.26346C1.01722 4.86746 1.01722 3.47146 1.01722 2.07546C1.01722 1.49874 1.42359 1.04766 1.98857 1.04504C3.74609 1.03544 5.50275 1.03544 7.26027 1.04504C7.71122 1.04766 8.06016 1.33471 8.18361 1.74304H9.20983C9.1421 1.36438 8.99121 1.00752 8.70058 0.68819C8.27449 0.224021 7.74295 0.0102584 7.13253 0.00676837C5.46074 -0.00108412 3.78981 -0.00457411 2.11803 0.00676837C0.886047 0.0146209 0.00128599 0.933362 0.00128599 2.18191C-0.000428663 4.9233 -0.000428663 7.66382 0.00128599 10.4052C0.00128599 11.4287 0.631421 12.2549 1.58991 12.4905C1.65764 12.5071 1.72794 12.5201 1.79739 12.5306V11.4906H1.79824Z" fill="#3B4FFF"/>
</g>
<defs>
<clipPath id="clip0_4482_19192">
<rect width="12" height="15" fill="white"/>
</clipPath>
</defs>
</svg>
