<svg width="16" height="12" viewBox="0 0 16 12" fill="none" xmlns="http://www.w3.org/2000/svg">
<path d="M15.9324 5.46819C15.8157 4.94609 15.603 4.48717 15.1258 4.18705C14.768 3.96175 14.1416 3.90022 13.7746 4.27185C13.6578 4.3899 13.5377 4.50546 13.4301 4.631C13.1682 4.93611 12.8137 5.05417 12.4834 4.93778C12.1689 4.8272 12.0004 4.54287 12.0004 4.12386C12.0004 3.11209 12.0004 2.10114 12.0004 1.08936C12.0004 0.398492 11.6259 0.00608563 10.9403 0.006917C9.89761 0.00857974 8.85497 0.022713 7.81316 0.0393404C7.56542 0.0434973 7.33104 0.10585 7.17256 0.325332C6.8998 0.703605 6.98321 1.1434 7.38859 1.45184C8.29444 2.14104 8.18768 3.23263 7.16422 3.74393C6.66541 3.99334 6.13742 4.07398 5.58524 3.99666C5.1173 3.93099 4.70274 3.75141 4.37994 3.39808C3.91534 2.89094 3.78188 2.17264 4.44667 1.58486C4.53508 1.50671 4.63851 1.44353 4.71692 1.35706C4.93129 1.12012 5.07643 0.849927 4.94714 0.525692C4.81284 0.195638 4.56344 0.00442289 4.19226 0.00359152C3.14962 0.00359152 2.10698 -0.00638492 1.06433 0.006917C0.397873 0.0160621 0 0.441724 0 1.10183V1.24649C0 1.93486 0 2.62324 0 3.31245V9.26173C0 9.30995 0 9.35817 0 9.40639C0 9.926 0 10.4456 0 10.9652C0 11.5771 0.375352 11.9853 0.985924 11.992C2.05609 12.0044 3.12626 12.0011 4.19727 11.9936C4.61683 11.9911 4.89542 11.78 4.96882 11.4008C5.03555 11.0558 4.88291 10.7856 4.60682 10.5761C3.71265 9.89856 3.81107 8.78785 4.8312 8.30399C5.1615 8.1477 5.5427 8.04377 5.90637 8.02382C6.58617 7.98641 7.2176 8.16682 7.68887 8.70638C8.16515 9.25093 8.11094 9.94844 7.56209 10.4173C7.467 10.498 7.3569 10.5653 7.27599 10.6584C7.06829 10.8995 6.93984 11.1706 7.05578 11.4965C7.17589 11.8323 7.43947 11.9895 7.77812 11.992C8.86915 12.0011 9.961 12.0061 11.052 11.9886C11.6292 11.9795 12.0004 11.5646 12.0004 10.991C12.0004 9.92433 11.9987 8.85769 12.0013 7.79021C12.0021 7.37286 12.2573 7.06775 12.6702 7.02285C12.9997 6.9871 13.2549 7.14257 13.4576 7.40029C13.6645 7.66384 13.8914 7.90743 14.2467 7.96978C14.8389 8.07454 15.2827 7.82596 15.5996 7.35457C15.9858 6.78092 16.0842 6.14243 15.9333 5.46736L15.9324 5.46819Z" fill="black"/>
</svg>
