<?xml version="1.0" encoding="UTF-8"?>
<svg id="Capa_1" data-name="Capa 1" xmlns="http://www.w3.org/2000/svg" viewBox="0 0 100 100">
  <path  fill="#7C7C7C" d="m89.54,4.68c-5.37-2.37-12.47-3.68-20-3.68s-14.63,1.31-20,3.68c-5.84,2.58-9.05,6.18-9.05,10.14v26.94l-1.51-.47c-2.87-.9-5.85-1.36-8.88-1.36C13.78,39.92.5,53.21.5,69.53s13.28,29.6,29.61,29.6c10.86,0,20.84-5.95,26.04-15.52l.41-.76.85.18c3.78.8,7.98,1.21,12.14,1.21,7.53,0,14.63-1.31,20-3.68,5.84-2.57,9.05-6.17,9.05-10.13V14.82c0-3.96-3.21-7.57-9.05-10.14ZM30.11,95.57c-14.36,0-26.04-11.68-26.04-26.04s11.68-26.04,26.04-26.04,26.04,11.68,26.04,26.04-11.68,26.04-26.04,26.04Zm64.92-25.14c0,1.25-.71,2.58-2.04,3.83-1.2,1.11-2.89,2.17-4.88,3.05-4.94,2.17-11.53,3.37-18.56,3.37-3.55,0-7-.31-10.25-.91l-1.28-.24.38-1.24c.75-2.4,1.18-4.91,1.29-7.43l.05-1.28,1.26.18c2.75.38,5.63.58,8.54.58,7.53,0,14.64-1.3,20-3.68,1.37-.6,2.6-1.27,3.68-1.98l1.8-1.19v6.95Zm0-13.9c0,1.25-.71,2.58-2.04,3.83-1.2,1.11-2.89,2.17-4.88,3.05-4.94,2.17-11.53,3.37-18.56,3.37-3.16,0-6.26-.25-9.21-.73l-.83-.14-.13-.83c-.42-2.78-1.24-5.5-2.44-8.06l-.97-2.06,2.24.43c3.59.7,7.4,1.05,11.34,1.05,7.53,0,14.64-1.3,20-3.67,1.35-.59,2.59-1.26,3.68-1.99l1.8-1.19v6.95Zm0-13.91c0,1.26-.71,2.58-2.04,3.83-1.09,1.01-2.58,1.98-4.35,2.81h0s-.53.24-.53.24c0,0-.02,0-.03.01l-.51.22h0c-4.87,2.02-11.24,3.14-18.03,3.14-6.19,0-12.18-.95-16.86-2.69l-.46-.32c-2.18-2.45-4.73-4.51-7.57-6.12l-.59-.33v-7.74l1.8,1.19c1.09.72,2.33,1.39,3.68,1.99,5.37,2.37,12.47,3.68,20,3.68s14.63-1.31,20-3.68c1.35-.59,2.59-1.26,3.68-1.99l1.8-1.19v6.95Zm0-13.9c0,1.26-.71,2.58-2.04,3.83-1.19,1.11-2.88,2.16-4.88,3.05-4.93,2.18-11.52,3.37-18.56,3.37s-13.63-1.2-18.56-3.37c-2-.88-3.69-1.94-4.88-3.05-1.34-1.25-2.04-2.57-2.04-3.83v-6.94l1.8,1.19c1.08.72,2.32,1.39,3.68,1.99,5.37,2.37,12.47,3.68,20,3.68s14.63-1.31,20-3.68c1.36-.6,2.6-1.27,3.68-1.99l1.8-1.19v6.95Zm-2.04-10.08c-1.09,1.01-2.58,1.98-4.35,2.81h0s-.51.23-.51.23c0,0-.02,0-.02,0l-.53.23h0c-4.87,2.02-11.24,3.14-18.03,3.14s-13.16-1.11-18.03-3.14h0s-.53-.23-.53-.23c0,0-.01,0-.02,0l-.51-.23h0c-1.77-.84-3.27-1.8-4.35-2.81-1.34-1.25-2.04-2.57-2.04-3.83s.71-2.58,2.04-3.83c1.19-1.11,2.88-2.16,4.88-3.04,4.93-2.18,11.52-3.37,18.56-3.37s13.63,1.2,18.56,3.37c2,.88,3.69,1.93,4.88,3.04,1.34,1.25,2.04,2.57,2.04,3.83s-.71,2.58-2.04,3.83Z"/>
</svg>