<svg width="23" height="23" viewBox="0 0 23 23" fill="none" xmlns="http://www.w3.org/2000/svg">
<g clip-path="url(#clip0_5131_21726)">
<path d="M8.04346 5.37976C7.20773 4.17774 6.38878 2.9985 5.56744 1.81926C5.37439 1.54123 5.23051 1.24882 5.29286 0.898878C5.39118 0.351202 5.83123 0.0156453 6.47152 0.00366114C6.88159 -0.00352935 7.29046 0.00246273 7.70053 0.00246273C10.589 0.00246273 13.4763 0.00246273 16.3648 0.00366114C16.5135 0.00366114 16.6646 0.0132485 16.8108 0.0420105C17.6478 0.207392 17.9811 0.991156 17.5051 1.70541C17.1454 2.2459 16.7593 2.76841 16.3852 3.29811C15.9008 3.9824 15.4164 4.6667 14.9188 5.37017C15.3828 5.70692 15.8432 6.03529 16.2965 6.37204C19.0147 8.39018 21.0854 10.908 22.2485 14.1162C22.7917 15.6142 23.0087 17.1758 22.9991 18.7613C22.9871 20.8345 21.5003 22.565 19.4631 22.9234C19.1598 22.9773 18.8468 22.9953 18.5387 22.9953C13.842 23.0001 9.14538 23.0013 4.44873 22.9965C2.91036 22.9953 1.65017 22.414 0.75329 21.1365C0.083026 20.1826 -0.0524656 19.1052 0.0158797 17.9679C0.313242 13.0185 2.82523 9.34412 6.64418 6.41639C7.09502 6.07124 7.55665 5.73928 8.04346 5.37976ZM11.4691 21.5775C13.848 21.5775 16.2257 21.5835 18.6046 21.5751C20.1586 21.5704 21.3744 20.5553 21.5435 19.0177C21.6214 18.3143 21.5243 17.582 21.4355 16.8726C21.0638 13.8993 19.6382 11.4473 17.5806 9.33693C16.5962 8.32666 15.4955 7.44702 14.3228 6.65727C14.0483 6.47271 13.7881 6.39961 13.4679 6.402C12.0986 6.41279 10.7293 6.402 9.3612 6.41399C9.18494 6.41519 8.98351 6.47511 8.84082 6.57458C8.18734 7.03237 7.52907 7.48777 6.91156 7.9923C3.74969 10.5701 1.71012 13.7687 1.44274 17.9416C1.39358 18.7121 1.40437 19.4635 1.82283 20.143C2.41756 21.1078 3.30005 21.5728 4.42475 21.5751C6.77247 21.5799 9.1214 21.5763 11.4691 21.5763V21.5775ZM7.06984 1.38783C7.10101 1.45734 7.1106 1.49569 7.13219 1.52685C7.88878 2.62939 8.64298 3.73313 9.41156 4.82609C9.47511 4.91597 9.63938 4.98068 9.75689 4.98188C10.9152 4.99387 12.0734 4.98428 13.2317 4.99387C13.4271 4.99506 13.5387 4.92675 13.6442 4.77096C14.3564 3.72354 15.077 2.68092 15.7941 1.6371C15.842 1.56759 15.8792 1.4897 15.9379 1.38783H7.06984Z" fill="#363740"/>
<path d="M12.2266 18.3681C12.1571 19.1387 12.006 19.3843 11.5276 19.3915C11.247 19.3951 10.9712 19.3041 10.8765 19.008C10.7998 18.7672 10.7902 18.5047 10.7554 18.2782C10.2038 18.0937 9.64388 17.945 9.11631 17.7209C8.55755 17.4825 8.47602 16.7838 8.97002 16.5165C9.17026 16.4087 9.47242 16.4243 9.71223 16.4686C10.3285 16.5812 10.9293 16.7802 11.548 16.8641C11.8657 16.9072 12.2158 16.8078 12.5348 16.7179C12.7866 16.6472 12.9388 16.4434 12.9508 16.1558C12.964 15.8394 12.8369 15.5938 12.5552 15.4775C12.0492 15.269 11.5192 15.118 11.0168 14.9035C10.4412 14.659 9.84892 14.4277 9.32974 14.0885C8.76259 13.7182 8.55515 13.1094 8.65827 12.4335C8.80455 11.47 9.41127 10.9044 10.307 10.6095C10.458 10.5604 10.6115 10.5185 10.6918 10.437C10.807 10.1218 10.8921 9.78983 11.054 9.50101C11.1151 9.39075 11.3501 9.33323 11.5096 9.32844C11.9844 9.31166 12.1559 9.60407 12.2314 10.5113C12.56 10.5832 12.9005 10.6455 13.2338 10.7342C13.5396 10.8157 13.7782 10.9834 13.8321 11.3286C13.8801 11.6366 13.741 11.893 13.488 11.9985C13.2686 12.0908 12.9892 12.0836 12.7422 12.0584C12.3273 12.0165 11.9173 11.8727 11.5048 11.8715C11.1487 11.8715 10.7854 11.9889 10.4388 12.0968C10.2326 12.1615 10.0504 12.2981 10.0504 12.5713C10.0504 12.8542 10.1823 13.0687 10.4221 13.173C10.8501 13.3599 11.2998 13.4977 11.7338 13.6715C12.2974 13.8956 12.8777 14.0909 13.4101 14.375C14.8849 15.1647 14.5 17.1217 13.4784 17.7821C13.1091 18.0205 12.6763 18.1608 12.2254 18.3669L12.2266 18.3681Z" fill="#363740"/>
</g>
<defs>
<clipPath id="clip0_5131_21726">
<rect width="23" height="23" fill="white"/>
</clipPath>
</defs>
</svg>
