<svg width="21" height="15" viewBox="0 0 21 15" fill="none" xmlns="http://www.w3.org/2000/svg">
<g clip-path="url(#clip0_9443_30954)">
<path d="M13.228 2.81924C13.6701 2.81924 14.0723 2.82393 14.4746 2.81846C15.0568 2.81065 15.5388 2.99037 15.9521 3.38108C16.8745 4.25392 17.8131 5.11191 18.756 5.96599C19.1582 6.33091 19.3492 6.75366 19.3432 7.27486C19.3297 8.36258 19.339 9.45031 19.339 10.538C19.339 10.6146 19.339 10.6912 19.339 10.7826C19.429 10.7873 19.4968 10.7904 19.5656 10.7943C20.0493 10.8201 20.3608 11.0975 20.3565 11.5C20.3531 11.8993 20.0332 12.1774 19.5486 12.1892C19.2168 12.197 18.8841 12.1899 18.5515 12.1915C18.4827 12.1915 18.414 12.197 18.3283 12.2009C18.2935 13.08 17.943 13.8129 17.2081 14.3756C16.6514 14.8014 15.9988 14.9937 15.2884 15.0015C13.7881 15.0187 12.2232 13.9356 12.2062 12.2017H8.14461C8.10642 13.1284 7.71944 13.8926 6.90984 14.4553C6.35822 14.8389 5.72514 15.0101 5.04538 14.9983C3.39902 14.971 2.0692 13.8114 2.02847 12.1993C1.87996 12.1767 1.72635 12.1634 1.57699 12.1298C0.635006 11.9157 0.0112566 11.2007 0.00786209 10.2778C-0.00147294 7.49053 -0.00401885 4.70245 0.00871072 1.91515C0.0138026 0.817263 0.889597 0.0131889 2.08278 0.00850039C5.10903 -0.00243939 8.13612 -0.0032208 11.1632 0.00850039C12.3742 0.0131889 13.2246 0.839142 13.2288 1.95891C13.2296 2.23709 13.2288 2.51605 13.2288 2.81846L13.228 2.81924ZM11.7174 6.10586C11.7174 4.74464 11.7174 3.38264 11.7174 2.02142C11.7174 1.55023 11.557 1.40176 11.047 1.40176C8.09793 1.40176 5.14807 1.40176 2.19905 1.40176C1.67798 1.40176 1.5142 1.55335 1.5142 2.03236C1.5142 4.7423 1.5142 7.45224 1.5142 10.1622C1.5142 10.642 1.67883 10.785 2.19905 10.7975C2.38235 10.8014 2.48504 10.7475 2.59027 10.606C3.82164 8.95958 6.39387 8.97287 7.61251 10.6318C7.70416 10.7568 7.79497 10.7975 7.95281 10.7967C8.97797 10.7904 10.004 10.7936 11.0291 10.7936C11.5646 10.7936 11.7165 10.6513 11.7165 10.1512C11.7165 8.80252 11.7165 7.45458 11.7165 6.10586H11.7174ZM17.7342 7.03262C17.7062 6.9912 17.6986 6.97245 17.6842 6.95995C16.7243 6.07461 15.7654 5.19005 14.803 4.30705C14.7606 4.26798 14.6961 4.225 14.6418 4.22422C14.1776 4.21797 13.7134 4.22032 13.2432 4.22032V7.03262H17.7342ZM6.62215 12.1931C6.62045 11.4242 5.9373 10.7912 5.09969 10.7834C4.26803 10.7764 3.55093 11.4312 3.55347 12.1962C3.55602 12.9565 4.25105 13.5981 5.08272 13.6051C5.92202 13.6129 6.62385 12.969 6.62215 12.1923V12.1931ZM16.8075 12.1931C16.8067 11.4242 16.1227 10.7912 15.2859 10.7834C14.4542 10.7756 13.7371 11.4304 13.7388 12.1962C13.7405 12.9565 14.4364 13.5981 15.2672 13.6059C16.1065 13.6137 16.8084 12.9698 16.8075 12.1939V12.1931Z" fill="#FF8D24"/>
<path d="M7.77825 6.3261C7.70357 6.3261 7.62888 6.3261 7.5542 6.3261C6.28125 6.3261 5.00914 6.3261 3.73618 6.3261C3.15741 6.3261 2.80522 6.05886 2.80862 5.62439C2.81201 5.18914 3.1608 4.92972 3.74382 4.92972C5.01678 4.92972 6.28888 4.92972 7.56184 4.92972C7.63652 4.92972 7.71205 4.92972 7.82916 4.92972C7.75533 4.85314 7.7129 4.80469 7.66622 4.76015C7.31659 4.42883 6.96016 4.10298 6.61646 3.76541C6.29652 3.45206 6.29652 3.05979 6.60034 2.78708C6.90075 2.51749 7.3395 2.52375 7.66198 2.81756C8.49535 3.57865 9.32616 4.34287 10.1519 5.111C10.5143 5.44779 10.5117 5.78067 10.1468 6.11981C9.32107 6.88794 8.49025 7.65138 7.65774 8.41325C7.32507 8.718 6.91179 8.72426 6.60458 8.44295C6.29907 8.16398 6.29313 7.77093 6.61391 7.46618C7.00259 7.09735 7.40739 6.74337 7.8054 6.38236C7.79692 6.36361 7.78843 6.34485 7.77994 6.32532L7.77825 6.3261Z" fill="#FF8D24"/>
</g>
<defs>
<clipPath id="clip0_9443_30954">
<rect width="20.3571" height="15" fill="white"/>
</clipPath>
</defs>
</svg>
