<svg width="17" height="21" viewBox="0 0 17 21" fill="none" xmlns="http://www.w3.org/2000/svg">
<path d="M1.3303 8.99292H0.0119695V8.71117C0.0119695 6.70779 0.010856 4.7044 0.0119695 2.70102C0.0130829 1.14498 1.15548 0.0147798 2.76442 0.00617699C4.87552 -0.00565191 6.98663 0.00295092 9.09773 0.00402628C9.71013 0.00402628 10.2234 0.21157 10.661 0.638485C12.1987 2.1386 13.7419 3.63227 15.2974 5.11519C15.7829 5.57866 16.0189 6.10989 16.0022 6.76801C15.9844 7.50032 15.9978 8.23264 15.9978 8.98539H14.6873V7.71754C14.5559 7.71754 14.4568 7.71754 14.3588 7.71754C12.9514 7.71754 11.544 7.72615 10.1366 7.71432C9.37275 7.70787 8.69355 7.46806 8.32388 6.77983C8.14684 6.45185 8.0355 6.05397 8.02659 5.68405C7.99207 4.32588 8.01323 2.96555 8.01323 1.6063V1.30305C7.9531 1.29338 7.90968 1.2794 7.86625 1.2794C6.11591 1.2794 4.36556 1.2751 2.61633 1.28262C2.0507 1.28477 1.64652 1.55791 1.43162 2.06118C1.3637 2.22033 1.33475 2.40637 1.33475 2.58058C1.32807 4.61945 1.3303 6.65832 1.33141 8.69827C1.33141 8.78752 1.33141 8.8757 1.33141 8.99506L1.3303 8.99292ZM14.6639 6.42927C14.4501 6.05397 9.58097 1.39446 9.33155 1.32349V1.56652C9.33155 2.93329 9.33155 4.30007 9.33155 5.66792C9.33155 6.20882 9.56315 6.4411 10.1177 6.44217C11.5607 6.4454 13.0037 6.44325 14.4467 6.44217C14.5091 6.44217 14.5715 6.43465 14.6639 6.42819V6.42927Z" fill="black"/>
<path d="M0 18.0475H1.29828C1.46085 18.9691 1.89955 19.3229 2.86825 19.3229C6.32997 19.3229 9.79169 19.3207 13.2534 19.325C13.8703 19.325 14.3301 19.1013 14.5806 18.5432C14.6452 18.3981 14.6697 18.2367 14.7209 18.0561H15.9758C16.0504 19.1938 14.9804 20.4057 13.7767 20.5434C13.4839 20.5767 13.1866 20.5939 12.8915 20.5939C9.54116 20.5972 6.19079 20.5971 2.8393 20.595C1.45751 20.595 0.414203 19.8369 0.0968697 18.6077C0.0512182 18.4292 0.0345181 18.2454 0.00111454 18.0475H0Z" fill="black"/>
<path d="M1.67503 13.5073C1.67503 12.989 1.6728 12.4707 1.67503 11.9524C1.67837 11.0835 2.29968 10.4049 3.18821 10.3243C3.50889 10.2953 3.83735 10.2985 4.15803 10.3243C5.08331 10.3974 5.84045 11.2233 5.64337 12.3632C5.58992 12.675 5.29931 12.8772 4.98087 12.8632C4.6279 12.8482 4.37626 12.6148 4.34397 12.2718C4.29943 11.8108 4.03926 11.5807 3.56345 11.5814C3.09023 11.5814 2.99447 11.6739 2.99447 12.1255C2.99447 13.0729 2.99447 14.0203 2.99447 14.9677C2.99447 15.3494 3.10804 15.4559 3.50666 15.4591C3.55342 15.4591 3.59907 15.4591 3.64584 15.4591C4.29164 15.4591 4.31614 15.4365 4.34286 14.8236C4.35956 14.4332 4.6279 14.1719 5.0087 14.1773C5.37948 14.1827 5.63335 14.4365 5.6623 14.8085C5.72131 15.5505 5.4719 16.1463 4.78935 16.5312C4.01439 16.9689 2.65375 16.7689 2.06919 16.1452C1.80085 15.8591 1.67948 15.5215 1.67614 15.1419C1.67169 14.5967 1.67503 14.0515 1.67503 13.5063V13.5073Z" fill="black"/>
<path d="M12.3368 14.9021C12.7476 14.102 12.9837 13.3288 13.0071 12.5051C13.0204 12.0137 13.0093 11.5222 13.0115 11.0308C13.0138 10.5888 13.2543 10.3243 13.6585 10.3135C14.0682 10.3028 14.3287 10.5791 14.3287 11.034C14.331 12.0599 14.3644 13.0858 14.0704 14.0934C13.8177 14.958 13.3767 15.7258 12.8601 16.4581C12.5951 16.8334 12.0773 16.8237 11.8046 16.4517C10.8592 15.1634 10.3181 13.7471 10.3426 12.1513C10.3482 11.7846 10.3426 11.419 10.3437 11.0523C10.3459 10.5888 10.5853 10.32 10.9973 10.3146C11.4082 10.3092 11.6531 10.5834 11.6631 11.0415C11.6776 11.7201 11.6698 12.3997 11.7277 13.075C11.7812 13.6988 12.015 14.2827 12.3368 14.9031V14.9021Z" fill="black"/>
<path d="M7.58581 16.7526C7.32861 16.7322 7.06806 16.7289 6.81642 16.6849C6.52692 16.6343 6.34766 16.3913 6.34432 16.1042C6.33986 15.8084 6.52358 15.5439 6.82867 15.5084C7.2206 15.4633 7.62033 15.4729 8.01672 15.46C8.46767 15.445 8.75605 15.1686 8.66029 14.7836C8.6191 14.6148 8.46989 14.4384 8.31846 14.3363C8.0479 14.1535 7.73724 14.0244 7.44552 13.8717C6.616 13.4362 6.20848 12.6265 6.39888 11.7909C6.58816 10.9629 7.31858 10.3682 8.24832 10.3166C8.56788 10.2983 8.89523 10.3188 9.21368 10.3639C9.48313 10.4016 9.65683 10.6586 9.66351 10.9339C9.66908 11.2188 9.49093 11.4834 9.21145 11.5296C8.94089 11.5737 8.66141 11.5737 8.38527 11.5812C7.97663 11.592 7.75617 11.7232 7.67823 12.0178C7.60029 12.3157 7.73947 12.5695 8.08687 12.7512C8.3708 12.9007 8.65807 13.0448 8.94088 13.1975C9.6546 13.5814 10.0076 14.1814 9.99087 14.9578C9.97528 15.7106 9.53881 16.2504 8.86071 16.5494C8.48103 16.716 8.02451 16.7214 7.60252 16.7999L7.58804 16.7548L7.58581 16.7526Z" fill="black"/>
</svg>
