<svg width="18" height="18" viewBox="0 0 18 18" fill="none" xmlns="http://www.w3.org/2000/svg">
<g clip-path="url(#clip0_3205_21585)">
<path d="M0.000476559 9.00054C0.000476559 6.91097 -0.000595699 4.82248 0.000476559 2.73292C0.00262108 1.1636 1.06201 0.0267618 2.6318 0.018198C6.88545 -0.00535236 11.1402 -0.00749331 15.3938 0.020339C16.9389 0.0299732 17.9983 1.17003 17.9994 2.70401C18.0015 6.90027 18.0015 11.0965 17.9994 15.2928C17.9994 16.8289 16.9422 17.969 15.396 17.9786C11.1241 18.0064 6.8522 18.0086 2.58033 17.9764C1.04164 17.9647 0.00369333 16.815 0.00154882 15.2682C-0.000595699 13.1786 0.00154882 11.0901 0.00154882 9.00054H0.000476559ZM1.90695 9.00054C1.90695 11.0719 1.90481 13.1422 1.90802 15.2136C1.90802 15.8773 2.10317 16.0828 2.76797 16.0839C6.9144 16.0892 11.0608 16.0881 15.2072 16.0839C15.9021 16.0839 16.0929 15.8837 16.0929 15.1857C16.0951 11.0612 16.0951 6.93666 16.0929 2.8132C16.0929 2.11632 15.9021 1.91722 15.2062 1.91615C11.078 1.91186 6.94978 1.91293 2.82051 1.91615C2.09245 1.91615 1.90802 2.1099 1.90802 2.84211C1.90588 4.89527 1.90802 6.94844 1.90802 9.00161L1.90695 9.00054Z" fill="#363740"/>
<path d="M8.04803 8.99938C8.04803 7.67735 8.04482 6.35638 8.04911 5.03435C8.05125 4.30322 8.43405 3.85897 9.02808 3.88038C9.60817 3.90179 9.95237 4.32034 9.95344 5.03328C9.95665 7.67628 9.95665 10.3203 9.95344 12.9633C9.95344 13.6945 9.5685 14.1387 8.97447 14.1173C8.39437 14.0959 8.05125 13.6774 8.04911 12.9644C8.04482 11.6424 8.04803 10.3214 8.04803 8.99938Z" fill="#363740"/>
<path d="M4.18493 10.889C4.18493 10.2103 4.17957 9.5316 4.18601 8.85292C4.19351 8.15819 4.57095 7.72893 5.14997 7.73856C5.71398 7.7482 6.08391 8.1614 6.0882 8.82402C6.0957 10.2349 6.09677 11.6458 6.0882 13.0567C6.08391 13.7086 5.68824 14.1271 5.12531 14.1175C4.5613 14.1079 4.19566 13.6947 4.18708 13.0321C4.1785 12.318 4.18493 11.603 4.18493 10.889Z" fill="#363740"/>
<path d="M13.8144 12.2034C13.8144 12.5074 13.8251 12.8115 13.8123 13.1144C13.7865 13.7246 13.3909 14.1303 12.8472 14.1185C12.3229 14.1078 11.9337 13.716 11.9154 13.1369C11.8961 12.5299 11.8972 11.9219 11.9154 11.316C11.9326 10.7048 12.3358 10.3001 12.8794 10.3119C13.4241 10.3237 13.794 10.7272 13.8155 11.347C13.8251 11.6329 13.8176 11.9187 13.8166 12.2045L13.8144 12.2034Z" fill="#363740"/>
</g>
<defs>
<clipPath id="clip0_3205_21585">
<rect width="18" height="18" fill="white"/>
</clipPath>
</defs>
</svg>
