<svg width="25" height="26" viewBox="0 0 25 26" fill="none" xmlns="http://www.w3.org/2000/svg">
<circle cx="12.5" cy="13" r="12.5" fill="#24397C"/>
<path d="M18.7715 6.91181H17.1778V6.18987C17.1778 6.05679 17.0761 5.94922 16.9502 5.94922H15.3565C15.2306 5.94922 15.1289 6.05679 15.1289 6.18987V6.91181H10.1203V6.18987C10.1203 6.05679 10.0185 5.94922 9.89261 5.94922H8.29897C8.17307 5.94922 8.07131 6.05679 8.07131 6.18987V6.91181H6.47766C6.35177 6.91181 6.25 7.01938 6.25 7.15245V9.79957V20.1474C6.25 20.2805 6.35177 20.388 6.47766 20.388H18.7715C18.8974 20.388 18.9991 20.2805 18.9991 20.1474V9.79957V7.15245C18.9991 7.01938 18.8974 6.91181 18.7715 6.91181ZM15.5842 6.43051H16.7225V7.15245V7.8744H15.5842V7.15245V6.43051ZM8.52663 6.43051H9.66495V7.15245V7.8744H8.52663V7.15245V6.43051ZM6.70533 7.3931H8.07131V8.11504C8.07131 8.24812 8.17307 8.35569 8.29897 8.35569H9.89261C10.0185 8.35569 10.1203 8.24812 10.1203 8.11504V7.3931H15.1289V8.11504C15.1289 8.24812 15.2306 8.35569 15.3565 8.35569H16.9502C17.0761 8.35569 17.1778 8.24812 17.1778 8.11504V7.3931H18.5438V9.55892H6.70533V7.3931ZM6.70533 19.9067V10.0402H18.5438V19.9067H6.70533Z" fill="white" stroke="white" stroke-width="0.2"/>
<path d="M14.4477 11.4844H12.854H12.3987H10.8051H10.3497H8.30078V13.6502V14.1315V15.816V16.2973V18.4631H10.3497H10.8051H12.3987H12.854H14.4477H14.903H16.952V16.2973V15.816V14.1315V13.6502V11.4844H14.903H14.4477ZM12.854 11.9657H14.4477V13.6502H12.854V11.9657ZM14.4477 15.816H12.854V14.1315H14.4477V15.816ZM10.8051 14.1315H12.3987V15.816H10.8051V14.1315ZM10.8051 11.9657H12.3987V13.6502H10.8051V11.9657ZM8.75611 11.9657H10.3497V13.6502H8.75611V11.9657ZM8.75611 14.1315H10.3497V15.816H8.75611V14.1315ZM10.3497 17.9818H8.75611V16.2973H10.3497V17.9818ZM12.3987 17.9818H10.8051V16.2973H12.3987V17.9818ZM14.4477 17.9818H12.854V16.2973H14.4477V17.9818ZM16.4966 17.9818H14.903V16.2973H16.4966V17.9818ZM16.4966 15.816H14.903V14.1315H16.4966V15.816ZM16.4966 11.9657V13.6502H14.903V11.9657H16.4966Z" fill="white" stroke="white" stroke-width="0.2"/>
</svg>
