<svg width="22" height="25" viewBox="0 0 22 25" fill="none" xmlns="http://www.w3.org/2000/svg">
<path d="M5.11199 3.10934C5.11199 2.43391 5.1028 1.80552 5.11462 1.17712C5.12906 0.360596 5.82235 -0.15806 6.6128 0.0444383C7.10256 0.169856 7.44658 0.632336 7.45183 1.1941C7.45839 1.82119 7.45314 2.44828 7.45314 3.09105H14.5475C14.5475 2.44959 14.5436 1.8225 14.5488 1.19672C14.5541 0.632335 14.8941 0.171163 15.3852 0.0444383C16.1744 -0.159366 16.8703 0.357983 16.8873 1.17451C16.8992 1.79376 16.8952 2.41301 16.8992 3.03096C16.8992 3.0401 16.9057 3.05055 16.928 3.10934C17.1985 3.10934 17.4887 3.10412 17.7776 3.10934C18.2568 3.1211 18.74 3.10673 19.2154 3.1616C20.8553 3.35103 21.9977 4.65486 21.999 6.3271C22.0029 10.4881 21.999 14.6491 22.0003 18.8088C22.0003 19.7756 22.0003 20.7423 22.0003 21.7091C21.9977 23.6439 20.6321 24.9948 18.6665 24.9961C13.8739 24.9987 9.08131 25 4.28872 24.9935C3.67947 24.9935 3.05577 25.0131 2.4649 24.8942C0.985108 24.5976 0.00295434 23.3173 0.0016413 21.7783C-0.00098478 17.5102 0.00032826 13.2408 0.00032826 8.97133C0.00032826 8.113 0.00032826 7.25467 0.00032826 6.39634C0.00295434 4.48763 1.35407 3.12894 3.2698 3.11065C3.86854 3.10412 4.46729 3.11065 5.11199 3.11065V3.10934ZM2.35198 9.36718C2.34673 9.4717 2.34148 9.53702 2.34148 9.60234C2.34148 13.6654 2.34148 17.7297 2.34148 21.7927C2.34148 22.3871 2.6356 22.668 3.2698 22.668C8.42348 22.6706 13.5772 22.6706 18.7308 22.668C19.386 22.668 19.6578 22.3845 19.6578 21.7261C19.6578 17.7166 19.6578 13.7072 19.6578 9.69902C19.6578 9.59319 19.6487 9.48737 19.6434 9.36849H2.3533L2.35198 9.36718Z" fill="#363740"/>
</svg>
