<svg width="27" height="27" viewBox="0 0 27 27" fill="none" xmlns="http://www.w3.org/2000/svg">
<path d="M19.0168 26.9993C15.1208 26.9993 11.9531 23.8407 11.9531 19.9559C11.9531 16.0712 15.1208 12.9126 19.0168 12.9126C22.9129 12.9126 26.0806 16.0712 26.0806 19.9559C26.0806 23.8407 22.9078 26.9993 19.0168 26.9993ZM19.0168 13.9993C15.7218 13.9993 13.043 16.6704 13.043 19.9559C13.043 23.2415 15.7218 25.9126 19.0168 25.9126C22.3119 25.9126 24.9907 23.2415 24.9907 19.9559C24.9907 16.6704 22.3119 13.9993 19.0168 13.9993Z" fill="black"/>
<path d="M21.7321 23.206C21.615 23.206 21.4927 23.1653 21.3909 23.0892L18.6764 20.9208C18.549 20.8192 18.4727 20.6618 18.4727 20.4993V16.706C18.4727 16.4063 18.7171 16.1626 19.0176 16.1626C19.3181 16.1626 19.5625 16.4063 19.5625 16.706V20.2353L22.0733 22.2411C22.3076 22.429 22.3432 22.7692 22.1599 23.0028C22.0478 23.1399 21.89 23.206 21.7321 23.206Z" fill="black"/>
<path d="M10.8737 12.3743C10.6751 12.3743 10.4816 12.2626 10.3848 12.0747C10.2524 11.8056 10.3593 11.4806 10.6293 11.3485L20.9422 6.20439C21.1102 6.11806 21.3089 6.12822 21.4718 6.22978C21.6297 6.32626 21.7316 6.504 21.7316 6.69189V11.2977C21.7316 11.5974 21.4871 11.8411 21.1866 11.8411C20.8862 11.8411 20.6417 11.5974 20.6417 11.2977V7.57041L11.1131 12.3235C11.0367 12.354 10.9552 12.3743 10.8737 12.3743Z" fill="black"/>
<path d="M10.318 22.6675C10.2314 22.6675 10.1398 22.6472 10.0532 22.6015L0.280104 17.1831C0.112042 17.0867 0 16.9089 0 16.7109V6.68666C0 6.49877 0.0967682 6.32611 0.259738 6.22455C0.417615 6.12299 0.621322 6.11791 0.789384 6.19916L11.1023 11.3433C11.3722 11.4753 11.4792 11.8003 11.3468 12.0695C11.2144 12.3386 10.8884 12.4453 10.6185 12.3132L1.08987 7.5601V16.3859L10.5829 21.6468C10.8426 21.7941 10.9393 22.1191 10.7916 22.3831C10.6898 22.566 10.5065 22.6675 10.318 22.6675Z" fill="black"/>
<path d="M21.1868 7.23018C21.1053 7.23018 21.0238 7.20986 20.9423 7.17432L10.8585 2.15205L0.784947 7.17432C0.515027 7.30635 0.189084 7.19971 0.056671 6.93057C-0.0757423 6.66143 0.0312094 6.33643 0.301129 6.20439L10.6192 1.05518C10.772 0.979004 10.9502 0.979004 11.103 1.05518L21.4312 6.19932C21.7012 6.33135 21.8081 6.65635 21.6757 6.92549C21.5789 7.11846 21.3854 7.23018 21.1868 7.23018Z" fill="black"/>
<path d="M5.47853 13.7148C5.17806 13.7148 4.93359 13.4711 4.93359 13.1714V9.1445C4.93359 8.94137 5.05075 8.75348 5.23409 8.66207L15.547 3.51793C15.817 3.3859 16.1429 3.49254 16.2753 3.76168C16.4077 4.03082 16.3008 4.35582 16.0309 4.48786L6.01838 9.48473V13.1765C6.02347 13.4761 5.77901 13.7148 5.47853 13.7148Z" fill="black"/>
</svg>
