<svg width="17" height="17" viewBox="0 0 17 17" fill="none" xmlns="http://www.w3.org/2000/svg">
<path d="M8.5 0C3.80853 0 0 3.80853 0 8.5C0 13.1915 3.80853 17 8.5 17C13.1915 17 17 13.1915 17 8.5C17 3.80853 13.1915 0 8.5 0ZM1.69999 8.5C1.69999 4.74419 4.74418 1.7 8.5 1.7C10.0682 1.7 11.5178 2.24031 12.6643 3.13644L3.13644 12.6643C2.24032 11.5178 1.69999 10.0682 1.69999 8.5ZM8.5 15.3C6.93178 15.3 5.48216 14.7597 4.33565 13.8636L13.8636 4.33566C14.7597 5.48217 15.3 6.93179 15.3 8.5C15.3 12.2558 12.2558 15.3 8.5 15.3Z" fill="#7E858E"/>
</svg>
