<svg width="18" height="20" viewBox="0 0 18 20" fill="none" xmlns="http://www.w3.org/2000/svg">
<path d="M1.44727 5.01619C1.1937 4.99219 0.970217 4.98697 0.753181 4.94731C0.314812 4.86695 -0.0010717 4.48392 2.73256e-06 4.06019C0.00107717 3.63541 0.314812 3.2482 0.757479 3.17932C1.04543 3.13444 1.34305 3.13653 1.63744 3.1334C2.27243 3.12714 2.90635 3.12609 3.54134 3.13549C3.7111 3.13757 3.81639 3.0927 3.91202 2.94971C4.34179 2.31098 4.78768 1.68164 5.2239 1.04604C5.68913 0.364522 6.34561 0.0159338 7.18152 0.00862806C8.39671 -0.00180872 9.61297 -0.00389607 10.8282 0.00862806C11.6931 0.0180212 12.3721 0.384352 12.8492 1.09092C13.265 1.70774 13.6851 2.32246 14.0923 2.94449C14.1858 3.08748 14.2878 3.13549 14.4597 3.13444C15.2817 3.12609 16.1047 3.12609 16.9266 3.13236C17.2554 3.13549 17.5713 3.20019 17.7819 3.48094C18.0022 3.77317 18.072 4.08523 17.9108 4.43382C17.7346 4.81476 17.4123 4.95775 17.0147 4.98801C16.874 4.99845 16.7311 4.9901 16.5603 4.9901C16.5259 5.38357 16.4893 5.76034 16.4603 6.13815C16.2745 8.61271 16.0907 11.0883 15.9049 13.5639C15.8006 14.9572 15.6986 16.3505 15.5847 17.7428C15.4794 19.0276 14.3845 19.9846 12.9835 19.9909C10.3285 20.0034 7.67469 20.0034 5.01976 19.9909C3.5263 19.9836 2.50021 18.9848 2.40136 17.5372C2.26384 15.5375 2.09515 13.5399 1.94258 11.5402C1.80828 9.77536 1.67934 8.00946 1.54611 6.24356C1.51603 5.83757 1.4795 5.43053 1.44512 5.01515L1.44727 5.01619ZM3.37802 5.00263C3.37802 5.11326 3.37265 5.19884 3.37802 5.28442C3.49514 6.78105 3.61547 8.27664 3.73151 9.77328C3.92921 12.3251 4.12476 14.8769 4.32138 17.4287C4.36113 17.9463 4.57065 18.1331 5.10786 18.1331C6.09957 18.1342 7.09127 18.1331 8.08297 18.1331C9.7 18.1331 11.3181 18.1342 12.9351 18.1331C13.4057 18.1331 13.6861 17.9035 13.7205 17.4871C13.7796 16.7691 13.8301 16.051 13.8817 15.3329C13.9967 13.758 14.1073 12.1831 14.2244 10.6082C14.3577 8.80892 14.4952 7.00857 14.6295 5.20927C14.6349 5.14352 14.6231 5.07777 14.6188 5.00367H3.37695L3.37802 5.00263ZM11.9466 3.12296C11.6974 2.76498 11.4717 2.45605 11.2622 2.13564C11.1333 1.93839 10.9689 1.86116 10.7282 1.86324C9.63875 1.87159 8.5482 1.88099 7.45873 1.85907C7.09664 1.85176 6.85812 1.93839 6.68406 2.26297C6.52827 2.5552 6.30908 2.81612 6.09527 3.12296H11.9456H11.9466Z" fill="#363740"/>
</svg>
