<svg width="14" height="16" viewBox="0 0 14 16" fill="none" xmlns="http://www.w3.org/2000/svg">
<path d="M1.12565 4.01259C0.928433 3.99339 0.754613 3.98921 0.585808 3.95748C0.244854 3.89319 -0.000833546 3.58677 2.12532e-06 3.24778C0.000837797 2.90796 0.244854 2.5982 0.58915 2.54309C0.81311 2.50719 1.04459 2.50886 1.27357 2.50635C1.76745 2.50134 2.26049 2.50051 2.75437 2.50802C2.88641 2.50969 2.96831 2.47379 3.04268 2.3594C3.37695 1.84842 3.72375 1.34495 4.06304 0.836469C4.42488 0.291252 4.93548 0.0123808 5.58563 0.00653624C6.53077 -0.00181319 7.47675 -0.00348307 8.4219 0.00653624C9.09461 0.0140507 9.62276 0.307115 9.99379 0.872371C10.3172 1.36582 10.6439 1.8576 10.9607 2.35523C11.0334 2.46962 11.1128 2.50802 11.2465 2.50719C11.8858 2.50051 12.5259 2.50051 13.1652 2.50552C13.4209 2.50802 13.6666 2.55979 13.8304 2.78439C14.0017 3.01817 14.056 3.26782 13.9306 3.54669C13.7936 3.85144 13.5429 3.96583 13.2337 3.99005C13.1242 3.99839 13.0131 3.99172 12.8802 3.99172C12.8535 4.30649 12.825 4.6079 12.8025 4.91015C12.6579 6.8898 12.515 8.87028 12.3704 10.8508C12.2894 11.9654 12.21 13.0801 12.1214 14.1939C12.0395 15.2217 11.188 15.9873 10.0983 15.9923C8.03331 16.0024 5.9692 16.0024 3.90426 15.9923C2.74268 15.9865 1.94461 15.1875 1.86773 14.0294C1.76076 12.4296 1.62956 10.8316 1.5109 9.23181C1.40644 7.81992 1.30616 6.4072 1.20253 4.99448C1.17913 4.66969 1.15072 4.34406 1.12398 4.01175L1.12565 4.01259ZM2.62735 4.00173C2.62735 4.09024 2.62317 4.1587 2.62735 4.22717C2.71844 5.42448 2.81204 6.62095 2.90229 7.81825C3.05605 9.85969 3.20814 11.9011 3.36107 13.9426C3.39199 14.3567 3.55495 14.5061 3.97278 14.5061C4.74411 14.507 5.51543 14.5061 6.28676 14.5061C7.54444 14.5061 8.80296 14.507 10.0606 14.5061C10.4267 14.5061 10.6448 14.3225 10.6715 13.9893C10.7175 13.4149 10.7568 12.8404 10.7969 12.266C10.8863 11.0061 10.9724 9.74614 11.0635 8.48621C11.1671 7.04677 11.274 5.60649 11.3785 4.16705C11.3827 4.11445 11.3735 4.06185 11.3701 4.00257H2.62652L2.62735 4.00173ZM9.29183 2.498C9.09796 2.21162 8.92246 1.96448 8.75951 1.70815C8.65923 1.55034 8.53137 1.48856 8.34418 1.49023C7.49681 1.49691 6.6486 1.50442 5.80123 1.48689C5.51961 1.48104 5.33409 1.55034 5.19871 1.81001C5.07754 2.0438 4.90706 2.25253 4.74077 2.498H9.291H9.29183Z" fill="#363740"/>
</svg>
