<svg width="29" height="29" viewBox="0 0 29 29" fill="none" xmlns="http://www.w3.org/2000/svg">
<circle cx="14.5" cy="14.5" r="14.5" fill="#F1F2F8"/>
<g clip-path="url(#clip0_5348_21012)">
<path d="M9.12565 11.013C8.92843 10.9938 8.75461 10.9896 8.58581 10.9578C8.24485 10.8936 7.99917 10.5871 8 10.2481C8.00084 9.90833 8.24485 9.59856 8.58915 9.54346C8.81311 9.50755 9.04459 9.50922 9.27357 9.50672C9.76745 9.50171 10.2605 9.50087 10.7544 9.50839C10.8864 9.51006 10.9683 9.47416 11.0427 9.35977C11.3769 8.84878 11.7238 8.34531 12.063 7.83683C12.4249 7.29162 12.9355 7.01275 13.5856 7.0069C14.5308 6.99855 15.4768 6.99688 16.4219 7.0069C17.0946 7.01442 17.6228 7.30748 17.9938 7.87274C18.3172 8.36619 18.6439 8.85797 18.9607 9.35559C19.0334 9.46998 19.1128 9.50839 19.2465 9.50755C19.8858 9.50087 20.5259 9.50087 21.1652 9.50588C21.4209 9.50839 21.6666 9.56016 21.8304 9.78475C22.0017 10.0185 22.056 10.2682 21.9306 10.5471C21.7936 10.8518 21.5429 10.9662 21.2337 10.9904C21.1242 10.9988 21.0131 10.9921 20.8802 10.9921C20.8535 11.3069 20.825 11.6083 20.8025 11.9105C20.6579 13.8902 20.515 15.8706 20.3704 17.8511C20.2894 18.9658 20.21 20.0804 20.1214 21.1942C20.0395 22.2221 19.188 22.9877 18.0983 22.9927C16.0333 23.0027 13.9692 23.0027 11.9043 22.9927C10.7427 22.9869 9.94461 22.1878 9.86773 21.0298C9.76076 19.43 9.62956 17.8319 9.5109 16.2322C9.40644 14.8203 9.30616 13.4076 9.20253 11.9948C9.17913 11.6701 9.15072 11.3444 9.12398 11.0121L9.12565 11.013ZM10.6274 11.0021C10.6274 11.0906 10.6232 11.1591 10.6274 11.2275C10.7184 12.4248 10.812 13.6213 10.9023 14.8186C11.0561 16.8601 11.2081 18.9015 11.3611 20.9429C11.392 21.3571 11.5549 21.5065 11.9728 21.5065C12.7441 21.5073 13.5154 21.5065 14.2868 21.5065C15.5444 21.5065 16.803 21.5073 18.0606 21.5065C18.4267 21.5065 18.6448 21.3228 18.6715 20.9897C18.7175 20.4152 18.7568 19.8408 18.7969 19.2664C18.8863 18.0064 18.9724 16.7465 19.0635 15.4866C19.1671 14.0471 19.274 12.6069 19.3785 11.1674C19.3827 11.1148 19.3735 11.0622 19.3701 11.0029H10.6265L10.6274 11.0021ZM17.2918 9.49837C17.098 9.21198 16.9225 8.96484 16.7595 8.70851C16.6592 8.55071 16.5314 8.48892 16.3442 8.49059C15.4968 8.49727 14.6486 8.50479 13.8012 8.48725C13.5196 8.48141 13.3341 8.55071 13.1987 8.81038C13.0775 9.04416 12.9071 9.2529 12.7408 9.49837H17.291H17.2918Z" fill="#9899AA"/>
</g>
<defs>
<clipPath id="clip0_5348_21012">
<rect width="14" height="16" fill="white" transform="translate(8 7)"/>
</clipPath>
</defs>
</svg>
