<svg width="11" height="13" viewBox="0 0 11 13" fill="none" xmlns="http://www.w3.org/2000/svg">
<path d="M0.88444 3.26053C0.729483 3.24492 0.59291 3.24153 0.460277 3.21575C0.192385 3.16352 -0.000654929 2.91455 1.6699e-06 2.63912C0.000658269 2.36302 0.192385 2.11133 0.462904 2.06656C0.638872 2.03739 0.82075 2.03874 1.00066 2.03671C1.38871 2.03264 1.7761 2.03196 2.16415 2.03807C2.26789 2.03942 2.33224 2.01025 2.39068 1.91731C2.65332 1.50214 2.92581 1.09307 3.19239 0.679928C3.47669 0.236939 3.87787 0.010357 4.38871 0.00560824C5.13132 -0.00117567 5.87459 -0.00253245 6.61721 0.00560824C7.14577 0.0117138 7.56074 0.249829 7.85227 0.709099C8.10637 1.11003 8.3631 1.5096 8.61195 1.91392C8.66908 2.00686 8.73145 2.03807 8.83651 2.03739C9.33881 2.03196 9.84176 2.03196 10.3441 2.03603C10.545 2.03807 10.738 2.08013 10.8667 2.26261C11.0013 2.45256 11.044 2.6554 10.9455 2.88198C10.8378 3.1296 10.6408 3.22254 10.3979 3.24221C10.3119 3.24899 10.2246 3.24357 10.1202 3.24357C10.0991 3.49932 10.0768 3.74422 10.0591 3.9898C9.94551 5.59826 9.83323 7.2074 9.71964 8.81655C9.65594 9.7222 9.59357 10.6278 9.52397 11.5328C9.45962 12.3679 8.79055 12.99 7.93434 12.9941C6.31189 13.0022 4.69009 13.0022 3.06763 12.9941C2.15496 12.9893 1.52791 12.3401 1.4675 11.3992C1.38346 10.0994 1.28037 8.80094 1.18713 7.50115C1.10506 6.35399 1.02627 5.20615 0.944848 4.05831C0.926463 3.79442 0.904138 3.52985 0.883127 3.25985L0.88444 3.26053ZM2.06435 3.25171C2.06435 3.32362 2.06107 3.37924 2.06435 3.43487C2.13592 4.40768 2.20946 5.37982 2.28037 6.35263C2.40118 8.0113 2.52068 9.66996 2.64084 11.3286C2.66514 11.6651 2.79317 11.7865 3.12147 11.7865C3.72751 11.7872 4.33355 11.7865 4.9396 11.7865C5.92778 11.7865 6.91661 11.7872 7.9048 11.7865C8.19239 11.7865 8.36376 11.6373 8.38477 11.3666C8.42088 10.8999 8.45174 10.4332 8.48326 9.96642C8.55352 8.94273 8.62115 7.91903 8.69271 6.89534C8.77413 5.7258 8.85818 4.55557 8.94025 3.38603C8.94354 3.34329 8.93631 3.30055 8.93369 3.25239H2.06369L2.06435 3.25171ZM7.30072 2.02993C7.14839 1.79724 7.01051 1.59643 6.88247 1.38817C6.80368 1.25995 6.70322 1.20975 6.55614 1.21111C5.89035 1.21654 5.2239 1.22264 4.55811 1.20839C4.33684 1.20365 4.19107 1.25995 4.0847 1.47093C3.9895 1.66088 3.85555 1.83048 3.72489 2.02993H7.30007H7.30072Z" fill="white"/>
</svg>
