<svg width="14" height="15" viewBox="0 0 14 15" fill="none" xmlns="http://www.w3.org/2000/svg">
<path d="M12.3613 1.875H9.58755V1.40625C9.58755 0.62959 8.91018 0 8.07458 0H6.0573C5.2217 0 4.54434 0.62959 4.54434 1.40625V1.875H1.77057C1.07426 1.875 0.509766 2.39968 0.509766 3.04688V3.98438C0.509766 4.24327 0.735544 4.45312 1.01409 4.45312H13.1178C13.3963 4.45312 13.6221 4.24327 13.6221 3.98438V3.04688C13.6221 2.39968 13.0576 1.875 12.3613 1.875ZM5.55298 1.40625C5.55298 1.14785 5.77929 0.9375 6.0573 0.9375H8.07458C8.35259 0.9375 8.57891 1.14785 8.57891 1.40625V1.875H5.55298V1.40625Z" fill="#24397C"/>
<path d="M1.46619 5.39062C1.3762 5.39062 1.30449 5.46053 1.30878 5.54408L1.72484 13.6605C1.7633 14.4117 2.42711 15 3.23591 15H10.8947C11.7035 15 12.3673 14.4117 12.4057 13.6605L12.8218 5.54408C12.8261 5.46053 12.7544 5.39062 12.6644 5.39062H1.46619ZM9.08257 6.5625C9.08257 6.30352 9.30826 6.09375 9.58689 6.09375C9.86553 6.09375 10.0912 6.30352 10.0912 6.5625V12.6562C10.0912 12.9152 9.86553 13.125 9.58689 13.125C9.30826 13.125 9.08257 12.9152 9.08257 12.6562V6.5625ZM6.56097 6.5625C6.56097 6.30352 6.78665 6.09375 7.06529 6.09375C7.34392 6.09375 7.56961 6.30352 7.56961 6.5625V12.6562C7.56961 12.9152 7.34392 13.125 7.06529 13.125C6.78665 13.125 6.56097 12.9152 6.56097 12.6562V6.5625ZM4.03936 6.5625C4.03936 6.30352 4.26504 6.09375 4.54368 6.09375C4.82232 6.09375 5.048 6.30352 5.048 6.5625V12.6562C5.048 12.9152 4.82232 13.125 4.54368 13.125C4.26504 13.125 4.03936 12.9152 4.03936 12.6562V6.5625Z" fill="#24397C"/>
</svg>
