<svg id="b1ef7e6e-7c88-46af-a714-32cdc8e7a7bc" data-name="Capa 1" xmlns="http://www.w3.org/2000/svg" viewBox="0 0 512 512"><path d="M469.87,159.9a10,10,0,0,0,0-14.15L416.61,92.59a10,10,0,0,0-14.13,0L375.1,119.92a212.16,212.16,0,0,0-81-32.62,51.93,51.93,0,1,0-76.2,0,212.16,212.16,0,0,0-81,32.62L109.51,92.59a10,10,0,0,0-14.13,0L42.13,145.75a10,10,0,0,0,0,14.15L71.3,189A214.27,214.27,0,0,0,256,512.24,214.22,214.22,0,0,0,440.7,189Zm-60.32-46.1,39.1,39L429.44,172A218.48,218.48,0,0,0,391.36,132ZM256.36,20.24a31.84,31.84,0,0,1,10,62.11V59.56a10.19,10.19,0,0,0-8.52-10.21,10,10,0,0,0-11.48,9.89V82.35a31.85,31.85,0,0,1,10-62.11Zm-193,132.59,39.1-39L120.64,132A218.48,218.48,0,0,0,82.56,172ZM256,492.24c-107.25,0-194.51-87.09-194.51-194.14S148.75,104,256,104,450.51,191.05,450.51,298.1,363.25,492.24,256,492.24Z"/><path d="M256,461.48c-90.24,0-163.66-73.29-163.66-163.38S165.76,134.71,256,134.71,419.66,208,419.66,298.1,346.24,461.48,256,461.48ZM256,156c-78.48,0-142.33,63.73-142.33,142.06s63.85,142,142.33,142,142.33-63.73,142.33-142S334.48,156,256,156Z"/><path d="M246.36,185.75V183a10.2,10.2,0,0,1,8.52-10.2,10,10,0,0,1,11.48,9.89v3.41A10,10,0,0,1,254.88,196,10.2,10.2,0,0,1,246.36,185.75Z"/><path d="M246.36,413.23v-2.79a10.2,10.2,0,0,1,8.52-10.2,10,10,0,0,1,11.48,9.89v3.41a10,10,0,0,1-11.48,9.9A10.22,10.22,0,0,1,246.36,413.23Z"/><path d="M371.45,308.32h-3.1a10.21,10.21,0,0,1-10.21-8.52A10,10,0,0,1,368,288.32h3.1a10.2,10.2,0,0,1,10.21,8.51A10,10,0,0,1,371.45,308.32Z"/><path d="M144,308.32h-3.09a10.2,10.2,0,0,1-10.21-8.52,10,10,0,0,1,9.89-11.48h3.1a10.2,10.2,0,0,1,10.21,8.51A10,10,0,0,1,144,308.32Z"/><path d="M335.22,228.88a10,10,0,0,1-7.07-17.08l2.41-2.41a10,10,0,1,1,14.14,14.14L342.29,226A10,10,0,0,1,335.22,228.88Z"/><path d="M174.37,389.73a10,10,0,0,1-7.07-17.07l2.41-2.42a10,10,0,0,1,14.14,14.15l-2.41,2.41A10,10,0,0,1,174.37,389.73Z"/><path d="M337.63,389.73a10,10,0,0,1-7.07-2.93l-2.41-2.41a10,10,0,0,1,14.14-14.15l2.41,2.42a10,10,0,0,1-7.07,17.07Z"/><path d="M176.78,228.88a10,10,0,0,1-7.07-2.93l-2.41-2.42a10,10,0,1,1,14.14-14.14l2.41,2.41a10,10,0,0,1-7.07,17.08Z"/><path d="M315.67,286.32H290.39a34.67,34.67,0,0,0-23-23v-31a10.21,10.21,0,0,0-8.52-10.21,10,10,0,0,0-11.48,9.9v31.3a34.51,34.51,0,1,0,43,43h25a10.22,10.22,0,0,0,10.21-8.52,10,10,0,0,0-9.9-11.48ZM257.5,311.11A14.51,14.51,0,1,1,272,296.6,14.53,14.53,0,0,1,257.5,311.11Z"/></svg>