<svg width="25" height="22" viewBox="0 0 25 22" fill="none" xmlns="http://www.w3.org/2000/svg">
<g clip-path="url(#clip0_10595_32127)">
<path d="M1.51494 7.06585C0.816592 7.0213 0.348851 6.69368 0.10521 6.07777C0.0348531 5.90086 0.00749227 5.69642 0.00488648 5.5051C-0.00423381 4.52094 -0.000325114 3.5381 0.000977784 2.55656C0.00228068 0.991872 0.985968 0.00247531 2.54945 0.00116485C5.07837 -0.00145607 7.60729 0.00116485 10.1362 0.00116485C14.2169 0.00116485 18.2989 0.00116485 22.3795 0.00116485C24.0499 0.00116485 24.9997 0.961732 24.9997 2.64698C24.9997 3.56431 24.9997 4.48163 24.9997 5.39764C24.9997 6.35821 24.5358 6.90467 23.5965 7.04882C23.5535 7.05537 23.5118 7.06454 23.4362 7.07896V7.46292C23.4362 11.2292 23.4388 14.9954 23.4362 18.7617C23.4349 20.2989 22.4799 21.5399 21.0219 21.8924C20.7301 21.9632 20.4213 21.9933 20.1203 21.9933C15.0403 21.9999 9.96163 21.9999 4.88163 21.9959C2.91295 21.9959 1.57358 20.637 1.56576 18.6608C1.55143 14.9273 1.53319 11.1938 1.51755 7.4603C1.51755 7.34105 1.51755 7.22311 1.51755 7.06454L1.51494 7.06585ZM3.89143 7.07634V7.40919C3.89143 11.1755 3.89143 14.943 3.89143 18.7093C3.89143 19.3816 4.16504 19.6568 4.84515 19.6568C9.9473 19.6581 15.0494 19.6581 20.1516 19.6568C20.8434 19.6568 21.1066 19.3816 21.1066 18.6778C21.1066 14.9325 21.1066 11.1886 21.1066 7.44327V7.07634H3.89273H3.89143ZM2.3514 2.35344V4.70047H22.644V2.35344H2.3514Z" fill="#363740"/>
<path d="M12.4604 11.7772C11.3321 11.7772 10.2051 11.7811 9.0768 11.7759C8.58952 11.7733 8.18953 11.6055 7.96282 11.1311C7.75045 10.6856 7.77911 10.2702 8.06966 9.87047C8.30418 9.5481 8.64684 9.44326 9.01166 9.44195C11.3217 9.43278 13.6317 9.43147 15.9418 9.44195C16.4512 9.44457 16.8629 9.65031 17.0805 10.1601C17.2759 10.6161 17.1704 11.0158 16.872 11.3749C16.5984 11.7051 16.2102 11.7733 15.8128 11.7759C14.6962 11.7837 13.5783 11.7785 12.4617 11.7785L12.4604 11.7772Z" fill="#363740"/>
</g>
<defs>
<clipPath id="clip0_10595_32127">
<rect width="25" height="22" fill="white"/>
</clipPath>
</defs>
</svg>
