<svg id="fe9d69ff-cb60-4bc0-8d27-1e2b1c6887dc"  width="25" height="30" data-name="Capa 1" xmlns="http://www.w3.org/2000/svg" viewBox="0 0 512 512"><path d="M445.86,422.84c4.69-5.3,9.22-10.88,13.44-16.56A16,16,0,0,0,456,383.89h0a16,16,0,0,0-22.39,3.29c-3.7,5-7.65,9.84-11.75,14.47a16,16,0,1,0,24,21.19Z"/><path d="M491,290.79h0a16.67,16.67,0,0,0-3.43-.37A16,16,0,0,0,472,303c-1.32,6.07-2.92,12.13-4.74,18a16,16,0,0,0,30.58,9.44c2.09-6.76,3.91-13.71,5.43-20.65A16,16,0,0,0,491,290.79Z"/><path d="M347.45,456.61a16,16,0,1,0,13.17,29.17c6.45-2.92,12.87-6.15,19.07-9.61a16,16,0,0,0-15.6-27.94h0C358.68,451.25,353.08,454.07,347.45,456.61Z"/><path d="M256,80a16,16,0,0,0-16,16V249.37l-74.51,74.51a16,16,0,1,0,22.63,22.63l79.19-79.2A15.86,15.86,0,0,0,272,256V96A16,16,0,0,0,256,80Z"/><path d="M508,122V63a16,16,0,0,0-32,0v69.25l-7.37-11.56A252.58,252.58,0,0,0,256,4,252,252,0,0,0,77.81,434.19,250.34,250.34,0,0,0,256,508l.41,0h.18l.41,0h.11c7.06,0,14.19-.3,21.19-.89a16,16,0,0,0-2.67-31.89c-6.16.52-12.43.78-18.63.78l-.41,0h-.18l-.42,0c-121.3,0-220-98.69-220-220S134.69,36,256,36A221.14,221.14,0,0,1,445.38,144l3.58,6h-62a16,16,0,0,0,0,32H448a59.73,59.73,0,0,0,31.19-8.77l.11-.06a16.71,16.71,0,0,0,1.43-.92l.15-.1A59.91,59.91,0,0,0,508,122Z"/></svg>