<svg width="15" height="17" viewBox="0 0 15 17" fill="none" xmlns="http://www.w3.org/2000/svg">
<path d="M14.7949 3.99247L11.001 0.211712C10.7122 -0.0770963 10.2527 -0.0639686 9.97701 0.211712C9.6882 0.50052 9.70133 0.959988 9.97701 1.23567L12.5238 3.7693H0.72202C0.315063 3.7693 0 4.09749 0 4.49132C0 4.89828 0.328191 5.21334 0.72202 5.21334H12.5106L9.96388 7.74698C9.67507 8.03579 9.67507 8.49525 9.96388 8.77093C10.2527 9.05974 10.7122 9.05974 10.9878 8.77093L14.7817 4.99017C15.0705 4.74075 15.0705 4.28128 14.7949 3.99247Z" fill="#FF8D24"/>
<path d="M0.211712 12.0529L4.0056 15.8336C4.29441 16.1224 4.75388 16.1093 5.02956 15.8336C5.31836 15.5448 5.30524 15.0854 5.02956 14.8097L2.48279 12.276H14.2714C14.6784 12.276 14.9934 11.9478 14.9934 11.554C14.9934 11.1471 14.6652 10.832 14.2714 10.832H2.48279L5.02956 8.29836C5.31836 8.00955 5.31836 7.55009 5.02956 7.27441C4.74075 6.9856 4.28128 6.9856 4.0056 7.27441L0.211712 11.0552C-0.0770963 11.3046 -0.0639686 11.7641 0.211712 12.0529Z" fill="#FF8D24"/>
</svg>
