<svg width="24" height="16" viewBox="0 0 24 16" fill="none" xmlns="http://www.w3.org/2000/svg">
<path d="M19 16H5.99998C2.87435 16.0019 0.27087 13.6038 0.0163398 10.4886C-0.23819 7.37335 1.9415 4.58454 5.02598 4.079C6.44569 1.56189 9.11009 0.0035109 12 -5.78418e-05C13.802 -0.00686929 15.5524 0.6013 16.962 1.724C18.3461 2.82186 19.3301 4.34497 19.762 6.058C22.3459 6.45503 24.1878 8.77552 23.988 11.3821C23.7882 13.9887 21.6142 16.0014 19 16ZM12 1.99999C9.83169 2.00255 7.83265 3.1721 6.76798 5.061L6.29998 5.9L5.35098 6.055C3.30126 6.3984 1.85599 8.2543 2.02519 10.3257C2.19439 12.3971 3.9217 13.9938 5.99998 14H19C20.5686 14.0016 21.8736 12.7946 21.9942 11.2307C22.1148 9.66673 21.0103 8.2739 19.46 8.035L18.144 7.835L17.822 6.543C17.1573 3.86981 14.7546 1.99496 12 1.99999ZM12 12L7.99998 8H10.55V5H13.45V8H16L12 12Z" fill="#24397C"/>
</svg>
