<svg width="21" height="21" viewBox="0 0 21 21" fill="none" xmlns="http://www.w3.org/2000/svg">
<path d="M19.1046 1.96986C18.4312 1.29647 17.5358 0.925612 16.5835 0.925612L4.56552 0.925537C2.59946 0.925649 1 2.52515 1.00004 4.49105L1 16.509C1.00004 18.475 2.59953 20.0745 4.56555 20.0745H16.5835C18.5495 20.0745 20.1489 18.475 20.1489 16.509V4.49109C20.1489 3.53869 19.7781 2.64329 19.1046 1.96986ZM19.0269 16.509C19.0269 17.8563 17.9308 18.9525 16.5835 18.9525H4.56555C3.21821 18.9525 2.12205 17.8563 2.12201 16.509L2.12205 4.49102C2.12201 3.14375 3.21817 2.04762 4.56555 2.04755L16.5835 2.04762C17.2361 2.04762 17.8498 2.30175 18.3113 2.76324C18.7728 3.22476 19.0269 3.83838 19.0269 4.49109V16.509Z" fill="#A7A7A7" stroke="#A7A7A7" stroke-width="0.5"/>
<path d="M13.9454 9.06012C13.7263 8.84107 13.3711 8.84103 13.152 9.06012L11.1355 11.0767L11.1354 5.09225C11.1354 4.78243 10.8842 4.53125 10.5744 4.53125C10.2646 4.53125 10.0134 4.78243 10.0134 5.09225L10.0135 11.0769L7.99675 9.0602C7.7777 8.84111 7.42247 8.84111 7.20338 9.0602C6.98429 9.27929 6.98429 9.63448 7.20338 9.85357L10.1778 12.8279C10.283 12.9331 10.4256 12.9922 10.5744 12.9922C10.7232 12.9922 10.8659 12.9331 10.9711 12.8279L13.9454 9.85349C14.1645 9.6344 14.1645 9.27921 13.9454 9.06012Z" fill="#A7A7A7" stroke="#A7A7A7" stroke-width="0.5"/>
<path d="M15.9826 15.3474H5.16647C4.85665 15.3474 4.60547 15.5986 4.60547 15.9084C4.60547 16.2182 4.85665 16.4694 5.16647 16.4694H15.9826C16.2925 16.4694 16.5436 16.2182 16.5436 15.9084C16.5436 15.5986 16.2925 15.3474 15.9826 15.3474Z" fill="#A7A7A7" stroke="#A7A7A7" stroke-width="0.5"/>
</svg>
