<svg width="17" height="15" viewBox="0 0 17 15" fill="none" xmlns="http://www.w3.org/2000/svg">
<g clip-path="url(#clip0_16085_39636)">
<path d="M8.50676 14.9996C6.43257 14.9996 4.35838 15.0005 2.2842 14.9987C1.88211 14.9987 1.49243 14.9371 1.13286 14.7344C0.404855 14.3246 0.0142841 13.688 0.0107416 12.862C-0.00431445 9.28948 -0.0016575 5.71605 0.00719897 2.14352C0.0107416 0.946124 0.951299 0.023748 2.17349 0.00946143C3.4506 -0.00571805 4.7277 0.00321106 6.0048 0.00767561C6.60704 0.00946143 7.11895 0.228224 7.55557 0.656821C8.04268 1.13364 8.54927 1.59081 9.05674 2.0453C9.12848 2.10959 9.25247 2.1453 9.35255 2.1453C11.1318 2.15155 12.9102 2.14887 14.6895 2.14977C16.1003 2.14977 17.001 3.05786 17.001 4.47848C17.001 7.24739 17.0019 10.0163 17.001 12.7852C17.001 13.838 16.358 14.6827 15.3661 14.9246C15.1535 14.9764 14.9286 14.9952 14.7089 14.9961C12.6418 15.0014 10.5756 14.9987 8.50853 14.9987L8.50676 14.9996ZM8.50321 13.404C10.5925 13.404 12.6808 13.404 14.7701 13.404C15.2182 13.404 15.4166 13.2183 15.4166 12.8013C15.4175 9.98059 15.4166 7.15899 15.4157 4.33829C15.4157 4.25079 15.4033 4.15882 15.3732 4.07756C15.2669 3.78915 15.0242 3.7454 14.7594 3.7454C12.7738 3.7454 10.7882 3.74272 8.80256 3.74986C8.59709 3.74986 8.44565 3.69986 8.2942 3.55342C7.69462 2.96946 7.07821 2.40157 6.4742 1.82207C6.31389 1.66849 6.13765 1.59973 5.91712 1.60063C4.69936 1.60509 3.48159 1.60241 2.26383 1.60331C1.76167 1.60331 1.58631 1.78189 1.58631 2.28728C1.58631 5.75623 1.58631 9.22429 1.58631 12.6933C1.58631 13.2424 1.75015 13.4058 2.3028 13.4058C4.3699 13.4058 6.43611 13.4058 8.50321 13.4058V13.404Z" fill="#363740"/>
<path d="M9.15832 9.38387C8.93159 9.38387 8.70487 9.38387 8.47814 9.38387C7.60755 9.38387 6.73607 9.38744 5.86548 9.38297C5.29424 9.3794 4.93378 8.90884 5.07283 8.36238C5.16051 8.0195 5.47491 7.79092 5.87611 7.79002C6.8946 7.78824 7.9131 7.79002 8.93159 7.79002C9.00864 7.79002 9.08658 7.79002 9.22474 7.79002C8.78723 7.33642 8.38603 6.93551 8.00343 6.51673C7.88387 6.38547 7.78114 6.21671 7.72888 6.04795C7.63146 5.73365 7.74483 5.45863 7.99546 5.25684C8.26824 5.03718 8.59062 5.02289 8.882 5.20415C8.97499 5.26219 9.0609 5.3363 9.13795 5.41399C9.95894 6.23814 10.7782 7.06409 11.5965 7.89092C12.0314 8.33023 12.0314 8.77133 11.6 9.21332C10.7711 10.0607 9.94212 10.909 9.11049 11.7537C8.88111 11.9867 8.6163 12.1314 8.27444 12.0269C7.6722 11.8429 7.4871 11.1509 7.92638 10.6964C8.33732 10.2705 8.76066 9.85622 9.17869 9.43744L9.15743 9.38476L9.15832 9.38387Z" fill="#363740"/>
</g>
<defs>
<clipPath id="clip0_16085_39636">
<rect width="17" height="15" fill="white"/>
</clipPath>
</defs>
</svg>