<svg width="16" height="16" viewBox="0 0 16 16" fill="none" xmlns="http://www.w3.org/2000/svg">
<g clip-path="url(#clip0_1582_22666)">
<path d="M8.9277 2.95703C10.3077 4.3394 11.6663 5.70031 13.0385 7.07477C12.9832 7.1335 12.9167 7.20917 12.8457 7.28032C10.5975 9.53344 8.35607 11.7922 6.0921 14.0295C5.80798 14.3096 5.43816 14.5445 5.06497 14.6846C3.89014 15.1228 2.69276 15.5011 1.50666 15.9122C1.0365 16.0748 0.629483 16.0297 0.276583 15.6479C0.021774 15.3724 -0.0650416 15.0584 0.0499608 14.7128C0.493059 13.3779 0.938411 12.0441 1.41195 10.7193C1.50666 10.455 1.69495 10.2043 1.89451 10.0033C4.20132 7.67673 6.51941 5.36036 8.83412 3.04286C8.86682 3.01011 8.90289 2.98188 8.92883 2.95929L8.9277 2.95703Z" fill="#363740"/>
<path d="M9.97852 1.94931C10.4036 1.5111 10.8309 0.992717 11.336 0.565809C12.3068 -0.255254 13.6191 -0.166033 14.52 0.725052C14.7669 0.969 15.0161 1.21182 15.2551 1.46367C16.2292 2.49254 16.2495 3.77778 15.2923 4.82133C14.8932 5.25615 14.4568 5.65821 14.0667 6.04559C12.7036 4.68016 11.3416 3.31586 9.97852 1.94931Z" fill="#363740"/>
</g>
<defs>
<clipPath id="clip0_1582_22666">
<rect width="16" height="16" fill="white"/>
</clipPath>
</defs>
</svg>
