<svg width="15" height="14" viewBox="0 0 15 14" fill="none" xmlns="http://www.w3.org/2000/svg">
<g id="Frame" clip-path="url(#clip0_2533_18323)">
<path id="Vector" d="M7.84751 2.58789C9.06057 3.79746 10.2548 4.98826 11.4609 6.19091C11.4124 6.2423 11.3539 6.30851 11.2914 6.37077C9.31527 8.34225 7.34505 10.3187 5.355 12.2763C5.10525 12.5214 4.78019 12.7269 4.45215 12.8495C3.41946 13.2329 2.36696 13.564 1.32436 13.9237C0.911093 14.066 0.55332 14.0264 0.243119 13.6924C0.0191395 13.4513 -0.0571721 13.1766 0.0439159 12.8742C0.433402 11.7061 0.82487 10.539 1.24112 9.37987C1.32436 9.14863 1.48987 8.92925 1.66529 8.75335C3.693 6.71763 5.73061 4.69081 7.76526 2.66299C7.794 2.63434 7.82571 2.60963 7.84851 2.58987L7.84751 2.58789Z" fill="#9899AA"/>
<path id="Vector_2" d="M8.77344 1.70564C9.14707 1.32222 9.52268 0.868627 9.96667 0.495083C10.82 -0.223347 11.9736 -0.145279 12.7654 0.634421C12.9825 0.847875 13.2015 1.06034 13.4116 1.28071C14.2679 2.18097 14.2857 3.30556 13.4443 4.21867C13.0935 4.59913 12.7099 4.95093 12.367 5.28989C11.1688 4.09514 9.97163 2.90138 8.77344 1.70564Z" fill="#9899AA"/>
</g>
<defs>
<clipPath id="clip0_2533_18323">
<rect width="14.0641" height="14" fill="white"/>
</clipPath>
</defs>
</svg>
