<svg width="20" height="20" viewBox="0 0 20 20" fill="none" xmlns="http://www.w3.org/2000/svg">
<path d="M6.66671 16.6666V17.4166C6.86562 17.4166 7.05639 17.3376 7.19704 17.197L6.66671 16.6666ZM3.33337 16.6666H2.58337C2.58337 17.0808 2.91916 17.4166 3.33337 17.4166V16.6666ZM3.33337 13.3333L2.80304 12.803C2.66239 12.9436 2.58337 13.1344 2.58337 13.3333H3.33337ZM12.7441 3.92254L13.2744 4.45287V4.45287L12.7441 3.92254ZM13.9226 3.92254L13.3923 4.45287V4.45287L13.9226 3.92254ZM16.0775 6.07737L16.6078 5.54704V5.54704L16.0775 6.07737ZM16.0775 7.25588L15.5471 6.72555L16.0775 7.25588ZM6.66671 15.9166H3.33337V17.4166H6.66671V15.9166ZM4.08337 16.6666V13.3333H2.58337V16.6666H4.08337ZM3.8637 13.8636L13.2744 4.45287L12.2138 3.39221L2.80304 12.803L3.8637 13.8636ZM13.3923 4.45287L15.5471 6.6077L16.6078 5.54704L14.453 3.39221L13.3923 4.45287ZM15.5471 6.72555L6.13638 16.1363L7.19704 17.197L16.6078 7.78621L15.5471 6.72555ZM15.5471 6.6077C15.5797 6.64024 15.5797 6.693 15.5471 6.72555L16.6078 7.78621C17.2261 7.16788 17.2261 6.16537 16.6078 5.54704L15.5471 6.6077ZM13.2744 4.45287C13.307 4.42033 13.3598 4.42033 13.3923 4.45287L14.453 3.39221C13.8346 2.77388 12.8321 2.77388 12.2138 3.39221L13.2744 4.45287Z" fill="#363740"/>
<path d="M10 6.66663L13.3333 9.99996" stroke="#363740" stroke-width="1.5" stroke-linecap="round" stroke-linejoin="round"/>
</svg>
