<svg width="19" height="22" viewBox="0 0 19 22" fill="none" xmlns="http://www.w3.org/2000/svg">
<g clip-path="url(#clip0_1301_16051)">
<path d="M10.5971 0.0175364C10.5971 1.82536 10.6274 3.60109 10.5844 5.37682C10.563 6.25494 11.2504 6.8992 12.255 6.88773C14.0873 6.8671 15.9196 6.882 17.7506 6.882H18.179V7.19267C18.179 11.396 18.179 15.5994 18.179 19.8027C18.179 21.1176 17.2173 21.9992 15.7629 22.0015C11.3115 22.0061 6.85878 22.0061 2.40484 22.0015C0.95417 22.0015 0.00390625 21.1153 0.00390625 19.7947C0.00390625 13.9306 0.00390625 8.06696 0.00390625 2.20366C0.00390625 0.913997 0.947856 0.02556 2.36188 0.0129499C5.04587 -0.00080653 7.72985 0.0129499 10.4151 0.0129499C10.4619 0.00377895 10.5124 0.0106582 10.5971 0.0175364ZM9.08954 12.5267C8.66622 11.9008 8.26943 11.3276 7.88908 10.7453C7.80905 10.5984 7.68139 10.4773 7.52327 10.3982C7.36515 10.3191 7.18412 10.2858 7.00452 10.3028C6.68987 10.3177 6.3727 10.3028 6.05805 10.3028C5.71307 10.3028 5.41485 10.3807 5.2253 10.6719C5.03576 10.9631 5.14443 11.2141 5.32008 11.4744C6.01635 12.4969 6.69998 13.5275 7.40383 14.5455C7.4639 14.6143 7.49658 14.6996 7.49658 14.7874C7.49658 14.8752 7.4639 14.9604 7.40383 15.0293C6.69619 16.061 6.02646 17.1065 5.2986 18.1245C4.89676 18.6839 5.32134 19.2823 6.01003 19.2708C6.36764 19.2628 6.72652 19.2639 7.08413 19.2708C7.24252 19.2791 7.40015 19.2455 7.53804 19.1744C7.67592 19.1032 7.78818 18.9973 7.86128 18.8696C8.21384 18.3377 8.57397 17.8115 8.93285 17.283C8.97961 17.2154 9.03773 17.1535 9.10723 17.0675C9.51792 17.6739 9.91471 18.2471 10.2938 18.8295C10.3747 18.9757 10.5025 19.0962 10.6604 19.1752C10.8183 19.2542 10.9989 19.288 11.1784 19.272C11.493 19.2571 11.8102 19.272 12.1248 19.272C12.4685 19.272 12.768 19.194 12.9576 18.9028C13.1471 18.6117 13.0384 18.3606 12.8628 18.1004C12.1602 17.0686 11.4728 16.0369 10.7626 15.0052C10.7094 14.943 10.6806 14.8666 10.6806 14.7879C10.6806 14.7093 10.7094 14.6328 10.7626 14.5707C11.4627 13.5287 12.1526 12.4797 12.8426 11.4308C13.2419 10.8255 12.9272 10.3246 12.1425 10.3142C11.8279 10.3142 11.5107 10.3268 11.196 10.3142C10.7664 10.2913 10.4846 10.4575 10.2723 10.79C9.9008 11.3528 9.50402 11.918 9.08954 12.5267Z" fill="#29CC97"/>
<path d="M12.1445 5.46836V0.183594L17.97 5.46836H12.1445Z" fill="#29CC97"/>
</g>
<defs>
<clipPath id="clip0_1301_16051">
<rect width="18.1801" height="22" fill="white"/>
</clipPath>
</defs>
</svg>
