<svg width="21" height="21" viewBox="0 0 21 21" fill="none" xmlns="http://www.w3.org/2000/svg">
<path d="M18.9638 2.03621C18.2956 1.36805 17.4072 1.00007 16.4623 1.00007L4.53779 1C2.58702 1.00011 1 2.58717 1.00004 4.53779L1 16.4623C1.00004 18.413 2.58709 20 4.53782 20H16.4623C18.413 20 20 18.413 20 16.4623V4.53782C20 3.59283 19.632 2.7044 18.9638 2.03621ZM18.8867 16.4623C18.8867 17.7991 17.7991 18.8867 16.4623 18.8867H4.53782C3.20096 18.8867 2.11332 17.7991 2.11328 16.4623L2.11332 4.53775C2.11328 3.20096 3.20092 2.11336 4.53782 2.11328L16.4623 2.11336C17.1098 2.11336 17.7187 2.36551 18.1766 2.82341C18.6346 3.28134 18.8867 3.89019 18.8867 4.53782V16.4623Z" fill="white" stroke="white" stroke-width="0.3"/>
<path d="M13.8448 9.07129C13.6274 8.85394 13.275 8.8539 13.0576 9.07129L11.0567 11.0722L11.0567 5.13428C11.0567 4.82686 10.8075 4.57764 10.5 4.57764C10.1926 4.57764 9.94341 4.82686 9.94341 5.13428L9.94344 11.0723L7.94243 9.07136C7.72508 8.85397 7.37261 8.85397 7.15523 9.07136C6.93784 9.28875 6.93784 9.64117 7.15523 9.85856L10.1065 12.8097C10.2109 12.9141 10.3524 12.9728 10.5 12.9728C10.6477 12.9728 10.7893 12.9141 10.8937 12.8097L13.8448 9.85849C14.0622 9.6411 14.0622 9.28867 13.8448 9.07129Z" fill="white" stroke="white" stroke-width="0.3"/>
<path d="M15.8668 15.3097H5.13477C4.82735 15.3097 4.57812 15.5589 4.57812 15.8663C4.57812 16.1737 4.82735 16.423 5.13477 16.423H15.8668C16.1742 16.423 16.4234 16.1737 16.4234 15.8663C16.4234 15.5589 16.1742 15.3097 15.8668 15.3097Z" fill="white" stroke="white" stroke-width="0.3"/>
</svg>
