<svg width="26" height="17" viewBox="0 0 26 17" fill="none" xmlns="http://www.w3.org/2000/svg">
<path d="M25.7898 8.08458C23.0653 3.04789 18.2873 0 13 0C7.71269 0 2.92662 3.04789 0.226368 8.08458L0 8.46455L0.210199 8.85261C2.9347 13.8893 7.71269 16.9372 13 16.9372C18.2873 16.9372 23.0734 13.9297 25.7898 8.85261L26 8.46455L25.7898 8.08458ZM13 15.2799C8.44838 15.2799 4.26866 12.7413 1.84328 8.46455C4.26866 4.18781 8.44838 1.64925 13 1.64925C17.5516 1.64925 21.6828 4.19589 24.1486 8.46455C21.6828 12.7413 17.5435 15.2799 13 15.2799Z" fill="#24397C"/>
<path d="M13.236 2.94351C12.1398 2.95151 11.0706 3.28417 10.1634 3.89949C9.25619 4.51481 8.55167 5.38518 8.13882 6.40067C7.72598 7.41616 7.62333 8.53122 7.84384 9.60501C8.06435 10.6788 8.59813 11.6632 9.37776 12.4338C10.1574 13.2044 11.1479 13.7267 12.2242 13.9347C13.3005 14.1426 14.4143 14.027 15.4249 13.6024C16.4355 13.1777 17.2976 12.4631 17.9023 11.5488C18.507 10.6345 18.8272 9.56146 18.8225 8.46527C18.8193 7.73559 18.6722 7.0137 18.3895 6.34098C18.1068 5.66827 17.6942 5.05794 17.1752 4.54498C16.6563 4.03203 16.0412 3.62652 15.3652 3.35171C14.6892 3.0769 13.9657 2.93818 13.236 2.94351ZM13.236 12.4186C12.4617 12.4106 11.707 12.1741 11.0668 11.7386C10.4265 11.3031 9.92918 10.6881 9.63728 9.9709C9.34538 9.25369 9.2719 8.46621 9.42609 7.70738C9.58027 6.94855 9.95524 6.2522 10.5039 5.70577C11.0525 5.15935 11.7504 4.78723 12.5099 4.63615C13.2693 4.48506 14.0565 4.56175 14.7725 4.85658C15.4885 5.15141 16.1015 5.65123 16.5343 6.29327C16.9672 6.93532 17.2007 7.69095 17.2055 8.46527C17.2077 8.9864 17.1064 9.50278 16.9075 9.98445C16.7085 10.4661 16.416 10.9035 16.0467 11.2713C15.6775 11.639 15.2389 11.9298 14.7564 12.1267C14.2739 12.3237 13.7571 12.4229 13.236 12.4186Z" fill="#24397C"/>
</svg>
