<svg width="17" height="13" viewBox="0 0 17 13" fill="none" xmlns="http://www.w3.org/2000/svg">
<path d="M8.4987 12.0417C7.20027 12.0578 5.91525 11.7776 4.74145 11.2223C3.83158 10.7783 3.01455 10.1652 2.33399 9.41571C1.61312 8.64076 1.04553 7.73631 0.661198 6.75017L0.582031 6.5L0.665156 6.24983C1.04976 5.26455 1.61613 4.36034 2.33478 3.58429C3.01509 2.83483 3.83185 2.22172 4.74145 1.77771C5.91526 1.22242 7.20027 0.942191 8.4987 0.958332C9.79712 0.942218 11.0821 1.22245 12.2559 1.77771C13.1658 2.22162 13.9829 2.83474 14.6634 3.58429C15.3856 4.35819 15.9534 5.26291 16.3362 6.24983L16.4154 6.5L16.3322 6.75017C15.0903 9.98316 11.9616 12.0966 8.4987 12.0417ZM8.4987 2.54167C5.80376 2.45722 3.33024 4.02612 2.25799 6.5C3.33006 8.97403 5.8037 10.543 8.4987 10.4583C11.1936 10.5426 13.667 8.97373 14.7394 6.5C13.6686 4.02492 11.1941 2.45544 8.4987 2.54167ZM8.4987 8.875C7.35658 8.88256 6.36861 8.08124 6.1403 6.96215C5.91198 5.84306 6.50708 4.71877 7.56088 4.27831C8.61467 3.83786 9.83284 4.20427 10.4688 5.15298C11.1047 6.10169 10.9809 7.36773 10.1731 8.17517C9.73078 8.62266 9.12788 8.87465 8.4987 8.875Z" fill="#363740"/>
</svg>
