<svg width="20" height="18" viewBox="0 0 20 18" fill="none" xmlns="http://www.w3.org/2000/svg">
<g clip-path="url(#clip0_8016_24297)">
<path d="M18.5451 16.4758C16.4681 18.4465 13.4803 18.5474 11.4449 16.52C9.43318 14.5163 9.43857 11.4835 11.4825 9.43174C13.5017 7.40458 16.5342 7.347 18.5702 9.37503C20.5819 11.3788 20.5326 14.3676 18.5458 16.4751L18.5451 16.4758ZM14.418 13.5299C14.422 13.6177 14.4269 13.6784 14.4271 13.7399C14.4322 14.2676 14.4299 14.7961 14.4422 15.3232C14.4504 15.6613 14.6604 15.8673 14.9762 15.8718C15.311 15.8768 15.5192 15.6765 15.542 15.3217C15.5516 15.1743 15.5493 15.027 15.553 14.879C15.5626 14.4311 15.5729 13.9838 15.5833 13.522C16.1911 13.5086 16.7725 13.5007 17.3539 13.4822C17.7292 13.4704 17.9348 13.2636 17.9331 12.9214C17.9314 12.5951 17.722 12.3924 17.3667 12.3803C17.1805 12.3736 16.9942 12.3775 16.8072 12.3755C16.4063 12.3722 16.0047 12.3684 15.5978 12.3645C15.5938 12.2767 15.5889 12.2159 15.5886 12.1545C15.5836 11.6267 15.5859 11.0983 15.5736 10.5712C15.5654 10.233 15.3554 10.0271 15.0396 10.0226C14.7048 10.0176 14.4966 10.2178 14.4737 10.5727C14.4642 10.7201 14.4665 10.8674 14.4628 11.0154C14.4532 11.4633 14.4429 11.9106 14.4332 12.3665C14.3301 12.3711 14.2534 12.3756 14.1768 12.3775C13.672 12.3888 13.1673 12.3975 12.6632 12.4109C12.4227 12.4178 12.2194 12.4925 12.1252 12.7441C11.9778 13.1422 12.2178 13.5032 12.6498 13.5121C13.231 13.5241 13.813 13.5234 14.418 13.5285L14.418 13.5299Z" fill="#5D6273"/>
<path d="M2.01439 1.70246C2.37999 2.16617 2.72517 2.60448 3.07127 3.04186C4.53365 4.89199 5.99231 6.744 7.46025 8.58943C7.68109 8.86597 7.78594 9.15567 7.77666 9.51403C7.75903 10.179 7.76553 10.844 7.77759 11.509C7.77945 11.6078 7.84162 11.7301 7.91492 11.7968C8.12741 11.9897 8.37145 12.1458 8.58116 12.3414C9.03119 12.7628 8.96067 13.3582 8.4364 13.678C8.14133 13.8577 7.8509 13.8087 7.58923 13.6225C7.18559 13.3347 6.79587 13.0262 6.40337 12.7224C6.19088 12.5578 6.11479 12.3273 6.11572 12.0621C6.11758 11.303 6.12222 10.544 6.11015 9.78492C6.1083 9.65794 6.05819 9.50745 5.98025 9.40774C4.11238 7.02524 2.23709 4.64838 0.363655 2.27058C-0.097512 1.68365 -0.12071 1.00925 0.297774 0.486283C0.495417 0.238909 0.749663 0.0865339 1.05865 0.0376235C1.21083 0.0141088 1.36579 0.00282176 1.51982 0.00282176C6.42193 0.000940586 11.324 0.00282176 16.2252 0C16.6493 0 17.0353 0.0808904 17.3443 0.404452C17.8852 0.971626 17.9335 1.66484 17.4528 2.28751C16.949 2.94121 16.4331 3.58457 15.9218 4.2317C15.4736 4.79981 15.0282 5.37075 14.5745 5.93416C14.3796 6.17683 14.1319 6.32262 13.8062 6.26807C13.4582 6.21069 13.2086 6.0301 13.0954 5.68114C12.9924 5.36416 13.1 5.10174 13.294 4.85719C14.0688 3.88274 14.8426 2.90735 15.6165 1.93102C15.6694 1.86424 15.7214 1.79652 15.7947 1.70058H2.01439V1.70246Z" fill="#5D6273"/>
</g>
<defs>
<clipPath id="clip0_8016_24297">
<rect width="20" height="18" fill="white"/>
</clipPath>
</defs>
</svg>
