<svg width="19" height="19" viewBox="0 0 19 19" fill="none" xmlns="http://www.w3.org/2000/svg">
<g clip-path="url(#clip0_17459_45086)">
<path d="M9.51688 0.00039613C11.8121 0.00039613 14.1084 0.00039613 16.4036 0.00039613C17.9831 0.00039613 18.9961 1.01291 18.9973 2.59347C18.9997 6.01128 18.9985 9.42909 18.9973 12.8469C18.9973 14.4322 17.9878 15.4483 16.4142 15.4507C14.8679 15.453 13.3204 15.4542 11.7741 15.4471C11.5644 15.4471 11.3985 15.503 11.2326 15.6289C9.8534 16.6818 8.46587 17.7253 7.08782 18.7805C6.82122 18.9849 6.5558 19.0765 6.2418 18.9208C5.93372 18.7675 5.91002 18.4858 5.91121 18.1875C5.91476 17.3877 5.9041 16.5868 5.91713 15.787C5.92187 15.5315 5.84722 15.4412 5.58299 15.4447C4.56871 15.4578 3.55324 15.4519 2.53896 15.4495C1.02109 15.4471 0.00207359 14.4227 0.000888681 12.8968C-0.000296227 9.4493 -0.000296227 6.00177 0.000888681 2.55425C0.00207359 1.02954 1.02228 0.0039613 2.54133 0.00158452C4.86612 -0.00198065 7.19209 0.00158452 9.51688 0.00158452V0.00039613ZM9.53229 1.81507C7.25608 1.81507 4.97987 1.81507 2.70485 1.81507C1.99983 1.81507 1.84935 1.96481 1.84935 2.65883C1.84935 6.03742 1.84935 9.41602 1.84935 12.7946C1.84935 12.9135 1.84579 13.0323 1.85764 13.1499C1.88015 13.3674 1.99509 13.5148 2.20837 13.5778C2.36123 13.6229 2.51645 13.6384 2.67523 13.6384C3.70017 13.636 4.72512 13.636 5.74888 13.6384C7.02265 13.6396 7.73952 14.3538 7.76322 15.6384C7.7644 15.7216 7.71938 15.8357 7.81654 15.8773C7.89001 15.9094 7.95518 15.8203 8.01679 15.7751C8.79291 15.1999 9.57376 14.6295 10.3416 14.0424C10.7018 13.7679 11.0869 13.6312 11.5443 13.6348C13.1202 13.6467 14.6973 13.6396 16.2732 13.6384C16.9925 13.6384 17.1477 13.4851 17.1477 12.7792C17.1477 9.41008 17.1477 6.04218 17.1477 2.67309C17.1477 2.57445 17.1512 2.47463 17.1441 2.37718C17.1228 2.10266 16.9984 1.91727 16.7105 1.85429C16.5541 1.81982 16.3988 1.81626 16.2412 1.81626C14.0041 1.81626 11.7682 1.81626 9.5311 1.81626L9.53229 1.81507Z" fill="#454B65"/>
<path d="M11.7286 8.63353C11.4039 8.63353 11.078 8.64898 10.7534 8.62878C10.4856 8.61214 10.4157 8.72266 10.4204 8.97341C10.4334 9.61515 10.4323 10.2569 10.4204 10.8986C10.4133 11.3122 10.2569 11.6556 9.85047 11.8208C9.22366 12.0763 8.59803 11.6497 8.57907 10.9426C8.56248 10.3115 8.57551 9.67932 8.57433 9.04709C8.57433 8.77139 8.44122 8.63314 8.17501 8.63235C7.53516 8.63235 6.89531 8.6371 6.25428 8.62759C5.89525 8.62284 5.61087 8.47667 5.43906 8.13916C5.26725 7.80404 5.30991 7.48911 5.51253 7.18845C5.70211 6.90799 5.98767 6.82005 6.3076 6.81886C6.95811 6.81648 7.60744 6.80817 8.25677 6.82243C8.50442 6.82718 8.58262 6.74043 8.57788 6.49799C8.56603 5.84676 8.5684 5.19433 8.5767 4.54309C8.58262 4.03327 8.85278 3.6827 9.29357 3.58406C9.89906 3.44739 10.4074 3.87403 10.4192 4.54666C10.4311 5.18839 10.4334 5.83012 10.418 6.47185C10.4109 6.74756 10.5057 6.82956 10.7759 6.82361C11.4347 6.80816 12.0959 6.81411 12.7547 6.82361C13.1315 6.82837 13.4099 7.00306 13.5746 7.35245C13.737 7.69589 13.6671 8.00606 13.4538 8.29722C13.2749 8.54084 13.0177 8.6264 12.7298 8.63116C12.3957 8.6371 12.0603 8.63235 11.725 8.63235L11.7286 8.63353Z" fill="#454B65"/>
</g>
<defs>
<clipPath id="clip0_17459_45086">
<rect width="19" height="19" fill="white"/>
</clipPath>
</defs>
</svg>
