<svg width="21" height="18" viewBox="0 0 21 18" fill="none" xmlns="http://www.w3.org/2000/svg">
<path d="M13.1338 16.0839C13.2553 16.0839 13.3561 16.0764 13.4546 16.085C14.0515 16.1386 14.4283 16.5143 14.425 17.0468C14.4217 17.5781 14.0395 17.9484 13.4415 17.9967C13.378 18.0021 13.3134 17.9989 13.2499 17.9989C9.22508 17.9989 5.20031 17.9989 1.17553 17.9989C0.820696 17.9989 0.477906 17.9549 0.236968 17.6586C-0.00287592 17.3645 -0.0696817 17.0371 0.0781671 16.6786C0.246824 16.2707 0.586329 16.1161 1.00469 16.0828C1.09449 16.0753 1.1843 16.0828 1.31134 16.0828C1.31134 15.9379 1.31134 15.8156 1.31134 15.6932C1.31134 10.5226 1.31243 7.95605 1.31024 2.78544C1.31024 2.20902 1.41319 1.66372 1.74722 1.17962C2.28495 0.399249 3.05157 0.0171152 3.99671 0.0106748C6.14106 -0.00327953 8.28651 -0.00542635 10.4309 0.0106748C11.9948 0.0224823 13.1086 1.14205 13.1119 2.67488C13.1162 5.09005 13.113 6.19244 13.113 8.60761C13.113 8.72246 13.113 8.83732 13.113 8.97364C13.3736 8.99726 13.6145 9.0198 13.8555 9.04127C15.5453 9.19047 16.968 10.6353 17.0435 12.2948C17.0665 12.7853 17.0457 13.2791 17.0567 13.7707C17.0731 14.4867 17.6776 14.9343 18.3588 14.74C18.7389 14.6316 18.9448 14.3611 19.0269 13.9961C19.0543 13.8759 19.0521 13.7471 19.0532 13.6226C19.0543 11.7087 19.051 12.0479 19.0587 10.1329C19.0587 9.91502 19.005 9.80768 18.7761 9.73469C17.7806 9.41481 17.1005 8.46807 17.0863 7.4011C17.0764 6.64971 17.0939 5.89832 17.0753 5.14694C17.072 4.99666 16.9954 4.8174 16.8924 4.70684C16.5288 4.31827 16.1324 3.95975 15.7589 3.57976C15.4807 3.29638 15.3635 2.95826 15.5004 2.57076C15.6319 2.19828 15.9089 1.98789 16.3043 1.93315C16.5956 1.89236 16.8486 1.99541 17.0523 2.18862C18.1081 3.19011 19.1693 4.18731 20.2053 5.20812C20.7409 5.73624 20.9971 6.40175 20.9982 7.15099C21.0004 10.1297 21.007 10.8553 20.9949 13.834C20.9895 15.237 20.0892 16.3136 18.7049 16.6346C16.9811 17.0339 15.2672 15.8209 15.1379 14.0938C15.1018 13.6043 15.1193 13.1106 15.1127 12.6189C15.0996 11.5155 14.2804 10.8113 13.1349 10.9401V16.0861L13.1338 16.0839ZM11.1504 16.0721V8.35428H3.27937V16.0721H11.1504ZM11.1471 6.41249C11.1559 6.34594 11.1668 6.30193 11.1668 6.25899C11.1668 4.60487 11.1723 4.26352 11.1646 2.6094C11.1624 2.14032 10.9029 1.92564 10.3783 1.92456C8.27118 1.92242 6.16406 1.92242 4.05694 1.92456C3.49402 1.92456 3.25746 2.15857 3.25746 2.7103C3.25637 4.2925 3.25746 4.563 3.25746 6.14521C3.25746 6.23108 3.26622 6.31803 3.2717 6.41141H11.1471V6.41249Z" fill="#363740"/>
</svg>
