<svg width="26" height="26" viewBox="0 0 26 26" fill="none" xmlns="http://www.w3.org/2000/svg">
<path d="M13 0C7.53985 0 3.09766 4.44219 3.09766 9.90234C3.09766 13.4272 4.1699 14.8407 9.32247 21.6333C10.2169 22.8124 11.2307 24.1488 12.3906 25.6953C12.5345 25.8871 12.7603 26 13.0001 26C13.2398 26 13.4656 25.8871 13.6094 25.6952C14.7626 24.157 15.7719 22.8257 16.6625 21.6511C21.8275 14.8387 22.9023 13.4211 22.9023 9.90234C22.9023 4.44219 18.4602 0 13 0ZM15.4486 20.7307C14.7172 21.6954 13.9057 22.7657 12.9998 23.97C12.0878 22.758 11.2717 21.6822 10.5362 20.7126C5.52419 14.1053 4.62109 12.9147 4.62109 9.90234C4.62109 5.28221 8.37987 1.52344 13 1.52344C17.6201 1.52344 21.3789 5.28221 21.3789 9.90234C21.3789 12.9088 20.4735 14.1031 15.4486 20.7307Z" fill="#24397C"/>
<path d="M13 4.57031C10.0599 4.57031 7.66797 6.96226 7.66797 9.90234C7.66797 12.8424 10.0599 15.2344 13 15.2344C15.9401 15.2344 18.332 12.8424 18.332 9.90234C18.332 6.96226 15.9401 4.57031 13 4.57031ZM13 13.7109C10.8999 13.7109 9.19141 12.0024 9.19141 9.90234C9.19141 7.80229 10.8999 6.09375 13 6.09375C15.1001 6.09375 16.8086 7.80229 16.8086 9.90234C16.8086 12.0024 15.1001 13.7109 13 13.7109Z" fill="#24397C"/>
</svg>
