<svg width="25" height="25" viewBox="0 0 25 25" fill="none" xmlns="http://www.w3.org/2000/svg">
<circle cx="12.5" cy="12.5" r="12.5" fill="#FF993B"/>
<path d="M16.7424 7.56184V6.1649H18.3469V10.3277H16.7424C16.3752 9.51458 15.7934 8.86477 15.0001 8.37658C14.2069 7.8884 13.371 7.6443 12.4975 7.6443C11.6239 7.6443 10.8536 7.85046 10.1734 8.26278C9.49326 8.6751 8.96552 9.24245 8.5902 9.96648C8.21488 10.6905 8.0264 11.5119 8.0264 12.4305C8.0264 13.3491 8.22471 14.2496 8.6197 14.9951C9.01469 15.7406 9.56538 16.3211 10.2701 16.7368C10.9749 17.1524 11.778 17.3585 12.681 17.3585C13.3661 17.3585 14.0037 17.2332 14.5904 16.9808C15.1788 16.7285 15.6656 16.369 16.0524 15.9039C16.4391 15.4388 16.6801 14.9061 16.7751 14.3057H14.4593V12.7076H19.0484V13.1199C19.0484 14.3255 18.7747 15.3761 18.2289 16.2733C17.6831 17.1705 16.9292 17.8583 15.9688 18.3332C15.0083 18.8099 13.9283 19.0474 12.7302 19.0474C11.3649 19.0474 10.1685 18.772 9.14089 18.2194C8.11327 17.6669 7.32493 16.8951 6.77588 15.9022C6.22683 14.9094 5.95312 13.7582 5.95312 12.4453C5.95312 11.1325 6.22683 10.077 6.77588 9.08907C7.32493 8.1028 8.08049 7.33259 9.04583 6.78008C10.0095 6.22758 11.1027 5.95215 12.3221 5.95215C14.0496 5.95215 15.523 6.48816 16.744 7.55854L16.7424 7.56184Z" fill="#FFF0E2"/>
</svg>