<svg width="7" height="12" viewBox="0 0 7 12" fill="none" xmlns="http://www.w3.org/2000/svg">
<path d="M1.73438 0V12H0.289062V0H1.73438ZM1.39062 7.45312L0.789062 7.42969C0.794271 6.85156 0.880208 6.31771 1.04688 5.82812C1.21354 5.33333 1.44792 4.90365 1.75 4.53906C2.05208 4.17448 2.41146 3.89323 2.82812 3.69531C3.25 3.49219 3.71615 3.39062 4.22656 3.39062C4.64323 3.39062 5.01823 3.44792 5.35156 3.5625C5.6849 3.67188 5.96875 3.84896 6.20312 4.09375C6.44271 4.33854 6.625 4.65625 6.75 5.04688C6.875 5.43229 6.9375 5.90365 6.9375 6.46094V12H5.48438V6.44531C5.48438 6.0026 5.41927 5.64844 5.28906 5.38281C5.15885 5.11198 4.96875 4.91667 4.71875 4.79688C4.46875 4.67188 4.16146 4.60938 3.79688 4.60938C3.4375 4.60938 3.10938 4.6849 2.8125 4.83594C2.52083 4.98698 2.26823 5.19531 2.05469 5.46094C1.84635 5.72656 1.68229 6.03125 1.5625 6.375C1.44792 6.71354 1.39062 7.07292 1.39062 7.45312Z" fill="#363740"/>
</svg>
