<svg width="15" height="18" viewBox="0 0 15 18" fill="none" xmlns="http://www.w3.org/2000/svg">
<path d="M6.60137 5.42636C7.02403 5.40522 7.41072 5.34684 7.79142 5.37402C8.54382 5.42737 9.12735 5.80484 9.53702 6.44101C9.61796 6.56684 9.69789 6.59703 9.83978 6.57891C10.771 6.46215 11.5494 6.75104 12.121 7.51304C12.2598 7.69825 12.3777 7.75462 12.6176 7.75764C13.7826 7.77475 14.6809 8.54682 14.9267 9.61683C14.9747 9.82721 14.9907 10.0487 14.9917 10.2641C14.9977 11.4126 14.9777 12.5621 14.9977 13.7107C15.0376 15.9272 13.359 17.6364 11.5854 17.9132C11.2906 17.9595 10.9899 17.9907 10.6921 17.9917C9.0694 17.9988 7.4457 17.9827 5.82299 17.9978C3.36996 18.0209 0.771035 16.2664 0.1905 13.7238C-0.0503077 12.6688 -0.096271 11.5998 0.249452 10.5489C0.428309 10.0044 0.796015 9.59468 1.23566 9.24942C1.55741 8.99677 1.88315 8.74814 2.22287 8.52266C2.38275 8.41596 2.4357 8.30221 2.4357 8.11498C2.42971 5.74142 2.42871 4.6694 2.4357 2.29584C2.4357 2.02204 2.46168 1.73919 2.53263 1.47646C2.82739 0.381285 3.76764 -0.0616186 4.61996 0.00683015C5.81 0.102457 6.5604 0.85338 6.58738 1.95158C6.62036 3.25915 6.59937 3.2672 6.60137 4.57478C6.60137 4.8677 6.60137 5.15961 6.60137 5.42636ZM2.43071 9.85439C1.83219 10.2419 1.3196 10.6466 1.25865 11.3421C1.20569 11.9461 1.1897 12.5732 1.28762 13.1681C1.64334 15.3343 3.71668 16.7496 5.52123 16.7888C7.30181 16.8271 9.08438 16.8251 10.865 16.7929C12.5236 16.7627 13.7177 15.6081 13.7976 13.9382C13.8566 12.7081 13.8156 11.473 13.8216 10.2409C13.8256 9.30378 13.1202 8.75216 12.2239 8.99375C11.7203 9.12964 11.5414 9.03502 11.3506 8.53474C11.0948 7.86233 10.3054 7.51304 9.6889 7.86635C9.23526 8.12606 8.76964 7.91065 8.64674 7.39627C8.49685 6.76715 7.88035 6.42994 7.25285 6.56382C6.92811 6.63327 6.67831 6.81245 6.47847 7.07517C6.3166 7.28857 6.09578 7.37111 5.83698 7.30568C5.59518 7.24428 5.44829 7.02584 5.43031 6.73292C5.42431 6.64132 5.42731 6.54872 5.42731 6.45611C5.42731 4.64423 5.42731 4.13389 5.42731 2.32201C5.42731 2.19618 5.42731 2.06935 5.40733 1.94554C5.32339 1.4201 4.83578 1.09496 4.3212 1.21374C3.85057 1.32245 3.60477 1.66369 3.60477 2.22034C3.60377 4.67745 3.60477 5.83403 3.60477 8.29114C3.60477 9.4145 3.60777 10.5389 3.60177 11.6622C3.59977 12.0206 3.35996 12.2521 3.02123 12.2531C2.6915 12.2531 2.46268 12.0367 2.4367 11.6904C2.42671 11.5565 2.43171 11.4227 2.43171 11.2878C2.43171 10.8288 2.43171 10.3698 2.43171 9.85338L2.43071 9.85439Z" fill="black"/>
</svg>
