<svg width="40" height="13" viewBox="0 0 40 13" fill="none" xmlns="http://www.w3.org/2000/svg">
<path d="M1.54688 0V12H0.101562V0H1.54688ZM1.20312 7.45312L0.601562 7.42969C0.606771 6.85156 0.692708 6.31771 0.859375 5.82812C1.02604 5.33333 1.26042 4.90365 1.5625 4.53906C1.86458 4.17448 2.22396 3.89323 2.64062 3.69531C3.0625 3.49219 3.52865 3.39062 4.03906 3.39062C4.45573 3.39062 4.83073 3.44792 5.16406 3.5625C5.4974 3.67188 5.78125 3.84896 6.01562 4.09375C6.25521 4.33854 6.4375 4.65625 6.5625 5.04688C6.6875 5.43229 6.75 5.90365 6.75 6.46094V12H5.29688V6.44531C5.29688 6.0026 5.23177 5.64844 5.10156 5.38281C4.97135 5.11198 4.78125 4.91667 4.53125 4.79688C4.28125 4.67188 3.97396 4.60938 3.60938 4.60938C3.25 4.60938 2.92188 4.6849 2.625 4.83594C2.33333 4.98698 2.08073 5.19531 1.86719 5.46094C1.65885 5.72656 1.49479 6.03125 1.375 6.375C1.26042 6.71354 1.20312 7.07292 1.20312 7.45312ZM8.73125 7.86719V7.6875C8.73125 7.07812 8.81979 6.51302 8.99687 5.99219C9.17396 5.46615 9.42917 5.01042 9.7625 4.625C10.0958 4.23438 10.4995 3.93229 10.9734 3.71875C11.4474 3.5 11.9786 3.39062 12.5672 3.39062C13.1609 3.39062 13.6948 3.5 14.1687 3.71875C14.6479 3.93229 15.0542 4.23438 15.3875 4.625C15.726 5.01042 15.9839 5.46615 16.1609 5.99219C16.338 6.51302 16.4266 7.07812 16.4266 7.6875V7.86719C16.4266 8.47656 16.338 9.04167 16.1609 9.5625C15.9839 10.0833 15.726 10.5391 15.3875 10.9297C15.0542 11.3151 14.6505 11.6172 14.1766 11.8359C13.7078 12.0495 13.1766 12.1562 12.5828 12.1562C11.9891 12.1562 11.4552 12.0495 10.9812 11.8359C10.5073 11.6172 10.101 11.3151 9.7625 10.9297C9.42917 10.5391 9.17396 10.0833 8.99687 9.5625C8.81979 9.04167 8.73125 8.47656 8.73125 7.86719ZM10.1766 7.6875V7.86719C10.1766 8.28906 10.226 8.6875 10.325 9.0625C10.424 9.43229 10.5724 9.76042 10.7703 10.0469C10.9734 10.3333 11.226 10.5599 11.5281 10.7266C11.8302 10.888 12.1818 10.9688 12.5828 10.9688C12.9786 10.9688 13.325 10.888 13.6219 10.7266C13.924 10.5599 14.174 10.3333 14.3719 10.0469C14.5698 9.76042 14.7182 9.43229 14.8172 9.0625C14.9214 8.6875 14.9734 8.28906 14.9734 7.86719V7.6875C14.9734 7.27083 14.9214 6.8776 14.8172 6.50781C14.7182 6.13281 14.5672 5.80208 14.3641 5.51562C14.1661 5.22396 13.9161 4.99479 13.6141 4.82812C13.3172 4.66146 12.9682 4.57812 12.5672 4.57812C12.1714 4.57812 11.8224 4.66146 11.5203 4.82812C11.2234 4.99479 10.9734 5.22396 10.7703 5.51562C10.5724 5.80208 10.424 6.13281 10.325 6.50781C10.226 6.8776 10.1766 7.27083 10.1766 7.6875ZM19.8844 4.875V12H18.4391V3.54688H19.8453L19.8844 4.875ZM22.525 3.5L22.5172 4.84375C22.3974 4.81771 22.2828 4.80208 22.1734 4.79688C22.0693 4.78646 21.9495 4.78125 21.8141 4.78125C21.4807 4.78125 21.1865 4.83333 20.9312 4.9375C20.676 5.04167 20.4599 5.1875 20.2828 5.375C20.1057 5.5625 19.9651 5.78646 19.8609 6.04688C19.762 6.30208 19.6969 6.58333 19.6656 6.89062L19.2594 7.125C19.2594 6.61458 19.3089 6.13542 19.4078 5.6875C19.512 5.23958 19.6708 4.84375 19.8844 4.5C20.0979 4.15104 20.3687 3.88021 20.6969 3.6875C21.0302 3.48958 21.426 3.39062 21.8844 3.39062C21.9885 3.39062 22.1083 3.40365 22.2437 3.42969C22.3792 3.45052 22.4729 3.47396 22.525 3.5ZM28.7328 10.5547V6.20312C28.7328 5.86979 28.6651 5.58073 28.5297 5.33594C28.3995 5.08594 28.2016 4.89323 27.9359 4.75781C27.6703 4.6224 27.3422 4.55469 26.9516 4.55469C26.587 4.55469 26.2667 4.61719 25.9906 4.74219C25.7198 4.86719 25.5063 5.03125 25.35 5.23438C25.199 5.4375 25.1234 5.65625 25.1234 5.89062H23.6781C23.6781 5.58854 23.7563 5.28906 23.9125 4.99219C24.0688 4.69531 24.2927 4.42708 24.5844 4.1875C24.8813 3.94271 25.2354 3.75 25.6469 3.60938C26.0635 3.46354 26.5271 3.39062 27.0375 3.39062C27.6521 3.39062 28.1938 3.49479 28.6625 3.70312C29.1365 3.91146 29.5063 4.22656 29.7719 4.64844C30.0427 5.0651 30.1781 5.58854 30.1781 6.21875V10.1562C30.1781 10.4375 30.2016 10.737 30.2484 11.0547C30.3005 11.3724 30.376 11.6458 30.475 11.875V12H28.9672C28.8943 11.8333 28.837 11.612 28.7953 11.3359C28.7536 11.0547 28.7328 10.7943 28.7328 10.5547ZM28.9828 6.875L28.9984 7.89062H27.5375C27.126 7.89062 26.7589 7.92448 26.4359 7.99219C26.113 8.05469 25.8422 8.15104 25.6234 8.28125C25.4047 8.41146 25.238 8.57552 25.1234 8.77344C25.0089 8.96615 24.9516 9.19271 24.9516 9.45312C24.9516 9.71875 25.0115 9.96094 25.1313 10.1797C25.251 10.3984 25.4307 10.5729 25.6703 10.7031C25.9151 10.8281 26.2146 10.8906 26.5688 10.8906C27.0115 10.8906 27.4021 10.7969 27.7406 10.6094C28.0792 10.4219 28.3474 10.1927 28.5453 9.92188C28.7484 9.65104 28.8578 9.38802 28.8734 9.13281L29.4906 9.82812C29.4542 10.0469 29.3552 10.2891 29.1938 10.5547C29.0323 10.8203 28.8161 11.0755 28.5453 11.3203C28.2797 11.5599 27.962 11.7604 27.5922 11.9219C27.2276 12.0781 26.8161 12.1562 26.3578 12.1562C25.7849 12.1562 25.2823 12.0443 24.85 11.8203C24.4229 11.5964 24.0896 11.2969 23.85 10.9219C23.6156 10.5417 23.4984 10.1172 23.4984 9.64844C23.4984 9.19531 23.587 8.79688 23.7641 8.45312C23.9411 8.10417 24.1964 7.8151 24.5297 7.58594C24.863 7.35156 25.2641 7.17448 25.7328 7.05469C26.2016 6.9349 26.725 6.875 27.3031 6.875H28.9828ZM37.5734 9.75781C37.5734 9.54948 37.5266 9.35677 37.4328 9.17969C37.3443 8.9974 37.1594 8.83333 36.8781 8.6875C36.6021 8.53646 36.1854 8.40625 35.6281 8.29688C35.1594 8.19792 34.7349 8.08073 34.3547 7.94531C33.9797 7.8099 33.6594 7.64583 33.3937 7.45312C33.1333 7.26042 32.9328 7.03385 32.7922 6.77344C32.6516 6.51302 32.5812 6.20833 32.5812 5.85938C32.5812 5.52604 32.6542 5.21094 32.8 4.91406C32.951 4.61719 33.162 4.35417 33.4328 4.125C33.7089 3.89583 34.0396 3.71615 34.425 3.58594C34.8104 3.45573 35.2401 3.39062 35.7141 3.39062C36.3911 3.39062 36.9693 3.51042 37.4484 3.75C37.9276 3.98958 38.2948 4.3099 38.55 4.71094C38.8052 5.10677 38.9328 5.54688 38.9328 6.03125H37.4875C37.4875 5.79688 37.4172 5.57031 37.2766 5.35156C37.1411 5.1276 36.9406 4.94271 36.675 4.79688C36.4146 4.65104 36.0943 4.57812 35.7141 4.57812C35.313 4.57812 34.9875 4.64062 34.7375 4.76562C34.4927 4.88542 34.313 5.03906 34.1984 5.22656C34.0891 5.41406 34.0344 5.61198 34.0344 5.82031C34.0344 5.97656 34.0604 6.11719 34.1125 6.24219C34.1698 6.36198 34.2687 6.47396 34.4094 6.57812C34.55 6.67708 34.7479 6.77083 35.0031 6.85938C35.2583 6.94792 35.5839 7.03646 35.9797 7.125C36.6724 7.28125 37.2427 7.46875 37.6906 7.6875C38.1385 7.90625 38.4719 8.17448 38.6906 8.49219C38.9094 8.8099 39.0187 9.19531 39.0187 9.64844C39.0187 10.0182 38.9406 10.3568 38.7844 10.6641C38.6333 10.9714 38.412 11.237 38.1203 11.4609C37.8339 11.6797 37.4901 11.8516 37.0891 11.9766C36.6932 12.0964 36.2479 12.1562 35.7531 12.1562C35.0083 12.1562 34.3781 12.0234 33.8625 11.7578C33.3469 11.4922 32.9562 11.1484 32.6906 10.7266C32.425 10.3047 32.2922 9.85938 32.2922 9.39062H33.7453C33.7661 9.78646 33.8807 10.1016 34.0891 10.3359C34.2974 10.5651 34.5526 10.7292 34.8547 10.8281C35.1568 10.9219 35.4562 10.9688 35.7531 10.9688C36.149 10.9688 36.4797 10.9167 36.7453 10.8125C37.0161 10.7083 37.2219 10.5651 37.3625 10.3828C37.5031 10.2005 37.5734 9.99219 37.5734 9.75781Z" fill="#363740"/>
</svg>
