<svg width="17" height="23" viewBox="0 0 17 23" fill="none" xmlns="http://www.w3.org/2000/svg">
<g clip-path="url(#clip0_14084_37364)">
<path d="M0.00125601 13.2757C0.00125601 11.0401 0.00125601 8.80454 0.00266903 6.56897C0.00408205 4.94323 1.07797 3.74365 2.66479 3.59586C2.84707 3.57864 2.95729 3.52412 3.05055 3.35336C3.46315 2.59143 4.09759 2.17244 4.96377 2.15522C5.16724 2.15092 5.27887 2.07343 5.37637 1.89407C6.04897 0.638533 7.0946 -0.00143249 8.50479 2.40759e-06C9.91498 0.00143731 10.9592 0.644272 11.6304 1.90124C11.7279 2.08491 11.848 2.14948 12.0472 2.15522C12.9134 2.17531 13.5436 2.59861 13.9562 3.36054C14.0396 3.51551 14.1371 3.57721 14.3095 3.59442C15.9556 3.75944 16.9984 4.93319 16.9984 6.61489C16.9998 11.0746 16.9998 15.5328 16.9984 19.9925C16.9984 21.7531 15.7818 22.9943 14.041 22.9971C10.3445 23.0029 6.64809 23.0029 2.95163 22.9971C1.21504 22.9928 0.00408205 21.7473 0.00125601 19.9824C-0.00157002 17.7468 0.00125601 15.5113 0.00125601 13.2757ZM1.45666 13.29C1.45666 15.5256 1.45808 17.7598 1.45525 19.9953C1.45525 20.2637 1.50188 20.5148 1.61775 20.7573C1.91589 21.3757 2.45849 21.5163 3.06326 21.5192C4.32226 21.5264 5.58267 21.5221 6.84167 21.5221C9.20706 21.5221 11.5724 21.5278 13.9392 21.5192C15.0358 21.5149 15.5459 20.9854 15.5459 19.8906C15.5459 16.3406 15.5459 12.7907 15.5459 9.24075C15.5459 8.32098 15.5501 7.39978 15.5444 6.48001C15.5402 5.86731 15.1601 5.32491 14.6373 5.15703C14.2529 5.03363 14.1781 5.08672 14.1752 5.48419C14.1752 5.60328 14.1766 5.72382 14.1752 5.84291C14.1625 6.5991 13.61 7.20463 12.8639 7.2075C9.95737 7.22042 7.04938 7.21611 4.14281 7.2075C3.66238 7.2075 3.29924 6.96644 3.03076 6.55606C2.80468 6.21025 2.80751 5.82856 2.83577 5.44975C2.8612 5.10394 2.70718 5.07094 2.4373 5.13694C1.8622 5.27756 1.4609 5.84722 1.45949 6.55032C1.45666 8.79737 1.45949 11.0444 1.45949 13.2915L1.45666 13.29ZM8.49631 5.73673C9.77933 5.73673 11.0623 5.73673 12.3454 5.73673C12.5178 5.73673 12.7198 5.77691 12.717 5.4928C12.7128 5.0982 12.7325 4.70217 12.7071 4.31044C12.6845 3.96893 12.5022 3.73935 12.149 3.66617C11.9257 3.61882 11.7039 3.63317 11.4806 3.6303C10.8476 3.62456 10.7204 3.52412 10.4929 2.93007C10.2866 2.39054 9.95737 1.94573 9.42325 1.69892C8.2024 1.13644 6.94906 1.7061 6.51809 3.01329C6.38385 3.42224 6.13799 3.61021 5.70419 3.62599C5.48093 3.6346 5.25626 3.61738 5.03442 3.63604C4.52432 3.67908 4.29683 3.92876 4.28411 4.44389C4.27704 4.74234 4.30106 5.04367 4.27704 5.33926C4.25161 5.66211 4.37878 5.74534 4.68258 5.74247C5.95288 5.72812 7.2246 5.73673 8.49631 5.73673Z" fill="#363740"/>
<path d="M3.90745 10.4062C4.25082 10.4062 4.46983 10.6387 4.67189 10.8683C4.88809 11.1136 5.03928 11.105 5.26112 10.8654C5.67938 10.4134 6.11882 9.98008 6.56958 9.56109C6.95392 9.20523 7.42445 9.26693 7.69151 9.67875C7.88651 9.97864 7.86249 10.2857 7.6251 10.5339C6.90446 11.2873 6.17534 12.0334 5.42927 12.7609C5.14102 13.0407 4.79907 13.0335 4.50375 12.7609C4.10386 12.3921 3.72659 11.9975 3.35779 11.5972C3.15714 11.3791 3.1204 11.1093 3.25747 10.8324C3.38464 10.5756 3.64322 10.4091 3.90604 10.4077L3.90745 10.4062Z" fill="#363740"/>
<path d="M9.87415 17.2572C9.21568 17.2572 8.55863 17.2615 7.90017 17.2558C7.35333 17.2501 7.06083 16.9817 7.06649 16.5082C7.07214 16.0505 7.36039 15.785 7.88745 15.7836C9.23829 15.7779 10.5891 15.7779 11.94 15.7836C12.4656 15.7865 12.7525 16.0534 12.7567 16.5125C12.7595 16.9746 12.4727 17.2486 11.9541 17.2558C11.2617 17.2644 10.5679 17.2572 9.87556 17.2587L9.87415 17.2572Z" fill="#363740"/>
<path d="M10.624 11.4777C11.0819 11.4777 11.5397 11.4691 11.9975 11.4806C12.4836 11.4935 12.7648 11.7776 12.7577 12.2282C12.752 12.6629 12.4779 12.9427 12.006 12.9485C11.079 12.96 10.1507 12.96 9.22374 12.9485C8.75603 12.9427 8.48332 12.6558 8.48049 12.2196C8.47766 11.7819 8.75038 11.4964 9.21385 11.482C9.68297 11.4677 10.1535 11.4791 10.6226 11.4777H10.624Z" fill="#363740"/>
<path d="M6.04586 16.5149C6.04727 17.129 5.58521 17.6054 4.97903 17.6111C4.35872 17.6183 3.88112 17.1333 3.88677 16.5048C3.89242 15.8921 4.36295 15.4229 4.97055 15.4258C5.57815 15.4287 6.04303 15.9007 6.04444 16.5149H6.04586Z" fill="#363740"/>
</g>
<defs>
<clipPath id="clip0_14084_37364">
<rect width="17" height="23" fill="white"/>
</clipPath>
</defs>
</svg>
