<?xml version="1.0" encoding="UTF-8"?>
<svg id="Capa_1" data-name="Capa 1" xmlns="http://www.w3.org/2000/svg" viewBox="0 0 300 300">
  <defs>
    <style>
      .cls-1 {
        stroke-width: 0px;
      }
    </style>
  </defs>
  <path class="cls-1" d="m290.05,223.2c-5.48-5.46-10.96-10.93-16.43-16.4-17.53-17.5-35.66-35.6-53.63-53.26-7.79-7.66-17.47-11.94-28.77-12.72-10.71-.73-20.4,1.54-28.8,6.77-.05-.04-.1-.08-.13-.11l-5.37-5.37c-13.47-13.48-27.39-27.42-40.99-41.22-.69-.71-1.23-2.27-1.24-3.65-.15-11.18-.16-22.94-.03-34.97.04-3.06-.96-5.14-3.33-6.94-16.4-12.35-33.04-24.96-49.13-37.16l-17.48-13.25c-.61-.46-1.25-.87-1.98-1.35-.38-.25-.79-.52-1.24-.82-.61-.41-1.42-.32-1.93.21L4.53,39.85c-.5.53-.55,1.35-.11,1.94l8.81,11.69c14.17,18.82,28.82,38.27,43.51,57.57,1.21,1.58,3.76,2.43,5.64,2.45,5.6.07,11.3.08,16.81.08,6.05,0,12.31,0,18.47.1,1.4.01,3.2.76,4.19,1.73,7.78,7.7,15.65,15.58,23.25,23.21,6.99,7.01,14.23,14.26,21.38,21.35,1.39,1.39,1.45,1.86.43,3.62-5.07,8.77-7.03,17.52-6,26.76,1.34,11.89,6.42,22.08,15.53,31.18,24.24,24.18,46.61,46.62,68.39,68.62,4.84,4.89,9.93,7.36,15.12,7.36h.03c5.1,0,10.04-2.41,14.7-7.14,13.88-14.09,25.22-25.64,35.67-36.34,9.61-9.84,9.5-21.08-.29-30.83Zm-14.67,15.47l-5.49,5.5c-10.45,10.47-20.8,20.83-31.27,31.31-.08-.08-.16-.15-.24-.23l-16-16.16c-17.26-17.43-35.1-35.46-52.59-53.24-10.31-10.48-10.63-25.35-.77-36.17,4.51-4.96,11.1-7.91,18.07-8.11.26,0,.51-.01.77-.01,6.38,0,12.23,2.3,16.54,6.52,17.22,16.87,34.55,34.2,51.32,50.95,6.55,6.55,13.1,13.1,19.66,19.64ZM93.27,85.94c-.01,1.68-.03,3.37-.03,5.06,0,.66-.06,1.36-.14,2.16h-4.48c-6.53.01-12.69.02-18.97-.06-.25,0-.92-.39-1.27-.84-11.4-14.93-22.57-29.66-34.4-45.25l-3.81-5.02,13.07-11.62c7.12,5.43,14.91,11.36,22.69,17.3,1.81,1.38,3.62,2.75,5.42,4.12,6.54,4.96,13.31,10.1,19.83,15.29,1,.8,1.89,2.55,1.95,3.82.21,5,.17,10.1.14,15.04Z"/>
  <path class="cls-1" d="m294.58,69.81c-1.78-6.77-6.15-11.56-11.99-13.14-5.81-1.57-11.96.34-16.87,5.24-11.11,11.1-21.99,21.99-32.97,33.14-1.61,1.64-2.77,2.07-4.6,1.69-2.85-.6-5.75-1.13-8.56-1.65-3.54-.65-7.19-1.32-10.75-2.12-.6-.13-1.64-1.19-1.78-1.8-.86-3.92-1.6-7.94-2.32-11.84-.46-2.51-.92-5.02-1.42-7.52-.36-1.85,0-2.99,1.39-4.36,7.03-6.94,14.12-14.06,20.97-20.94,4.2-4.22,8.4-8.44,12.61-12.64,3.82-3.8,5.61-7.91,5.46-12.56-.3-8.8-6.14-15.1-15.25-16.43-8.61-1.25-17.76-2.42-26.63-1.72-27.97,2.2-49.97,15.75-65.38,40.27-1.84,2.93-2.49,5.9-1.86,8.6.57,2.45,2.16,4.53,4.61,6.04,5.56,3.42,11.33,2,15.06-3.72,11.65-17.85,27.85-28.1,48.15-30.46,5.02-.59,10.38-.89,15.95.75-.46.34-.94.69-1.39,1.13-5.18,5.15-10.34,10.33-15.5,15.5-6.02,6.03-12.04,12.07-18.08,18.07-1.99,1.98-2.6,3.89-2.12,6.6,1.2,6.72,2.34,13.57,3.45,20.19,1.17,7.01,2.39,14.26,3.66,21.39.33,1.78,2.38,3.85,4.14,4.18,6.76,1.22,13.65,2.38,20.31,3.51,6.92,1.17,14.08,2.37,21.1,3.65,3.17.57,5.04-.54,6.87-2.39,8.17-8.28,16.52-16.64,24.59-24.73l8.91-8.93c.41-.41.83-.81,1.31-1.25.02.18.04.35.06.52.25,2.14.46,3.99.49,5.82.35,22.22-8.42,40.73-26.08,55.01-5.77,4.67-6.95,10.66-3.08,15.62,1.61,2.05,4.21,3.43,7.15,3.77.49.06.99.09,1.48.09,2.77,0,5.46-.91,7.55-2.57,28.06-22.34,40.07-56.83,31.35-90Z"/>
  <path class="cls-1" d="m134.53,222.43c-.42-3.03-2.1-5.65-4.59-7.2-4.37-2.7-9.63-1.65-14.09,2.82-5.91,5.92-11.81,11.85-17.71,17.78-10.79,10.84-21.96,22.06-32.97,33.05-8.71,8.7-23.43,9.74-32.14,2.26-5.5-4.73-8.68-10.9-8.95-17.39-.27-6.43,2.35-12.79,7.39-17.9,9.01-9.16,18.25-18.4,27.18-27.34,3.8-3.8,7.6-7.6,11.39-11.41l9.61-9.65c9.04-9.08,18.08-18.15,27.13-27.2,3.97-3.97,5.11-8.07,3.46-12.55-1.25-3.41-3.88-5.79-7.22-6.52-4.03-.88-8.54.7-12.07,4.24-6.77,6.79-13.55,13.58-20.33,20.36-17.8,17.82-36.2,36.24-54.18,54.47-13.78,13.95-17.43,30.83-10.55,48.8,6.75,17.65,20.38,27.12,40.52,28.16.07,0,.15,0,.23,0,.43.01.86.02,1.3.02,11.06,0,22.76-4.87,30.86-12.91,11.18-11.11,22.36-22.23,33.53-33.35l10.36-10.31c.94-.93,1.88-1.86,2.83-2.78,2.02-1.97,4.12-4,6.07-6.14,2.33-2.57,3.4-5.96,2.93-9.3Z"/>
  <path class="cls-1" d="m56.58,243.38c-1.84-1.81-4.37-2.76-7.14-2.72-5.45.11-10.23,4.69-10.23,9.81,0,2.36,1.08,4.79,2.98,6.69,2.01,2,4.62,3.14,7.19,3.14h.06c5.58-.04,9.96-4.37,9.97-9.88h0v-.03h0c0-2.74-1.01-5.23-2.84-7.02Z"/>
</svg>
