<svg width="22" height="20" viewBox="0 0 22 20" fill="none" xmlns="http://www.w3.org/2000/svg">
<g clip-path="url(#clip0_16177_40738)">
<path d="M19.9634 12.3982C19.3163 12.3945 18.6246 12.3907 17.945 12.4007C17.8581 12.4032 17.7978 12.387 17.7676 12.3547C17.7374 12.3237 17.7241 12.264 17.7265 12.1746C17.7374 11.7734 17.7458 11.3809 17.7241 10.9922C17.7169 10.8729 17.7326 10.7971 17.7712 10.7549C17.8122 10.7114 17.8847 10.6903 18.0259 10.6928C19.0399 10.7015 19.4491 10.7003 20.1287 10.699C20.3858 10.699 20.6816 10.699 21.0643 10.6978H21.1234C21.2248 10.6978 21.3298 10.699 21.4336 10.6841C21.7765 10.6332 21.9998 10.3661 22.0022 10.0022C22.0034 9.6358 21.7837 9.36627 21.4421 9.3141C21.331 9.29672 21.2188 9.29796 21.1089 9.2992H21.0425C18.7116 9.2992 17.0783 9.2992 15.0551 9.2992H13.2179C13.0911 9.2992 12.9632 9.2992 12.8364 9.29796C12.5371 9.29672 12.2268 9.29423 11.9214 9.30293C11.8345 9.30665 11.779 9.29051 11.7476 9.25945C11.7162 9.22716 11.7029 9.16878 11.7054 9.07438C11.7174 8.60984 11.7174 8.20244 11.7054 7.8323C11.7017 7.74039 11.7162 7.67953 11.7476 7.64723C11.7802 7.61245 11.8418 7.59755 11.9468 7.59879C12.6686 7.60748 13.376 7.61494 14.087 7.59631C15.1312 7.57022 15.9219 6.73554 15.9255 5.65493C15.9291 4.50476 15.9291 3.29995 15.9255 1.96843C15.9231 0.861739 15.1252 0.0208499 14.0701 0.0121553C12.0506 -0.00274968 10.0033 -0.00274968 7.98618 0.0121553C6.93235 0.0208499 6.13564 0.861739 6.13202 1.96843C6.12961 2.94098 6.12961 3.91353 6.13202 4.88608V5.53072C6.13323 6.7815 6.91545 7.59382 8.12379 7.60127H8.28675C8.87584 7.60624 9.48423 7.60997 10.083 7.59755C10.2001 7.59631 10.2713 7.61245 10.3087 7.6522C10.3437 7.68946 10.3582 7.75902 10.3534 7.86335C10.3341 8.27448 10.3341 8.64214 10.3534 8.98495C10.3606 9.11413 10.3449 9.19611 10.3039 9.24082C10.2616 9.28678 10.1783 9.30541 10.0431 9.30665C8.75271 9.29672 7.43935 9.29796 6.17065 9.2992C5.73487 9.2992 5.2991 9.2992 4.86332 9.2992H1.27573C1.04758 9.2992 0.998085 9.2992 0.988427 9.29672C0.984806 9.29672 0.984806 9.29672 0.964285 9.29672C0.940142 9.29672 0.874957 9.2992 0.687851 9.30417C0.466946 9.30914 0.283462 9.38739 0.160334 9.52899C0.0396209 9.6681 -0.0147001 9.85441 0.00340694 10.0705C0.0275496 10.3562 0.18327 10.6965 0.789251 10.6978H1.34574C2.37904 10.7015 2.80637 10.7028 4.05696 10.6953C4.17647 10.6953 4.24407 10.7114 4.28149 10.7512C4.31649 10.7885 4.33098 10.8568 4.32615 10.9636C4.30925 11.3387 4.30925 11.725 4.32615 12.1461C4.32977 12.2504 4.31649 12.315 4.28149 12.351C4.24648 12.387 4.18009 12.4044 4.07507 12.4019C3.28439 12.3883 2.59391 12.3883 1.965 12.4019C0.908757 12.4243 0.108428 13.2639 0.106013 14.3545C0.102392 15.6003 0.102392 16.8411 0.106013 18.041C0.109635 19.1439 0.911171 19.9811 1.96983 19.9886C2.95605 19.996 3.96522 19.9985 4.99007 19.9985C6.01493 19.9985 7.00116 19.9948 8.02239 19.9886C9.08829 19.9811 9.89466 19.1352 9.89828 18.0211C9.90069 16.984 9.89948 15.9468 9.89828 14.9084V14.4576C9.89707 13.2118 9.11123 12.4032 7.89806 12.397H7.60835C7.06151 12.392 6.49537 12.3883 5.93888 12.4007C5.83024 12.4032 5.76143 12.387 5.72522 12.3473C5.689 12.3088 5.67331 12.238 5.67814 12.1237C5.69263 11.7722 5.69263 11.3971 5.67814 10.9425C5.67452 10.8406 5.689 10.7773 5.72039 10.7437C5.75177 10.7102 5.81575 10.6903 5.90508 10.6941C9.32006 10.7003 12.7652 10.7003 16.144 10.6941C16.2393 10.6941 16.2961 10.7102 16.3275 10.7437C16.3601 10.7785 16.3733 10.8394 16.3697 10.9437C16.3564 11.402 16.3564 11.7772 16.3697 12.1249C16.3745 12.238 16.3601 12.3088 16.3226 12.3473C16.2864 12.3858 16.2188 12.4032 16.1066 12.4007C15.433 12.387 14.7328 12.387 14.0267 12.4007C12.9584 12.4206 12.152 13.2652 12.1484 14.3657C12.146 15.5667 12.146 16.7964 12.1484 18.0211C12.1508 19.1352 12.9572 19.9811 14.0243 19.9873C16.1066 20.001 18.143 20.001 20.078 19.9873C21.1367 19.9799 21.9382 19.1427 21.9406 18.0397C21.9443 16.9939 21.9431 15.9493 21.9418 14.9035V14.4464C21.9406 13.2291 21.1439 12.4056 19.9597 12.3982H19.9634ZM20.5838 14.6029C20.5838 15.676 20.5838 16.748 20.5838 17.8211C20.5838 18.4037 20.4076 18.5912 19.8595 18.5925C17.9885 18.5962 16.0969 18.5962 14.2355 18.5925C13.6971 18.5925 13.5148 18.4037 13.5136 17.8509C13.5124 16.748 13.5112 15.6438 13.5136 14.5408C13.5136 13.9905 13.6971 13.8042 14.2379 13.8005C14.6218 13.798 15.0057 13.798 15.3907 13.798C15.6696 13.798 15.9484 13.798 16.2285 13.798H17.0662H17.8316C18.4882 13.798 19.1461 13.798 19.8028 13.798C20.416 13.7993 20.585 13.9732 20.585 14.6029H20.5838ZM11.8623 6.20145H11.0257H10.2846C9.60977 6.20145 8.93378 6.20145 8.25899 6.20145C7.66267 6.20021 7.49125 6.02259 7.49005 5.41397C7.49005 4.33087 7.48884 3.24778 7.49005 2.16468C7.49005 1.60078 7.66991 1.4095 8.19743 1.40826C10.0455 1.40329 11.948 1.40329 13.8516 1.40826C14.3731 1.4095 14.559 1.59954 14.5602 2.13239C14.5626 3.24654 14.5626 4.36068 14.5602 5.47359C14.5602 6.0052 14.3743 6.19524 13.8528 6.19896C13.1901 6.20393 12.5262 6.20269 11.8635 6.20145H11.8623ZM2.17021 13.8005C3.98212 13.7955 5.88456 13.7955 7.82442 13.8005C8.35677 13.8005 8.53542 13.9918 8.53663 14.552C8.53784 15.6549 8.53905 16.7591 8.53663 17.8621C8.53663 18.3974 8.35194 18.5875 7.83287 18.5912C7.16895 18.5962 6.49416 18.5949 5.8411 18.5937H5.00577H4.26821C3.59221 18.5937 2.91501 18.5937 2.23902 18.5937C1.63304 18.5925 1.46645 18.4235 1.46645 17.8099C1.46645 16.7169 1.46525 15.6239 1.46645 14.5308C1.46645 13.9943 1.65114 13.803 2.17021 13.8017V13.8005Z" fill="#363740"/>
</g>
<defs>
<clipPath id="clip0_16177_40738">
<rect width="22" height="20" fill="white"/>
</clipPath>
</defs>
</svg>
