<svg width="19" height="19" viewBox="0 0 19 19" fill="none" xmlns="http://www.w3.org/2000/svg">
<g clip-path="url(#clip0_17770_46387)">
<path d="M9.51183 19C4.27086 19 0 14.7567 0 9.55334C0 4.25515 4.21171 0 9.48817 0C14.7528 0 19 4.24329 19 9.50593C19 14.7449 14.7528 18.9881 9.5 19H9.51183ZM1.84558 9.50593C1.78643 13.441 5.02802 17.1865 9.48817 17.1747C14.1021 17.1747 17.1544 13.3225 17.1544 9.50593C17.1544 5.63007 14.0548 1.82533 9.47634 1.82533C4.96887 1.82533 1.7746 5.60636 1.83375 9.50593H1.84558Z" fill="#454B65"/>
<path d="M9.49916 14.2589C9.03777 14.2589 8.57637 14.2589 8.11498 14.2589C7.51162 14.2589 7.10938 13.8915 7.10938 13.3581C7.10938 12.8247 7.51162 12.4573 8.10315 12.4454C8.6237 12.4375 8.88397 12.1688 8.88397 11.6394C8.88397 11.2246 8.88397 10.8097 8.88397 10.3949C8.88397 10.1697 8.80116 10.0986 8.5882 10.1104C8.38708 10.1223 8.19779 10.1104 7.99667 10.1104C7.48796 10.0749 7.10938 9.70742 7.10938 9.20961C7.10938 8.72364 7.47612 8.32065 7.98484 8.30879C8.60004 8.28509 9.22706 8.28509 9.84225 8.30879C10.3746 8.3325 10.7177 8.71179 10.7177 9.30443C10.7177 10.2289 10.7177 11.1653 10.7177 12.0898C10.7177 12.3387 10.765 12.4573 11.0608 12.4691C11.5459 12.4928 11.9126 12.9077 11.9008 13.3699C11.9008 13.8559 11.5222 14.247 11.0135 14.2589C10.5166 14.2707 10.0079 14.2589 9.51099 14.2589H9.49916Z" fill="#454B65"/>
<path d="M9.49989 7.14732C8.80188 7.14732 8.28134 6.63765 8.29317 5.93834C8.29317 5.25088 8.81371 4.74121 9.51172 4.74121C10.2097 4.74121 10.7303 5.26273 10.7303 5.95019C10.7303 6.63766 10.2097 7.14732 9.49989 7.14732Z" fill="#454B65"/>
</g>
<defs>
<clipPath id="clip0_17770_46387">
<rect width="19" height="19" fill="white"/>
</clipPath>
</defs>
</svg>
