<svg width="19" height="19" viewBox="0 0 19 19" fill="none" xmlns="http://www.w3.org/2000/svg">
<g clip-path="url(#clip0_14084_37370)">
<path d="M9.49158 18.998C7.14146 18.998 4.79254 19.0027 2.44243 18.9956C1.22767 18.9921 0.308007 18.2455 0.0449086 17.064C0.00935469 16.9028 0.00224391 16.731 0.00224391 16.5651C-0.000126346 13.83 -0.00131148 11.096 0.00224391 8.36093C0.00342904 6.97916 1.02857 5.93394 2.41398 5.93157C7.13317 5.92327 11.8524 5.92446 16.5715 5.93157C17.9736 5.93394 18.9963 6.9756 18.9975 8.37634C18.9999 11.1008 18.9999 13.8264 18.9975 16.5509C18.9963 17.9516 17.9736 18.9909 16.5715 18.9956C14.2119 19.0051 11.8524 18.998 9.49276 18.998H9.49158ZM9.50106 17.1849C11.8014 17.1849 14.1005 17.186 16.4009 17.1849C16.9863 17.1849 17.1843 16.981 17.1854 16.4004C17.1854 13.7755 17.1854 11.1494 17.1854 8.52447C17.1854 7.95564 16.9875 7.74352 16.427 7.74352C11.8073 7.74115 7.18887 7.74115 2.56923 7.74352C2.01933 7.74352 1.81549 7.95564 1.81549 8.4984C1.81312 9.63368 1.81549 10.769 1.81549 11.9031C1.81549 13.4235 1.81431 14.9427 1.81668 16.4632C1.81668 16.9573 2.02052 17.1623 2.51472 17.1849C2.61308 17.1896 2.71264 17.186 2.811 17.186C5.04142 17.186 7.27183 17.186 9.50343 17.186L9.50106 17.1849Z" fill="#363740"/>
<path d="M9.49667 2.96562C11.7377 2.96562 13.9788 2.96325 16.2199 2.9668C16.8291 2.9668 17.2154 3.31995 17.2213 3.86033C17.2261 4.33791 16.8966 4.71358 16.4214 4.76927C16.3432 4.77875 16.2638 4.77875 16.1844 4.77875C11.7318 4.77875 7.27929 4.77875 2.82676 4.78112C2.4487 4.78112 2.12279 4.69343 1.91421 4.34739C1.56341 3.76672 1.92132 3.04502 2.59684 2.9751C2.71417 2.96325 2.83387 2.9668 2.95238 2.9668C5.13421 2.9668 7.31603 2.9668 9.49785 2.9668L9.49667 2.96562Z" fill="#363740"/>
<path d="M9.47003 1.81432C7.831 1.81432 6.19315 1.81669 4.55412 1.81314C3.94614 1.81195 3.56098 1.45643 3.55861 0.914863C3.55624 0.451506 3.87622 0.0770286 4.33368 0.0142207C4.43086 0.00118506 4.53041 0.00237011 4.62878 0.00237011C7.87722 0.00237011 11.1245 0.00355517 14.3717 0C14.7474 0 15.0793 0.0722884 15.2961 0.412399C15.6683 0.995447 15.3104 1.74085 14.6218 1.80484C14.4061 1.82499 14.188 1.81432 13.9712 1.81432C12.4708 1.81432 10.9704 1.81432 9.47003 1.81432Z" fill="#363740"/>
</g>
<defs>
<clipPath id="clip0_14084_37370">
<rect width="19" height="19" fill="white"/>
</clipPath>
</defs>
</svg>
