<svg width="21" height="21" viewBox="0 0 21 21" fill="none" xmlns="http://www.w3.org/2000/svg">
<g clip-path="url(#clip0_14084_36616)">
<path d="M0.000591441 5.80793C-6.98101e-05 6.44405 -0.000731061 7.10134 0.00257519 7.74804C0.00852645 8.94424 0.94618 9.88388 2.13709 9.88719C3.04499 9.88983 3.97868 9.89115 4.93154 9.89115C5.8844 9.89115 6.79097 9.88983 7.74119 9.88719C8.94136 9.88388 9.88364 8.93829 9.88695 7.73415C9.89158 5.8767 9.89158 3.99941 9.88695 2.15452C9.88364 0.951705 8.9407 0.00677782 7.74053 0.00347157C5.95383 -0.00115719 4.12878 -0.00115719 2.1609 0.00347157C0.9356 0.00611657 0.00720395 0.936496 0.00191394 2.16775C-0.000731061 2.80321 -6.98101e-05 3.44859 0.000591441 4.07347C0.000591441 4.35582 0.000591441 4.63818 0.000591441 4.92053H0.00125269C0.00125269 5.21611 0.00125269 5.51169 0.000591441 5.80793ZM1.15976 7.52917C1.15844 5.80264 1.15844 4.07545 1.15976 2.34893C1.16043 1.56138 1.5585 1.16198 2.34208 1.16132C4.09307 1.16 5.84406 1.16 7.54745 1.16132C8.33103 1.16198 8.72844 1.56204 8.7291 2.34959C8.73108 4.25597 8.73042 5.9587 8.7291 7.55429C8.72844 8.32134 8.32375 8.72735 7.55935 8.72934C6.95034 8.73066 6.34132 8.73066 5.73231 8.73H4.93286H4.16383C3.56077 8.73 2.9577 8.73 2.35531 8.73C1.55255 8.72867 1.16175 8.33589 1.16109 7.52917H1.15976Z" fill="black"/>
<path d="M13.2661 9.8869C14.1958 9.88888 15.1282 9.89021 16.0553 9.89021C16.9824 9.89021 17.924 9.88888 18.8451 9.8869C20.0486 9.88426 20.9935 8.94065 20.9962 7.73982C21.0008 5.95312 21.0008 4.07649 20.9962 2.16019C20.9935 0.934887 20.0625 0.00715242 18.8312 0.00252366C18.1951 -0.000121342 17.5477 0.000539909 16.9222 0.00120116C16.6412 0.00120116 16.3595 0.00120116 16.0784 0.00120116C15.7815 0.00120116 15.4846 0.00120116 15.1877 0.000539909C14.5529 -0.000121342 13.897 -0.000782593 13.2516 0.00252366C12.0554 0.00913617 11.1164 0.946129 11.1131 2.13638C11.1085 3.93564 11.1078 5.76863 11.1131 7.74048C11.1157 8.94065 12.062 9.88359 13.2661 9.88624V9.8869ZM16.8574 8.72971H16.0559H15.2935C14.6805 8.72971 14.0669 8.72971 13.4533 8.72971C12.669 8.72839 12.2709 8.32833 12.2703 7.54211C12.269 5.65357 12.269 3.95085 12.2703 2.33674C12.2709 1.56837 12.675 1.1617 13.4387 1.16037C15.1593 1.15839 16.9189 1.15839 18.6686 1.16037C19.433 1.16104 19.8376 1.5677 19.839 2.33476C19.8409 4.24312 19.8409 5.95378 19.839 7.56459C19.8376 8.31246 19.427 8.72574 18.6824 8.72839C18.0741 8.73037 17.4657 8.72971 16.8574 8.72971Z" fill="black"/>
<path d="M7.72341 11.1119C7.08729 11.1093 6.44124 11.1099 5.8157 11.1106C5.53401 11.1106 5.25231 11.1106 4.97062 11.1106C4.6757 11.1106 4.38012 11.1106 4.08521 11.1099C3.44908 11.1093 2.79114 11.1086 2.14377 11.1119C0.946911 11.1185 0.00727376 12.0555 0.0039675 13.2458C-0.0013225 15.0305 -0.0013225 16.8635 0.0039675 18.8499C0.00661251 20.0507 0.952201 20.9943 2.15568 20.9969C3.08341 20.9989 4.01908 21.0002 4.95541 21.0002C5.89174 21.0002 6.81154 20.9989 7.73465 20.9969C8.93879 20.9943 9.88438 20.0513 9.88768 18.8505C9.89231 17.0704 9.89231 15.2454 9.88768 13.2715C9.88504 12.0456 8.95466 11.1172 7.72341 11.1126V11.1119ZM1.16049 15.2923C1.16049 14.6787 1.16049 14.0657 1.16049 13.4521C1.16182 12.6685 1.56187 12.2704 2.3481 12.2697C3.26393 12.2691 4.13678 12.2684 4.97856 12.2684C5.86728 12.2684 6.72095 12.2684 7.55281 12.2697C8.32118 12.2704 8.72785 12.6744 8.72851 13.4388C8.73049 15.1614 8.73049 16.921 8.72851 18.6687C8.72785 19.4331 8.32118 19.8378 7.55281 19.8384C5.62857 19.8404 3.91791 19.8404 2.32297 19.8384C1.5751 19.8371 1.16248 19.4265 1.15983 18.6812C1.15785 18.0735 1.15851 17.4652 1.15851 16.8575V16.0541V15.2917L1.16049 15.2923Z" fill="black"/>
<path d="M16.0943 11.1113H16.0883C14.7573 11.1113 13.5101 11.6165 12.5764 12.535C11.6441 13.4522 11.1217 14.6827 11.1058 16.0006C11.09 17.3344 11.6064 18.596 12.5606 19.5529C13.491 20.4859 14.7096 20.9983 15.9971 20.9983C16.0116 20.9983 16.0262 20.9983 16.0407 20.9983H16.0447C17.3765 20.9983 18.6216 20.4885 19.5513 19.5615C20.4824 18.6337 20.9962 17.3892 20.9981 16.0575C21.0001 14.7383 20.491 13.4978 19.5645 12.5634C18.6381 11.6291 17.4056 11.1133 16.0943 11.112V11.1113ZM19.8257 16.0714C19.8218 18.1662 18.1766 19.8147 16.0798 19.8253C16.0731 19.8253 16.0659 19.8253 16.0586 19.8253C15.0303 19.8253 14.0788 19.4418 13.3766 18.7428C12.6723 18.0419 12.2842 17.0851 12.2835 16.0482C12.2835 13.9527 13.8983 12.33 16.0414 12.2712C18.203 12.3181 19.829 13.9507 19.8251 16.0707L19.8257 16.0714Z" fill="black"/>
</g>
<defs>
<clipPath id="clip0_14084_36616">
<rect width="21" height="21" fill="white"/>
</clipPath>
</defs>
</svg>
