<svg width="17" height="18" viewBox="0 0 17 18" fill="none" xmlns="http://www.w3.org/2000/svg">
<g clip-path="url(#clip0_14084_37383)">
<path d="M12.0938 13.2939C12.5848 12.9972 12.4204 13.1309 12.8913 12.8468C13.1247 12.7058 13.3537 12.5574 13.5924 12.4237C14.3104 12.0216 15.0645 11.9955 15.81 12.3099C16.5153 12.6076 16.9173 13.1716 16.9894 13.9227C17.0658 14.7166 16.7455 15.3579 16.0699 15.7977C15.0019 16.4944 14.5617 16.7618 13.4778 17.4335C12.9083 17.7865 12.2773 17.9944 11.5985 17.9955C7.52481 18.0017 4.93594 18.0017 0.86226 17.9996C0.341516 17.9986 0.00107034 17.6748 9.76427e-06 17.2058C-0.00211139 16.718 0.345758 16.4046 0.908925 16.4046C4.73549 16.4025 7.07618 16.3983 10.9027 16.4077C11.6589 16.4098 12.3377 16.2583 12.973 15.8228C13.8352 15.2315 14.1015 15.1145 14.986 14.5547C15.0602 14.5076 15.1355 14.4617 15.2034 14.4063C15.3179 14.3134 15.3943 14.1964 15.3593 14.0428C15.3232 13.8851 15.2235 13.7858 15.0602 13.7462C14.7739 13.6762 14.5214 13.7545 14.2796 13.9018C13.324 14.4805 13.0016 14.6372 12.0461 15.2169C11.8689 15.3245 11.6865 15.3913 11.4733 15.3903C10.0066 15.3872 8.53978 15.3882 7.073 15.3893C6.71453 15.3893 6.4356 15.2566 6.27969 14.9265C6.14075 14.6309 6.18212 14.3478 6.37938 14.0909C6.55438 13.8631 6.80149 13.79 7.08043 13.7911C7.94586 13.7921 8.81235 13.7911 9.67778 13.7911C9.81035 13.7911 9.9408 13.7848 10.0713 13.7493C10.3109 13.6845 10.4308 13.5153 10.4329 13.2907C10.435 13.0547 10.3141 12.8719 10.0596 12.8186C9.94823 12.7956 9.83263 12.7789 9.71914 12.7789C8.12828 12.7768 8.02328 12.7768 6.43241 12.7778C6.04424 12.7778 5.69213 12.8708 5.36229 13.0943C4.5764 13.6271 3.77036 14.1316 2.97917 14.656C2.75751 14.8033 2.52737 14.8753 2.25904 14.8691C1.79981 14.8586 1.34058 14.8691 0.880289 14.8649C0.341516 14.8607 -0.00211139 14.5442 9.76427e-06 14.0647C0.00213092 13.5863 0.352122 13.2249 0.887713 13.2824C1.79875 13.3806 2.55176 13.1111 3.2528 12.5574C3.68552 12.2159 4.1702 11.938 4.63898 11.6424C5.0929 11.3562 5.58501 11.1796 6.13439 11.1807C7.88434 11.1838 8.14843 11.1755 9.89838 11.1828C11.0788 11.188 11.9591 12.0007 12.0662 13.1591C12.0694 13.1915 12.0789 13.2239 12.0927 13.2928L12.0938 13.2939Z" fill="#363740"/>
<path d="M9.56012 9.32992C7.98729 9.32992 6.41445 9.3341 4.84161 9.32784C4.1183 9.3247 3.59331 8.99984 3.29953 8.33758C3.22105 8.16001 3.17969 7.97616 3.17969 7.78083C3.18181 6.02282 3.17757 3.3247 3.18181 1.56669C3.18393 0.72686 3.86164 0.040579 4.72071 0.00819741C5.11736 -0.00642654 5.51614 0.00297457 5.91386 0.00297457C8.68833 0.00297457 11.4639 0.00297457 14.2383 0.00297457C14.9839 0.00297457 15.5248 0.321568 15.825 1.0068C15.9109 1.20214 15.9395 1.40479 15.9395 1.61683C15.9374 3.33097 15.9395 5.98626 15.9374 7.7004C15.9374 8.63633 15.2565 9.32052 14.3041 9.32575C12.7228 9.3341 11.1404 9.32784 9.55906 9.32784L9.56012 9.32992ZM9.55376 7.73173C11.0471 7.73173 12.5403 7.72965 14.0336 7.73487C14.2245 7.73487 14.3232 7.70144 14.3211 7.47895C14.3126 5.91314 14.3147 3.40618 14.3189 1.84037C14.3189 1.65862 14.2532 1.59699 14.0708 1.59907C13.3644 1.60639 12.657 1.60743 11.9507 1.59907C11.7502 1.59699 11.6919 1.67011 11.694 1.85917C11.7025 2.52038 11.6993 3.1816 11.6961 3.84281C11.694 4.20005 11.554 4.28153 11.2316 4.11022C10.8042 3.88355 10.3757 3.65687 9.9589 3.4114C9.68633 3.25054 9.44558 3.24218 9.16983 3.4114C8.76575 3.66001 8.34258 3.87937 7.92683 4.10917C7.58851 4.29615 7.42624 4.20736 7.42518 3.83027C7.422 3.17742 7.41776 2.52456 7.4273 1.87275C7.43048 1.67115 7.36791 1.59699 7.15579 1.60012C6.47596 1.61057 5.79507 1.61265 5.11524 1.59907C4.87131 1.59385 4.79707 1.66802 4.79919 1.90931C4.80873 3.43229 4.8098 5.89538 4.79919 7.41732C4.79707 7.66906 4.87449 7.74218 5.12903 7.74114C6.60429 7.73069 8.07956 7.73591 9.55482 7.73591L9.55376 7.73173Z" fill="#363740"/>
</g>
<defs>
<clipPath id="clip0_14084_37383">
<rect width="17" height="18" fill="white"/>
</clipPath>
</defs>
</svg>
