<svg width="21" height="17" viewBox="0 0 21 17" fill="none" xmlns="http://www.w3.org/2000/svg">
<g clip-path="url(#clip0_14084_36640)">
<path d="M10.4919 16.997C7.79457 16.997 5.0972 17.0018 2.39984 16.9945C1.20581 16.9921 0.302406 16.2277 0.0444583 15.0199C0.00944273 14.8552 0.00243962 14.6795 0.00243962 14.5099C0.000105245 10.5025 -0.00106194 6.49629 0.00127243 2.48888C0.00243962 1.07636 1.01089 0.00666287 2.37066 0.00545144C7.78523 -0.00181715 13.1986 -0.00181715 18.6132 0.00545144C19.9917 0.00666287 20.9966 1.07272 20.9978 2.50584C21.0001 6.50235 21.0001 10.4989 20.9978 14.4954C20.9978 15.9285 19.9917 16.9909 18.6132 16.9958C15.9065 17.0042 13.1986 16.9982 10.4919 16.9982V16.997ZM10.4978 15.7492C12.8648 15.7492 15.2319 15.7492 17.5989 15.7492C17.9187 15.7492 18.2397 15.7589 18.5595 15.7456C19.3917 15.7116 19.7979 15.267 19.7979 14.4033C19.7979 13.3033 19.7979 12.2033 19.7979 11.1034C19.7979 8.23712 19.7979 5.37088 19.7979 2.50584C19.7979 1.82744 19.4442 1.38527 18.821 1.28714C18.6401 1.25807 18.4545 1.24959 18.2712 1.24959C13.0901 1.24717 7.91012 1.24838 2.72898 1.24838C2.62277 1.24838 2.51539 1.24474 2.40918 1.25201C1.59448 1.30289 1.19997 1.74022 1.19997 2.59428C1.19997 3.69426 1.19997 4.79423 1.19997 5.89421C1.19997 8.76046 1.19997 11.6267 1.19997 14.4917C1.19997 15.1701 1.55363 15.6111 2.17691 15.7104C2.34848 15.7383 2.52356 15.748 2.69747 15.748C5.29796 15.7504 7.89728 15.7492 10.4978 15.7492Z" fill="#363740"/>
<path d="M15.155 4.84975C15.9207 4.84975 16.6852 4.8437 17.4509 4.85218C17.8559 4.85702 18.087 5.0981 18.0846 5.47727C18.0823 5.85645 17.8512 6.08905 17.4404 6.09268C16.5778 6.09995 15.7164 6.09631 14.8539 6.09631C14.1851 6.09631 13.5174 6.10358 12.8487 6.09147C12.425 6.0842 12.174 5.77044 12.2359 5.36098C12.2849 5.03752 12.509 4.85339 12.8883 4.85096C13.6435 4.84491 14.3998 4.84975 15.155 4.85096V4.84975Z" fill="#363740"/>
<path d="M15.1679 7.27019C15.923 7.27019 16.6794 7.26535 17.4345 7.27262C17.8652 7.27625 18.108 7.53792 18.0835 7.94133C18.0625 8.29022 17.8372 8.50585 17.4579 8.51312C16.9443 8.52281 16.4308 8.51676 15.9184 8.51676C14.9204 8.51676 13.9225 8.51433 12.9257 8.51676C12.6316 8.51676 12.3876 8.4368 12.2697 8.12546C12.1052 7.68814 12.3876 7.27867 12.8732 7.27262C13.6377 7.26293 14.4034 7.27019 15.169 7.27019H15.1679Z" fill="#363740"/>
<path d="M15.1356 10.9396C14.3804 10.9396 13.6241 10.9456 12.8689 10.9371C12.4616 10.9323 12.2305 10.6961 12.2305 10.3169C12.2305 9.9377 12.4616 9.70147 12.8701 9.69662C13.6159 9.68814 14.3617 9.69299 15.1076 9.69299C15.8826 9.69299 16.6576 9.68814 17.4326 9.69541C17.8551 9.69905 18.0932 9.94133 18.0851 10.3314C18.0781 10.707 17.8435 10.9335 17.4314 10.9371C16.6658 10.9444 15.9013 10.9396 15.1356 10.9383V10.9396Z" fill="#363740"/>
<path d="M9.26757 8.40405C9.26757 8.30471 9.26524 8.18963 9.24423 8.07212C9.10066 7.28953 8.71549 6.67776 8.09922 6.25255C8.10272 5.58021 8.10272 5.0181 8.09922 4.49355C8.36184 4.44994 8.53808 4.23673 8.53808 3.95083C8.53808 3.63344 8.32332 3.41175 8.00584 3.39963C7.9008 3.396 7.79575 3.396 7.6907 3.39721H7.57399H7.03358C6.49317 3.39721 5.95277 3.39721 5.41236 3.39842C5.07971 3.39842 4.85678 3.60679 4.84394 3.9266C4.8381 4.0853 4.88362 4.22462 4.97583 4.32759C5.03186 4.39058 5.1264 4.46327 5.28163 4.49113C5.2793 5.09927 5.27813 5.65168 5.28397 6.21136C5.28397 6.2368 5.28047 6.24528 5.28047 6.24528C5.28047 6.24528 5.27463 6.25618 5.24078 6.28162C4.49495 6.84009 4.11562 7.58391 4.11328 8.49248C4.11328 8.89347 4.11328 9.29445 4.11328 9.69422V10.2357V10.8269C4.11328 11.2509 4.11328 11.6761 4.11328 12.1001C4.11562 12.9639 4.72022 13.5938 5.55125 13.5987C5.92942 13.6011 6.30992 13.6023 6.69159 13.6023C7.07326 13.6023 7.45377 13.6023 7.83193 13.5987C8.66414 13.5938 9.26874 12.9639 9.26991 12.1001C9.27107 10.8669 9.26991 9.63486 9.26991 8.40163L9.26757 8.40405ZM8.1996 10.8475V12.0662C8.1996 12.4102 8.05253 12.4829 7.8331 12.4878C7.09544 12.5023 6.32743 12.5023 5.55125 12.4878C5.32832 12.4841 5.18126 12.4115 5.18126 12.071V11.1819C5.18126 10.3024 5.18009 9.42165 5.18126 8.54215C5.18359 7.94249 5.41119 7.50032 5.87923 7.19141C6.20488 6.97698 6.35895 6.67776 6.35194 6.27799C6.34611 5.93273 6.34611 5.57899 6.34727 5.23737C6.34727 4.99387 6.34844 4.75038 6.34727 4.50688C6.56904 4.51294 6.80014 4.51294 7.03475 4.50688C7.03358 4.77461 7.03358 5.04112 7.03475 5.30885C7.03475 5.64683 7.03475 5.98361 7.03241 6.32039C7.02891 6.68988 7.17481 6.97335 7.46544 7.16233C7.96616 7.48821 8.2066 7.95582 8.2031 8.59546C8.20076 8.98796 8.20076 9.38046 8.20193 9.77297V10.8475H8.1996Z" fill="#363740"/>
</g>
<defs>
<clipPath id="clip0_14084_36640">
<rect width="21" height="17" fill="white"/>
</clipPath>
</defs>
</svg>
