<svg width="21" height="10" viewBox="0 0 21 10" fill="none" xmlns="http://www.w3.org/2000/svg">
<path d="M7.72341 0.00252361C7.08729 -0.000121393 6.44124 0.000540584 5.8157 0.00120183C5.53401 0.00120183 5.25231 0.00120183 4.97062 0.00120183C4.6757 0.00120183 4.38012 0.00120119 4.08521 0.000539938C3.44908 -0.000121312 2.79114 -0.000782644 2.14377 0.00252361C0.946911 0.00913612 0.00727376 0.946129 0.0039675 2.13638C-0.0013225 3.9211 -0.0013225 5.75408 0.0039675 7.74048C0.00661251 8.94131 0.952201 9.88492 2.15568 9.88756C3.08341 9.88955 4.01908 9.89087 4.95541 9.89087C5.89174 9.89087 6.81154 9.88955 7.73465 9.88756C8.93879 9.88492 9.88438 8.94197 9.88768 7.74114C9.89231 5.96106 9.89231 4.136 9.88768 2.16217C9.88504 0.93621 8.95466 0.00781426 7.72341 0.00318551V0.00252361ZM1.16049 4.18295C1.16049 3.56931 1.16049 2.95633 1.16049 2.34269C1.16182 1.55911 1.56187 1.16104 2.3481 1.16037C3.26393 1.15971 4.13678 1.15905 4.97856 1.15905C5.86728 1.15905 6.72095 1.15905 7.55281 1.16037C8.32118 1.16104 8.72785 1.56506 8.72851 2.32947C8.73049 4.05202 8.73049 5.81161 8.72851 7.5593C8.72785 8.3237 8.32118 8.72839 7.55281 8.72905C5.62857 8.73104 3.91791 8.73104 2.32297 8.72905C1.5751 8.72773 1.16248 8.31709 1.15983 7.57186C1.15785 6.96417 1.15851 6.35582 1.15851 5.74813V4.94471V4.18229L1.16049 4.18295Z" fill="black"/>
<path d="M16.0943 0.00195312H16.0883C14.7573 0.00195312 13.5101 0.507149 12.5764 1.42563C11.6441 2.34278 11.1217 3.57337 11.1058 4.89124C11.09 6.22498 11.6064 7.48665 12.5606 8.44348C13.491 9.37651 14.7096 9.88897 15.9971 9.88897C16.0116 9.88897 16.0262 9.88897 16.0407 9.88897H16.0447C17.3765 9.88897 18.6216 9.37915 19.5513 8.45208C20.4824 7.52434 20.9962 6.27987 20.9981 4.94811C21.0001 3.62891 20.491 2.38841 19.5645 1.45406C18.6381 0.519713 17.4056 0.00393651 16.0943 0.00261401V0.00195312ZM19.8257 4.962C19.8218 7.05684 18.1766 8.70534 16.0798 8.71592C16.0731 8.71592 16.0659 8.71592 16.0586 8.71592C15.0303 8.71592 14.0788 8.33239 13.3766 7.63345C12.6723 6.93252 12.2842 5.97569 12.2835 4.93885C12.2835 2.84335 13.8983 1.22064 16.0414 1.16179C18.203 1.20874 19.829 2.84136 19.8251 4.96133L19.8257 4.962Z" fill="black"/>
</svg>
