<svg width="309" height="257" viewBox="0 0 309 257" fill="none" xmlns="http://www.w3.org/2000/svg">
<rect width="309" height="257" rx="2" fill="#EFF0F4"/>
<g clip-path="url(#clip0_0_1)">
<path d="M139.899 167.988C130.495 167.988 121.095 167.996 111.691 167.984C107.986 167.98 105.854 165.761 106.012 162.037C106.069 160.688 106.206 159.33 106.469 158.005C108.665 146.917 116.512 139.011 127.53 136.837C129.237 136.499 131.008 136.369 132.752 136.345C137.536 136.28 142.321 136.276 147.106 136.333C156.308 136.438 163.726 140.121 169.142 147.669C172.402 152.217 173.785 157.383 173.886 162.928C173.927 165.216 172.147 167.354 169.914 167.801C169.227 167.939 168.511 167.976 167.807 167.976C158.504 167.988 149.205 167.984 139.903 167.984L139.899 167.988ZM139.866 163.163C146.099 163.163 152.332 163.163 158.569 163.163C161.736 163.163 164.903 163.143 168.07 163.176C168.871 163.184 169.198 162.907 169.085 162.111C168.875 160.639 168.778 159.143 168.45 157.7C166.387 148.608 159.244 142.21 150.451 141.479C143.729 140.918 136.906 140.995 130.163 141.401C119.987 142.015 111.606 149.953 110.805 161.668C110.704 163.159 110.736 163.163 112.269 163.163C121.467 163.163 130.669 163.163 139.866 163.163Z" fill="#D7DAE3"/>
<path d="M159.326 109.494C159.152 120.42 151.12 128.927 139.904 128.903C128.591 128.878 120.558 120.257 120.582 109.425C120.602 98.4994 128.752 90.0531 139.972 90.0002C150.865 89.9474 159.342 98.5847 159.326 109.494ZM154.525 109.523C154.545 101.308 148.078 94.7843 139.924 94.7965C131.834 94.8087 125.383 101.247 125.347 109.344C125.31 117.575 131.725 124.086 139.9 124.119C148.009 124.151 154.509 117.668 154.529 109.523H154.525Z" fill="#D7DAE3"/>
<path d="M189.084 167.988C186.556 167.988 184.028 168.008 181.5 167.98C180.493 167.967 179.558 167.719 179.065 166.671C178.632 165.748 178.737 164.891 179.316 164.086C179.922 163.244 180.849 163.175 181.767 163.171C186.45 163.159 191.138 163.171 195.822 163.167C197.699 163.167 198.245 162.602 198.204 160.745C198.002 152.046 191.07 144.494 182.515 143.787C179.833 143.568 177.127 143.653 174.434 143.592C173.358 143.568 172.343 143.417 171.788 142.287C171.081 140.84 171.801 139.275 173.366 138.901C173.592 138.848 173.831 138.771 174.058 138.779C177.354 138.885 180.687 138.739 183.939 139.17C193.148 140.385 200.449 147.368 202.395 156.554C202.702 158.005 202.916 159.493 202.977 160.976C203.159 165.191 200.562 167.911 196.356 167.984C193.929 168.024 191.502 167.992 189.075 167.992L189.084 167.988Z" fill="#D7DAE3"/>
<path d="M188.456 111.689C188.448 120.184 182.563 127.248 174.364 128.683C170.505 129.358 166.788 128.728 163.294 126.907C162.444 126.464 161.83 125.821 161.809 124.781C161.789 123.785 162.169 123 163.047 122.501C163.965 121.976 164.839 122.175 165.725 122.643C169.405 124.582 173.126 124.565 176.9 122.879C183.161 120.078 185.738 111.575 181.721 105.197C178.862 100.653 173.094 98.6168 167.913 100.259C166.974 100.556 166.06 100.698 165.231 100.023C164.503 99.4338 164.127 98.6615 164.293 97.6982C164.483 96.6048 165.227 95.9504 166.214 95.6822C172.427 93.9872 178.085 94.9343 182.951 99.385C186.62 102.738 188.351 106.974 188.456 111.693V111.689Z" fill="#D7DAE3"/>
</g>
<defs>
<clipPath id="clip0_0_1">
<rect width="97" height="78" fill="white" transform="translate(106 90)"/>
</clipPath>
</defs>
</svg>
