<svg width="96" height="80" viewBox="0 0 96 80" fill="none" xmlns="http://www.w3.org/2000/svg">
<rect width="96" height="80" rx="2" fill="#EFF0F4"/>
<g clip-path="url(#clip0_0_1)">
<path d="M40.4754 60.9937C35.628 60.9937 30.7827 60.998 25.9353 60.9916C24.0256 60.9894 22.9268 59.8229 23.0081 57.8658C23.0373 57.1565 23.1082 56.4429 23.2437 55.7464C24.3758 49.918 28.4205 45.7624 34.0998 44.6194C34.9796 44.442 35.8928 44.3737 36.7914 44.3608C39.2578 44.3267 41.7242 44.3245 44.1907 44.3544C48.9338 44.41 52.7575 46.3457 55.5492 50.3132C57.2296 52.704 57.9426 55.4195 57.9948 58.3337C58.0156 59.5366 57.0983 60.6604 55.9474 60.8954C55.593 60.9681 55.2239 60.9873 54.8612 60.9873C50.0659 60.9937 45.2727 60.9916 40.4775 60.9916L40.4754 60.9937ZM40.4587 58.4577C43.6715 58.4577 46.8844 58.4577 50.0993 58.4577C51.7317 58.4577 53.3642 58.447 54.9967 58.4641C55.4095 58.4683 55.5784 58.3231 55.52 57.9043C55.4116 57.1309 55.3615 56.3446 55.1927 55.5862C54.1294 50.8067 50.4474 47.4439 45.9149 47.0593C42.4498 46.7644 38.9326 46.805 35.457 47.0187C30.2114 47.3413 25.8915 51.5139 25.4787 57.6714C25.4266 58.4555 25.4433 58.4577 26.2335 58.4577C30.9745 58.4577 35.7177 58.4577 40.4587 58.4577Z" fill="#D7DAE3"/>
<path d="M50.4869 30.2469C50.3972 35.9899 46.2566 40.4617 40.4752 40.4489C34.6437 40.436 30.5031 35.9045 30.5157 30.2106C30.5261 24.4676 34.7271 20.0279 40.5106 20.0001C46.1253 19.9724 50.4952 24.5125 50.4869 30.2469ZM48.0121 30.2619C48.0225 25.944 44.6888 22.5148 40.4856 22.5212C36.3158 22.5276 32.9904 25.9119 32.9717 30.1679C32.9529 34.4943 36.2595 37.9171 40.4731 37.9342C44.6533 37.9512 48.0038 34.5435 48.0142 30.2619H48.0121Z" fill="#D7DAE3"/>
<path d="M65.8291 60.9935C64.526 60.9935 63.223 61.0042 61.9199 60.9893C61.4008 60.9829 60.9191 60.8525 60.6648 60.3013C60.4417 59.8163 60.4959 59.3655 60.794 58.9425C61.1068 58.5002 61.5842 58.4639 62.0575 58.4618C64.4718 58.4554 66.8882 58.4618 69.3025 58.4596C70.2699 58.4596 70.5514 58.1626 70.5305 57.1863C70.4263 52.6141 66.8528 48.6444 62.4432 48.2727C61.0609 48.1573 59.6661 48.2021 58.2776 48.1701C57.723 48.1573 57.1997 48.0782 56.9141 47.4843C56.5492 46.7237 56.9203 45.9011 57.7272 45.7045C57.8439 45.6768 57.9669 45.6362 58.0837 45.6404C59.7829 45.696 61.5008 45.6191 63.1771 45.8456C67.9244 46.4844 71.6876 50.1549 72.6905 54.9835C72.8489 55.7462 72.9594 56.5282 72.9907 57.308C73.0845 59.5236 71.746 60.953 69.5777 60.9914C68.3268 61.0128 67.0758 60.9957 65.8249 60.9957L65.8291 60.9935Z" fill="#D7DAE3"/>
<path d="M65.5013 31.4004C65.4972 35.8658 62.4636 39.5791 58.2375 40.3333C56.2485 40.6879 54.3325 40.3568 52.5312 39.3996C52.0933 39.1667 51.7764 38.8291 51.766 38.2822C51.7556 37.7587 51.9516 37.3464 52.404 37.0836C52.8773 36.808 53.3276 36.9127 53.7842 37.1584C55.6815 38.1775 57.5996 38.169 59.5448 37.2823C62.7722 35.8102 64.1003 31.3406 62.03 27.9884C60.5559 25.5998 57.5829 24.5294 54.9121 25.3925C54.4284 25.5485 53.9572 25.6233 53.5298 25.2686C53.1546 24.9588 52.9607 24.5529 53.0461 24.0465C53.1441 23.4718 53.5278 23.1278 54.0365 22.9868C57.2389 22.0958 60.1556 22.5937 62.6638 24.9332C64.5548 26.6958 65.4471 28.9221 65.5013 31.4026V31.4004Z" fill="#D7DAE3"/>
</g>
<defs>
<clipPath id="clip0_0_1">
<rect width="50" height="41" fill="white" transform="translate(23 20)"/>
</clipPath>
</defs>
</svg>
