<svg width="15" height="12" viewBox="0 0 15 12" fill="none" xmlns="http://www.w3.org/2000/svg">
<g clip-path="url(#clip0_20431_35246)">
<path d="M9.96586 5.2185C9.97774 6.42324 9.58971 7.25994 8.95462 7.98867C8.71705 8.26185 8.3607 8.28148 8.09779 8.06065C7.85785 7.85945 7.8135 7.50449 7.99643 7.20923C8.04236 7.1348 8.10096 7.06937 8.1556 7.00067C8.95224 6.01103 8.93007 4.68115 8.10254 3.73895C7.25284 2.77303 5.68965 2.70759 4.78848 3.62199C3.8192 4.6059 2.85785 5.59882 1.91312 6.60808C0.637385 7.97068 1.25744 10.228 3.02335 10.6566C3.83346 10.8529 4.56596 10.6566 5.19155 10.0784C5.35468 9.92706 5.53206 9.81256 5.75854 9.83955C6.19329 9.89107 6.42057 10.3695 6.20121 10.7638C6.11094 10.9257 5.97711 11.05 5.84011 11.1678C4.33472 12.4633 2.00656 12.2073 0.800514 10.6141C-0.353271 9.09036 -0.253493 7.08818 1.0563 5.70269C1.96459 4.74249 2.87923 3.78884 3.79782 2.83927C5.22719 1.36136 7.3938 1.3221 8.88097 2.74031C9.54854 3.37662 9.96586 4.40798 9.96586 5.2185Z" fill="#363740"/>
<path d="M5.0436 6.59559C5.05231 5.61413 5.37382 4.75781 6.0295 4.04461C6.3233 3.72482 6.66064 3.69865 6.92276 3.94892C7.18091 4.1951 7.18329 4.58114 6.91405 4.90257C6.56482 5.31969 6.32092 5.78098 6.27182 6.34205C6.21877 6.94565 6.36685 7.48954 6.7034 7.97945C7.51905 9.16539 9.10758 9.36986 10.1656 8.41866C10.4237 8.18638 10.6502 7.91811 10.8925 7.66702C11.6179 6.91293 12.3488 6.16457 13.0678 5.40475C14.0141 4.40612 14.0007 2.92493 13.0464 1.93938C12.215 1.0806 10.7721 1.03643 9.88839 1.84205C9.81949 1.90503 9.7506 1.97046 9.67458 2.02362C9.38791 2.224 9.08145 2.19129 8.87081 1.94265C8.66333 1.69728 8.66571 1.36604 8.88269 1.10268C9.14876 0.779618 9.48611 0.549792 9.85038 0.371493C12.1096 -0.738376 14.715 0.753445 14.9771 3.3216C15.0872 4.39876 14.7799 5.37122 14.0545 6.15802C13.0813 7.21391 12.1009 8.26571 11.0754 9.26599C10.0214 10.2941 8.74886 10.5746 7.38918 10.0487C6.03663 9.52607 5.2685 8.46119 5.04598 6.98491C5.02697 6.85895 5.0436 6.72645 5.0436 6.59723V6.59559Z" fill="#363740"/>
</g>
<defs>
<clipPath id="clip0_20431_35246">
<rect width="15" height="12" fill="white"/>
</clipPath>
</defs>
</svg>
