<svg width="45" height="45" viewBox="0 0 45 45" fill="none" xmlns="http://www.w3.org/2000/svg">
<circle cx="22.5" cy="22.5" r="22.5" fill="#FF8D24"/>
<path d="M36.8567 12.3702L31.5183 7.0318C31.3268 6.84031 31.0164 6.84031 30.8251 7.0318L15.5725 22.2842C15.5058 22.3509 15.4598 22.4355 15.4399 22.5277L13.9758 29.3302C13.9408 29.4929 13.9907 29.6623 14.1085 29.78C14.2014 29.8729 14.3265 29.9236 14.4551 29.9236C14.4894 29.9236 14.524 29.92 14.5582 29.9126L21.3607 28.4485C21.4529 28.4287 21.5375 28.3826 21.6042 28.3159L36.8567 13.0635C36.9486 12.9716 37.0003 12.8469 37.0003 12.7169C37.0003 12.5869 36.9486 12.4621 36.8567 12.3702ZM31.1716 8.07181L32.1076 9.00774L17.5484 23.5668L16.6125 22.6309L31.1716 8.07181ZM15.0942 28.7944L15.4968 26.9234L16.9652 28.3917L15.0942 28.7944ZM18.1063 28.146L15.7424 25.7822L16.2091 23.6141L17.2016 24.6066C17.2016 24.6067 17.2017 24.6067 17.2017 24.6068L20.2743 27.6793L18.1063 28.146ZM21.2576 27.276L20.3216 26.3401L30.4745 16.1872C30.666 15.9957 30.666 15.6853 30.4745 15.4938C30.283 15.3023 29.9726 15.3023 29.7813 15.4938L19.6284 25.6467L18.5367 24.5551L18.2419 24.2602L32.8009 9.70099L33.4942 10.3943L34.1875 11.0876L31.0558 14.2192C30.8643 14.4107 30.8643 14.721 31.0558 14.9125C31.2473 15.104 31.5577 15.104 31.7491 14.9125L34.8808 11.7808L35.8167 12.7167L21.2576 27.276Z" fill="white"/>
<path d="M28.6544 34.8712C28.6281 34.651 28.4287 34.4937 28.208 34.5201C23.8076 35.0459 18.6411 34.0657 17.2806 31.1745C17.1861 30.9739 16.9469 30.8877 16.7463 30.9821C16.5456 31.0766 16.4595 31.3158 16.5539 31.5165C17.8737 34.3211 21.9516 35.4597 25.8942 35.4597C26.7115 35.4597 27.5235 35.4107 28.3033 35.3176C28.5235 35.2913 28.6807 35.0914 28.6544 34.8712Z" fill="white"/>
<path d="M30.8334 28.0848C29.4803 27.3572 27.3948 26.6206 26.0265 26.6206C25.8048 26.6206 25.625 26.8004 25.625 27.0222C25.625 27.2439 25.8048 27.4237 26.0265 27.4237C26.9389 27.4237 28.8003 27.9033 30.453 28.7922C31.5202 29.366 33.3105 30.5578 33.3105 32.0912C33.3105 32.9363 31.9838 33.7611 29.8482 34.2435C29.6319 34.2924 29.4961 34.5074 29.545 34.7236C29.5871 34.9102 29.7527 35.0368 29.9363 35.0368C29.9656 35.0368 29.9954 35.0335 30.0252 35.0268C32.6235 34.4399 34.1136 33.3699 34.1136 32.0911C34.1136 30.6453 32.9487 29.2224 30.8334 28.0848Z" fill="white"/>
<path d="M18.1604 16.3894C13.5923 16.2794 8.05984 17.0697 5.9973 19.0832C5.42629 19.6406 5.13672 20.2692 5.13672 20.9517C5.13672 22.2993 5.92989 23.2917 7.56162 23.9855C9.09395 24.6371 11.2277 24.9601 13.1128 25.1902C13.1293 25.1923 13.1457 25.1932 13.1619 25.1932C13.362 25.1932 13.5352 25.0438 13.5601 24.8402C13.587 24.6201 13.4303 24.4198 13.2101 24.3929C11.3807 24.1696 9.31627 23.8587 7.8759 23.2463C6.55507 22.6848 5.93986 21.9556 5.93986 20.9516C5.93986 20.4872 6.14217 20.064 6.55829 19.6577C8.44338 17.8175 13.8842 17.0899 18.141 17.1922C18.362 17.1968 18.5468 17.0222 18.5522 16.8004C18.5575 16.5788 18.3821 16.3947 18.1604 16.3894Z" fill="white"/>
</svg>
