<svg width="119" height="19" viewBox="0 0 119 19" fill="none" xmlns="http://www.w3.org/2000/svg">
<path d="M27.6562 15L26.4121 11.8213H22.4062L21.1758 15H20L23.9512 4.96484H24.9287L28.8594 15H27.6562ZM26.0498 10.7754L24.8877 7.67871C24.7373 7.28678 24.5824 6.80599 24.4229 6.23633C24.3226 6.67383 24.179 7.15462 23.9922 7.67871L22.8164 10.7754H26.0498ZM33.5488 15.1367C33.0612 15.1367 32.6146 15.0479 32.209 14.8701C31.8079 14.6878 31.4707 14.4098 31.1973 14.0361H31.1152C31.1699 14.4736 31.1973 14.8883 31.1973 15.2803V18.3633H30.0625V7.50781H30.9854L31.1426 8.5332H31.1973C31.4889 8.12305 31.8285 7.82682 32.2158 7.64453C32.6032 7.46224 33.0475 7.37109 33.5488 7.37109C34.5423 7.37109 35.3079 7.71061 35.8457 8.38965C36.388 9.06868 36.6592 10.0212 36.6592 11.2471C36.6592 12.4775 36.3835 13.4346 35.832 14.1182C35.2852 14.7972 34.5241 15.1367 33.5488 15.1367ZM33.3848 8.33496C32.6191 8.33496 32.0654 8.54688 31.7236 8.9707C31.3818 9.39453 31.2064 10.069 31.1973 10.9941V11.2471C31.1973 12.2998 31.3727 13.054 31.7236 13.5098C32.0745 13.9609 32.6374 14.1865 33.4121 14.1865C34.0592 14.1865 34.5651 13.9245 34.9297 13.4004C35.2988 12.8763 35.4834 12.154 35.4834 11.2334C35.4834 10.2992 35.2988 9.58366 34.9297 9.08691C34.5651 8.58561 34.0501 8.33496 33.3848 8.33496ZM42.1348 15.1367C41.6471 15.1367 41.2005 15.0479 40.7949 14.8701C40.3939 14.6878 40.0566 14.4098 39.7832 14.0361H39.7012C39.7559 14.4736 39.7832 14.8883 39.7832 15.2803V18.3633H38.6484V7.50781H39.5713L39.7285 8.5332H39.7832C40.0749 8.12305 40.4144 7.82682 40.8018 7.64453C41.1891 7.46224 41.6335 7.37109 42.1348 7.37109C43.1283 7.37109 43.8939 7.71061 44.4316 8.38965C44.974 9.06868 45.2451 10.0212 45.2451 11.2471C45.2451 12.4775 44.9694 13.4346 44.418 14.1182C43.8711 14.7972 43.11 15.1367 42.1348 15.1367ZM41.9707 8.33496C41.2051 8.33496 40.6514 8.54688 40.3096 8.9707C39.9678 9.39453 39.7923 10.069 39.7832 10.9941V11.2471C39.7832 12.2998 39.9587 13.054 40.3096 13.5098C40.6605 13.9609 41.2233 14.1865 41.998 14.1865C42.6452 14.1865 43.151 13.9245 43.5156 13.4004C43.8848 12.8763 44.0693 12.154 44.0693 11.2334C44.0693 10.2992 43.8848 9.58366 43.5156 9.08691C43.151 8.58561 42.6361 8.33496 41.9707 8.33496Z" fill="black"/>
<path d="M90.4502 15H89.2881V6.03809H86.123V5.00586H93.6152V6.03809H90.4502V15ZM101.422 11.2471C101.422 12.4684 101.114 13.4232 100.499 14.1113C99.8838 14.7949 99.0339 15.1367 97.9492 15.1367C97.2793 15.1367 96.6846 14.9795 96.165 14.665C95.6455 14.3506 95.2445 13.8994 94.9619 13.3115C94.6794 12.7236 94.5381 12.0355 94.5381 11.2471C94.5381 10.0257 94.8434 9.07552 95.4541 8.39648C96.0648 7.71289 96.9124 7.37109 97.9971 7.37109C99.0452 7.37109 99.877 7.71973 100.492 8.41699C101.112 9.11426 101.422 10.0576 101.422 11.2471ZM95.7139 11.2471C95.7139 12.2041 95.9053 12.9333 96.2881 13.4346C96.6709 13.9359 97.2337 14.1865 97.9766 14.1865C98.7194 14.1865 99.2822 13.9382 99.665 13.4414C100.052 12.9401 100.246 12.2087 100.246 11.2471C100.246 10.2946 100.052 9.57227 99.665 9.08008C99.2822 8.58333 98.7148 8.33496 97.9629 8.33496C97.2201 8.33496 96.6595 8.57878 96.2812 9.06641C95.903 9.55404 95.7139 10.2809 95.7139 11.2471ZM105.838 14.2002C106.038 14.2002 106.232 14.1865 106.419 14.1592C106.606 14.1273 106.754 14.0954 106.863 14.0635V14.9316C106.74 14.9909 106.558 15.0387 106.316 15.0752C106.079 15.1162 105.865 15.1367 105.674 15.1367C104.225 15.1367 103.5 14.3734 103.5 12.8467V8.38965H102.427V7.84277L103.5 7.37109L103.979 5.77148H104.635V7.50781H106.809V8.38965H104.635V12.7988C104.635 13.25 104.742 13.5964 104.956 13.8379C105.17 14.0794 105.464 14.2002 105.838 14.2002ZM112.975 15L112.749 13.9336H112.694C112.321 14.403 111.947 14.722 111.573 14.8906C111.204 15.0547 110.742 15.1367 110.186 15.1367C109.443 15.1367 108.859 14.9453 108.436 14.5625C108.016 14.1797 107.807 13.6351 107.807 12.9287C107.807 11.4157 109.017 10.6227 111.437 10.5498L112.708 10.5088V10.0439C112.708 9.45605 112.58 9.02311 112.325 8.74512C112.075 8.46257 111.671 8.32129 111.115 8.32129C110.491 8.32129 109.785 8.5127 108.996 8.89551L108.647 8.02734C109.017 7.82682 109.42 7.6696 109.857 7.55566C110.299 7.44173 110.742 7.38477 111.184 7.38477C112.077 7.38477 112.738 7.58301 113.166 7.97949C113.599 8.37598 113.815 9.01172 113.815 9.88672V15H112.975ZM110.411 14.2002C111.118 14.2002 111.671 14.0065 112.072 13.6191C112.478 13.2318 112.681 12.6895 112.681 11.9922V11.3154L111.546 11.3633C110.644 11.3952 109.992 11.5365 109.591 11.7871C109.194 12.0332 108.996 12.4183 108.996 12.9424C108.996 13.3525 109.119 13.6647 109.365 13.8789C109.616 14.0931 109.965 14.2002 110.411 14.2002ZM117.295 15H116.16V4.36328H117.295V15Z" fill="black"/>
<circle cx="7" cy="10" r="6" stroke="#4160C2" stroke-width="2"/>
<circle cx="73" cy="10" r="6" stroke="#FFB36C" stroke-width="2"/>
</svg>
