<svg width="19" height="19" viewBox="0 0 19 19" fill="none" xmlns="http://www.w3.org/2000/svg">
<path d="M4.05221 17.032C4.05221 17.032 5.56829 18.1701 8.6959 19H19L14.0706 12.6581H10.3749C8.4756 12.6581 6.93149 11.2418 6.93149 9.50034C6.93149 7.75891 8.4756 6.34263 10.3749 6.34263V4.37467C7.29265 4.37467 4.78521 6.67459 4.78521 9.50034C4.78521 12.3261 7.29265 14.626 10.3749 14.626H12.9644L14.8343 17.0314H10.3588C5.82998 17.0314 2.1456 13.6526 2.1456 9.49966C2.1456 5.34675 5.65841 2.12645 10.0411 1.9734L16.4058 5.88278V7.52218H14.3643V9.49014H18.5521V4.83248L10.6853 0H10.3588C4.64703 0 0 4.26175 0 9.50034C0 12.5642 1.58884 15.294 4.05221 17.032Z" fill="#363740"/>
</svg>
