<svg width="21" height="26" viewBox="0 0 21 26" fill="none" xmlns="http://www.w3.org/2000/svg">
<path d="M19.7868 14.0867C20.9632 10.984 20.5201 7.48008 18.6001 4.70742C16.675 1.92461 13.6194 0.330078 10.2174 0.330078C6.82044 0.330078 3.76475 1.92461 1.83457 4.70742C-0.0854257 7.475 -0.528501 10.9789 0.647941 14.0766C0.958603 14.9145 1.45261 15.727 2.11467 16.4937L9.77427 25.4668C9.88632 25.5988 10.0442 25.6699 10.2174 25.6699C10.3854 25.6699 10.5484 25.5938 10.6604 25.4668L18.3149 16.4988C18.9821 15.727 19.4761 14.9145 19.7868 14.0867ZM17.4288 15.7523L10.2174 24.1973L2.99573 15.7422C2.42024 15.077 1.99754 14.3813 1.73271 13.6703C0.693776 10.9281 1.08592 7.82031 2.78693 5.36758C4.49302 2.90469 7.2024 1.48789 10.2123 1.48789C13.2221 1.48789 15.9315 2.89961 17.6376 5.36758C19.3386 7.82539 19.7358 10.9332 18.6918 13.6805C18.4321 14.3863 18.0043 15.077 17.4288 15.7422V15.7523Z" fill="black"/>
<path d="M10.2185 5.72314C7.58548 5.72314 5.44141 7.86104 5.44141 10.4864C5.44141 13.1118 7.58548 15.2497 10.2185 15.2497C12.8515 15.2497 14.9955 13.1118 14.9955 10.4864C14.9955 7.86104 12.8515 5.72314 10.2185 5.72314ZM10.2185 14.0868C8.22718 14.0868 6.60766 12.472 6.60766 10.4864C6.60766 8.50088 8.22718 6.88604 10.2185 6.88604C12.2098 6.88604 13.8293 8.50088 13.8293 10.4864C13.8344 12.472 12.2098 14.0868 10.2185 14.0868Z" fill="black"/>
</svg>
