<svg width="19" height="19" viewBox="0 0 19 19" fill="none" xmlns="http://www.w3.org/2000/svg">
<path d="M3.95768 16.625L15.041 16.625C15.4782 16.625 15.8327 16.2706 15.8327 15.8333L15.8327 7.91667C15.8327 7.47944 15.4782 7.125 15.041 7.125L3.95768 7.125C3.52046 7.125 3.16602 7.47944 3.16602 7.91667L3.16602 15.8333C3.16602 16.2706 3.52046 16.625 3.95768 16.625Z" stroke="#3B4FFF" stroke-width="2" stroke-linecap="round" stroke-linejoin="round"/>
<path d="M11.6923 7.125V6.125V7.125ZM7.30769 7.125L7.30769 8.125H7.30769L7.30769 7.125ZM7.125 6.94231H6.125H7.125ZM7.125 4.75H8.125H7.125ZM11.875 4.75H10.875H11.875ZM11.875 6.94231L12.875 6.94231L11.875 6.94231ZM9.5 2.375V3.375V2.375ZM11.6923 6.125L7.30769 6.125L7.30769 8.125L11.6923 8.125V6.125ZM8.125 6.94231L8.125 4.75L6.125 4.75L6.125 6.94231L8.125 6.94231ZM10.875 4.75L10.875 6.94231L12.875 6.94231L12.875 4.75L10.875 4.75ZM9.5 3.375C10.2594 3.375 10.875 3.99061 10.875 4.75L12.875 4.75C12.875 2.88604 11.364 1.375 9.5 1.375L9.5 3.375ZM8.125 4.75C8.125 3.99061 8.74061 3.375 9.5 3.375L9.5 1.375C7.63604 1.375 6.125 2.88604 6.125 4.75L8.125 4.75ZM7.30769 6.125C7.75908 6.125 8.125 6.49093 8.125 6.94231L6.125 6.94231C6.125 7.59549 6.65451 8.125 7.30769 8.125L7.30769 6.125ZM11.6923 8.125C12.3455 8.125 12.875 7.5955 12.875 6.94231L10.875 6.94231C10.875 6.49092 11.2409 6.125 11.6923 6.125V8.125Z" fill="#3B4FFF"/>
</svg>
