<svg width="42" height="33" viewBox="0 0 42 33" fill="none" xmlns="http://www.w3.org/2000/svg">
<path d="M20.8244 23.9817L21.1852 23.6202L24.3547 20.4447C24.892 19.883 25.5419 19.2786 26.1956 18.6003C29.2313 15.4481 30.7501 12.7991 30.7501 10.4126C30.7501 4.9379 26.3042 0.483521 20.8399 0.483521C15.3756 0.483521 10.9297 4.9379 10.9297 10.4126C10.9297 12.599 12.1731 15.0438 14.7161 17.8618L20.8244 23.9817ZM20.8399 4.78437C23.9377 4.78437 26.4574 7.3089 26.4574 10.4126C26.4574 10.8537 26.2867 11.4271 25.9531 12.117C25.635 12.7739 25.1791 13.5085 24.6011 14.2975C24.058 15.0399 23.4101 15.8231 22.7292 16.5578C22.1104 17.2244 21.4626 17.8579 20.8399 18.3982C20.2192 17.8579 19.5694 17.2244 18.9506 16.5578C18.2697 15.8231 17.6218 15.0399 17.0787 14.2975C16.5007 13.5066 16.0468 12.7739 15.7267 12.117C15.3911 11.4271 15.2224 10.8537 15.2224 10.4126C15.2224 7.3089 17.7421 4.78437 20.8399 4.78437Z" fill="#FF8D24"/>
<path d="M25.3321 28.4614L37.7291 16.0427L35.2695 12.8613L22.5156 25.6395L25.3321 28.4614Z" fill="#FF8D24"/>
<path d="M39.2227 17.9769L27.043 30.1273L29.8595 32.9492L41.6532 21.1234L39.2227 17.9769Z" fill="#FF8D24"/>
<path d="M3.92969 16.0565L20.7842 32.9431H26.4173L6.38736 12.8751L3.92969 16.0565Z" fill="#FF8D24"/>
<path d="M0 21.1462L11.7801 32.943H17.4151L2.46155 17.9609L0 21.1462Z" fill="#FF8D24"/>
</svg>
