<svg width="309" height="257" viewBox="0 0 309 257" fill="none" xmlns="http://www.w3.org/2000/svg">
<rect width="309" height="257" rx="2" fill="#EFF0F4"/>
<path d="M105.35 143.145V150H83.8758V143.145H105.35ZM86.7176 107.344V150H77.9285V107.344H86.7176ZM143.695 127.676V129.697C143.695 132.939 143.255 135.85 142.377 138.428C141.498 141.006 140.257 143.203 138.656 145.02C137.054 146.816 135.14 148.193 132.914 149.15C130.707 150.107 128.255 150.586 125.56 150.586C122.884 150.586 120.433 150.107 118.207 149.15C116 148.193 114.086 146.816 112.464 145.02C110.843 143.203 109.584 141.006 108.685 138.428C107.806 135.85 107.367 132.939 107.367 129.697V127.676C107.367 124.414 107.806 121.504 108.685 118.945C109.564 116.367 110.804 114.17 112.406 112.354C114.027 110.537 115.941 109.15 118.148 108.193C120.375 107.236 122.826 106.758 125.502 106.758C128.197 106.758 130.648 107.236 132.855 108.193C135.082 109.15 136.996 110.537 138.597 112.354C140.218 114.17 141.468 116.367 142.347 118.945C143.246 121.504 143.695 124.414 143.695 127.676ZM134.818 129.697V127.617C134.818 125.352 134.613 123.359 134.203 121.641C133.793 119.922 133.187 118.477 132.386 117.305C131.586 116.133 130.609 115.254 129.457 114.668C128.304 114.062 126.986 113.76 125.502 113.76C124.017 113.76 122.699 114.062 121.546 114.668C120.414 115.254 119.447 116.133 118.646 117.305C117.865 118.477 117.269 119.922 116.859 121.641C116.449 123.359 116.244 125.352 116.244 127.617V129.697C116.244 131.943 116.449 133.936 116.859 135.674C117.269 137.393 117.875 138.848 118.675 140.039C119.476 141.211 120.453 142.1 121.605 142.705C122.757 143.311 124.076 143.613 125.56 143.613C127.045 143.613 128.363 143.311 129.515 142.705C130.668 142.1 131.634 141.211 132.416 140.039C133.197 138.848 133.793 137.393 134.203 135.674C134.613 133.936 134.818 131.943 134.818 129.697ZM184.032 127.705V144.609C183.368 145.41 182.342 146.279 180.955 147.217C179.569 148.135 177.782 148.926 175.594 149.59C173.407 150.254 170.76 150.586 167.655 150.586C164.901 150.586 162.391 150.137 160.125 149.238C157.86 148.32 155.907 146.982 154.266 145.225C152.645 143.467 151.395 141.318 150.516 138.779C149.637 136.221 149.198 133.301 149.198 130.02V127.354C149.198 124.072 149.618 121.152 150.457 118.594C151.317 116.035 152.537 113.877 154.12 112.119C155.702 110.361 157.586 109.023 159.774 108.105C161.961 107.188 164.393 106.729 167.069 106.729C170.78 106.729 173.827 107.334 176.209 108.545C178.592 109.736 180.409 111.396 181.659 113.525C182.928 115.635 183.709 118.057 184.002 120.791H175.477C175.262 119.346 174.852 118.086 174.246 117.012C173.641 115.938 172.772 115.098 171.639 114.492C170.526 113.887 169.08 113.584 167.303 113.584C165.838 113.584 164.53 113.887 163.377 114.492C162.245 115.078 161.287 115.947 160.506 117.1C159.725 118.252 159.129 119.678 158.719 121.377C158.309 123.076 158.104 125.049 158.104 127.295V130.02C158.104 132.246 158.319 134.219 158.748 135.938C159.178 137.637 159.813 139.072 160.653 140.244C161.512 141.396 162.567 142.266 163.817 142.852C165.067 143.438 166.522 143.73 168.182 143.73C169.569 143.73 170.721 143.613 171.639 143.379C172.577 143.145 173.329 142.861 173.895 142.529C174.481 142.178 174.93 141.846 175.243 141.533V133.975H167.215V127.705H184.032ZM226.361 127.676V129.697C226.361 132.939 225.921 135.85 225.042 138.428C224.163 141.006 222.923 143.203 221.321 145.02C219.72 146.816 217.806 148.193 215.579 149.15C213.372 150.107 210.921 150.586 208.226 150.586C205.55 150.586 203.099 150.107 200.872 149.15C198.665 148.193 196.751 146.816 195.13 145.02C193.509 143.203 192.249 141.006 191.351 138.428C190.472 135.85 190.032 132.939 190.032 129.697V127.676C190.032 124.414 190.472 121.504 191.351 118.945C192.23 116.367 193.47 114.17 195.071 112.354C196.693 110.537 198.607 109.15 200.814 108.193C203.04 107.236 205.491 106.758 208.167 106.758C210.862 106.758 213.314 107.236 215.521 108.193C217.747 109.15 219.661 110.537 221.263 112.354C222.884 114.17 224.134 116.367 225.013 118.945C225.911 121.504 226.361 124.414 226.361 127.676ZM217.484 129.697V127.617C217.484 125.352 217.279 123.359 216.868 121.641C216.458 119.922 215.853 118.477 215.052 117.305C214.251 116.133 213.275 115.254 212.122 114.668C210.97 114.062 209.652 113.76 208.167 113.76C206.683 113.76 205.364 114.062 204.212 114.668C203.079 115.254 202.112 116.133 201.312 117.305C200.53 118.477 199.935 119.922 199.525 121.641C199.114 123.359 198.909 125.352 198.909 127.617V129.697C198.909 131.943 199.114 133.936 199.525 135.674C199.935 137.393 200.54 138.848 201.341 140.039C202.142 141.211 203.118 142.1 204.271 142.705C205.423 143.311 206.741 143.613 208.226 143.613C209.71 143.613 211.029 143.311 212.181 142.705C213.333 142.1 214.3 141.211 215.081 140.039C215.862 138.848 216.458 137.393 216.868 135.674C217.279 133.936 217.484 131.943 217.484 129.697Z" fill="#9899AA" fill-opacity="0.2"/>
</svg>
