<svg width="198" height="40" viewBox="0 0 198 40" fill="none" xmlns="http://www.w3.org/2000/svg">
<path d="M73.8372 20.2991C73.8372 27.3927 68.9316 32.0084 62.2782 32.0084C59.3783 32.0084 56.8178 31.025 54.9847 28.9319V39.9998H49.6523V8.88916H54.7287V11.8801C56.521 9.70153 59.1649 8.63263 62.2782 8.63263C68.9316 8.63263 73.8372 13.2483 73.8372 20.2991ZM68.4195 20.2991C68.4195 15.94 65.5195 13.1628 61.6808 13.1628C57.842 13.1628 54.8994 15.94 54.8994 20.2991C54.8994 24.6583 57.842 27.4355 61.6808 27.4355C65.5195 27.4355 68.4195 24.6583 68.4195 20.2991Z" fill="#24397C"/>
<path d="M77.0352 20.2991C77.0352 13.462 82.1542 8.63257 89.1489 8.63257C96.229 8.63257 101.305 13.462 101.305 20.2991C101.305 27.1361 96.229 32.0083 89.1489 32.0083C82.1542 32.0083 77.0352 27.1361 77.0352 20.2991ZM95.9303 20.2991C95.9303 15.9399 93.0304 13.1627 89.1489 13.1627C85.3102 13.1627 82.4102 15.9399 82.4102 20.2991C82.4102 24.6582 85.3102 27.4354 89.1489 27.4354C93.0304 27.4354 95.9303 24.6582 95.9303 20.2991Z" fill="#24397C"/>
<path d="M106.426 0H111.758V31.7093H106.426V0Z" fill="#24397C"/>
<path d="M142.935 20.2991C142.935 27.3927 138.029 32.0084 131.376 32.0084C128.476 32.0084 125.915 31.025 124.082 28.9319V39.9998H118.75V8.88916H123.826V11.8801C125.619 9.70153 128.263 8.63263 131.376 8.63263C138.029 8.63263 142.935 13.2483 142.935 20.2991ZM137.517 20.2991C137.517 15.94 134.617 13.1628 130.778 13.1628C126.94 13.1628 123.997 15.94 123.997 20.2991C123.997 24.6583 126.94 27.4355 130.778 27.4355C134.617 27.4355 137.517 24.6583 137.517 20.2991Z" fill="#24397C"/>
<path d="M146.133 20.2991C146.133 13.462 151.252 8.63257 158.247 8.63257C165.327 8.63257 170.403 13.462 170.403 20.2991C170.403 27.1361 165.327 32.0083 158.247 32.0083C151.252 32.0083 146.133 27.1361 146.133 20.2991ZM165.028 20.2991C165.028 15.9399 162.128 13.1627 158.247 13.1627C154.408 13.1627 151.508 15.9399 151.508 20.2991C151.508 24.6582 154.408 27.4354 158.247 27.4354C162.128 27.4354 165.028 24.6582 165.028 20.2991Z" fill="#24397C"/>
<path d="M173.645 20.2991C173.645 13.462 178.764 8.63257 185.758 8.63257C192.838 8.63257 197.915 13.462 197.915 20.2991C197.915 27.1361 192.838 32.0083 185.758 32.0083C178.762 32.0083 173.645 27.1361 173.645 20.2991ZM192.54 20.2991C192.54 15.9399 189.64 13.1627 185.758 13.1627C181.919 13.1627 179.02 15.9399 179.02 20.2991C179.02 24.6582 181.919 27.4354 185.758 27.4354C189.64 27.4354 192.54 24.6582 192.54 20.2991Z" fill="#24397C"/>
<path d="M20.8244 25.9817L21.1852 25.6202L24.3547 22.4447C24.892 21.883 25.5419 21.2786 26.1956 20.6003C29.2313 17.4481 30.7501 14.7991 30.7501 12.4126C30.7501 6.9379 26.3042 2.48352 20.8399 2.48352C15.3756 2.48352 10.9297 6.9379 10.9297 12.4126C10.9297 14.599 12.1731 17.0438 14.7161 19.8618L20.8244 25.9817ZM20.8399 6.78437C23.9377 6.78437 26.4574 9.3089 26.4574 12.4126C26.4574 12.8537 26.2867 13.4271 25.9531 14.117C25.635 14.7739 25.1791 15.5085 24.6011 16.2975C24.058 17.0399 23.4101 17.8231 22.7292 18.5578C22.1104 19.2244 21.4626 19.8579 20.8399 20.3982C20.2192 19.8579 19.5694 19.2244 18.9506 18.5578C18.2697 17.8231 17.6218 17.0399 17.0787 16.2975C16.5007 15.5066 16.0468 14.7739 15.7267 14.117C15.3911 13.4271 15.2224 12.8537 15.2224 12.4126C15.2224 9.3089 17.7421 6.78437 20.8399 6.78437Z" fill="#FF8D24"/>
<path d="M25.3321 30.4614L37.7291 18.0427L35.2695 14.8613L22.5156 27.6395L25.3321 30.4614Z" fill="#FF8D24"/>
<path d="M39.2227 19.9769L27.043 32.1273L29.8595 34.9492L41.6532 23.1234L39.2227 19.9769Z" fill="#FF8D24"/>
<path d="M3.92969 18.0565L20.7842 34.9431H26.4173L6.38736 14.8751L3.92969 18.0565Z" fill="#FF8D24"/>
<path d="M0 23.1462L11.7801 34.943H17.4151L2.46155 19.9609L0 23.1462Z" fill="#FF8D24"/>
</svg>
