<svg width="21" height="21" viewBox="0 0 21 21" fill="none" xmlns="http://www.w3.org/2000/svg">
<g clip-path="url(#clip0_3379_18967)">
<path d="M11.3901 10.4561C12.0143 10.0481 12.7063 9.89558 13.4562 9.94714C14.2356 10.0009 14.909 10.2927 15.4567 10.8313C17.1457 12.491 18.8171 14.1682 20.4941 15.8399C21.1587 16.5025 21.1664 17.2375 20.5138 17.9055C19.6611 18.7787 18.8051 19.6497 17.9492 20.5184C17.3064 21.1711 16.6024 21.1536 15.9563 20.502C14.322 18.8511 12.6822 17.2067 11.0381 15.5668C10.4303 14.9602 10.0498 14.2527 9.95253 13.3894C9.8771 12.7158 10.0389 12.1037 10.3701 11.5311C10.4663 11.3655 10.4587 11.2766 10.322 11.1406C9.24853 10.0766 8.18705 8.99937 7.11245 7.93643C7.02172 7.84648 6.8643 7.78176 6.7364 7.78066C5.89137 7.7675 5.04525 7.77847 4.20022 7.7675C4.0909 7.7664 3.94113 7.71484 3.87882 7.63367C2.60417 5.95863 1.34046 4.27701 0.117188 2.65352L2.63697 0C2.73317 0.06472 2.80095 0.106404 2.86435 0.153573C4.46039 1.36241 6.05425 2.57344 7.65358 3.77789C7.80116 3.88978 7.85253 4.00825 7.85035 4.18925C7.8416 5.02842 7.8416 5.86758 7.85253 6.70675C7.85363 6.82083 7.89626 6.96563 7.97278 7.04351C9.07908 8.16569 10.193 9.2791 11.307 10.3947C11.3256 10.4133 11.3496 10.4276 11.3901 10.4561ZM19.66 16.8842C19.6556 16.8755 19.649 16.8568 19.637 16.8448C17.9218 15.1357 16.2165 13.4179 14.487 11.7231C13.7492 11.0002 12.4822 11.0803 11.788 11.8427C11.0381 12.6654 11.0556 13.7887 11.8459 14.5916C13.4857 16.259 15.1331 17.9198 16.7784 19.5827C16.8155 19.62 16.8582 19.6508 16.8789 19.6694C17.8092 18.737 18.7264 17.8188 19.66 16.8842ZM1.73728 2.71934C2.69272 3.97864 3.61646 5.19735 4.54457 6.41277C4.58283 6.46323 4.65935 6.51478 4.71948 6.51588C5.3087 6.52356 5.89793 6.52027 6.50683 6.52027C6.51448 6.41606 6.52541 6.33598 6.52541 6.257C6.52651 5.77324 6.53853 5.28949 6.51776 4.80683C6.51229 4.68397 6.43359 4.5293 6.33739 4.45252C5.73942 3.97644 5.12723 3.51792 4.51943 3.055C3.93457 2.60855 3.34863 2.16209 2.81734 1.75731L1.73509 2.71934H1.73728Z" fill="#363740"/>
<path d="M19.6155 5.35422C19.5007 5.46282 19.4296 5.52534 19.3629 5.59226C18.5594 6.39851 17.7538 7.20258 16.9536 8.01322C16.8377 8.1306 16.7371 8.18764 16.5556 8.15473C15.5641 7.97483 14.5682 7.81906 13.5778 7.64026C13.4947 7.6249 13.3821 7.50972 13.3668 7.42635C13.1887 6.43142 13.0323 5.4332 12.8552 4.43717C12.8257 4.27043 12.864 4.17061 12.9777 4.05762C13.7855 3.25575 14.5857 2.4462 15.3925 1.64324C15.4625 1.57413 15.5598 1.53135 15.621 1.4414C15.1498 1.25711 14.7005 1.27137 14.2567 1.32403C12.7241 1.50283 11.5576 2.27508 10.717 3.5629C10.4787 3.92818 10.1321 4.01375 9.78121 3.79765C9.45981 3.6002 9.38985 3.25795 9.61832 2.89486C10.6918 1.18691 12.2288 0.207331 14.237 0.0493699C14.8612 7.19354e-06 15.504 0.0811815 16.1282 0.172228C16.7579 0.264372 17.1143 0.699861 17.1328 1.25053C17.1438 1.5862 17.0017 1.84508 16.7721 2.07324C15.9664 2.87731 15.1673 3.68795 14.3573 4.48763C14.2305 4.61268 14.1944 4.73225 14.2272 4.89898C14.319 5.36299 14.3944 5.83139 14.4961 6.29321C14.5147 6.37767 14.6218 6.48627 14.706 6.50492C15.1662 6.60803 15.633 6.67933 16.0954 6.77586C16.2791 6.81426 16.3982 6.75392 16.525 6.62449C17.311 5.82591 18.1025 5.03391 18.8951 4.24191C19.5783 3.55851 20.5436 3.82288 20.7895 4.76077C21.4389 7.2311 20.42 9.64987 18.5726 11.1209C18.2632 11.3677 17.7778 11.3227 17.5614 11.0463C17.3209 10.738 17.3985 10.3706 17.7658 10.0733C19.0503 9.03448 19.7073 7.69511 19.6811 6.03213C19.6778 5.827 19.6439 5.62297 19.6176 5.35202L19.6155 5.35422Z" fill="#363740"/>
<path d="M3.05587 20.977C1.71563 20.9079 0.724116 20.2925 0.237651 19.0212C-0.247722 17.7531 0.0168281 16.5936 0.972268 15.6261C2.74978 13.8249 4.5426 12.038 6.32995 10.2456C6.76285 9.81118 7.35644 9.87371 7.539 10.3706C7.65379 10.6833 7.53791 10.9366 7.3149 11.1593C6.4338 12.0413 5.55379 12.9254 4.67268 13.8096C3.74676 14.7387 2.81756 15.6623 1.89819 16.5969C1.10126 17.4065 1.15702 18.5528 2.01735 19.2921C2.68638 19.8669 3.80142 19.7967 4.47482 19.1243C5.69262 17.9089 6.90496 16.6869 8.11948 15.4692C8.40808 15.1797 8.72838 15.1138 8.99949 15.2817C9.3351 15.4901 9.38757 15.9826 9.09569 16.304C8.89345 16.5256 8.67154 16.7296 8.45946 16.9414C7.40782 17.9878 6.35618 19.0354 5.30345 20.0808C4.71204 20.6677 3.85389 21.0077 3.05806 20.9759L3.05587 20.977Z" fill="#363740"/>
<path d="M3.87811 17.7191C3.87811 18.0547 3.60919 18.3213 3.26811 18.3235C2.9489 18.3257 2.63953 18.0306 2.64063 17.7245C2.64063 17.4152 2.93907 17.1333 3.2703 17.1267C3.62012 17.1201 3.87811 17.3724 3.87811 17.7202V17.7191Z" fill="#363740"/>
</g>
<defs>
<clipPath id="clip0_3379_18967">
<rect width="21" height="21" fill="white"/>
</clipPath>
</defs>
</svg>
