<svg width="26" height="12" viewBox="0 0 26 12" fill="none" xmlns="http://www.w3.org/2000/svg">
<path d="M2.37344 5.22656V12H0.920313V3.54688H2.29531L2.37344 5.22656ZM2.07656 7.45312L1.40469 7.42969C1.4099 6.85156 1.48542 6.31771 1.63125 5.82812C1.77708 5.33333 1.99323 4.90365 2.27969 4.53906C2.56615 4.17448 2.92292 3.89323 3.35 3.69531C3.77708 3.49219 4.27188 3.39062 4.83438 3.39062C5.23021 3.39062 5.59479 3.44792 5.92813 3.5625C6.26146 3.67188 6.55052 3.84635 6.79531 4.08594C7.0401 4.32552 7.23021 4.63281 7.36563 5.00781C7.50104 5.38281 7.56875 5.83594 7.56875 6.36719V12H6.12344V6.4375C6.12344 5.99479 6.04792 5.64062 5.89688 5.375C5.75104 5.10938 5.54271 4.91667 5.27188 4.79688C5.00104 4.67188 4.68333 4.60938 4.31875 4.60938C3.89167 4.60938 3.5349 4.6849 3.24844 4.83594C2.96198 4.98698 2.73281 5.19531 2.56094 5.46094C2.38906 5.72656 2.26406 6.03125 2.18594 6.375C2.11302 6.71354 2.07656 7.07292 2.07656 7.45312ZM7.55313 6.65625L6.58438 6.95312C6.58958 6.48958 6.6651 6.04427 6.81094 5.61719C6.96198 5.1901 7.17813 4.8099 7.45938 4.47656C7.74583 4.14323 8.0974 3.88021 8.51406 3.6875C8.93073 3.48958 9.40729 3.39062 9.94375 3.39062C10.3969 3.39062 10.7979 3.45052 11.1469 3.57031C11.501 3.6901 11.7979 3.875 12.0375 4.125C12.2823 4.36979 12.4672 4.6849 12.5922 5.07031C12.7172 5.45573 12.7797 5.91406 12.7797 6.44531V12H11.3266V6.42969C11.3266 5.95573 11.251 5.58854 11.1 5.32812C10.9542 5.0625 10.7458 4.8776 10.475 4.77344C10.2094 4.66406 9.89167 4.60938 9.52188 4.60938C9.20417 4.60938 8.92292 4.66406 8.67813 4.77344C8.43333 4.88281 8.2276 5.03385 8.06094 5.22656C7.89427 5.41406 7.76667 5.63021 7.67813 5.875C7.59479 6.11979 7.55313 6.38021 7.55313 6.65625ZM16.7375 3.54688V12H15.2844V3.54688H16.7375ZM15.175 1.30469C15.175 1.07031 15.2453 0.872396 15.3859 0.710938C15.5318 0.549479 15.7453 0.46875 16.0266 0.46875C16.3026 0.46875 16.5135 0.549479 16.6594 0.710938C16.8104 0.872396 16.8859 1.07031 16.8859 1.30469C16.8859 1.52865 16.8104 1.72135 16.6594 1.88281C16.5135 2.03906 16.3026 2.11719 16.0266 2.11719C15.7453 2.11719 15.5318 2.03906 15.3859 1.88281C15.2453 1.72135 15.175 1.52865 15.175 1.30469ZM20.7031 5.35156V12H19.2578V3.54688H20.625L20.7031 5.35156ZM20.3594 7.45312L19.7578 7.42969C19.763 6.85156 19.849 6.31771 20.0156 5.82812C20.1823 5.33333 20.4167 4.90365 20.7188 4.53906C21.0208 4.17448 21.3802 3.89323 21.7969 3.69531C22.2188 3.49219 22.6849 3.39062 23.1953 3.39062C23.612 3.39062 23.987 3.44792 24.3203 3.5625C24.6536 3.67188 24.9375 3.84896 25.1719 4.09375C25.4115 4.33854 25.5938 4.65625 25.7188 5.04688C25.8438 5.43229 25.9062 5.90365 25.9062 6.46094V12H24.4531V6.44531C24.4531 6.0026 24.388 5.64844 24.2578 5.38281C24.1276 5.11198 23.9375 4.91667 23.6875 4.79688C23.4375 4.67188 23.1302 4.60938 22.7656 4.60938C22.4062 4.60938 22.0781 4.6849 21.7812 4.83594C21.4896 4.98698 21.237 5.19531 21.0234 5.46094C20.8151 5.72656 20.651 6.03125 20.5312 6.375C20.4167 6.71354 20.3594 7.07292 20.3594 7.45312Z" fill="#363740"/>
</svg>
