<svg width="19" height="19" viewBox="0 0 19 19" fill="none" xmlns="http://www.w3.org/2000/svg">
<circle cx="9.5" cy="9.5" r="9.5" fill="#B3B3B3"/>
<path d="M10.3245 9.50828L13.829 6.00375C14.057 5.77579 14.057 5.40722 13.829 5.17927C13.601 4.95131 13.2324 4.95131 13.0045 5.17927L9.49995 8.68379L5.99553 5.17927C5.76747 4.95131 5.399 4.95131 5.17105 5.17927C4.94298 5.40722 4.94298 5.77579 5.17105 6.00375L8.67547 9.50828L5.17105 13.0128C4.94298 13.2408 4.94298 13.6093 5.17105 13.8373C5.28465 13.951 5.43402 14.0081 5.58329 14.0081C5.73255 14.0081 5.88182 13.951 5.99553 13.8373L9.49995 10.3328L13.0045 13.8373C13.1182 13.951 13.2675 14.0081 13.4167 14.0081C13.566 14.0081 13.7153 13.951 13.829 13.8373C14.057 13.6093 14.057 13.2408 13.829 13.0128L10.3245 9.50828Z" fill="white" stroke="white"/>
</svg>
