<svg width="86" height="86" viewBox="0 0 86 86" fill="none" xmlns="http://www.w3.org/2000/svg">
<g clip-path="url(#clip0_16477_39442)">
<path d="M46.7751 39.8518C47.3562 40.1242 47.9397 40.4038 48.528 40.6738C54.0229 43.1879 59.4697 45.8105 65.2322 47.6882C70.3679 49.3635 75.6121 50.4723 81.0227 50.7519C82.1029 50.8073 83.1807 50.8797 84.2633 50.8893C85.3266 50.8989 85.9655 51.3907 86.0017 52.1909C86.0402 53.0394 85.3989 53.6493 84.2994 53.6348C80.8395 53.5938 77.4012 53.2925 73.987 52.7116C66.3293 51.41 59.19 48.5753 52.1808 45.3501C46.6376 42.7998 41.1499 40.1218 35.315 38.2585C30.9605 36.8677 26.4951 36.0385 21.9357 36.0554C15.0591 36.0819 8.43096 37.3763 2.27295 40.5991C1.34226 41.086 0.556229 40.9173 0.168038 40.17C-0.203275 39.4541 0.0547149 38.7262 0.949242 38.2368C4.75882 36.1542 8.85532 34.8839 13.111 34.1198C15.5293 33.6859 15.5365 33.7269 15.5365 31.3164C15.5365 29.5134 15.5028 27.708 15.551 25.905C15.5727 25.0975 15.3485 24.7986 14.4901 24.8155C11.874 24.8661 9.25798 24.8396 6.6395 24.8323C4.06924 24.8251 2.26331 23.1571 2.2199 20.6068C2.16204 17.1792 2.15963 13.7515 2.2199 10.3238C2.26572 7.79047 4.10058 6.08387 6.55993 6.12967C8.83362 6.17065 10.5335 8.01223 10.5552 10.4878C10.572 12.2305 10.5817 13.9757 10.5503 15.7184C10.5383 16.3861 10.7722 16.6296 11.4425 16.6031C12.4624 16.5621 13.4895 16.55 14.5094 16.6055C15.293 16.6489 15.5582 16.3958 15.5486 15.5907C15.51 12.433 15.5004 9.2753 15.5438 6.12003C15.6016 2.08252 19.3582 -0.78591 23.2425 0.190322C25.9671 0.874889 27.8743 3.31908 27.8863 6.23332C27.908 11.0446 27.8936 15.8558 27.8936 20.6671C27.8936 21.6072 28.3782 22.078 29.3475 22.0796C30.189 22.0796 31.0328 22.0483 31.8743 22.0893C32.6073 22.1254 32.8942 21.8603 32.8774 21.1034C32.8388 19.3293 32.834 17.5552 32.8798 15.7811C32.928 13.9058 34.0781 12.4161 35.8093 11.8569C37.4175 11.3386 39.1728 11.881 40.2723 13.2333C40.9498 14.0649 41.215 15.0411 41.2198 16.0872C41.2319 19.3944 41.2488 22.7015 41.2198 26.0111C41.1957 28.677 39.4308 30.4101 36.7834 30.4222C34.1673 30.4342 31.5488 30.4487 28.9328 30.4101C28.1708 30.3981 27.8695 30.5885 27.8767 31.4129C27.896 33.7052 27.8622 33.71 30.0997 34.1511C34.2421 34.9707 38.2638 36.1856 42.1409 37.8608C42.775 38.1356 43.3296 38.1043 43.9541 37.8464C48.6895 35.8818 53.5455 34.3343 58.6643 33.7197C66.8308 32.7386 74.7297 33.7438 82.3344 36.9111C83.2747 37.304 84.1933 37.762 85.0879 38.2561C85.9703 38.743 86.2187 39.4999 85.8136 40.1941C85.3941 40.9149 84.6611 41.0739 83.7738 40.6184C78.1945 37.7572 72.2534 36.3639 66.0014 36.1398C59.5661 35.9084 53.3912 37.1112 47.3996 39.3842C47.185 39.4662 46.9222 39.4831 46.7751 39.8494V39.8518ZM20.3877 18.1891C20.3877 13.4092 20.3877 8.6293 20.3829 3.85179C20.3829 3.63003 20.5131 3.31908 20.2382 3.20097C19.9923 3.09732 19.7946 3.33355 19.6113 3.47576C18.6638 4.21818 18.3021 5.20888 18.3045 6.39964C18.3166 15.0556 18.319 23.7139 18.2973 32.3698C18.2973 33.1387 18.5022 33.4328 19.3196 33.416C20.1129 33.4015 20.4167 33.2087 20.4094 32.3457C20.3684 27.6261 20.3901 22.9064 20.3901 18.1891H20.3877ZM23.04 18.1217C23.04 19.6547 23.04 21.1877 23.04 22.7208C23.04 25.9677 23.0376 29.2145 23.0448 32.4614C23.0448 32.7724 22.9315 33.1387 23.3293 33.334C24.2745 33.7992 25.1208 33.2978 25.1208 32.2589C25.1208 27.0885 25.1208 21.9181 25.1208 16.7477C25.1208 13.2598 25.1111 9.77427 25.1208 6.28635C25.1256 5.19682 24.7639 4.28326 23.9393 3.57459C23.7247 3.38899 23.4812 3.07081 23.1726 3.21785C22.8953 3.34801 23.0424 3.70958 23.0424 3.96508C23.0351 8.68474 23.0376 13.4044 23.0376 18.1241L23.04 18.1217ZM38.4519 21.0455C38.4519 21.0455 38.4495 21.0455 38.4471 21.0455C38.4471 19.3317 38.4519 17.6203 38.4471 15.9064C38.4471 15.2846 38.1842 14.8145 37.608 14.5277C37.1185 14.2818 36.6749 14.3855 36.2457 14.6578C35.7225 14.9905 35.6429 15.5111 35.6429 16.0776C35.6477 18.3627 35.6526 20.6454 35.6405 22.9305C35.6333 24.3671 35.1679 24.8275 33.7574 24.8348C32.4337 24.8396 31.1124 24.8203 29.7887 24.8396C27.6717 24.8685 27.9297 24.4708 27.8863 26.7703C27.8743 27.4308 28.1154 27.6791 28.776 27.6743C31.4524 27.6526 34.1263 27.6743 36.8027 27.6574C37.9793 27.6502 38.4374 27.1801 38.4495 26.0062C38.4663 24.3527 38.4543 22.7015 38.4543 21.0479L38.4519 21.0455ZM4.97341 15.3978C4.97341 16.9598 4.971 18.5218 4.97341 20.0838C4.97823 21.7132 5.34472 22.0772 7.00599 22.0796C9.20011 22.0844 11.3918 22.0917 13.5859 22.0796C15.7584 22.0676 15.5028 22.3592 15.539 20.0838C15.5486 19.4691 15.3437 19.2256 14.7071 19.2377C13.0555 19.269 11.4015 19.2497 9.74985 19.2473C8.21878 19.2449 7.79201 18.8134 7.78478 17.2491C7.77755 15.0266 7.78719 12.8042 7.77996 10.5818C7.77514 9.48983 7.24228 8.81491 6.41285 8.80527C5.55449 8.79803 4.98064 9.50912 4.97341 10.6227C4.96377 12.2136 4.97341 13.8069 4.971 15.3978H4.97341Z" fill="#9899AA"/>
<path d="M43.0193 60.2034C29.423 60.2034 15.8266 60.2034 2.2327 60.2034C1.87103 60.2034 1.50454 60.2323 1.15252 60.172C0.434002 60.0515 0.0241108 59.5911 0.0313441 58.8656C0.0385775 58.14 0.453291 57.6917 1.17663 57.5784C1.47079 57.5326 1.777 57.5519 2.07839 57.5519C29.3603 57.5519 56.6421 57.5519 83.924 57.5519C85.3586 57.5519 85.9783 57.94 86 58.8439C86.0241 59.784 85.3803 60.2034 83.8975 60.2034C70.2722 60.2034 56.6446 60.2034 43.0193 60.2034Z" fill="#9899AA"/>
<path d="M28.4766 85.9975C19.758 85.9975 11.0394 85.9975 2.32315 85.9975C1.99283 85.9975 1.6601 86.0168 1.33218 85.9806C0.582322 85.9011 0.0832194 85.4841 0.0349969 84.7224C-0.0132256 83.9631 0.40631 83.4665 1.16099 83.3243C1.54195 83.252 1.93737 83.2399 2.32557 83.2399C19.8231 83.2351 37.3182 83.2351 54.8158 83.2399C55.2329 83.2399 55.6621 83.2568 56.0671 83.3484C56.7784 83.5075 57.1521 84.0113 57.1063 84.7248C57.0605 85.4431 56.5976 85.8625 55.8935 85.9686C55.5704 86.0168 55.2329 85.9951 54.9026 85.9951C46.0947 85.9951 37.2869 85.9951 28.4766 85.9951V85.9975Z" fill="#9899AA"/>
<path d="M62.2195 74.7023C69.4674 74.7023 76.7128 74.7023 83.9607 74.7023C85.3205 74.7023 86.0029 75.1602 86.0005 76.0569C85.9957 76.9657 85.3085 77.4574 83.9655 77.4598C69.4722 77.4646 54.9789 77.4646 40.4857 77.4574C40.1288 77.4574 39.7575 77.4212 39.4175 77.3224C38.7569 77.132 38.4314 76.6403 38.4676 75.9653C38.5037 75.2784 38.9136 74.8589 39.5839 74.7408C39.9046 74.683 40.2422 74.7047 40.5725 74.7047C47.789 74.7047 55.0055 74.7047 62.222 74.7047L62.2195 74.7023Z" fill="#9899AA"/>
<path d="M73.4105 18.341C70.141 18.329 67.6527 15.7739 67.672 12.4475C67.6913 9.26088 70.3218 6.67688 73.5214 6.70581C76.651 6.73232 79.3322 9.44408 79.3129 12.5608C79.2936 15.8004 76.6872 18.3555 73.4105 18.3435V18.341ZM76.5353 12.609C76.5522 10.8542 75.2526 9.50675 73.5141 9.48264C71.8022 9.45613 70.37 10.8156 70.3411 12.4909C70.3122 14.1155 71.7757 15.6293 73.4105 15.6679C75.091 15.7064 76.5208 14.3108 76.5377 12.6114L76.5353 12.609Z" fill="#9899AA"/>
<path d="M32.1073 68.8422C28.2302 68.8422 24.3507 68.8422 20.4736 68.8422C20.0517 68.8422 19.6273 68.8591 19.244 68.6422C18.7858 68.3794 18.564 67.9793 18.5664 67.4538C18.5664 66.8777 18.8582 66.4896 19.3573 66.2462C19.7479 66.0557 20.1746 66.0702 20.5966 66.0702C28.2929 66.0702 35.9868 66.0702 43.6831 66.0702C43.8326 66.0702 43.9845 66.0678 44.134 66.075C45.1443 66.1305 45.7784 66.7017 45.747 67.5237C45.7181 68.2975 45.0936 68.8326 44.1026 68.835C40.105 68.8495 36.1074 68.8398 32.1097 68.8446L32.1073 68.8422Z" fill="#9899AA"/>
<path d="M10.7038 74.7021C13.5297 74.7021 16.3555 74.7021 19.1789 74.7021C19.4803 74.7021 19.7865 74.6828 20.0783 74.7359C20.7462 74.8564 21.1609 75.2686 21.2019 75.9556C21.2429 76.6305 20.9222 77.1367 20.2591 77.3151C19.8323 77.4308 19.3694 77.4524 18.9234 77.4549C13.3922 77.4645 7.86353 77.4621 2.33241 77.4573C1.97315 77.4573 1.60907 77.4476 1.25463 77.3898C0.461373 77.2644 -0.0136188 76.7823 0.0346037 75.9748C0.0852373 75.1722 0.615685 74.7431 1.41377 74.7118C2.16363 74.6828 2.9159 74.6997 3.66817 74.6997C6.01178 74.6997 8.35781 74.6997 10.7014 74.6997L10.7038 74.7021Z" fill="#9899AA"/>
<path d="M77.4827 85.995C75.2307 85.995 72.9787 86.0023 70.7243 85.9926C69.6731 85.9878 69.039 85.4937 68.998 84.6813C68.957 83.8859 69.5935 83.2616 70.6279 83.2568C75.2235 83.2327 79.8167 83.2327 84.4123 83.2616C85.4418 83.2688 86.0494 83.9028 85.9964 84.7199C85.9458 85.4913 85.3213 85.9854 84.3279 85.9902C82.0446 86.0023 79.7636 85.9926 77.4803 85.995H77.4827Z" fill="#9899AA"/>
<path d="M68.3782 68.8426C66.9363 68.8426 65.4921 68.8523 64.0502 68.8402C62.9459 68.8306 62.2756 68.2906 62.2853 67.4663C62.2949 66.6226 62.9483 66.0827 64.0478 66.0778C66.9942 66.0658 69.9382 66.0634 72.8846 66.0778C73.9648 66.0827 74.6399 66.6708 74.6085 67.5024C74.5772 68.3075 73.9334 68.8257 72.887 68.8378C71.3848 68.8547 69.8803 68.8426 68.3782 68.8426Z" fill="#9899AA"/>
<path d="M74.7999 22.434C74.7999 22.9136 74.8481 23.3981 74.7878 23.8682C74.701 24.572 74.267 25.0252 73.5461 25.071C72.8276 25.1168 72.3092 24.7239 72.1718 24.0321C71.9596 22.9715 71.9572 21.8844 72.1718 20.8238C72.314 20.132 72.83 19.7439 73.5509 19.7921C74.2718 19.8403 74.701 20.2935 74.7878 20.9973C74.8457 21.4698 74.7999 21.9543 74.7975 22.4315L74.7999 22.434Z" fill="#9899AA"/>
<path d="M63.5178 13.9928C63.0452 13.9542 62.5269 13.9687 62.0374 13.8626C61.3092 13.7011 60.8849 13.2046 60.9427 12.4405C60.9982 11.7197 61.4636 11.2738 62.17 11.228C63.0935 11.1677 64.0266 11.1702 64.95 11.2232C65.6975 11.2666 66.1821 11.727 66.2183 12.4911C66.2545 13.2552 65.8012 13.7325 65.073 13.8771C64.5787 13.9735 64.0627 13.9566 63.5178 13.9952V13.9928Z" fill="#9899AA"/>
<path d="M83.4138 11.2038C83.8333 11.2038 84.2553 11.1749 84.67 11.2111C85.4199 11.2761 85.919 11.6956 85.9792 12.4476C86.0395 13.1997 85.632 13.7227 84.8798 13.8601C83.8743 14.0433 82.852 14.0313 81.8442 13.8698C81.0943 13.7493 80.6627 13.2455 80.7061 12.4886C80.7519 11.6859 81.2775 11.2641 82.066 11.2086C82.512 11.1773 82.9629 11.2038 83.4138 11.2062V11.2038Z" fill="#9899AA"/>
<path d="M74.8086 2.71662C74.8086 3.16497 74.852 3.62054 74.7989 4.06165C74.7097 4.80407 74.2733 5.28375 73.509 5.31268C72.7953 5.33919 72.2938 4.9487 72.1636 4.24003C71.9755 3.20353 71.9779 2.15258 72.1636 1.11608C72.289 0.405002 72.7905 0.0120991 73.5042 0.0362036C74.2685 0.0603081 74.7121 0.537577 74.7989 1.28241C74.8544 1.75485 74.8086 2.23935 74.811 2.71662H74.8086Z" fill="#9899AA"/>
<path d="M79.6033 7.8462C79.0439 7.81969 78.6389 7.59069 78.3712 7.14958C78.0747 6.66026 78.0819 6.12996 78.4484 5.7226C79.1259 4.96571 79.8444 4.24017 80.6039 3.56524C81.0813 3.141 81.6721 3.18198 82.176 3.58212C82.663 3.9702 82.9476 4.5246 82.6148 5.08624C81.971 6.17576 81.0452 7.02906 79.9915 7.73532C79.8734 7.81245 79.707 7.81728 79.6033 7.8462Z" fill="#9899AA"/>
<path d="M68.7258 18.6182C68.733 18.9653 68.6293 19.2787 68.3906 19.5246C67.7613 20.1706 67.1441 20.831 66.4738 21.4288C65.9024 21.9398 65.0753 21.8868 64.5931 21.3902C64.1133 20.8961 64.082 20.0814 64.6028 19.5101C65.2079 18.8448 65.8541 18.2133 66.5172 17.6034C66.9584 17.1985 67.5033 17.172 68.0314 17.4419C68.4991 17.6806 68.7234 18.0903 68.7258 18.6182Z" fill="#9899AA"/>
<path d="M82.7388 20.4744C82.6786 20.9998 82.4784 21.3879 82.042 21.6097C81.5526 21.858 81.0173 21.8941 80.6074 21.5253C79.8527 20.848 79.1246 20.1345 78.4543 19.3752C78.001 18.8642 78.0757 18.2567 78.5194 17.7409C78.9389 17.2516 79.5513 17.078 80.0553 17.4179C81.0679 18.1025 81.9384 18.9702 82.6135 20.0067C82.7051 20.1465 82.7075 20.3466 82.7413 20.4744H82.7388Z" fill="#9899AA"/>
<path d="M65.4529 3.29019C66.3619 3.26849 68.7296 5.64037 68.7175 6.51055C68.7103 7.03844 68.4764 7.43375 68.0111 7.68203C67.5409 7.93512 67.0418 7.93271 66.6584 7.5832C65.9037 6.89622 65.1756 6.17549 64.4932 5.41861C64.1219 5.00643 64.1533 4.4689 64.404 3.97716C64.6283 3.53846 65.0189 3.33599 65.4529 3.29019Z" fill="#9899AA"/>
</g>
<defs>
<clipPath id="clip0_16477_39442">
<rect width="86" height="86" fill="white"/>
</clipPath>
</defs>
</svg>
