<svg width="64" height="70" viewBox="0 0 64 70" fill="none" xmlns="http://www.w3.org/2000/svg">
<path d="M5.00469 1.6672C4.79083 1.4276 4.53119 1.23321 4.24106 1.0955C3.95092 0.957786 3.63616 0.879526 3.31531 0.865329C2.99447 0.851132 2.67403 0.901286 2.37286 1.01284C2.0717 1.12439 1.7959 1.29508 1.56172 1.51486C1.32359 1.72889 1.12996 1.98773 0.991898 2.27661C0.853831 2.56549 0.77403 2.87874 0.757053 3.19847C0.740077 3.5182 0.786257 3.83813 0.892956 4.14001C0.999655 4.44189 1.16478 4.71978 1.37891 4.95783L8.75234 13.0625H7.625C5.68807 13.0705 3.83277 13.8435 2.46314 15.2132C1.09352 16.5828 0.32052 18.4381 0.3125 20.375V54.5C0.32052 56.4369 1.09352 58.2922 2.46314 59.6619C3.83277 61.0315 5.68807 61.8045 7.625 61.8125H53.0844L58.9953 68.3328C59.2259 68.5795 59.504 68.7769 59.813 68.913C60.122 69.0492 60.4553 69.1213 60.793 69.125C61.4032 69.1309 61.9923 68.9018 62.4383 68.4852C62.6764 68.2711 62.87 68.0123 63.0081 67.7234C63.1462 67.4345 63.226 67.1213 63.2429 66.8016C63.2599 66.4818 63.2137 66.1619 63.107 65.86C63.0003 65.5581 62.8352 65.2802 62.6211 65.0422L5.00469 1.6672ZM25.175 31.1L36.4484 43.5008C35.1101 44.3214 33.5699 44.7539 32 44.75C30.4156 44.75 28.8626 44.3088 27.5149 43.4759C26.1671 42.6429 25.078 41.4511 24.3694 40.0341C23.6609 38.617 23.3609 37.0306 23.5032 35.4526C23.6455 33.8747 24.2244 32.3675 25.175 31.1ZM7.625 56.9375C6.97853 56.9375 6.35855 56.6807 5.90143 56.2236C5.44431 55.7665 5.1875 55.1465 5.1875 54.5V20.375C5.1875 19.7285 5.44431 19.1086 5.90143 18.6514C6.35855 18.1943 6.97853 17.9375 7.625 17.9375H13.2008L21.8539 27.4438C19.7102 29.9211 18.5479 33.0977 18.5864 36.3736C18.6249 39.6494 19.8616 42.7978 22.0629 45.2241C24.2642 47.6504 27.2777 49.1867 30.5344 49.5428C33.7911 49.8989 37.0654 49.0503 39.7391 47.157L48.6359 56.9375H7.625ZM63.6875 20.375V52.6719C63.6875 53.3184 63.4307 53.9383 62.9736 54.3955C62.5165 54.8526 61.8965 55.1094 61.25 55.1094C60.6035 55.1094 59.9835 54.8526 59.5264 54.3955C59.0693 53.9383 58.8125 53.3184 58.8125 52.6719V20.375C58.8125 19.7285 58.5557 19.1086 58.0986 18.6514C57.6415 18.1943 57.0215 17.9375 56.375 17.9375H46.625C46.2199 17.9412 45.8204 17.8427 45.4636 17.6509C45.1068 17.4592 44.8041 17.1805 44.5836 16.8406L40.4398 10.625H23.5297C23.1503 11.1045 22.6045 11.4239 22.0006 11.5199C21.3968 11.6158 20.7789 11.4813 20.2695 11.143C19.7385 10.7783 19.3711 10.2204 19.2459 9.58843C19.1206 8.9565 19.2474 8.30064 19.5992 7.76095L20.2086 6.84689C20.4291 6.50704 20.7318 6.22834 21.0886 6.03661C21.4455 5.84487 21.8449 5.74629 22.25 5.75001H41.75C42.1515 5.74277 42.548 5.84008 42.9006 6.03238C43.2532 6.22469 43.5496 6.50538 43.7609 6.84689L47.9352 13.0625H56.375C58.3119 13.0705 60.1672 13.8435 61.5369 15.2132C62.9065 16.5828 63.6795 18.4381 63.6875 20.375Z" fill="#DFE1E8"/>
</svg>
