<svg width="15" height="14" viewBox="0 0 15 14" fill="none" xmlns="http://www.w3.org/2000/svg">
<g clip-path="url(#clip0_10931_32268)">
<path d="M14.3869 3.91452L8.33747 0.231986C7.82951 -0.0787936 7.17049 -0.0787936 6.66253 0.231986L0.613049 3.91452C0.229893 4.14867 0 4.55098 0 4.9916V12.478C0 13.3167 0.663407 14 1.4757 14H13.5221C14.3366 14 14.9978 13.3167 14.9978 12.478V4.9916C14.9978 4.55098 14.7679 4.14867 14.3848 3.91452H14.3869ZM7.35878 1.31546C7.40038 1.28992 7.45074 1.27714 7.4989 1.27714C7.54707 1.27714 7.59743 1.28992 7.63903 1.31546L13.0908 4.63399L7.73975 7.79714C7.59086 7.88441 7.40695 7.88441 7.25806 7.79714L1.90702 4.63399L7.35878 1.31546ZM13.5221 12.7228H1.4757C1.39907 12.7228 1.31368 12.6185 1.31368 12.478V5.77494L6.57714 8.88912C6.86177 9.05729 7.18143 9.14243 7.50109 9.14243C7.82076 9.14243 8.14042 9.05729 8.42505 8.88912L13.6885 5.77707V12.478C13.6885 12.6185 13.6031 12.7228 13.5265 12.7228H13.5221Z" fill="#363740"/>
</g>
<defs>
<clipPath id="clip0_10931_32268">
<rect width="15" height="14" fill="white"/>
</clipPath>
</defs>
</svg>
