<svg width="17" height="19" viewBox="0 0 17 19" fill="none" xmlns="http://www.w3.org/2000/svg">
<g clip-path="url(#clip0_720_9284)">
<path d="M7.29165 1.81789C7.29165 1.61148 7.29063 1.38226 7.29165 1.15303C7.2957 0.487181 7.81865 -0.00699601 8.51085 -4.97467e-05C9.19394 0.00689651 9.70168 0.495119 9.70574 1.15204C9.70675 1.38126 9.70574 1.61049 9.70574 1.81689C10.1669 1.96078 10.6148 2.05604 11.0253 2.23565C13.0553 3.12577 14.2461 4.64998 14.5106 6.82316C14.5795 7.38581 14.5593 7.95937 14.5583 8.52797C14.5572 10.2903 15.1055 11.8652 16.2041 13.2584C16.3845 13.4866 16.567 13.7139 16.7514 13.9391C16.9845 14.2239 17.0818 14.5375 16.9237 14.8828C16.7595 15.242 16.4474 15.4008 16.0582 15.4306C15.9994 15.4355 15.9406 15.4326 15.8808 15.4326C10.9584 15.4326 6.03697 15.4326 1.11453 15.4306C0.980747 15.4306 0.844942 15.4177 0.714204 15.3899C0.0909175 15.2579 -0.194882 14.6089 0.144632 14.083C0.274356 13.8816 0.433472 13.697 0.588533 13.5124C1.86348 12.0001 2.48677 10.2685 2.43609 8.3047C2.4138 7.42947 2.4138 6.55126 2.71176 5.71077C3.42018 3.70826 4.82789 2.44702 6.92781 1.92903C7.03422 1.90323 7.14064 1.8804 7.24705 1.85559C7.25415 1.85361 7.25921 1.84468 7.29063 1.81689L7.29165 1.81789ZM14.2542 13.6494C14.2086 13.569 14.1802 13.5114 14.1458 13.4578C13.4455 12.3573 12.9752 11.1695 12.8495 9.87753C12.7674 9.03406 12.7948 8.18165 12.7502 7.33421C12.6641 5.73061 11.9151 4.54479 10.3979 3.871C9.64696 3.53758 8.8453 3.51773 8.04263 3.55842C6.11804 3.65567 4.68297 4.83355 4.3323 6.6763C4.2117 7.3094 4.25123 7.97326 4.24717 8.62423C4.23501 10.3459 3.80428 11.9495 2.87696 13.4181C2.83439 13.4856 2.79689 13.5571 2.74419 13.6494H14.2542Z" fill="white"/>
<path d="M6.08594 16.6462H10.8898C10.9962 17.5542 10.1013 18.9355 8.55982 18.998C7.27677 19.0506 6.05553 17.9194 6.08695 16.6462H6.08594Z" fill="white"/>
</g>
<defs>
<clipPath id="clip0_720_9284">
<rect width="17" height="19" fill="white"/>
</clipPath>
</defs>
</svg>
