<svg width="104" height="72" viewBox="0 0 104 72" fill="none" xmlns="http://www.w3.org/2000/svg">
<rect x="0.5" y="0.5" width="103" height="71" rx="4.5" fill="#DFE1E8" stroke="#DFE1E8"/>
<rect x="4" y="4" width="96" height="64" rx="3" fill="white"/>
<path d="M13.2734 14.3867V15H10.2617V14.3867H13.2734ZM10.4141 9.3125V15H9.66016V9.3125H10.4141ZM12.875 11.7578V12.3711H10.2617V11.7578H12.875ZM13.2344 9.3125V9.92969H10.2617V9.3125H13.2344ZM15.0828 9V15H14.3562V9H15.0828ZM20.3969 10.7734V11.3281H18.1117V10.7734H20.3969ZM18.8852 9.74609H19.6078V13.9531C19.6078 14.0964 19.6299 14.2044 19.6742 14.2773C19.7185 14.3503 19.7758 14.3984 19.8461 14.4219C19.9164 14.4453 19.9919 14.457 20.0727 14.457C20.1326 14.457 20.1951 14.4518 20.2602 14.4414C20.3279 14.4284 20.3786 14.418 20.4125 14.4102L20.4164 15C20.3591 15.0182 20.2836 15.0352 20.1898 15.0508C20.0987 15.069 19.988 15.0781 19.8578 15.0781C19.6807 15.0781 19.518 15.043 19.3695 14.9727C19.2211 14.9023 19.1026 14.7852 19.0141 14.6211C18.9281 14.4544 18.8852 14.2305 18.8852 13.9492V9.74609ZM22.2297 10.7734V15H21.5031V10.7734H22.2297ZM21.4484 9.65234C21.4484 9.53516 21.4836 9.4362 21.5539 9.35547C21.6268 9.27474 21.7336 9.23438 21.8742 9.23438C22.0122 9.23438 22.1177 9.27474 22.1906 9.35547C22.2661 9.4362 22.3039 9.53516 22.3039 9.65234C22.3039 9.76432 22.2661 9.86068 22.1906 9.94141C22.1177 10.0195 22.0122 10.0586 21.8742 10.0586C21.7336 10.0586 21.6268 10.0195 21.5539 9.94141C21.4836 9.86068 21.4484 9.76432 21.4484 9.65234ZM25.3438 15.0781C25.0495 15.0781 24.7826 15.0286 24.543 14.9297C24.306 14.8281 24.1016 14.6862 23.9297 14.5039C23.7604 14.3216 23.6302 14.1055 23.5391 13.8555C23.4479 13.6055 23.4023 13.332 23.4023 13.0352V12.8711C23.4023 12.5273 23.4531 12.2214 23.5547 11.9531C23.6562 11.6823 23.7943 11.4531 23.9688 11.2656C24.1432 11.0781 24.3411 10.9362 24.5625 10.8398C24.7839 10.7435 25.013 10.6953 25.25 10.6953C25.5521 10.6953 25.8125 10.7474 26.0312 10.8516C26.2526 10.9557 26.4336 11.1016 26.5742 11.2891C26.7148 11.474 26.819 11.6927 26.8867 11.9453C26.9544 12.1953 26.9883 12.4688 26.9883 12.7656V13.0898H23.832V12.5H26.2656V12.4453C26.2552 12.2578 26.2161 12.0755 26.1484 11.8984C26.0833 11.7214 25.9792 11.5755 25.8359 11.4609C25.6927 11.3464 25.4974 11.2891 25.25 11.2891C25.0859 11.2891 24.9349 11.3242 24.7969 11.3945C24.6589 11.4622 24.5404 11.5638 24.4414 11.6992C24.3424 11.8346 24.2656 12 24.2109 12.1953C24.1562 12.3906 24.1289 12.6159 24.1289 12.8711V13.0352C24.1289 13.2357 24.1562 13.4245 24.2109 13.6016C24.2682 13.776 24.3503 13.9297 24.457 14.0625C24.5664 14.1953 24.6979 14.2995 24.8516 14.375C25.0078 14.4505 25.1849 14.4883 25.3828 14.4883C25.638 14.4883 25.8542 14.4362 26.0312 14.332C26.2083 14.2279 26.3633 14.0885 26.4961 13.9141L26.9336 14.2617C26.8424 14.3997 26.7266 14.5312 26.5859 14.6562C26.4453 14.7812 26.2721 14.8828 26.0664 14.9609C25.8633 15.0391 25.6224 15.0781 25.3438 15.0781ZM28.7508 11.6133V15H28.0242V10.7734H28.7117L28.7508 11.6133ZM28.6023 12.7266L28.2664 12.7148C28.269 12.4258 28.3068 12.1589 28.3797 11.9141C28.4526 11.6667 28.5607 11.4518 28.7039 11.2695C28.8471 11.0872 29.0255 10.9466 29.2391 10.8477C29.4526 10.7461 29.7 10.6953 29.9813 10.6953C30.1792 10.6953 30.3615 10.724 30.5281 10.7812C30.6948 10.8359 30.8393 10.9232 30.9617 11.043C31.0841 11.1628 31.1792 11.3164 31.2469 11.5039C31.3146 11.6914 31.3484 11.918 31.3484 12.1836V15H30.6258V12.2188C30.6258 11.9974 30.588 11.8203 30.5125 11.6875C30.4396 11.5547 30.3354 11.4583 30.2 11.3984C30.0646 11.3359 29.9057 11.3047 29.7234 11.3047C29.5099 11.3047 29.3315 11.3424 29.1883 11.418C29.0451 11.4935 28.9305 11.5977 28.8445 11.7305C28.7586 11.8633 28.6961 12.0156 28.657 12.1875C28.6206 12.3568 28.6023 12.5365 28.6023 12.7266ZM31.3406 12.3281L30.8563 12.4766C30.8589 12.2448 30.8966 12.0221 30.9695 11.8086C31.0451 11.5951 31.1531 11.4049 31.2938 11.2383C31.437 11.0716 31.6128 10.9401 31.8211 10.8438C32.0294 10.7448 32.2677 10.6953 32.5359 10.6953C32.7625 10.6953 32.963 10.7253 33.1375 10.7852C33.3146 10.8451 33.463 10.9375 33.5828 11.0625C33.7052 11.1849 33.7977 11.3424 33.8602 11.5352C33.9227 11.7279 33.9539 11.957 33.9539 12.2227V15H33.2273V12.2148C33.2273 11.9779 33.1896 11.7943 33.1141 11.6641C33.0411 11.5312 32.937 11.4388 32.8016 11.3867C32.6688 11.332 32.5099 11.3047 32.325 11.3047C32.1661 11.3047 32.0255 11.332 31.9031 11.3867C31.7807 11.4414 31.6779 11.5169 31.5945 11.6133C31.5112 11.707 31.4474 11.8151 31.4031 11.9375C31.3615 12.0599 31.3406 12.1901 31.3406 12.3281ZM35.9703 11.5859V16.625H35.2437V10.7734H35.9078L35.9703 11.5859ZM38.818 12.8516V12.9336C38.818 13.2409 38.7815 13.526 38.7086 13.7891C38.6357 14.0495 38.5289 14.276 38.3883 14.4688C38.2503 14.6615 38.0797 14.8112 37.8766 14.918C37.6734 15.0247 37.4404 15.0781 37.1773 15.0781C36.9091 15.0781 36.6721 15.0339 36.4664 14.9453C36.2607 14.8568 36.0862 14.7279 35.943 14.5586C35.7997 14.3893 35.6852 14.1862 35.5992 13.9492C35.5159 13.7122 35.4586 13.4453 35.4273 13.1484V12.7109C35.4586 12.3984 35.5172 12.1185 35.6031 11.8711C35.6891 11.6237 35.8023 11.4128 35.943 11.2383C36.0862 11.0612 36.2594 10.9271 36.4625 10.8359C36.6656 10.7422 36.9 10.6953 37.1656 10.6953C37.4312 10.6953 37.6669 10.7474 37.8727 10.8516C38.0784 10.9531 38.2516 11.099 38.3922 11.2891C38.5328 11.4792 38.6383 11.707 38.7086 11.9727C38.7815 12.2357 38.818 12.5286 38.818 12.8516ZM38.0914 12.9336V12.8516C38.0914 12.6406 38.0693 12.4427 38.025 12.2578C37.9807 12.0703 37.9117 11.9062 37.818 11.7656C37.7268 11.6224 37.6096 11.5104 37.4664 11.4297C37.3232 11.3464 37.1526 11.3047 36.9547 11.3047C36.7724 11.3047 36.6135 11.3359 36.4781 11.3984C36.3453 11.4609 36.232 11.5456 36.1383 11.6523C36.0445 11.7565 35.9677 11.8763 35.9078 12.0117C35.8505 12.1445 35.8076 12.2826 35.7789 12.4258V13.4375C35.831 13.6198 35.9039 13.7917 35.9977 13.9531C36.0914 14.112 36.2164 14.2409 36.3727 14.3398C36.5289 14.4362 36.7255 14.4844 36.9625 14.4844C37.1578 14.4844 37.3258 14.444 37.4664 14.3633C37.6096 14.2799 37.7268 14.1667 37.818 14.0234C37.9117 13.8802 37.9807 13.7161 38.025 13.5312C38.0693 13.3438 38.0914 13.1445 38.0914 12.9336ZM39.7484 12.9336V12.8438C39.7484 12.5391 39.7927 12.2565 39.8813 11.9961C39.9698 11.7331 40.0974 11.5052 40.2641 11.3125C40.4307 11.1172 40.6326 10.9661 40.8695 10.8594C41.1065 10.75 41.3721 10.6953 41.6664 10.6953C41.9633 10.6953 42.2302 10.75 42.4672 10.8594C42.7068 10.9661 42.9099 11.1172 43.0766 11.3125C43.2458 11.5052 43.3747 11.7331 43.4633 11.9961C43.5518 12.2565 43.5961 12.5391 43.5961 12.8438V12.9336C43.5961 13.2383 43.5518 13.5208 43.4633 13.7812C43.3747 14.0417 43.2458 14.2695 43.0766 14.4648C42.9099 14.6576 42.7081 14.8086 42.4711 14.918C42.2367 15.0247 41.9711 15.0781 41.6742 15.0781C41.3773 15.0781 41.1104 15.0247 40.8734 14.918C40.6365 14.8086 40.4333 14.6576 40.2641 14.4648C40.0974 14.2695 39.9698 14.0417 39.8813 13.7812C39.7927 13.5208 39.7484 13.2383 39.7484 12.9336ZM40.4711 12.8438V12.9336C40.4711 13.1445 40.4958 13.3438 40.5453 13.5312C40.5948 13.7161 40.669 13.8802 40.768 14.0234C40.8695 14.1667 40.9958 14.2799 41.1469 14.3633C41.2979 14.444 41.4737 14.4844 41.6742 14.4844C41.8721 14.4844 42.0453 14.444 42.1938 14.3633C42.3448 14.2799 42.4698 14.1667 42.5688 14.0234C42.6677 13.8802 42.7419 13.7161 42.7914 13.5312C42.8435 13.3438 42.8695 13.1445 42.8695 12.9336V12.8438C42.8695 12.6354 42.8435 12.4388 42.7914 12.2539C42.7419 12.0664 42.6664 11.901 42.5648 11.7578C42.4659 11.612 42.3409 11.4974 42.1898 11.4141C42.0414 11.3307 41.8669 11.2891 41.6664 11.2891C41.4685 11.2891 41.294 11.3307 41.143 11.4141C40.9945 11.4974 40.8695 11.612 40.768 11.7578C40.669 11.901 40.5948 12.0664 40.5453 12.2539C40.4958 12.4388 40.4711 12.6354 40.4711 12.8438ZM49.5508 14.1797V9H50.2773V15H49.6133L49.5508 14.1797ZM46.707 12.9336V12.8516C46.707 12.5286 46.7461 12.2357 46.8242 11.9727C46.9049 11.707 47.0182 11.4792 47.1641 11.2891C47.3125 11.099 47.4883 10.9531 47.6914 10.8516C47.8971 10.7474 48.1263 10.6953 48.3789 10.6953C48.6445 10.6953 48.8763 10.7422 49.0742 10.8359C49.2747 10.9271 49.444 11.0612 49.582 11.2383C49.7227 11.4128 49.8333 11.6237 49.9141 11.8711C49.9948 12.1185 50.0508 12.3984 50.082 12.7109V13.0703C50.0534 13.3802 49.9974 13.6589 49.9141 13.9062C49.8333 14.1536 49.7227 14.3646 49.582 14.5391C49.444 14.7135 49.2747 14.8477 49.0742 14.9414C48.8737 15.0326 48.6393 15.0781 48.3711 15.0781C48.1237 15.0781 47.8971 15.0247 47.6914 14.918C47.4883 14.8112 47.3125 14.6615 47.1641 14.4688C47.0182 14.276 46.9049 14.0495 46.8242 13.7891C46.7461 13.526 46.707 13.2409 46.707 12.9336ZM47.4336 12.8516V12.9336C47.4336 13.1445 47.4544 13.3424 47.4961 13.5273C47.5404 13.7122 47.6081 13.875 47.6992 14.0156C47.7904 14.1562 47.9062 14.2669 48.0469 14.3477C48.1875 14.4258 48.3555 14.4648 48.5508 14.4648C48.7904 14.4648 48.987 14.4141 49.1406 14.3125C49.2969 14.2109 49.4219 14.0768 49.5156 13.9102C49.6094 13.7435 49.6823 13.5625 49.7344 13.3672V12.4258C49.7031 12.2826 49.6576 12.1445 49.5977 12.0117C49.5404 11.8763 49.4648 11.7565 49.3711 11.6523C49.2799 11.5456 49.1667 11.4609 49.0312 11.3984C48.8984 11.3359 48.7409 11.3047 48.5586 11.3047C48.3607 11.3047 48.1901 11.3464 48.0469 11.4297C47.9062 11.5104 47.7904 11.6224 47.6992 11.7656C47.6081 11.9062 47.5404 12.0703 47.4961 12.2578C47.4544 12.4427 47.4336 12.6406 47.4336 12.8516ZM53.3563 15.0781C53.062 15.0781 52.7951 15.0286 52.5555 14.9297C52.3185 14.8281 52.1141 14.6862 51.9422 14.5039C51.7729 14.3216 51.6427 14.1055 51.5516 13.8555C51.4604 13.6055 51.4148 13.332 51.4148 13.0352V12.8711C51.4148 12.5273 51.4656 12.2214 51.5672 11.9531C51.6688 11.6823 51.8068 11.4531 51.9813 11.2656C52.1557 11.0781 52.3536 10.9362 52.575 10.8398C52.7964 10.7435 53.0255 10.6953 53.2625 10.6953C53.5646 10.6953 53.825 10.7474 54.0438 10.8516C54.2651 10.9557 54.4461 11.1016 54.5867 11.2891C54.7273 11.474 54.8315 11.6927 54.8992 11.9453C54.9669 12.1953 55.0008 12.4688 55.0008 12.7656V13.0898H51.8445V12.5H54.2781V12.4453C54.2677 12.2578 54.2286 12.0755 54.1609 11.8984C54.0958 11.7214 53.9917 11.5755 53.8484 11.4609C53.7052 11.3464 53.5099 11.2891 53.2625 11.2891C53.0984 11.2891 52.9474 11.3242 52.8094 11.3945C52.6714 11.4622 52.5529 11.5638 52.4539 11.6992C52.3549 11.8346 52.2781 12 52.2234 12.1953C52.1688 12.3906 52.1414 12.6159 52.1414 12.8711V13.0352C52.1414 13.2357 52.1688 13.4245 52.2234 13.6016C52.2807 13.776 52.3628 13.9297 52.4695 14.0625C52.5789 14.1953 52.7104 14.2995 52.8641 14.375C53.0203 14.4505 53.1974 14.4883 53.3953 14.4883C53.6505 14.4883 53.8667 14.4362 54.0438 14.332C54.2208 14.2279 54.3758 14.0885 54.5086 13.9141L54.9461 14.2617C54.8549 14.3997 54.7391 14.5312 54.5984 14.6562C54.4578 14.7812 54.2846 14.8828 54.0789 14.9609C53.8758 15.0391 53.6349 15.0781 53.3563 15.0781ZM60.6898 13.8789C60.6898 13.7747 60.6664 13.6784 60.6195 13.5898C60.5753 13.4987 60.4828 13.4167 60.3422 13.3438C60.2042 13.2682 59.9958 13.2031 59.7172 13.1484C59.4828 13.099 59.2706 13.0404 59.0805 12.9727C58.893 12.9049 58.7328 12.8229 58.6 12.7266C58.4698 12.6302 58.3695 12.5169 58.2992 12.3867C58.2289 12.2565 58.1937 12.1042 58.1937 11.9297C58.1937 11.763 58.2302 11.6055 58.3031 11.457C58.3786 11.3086 58.4841 11.1771 58.6195 11.0625C58.7576 10.9479 58.9229 10.8581 59.1156 10.793C59.3083 10.7279 59.5232 10.6953 59.7602 10.6953C60.0987 10.6953 60.3878 10.7552 60.6273 10.875C60.8669 10.9948 61.0505 11.1549 61.1781 11.3555C61.3057 11.5534 61.3695 11.7734 61.3695 12.0156H60.6469C60.6469 11.8984 60.6117 11.7852 60.5414 11.6758C60.4737 11.5638 60.3734 11.4714 60.2406 11.3984C60.1104 11.3255 59.9503 11.2891 59.7602 11.2891C59.5596 11.2891 59.3969 11.3203 59.2719 11.3828C59.1495 11.4427 59.0596 11.5195 59.0023 11.6133C58.9477 11.707 58.9203 11.806 58.9203 11.9102C58.9203 11.9883 58.9333 12.0586 58.9594 12.1211C58.988 12.181 59.0375 12.237 59.1078 12.2891C59.1781 12.3385 59.2771 12.3854 59.4047 12.4297C59.5323 12.474 59.6951 12.5182 59.893 12.5625C60.2393 12.6406 60.5245 12.7344 60.7484 12.8438C60.9724 12.9531 61.1391 13.0872 61.2484 13.2461C61.3578 13.4049 61.4125 13.5977 61.4125 13.8242C61.4125 14.0091 61.3734 14.1784 61.2953 14.332C61.2198 14.4857 61.1091 14.6185 60.9633 14.7305C60.8201 14.8398 60.6482 14.9258 60.4477 14.9883C60.2497 15.0482 60.0271 15.0781 59.7797 15.0781C59.4073 15.0781 59.0922 15.0117 58.8344 14.8789C58.5766 14.7461 58.3812 14.5742 58.2484 14.3633C58.1156 14.1523 58.0492 13.9297 58.0492 13.6953H58.7758C58.7862 13.8932 58.8435 14.0508 58.9477 14.168C59.0518 14.2826 59.1794 14.3646 59.3305 14.4141C59.4815 14.4609 59.6312 14.4844 59.7797 14.4844C59.9776 14.4844 60.143 14.4583 60.2758 14.4062C60.4112 14.3542 60.5141 14.2826 60.5844 14.1914C60.6547 14.1003 60.6898 13.9961 60.6898 13.8789ZM64.3156 15.0781C64.0214 15.0781 63.7544 15.0286 63.5148 14.9297C63.2779 14.8281 63.0734 14.6862 62.9016 14.5039C62.7323 14.3216 62.6021 14.1055 62.5109 13.8555C62.4198 13.6055 62.3742 13.332 62.3742 13.0352V12.8711C62.3742 12.5273 62.425 12.2214 62.5266 11.9531C62.6281 11.6823 62.7661 11.4531 62.9406 11.2656C63.1151 11.0781 63.313 10.9362 63.5344 10.8398C63.7557 10.7435 63.9849 10.6953 64.2219 10.6953C64.524 10.6953 64.7844 10.7474 65.0031 10.8516C65.2245 10.9557 65.4055 11.1016 65.5461 11.2891C65.6867 11.474 65.7909 11.6927 65.8586 11.9453C65.9263 12.1953 65.9602 12.4688 65.9602 12.7656V13.0898H62.8039V12.5H65.2375V12.4453C65.2271 12.2578 65.188 12.0755 65.1203 11.8984C65.0552 11.7214 64.951 11.5755 64.8078 11.4609C64.6646 11.3464 64.4693 11.2891 64.2219 11.2891C64.0578 11.2891 63.9068 11.3242 63.7687 11.3945C63.6307 11.4622 63.5122 11.5638 63.4133 11.6992C63.3143 11.8346 63.2375 12 63.1828 12.1953C63.1281 12.3906 63.1008 12.6159 63.1008 12.8711V13.0352C63.1008 13.2357 63.1281 13.4245 63.1828 13.6016C63.2401 13.776 63.3221 13.9297 63.4289 14.0625C63.5383 14.1953 63.6698 14.2995 63.8234 14.375C63.9797 14.4505 64.1568 14.4883 64.3547 14.4883C64.6099 14.4883 64.826 14.4362 65.0031 14.332C65.1802 14.2279 65.3352 14.0885 65.468 13.9141L65.9055 14.2617C65.8143 14.3997 65.6984 14.5312 65.5578 14.6562C65.4172 14.7812 65.244 14.8828 65.0383 14.9609C64.8352 15.0391 64.5943 15.0781 64.3156 15.0781ZM67.7266 11.4375V15H67.0039V10.7734H67.707L67.7266 11.4375ZM69.0469 10.75L69.043 11.4219C68.9831 11.4089 68.9258 11.401 68.8711 11.3984C68.819 11.3932 68.7591 11.3906 68.6914 11.3906C68.5247 11.3906 68.3776 11.4167 68.25 11.4688C68.1224 11.5208 68.0143 11.5938 67.9258 11.6875C67.8372 11.7812 67.7669 11.8932 67.7148 12.0234C67.6654 12.151 67.6328 12.2917 67.6172 12.4453L67.4141 12.5625C67.4141 12.3073 67.4388 12.0677 67.4883 11.8438C67.5404 11.6198 67.6198 11.4219 67.7266 11.25C67.8333 11.0755 67.9688 10.9401 68.1328 10.8438C68.2995 10.7448 68.4974 10.6953 68.7266 10.6953C68.7786 10.6953 68.8385 10.7018 68.9062 10.7148C68.974 10.7253 69.0208 10.737 69.0469 10.75ZM71.2703 14.3477L72.4266 10.7734H73.1648L71.6453 15H71.1609L71.2703 14.3477ZM70.3055 10.7734L71.4969 14.3672L71.5789 15H71.0945L69.5633 10.7734H70.3055ZM74.8453 10.7734V15H74.1188V10.7734H74.8453ZM74.0641 9.65234C74.0641 9.53516 74.0992 9.4362 74.1695 9.35547C74.2424 9.27474 74.3492 9.23438 74.4898 9.23438C74.6279 9.23438 74.7333 9.27474 74.8063 9.35547C74.8818 9.4362 74.9195 9.53516 74.9195 9.65234C74.9195 9.76432 74.8818 9.86068 74.8063 9.94141C74.7333 10.0195 74.6279 10.0586 74.4898 10.0586C74.3492 10.0586 74.2424 10.0195 74.1695 9.94141C74.0992 9.86068 74.0641 9.76432 74.0641 9.65234ZM77.8969 14.4844C78.0687 14.4844 78.2276 14.4492 78.3734 14.3789C78.5193 14.3086 78.6391 14.2122 78.7328 14.0898C78.8266 13.9648 78.8799 13.8229 78.893 13.6641H79.5805C79.5674 13.9141 79.4828 14.1471 79.3266 14.3633C79.1729 14.5768 78.9711 14.75 78.7211 14.8828C78.4711 15.013 78.1964 15.0781 77.8969 15.0781C77.5792 15.0781 77.3018 15.0221 77.0648 14.9102C76.8305 14.7982 76.6352 14.6445 76.4789 14.4492C76.3253 14.2539 76.2094 14.0299 76.1312 13.7773C76.0557 13.5221 76.018 13.2526 76.018 12.9688V12.8047C76.018 12.5208 76.0557 12.2526 76.1312 12C76.2094 11.7448 76.3253 11.5195 76.4789 11.3242C76.6352 11.1289 76.8305 10.9753 77.0648 10.8633C77.3018 10.7513 77.5792 10.6953 77.8969 10.6953C78.2276 10.6953 78.5167 10.763 78.7641 10.8984C79.0115 11.0312 79.2055 11.2135 79.3461 11.4453C79.4893 11.6745 79.5674 11.9349 79.5805 12.2266H78.893C78.8799 12.0521 78.8305 11.8945 78.7445 11.7539C78.6612 11.6133 78.5466 11.5013 78.4008 11.418C78.2576 11.332 78.0896 11.2891 77.8969 11.2891C77.6755 11.2891 77.4893 11.3333 77.3383 11.4219C77.1898 11.5078 77.0714 11.625 76.9828 11.7734C76.8969 11.9193 76.8344 12.082 76.7953 12.2617C76.7589 12.4388 76.7406 12.6198 76.7406 12.8047V12.9688C76.7406 13.1536 76.7589 13.3359 76.7953 13.5156C76.8318 13.6953 76.893 13.8581 76.9789 14.0039C77.0674 14.1497 77.1859 14.2669 77.3344 14.3555C77.4854 14.4414 77.6729 14.4844 77.8969 14.4844ZM81.3781 10.7734V15H80.6516V10.7734H81.3781ZM80.5969 9.65234C80.5969 9.53516 80.632 9.4362 80.7023 9.35547C80.7753 9.27474 80.882 9.23438 81.0227 9.23438C81.1607 9.23438 81.2661 9.27474 81.3391 9.35547C81.4146 9.4362 81.4523 9.53516 81.4523 9.65234C81.4523 9.76432 81.4146 9.86068 81.3391 9.94141C81.2661 10.0195 81.1607 10.0586 81.0227 10.0586C80.882 10.0586 80.7753 10.0195 80.7023 9.94141C80.632 9.86068 80.5969 9.76432 80.5969 9.65234ZM82.5469 12.9336V12.8438C82.5469 12.5391 82.5911 12.2565 82.6797 11.9961C82.7682 11.7331 82.8958 11.5052 83.0625 11.3125C83.2292 11.1172 83.431 10.9661 83.668 10.8594C83.9049 10.75 84.1706 10.6953 84.4648 10.6953C84.7617 10.6953 85.0286 10.75 85.2656 10.8594C85.5052 10.9661 85.7083 11.1172 85.875 11.3125C86.0443 11.5052 86.1732 11.7331 86.2617 11.9961C86.3503 12.2565 86.3945 12.5391 86.3945 12.8438V12.9336C86.3945 13.2383 86.3503 13.5208 86.2617 13.7812C86.1732 14.0417 86.0443 14.2695 85.875 14.4648C85.7083 14.6576 85.5065 14.8086 85.2695 14.918C85.0352 15.0247 84.7695 15.0781 84.4727 15.0781C84.1758 15.0781 83.9089 15.0247 83.6719 14.918C83.4349 14.8086 83.2318 14.6576 83.0625 14.4648C82.8958 14.2695 82.7682 14.0417 82.6797 13.7812C82.5911 13.5208 82.5469 13.2383 82.5469 12.9336ZM83.2695 12.8438V12.9336C83.2695 13.1445 83.2943 13.3438 83.3438 13.5312C83.3932 13.7161 83.4674 13.8802 83.5664 14.0234C83.668 14.1667 83.7943 14.2799 83.9453 14.3633C84.0964 14.444 84.2721 14.4844 84.4727 14.4844C84.6706 14.4844 84.8438 14.444 84.9922 14.3633C85.1432 14.2799 85.2682 14.1667 85.3672 14.0234C85.4661 13.8802 85.5404 13.7161 85.5898 13.5312C85.6419 13.3438 85.668 13.1445 85.668 12.9336V12.8438C85.668 12.6354 85.6419 12.4388 85.5898 12.2539C85.5404 12.0664 85.4648 11.901 85.3633 11.7578C85.2643 11.612 85.1393 11.4974 84.9883 11.4141C84.8398 11.3307 84.6654 11.2891 84.4648 11.2891C84.2669 11.2891 84.0924 11.3307 83.9414 11.4141C83.793 11.4974 83.668 11.612 83.5664 11.7578C83.4674 11.901 83.3932 12.0664 83.3438 12.2539C83.2943 12.4388 83.2695 12.6354 83.2695 12.8438ZM10.6289 24H9.90625V19.3281C9.90625 19.0234 9.96094 18.7669 10.0703 18.5586C10.1823 18.3477 10.3424 18.1888 10.5508 18.082C10.7591 17.9727 11.0065 17.918 11.293 17.918C11.3763 17.918 11.4596 17.9232 11.543 17.9336C11.6289 17.944 11.7122 17.9596 11.793 17.9805L11.7539 18.5703C11.6992 18.5573 11.6367 18.5482 11.5664 18.543C11.4987 18.5378 11.431 18.5352 11.3633 18.5352C11.2096 18.5352 11.0768 18.5664 10.9648 18.6289C10.8555 18.6888 10.7721 18.7773 10.7148 18.8945C10.6576 19.0117 10.6289 19.1562 10.6289 19.3281V24ZM11.5273 19.7734V20.3281H9.23828V19.7734H11.5273ZM15.118 23.0234V19.7734H15.8445V24H15.1531L15.118 23.0234ZM15.2547 22.1328L15.5555 22.125C15.5555 22.4062 15.5255 22.6667 15.4656 22.9062C15.4083 23.1432 15.3146 23.349 15.1844 23.5234C15.0542 23.6979 14.8836 23.8346 14.6727 23.9336C14.4617 24.0299 14.2052 24.0781 13.9031 24.0781C13.6974 24.0781 13.5086 24.0482 13.3367 23.9883C13.1674 23.9284 13.0216 23.8359 12.8992 23.7109C12.7768 23.5859 12.6818 23.4232 12.6141 23.2227C12.549 23.0221 12.5164 22.7812 12.5164 22.5V19.7734H13.2391V22.5078C13.2391 22.6979 13.2599 22.8555 13.3016 22.9805C13.3458 23.1029 13.4044 23.2005 13.4773 23.2734C13.5529 23.3438 13.6362 23.3932 13.7273 23.4219C13.8211 23.4505 13.9174 23.4648 14.0164 23.4648C14.3237 23.4648 14.5672 23.4062 14.7469 23.2891C14.9266 23.1693 15.0555 23.0091 15.1336 22.8086C15.2143 22.6055 15.2547 22.3802 15.2547 22.1328ZM18.9 24.0781C18.6057 24.0781 18.3388 24.0286 18.0992 23.9297C17.8622 23.8281 17.6578 23.6862 17.4859 23.5039C17.3167 23.3216 17.1865 23.1055 17.0953 22.8555C17.0042 22.6055 16.9586 22.332 16.9586 22.0352V21.8711C16.9586 21.5273 17.0094 21.2214 17.1109 20.9531C17.2125 20.6823 17.3505 20.4531 17.525 20.2656C17.6995 20.0781 17.8974 19.9362 18.1188 19.8398C18.3401 19.7435 18.5693 19.6953 18.8063 19.6953C19.1083 19.6953 19.3688 19.7474 19.5875 19.8516C19.8089 19.9557 19.9898 20.1016 20.1305 20.2891C20.2711 20.474 20.3753 20.6927 20.443 20.9453C20.5107 21.1953 20.5445 21.4688 20.5445 21.7656V22.0898H17.3883V21.5H19.8219V21.4453C19.8115 21.2578 19.7724 21.0755 19.7047 20.8984C19.6396 20.7214 19.5354 20.5755 19.3922 20.4609C19.249 20.3464 19.0536 20.2891 18.8063 20.2891C18.6422 20.2891 18.4911 20.3242 18.3531 20.3945C18.2151 20.4622 18.0966 20.5638 17.9977 20.6992C17.8987 20.8346 17.8219 21 17.7672 21.1953C17.7125 21.3906 17.6852 21.6159 17.6852 21.8711V22.0352C17.6852 22.2357 17.7125 22.4245 17.7672 22.6016C17.8245 22.776 17.9065 22.9297 18.0133 23.0625C18.1227 23.1953 18.2542 23.2995 18.4078 23.375C18.5641 23.4505 18.7411 23.4883 18.9391 23.4883C19.1943 23.4883 19.4104 23.4362 19.5875 23.332C19.7646 23.2279 19.9195 23.0885 20.0523 22.9141L20.4898 23.2617C20.3987 23.3997 20.2828 23.5312 20.1422 23.6562C20.0016 23.7812 19.8284 23.8828 19.6227 23.9609C19.4195 24.0391 19.1786 24.0781 18.9 24.0781ZM24.4914 20.6133V24H23.7648V19.7734H24.4523L24.4914 20.6133ZM24.343 21.7266L24.007 21.7148C24.0096 21.4258 24.0474 21.1589 24.1203 20.9141C24.1932 20.6667 24.3013 20.4518 24.4445 20.2695C24.5878 20.0872 24.7661 19.9466 24.9797 19.8477C25.1932 19.7461 25.4406 19.6953 25.7219 19.6953C25.9198 19.6953 26.1021 19.724 26.2688 19.7812C26.4354 19.8359 26.5799 19.9232 26.7023 20.043C26.8247 20.1628 26.9198 20.3164 26.9875 20.5039C27.0552 20.6914 27.0891 20.918 27.0891 21.1836V24H26.3664V21.2188C26.3664 20.9974 26.3286 20.8203 26.2531 20.6875C26.1802 20.5547 26.076 20.4583 25.9406 20.3984C25.8052 20.3359 25.6464 20.3047 25.4641 20.3047C25.2505 20.3047 25.0721 20.3424 24.9289 20.418C24.7857 20.4935 24.6711 20.5977 24.5852 20.7305C24.4992 20.8633 24.4367 21.0156 24.3977 21.1875C24.3612 21.3568 24.343 21.5365 24.343 21.7266ZM27.0813 21.3281L26.5969 21.4766C26.5995 21.2448 26.6372 21.0221 26.7102 20.8086C26.7857 20.5951 26.8938 20.4049 27.0344 20.2383C27.1776 20.0716 27.3534 19.9401 27.5617 19.8438C27.7701 19.7448 28.0083 19.6953 28.2766 19.6953C28.5031 19.6953 28.7036 19.7253 28.8781 19.7852C29.0552 19.8451 29.2036 19.9375 29.3234 20.0625C29.4458 20.1849 29.5383 20.3424 29.6008 20.5352C29.6633 20.7279 29.6945 20.957 29.6945 21.2227V24H28.968V21.2148C28.968 20.9779 28.9302 20.7943 28.8547 20.6641C28.7818 20.5312 28.6776 20.4388 28.5422 20.3867C28.4094 20.332 28.2505 20.3047 28.0656 20.3047C27.9068 20.3047 27.7661 20.332 27.6438 20.3867C27.5214 20.4414 27.4185 20.5169 27.3352 20.6133C27.2518 20.707 27.188 20.8151 27.1438 20.9375C27.1021 21.0599 27.0813 21.1901 27.0813 21.3281ZM33.4805 23.2773V21.1016C33.4805 20.9349 33.4466 20.7904 33.3789 20.668C33.3138 20.543 33.2148 20.4466 33.082 20.3789C32.9492 20.3112 32.7852 20.2773 32.5898 20.2773C32.4076 20.2773 32.2474 20.3086 32.1094 20.3711C31.974 20.4336 31.8672 20.5156 31.7891 20.6172C31.7135 20.7188 31.6758 20.8281 31.6758 20.9453H30.9531C30.9531 20.7943 30.9922 20.6445 31.0703 20.4961C31.1484 20.3477 31.2604 20.2135 31.4062 20.0938C31.5547 19.9714 31.7318 19.875 31.9375 19.8047C32.1458 19.7318 32.3776 19.6953 32.6328 19.6953C32.9401 19.6953 33.2109 19.7474 33.4453 19.8516C33.6823 19.9557 33.8672 20.1133 34 20.3242C34.1354 20.5326 34.2031 20.7943 34.2031 21.1094V23.0781C34.2031 23.2188 34.2148 23.3685 34.2383 23.5273C34.2643 23.6862 34.3021 23.8229 34.3516 23.9375V24H33.5977C33.5612 23.9167 33.5326 23.806 33.5117 23.668C33.4909 23.5273 33.4805 23.3971 33.4805 23.2773ZM33.6055 21.4375L33.6133 21.9453H32.8828C32.6771 21.9453 32.4935 21.9622 32.332 21.9961C32.1706 22.0273 32.0352 22.0755 31.9258 22.1406C31.8164 22.2057 31.7331 22.2878 31.6758 22.3867C31.6185 22.4831 31.5898 22.5964 31.5898 22.7266C31.5898 22.8594 31.6198 22.9805 31.6797 23.0898C31.7396 23.1992 31.8294 23.2865 31.9492 23.3516C32.0716 23.4141 32.2214 23.4453 32.3984 23.4453C32.6198 23.4453 32.8151 23.3984 32.9844 23.3047C33.1536 23.2109 33.2878 23.0964 33.3867 22.9609C33.4883 22.8255 33.543 22.694 33.5508 22.5664L33.8594 22.9141C33.8411 23.0234 33.7917 23.1445 33.7109 23.2773C33.6302 23.4102 33.5221 23.5378 33.3867 23.6602C33.2539 23.7799 33.0951 23.8802 32.9102 23.9609C32.7279 24.0391 32.5221 24.0781 32.293 24.0781C32.0065 24.0781 31.7552 24.0221 31.5391 23.9102C31.3255 23.7982 31.1589 23.6484 31.0391 23.4609C30.9219 23.2708 30.8633 23.0586 30.8633 22.8242C30.8633 22.5977 30.9076 22.3984 30.9961 22.2266C31.0846 22.0521 31.2122 21.9076 31.3789 21.793C31.5456 21.6758 31.7461 21.5872 31.9805 21.5273C32.2148 21.4674 32.4766 21.4375 32.7656 21.4375H33.6055ZM36.6648 23.5625L37.8406 19.7734H38.6141L36.9188 24.6523C36.8797 24.7565 36.8276 24.8685 36.7625 24.9883C36.7 25.1107 36.6193 25.2266 36.5203 25.3359C36.4214 25.4453 36.3016 25.5339 36.1609 25.6016C36.0229 25.6719 35.8576 25.707 35.6648 25.707C35.6076 25.707 35.5346 25.6992 35.4461 25.6836C35.3576 25.668 35.2951 25.6549 35.2586 25.6445L35.2547 25.0586C35.2755 25.0612 35.3081 25.0638 35.3523 25.0664C35.3992 25.0716 35.4318 25.0742 35.45 25.0742C35.6141 25.0742 35.7534 25.0521 35.868 25.0078C35.9826 24.9661 36.0789 24.8945 36.157 24.793C36.2378 24.694 36.3068 24.5573 36.3641 24.3828L36.6648 23.5625ZM35.8016 19.7734L36.8992 23.0547L37.0867 23.8164L36.5672 24.082L35.0125 19.7734H35.8016ZM39.2125 21.9336V21.8438C39.2125 21.5391 39.2568 21.2565 39.3453 20.9961C39.4339 20.7331 39.5615 20.5052 39.7281 20.3125C39.8948 20.1172 40.0966 19.9661 40.3336 19.8594C40.5706 19.75 40.8362 19.6953 41.1305 19.6953C41.4273 19.6953 41.6943 19.75 41.9312 19.8594C42.1708 19.9661 42.374 20.1172 42.5406 20.3125C42.7099 20.5052 42.8388 20.7331 42.9273 20.9961C43.0159 21.2565 43.0602 21.5391 43.0602 21.8438V21.9336C43.0602 22.2383 43.0159 22.5208 42.9273 22.7812C42.8388 23.0417 42.7099 23.2695 42.5406 23.4648C42.374 23.6576 42.1721 23.8086 41.9352 23.918C41.7008 24.0247 41.4352 24.0781 41.1383 24.0781C40.8414 24.0781 40.5745 24.0247 40.3375 23.918C40.1005 23.8086 39.8974 23.6576 39.7281 23.4648C39.5615 23.2695 39.4339 23.0417 39.3453 22.7812C39.2568 22.5208 39.2125 22.2383 39.2125 21.9336ZM39.9352 21.8438V21.9336C39.9352 22.1445 39.9599 22.3438 40.0094 22.5312C40.0589 22.7161 40.1331 22.8802 40.232 23.0234C40.3336 23.1667 40.4599 23.2799 40.6109 23.3633C40.762 23.444 40.9378 23.4844 41.1383 23.4844C41.3362 23.4844 41.5094 23.444 41.6578 23.3633C41.8089 23.2799 41.9339 23.1667 42.0328 23.0234C42.1318 22.8802 42.206 22.7161 42.2555 22.5312C42.3076 22.3438 42.3336 22.1445 42.3336 21.9336V21.8438C42.3336 21.6354 42.3076 21.4388 42.2555 21.2539C42.206 21.0664 42.1305 20.901 42.0289 20.7578C41.9299 20.612 41.8049 20.4974 41.6539 20.4141C41.5055 20.3307 41.331 20.2891 41.1305 20.2891C40.9326 20.2891 40.7581 20.3307 40.607 20.4141C40.4586 20.4974 40.3336 20.612 40.232 20.7578C40.1331 20.901 40.0589 21.0664 40.0094 21.2539C39.9599 21.4388 39.9352 21.6354 39.9352 21.8438ZM44.8891 20.4375V24H44.1664V19.7734H44.8695L44.8891 20.4375ZM46.2094 19.75L46.2055 20.4219C46.1456 20.4089 46.0883 20.401 46.0336 20.3984C45.9815 20.3932 45.9216 20.3906 45.8539 20.3906C45.6872 20.3906 45.5401 20.4167 45.4125 20.4688C45.2849 20.5208 45.1768 20.5938 45.0883 20.6875C44.9997 20.7812 44.9294 20.8932 44.8773 21.0234C44.8279 21.151 44.7953 21.2917 44.7797 21.4453L44.5766 21.5625C44.5766 21.3073 44.6013 21.0677 44.6508 20.8438C44.7029 20.6198 44.7823 20.4219 44.8891 20.25C44.9958 20.0755 45.1312 19.9401 45.2953 19.8438C45.462 19.7448 45.6599 19.6953 45.8891 19.6953C45.9411 19.6953 46.001 19.7018 46.0687 19.7148C46.1365 19.7253 46.1833 19.737 46.2094 19.75ZM51.9219 25.625V20.5859L51.9844 19.7734H52.6484V25.625H51.9219ZM49.082 21.9336V21.8516C49.082 21.5286 49.1198 21.2357 49.1953 20.9727C49.2708 20.707 49.3815 20.4792 49.5273 20.2891C49.6732 20.099 49.849 19.9531 50.0547 19.8516C50.263 19.7474 50.5 19.6953 50.7656 19.6953C51.0312 19.6953 51.2643 19.7422 51.4648 19.8359C51.668 19.9271 51.8398 20.0612 51.9805 20.2383C52.1237 20.4128 52.237 20.6237 52.3203 20.8711C52.4036 21.1185 52.4609 21.3984 52.4922 21.7109V22.0703C52.4635 22.3802 52.4076 22.6589 52.3242 22.9062C52.2409 23.1536 52.1276 23.3646 51.9844 23.5391C51.8438 23.7135 51.6706 23.8477 51.4648 23.9414C51.2617 24.0326 51.026 24.0781 50.7578 24.0781C50.4974 24.0781 50.263 24.0247 50.0547 23.918C49.849 23.8112 49.6732 23.6615 49.5273 23.4688C49.3841 23.276 49.2734 23.0495 49.1953 22.7891C49.1198 22.526 49.082 22.2409 49.082 21.9336ZM49.8086 21.8516V21.9336C49.8086 22.1445 49.8307 22.3438 49.875 22.5312C49.9193 22.7161 49.987 22.8802 50.0781 23.0234C50.1719 23.1667 50.2891 23.2799 50.4297 23.3633C50.5729 23.444 50.7422 23.4844 50.9375 23.4844C51.1771 23.4844 51.3763 23.4323 51.5352 23.3281C51.6966 23.224 51.8255 23.0872 51.9219 22.918C52.0182 22.7461 52.0924 22.5625 52.1445 22.3672V21.4258C52.1159 21.2826 52.0703 21.1432 52.0078 21.0078C51.9479 20.8724 51.8698 20.7513 51.7734 20.6445C51.6771 20.5352 51.5599 20.4492 51.4219 20.3867C51.2865 20.3216 51.1276 20.2891 50.9453 20.2891C50.7474 20.2891 50.5768 20.3307 50.4336 20.4141C50.2904 20.4974 50.1719 20.612 50.0781 20.7578C49.987 20.901 49.9193 21.0664 49.875 21.2539C49.8307 21.4414 49.8086 21.6406 49.8086 21.8516ZM56.5945 23.0234V19.7734H57.3211V24H56.6297L56.5945 23.0234ZM56.7313 22.1328L57.032 22.125C57.032 22.4062 57.0021 22.6667 56.9422 22.9062C56.8849 23.1432 56.7911 23.349 56.6609 23.5234C56.5307 23.6979 56.3602 23.8346 56.1492 23.9336C55.9383 24.0299 55.6818 24.0781 55.3797 24.0781C55.174 24.0781 54.9852 24.0482 54.8133 23.9883C54.644 23.9284 54.4982 23.8359 54.3758 23.7109C54.2534 23.5859 54.1583 23.4232 54.0906 23.2227C54.0255 23.0221 53.993 22.7812 53.993 22.5V19.7734H54.7156V22.5078C54.7156 22.6979 54.7365 22.8555 54.7781 22.9805C54.8224 23.1029 54.881 23.2005 54.9539 23.2734C55.0294 23.3438 55.1128 23.3932 55.2039 23.4219C55.2977 23.4505 55.394 23.4648 55.493 23.4648C55.8003 23.4648 56.0438 23.4062 56.2234 23.2891C56.4031 23.1693 56.532 23.0091 56.6102 22.8086C56.6909 22.6055 56.7313 22.3802 56.7313 22.1328ZM60.3766 24.0781C60.0823 24.0781 59.8154 24.0286 59.5758 23.9297C59.3388 23.8281 59.1344 23.6862 58.9625 23.5039C58.7932 23.3216 58.663 23.1055 58.5719 22.8555C58.4807 22.6055 58.4352 22.332 58.4352 22.0352V21.8711C58.4352 21.5273 58.4859 21.2214 58.5875 20.9531C58.6891 20.6823 58.8271 20.4531 59.0016 20.2656C59.176 20.0781 59.374 19.9362 59.5953 19.8398C59.8167 19.7435 60.0458 19.6953 60.2828 19.6953C60.5849 19.6953 60.8453 19.7474 61.0641 19.8516C61.2854 19.9557 61.4664 20.1016 61.607 20.2891C61.7477 20.474 61.8518 20.6927 61.9195 20.9453C61.9872 21.1953 62.0211 21.4688 62.0211 21.7656V22.0898H58.8648V21.5H61.2984V21.4453C61.288 21.2578 61.249 21.0755 61.1813 20.8984C61.1161 20.7214 61.012 20.5755 60.8688 20.4609C60.7255 20.3464 60.5302 20.2891 60.2828 20.2891C60.1188 20.2891 59.9677 20.3242 59.8297 20.3945C59.6917 20.4622 59.5732 20.5638 59.4742 20.6992C59.3753 20.8346 59.2984 21 59.2438 21.1953C59.1891 21.3906 59.1617 21.6159 59.1617 21.8711V22.0352C59.1617 22.2357 59.1891 22.4245 59.2438 22.6016C59.301 22.776 59.3831 22.9297 59.4898 23.0625C59.5992 23.1953 59.7307 23.2995 59.8844 23.375C60.0406 23.4505 60.2177 23.4883 60.4156 23.4883C60.6708 23.4883 60.887 23.4362 61.0641 23.332C61.2411 23.2279 61.3961 23.0885 61.5289 22.9141L61.9664 23.2617C61.8753 23.3997 61.7594 23.5312 61.6188 23.6562C61.4781 23.7812 61.3049 23.8828 61.0992 23.9609C60.8961 24.0391 60.6552 24.0781 60.3766 24.0781ZM66.0344 18V24H65.3078V18H66.0344ZM67.2031 21.9336V21.8438C67.2031 21.5391 67.2474 21.2565 67.3359 20.9961C67.4245 20.7331 67.5521 20.5052 67.7188 20.3125C67.8854 20.1172 68.0872 19.9661 68.3242 19.8594C68.5612 19.75 68.8268 19.6953 69.1211 19.6953C69.418 19.6953 69.6849 19.75 69.9219 19.8594C70.1615 19.9661 70.3646 20.1172 70.5312 20.3125C70.7005 20.5052 70.8294 20.7331 70.918 20.9961C71.0065 21.2565 71.0508 21.5391 71.0508 21.8438V21.9336C71.0508 22.2383 71.0065 22.5208 70.918 22.7812C70.8294 23.0417 70.7005 23.2695 70.5312 23.4648C70.3646 23.6576 70.1628 23.8086 69.9258 23.918C69.6914 24.0247 69.4258 24.0781 69.1289 24.0781C68.832 24.0781 68.5651 24.0247 68.3281 23.918C68.0911 23.8086 67.888 23.6576 67.7188 23.4648C67.5521 23.2695 67.4245 23.0417 67.3359 22.7812C67.2474 22.5208 67.2031 22.2383 67.2031 21.9336ZM67.9258 21.8438V21.9336C67.9258 22.1445 67.9505 22.3438 68 22.5312C68.0495 22.7161 68.1237 22.8802 68.2227 23.0234C68.3242 23.1667 68.4505 23.2799 68.6016 23.3633C68.7526 23.444 68.9284 23.4844 69.1289 23.4844C69.3268 23.4844 69.5 23.444 69.6484 23.3633C69.7995 23.2799 69.9245 23.1667 70.0234 23.0234C70.1224 22.8802 70.1966 22.7161 70.2461 22.5312C70.2982 22.3438 70.3242 22.1445 70.3242 21.9336V21.8438C70.3242 21.6354 70.2982 21.4388 70.2461 21.2539C70.1966 21.0664 70.1211 20.901 70.0195 20.7578C69.9206 20.612 69.7956 20.4974 69.6445 20.4141C69.4961 20.3307 69.3216 20.2891 69.1211 20.2891C68.9232 20.2891 68.7487 20.3307 68.5977 20.4141C68.4492 20.4974 68.3242 20.612 68.2227 20.7578C68.1237 20.901 68.0495 21.0664 68 21.2539C67.9505 21.4388 67.9258 21.6354 67.9258 21.8438ZM10.2734 27V33H9.55078V27H10.2734ZM10.1016 30.7266L9.80078 30.7148C9.80339 30.4258 9.84635 30.1589 9.92969 29.9141C10.013 29.6667 10.1302 29.4518 10.2812 29.2695C10.4323 29.0872 10.612 28.9466 10.8203 28.8477C11.0312 28.7461 11.2643 28.6953 11.5195 28.6953C11.7279 28.6953 11.9154 28.724 12.082 28.7812C12.2487 28.8359 12.3906 28.9245 12.5078 29.0469C12.6276 29.1693 12.7188 29.3281 12.7812 29.5234C12.8438 29.7161 12.875 29.9518 12.875 30.2305V33H12.1484V30.2227C12.1484 30.0013 12.1159 29.8242 12.0508 29.6914C11.9857 29.556 11.8906 29.4583 11.7656 29.3984C11.6406 29.3359 11.487 29.3047 11.3047 29.3047C11.125 29.3047 10.9609 29.3424 10.8125 29.418C10.6667 29.4935 10.5404 29.5977 10.4336 29.7305C10.3294 29.8633 10.2474 30.0156 10.1875 30.1875C10.1302 30.3568 10.1016 30.5365 10.1016 30.7266ZM16.6492 32.2773V30.1016C16.6492 29.9349 16.6154 29.7904 16.5477 29.668C16.4826 29.543 16.3836 29.4466 16.2508 29.3789C16.118 29.3112 15.9539 29.2773 15.7586 29.2773C15.5763 29.2773 15.4161 29.3086 15.2781 29.3711C15.1427 29.4336 15.0359 29.5156 14.9578 29.6172C14.8823 29.7188 14.8445 29.8281 14.8445 29.9453H14.1219C14.1219 29.7943 14.1609 29.6445 14.2391 29.4961C14.3172 29.3477 14.4292 29.2135 14.575 29.0938C14.7234 28.9714 14.9005 28.875 15.1062 28.8047C15.3146 28.7318 15.5464 28.6953 15.8016 28.6953C16.1089 28.6953 16.3797 28.7474 16.6141 28.8516C16.851 28.9557 17.0359 29.1133 17.1687 29.3242C17.3042 29.5326 17.3719 29.7943 17.3719 30.1094V32.0781C17.3719 32.2188 17.3836 32.3685 17.407 32.5273C17.4331 32.6862 17.4708 32.8229 17.5203 32.9375V33H16.7664C16.7299 32.9167 16.7013 32.806 16.6805 32.668C16.6596 32.5273 16.6492 32.3971 16.6492 32.2773ZM16.7742 30.4375L16.782 30.9453H16.0516C15.8458 30.9453 15.6622 30.9622 15.5008 30.9961C15.3393 31.0273 15.2039 31.0755 15.0945 31.1406C14.9852 31.2057 14.9018 31.2878 14.8445 31.3867C14.7872 31.4831 14.7586 31.5964 14.7586 31.7266C14.7586 31.8594 14.7885 31.9805 14.8484 32.0898C14.9083 32.1992 14.9982 32.2865 15.118 32.3516C15.2404 32.4141 15.3901 32.4453 15.5672 32.4453C15.7885 32.4453 15.9839 32.3984 16.1531 32.3047C16.3224 32.2109 16.4565 32.0964 16.5555 31.9609C16.657 31.8255 16.7117 31.694 16.7195 31.5664L17.0281 31.9141C17.0099 32.0234 16.9604 32.1445 16.8797 32.2773C16.799 32.4102 16.6909 32.5378 16.5555 32.6602C16.4227 32.7799 16.2638 32.8802 16.0789 32.9609C15.8966 33.0391 15.6909 33.0781 15.4617 33.0781C15.1753 33.0781 14.924 33.0221 14.7078 32.9102C14.4943 32.7982 14.3276 32.6484 14.2078 32.4609C14.0906 32.2708 14.032 32.0586 14.032 31.8242C14.032 31.5977 14.0763 31.3984 14.1648 31.2266C14.2534 31.0521 14.381 30.9076 14.5477 30.793C14.7143 30.6758 14.9148 30.5872 15.1492 30.5273C15.3836 30.4674 15.6453 30.4375 15.9344 30.4375H16.7742ZM18.7047 27H19.4312V32.1797L19.3687 33H18.7047V27ZM22.2867 30.8516V30.9336C22.2867 31.2409 22.2503 31.526 22.1773 31.7891C22.1044 32.0495 21.9977 32.276 21.857 32.4688C21.7164 32.6615 21.5445 32.8112 21.3414 32.918C21.1383 33.0247 20.9052 33.0781 20.6422 33.0781C20.374 33.0781 20.1383 33.0326 19.9352 32.9414C19.7346 32.8477 19.5654 32.7135 19.4273 32.5391C19.2893 32.3646 19.1786 32.1536 19.0953 31.9062C19.0146 31.6589 18.9586 31.3802 18.9273 31.0703V30.7109C18.9586 30.3984 19.0146 30.1185 19.0953 29.8711C19.1786 29.6237 19.2893 29.4128 19.4273 29.2383C19.5654 29.0612 19.7346 28.9271 19.9352 28.8359C20.1357 28.7422 20.3687 28.6953 20.6344 28.6953C20.9 28.6953 21.1357 28.7474 21.3414 28.8516C21.5471 28.9531 21.719 29.099 21.857 29.2891C21.9977 29.4792 22.1044 29.707 22.1773 29.9727C22.2503 30.2357 22.2867 30.5286 22.2867 30.8516ZM21.5602 30.9336V30.8516C21.5602 30.6406 21.5406 30.4427 21.5016 30.2578C21.4625 30.0703 21.4 29.9062 21.3141 29.7656C21.2281 29.6224 21.1148 29.5104 20.9742 29.4297C20.8336 29.3464 20.6604 29.3047 20.4547 29.3047C20.2724 29.3047 20.1135 29.3359 19.9781 29.3984C19.8453 29.4609 19.732 29.5456 19.6383 29.6523C19.5445 29.7565 19.4677 29.8763 19.4078 30.0117C19.3505 30.1445 19.3076 30.2826 19.2789 30.4258V31.3672C19.3206 31.5495 19.3883 31.7253 19.482 31.8945C19.5784 32.0612 19.706 32.1979 19.8648 32.3047C20.0263 32.4115 20.2255 32.4648 20.4625 32.4648C20.6578 32.4648 20.8245 32.4258 20.9625 32.3477C21.1031 32.2669 21.2164 32.1562 21.3023 32.0156C21.3909 31.875 21.456 31.7122 21.4977 31.5273C21.5393 31.3424 21.5602 31.1445 21.5602 30.9336ZM24.1859 28.7734V33H23.4594V28.7734H24.1859ZM23.4047 27.6523C23.4047 27.5352 23.4398 27.4362 23.5102 27.3555C23.5831 27.2747 23.6898 27.2344 23.8305 27.2344C23.9685 27.2344 24.074 27.2747 24.1469 27.3555C24.2224 27.4362 24.2602 27.5352 24.2602 27.6523C24.2602 27.7643 24.2224 27.8607 24.1469 27.9414C24.074 28.0195 23.9685 28.0586 23.8305 28.0586C23.6898 28.0586 23.5831 28.0195 23.5102 27.9414C23.4398 27.8607 23.4047 27.7643 23.4047 27.6523ZM27.3156 28.7734V29.3281H25.0305V28.7734H27.3156ZM25.8039 27.7461H26.5266V31.9531C26.5266 32.0964 26.5487 32.2044 26.593 32.2773C26.6372 32.3503 26.6945 32.3984 26.7648 32.4219C26.8352 32.4453 26.9107 32.457 26.9914 32.457C27.0513 32.457 27.1138 32.4518 27.1789 32.4414C27.2466 32.4284 27.2974 32.418 27.3313 32.4102L27.3352 33C27.2779 33.0182 27.2023 33.0352 27.1086 33.0508C27.0174 33.069 26.9068 33.0781 26.7766 33.0781C26.5995 33.0781 26.4367 33.043 26.2883 32.9727C26.1398 32.9023 26.0214 32.7852 25.9328 32.6211C25.8469 32.4544 25.8039 32.2305 25.8039 31.9492V27.7461ZM30.9492 32.0234V28.7734H31.6758V33H30.9844L30.9492 32.0234ZM31.0859 31.1328L31.3867 31.125C31.3867 31.4062 31.3568 31.6667 31.2969 31.9062C31.2396 32.1432 31.1458 32.349 31.0156 32.5234C30.8854 32.6979 30.7148 32.8346 30.5039 32.9336C30.293 33.0299 30.0365 33.0781 29.7344 33.0781C29.5286 33.0781 29.3398 33.0482 29.168 32.9883C28.9987 32.9284 28.8529 32.8359 28.7305 32.7109C28.6081 32.5859 28.513 32.4232 28.4453 32.2227C28.3802 32.0221 28.3477 31.7812 28.3477 31.5V28.7734H29.0703V31.5078C29.0703 31.6979 29.0911 31.8555 29.1328 31.9805C29.1771 32.1029 29.2357 32.2005 29.3086 32.2734C29.3841 32.3438 29.4674 32.3932 29.5586 32.4219C29.6523 32.4505 29.7487 32.4648 29.8477 32.4648C30.1549 32.4648 30.3984 32.4062 30.5781 32.2891C30.7578 32.1693 30.8867 32.0091 30.9648 31.8086C31.0456 31.6055 31.0859 31.3802 31.0859 31.1328ZM35.4695 32.2773V30.1016C35.4695 29.9349 35.4357 29.7904 35.368 29.668C35.3029 29.543 35.2039 29.4466 35.0711 29.3789C34.9383 29.3112 34.7742 29.2773 34.5789 29.2773C34.3966 29.2773 34.2365 29.3086 34.0984 29.3711C33.963 29.4336 33.8563 29.5156 33.7781 29.6172C33.7026 29.7188 33.6648 29.8281 33.6648 29.9453H32.9422C32.9422 29.7943 32.9813 29.6445 33.0594 29.4961C33.1375 29.3477 33.2495 29.2135 33.3953 29.0938C33.5438 28.9714 33.7208 28.875 33.9266 28.8047C34.1349 28.7318 34.3667 28.6953 34.6219 28.6953C34.9292 28.6953 35.2 28.7474 35.4344 28.8516C35.6714 28.9557 35.8563 29.1133 35.9891 29.3242C36.1245 29.5326 36.1922 29.7943 36.1922 30.1094V32.0781C36.1922 32.2188 36.2039 32.3685 36.2273 32.5273C36.2534 32.6862 36.2911 32.8229 36.3406 32.9375V33H35.5867C35.5503 32.9167 35.5216 32.806 35.5008 32.668C35.4799 32.5273 35.4695 32.3971 35.4695 32.2773ZM35.5945 30.4375L35.6023 30.9453H34.8719C34.6661 30.9453 34.4826 30.9622 34.3211 30.9961C34.1596 31.0273 34.0242 31.0755 33.9148 31.1406C33.8055 31.2057 33.7221 31.2878 33.6648 31.3867C33.6076 31.4831 33.5789 31.5964 33.5789 31.7266C33.5789 31.8594 33.6089 31.9805 33.6688 32.0898C33.7286 32.1992 33.8185 32.2865 33.9383 32.3516C34.0607 32.4141 34.2104 32.4453 34.3875 32.4453C34.6089 32.4453 34.8042 32.3984 34.9734 32.3047C35.1427 32.2109 35.2768 32.0964 35.3758 31.9609C35.4773 31.8255 35.532 31.694 35.5398 31.5664L35.8484 31.9141C35.8302 32.0234 35.7807 32.1445 35.7 32.2773C35.6193 32.4102 35.5112 32.5378 35.3758 32.6602C35.243 32.7799 35.0841 32.8802 34.8992 32.9609C34.7169 33.0391 34.5112 33.0781 34.282 33.0781C33.9956 33.0781 33.7443 33.0221 33.5281 32.9102C33.3146 32.7982 33.1479 32.6484 33.0281 32.4609C32.9109 32.2708 32.8523 32.0586 32.8523 31.8242C32.8523 31.5977 32.8966 31.3984 32.9852 31.2266C33.0737 31.0521 33.2013 30.9076 33.368 30.793C33.5346 30.6758 33.7352 30.5872 33.9695 30.5273C34.2039 30.4674 34.4656 30.4375 34.7547 30.4375H35.5945ZM38.3141 27V33H37.5875V27H38.3141ZM44.3508 32.2773V30.1016C44.3508 29.9349 44.3169 29.7904 44.2492 29.668C44.1841 29.543 44.0852 29.4466 43.9523 29.3789C43.8195 29.3112 43.6555 29.2773 43.4602 29.2773C43.2779 29.2773 43.1177 29.3086 42.9797 29.3711C42.8443 29.4336 42.7375 29.5156 42.6594 29.6172C42.5839 29.7188 42.5461 29.8281 42.5461 29.9453H41.8234C41.8234 29.7943 41.8625 29.6445 41.9406 29.4961C42.0187 29.3477 42.1307 29.2135 42.2766 29.0938C42.425 28.9714 42.6021 28.875 42.8078 28.8047C43.0161 28.7318 43.2479 28.6953 43.5031 28.6953C43.8104 28.6953 44.0812 28.7474 44.3156 28.8516C44.5526 28.9557 44.7375 29.1133 44.8703 29.3242C45.0057 29.5326 45.0734 29.7943 45.0734 30.1094V32.0781C45.0734 32.2188 45.0852 32.3685 45.1086 32.5273C45.1346 32.6862 45.1724 32.8229 45.2219 32.9375V33H44.468C44.4315 32.9167 44.4029 32.806 44.382 32.668C44.3612 32.5273 44.3508 32.3971 44.3508 32.2773ZM44.4758 30.4375L44.4836 30.9453H43.7531C43.5474 30.9453 43.3638 30.9622 43.2023 30.9961C43.0409 31.0273 42.9055 31.0755 42.7961 31.1406C42.6867 31.2057 42.6034 31.2878 42.5461 31.3867C42.4888 31.4831 42.4602 31.5964 42.4602 31.7266C42.4602 31.8594 42.4901 31.9805 42.55 32.0898C42.6099 32.1992 42.6997 32.2865 42.8195 32.3516C42.9419 32.4141 43.0917 32.4453 43.2687 32.4453C43.4901 32.4453 43.6854 32.3984 43.8547 32.3047C44.024 32.2109 44.1581 32.0964 44.257 31.9609C44.3586 31.8255 44.4133 31.694 44.4211 31.5664L44.7297 31.9141C44.7115 32.0234 44.662 32.1445 44.5812 32.2773C44.5005 32.4102 44.3924 32.5378 44.257 32.6602C44.1242 32.7799 43.9654 32.8802 43.7805 32.9609C43.5982 33.0391 43.3924 33.0781 43.1633 33.0781C42.8768 33.0781 42.6255 33.0221 42.4094 32.9102C42.1958 32.7982 42.0292 32.6484 41.9094 32.4609C41.7922 32.2708 41.7336 32.0586 41.7336 31.8242C41.7336 31.5977 41.7779 31.3984 41.8664 31.2266C41.9549 31.0521 42.0826 30.9076 42.2492 30.793C42.4159 30.6758 42.6164 30.5872 42.8508 30.5273C43.0852 30.4674 43.3469 30.4375 43.6359 30.4375H44.4758ZM50.2859 32.4844C50.4578 32.4844 50.6167 32.4492 50.7625 32.3789C50.9083 32.3086 51.0281 32.2122 51.1219 32.0898C51.2156 31.9648 51.269 31.8229 51.282 31.6641H51.9695C51.9565 31.9141 51.8719 32.1471 51.7156 32.3633C51.562 32.5768 51.3602 32.75 51.1102 32.8828C50.8602 33.013 50.5854 33.0781 50.2859 33.0781C49.9682 33.0781 49.6909 33.0221 49.4539 32.9102C49.2195 32.7982 49.0242 32.6445 48.868 32.4492C48.7143 32.2539 48.5984 32.0299 48.5203 31.7773C48.4448 31.5221 48.407 31.2526 48.407 30.9688V30.8047C48.407 30.5208 48.4448 30.2526 48.5203 30C48.5984 29.7448 48.7143 29.5195 48.868 29.3242C49.0242 29.1289 49.2195 28.9753 49.4539 28.8633C49.6909 28.7513 49.9682 28.6953 50.2859 28.6953C50.6167 28.6953 50.9057 28.763 51.1531 28.8984C51.4005 29.0312 51.5945 29.2135 51.7352 29.4453C51.8784 29.6745 51.9565 29.9349 51.9695 30.2266H51.282C51.269 30.0521 51.2195 29.8945 51.1336 29.7539C51.0503 29.6133 50.9357 29.5013 50.7898 29.418C50.6466 29.332 50.4786 29.2891 50.2859 29.2891C50.0646 29.2891 49.8784 29.3333 49.7273 29.4219C49.5789 29.5078 49.4604 29.625 49.3719 29.7734C49.2859 29.9193 49.2234 30.082 49.1844 30.2617C49.1479 30.4388 49.1297 30.6198 49.1297 30.8047V30.9688C49.1297 31.1536 49.1479 31.3359 49.1844 31.5156C49.2208 31.6953 49.282 31.8581 49.368 32.0039C49.4565 32.1497 49.575 32.2669 49.7234 32.3555C49.8745 32.4414 50.062 32.4844 50.2859 32.4844ZM55.4742 32.2773V30.1016C55.4742 29.9349 55.4404 29.7904 55.3727 29.668C55.3076 29.543 55.2086 29.4466 55.0758 29.3789C54.943 29.3112 54.7789 29.2773 54.5836 29.2773C54.4013 29.2773 54.2411 29.3086 54.1031 29.3711C53.9677 29.4336 53.8609 29.5156 53.7828 29.6172C53.7073 29.7188 53.6695 29.8281 53.6695 29.9453H52.9469C52.9469 29.7943 52.9859 29.6445 53.0641 29.4961C53.1422 29.3477 53.2542 29.2135 53.4 29.0938C53.5484 28.9714 53.7255 28.875 53.9313 28.8047C54.1396 28.7318 54.3714 28.6953 54.6266 28.6953C54.9339 28.6953 55.2047 28.7474 55.4391 28.8516C55.676 28.9557 55.8609 29.1133 55.9938 29.3242C56.1292 29.5326 56.1969 29.7943 56.1969 30.1094V32.0781C56.1969 32.2188 56.2086 32.3685 56.232 32.5273C56.2581 32.6862 56.2958 32.8229 56.3453 32.9375V33H55.5914C55.5549 32.9167 55.5263 32.806 55.5055 32.668C55.4846 32.5273 55.4742 32.3971 55.4742 32.2773ZM55.5992 30.4375L55.607 30.9453H54.8766C54.6708 30.9453 54.4872 30.9622 54.3258 30.9961C54.1643 31.0273 54.0289 31.0755 53.9195 31.1406C53.8102 31.2057 53.7268 31.2878 53.6695 31.3867C53.6122 31.4831 53.5836 31.5964 53.5836 31.7266C53.5836 31.8594 53.6135 31.9805 53.6734 32.0898C53.7333 32.1992 53.8232 32.2865 53.943 32.3516C54.0654 32.4141 54.2151 32.4453 54.3922 32.4453C54.6135 32.4453 54.8089 32.3984 54.9781 32.3047C55.1474 32.2109 55.2815 32.0964 55.3805 31.9609C55.482 31.8255 55.5367 31.694 55.5445 31.5664L55.8531 31.9141C55.8349 32.0234 55.7854 32.1445 55.7047 32.2773C55.624 32.4102 55.5159 32.5378 55.3805 32.6602C55.2477 32.7799 55.0888 32.8802 54.9039 32.9609C54.7216 33.0391 54.5159 33.0781 54.2867 33.0781C54.0003 33.0781 53.749 33.0221 53.5328 32.9102C53.3193 32.7982 53.1526 32.6484 53.0328 32.4609C52.9156 32.2708 52.857 32.0586 52.857 31.8242C52.857 31.5977 52.9013 31.3984 52.9898 31.2266C53.0784 31.0521 53.206 30.9076 53.3727 30.793C53.5393 30.6758 53.7398 30.5872 53.9742 30.5273C54.2086 30.4674 54.4703 30.4375 54.7594 30.4375H55.5992ZM60.1195 32.0234V28.7734H60.8461V33H60.1547L60.1195 32.0234ZM60.2562 31.1328L60.557 31.125C60.557 31.4062 60.5271 31.6667 60.4672 31.9062C60.4099 32.1432 60.3161 32.349 60.1859 32.5234C60.0557 32.6979 59.8852 32.8346 59.6742 32.9336C59.4633 33.0299 59.2068 33.0781 58.9047 33.0781C58.699 33.0781 58.5102 33.0482 58.3383 32.9883C58.169 32.9284 58.0232 32.8359 57.9008 32.7109C57.7784 32.5859 57.6833 32.4232 57.6156 32.2227C57.5505 32.0221 57.518 31.7812 57.518 31.5V28.7734H58.2406V31.5078C58.2406 31.6979 58.2615 31.8555 58.3031 31.9805C58.3474 32.1029 58.406 32.2005 58.4789 32.2734C58.5544 32.3438 58.6378 32.3932 58.7289 32.4219C58.8227 32.4505 58.919 32.4648 59.018 32.4648C59.3253 32.4648 59.5687 32.4062 59.7484 32.2891C59.9281 32.1693 60.057 32.0091 60.1352 31.8086C60.2159 31.6055 60.2562 31.3802 60.2562 31.1328ZM64.6086 31.8789C64.6086 31.7747 64.5852 31.6784 64.5383 31.5898C64.494 31.4987 64.4016 31.4167 64.2609 31.3438C64.1229 31.2682 63.9146 31.2031 63.6359 31.1484C63.4016 31.099 63.1893 31.0404 62.9992 30.9727C62.8117 30.9049 62.6516 30.8229 62.5187 30.7266C62.3885 30.6302 62.2883 30.5169 62.218 30.3867C62.1477 30.2565 62.1125 30.1042 62.1125 29.9297C62.1125 29.763 62.149 29.6055 62.2219 29.457C62.2974 29.3086 62.4029 29.1771 62.5383 29.0625C62.6763 28.9479 62.8417 28.8581 63.0344 28.793C63.2271 28.7279 63.4419 28.6953 63.6789 28.6953C64.0174 28.6953 64.3065 28.7552 64.5461 28.875C64.7857 28.9948 64.9693 29.1549 65.0969 29.3555C65.2245 29.5534 65.2883 29.7734 65.2883 30.0156H64.5656C64.5656 29.8984 64.5305 29.7852 64.4602 29.6758C64.3924 29.5638 64.2922 29.4714 64.1594 29.3984C64.0292 29.3255 63.869 29.2891 63.6789 29.2891C63.4784 29.2891 63.3156 29.3203 63.1906 29.3828C63.0682 29.4427 62.9784 29.5195 62.9211 29.6133C62.8664 29.707 62.8391 29.806 62.8391 29.9102C62.8391 29.9883 62.8521 30.0586 62.8781 30.1211C62.9068 30.181 62.9562 30.237 63.0266 30.2891C63.0969 30.3385 63.1958 30.3854 63.3234 30.4297C63.451 30.474 63.6138 30.5182 63.8117 30.5625C64.1581 30.6406 64.4432 30.7344 64.6672 30.8438C64.8911 30.9531 65.0578 31.0872 65.1672 31.2461C65.2766 31.4049 65.3312 31.5977 65.3312 31.8242C65.3312 32.0091 65.2922 32.1784 65.2141 32.332C65.1385 32.4857 65.0279 32.6185 64.882 32.7305C64.7388 32.8398 64.5669 32.9258 64.3664 32.9883C64.1685 33.0482 63.9458 33.0781 63.6984 33.0781C63.326 33.0781 63.0109 33.0117 62.7531 32.8789C62.4953 32.7461 62.3 32.5742 62.1672 32.3633C62.0344 32.1523 61.968 31.9297 61.968 31.6953H62.6945C62.7049 31.8932 62.7622 32.0508 62.8664 32.168C62.9706 32.2826 63.0982 32.3646 63.2492 32.4141C63.4003 32.4609 63.55 32.4844 63.6984 32.4844C63.8964 32.4844 64.0617 32.4583 64.1945 32.4062C64.3299 32.3542 64.4328 32.2826 64.5031 32.1914C64.5734 32.1003 64.6086 31.9961 64.6086 31.8789ZM68.9727 32.2773V30.1016C68.9727 29.9349 68.9388 29.7904 68.8711 29.668C68.806 29.543 68.707 29.4466 68.5742 29.3789C68.4414 29.3112 68.2773 29.2773 68.082 29.2773C67.8997 29.2773 67.7396 29.3086 67.6016 29.3711C67.4661 29.4336 67.3594 29.5156 67.2812 29.6172C67.2057 29.7188 67.168 29.8281 67.168 29.9453H66.4453C66.4453 29.7943 66.4844 29.6445 66.5625 29.4961C66.6406 29.3477 66.7526 29.2135 66.8984 29.0938C67.0469 28.9714 67.224 28.875 67.4297 28.8047C67.638 28.7318 67.8698 28.6953 68.125 28.6953C68.4323 28.6953 68.7031 28.7474 68.9375 28.8516C69.1745 28.9557 69.3594 29.1133 69.4922 29.3242C69.6276 29.5326 69.6953 29.7943 69.6953 30.1094V32.0781C69.6953 32.2188 69.707 32.3685 69.7305 32.5273C69.7565 32.6862 69.7943 32.8229 69.8438 32.9375V33H69.0898C69.0534 32.9167 69.0247 32.806 69.0039 32.668C68.9831 32.5273 68.9727 32.3971 68.9727 32.2773ZM69.0977 30.4375L69.1055 30.9453H68.375C68.1693 30.9453 67.9857 30.9622 67.8242 30.9961C67.6628 31.0273 67.5273 31.0755 67.418 31.1406C67.3086 31.2057 67.2253 31.2878 67.168 31.3867C67.1107 31.4831 67.082 31.5964 67.082 31.7266C67.082 31.8594 67.112 31.9805 67.1719 32.0898C67.2318 32.1992 67.3216 32.2865 67.4414 32.3516C67.5638 32.4141 67.7135 32.4453 67.8906 32.4453C68.112 32.4453 68.3073 32.3984 68.4766 32.3047C68.6458 32.2109 68.7799 32.0964 68.8789 31.9609C68.9805 31.8255 69.0352 31.694 69.043 31.5664L69.3516 31.9141C69.3333 32.0234 69.2839 32.1445 69.2031 32.2773C69.1224 32.4102 69.0143 32.5378 68.8789 32.6602C68.7461 32.7799 68.5872 32.8802 68.4023 32.9609C68.2201 33.0391 68.0143 33.0781 67.7852 33.0781C67.4987 33.0781 67.2474 33.0221 67.0312 32.9102C66.8177 32.7982 66.651 32.6484 66.5312 32.4609C66.4141 32.2708 66.3555 32.0586 66.3555 31.8242C66.3555 31.5977 66.3997 31.3984 66.4883 31.2266C66.5768 31.0521 66.7044 30.9076 66.8711 30.793C67.0378 30.6758 67.2383 30.5872 67.4727 30.5273C67.707 30.4674 67.9688 30.4375 68.2578 30.4375H69.0977ZM75.8805 32.1797V27H76.607V33H75.943L75.8805 32.1797ZM73.0367 30.9336V30.8516C73.0367 30.5286 73.0758 30.2357 73.1539 29.9727C73.2346 29.707 73.3479 29.4792 73.4938 29.2891C73.6422 29.099 73.818 28.9531 74.0211 28.8516C74.2268 28.7474 74.456 28.6953 74.7086 28.6953C74.9742 28.6953 75.206 28.7422 75.4039 28.8359C75.6044 28.9271 75.7737 29.0612 75.9117 29.2383C76.0523 29.4128 76.163 29.6237 76.2438 29.8711C76.3245 30.1185 76.3805 30.3984 76.4117 30.7109V31.0703C76.3831 31.3802 76.3271 31.6589 76.2438 31.9062C76.163 32.1536 76.0523 32.3646 75.9117 32.5391C75.7737 32.7135 75.6044 32.8477 75.4039 32.9414C75.2034 33.0326 74.969 33.0781 74.7008 33.0781C74.4534 33.0781 74.2268 33.0247 74.0211 32.918C73.818 32.8112 73.6422 32.6615 73.4938 32.4688C73.3479 32.276 73.2346 32.0495 73.1539 31.7891C73.0758 31.526 73.0367 31.2409 73.0367 30.9336ZM73.7633 30.8516V30.9336C73.7633 31.1445 73.7841 31.3424 73.8258 31.5273C73.8701 31.7122 73.9378 31.875 74.0289 32.0156C74.1201 32.1562 74.2359 32.2669 74.3766 32.3477C74.5172 32.4258 74.6852 32.4648 74.8805 32.4648C75.1201 32.4648 75.3167 32.4141 75.4703 32.3125C75.6266 32.2109 75.7516 32.0768 75.8453 31.9102C75.9391 31.7435 76.012 31.5625 76.0641 31.3672V30.4258C76.0328 30.2826 75.9872 30.1445 75.9273 30.0117C75.8701 29.8763 75.7945 29.7565 75.7008 29.6523C75.6096 29.5456 75.4964 29.4609 75.3609 29.3984C75.2281 29.3359 75.0706 29.3047 74.8883 29.3047C74.6904 29.3047 74.5198 29.3464 74.3766 29.4297C74.2359 29.5104 74.1201 29.6224 74.0289 29.7656C73.9378 29.9062 73.8701 30.0703 73.8258 30.2578C73.7841 30.4427 73.7633 30.6406 73.7633 30.8516ZM79.6859 33.0781C79.3917 33.0781 79.1247 33.0286 78.8852 32.9297C78.6482 32.8281 78.4437 32.6862 78.2719 32.5039C78.1026 32.3216 77.9724 32.1055 77.8812 31.8555C77.7901 31.6055 77.7445 31.332 77.7445 31.0352V30.8711C77.7445 30.5273 77.7953 30.2214 77.8969 29.9531C77.9984 29.6823 78.1365 29.4531 78.3109 29.2656C78.4854 29.0781 78.6833 28.9362 78.9047 28.8398C79.126 28.7435 79.3552 28.6953 79.5922 28.6953C79.8943 28.6953 80.1547 28.7474 80.3734 28.8516C80.5948 28.9557 80.7758 29.1016 80.9164 29.2891C81.057 29.474 81.1612 29.6927 81.2289 29.9453C81.2966 30.1953 81.3305 30.4688 81.3305 30.7656V31.0898H78.1742V30.5H80.6078V30.4453C80.5974 30.2578 80.5583 30.0755 80.4906 29.8984C80.4255 29.7214 80.3214 29.5755 80.1781 29.4609C80.0349 29.3464 79.8396 29.2891 79.5922 29.2891C79.4281 29.2891 79.2771 29.3242 79.1391 29.3945C79.001 29.4622 78.8826 29.5638 78.7836 29.6992C78.6846 29.8346 78.6078 30 78.5531 30.1953C78.4984 30.3906 78.4711 30.6159 78.4711 30.8711V31.0352C78.4711 31.2357 78.4984 31.4245 78.5531 31.6016C78.6104 31.776 78.6924 31.9297 78.7992 32.0625C78.9086 32.1953 79.0401 32.2995 79.1937 32.375C79.35 32.4505 79.5271 32.4883 79.725 32.4883C79.9802 32.4883 80.1964 32.4362 80.3734 32.332C80.5505 32.2279 80.7055 32.0885 80.8383 31.9141L81.2758 32.2617C81.1846 32.3997 81.0687 32.5312 80.9281 32.6562C80.7875 32.7812 80.6143 32.8828 80.4086 32.9609C80.2055 33.0391 79.9646 33.0781 79.6859 33.0781ZM12.1367 41.0234V37.7734H12.8633V42H12.1719L12.1367 41.0234ZM12.2734 40.1328L12.5742 40.125C12.5742 40.4062 12.5443 40.6667 12.4844 40.9062C12.4271 41.1432 12.3333 41.349 12.2031 41.5234C12.0729 41.6979 11.9023 41.8346 11.6914 41.9336C11.4805 42.0299 11.224 42.0781 10.9219 42.0781C10.7161 42.0781 10.5273 42.0482 10.3555 41.9883C10.1862 41.9284 10.0404 41.8359 9.91797 41.7109C9.79557 41.5859 9.70052 41.4232 9.63281 41.2227C9.56771 41.0221 9.53516 40.7812 9.53516 40.5V37.7734H10.2578V40.5078C10.2578 40.6979 10.2786 40.8555 10.3203 40.9805C10.3646 41.1029 10.4232 41.2005 10.4961 41.2734C10.5716 41.3438 10.6549 41.3932 10.7461 41.4219C10.8398 41.4505 10.9362 41.4648 11.0352 41.4648C11.3424 41.4648 11.5859 41.4062 11.7656 41.2891C11.9453 41.1693 12.0742 41.0091 12.1523 40.8086C12.2331 40.6055 12.2734 40.3802 12.2734 40.1328ZM14.8875 38.6758V42H14.1648V37.7734H14.8484L14.8875 38.6758ZM14.7156 39.7266L14.4148 39.7148C14.4174 39.4258 14.4604 39.1589 14.5437 38.9141C14.6271 38.6667 14.7443 38.4518 14.8953 38.2695C15.0464 38.0872 15.226 37.9466 15.4344 37.8477C15.6453 37.7461 15.8784 37.6953 16.1336 37.6953C16.3419 37.6953 16.5294 37.724 16.6961 37.7812C16.8628 37.8359 17.0047 37.9245 17.1219 38.0469C17.2417 38.1693 17.3328 38.3281 17.3953 38.5234C17.4578 38.7161 17.4891 38.9518 17.4891 39.2305V42H16.7625V39.2227C16.7625 39.0013 16.7299 38.8242 16.6648 38.6914C16.5997 38.556 16.5047 38.4583 16.3797 38.3984C16.2547 38.3359 16.101 38.3047 15.9187 38.3047C15.7391 38.3047 15.575 38.3424 15.4266 38.418C15.2807 38.4935 15.1544 38.5977 15.0477 38.7305C14.9435 38.8633 14.8615 39.0156 14.8016 39.1875C14.7443 39.3568 14.7156 39.5365 14.7156 39.7266ZM21.2789 41.2773V39.1016C21.2789 38.9349 21.2451 38.7904 21.1773 38.668C21.1122 38.543 21.0133 38.4466 20.8805 38.3789C20.7477 38.3112 20.5836 38.2773 20.3883 38.2773C20.206 38.2773 20.0458 38.3086 19.9078 38.3711C19.7724 38.4336 19.6656 38.5156 19.5875 38.6172C19.512 38.7188 19.4742 38.8281 19.4742 38.9453H18.7516C18.7516 38.7943 18.7906 38.6445 18.8687 38.4961C18.9469 38.3477 19.0589 38.2135 19.2047 38.0938C19.3531 37.9714 19.5302 37.875 19.7359 37.8047C19.9443 37.7318 20.176 37.6953 20.4312 37.6953C20.7385 37.6953 21.0094 37.7474 21.2437 37.8516C21.4807 37.9557 21.6656 38.1133 21.7984 38.3242C21.9339 38.5326 22.0016 38.7943 22.0016 39.1094V41.0781C22.0016 41.2188 22.0133 41.3685 22.0367 41.5273C22.0628 41.6862 22.1005 41.8229 22.15 41.9375V42H21.3961C21.3596 41.9167 21.331 41.806 21.3102 41.668C21.2893 41.5273 21.2789 41.3971 21.2789 41.2773ZM21.4039 39.4375L21.4117 39.9453H20.6812C20.4755 39.9453 20.2919 39.9622 20.1305 39.9961C19.969 40.0273 19.8336 40.0755 19.7242 40.1406C19.6148 40.2057 19.5315 40.2878 19.4742 40.3867C19.4169 40.4831 19.3883 40.5964 19.3883 40.7266C19.3883 40.8594 19.4182 40.9805 19.4781 41.0898C19.538 41.1992 19.6279 41.2865 19.7477 41.3516C19.8701 41.4141 20.0198 41.4453 20.1969 41.4453C20.4182 41.4453 20.6135 41.3984 20.7828 41.3047C20.9521 41.2109 21.0862 41.0964 21.1852 40.9609C21.2867 40.8255 21.3414 40.694 21.3492 40.5664L21.6578 40.9141C21.6396 41.0234 21.5901 41.1445 21.5094 41.2773C21.4286 41.4102 21.3206 41.5378 21.1852 41.6602C21.0523 41.7799 20.8935 41.8802 20.7086 41.9609C20.5263 42.0391 20.3206 42.0781 20.0914 42.0781C19.8049 42.0781 19.5536 42.0221 19.3375 41.9102C19.124 41.7982 18.9573 41.6484 18.8375 41.4609C18.7203 41.2708 18.6617 41.0586 18.6617 40.8242C18.6617 40.5977 18.706 40.3984 18.7945 40.2266C18.8831 40.0521 19.0107 39.9076 19.1773 39.793C19.344 39.6758 19.5445 39.5872 19.7789 39.5273C20.0133 39.4674 20.275 39.4375 20.5641 39.4375H21.4039ZM28.0148 41.2773V39.1016C28.0148 38.9349 27.981 38.7904 27.9133 38.668C27.8482 38.543 27.7492 38.4466 27.6164 38.3789C27.4836 38.3112 27.3195 38.2773 27.1242 38.2773C26.9419 38.2773 26.7818 38.3086 26.6438 38.3711C26.5083 38.4336 26.4016 38.5156 26.3234 38.6172C26.2479 38.7188 26.2102 38.8281 26.2102 38.9453H25.4875C25.4875 38.7943 25.5266 38.6445 25.6047 38.4961C25.6828 38.3477 25.7948 38.2135 25.9406 38.0938C26.0891 37.9714 26.2661 37.875 26.4719 37.8047C26.6802 37.7318 26.912 37.6953 27.1672 37.6953C27.4745 37.6953 27.7453 37.7474 27.9797 37.8516C28.2167 37.9557 28.4016 38.1133 28.5344 38.3242C28.6698 38.5326 28.7375 38.7943 28.7375 39.1094V41.0781C28.7375 41.2188 28.7492 41.3685 28.7727 41.5273C28.7987 41.6862 28.8365 41.8229 28.8859 41.9375V42H28.132C28.0956 41.9167 28.0669 41.806 28.0461 41.668C28.0253 41.5273 28.0148 41.3971 28.0148 41.2773ZM28.1398 39.4375L28.1477 39.9453H27.4172C27.2115 39.9453 27.0279 39.9622 26.8664 39.9961C26.7049 40.0273 26.5695 40.0755 26.4602 40.1406C26.3508 40.2057 26.2674 40.2878 26.2102 40.3867C26.1529 40.4831 26.1242 40.5964 26.1242 40.7266C26.1242 40.8594 26.1542 40.9805 26.2141 41.0898C26.274 41.1992 26.3638 41.2865 26.4836 41.3516C26.606 41.4141 26.7557 41.4453 26.9328 41.4453C27.1542 41.4453 27.3495 41.3984 27.5188 41.3047C27.688 41.2109 27.8221 41.0964 27.9211 40.9609C28.0227 40.8255 28.0773 40.694 28.0852 40.5664L28.3938 40.9141C28.3755 41.0234 28.326 41.1445 28.2453 41.2773C28.1646 41.4102 28.0565 41.5378 27.9211 41.6602C27.7883 41.7799 27.6294 41.8802 27.4445 41.9609C27.2622 42.0391 27.0565 42.0781 26.8273 42.0781C26.5409 42.0781 26.2896 42.0221 26.0734 41.9102C25.8599 41.7982 25.6932 41.6484 25.5734 41.4609C25.4563 41.2708 25.3977 41.0586 25.3977 40.8242C25.3977 40.5977 25.4419 40.3984 25.5305 40.2266C25.619 40.0521 25.7466 39.9076 25.9133 39.793C26.0799 39.6758 26.2805 39.5872 26.5148 39.5273C26.7492 39.4674 27.0109 39.4375 27.3 39.4375H28.1398ZM31.2969 41.3477L32.4531 37.7734H33.1914L31.6719 42H31.1875L31.2969 41.3477ZM30.332 37.7734L31.5234 41.3672L31.6055 42H31.1211L29.5898 37.7734H30.332ZM35.7859 42.0781C35.4917 42.0781 35.2247 42.0286 34.9852 41.9297C34.7482 41.8281 34.5438 41.6862 34.3719 41.5039C34.2026 41.3216 34.0724 41.1055 33.9813 40.8555C33.8901 40.6055 33.8445 40.332 33.8445 40.0352V39.8711C33.8445 39.5273 33.8953 39.2214 33.9969 38.9531C34.0984 38.6823 34.2365 38.4531 34.4109 38.2656C34.5854 38.0781 34.7833 37.9362 35.0047 37.8398C35.226 37.7435 35.4552 37.6953 35.6922 37.6953C35.9943 37.6953 36.2547 37.7474 36.4734 37.8516C36.6948 37.9557 36.8758 38.1016 37.0164 38.2891C37.157 38.474 37.2612 38.6927 37.3289 38.9453C37.3966 39.1953 37.4305 39.4688 37.4305 39.7656V40.0898H34.2742V39.5H36.7078V39.4453C36.6974 39.2578 36.6583 39.0755 36.5906 38.8984C36.5255 38.7214 36.4214 38.5755 36.2781 38.4609C36.1349 38.3464 35.9396 38.2891 35.6922 38.2891C35.5281 38.2891 35.3771 38.3242 35.2391 38.3945C35.101 38.4622 34.9826 38.5638 34.8836 38.6992C34.7846 38.8346 34.7078 39 34.6531 39.1953C34.5984 39.3906 34.5711 39.6159 34.5711 39.8711V40.0352C34.5711 40.2357 34.5984 40.4245 34.6531 40.6016C34.7104 40.776 34.7924 40.9297 34.8992 41.0625C35.0086 41.1953 35.1401 41.2995 35.2938 41.375C35.45 41.4505 35.6271 41.4883 35.825 41.4883C36.0802 41.4883 36.2964 41.4362 36.4734 41.332C36.6505 41.2279 36.8055 41.0885 36.9383 40.9141L37.3758 41.2617C37.2846 41.3997 37.1688 41.5312 37.0281 41.6562C36.8875 41.7812 36.7143 41.8828 36.5086 41.9609C36.3055 42.0391 36.0646 42.0781 35.7859 42.0781ZM39.1969 38.4375V42H38.4742V37.7734H39.1773L39.1969 38.4375ZM40.5172 37.75L40.5133 38.4219C40.4534 38.4089 40.3961 38.401 40.3414 38.3984C40.2893 38.3932 40.2294 38.3906 40.1617 38.3906C39.9951 38.3906 39.8479 38.4167 39.7203 38.4688C39.5927 38.5208 39.4846 38.5938 39.3961 38.6875C39.3076 38.7812 39.2372 38.8932 39.1852 39.0234C39.1357 39.151 39.1031 39.2917 39.0875 39.4453L38.8844 39.5625C38.8844 39.3073 38.9091 39.0677 38.9586 38.8438C39.0107 38.6198 39.0901 38.4219 39.1969 38.25C39.3036 38.0755 39.4391 37.9401 39.6031 37.8438C39.7698 37.7448 39.9677 37.6953 40.1969 37.6953C40.249 37.6953 40.3089 37.7018 40.3766 37.7148C40.4443 37.7253 40.4911 37.737 40.5172 37.75ZM42.1664 37.7734V42H41.4438V37.7734H42.1664ZM41.4203 37.1562L42.1781 36.0078H43.0492L42.0023 37.1562H41.4203ZM46.0617 41.2773V39.1016C46.0617 38.9349 46.0279 38.7904 45.9602 38.668C45.8951 38.543 45.7961 38.4466 45.6633 38.3789C45.5305 38.3112 45.3664 38.2773 45.1711 38.2773C44.9888 38.2773 44.8286 38.3086 44.6906 38.3711C44.5552 38.4336 44.4484 38.5156 44.3703 38.6172C44.2948 38.7188 44.257 38.8281 44.257 38.9453H43.5344C43.5344 38.7943 43.5734 38.6445 43.6516 38.4961C43.7297 38.3477 43.8417 38.2135 43.9875 38.0938C44.1359 37.9714 44.313 37.875 44.5187 37.8047C44.7271 37.7318 44.9589 37.6953 45.2141 37.6953C45.5214 37.6953 45.7922 37.7474 46.0266 37.8516C46.2635 37.9557 46.4484 38.1133 46.5812 38.3242C46.7167 38.5326 46.7844 38.7943 46.7844 39.1094V41.0781C46.7844 41.2188 46.7961 41.3685 46.8195 41.5273C46.8456 41.6862 46.8833 41.8229 46.9328 41.9375V42H46.1789C46.1424 41.9167 46.1138 41.806 46.093 41.668C46.0721 41.5273 46.0617 41.3971 46.0617 41.2773ZM46.1867 39.4375L46.1945 39.9453H45.4641C45.2583 39.9453 45.0747 39.9622 44.9133 39.9961C44.7518 40.0273 44.6164 40.0755 44.507 40.1406C44.3977 40.2057 44.3143 40.2878 44.257 40.3867C44.1997 40.4831 44.1711 40.5964 44.1711 40.7266C44.1711 40.8594 44.201 40.9805 44.2609 41.0898C44.3208 41.1992 44.4107 41.2865 44.5305 41.3516C44.6529 41.4141 44.8026 41.4453 44.9797 41.4453C45.201 41.4453 45.3964 41.3984 45.5656 41.3047C45.7349 41.2109 45.869 41.0964 45.968 40.9609C46.0695 40.8255 46.1242 40.694 46.132 40.5664L46.4406 40.9141C46.4224 41.0234 46.3729 41.1445 46.2922 41.2773C46.2115 41.4102 46.1034 41.5378 45.968 41.6602C45.8352 41.7799 45.6763 41.8802 45.4914 41.9609C45.3091 42.0391 45.1034 42.0781 44.8742 42.0781C44.5878 42.0781 44.3365 42.0221 44.1203 41.9102C43.9068 41.7982 43.7401 41.6484 43.6203 41.4609C43.5031 41.2708 43.4445 41.0586 43.4445 40.8242C43.4445 40.5977 43.4888 40.3984 43.5773 40.2266C43.6659 40.0521 43.7935 39.9076 43.9602 39.793C44.1268 39.6758 44.3273 39.5872 44.5617 39.5273C44.7961 39.4674 45.0578 39.4375 45.3469 39.4375H46.1867ZM52.0594 42.0781C51.7651 42.0781 51.4982 42.0286 51.2586 41.9297C51.0216 41.8281 50.8172 41.6862 50.6453 41.5039C50.476 41.3216 50.3458 41.1055 50.2547 40.8555C50.1635 40.6055 50.118 40.332 50.118 40.0352V39.8711C50.118 39.5273 50.1688 39.2214 50.2703 38.9531C50.3719 38.6823 50.5099 38.4531 50.6844 38.2656C50.8589 38.0781 51.0568 37.9362 51.2781 37.8398C51.4995 37.7435 51.7286 37.6953 51.9656 37.6953C52.2677 37.6953 52.5281 37.7474 52.7469 37.8516C52.9682 37.9557 53.1492 38.1016 53.2898 38.2891C53.4305 38.474 53.5346 38.6927 53.6023 38.9453C53.6701 39.1953 53.7039 39.4688 53.7039 39.7656V40.0898H50.5477V39.5H52.9813V39.4453C52.9708 39.2578 52.9318 39.0755 52.8641 38.8984C52.799 38.7214 52.6948 38.5755 52.5516 38.4609C52.4083 38.3464 52.213 38.2891 51.9656 38.2891C51.8016 38.2891 51.6505 38.3242 51.5125 38.3945C51.3745 38.4622 51.256 38.5638 51.157 38.6992C51.0581 38.8346 50.9813 39 50.9266 39.1953C50.8719 39.3906 50.8445 39.6159 50.8445 39.8711V40.0352C50.8445 40.2357 50.8719 40.4245 50.9266 40.6016C50.9839 40.776 51.0659 40.9297 51.1727 41.0625C51.282 41.1953 51.4135 41.2995 51.5672 41.375C51.7234 41.4505 51.9005 41.4883 52.0984 41.4883C52.3536 41.4883 52.5698 41.4362 52.7469 41.332C52.924 41.2279 53.0789 41.0885 53.2117 40.9141L53.6492 41.2617C53.5581 41.3997 53.4422 41.5312 53.3016 41.6562C53.1609 41.7812 52.9878 41.8828 52.782 41.9609C52.5789 42.0391 52.338 42.0781 52.0594 42.0781ZM55.4703 38.6758V42H54.7477V37.7734H55.4313L55.4703 38.6758ZM55.2984 39.7266L54.9977 39.7148C55.0003 39.4258 55.0432 39.1589 55.1266 38.9141C55.2099 38.6667 55.3271 38.4518 55.4781 38.2695C55.6292 38.0872 55.8089 37.9466 56.0172 37.8477C56.2281 37.7461 56.4612 37.6953 56.7164 37.6953C56.9247 37.6953 57.1122 37.724 57.2789 37.7812C57.4456 37.8359 57.5875 37.9245 57.7047 38.0469C57.8245 38.1693 57.9156 38.3281 57.9781 38.5234C58.0406 38.7161 58.0719 38.9518 58.0719 39.2305V42H57.3453V39.2227C57.3453 39.0013 57.3128 38.8242 57.2477 38.6914C57.1826 38.556 57.0875 38.4583 56.9625 38.3984C56.8375 38.3359 56.6839 38.3047 56.5016 38.3047C56.3219 38.3047 56.1578 38.3424 56.0094 38.418C55.8635 38.4935 55.7372 38.5977 55.6305 38.7305C55.5263 38.8633 55.4443 39.0156 55.3844 39.1875C55.3271 39.3568 55.2984 39.5365 55.2984 39.7266ZM63.3078 42.0781C63.0135 42.0781 62.7466 42.0286 62.507 41.9297C62.2701 41.8281 62.0656 41.6862 61.8937 41.5039C61.7245 41.3216 61.5943 41.1055 61.5031 40.8555C61.412 40.6055 61.3664 40.332 61.3664 40.0352V39.8711C61.3664 39.5273 61.4172 39.2214 61.5187 38.9531C61.6203 38.6823 61.7583 38.4531 61.9328 38.2656C62.1073 38.0781 62.3052 37.9362 62.5266 37.8398C62.7479 37.7435 62.9771 37.6953 63.2141 37.6953C63.5161 37.6953 63.7766 37.7474 63.9953 37.8516C64.2167 37.9557 64.3977 38.1016 64.5383 38.2891C64.6789 38.474 64.7831 38.6927 64.8508 38.9453C64.9185 39.1953 64.9523 39.4688 64.9523 39.7656V40.0898H61.7961V39.5H64.2297V39.4453C64.2193 39.2578 64.1802 39.0755 64.1125 38.8984C64.0474 38.7214 63.9432 38.5755 63.8 38.4609C63.6568 38.3464 63.4615 38.2891 63.2141 38.2891C63.05 38.2891 62.899 38.3242 62.7609 38.3945C62.6229 38.4622 62.5044 38.5638 62.4055 38.6992C62.3065 38.8346 62.2297 39 62.175 39.1953C62.1203 39.3906 62.093 39.6159 62.093 39.8711V40.0352C62.093 40.2357 62.1203 40.4245 62.175 40.6016C62.2323 40.776 62.3143 40.9297 62.4211 41.0625C62.5305 41.1953 62.662 41.2995 62.8156 41.375C62.9719 41.4505 63.149 41.4883 63.3469 41.4883C63.6021 41.4883 63.8182 41.4362 63.9953 41.332C64.1724 41.2279 64.3273 41.0885 64.4602 40.9141L64.8977 41.2617C64.8065 41.3997 64.6906 41.5312 64.55 41.6562C64.4094 41.7812 64.2362 41.8828 64.0305 41.9609C63.8273 42.0391 63.5865 42.0781 63.3078 42.0781ZM66.7812 36V42H66.0547V36H66.7812ZM71.1109 36V42H70.3844V36H71.1109ZM72.2797 39.9336V39.8438C72.2797 39.5391 72.324 39.2565 72.4125 38.9961C72.501 38.7331 72.6286 38.5052 72.7953 38.3125C72.962 38.1172 73.1638 37.9661 73.4008 37.8594C73.6378 37.75 73.9034 37.6953 74.1977 37.6953C74.4945 37.6953 74.7615 37.75 74.9984 37.8594C75.238 37.9661 75.4411 38.1172 75.6078 38.3125C75.7771 38.5052 75.906 38.7331 75.9945 38.9961C76.0831 39.2565 76.1273 39.5391 76.1273 39.8438V39.9336C76.1273 40.2383 76.0831 40.5208 75.9945 40.7812C75.906 41.0417 75.7771 41.2695 75.6078 41.4648C75.4411 41.6576 75.2393 41.8086 75.0023 41.918C74.768 42.0247 74.5023 42.0781 74.2055 42.0781C73.9086 42.0781 73.6417 42.0247 73.4047 41.918C73.1677 41.8086 72.9646 41.6576 72.7953 41.4648C72.6286 41.2695 72.501 41.0417 72.4125 40.7812C72.324 40.5208 72.2797 40.2383 72.2797 39.9336ZM73.0023 39.8438V39.9336C73.0023 40.1445 73.0271 40.3438 73.0766 40.5312C73.126 40.7161 73.2003 40.8802 73.2992 41.0234C73.4008 41.1667 73.5271 41.2799 73.6781 41.3633C73.8292 41.444 74.0049 41.4844 74.2055 41.4844C74.4034 41.4844 74.5766 41.444 74.725 41.3633C74.876 41.2799 75.001 41.1667 75.1 41.0234C75.199 40.8802 75.2732 40.7161 75.3227 40.5312C75.3747 40.3438 75.4008 40.1445 75.4008 39.9336V39.8438C75.4008 39.6354 75.3747 39.4388 75.3227 39.2539C75.2732 39.0664 75.1977 38.901 75.0961 38.7578C74.9971 38.612 74.8721 38.4974 74.7211 38.4141C74.5727 38.3307 74.3982 38.2891 74.1977 38.2891C73.9997 38.2891 73.8253 38.3307 73.6742 38.4141C73.5258 38.4974 73.4008 38.612 73.2992 38.7578C73.2003 38.901 73.126 39.0664 73.0766 39.2539C73.0271 39.4388 73.0023 39.6354 73.0023 39.8438ZM78.925 41.4844C79.0969 41.4844 79.2557 41.4492 79.4016 41.3789C79.5474 41.3086 79.6672 41.2122 79.7609 41.0898C79.8547 40.9648 79.9081 40.8229 79.9211 40.6641H80.6086C80.5956 40.9141 80.5109 41.1471 80.3547 41.3633C80.201 41.5768 79.9992 41.75 79.7492 41.8828C79.4992 42.013 79.2245 42.0781 78.925 42.0781C78.6073 42.0781 78.33 42.0221 78.093 41.9102C77.8586 41.7982 77.6633 41.6445 77.507 41.4492C77.3534 41.2539 77.2375 41.0299 77.1594 40.7773C77.0839 40.5221 77.0461 40.2526 77.0461 39.9688V39.8047C77.0461 39.5208 77.0839 39.2526 77.1594 39C77.2375 38.7448 77.3534 38.5195 77.507 38.3242C77.6633 38.1289 77.8586 37.9753 78.093 37.8633C78.33 37.7513 78.6073 37.6953 78.925 37.6953C79.2557 37.6953 79.5448 37.763 79.7922 37.8984C80.0396 38.0312 80.2336 38.2135 80.3742 38.4453C80.5175 38.6745 80.5956 38.9349 80.6086 39.2266H79.9211C79.9081 39.0521 79.8586 38.8945 79.7727 38.7539C79.6893 38.6133 79.5747 38.5013 79.4289 38.418C79.2857 38.332 79.1177 38.2891 78.925 38.2891C78.7036 38.2891 78.5175 38.3333 78.3664 38.4219C78.218 38.5078 78.0995 38.625 78.0109 38.7734C77.925 38.9193 77.8625 39.082 77.8234 39.2617C77.787 39.4388 77.7688 39.6198 77.7688 39.8047V39.9688C77.7688 40.1536 77.787 40.3359 77.8234 40.5156C77.8599 40.6953 77.9211 40.8581 78.007 41.0039C78.0956 41.1497 78.2141 41.2669 78.3625 41.3555C78.5135 41.4414 78.701 41.4844 78.925 41.4844ZM84.1133 41.2773V39.1016C84.1133 38.9349 84.0794 38.7904 84.0117 38.668C83.9466 38.543 83.8477 38.4466 83.7148 38.3789C83.582 38.3112 83.418 38.2773 83.2227 38.2773C83.0404 38.2773 82.8802 38.3086 82.7422 38.3711C82.6068 38.4336 82.5 38.5156 82.4219 38.6172C82.3464 38.7188 82.3086 38.8281 82.3086 38.9453H81.5859C81.5859 38.7943 81.625 38.6445 81.7031 38.4961C81.7812 38.3477 81.8932 38.2135 82.0391 38.0938C82.1875 37.9714 82.3646 37.875 82.5703 37.8047C82.7786 37.7318 83.0104 37.6953 83.2656 37.6953C83.5729 37.6953 83.8438 37.7474 84.0781 37.8516C84.3151 37.9557 84.5 38.1133 84.6328 38.3242C84.7682 38.5326 84.8359 38.7943 84.8359 39.1094V41.0781C84.8359 41.2188 84.8477 41.3685 84.8711 41.5273C84.8971 41.6862 84.9349 41.8229 84.9844 41.9375V42H84.2305C84.194 41.9167 84.1654 41.806 84.1445 41.668C84.1237 41.5273 84.1133 41.3971 84.1133 41.2773ZM84.2383 39.4375L84.2461 39.9453H83.5156C83.3099 39.9453 83.1263 39.9622 82.9648 39.9961C82.8034 40.0273 82.668 40.0755 82.5586 40.1406C82.4492 40.2057 82.3659 40.2878 82.3086 40.3867C82.2513 40.4831 82.2227 40.5964 82.2227 40.7266C82.2227 40.8594 82.2526 40.9805 82.3125 41.0898C82.3724 41.1992 82.4622 41.2865 82.582 41.3516C82.7044 41.4141 82.8542 41.4453 83.0312 41.4453C83.2526 41.4453 83.4479 41.3984 83.6172 41.3047C83.7865 41.2109 83.9206 41.0964 84.0195 40.9609C84.1211 40.8255 84.1758 40.694 84.1836 40.5664L84.4922 40.9141C84.474 41.0234 84.4245 41.1445 84.3438 41.2773C84.263 41.4102 84.1549 41.5378 84.0195 41.6602C83.8867 41.7799 83.7279 41.8802 83.543 41.9609C83.3607 42.0391 83.1549 42.0781 82.9258 42.0781C82.6393 42.0781 82.388 42.0221 82.1719 41.9102C81.9583 41.7982 81.7917 41.6484 81.6719 41.4609C81.5547 41.2708 81.4961 41.0586 81.4961 40.8242C81.4961 40.5977 81.5404 40.3984 81.6289 40.2266C81.7174 40.0521 81.8451 39.9076 82.0117 39.793C82.1784 39.6758 82.3789 39.5872 82.6133 39.5273C82.8477 39.4674 83.1094 39.4375 83.3984 39.4375H84.2383ZM86.9578 36V42H86.2312V36H86.9578ZM12.2148 50.1797V45H12.9414V51H12.2773L12.2148 50.1797ZM9.37109 48.9336V48.8516C9.37109 48.5286 9.41016 48.2357 9.48828 47.9727C9.56901 47.707 9.68229 47.4792 9.82812 47.2891C9.97656 47.099 10.1523 46.9531 10.3555 46.8516C10.5612 46.7474 10.7904 46.6953 11.043 46.6953C11.3086 46.6953 11.5404 46.7422 11.7383 46.8359C11.9388 46.9271 12.1081 47.0612 12.2461 47.2383C12.3867 47.4128 12.4974 47.6237 12.5781 47.8711C12.6589 48.1185 12.7148 48.3984 12.7461 48.7109V49.0703C12.7174 49.3802 12.6615 49.6589 12.5781 49.9062C12.4974 50.1536 12.3867 50.3646 12.2461 50.5391C12.1081 50.7135 11.9388 50.8477 11.7383 50.9414C11.5378 51.0326 11.3034 51.0781 11.0352 51.0781C10.7878 51.0781 10.5612 51.0247 10.3555 50.918C10.1523 50.8112 9.97656 50.6615 9.82812 50.4688C9.68229 50.276 9.56901 50.0495 9.48828 49.7891C9.41016 49.526 9.37109 49.2409 9.37109 48.9336ZM10.0977 48.8516V48.9336C10.0977 49.1445 10.1185 49.3424 10.1602 49.5273C10.2044 49.7122 10.2721 49.875 10.3633 50.0156C10.4544 50.1562 10.5703 50.2669 10.7109 50.3477C10.8516 50.4258 11.0195 50.4648 11.2148 50.4648C11.4544 50.4648 11.651 50.4141 11.8047 50.3125C11.9609 50.2109 12.0859 50.0768 12.1797 49.9102C12.2734 49.7435 12.3464 49.5625 12.3984 49.3672V48.4258C12.3672 48.2826 12.3216 48.1445 12.2617 48.0117C12.2044 47.8763 12.1289 47.7565 12.0352 47.6523C11.944 47.5456 11.8307 47.4609 11.6953 47.3984C11.5625 47.3359 11.4049 47.3047 11.2227 47.3047C11.0247 47.3047 10.8542 47.3464 10.7109 47.4297C10.5703 47.5104 10.4544 47.6224 10.3633 47.7656C10.2721 47.9062 10.2044 48.0703 10.1602 48.2578C10.1185 48.4427 10.0977 48.6406 10.0977 48.8516ZM16.0203 51.0781C15.726 51.0781 15.4591 51.0286 15.2195 50.9297C14.9826 50.8281 14.7781 50.6862 14.6062 50.5039C14.437 50.3216 14.3068 50.1055 14.2156 49.8555C14.1245 49.6055 14.0789 49.332 14.0789 49.0352V48.8711C14.0789 48.5273 14.1297 48.2214 14.2312 47.9531C14.3328 47.6823 14.4708 47.4531 14.6453 47.2656C14.8198 47.0781 15.0177 46.9362 15.2391 46.8398C15.4604 46.7435 15.6896 46.6953 15.9266 46.6953C16.2286 46.6953 16.4891 46.7474 16.7078 46.8516C16.9292 46.9557 17.1102 47.1016 17.2508 47.2891C17.3914 47.474 17.4956 47.6927 17.5633 47.9453C17.631 48.1953 17.6648 48.4688 17.6648 48.7656V49.0898H14.5086V48.5H16.9422V48.4453C16.9318 48.2578 16.8927 48.0755 16.825 47.8984C16.7599 47.7214 16.6557 47.5755 16.5125 47.4609C16.3693 47.3464 16.174 47.2891 15.9266 47.2891C15.7625 47.2891 15.6115 47.3242 15.4734 47.3945C15.3354 47.4622 15.2169 47.5638 15.118 47.6992C15.019 47.8346 14.9422 48 14.8875 48.1953C14.8328 48.3906 14.8055 48.6159 14.8055 48.8711V49.0352C14.8055 49.2357 14.8328 49.4245 14.8875 49.6016C14.9448 49.776 15.0268 49.9297 15.1336 50.0625C15.243 50.1953 15.3745 50.2995 15.5281 50.375C15.6844 50.4505 15.8615 50.4883 16.0594 50.4883C16.3146 50.4883 16.5307 50.4362 16.7078 50.332C16.8849 50.2279 17.0398 50.0885 17.1727 49.9141L17.6102 50.2617C17.519 50.3997 17.4031 50.5312 17.2625 50.6562C17.1219 50.7812 16.9487 50.8828 16.743 50.9609C16.5398 51.0391 16.299 51.0781 16.0203 51.0781ZM19.4937 45V51H18.7672V45H19.4937ZM24.7297 50.4844C24.9016 50.4844 25.0604 50.4492 25.2063 50.3789C25.3521 50.3086 25.4719 50.2122 25.5656 50.0898C25.6594 49.9648 25.7128 49.8229 25.7258 49.6641H26.4133C26.4003 49.9141 26.3156 50.1471 26.1594 50.3633C26.0057 50.5768 25.8039 50.75 25.5539 50.8828C25.3039 51.013 25.0292 51.0781 24.7297 51.0781C24.412 51.0781 24.1346 51.0221 23.8977 50.9102C23.6633 50.7982 23.468 50.6445 23.3117 50.4492C23.1581 50.2539 23.0422 50.0299 22.9641 49.7773C22.8885 49.5221 22.8508 49.2526 22.8508 48.9688V48.8047C22.8508 48.5208 22.8885 48.2526 22.9641 48C23.0422 47.7448 23.1581 47.5195 23.3117 47.3242C23.468 47.1289 23.6633 46.9753 23.8977 46.8633C24.1346 46.7513 24.412 46.6953 24.7297 46.6953C25.0604 46.6953 25.3495 46.763 25.5969 46.8984C25.8443 47.0312 26.0383 47.2135 26.1789 47.4453C26.3221 47.6745 26.4003 47.9349 26.4133 48.2266H25.7258C25.7128 48.0521 25.6633 47.8945 25.5773 47.7539C25.494 47.6133 25.3794 47.5013 25.2336 47.418C25.0904 47.332 24.9224 47.2891 24.7297 47.2891C24.5083 47.2891 24.3221 47.3333 24.1711 47.4219C24.0227 47.5078 23.9042 47.625 23.8156 47.7734C23.7297 47.9193 23.6672 48.082 23.6281 48.2617C23.5917 48.4388 23.5734 48.6198 23.5734 48.8047V48.9688C23.5734 49.1536 23.5917 49.3359 23.6281 49.5156C23.6646 49.6953 23.7258 49.8581 23.8117 50.0039C23.9003 50.1497 24.0188 50.2669 24.1672 50.3555C24.3182 50.4414 24.5057 50.4844 24.7297 50.4844ZM28.2109 45V51H27.4844V45H28.2109ZM30.3563 46.7734V51H29.6297V46.7734H30.3563ZM29.575 45.6523C29.575 45.5352 29.6102 45.4362 29.6805 45.3555C29.7534 45.2747 29.8602 45.2344 30.0008 45.2344C30.1388 45.2344 30.2443 45.2747 30.3172 45.3555C30.3927 45.4362 30.4305 45.5352 30.4305 45.6523C30.4305 45.7643 30.3927 45.8607 30.3172 45.9414C30.2443 46.0195 30.1388 46.0586 30.0008 46.0586C29.8602 46.0586 29.7534 46.0195 29.6805 45.9414C29.6102 45.8607 29.575 45.7643 29.575 45.6523ZM33.4703 51.0781C33.176 51.0781 32.9091 51.0286 32.6695 50.9297C32.4326 50.8281 32.2281 50.6862 32.0562 50.5039C31.887 50.3216 31.7568 50.1055 31.6656 49.8555C31.5745 49.6055 31.5289 49.332 31.5289 49.0352V48.8711C31.5289 48.5273 31.5797 48.2214 31.6812 47.9531C31.7828 47.6823 31.9208 47.4531 32.0953 47.2656C32.2698 47.0781 32.4677 46.9362 32.6891 46.8398C32.9104 46.7435 33.1396 46.6953 33.3766 46.6953C33.6786 46.6953 33.9391 46.7474 34.1578 46.8516C34.3792 46.9557 34.5602 47.1016 34.7008 47.2891C34.8414 47.474 34.9456 47.6927 35.0133 47.9453C35.081 48.1953 35.1148 48.4688 35.1148 48.7656V49.0898H31.9586V48.5H34.3922V48.4453C34.3818 48.2578 34.3427 48.0755 34.275 47.8984C34.2099 47.7214 34.1057 47.5755 33.9625 47.4609C33.8193 47.3464 33.624 47.2891 33.3766 47.2891C33.2125 47.2891 33.0615 47.3242 32.9234 47.3945C32.7854 47.4622 32.6669 47.5638 32.568 47.6992C32.469 47.8346 32.3922 48 32.3375 48.1953C32.2828 48.3906 32.2555 48.6159 32.2555 48.8711V49.0352C32.2555 49.2357 32.2828 49.4245 32.3375 49.6016C32.3948 49.776 32.4768 49.9297 32.5836 50.0625C32.693 50.1953 32.8245 50.2995 32.9781 50.375C33.1344 50.4505 33.3115 50.4883 33.5094 50.4883C33.7646 50.4883 33.9807 50.4362 34.1578 50.332C34.3349 50.2279 34.4898 50.0885 34.6227 49.9141L35.0602 50.2617C34.969 50.3997 34.8531 50.5312 34.7125 50.6562C34.5719 50.7812 34.3987 50.8828 34.193 50.9609C33.9898 51.0391 33.749 51.0781 33.4703 51.0781ZM36.8813 47.6758V51H36.1586V46.7734H36.8422L36.8813 47.6758ZM36.7094 48.7266L36.4086 48.7148C36.4112 48.4258 36.4542 48.1589 36.5375 47.9141C36.6208 47.6667 36.738 47.4518 36.8891 47.2695C37.0401 47.0872 37.2198 46.9466 37.4281 46.8477C37.6391 46.7461 37.8721 46.6953 38.1273 46.6953C38.3357 46.6953 38.5232 46.724 38.6898 46.7812C38.8565 46.8359 38.9984 46.9245 39.1156 47.0469C39.2354 47.1693 39.3266 47.3281 39.3891 47.5234C39.4516 47.7161 39.4828 47.9518 39.4828 48.2305V51H38.7563V48.2227C38.7563 48.0013 38.7237 47.8242 38.6586 47.6914C38.5935 47.556 38.4984 47.4583 38.3734 47.3984C38.2484 47.3359 38.0948 47.3047 37.9125 47.3047C37.7328 47.3047 37.5688 47.3424 37.4203 47.418C37.2745 47.4935 37.1482 47.5977 37.0414 47.7305C36.9372 47.8633 36.8552 48.0156 36.7953 48.1875C36.738 48.3568 36.7094 48.5365 36.7094 48.7266ZM42.55 46.7734V47.3281H40.2648V46.7734H42.55ZM41.0383 45.7461H41.7609V49.9531C41.7609 50.0964 41.7831 50.2044 41.8273 50.2773C41.8716 50.3503 41.9289 50.3984 41.9992 50.4219C42.0695 50.4453 42.1451 50.457 42.2258 50.457C42.2857 50.457 42.3482 50.4518 42.4133 50.4414C42.481 50.4284 42.5318 50.418 42.5656 50.4102L42.5695 51C42.5122 51.0182 42.4367 51.0352 42.343 51.0508C42.2518 51.069 42.1411 51.0781 42.0109 51.0781C41.8339 51.0781 41.6711 51.043 41.5227 50.9727C41.3742 50.9023 41.2557 50.7852 41.1672 50.6211C41.0812 50.4544 41.0383 50.2305 41.0383 49.9492V45.7461ZM45.3516 51.0781C45.0573 51.0781 44.7904 51.0286 44.5508 50.9297C44.3138 50.8281 44.1094 50.6862 43.9375 50.5039C43.7682 50.3216 43.638 50.1055 43.5469 49.8555C43.4557 49.6055 43.4102 49.332 43.4102 49.0352V48.8711C43.4102 48.5273 43.4609 48.2214 43.5625 47.9531C43.6641 47.6823 43.8021 47.4531 43.9766 47.2656C44.151 47.0781 44.349 46.9362 44.5703 46.8398C44.7917 46.7435 45.0208 46.6953 45.2578 46.6953C45.5599 46.6953 45.8203 46.7474 46.0391 46.8516C46.2604 46.9557 46.4414 47.1016 46.582 47.2891C46.7227 47.474 46.8268 47.6927 46.8945 47.9453C46.9622 48.1953 46.9961 48.4688 46.9961 48.7656V49.0898H43.8398V48.5H46.2734V48.4453C46.263 48.2578 46.224 48.0755 46.1562 47.8984C46.0911 47.7214 45.987 47.5755 45.8438 47.4609C45.7005 47.3464 45.5052 47.2891 45.2578 47.2891C45.0938 47.2891 44.9427 47.3242 44.8047 47.3945C44.6667 47.4622 44.5482 47.5638 44.4492 47.6992C44.3503 47.8346 44.2734 48 44.2188 48.1953C44.1641 48.3906 44.1367 48.6159 44.1367 48.8711V49.0352C44.1367 49.2357 44.1641 49.4245 44.2188 49.6016C44.276 49.776 44.3581 49.9297 44.4648 50.0625C44.5742 50.1953 44.7057 50.2995 44.8594 50.375C45.0156 50.4505 45.1927 50.4883 45.3906 50.4883C45.6458 50.4883 45.862 50.4362 46.0391 50.332C46.2161 50.2279 46.3711 50.0885 46.5039 49.9141L46.9414 50.2617C46.8503 50.3997 46.7344 50.5312 46.5938 50.6562C46.4531 50.7812 46.2799 50.8828 46.0742 50.9609C45.8711 51.0391 45.6302 51.0781 45.3516 51.0781ZM48.0516 50.6172C48.0516 50.4948 48.0893 50.3919 48.1648 50.3086C48.243 50.2227 48.3549 50.1797 48.5008 50.1797C48.6466 50.1797 48.7573 50.2227 48.8328 50.3086C48.9109 50.3919 48.95 50.4948 48.95 50.6172C48.95 50.737 48.9109 50.8385 48.8328 50.9219C48.7573 51.0052 48.6466 51.0469 48.5008 51.0469C48.3549 51.0469 48.243 51.0052 48.1648 50.9219C48.0893 50.8385 48.0516 50.737 48.0516 50.6172Z" fill="#363740"/>
</svg>
