<svg width="14" height="26" viewBox="0 0 14 26" fill="none" xmlns="http://www.w3.org/2000/svg">
<path d="M6.61737 12.0708C8.89565 12.0708 10.7426 10.2292 10.7426 7.95752C10.7426 5.68582 8.89565 3.84424 6.61737 3.84424C4.3391 3.84424 2.49219 5.68582 2.49219 7.95752C2.49219 10.2292 4.3391 12.0708 6.61737 12.0708Z" fill="#B4E500"/>
<path d="M6.61687 13.4214C4.14176 13.4214 2.125 15.4272 2.125 17.9003C2.125 20.3733 4.13666 22.3792 6.61687 22.3792C9.09198 22.3792 11.1087 20.3733 11.1087 17.9003C11.1087 15.4272 9.09198 13.4214 6.61687 13.4214ZM6.61687 21.6124C4.56446 21.6124 2.88892 19.9468 2.88892 17.8952C2.88892 15.8437 4.55937 14.178 6.61687 14.178C8.66928 14.178 10.3448 15.8437 10.3448 17.8952C10.3448 19.9468 8.66928 21.6124 6.61687 21.6124Z" fill="black"/>
<path d="M8.53042 15.9859C8.38273 15.8387 8.13827 15.8387 7.99058 15.9859L6.61551 17.357L5.24045 15.9859C5.09276 15.8387 4.8483 15.8387 4.70061 15.9859C4.55292 16.1332 4.55292 16.377 4.70061 16.5242L6.07568 17.8953L4.70061 19.2664C4.55292 19.4137 4.55292 19.6574 4.70061 19.8047C4.77701 19.8809 4.87377 19.9164 4.97053 19.9164C5.0673 19.9164 5.16406 19.8809 5.24045 19.8047L6.61551 18.4336L7.99058 19.8047C8.06697 19.8809 8.16373 19.9164 8.2605 19.9164C8.35726 19.9164 8.45403 19.8809 8.53042 19.8047C8.67811 19.6574 8.67811 19.4137 8.53042 19.2664L7.15536 17.8953L8.53042 16.5242C8.6832 16.377 8.6832 16.1332 8.53042 15.9859Z" fill="black"/>
<path d="M9.12462 7.91177C9.12462 6.5356 7.9991 5.41333 6.61895 5.41333C5.2388 5.41333 4.11328 6.5356 4.11328 7.91177C4.11328 9.28794 5.2388 10.4102 6.61895 10.4102C7.9991 10.4102 9.12462 9.28794 9.12462 7.91177ZM4.8772 7.91177C4.8772 6.952 5.65641 6.17505 6.61895 6.17505C7.58149 6.17505 8.3607 6.952 8.3607 7.91177C8.3607 8.87154 7.58149 9.64849 6.61895 9.64849C5.65641 9.64849 4.8772 8.86646 4.8772 7.91177Z" fill="black"/>
<path d="M3.0158 8.86641C2.95978 8.66328 2.75098 8.54141 2.54727 8.59727C2.34355 8.65313 2.22132 8.86133 2.27734 9.06445C2.80191 11.0195 4.5844 12.3855 6.61644 12.3855C9.09155 12.3855 11.1083 10.3797 11.1083 7.90664C11.1083 5.43359 9.09664 3.42773 6.61644 3.42773C4.32976 3.42773 2.41485 5.13398 2.15512 7.39375C2.12965 7.60195 2.28244 7.78984 2.49124 7.81523C2.70005 7.84062 2.88848 7.68828 2.91395 7.48008C3.12785 5.60625 4.71681 4.18945 6.61644 4.18945C8.66885 4.18945 10.3444 5.85508 10.3444 7.90664C10.3444 9.9582 8.67394 11.6238 6.61644 11.6238C4.93071 11.6238 3.4487 10.4914 3.0158 8.86641Z" fill="black"/>
<path d="M12.8594 7.06367C13.0682 7.06367 13.2413 6.89102 13.2413 6.68281V3.56992C13.2413 2.66094 12.4978 1.91953 11.5862 1.91953H11.1024V1.49297C11.0973 0.670312 10.4301 0 9.60506 0H4.77707C4.56826 0 4.3951 0.172656 4.3951 0.380859C4.3951 0.589063 4.56826 0.761719 4.77707 0.761719H9.60506C10.0074 0.761719 10.3333 1.08672 10.3333 1.48789V1.91445H2.89781V1.48789C2.89781 1.08672 3.22375 0.761719 3.62609 0.761719H5.25579C5.4646 0.761719 5.63775 0.589063 5.63775 0.380859C5.63775 0.172656 5.46969 0 5.26088 0H3.63118C2.80614 0 2.13899 0.670312 2.13899 1.48789V1.91445H1.65517C0.743552 1.91445 0 2.65586 0 3.56484V22.4301C0 23.3391 0.743552 24.0805 1.65517 24.0805H2.13899V25.6141C2.13899 25.8223 2.31214 25.9949 2.52095 25.9949H10.7204C10.9292 25.9949 11.1024 25.8223 11.1024 25.6141V24.0805H11.5862C12.4978 24.0805 13.2413 23.3391 13.2413 22.4301V5.38789C13.2413 5.17969 13.0682 5.00703 12.8594 5.00703C12.6506 5.00703 12.4774 5.17969 12.4774 5.38789V22.4352C12.4774 22.9277 12.0751 23.3238 11.5862 23.3238C11.0463 23.3238 2.09315 23.3238 1.65517 23.3238C1.16116 23.3238 0.763923 22.9227 0.763923 22.4352V3.56992C0.763923 3.07734 1.16626 2.68125 1.65517 2.68125H11.5862C12.0802 2.68125 12.4774 3.08242 12.4774 3.56992V6.68281C12.4774 6.89609 12.6455 7.06367 12.8594 7.06367ZM10.3333 25.2383H2.89781V24.0855H10.3333V25.2383Z" fill="black"/>
</svg>
