<svg width="27" height="24" viewBox="0 0 27 24" fill="none" xmlns="http://www.w3.org/2000/svg">
<g clip-path="url(#clip0_1547_18152)">
<path d="M23.4643 18.4511V22.6292C24.3334 22.6292 25.1884 22.6269 26.0445 22.6315C26.1913 22.6315 26.3405 22.6454 26.4826 22.6755C26.8059 22.746 27.0036 23.0014 27 23.3204C26.9965 23.6406 26.7987 23.8867 26.4708 23.9572C26.3381 23.9861 26.1984 23.9988 26.0611 23.9988C17.2193 24.0012 9.78314 24.0012 0.942596 24C0.316203 24 0.00715143 23.7769 0.0012309 23.3227C-0.00468963 22.8604 0.312651 22.6281 0.954437 22.6281C1.71463 22.6281 2.47365 22.6281 3.23384 22.6281H3.53697V18.4499C2.66784 18.4499 1.81291 18.4522 0.956805 18.4476C0.809976 18.4476 0.660778 18.4337 0.518686 18.4037C0.195424 18.3343 -0.00350553 18.0777 4.67939e-05 17.7587C0.00359911 17.4386 0.201345 17.1924 0.529342 17.1219C0.661962 17.093 0.801687 17.0803 0.939043 17.0803C9.78077 17.078 17.217 17.078 26.0575 17.0791C26.6839 17.0791 26.9929 17.3022 26.9989 17.7564C27.0048 18.2187 26.6874 18.4511 26.0457 18.4511C25.2855 18.4511 24.5264 18.4511 23.7663 18.4511H23.4631H23.4643ZM4.97685 18.4615V22.6119H12.7718V18.4615H4.97685ZM22.0185 22.6131V18.4707H14.2212V22.6131H22.0197H22.0185Z" fill="#363740"/>
<path d="M13.5061 14.6728C11.6613 14.6728 9.81646 14.6774 7.9728 14.6705C6.99118 14.667 6.16586 14.3306 5.55841 13.5482C5.17476 13.0547 4.98649 12.4918 4.98412 11.8815C4.97464 9.58959 4.97346 5.10166 4.98412 2.80972C4.98885 1.22744 6.23809 0.0161757 7.8982 0.00924098C11.627 -0.00462851 15.3557 -0.00347272 19.0845 0.00924098C20.799 0.0150199 22.0151 1.23554 22.0163 2.91143C22.0175 5.12593 22.0175 9.53758 22.0163 11.7521C22.0163 13.458 20.7896 14.6647 19.0395 14.6705C17.1946 14.6774 15.3498 14.6716 13.5061 14.6716V14.6728ZM9.95381 1.3881C9.13915 1.3881 8.36001 1.35574 7.5856 1.3985C6.90119 1.43664 6.38492 2.04228 6.38492 2.71495C6.38373 5.06583 6.38018 9.61271 6.39202 11.9624C6.39202 12.1739 6.46425 12.4016 6.56253 12.5912C6.83843 13.1228 7.32154 13.3032 7.91123 13.302C11.4043 13.2974 14.8975 13.2997 18.3906 13.2997C18.6961 13.2997 19.0028 13.3078 19.3083 13.2927C20.0554 13.2569 20.6143 12.679 20.6143 11.9497C20.6155 9.60924 20.6143 5.07161 20.6143 2.73113C20.6143 2.07002 20.1549 1.46669 19.4871 1.41468C18.6866 1.35227 17.8779 1.39966 17.0442 1.39966V1.72097C17.0442 2.9542 17.0442 4.18743 17.0442 5.4195C17.0442 6.10026 16.5599 6.3973 15.9418 6.10026C15.2172 5.75237 14.4878 5.41141 13.769 5.05196C13.5701 4.95256 13.4173 4.95949 13.2208 5.05774C12.4925 5.42181 11.7572 5.7697 11.0207 6.11644C10.444 6.38805 9.96329 6.09101 9.95618 5.46573C9.95618 5.3698 9.95618 5.27271 9.95618 5.17678C9.95618 3.92506 9.95618 2.6745 9.95618 1.38926L9.95381 1.3881ZM11.3724 4.42552C11.9597 4.14697 12.5056 3.90426 13.0349 3.63149C13.3522 3.46737 13.6328 3.46043 13.9525 3.62687C14.4889 3.90426 15.0419 4.14813 15.6198 4.4209V1.39503H11.3736V4.42667L11.3724 4.42552Z" fill="#363740"/>
</g>
<defs>
<clipPath id="clip0_1547_18152">
<rect width="27" height="24" fill="white"/>
</clipPath>
</defs>
</svg>
