<svg width="16" height="21" viewBox="0 0 16 21" fill="none" xmlns="http://www.w3.org/2000/svg">
<path d="M15.9948 8.99608H14.6848V7.718H14.3562C12.9671 7.718 11.5769 7.72876 10.1879 7.71047C9.86147 7.70617 9.51615 7.65345 9.21538 7.53619C8.37993 7.21129 8.02124 6.5475 8.0101 5.71158C7.99227 4.34313 8.00564 2.9736 8.00564 1.60515C8.00564 1.50833 8.00564 1.41043 8.00564 1.29639C7.91875 1.28778 7.84746 1.27595 7.77728 1.27487C6.08187 1.27487 4.38645 1.27487 2.69215 1.2738C2.1452 1.2738 1.71188 1.4739 1.47127 1.96017C1.37881 2.14629 1.32757 2.36899 1.32646 2.57555C1.31643 4.61531 1.32089 6.65508 1.32089 8.69593C1.32089 8.78522 1.32089 8.87452 1.32089 8.98425H0.0175755C0.0131197 8.92078 0.00198034 8.84439 0.00198034 8.76801C0.00198034 6.71856 -0.00247542 4.67018 0.00198034 2.62073C0.0064361 1.38783 0.835208 0.370101 2.06723 0.0871584C2.31675 0.0301395 2.57964 0.00647134 2.83696 0.00539551C4.89329 1.63773e-05 6.94963 0.00539551 9.00596 1.63774e-05C9.67098 -0.00213528 10.2202 0.207651 10.6947 0.673484C12.2152 2.16458 13.7491 3.64492 15.2919 5.11557C15.7776 5.57926 16.0149 6.10964 15.9993 6.76805C15.9815 7.50068 15.9948 8.2344 15.9948 8.99716V8.99608ZM14.5378 6.44422C12.809 4.77239 11.0534 3.07473 9.29781 1.37708C9.33235 1.39967 9.32455 1.47713 9.32455 1.55351C9.32455 2.92949 9.32455 4.30655 9.32455 5.68254C9.32455 6.20431 9.55959 6.43669 10.0987 6.44207C10.6635 6.44745 11.2283 6.44315 11.7919 6.44315C12.7354 6.44315 13.6789 6.44315 14.5378 6.44315V6.44422Z" fill="black"/>
<path d="M0.00708008 18.0558H1.28923C1.46746 18.9853 1.89521 19.3306 2.85877 19.3306C6.32201 19.3306 9.78413 19.3274 13.2474 19.3328C13.8779 19.3328 14.3402 19.0993 14.5897 18.5291C14.6521 18.385 14.671 18.2225 14.7144 18.0547H15.9944C15.9453 18.9197 15.5866 19.6103 14.8704 20.116C14.3825 20.4602 13.8222 20.6022 13.2262 20.6022C9.74515 20.6055 6.26297 20.6087 2.78191 20.6022C1.31373 20.6001 0.248805 19.6996 0.0282449 18.3032C0.0159916 18.2257 0.0159916 18.1472 0.00819402 18.0547L0.00708008 18.0558Z" fill="black"/>
<path d="M6.67323 13.5307C6.67323 12.7077 6.67323 11.8847 6.67323 11.0617C6.67323 10.5528 6.90382 10.3172 7.43071 10.314C7.81836 10.3119 8.21047 10.3086 8.59366 10.357C9.60735 10.484 10.298 11.2263 10.3214 12.2182C10.3414 13.0853 10.3414 13.9535 10.3214 14.8206C10.2969 15.9201 9.4514 16.7023 8.27619 16.7378C7.98991 16.7464 7.7014 16.7453 7.41512 16.7378C6.90382 16.7238 6.67435 16.4925 6.67323 15.9998C6.671 15.1767 6.67323 14.3537 6.67323 13.5307ZM8.01107 11.6071V15.4435C8.6282 15.5382 9.04592 15.3015 9.01585 14.6098C8.98466 13.8868 8.98466 13.1606 9.01585 12.4377C9.04592 11.7524 8.63154 11.5082 8.01107 11.6061V11.6071Z" fill="black"/>
<path d="M3.32251 14.8303C3.32251 15.2305 3.32474 15.6307 3.32251 16.0309C3.31917 16.4667 3.06074 16.7367 2.65861 16.7324C2.25425 16.7281 2.00584 16.4613 2.00472 16.0213C2.00249 14.357 2.00249 12.6927 2.00472 11.0284C2.00472 10.6217 2.16847 10.3775 2.55055 10.3441C3.31583 10.2764 4.08668 10.2365 4.80405 10.6002C5.66847 11.038 6.12296 11.9955 5.93805 12.9874C5.75647 13.9557 5.00345 14.6496 4.01093 14.7604C3.7926 14.7851 3.57315 14.8056 3.32363 14.8303H3.32251ZM3.337 13.5253C3.84272 13.549 4.27493 13.4845 4.5356 13.0315C4.74724 12.6636 4.7116 12.3097 4.46208 11.9751C4.18359 11.6018 3.78034 11.5652 3.337 11.5921V13.5243V13.5253Z" fill="black"/>
<path d="M12.6696 12.8884C13.1163 12.8884 13.5329 12.8787 13.9484 12.8916C14.2157 12.9002 14.4586 12.9745 14.5855 13.2424C14.6969 13.4758 14.6702 13.6942 14.5265 13.9029C14.3739 14.1235 14.1322 14.1547 13.8893 14.159C13.4928 14.1665 13.0951 14.1611 12.6551 14.1611C12.6551 14.2698 12.6551 14.3644 12.6551 14.458C12.6551 14.9949 12.6595 15.5306 12.6529 16.0675C12.6484 16.4655 12.3922 16.7216 12.0079 16.7323C11.618 16.7431 11.3384 16.4752 11.3373 16.0653C11.3328 14.3752 11.3339 12.6862 11.3373 10.996C11.3373 10.5743 11.5712 10.329 12.0224 10.3161C12.6696 10.2978 13.3179 10.3032 13.9662 10.3161C14.2346 10.3215 14.4741 10.4119 14.5933 10.6797C14.6992 10.9153 14.6657 11.1337 14.5165 11.3381C14.3583 11.5533 14.1155 11.5781 13.8726 11.5824C13.4772 11.5888 13.0817 11.5845 12.6707 11.5845V12.8884H12.6696Z" fill="black"/>
</svg>
