<svg width="21" height="18" viewBox="0 0 21 18" fill="none" xmlns="http://www.w3.org/2000/svg">
<path d="M10.3147 12.309C10.4151 12.4094 10.578 12.4094 10.6785 12.309L12.2766 10.7109C12.5475 10.4283 12.8751 10.1241 13.2047 9.78281C14.7352 8.19649 15.501 6.86348 15.501 5.6625C15.501 2.90747 13.2594 0.665894 10.5044 0.665894C7.74939 0.665894 5.50781 2.90747 5.50781 5.6625C5.50781 6.76275 6.13471 7.99307 7.41687 9.41117L10.3147 12.309ZM10.5044 2.83021C12.0663 2.83021 13.3367 4.10063 13.3367 5.6625C13.3367 5.8845 13.2506 6.17301 13.0824 6.5202C12.922 6.85077 12.6922 7.22045 12.4008 7.61752C12.1269 7.99111 11.8003 8.38525 11.457 8.75493C11.3516 8.86821 11.2446 8.97958 11.137 9.0879C10.7862 9.44092 10.2229 9.44063 9.87195 9.08778C9.76424 8.9795 9.65715 8.86816 9.55184 8.75493C9.20856 8.38525 8.88191 7.99111 8.60807 7.61752C8.31663 7.21947 8.08778 6.85077 7.92641 6.5202C7.75721 6.17301 7.67213 5.8845 7.67213 5.6625C7.67213 4.10063 8.94255 2.83021 10.5044 2.83021Z" fill="#3B4FFF"/>
<path d="M12.0616 14.0352C12.4521 14.4257 13.0882 14.4287 13.4787 14.0382L18.3989 9.11873C18.7551 8.76266 18.7885 8.19424 18.4801 7.79611C18.1112 7.31995 17.4052 7.27149 16.9793 7.69738L12.0587 12.618C11.6681 13.0085 11.6711 13.6447 12.0616 14.0352Z" fill="#3B4FFF"/>
<path d="M20.4672 10.3602C20.1011 9.88708 19.4031 9.84203 18.9791 10.2642L14.3469 14.8765C13.9549 15.2667 13.9562 15.9031 14.3474 16.2942C14.738 16.6849 15.3734 16.6867 15.7639 16.2959L20.3843 11.6718C20.738 11.3177 20.7735 10.756 20.4672 10.3602Z" fill="#3B4FFF"/>
<path d="M2.52563 7.80328C2.21751 8.20139 2.25113 8.76936 2.6071 9.12533L10.1893 16.7075C10.3769 16.8951 10.6329 17.0004 10.8981 17.0004C11.789 17.0004 12.2452 15.9233 11.6152 15.2933L4.02642 7.70453C3.60042 7.27853 2.89437 7.32686 2.52563 7.80328Z" fill="#3B4FFF"/>
<path d="M0.542293 10.3636C0.234001 10.7618 0.266975 11.3308 0.623147 11.6868L5.64653 16.7077C5.83405 16.8952 6.09021 17.0005 6.35534 17.0005C7.24624 17.0005 7.70334 15.9233 7.07338 15.2934L2.04386 10.2638C1.61791 9.83789 0.911072 9.88729 0.542293 10.3636Z" fill="#3B4FFF"/>
</svg>
