<?xml version="1.0" encoding="iso-8859-1"?>
<!-- Generator: Adobe Illustrator 19.0.0, SVG Export Plug-In . SVG Version: 6.00 Build 0)  -->
<svg version="1.1"  width="25" height="30" id="Capa_1" xmlns="http://www.w3.org/2000/svg" xmlns:xlink="http://www.w3.org/1999/xlink" x="0px" y="0px"
	 viewBox="0 0 466.158 466.158" style="enable-background:new 0 0 466.158 466.158;" xml:space="preserve">
<g>
	<g>
		<path d="M413.922,215.157h-23.843v-22.986c-0.051-16.577-13.494-29.994-30.071-30.014h-25.929V109.6
			c-0.178-16.728-13.686-30.249-30.414-30.443h-60.586V10c0-5.523-4.477-10-10-10c-5.523,0-10,4.477-10,10v69.157h-68.843
			c-16.542,0-30.157,13.9-30.157,30.443v132.557H52.236c-16.542,0-30.157,13.129-30.157,29.671v184.486
			c0.086,5.522,4.632,9.929,10.155,9.843c0.001,0,0.002,0,0.002,0h401.686c5.522,0.087,10.07-4.318,10.157-9.841
			c0-0.001,0-0.002,0-0.002V245.6C444.079,229.057,430.464,215.157,413.922,215.157z M124.079,446.157h-82V271.828
			c0.108-5.451,4.614-9.781,10.065-9.673c0.031,0.001,0.061,0.001,0.092,0.002h71.843V446.157z M314.079,446.157h-170V109.6
			c0.045-5.638,4.522-10.241,10.157-10.443h149.429c5.686,0.181,10.249,4.756,10.414,10.443V446.157z M424.079,446.157h-90v-43
			h49.414c5.523,0,10-4.477,10-10c0-5.523-4.477-10-10-10h-49.414v-29h49.414c5.523,0,10-4.477,10-10c0-5.523-4.477-10-10-10
			h-49.414v-28h49.414c5.523,0,10-4.477,10-10c0-5.523-4.477-10-10-10h-49.414v-104h25.929c5.537,0.007,10.033,4.477,10.071,10.014
			V225.6c0,5.523,4.406,9.557,9.929,9.557h33.914c5.635,0.202,10.112,4.805,10.157,10.443L424.079,446.157z"/>
	</g>
</g>
<g>
	<g>
		<path d="M97.807,289.157h-27.2c-5.523,0-10,4.477-10,10c0,5.523,4.477,10,10,10h27.2c5.523,0,10-4.477,10-10
			C107.807,293.634,103.33,289.157,97.807,289.157z"/>
	</g>
</g>
<g>
	<g>
		<path d="M97.808,337.157h-27.2c-5.523,0-10,4.477-10,10c0,5.523,4.477,10,10,10h27.2c5.523,0,10-4.477,10-10
			C107.808,341.634,103.331,337.157,97.808,337.157z"/>
	</g>
</g>
<g>
	<g>
		<path d="M97.808,386.157h-27.2c-5.523,0-10,4.477-10,10c0,5.523,4.477,10,10,10h27.2c5.523,0,10-4.477,10-10
			C107.808,390.634,103.331,386.157,97.808,386.157z"/>
	</g>
</g>
<g>
	<g>
		<path d="M181.079,146.628c-5.523,0-10,4.477-10,10v31.086c0,5.523,4.477,10,10,10s10-4.477,10-10v-31.086
			C191.079,151.105,186.602,146.628,181.079,146.628z"/>
	</g>
</g>
<g>
	<g>
		<path d="M230.079,146.628c-5.523,0-10,4.477-10,10v31.086c0,5.523,4.477,10,10,10c5.523,0,10-4.477,10-10v-31.086
			C240.079,151.105,235.602,146.628,230.079,146.628z"/>
	</g>
</g>
<g>
	<g>
		<path d="M278.079,146.628c-5.523,0-10,4.477-10,10v31.086c0,5.523,4.477,10,10,10c5.523,0,10-4.477,10-10v-31.086
			C288.079,151.105,283.602,146.628,278.079,146.628z"/>
	</g>
</g>
<g>
	<g>
		<path d="M181.079,243.771c-5.523,0-10,4.477-10,10v31.086c0,5.523,4.477,10,10,10s10-4.477,10-10v-31.086
			C191.079,248.248,186.602,243.771,181.079,243.771z"/>
	</g>
</g>
<g>
	<g>
		<path d="M230.079,243.771c-5.523,0-10,4.477-10,10v31.086c0,5.523,4.477,10,10,10c5.523,0,10-4.477,10-10v-31.086
			C240.079,248.248,235.602,243.771,230.079,243.771z"/>
	</g>
</g>
<g>
	<g>
		<path d="M278.079,243.771c-5.523,0-10,4.477-10,10v31.086c0,5.523,4.477,10,10,10c5.523,0,10-4.477,10-10v-31.086
			C288.079,248.248,283.602,243.771,278.079,243.771z"/>
	</g>
</g>
<g>
	<g>
		<path d="M181.079,340.914c-5.523,0-10,4.477-10,10V382c0,5.523,4.477,10,10,10s10-4.477,10-10v-31.086
			C191.079,345.391,186.602,340.914,181.079,340.914z"/>
	</g>
</g>
<g>
	<g>
		<path d="M230.079,340.914c-5.523,0-10,4.477-10,10V382c0,5.523,4.477,10,10,10c5.523,0,10-4.477,10-10v-31.086
			C240.079,345.391,235.602,340.914,230.079,340.914z"/>
	</g>
</g>
<g>
	<g>
		<path d="M278.079,340.914c-5.523,0-10,4.477-10,10V382c0,5.523,4.477,10,10,10c5.523,0,10-4.477,10-10v-31.086
			C288.079,345.391,283.602,340.914,278.079,340.914z"/>
	</g>
</g>
<g>
</g>
<g>
</g>
<g>
</g>
<g>
</g>
<g>
</g>
<g>
</g>
<g>
</g>
<g>
</g>
<g>
</g>
<g>
</g>
<g>
</g>
<g>
</g>
<g>
</g>
<g>
</g>
<g>
</g>
</svg>
