<svg width="23" height="23" viewBox="0 0 23 23" fill="none" xmlns="http://www.w3.org/2000/svg">
<path d="M19.8125 16.75H17.1875C16.946 16.75 16.75 16.554 16.75 16.3125C16.75 16.071 16.946 15.875 17.1875 15.875H19.8125C20.5361 15.875 21.125 15.2861 21.125 14.5625V8.4375C21.125 7.71388 20.5361 7.125 19.8125 7.125H3.1875C2.46388 7.125 1.875 7.71388 1.875 8.4375V14.5625C1.875 15.2861 2.46388 15.875 3.1875 15.875H5.8125C6.054 15.875 6.25 16.071 6.25 16.3125C6.25 16.554 6.054 16.75 5.8125 16.75H3.1875C1.98088 16.75 1 15.7683 1 14.5625V8.4375C1 7.23175 1.98088 6.25 3.1875 6.25H19.8125C21.0191 6.25 22 7.23175 22 8.4375V14.5625C22 15.7683 21.0191 16.75 19.8125 16.75Z" fill="white" stroke="white" stroke-width="0.2"/>
<path d="M13.6875 19.3752H8.4375C8.196 19.3752 8 19.1792 8 18.9377C8 18.6962 8.196 18.5002 8.4375 18.5002H13.6875C13.929 18.5002 14.125 18.6962 14.125 18.9377C14.125 19.1792 13.929 19.3752 13.6875 19.3752Z" fill="white" stroke="white" stroke-width="0.2"/>
<path d="M13.6875 17.625H8.4375C8.196 17.625 8 17.429 8 17.1875C8 16.946 8.196 16.75 8.4375 16.75H13.6875C13.929 16.75 14.125 16.946 14.125 17.1875C14.125 17.429 13.929 17.625 13.6875 17.625Z" fill="white" stroke="white" stroke-width="0.2"/>
<path d="M10.1875 15.8749H8.4375C8.196 15.8749 8 15.6789 8 15.4374C8 15.1959 8.196 14.9999 8.4375 14.9999H10.1875C10.429 14.9999 10.625 15.1959 10.625 15.4374C10.625 15.6789 10.429 15.8749 10.1875 15.8749Z" fill="white" stroke="white" stroke-width="0.2"/>
<path d="M17.1875 7.12501C16.946 7.12501 16.75 6.92901 16.75 6.68751V3.1875C16.75 2.46388 16.1611 1.875 15.4375 1.875H7.5625C6.83888 1.875 6.25 2.46388 6.25 3.1875V6.68751C6.25 6.92901 6.054 7.12501 5.8125 7.12501C5.571 7.12501 5.375 6.92901 5.375 6.68751V3.1875C5.375 1.98175 6.35588 1 7.5625 1H15.4375C16.6441 1 17.625 1.98175 17.625 3.1875V6.68751C17.625 6.92901 17.429 7.12501 17.1875 7.12501Z" fill="white" stroke="white" stroke-width="0.2"/>
<path d="M15.4375 21.9999H7.5625C6.35588 21.9999 5.375 21.0181 5.375 19.8124V12.8124C5.375 12.5709 5.571 12.3749 5.8125 12.3749H17.1875C17.429 12.3749 17.625 12.5709 17.625 12.8124V19.8124C17.625 21.0181 16.6441 21.9999 15.4375 21.9999ZM6.25 13.2499V19.8124C6.25 20.536 6.83888 21.1249 7.5625 21.1249H15.4375C16.1611 21.1249 16.75 20.536 16.75 19.8124V13.2499H6.25Z" fill="white" stroke="white" stroke-width="0.2"/>
</svg>
