<svg width="19" height="19" viewBox="0 0 19 19" fill="none" xmlns="http://www.w3.org/2000/svg">
<g clip-path="url(#clip0_653_6474)">
<path d="M2.37773 7.1198C2.37773 6.80693 2.37773 6.51089 2.37773 6.21485C2.37773 4.94455 2.37278 3.67426 2.37971 2.40396C2.38565 1.2802 3.12106 0.347525 4.20785 0.0841584C4.42957 0.0306931 4.66415 0.00693069 4.89279 0.00594059C7.87799 0.000990099 10.8632 0.00495049 13.8484 0C14.2958 0 14.663 0.141584 14.9738 0.467327C15.3717 0.885148 15.7864 1.28812 16.1962 1.69406C16.4862 1.98119 16.6277 2.31386 16.6228 2.73267C16.6089 4.10198 16.6178 5.47129 16.6178 6.84059V7.06634C17.0068 7.19109 17.3849 7.26139 17.7155 7.42871C18.5459 7.8495 18.9666 8.57129 18.9854 9.48713C19.0141 10.8644 18.9953 12.2416 18.9914 13.6198C18.9914 14.001 18.7498 14.2455 18.4004 14.2416C18.0491 14.2376 17.8204 13.9951 17.8194 13.6099C17.8165 12.2485 17.8175 10.8881 17.8194 9.52673C17.8194 8.79802 17.3523 8.31386 16.6188 8.30891C15.44 8.30198 14.2602 8.30693 13.0813 8.30693C9.54381 8.30693 6.0063 8.30891 2.46879 8.30495C1.99963 8.30495 1.59382 8.42772 1.36023 8.85842C1.25828 9.04554 1.18701 9.27525 1.18503 9.48614C1.17019 10.8554 1.1791 12.2248 1.17712 13.5941C1.17712 14.0861 0.823761 14.3455 0.370438 14.198C0.134868 14.1208 0.00520509 13.9099 0.0042153 13.5881C0.00322551 12.4495 -0.00172344 11.3119 0.00718467 10.1733C0.010154 9.77921 0.000256138 9.37525 0.0804291 8.99307C0.292244 7.98416 1.08012 7.3 2.10455 7.16832C2.18571 7.15743 2.26688 7.14059 2.37872 7.12079L2.37773 7.1198ZM15.4281 7.12376C15.435 7.06733 15.442 7.03564 15.442 7.00396C15.442 5.59406 15.4449 4.18317 15.437 2.77327C15.437 2.68119 15.3757 2.5703 15.3093 2.50198C14.9253 2.10495 14.5373 1.71089 14.1364 1.33168C14.0474 1.24752 13.8969 1.18515 13.7752 1.18515C12.2004 1.17525 10.6257 1.17822 9.0509 1.17921C7.61669 1.17921 6.18149 1.17426 4.74729 1.18218C4.01682 1.18614 3.55162 1.67426 3.55162 2.40495C3.55162 3.88119 3.55162 5.35743 3.55162 6.83366C3.55162 6.92871 3.55162 7.02376 3.55162 7.12574H15.4281V7.12376Z" fill="#363740"/>
<path d="M9.50421 11.8843C11.4501 11.8843 13.3961 11.8853 15.342 11.8843C15.8191 11.8843 16.2298 12.0209 16.4575 12.4694C16.5476 12.6457 16.6099 12.8585 16.6109 13.0556C16.6228 14.6476 16.6188 16.2387 16.6178 17.8308C16.6178 18.4427 16.2179 18.9011 15.6132 18.9853C15.5152 18.9991 15.4162 19.0001 15.3172 19.0001C11.4343 19.0001 7.55036 19.0001 3.66742 19.0021C3.19133 19.0021 2.77661 18.8754 2.54599 18.4269C2.45196 18.2437 2.38762 18.0229 2.38564 17.818C2.37277 16.2348 2.37772 14.6506 2.37871 13.0674C2.37871 12.4199 2.80036 11.9556 3.44472 11.8942C3.55953 11.8833 3.67534 11.8853 3.79114 11.8853C5.6955 11.8853 7.59985 11.8853 9.5052 11.8853L9.50421 11.8843ZM15.4261 17.815V13.0724H3.57339V17.815H15.4261Z" fill="#363740"/>
<path d="M16.9133 10.0913C16.9163 10.5596 16.4976 10.9774 16.0275 10.9744C15.5534 10.9724 15.1406 10.5556 15.1465 10.0863C15.1525 9.62393 15.5524 9.22591 16.0195 9.21502C16.4877 9.20512 16.9104 9.61898 16.9133 10.0903V10.0913Z" fill="#363740"/>
</g>
<defs>
<clipPath id="clip0_653_6474">
<rect width="19" height="19" fill="white"/>
</clipPath>
</defs>
</svg>
