<svg width="10" height="18" viewBox="0 0 10 18" fill="none" xmlns="http://www.w3.org/2000/svg">
<path d="M5.83333 17.3333H3.33333V14.8333H5.83333V17.3333ZM5.83333 13.1667H3.33333V13.1608C3.33333 11.7858 3.33333 10.5983 3.89333 9.76667C4.32901 9.21451 4.87111 8.75543 5.4875 8.41667C5.76583 8.23834 6.02833 8.06917 6.24917 7.89334C7.21698 7.14423 7.65214 5.89495 7.35917 4.70667C6.89559 3.59847 5.71605 2.96966 4.53758 3.20248C3.3591 3.43531 2.50731 4.46544 2.5 5.66667H0C0 2.90525 2.23858 0.666649 5 0.666649C6.92105 0.6609 8.67786 1.74913 9.52833 3.47167C10.2922 5.22678 9.99027 7.26369 8.75 8.72167C8.37291 9.13956 7.94965 9.51334 7.48833 9.83584C7.08465 10.1143 6.71639 10.4409 6.39167 10.8083C5.93274 11.5038 5.73494 12.3393 5.83333 13.1667Z" fill="#363740"/>
</svg>
