<svg width="18" height="18" viewBox="0 0 18 18" fill="none" xmlns="http://www.w3.org/2000/svg">
<path d="M0.333008 17.6665V10.0831H7.91634L4.43126 13.5714C5.63371 14.801 7.27984 15.4959 8.99967 15.4998C11.7507 15.4957 14.2013 13.7602 15.1183 11.1664H15.1378C15.2619 10.8139 15.3558 10.4515 15.4184 10.0831H17.5981C17.0522 14.4163 13.3672 17.6663 8.99967 17.6665H8.98884C6.69083 17.6733 4.4856 16.7605 2.86476 15.1314L0.333008 17.6665ZM2.57984 7.91643H0.400174C0.945903 3.58484 4.62842 0.335418 8.99426 0.333052H8.99967C11.2981 0.325698 13.5039 1.23859 15.1248 2.8681L17.6663 0.333052V7.91643H10.083L13.5735 4.4281C12.3698 3.19705 10.7214 2.50208 8.99967 2.49976C6.24861 2.50382 3.79803 4.23936 2.88101 6.8331H2.86151C2.73644 7.1853 2.64256 7.5478 2.58092 7.91643H2.57984Z" fill="#363740"/>
</svg>
