<svg width="23" height="27" viewBox="0 0 23 27" fill="none" xmlns="http://www.w3.org/2000/svg">
<g clip-path="url(#clip0_5499_19638)">
<path d="M-0.00052912 12.1012C-0.00052912 8.41495 -0.00373313 7.52025 -0.00052912 3.83404C0.0042769 2.0135 1.17695 0.541512 2.96639 0.126055C3.32363 0.0435866 3.70331 0.00935426 4.07177 0.00779824C6.90732 -0.00153786 9.74447 0.00624223 12.58 1.81607e-05C13.7863 -0.00309387 14.794 0.39369 15.6495 1.24016C17.636 3.20697 19.6417 5.1551 21.665 7.08456C22.5749 7.95282 23.0043 8.96267 22.9995 10.2013C22.9819 15.4528 22.9947 17.9113 22.9899 23.1629C22.9899 24.9834 21.8172 26.4554 20.0277 26.8724C19.6689 26.9564 19.2908 26.9922 18.9208 26.9922C13.9674 27 9.01556 27 4.06216 26.9953C1.65114 26.9953 0.00107289 25.3849 -0.00052912 23.0431C-0.00052912 19.3958 -0.00052912 15.7485 -0.00052912 12.1012ZM11.5067 1.8439C10.4766 1.8439 9.49296 1.8439 8.51093 1.8439C6.92654 1.8439 5.34216 1.83301 3.75778 1.85012C2.65239 1.86257 1.89464 2.64213 1.89464 3.71423C1.89464 11.1644 1.89304 15.8232 1.90426 23.2734C1.90426 23.5721 1.98115 23.8942 2.11252 24.1634C2.46656 24.8807 3.10576 25.1592 3.90676 25.1577C6.86246 25.153 9.81816 25.1561 12.7739 25.1561C14.9173 25.1561 17.0608 25.1655 19.2043 25.1499C20.3369 25.1421 21.0963 24.3688 21.0963 23.2749C21.0963 18.4637 21.0963 16.444 21.0963 11.6312C21.0963 11.4819 21.0963 11.3325 21.0963 11.1582C20.8928 11.1582 20.7487 11.1582 20.6029 11.1582C18.5924 11.1582 16.5818 11.1629 14.5713 11.1567C13.067 11.152 11.9793 10.3833 11.6252 9.06848C11.5451 8.77284 11.5131 8.45697 11.5115 8.14888C11.5019 6.06693 11.5067 3.98653 11.5067 1.84234V1.8439ZM21.0546 9.2941C20.8143 8.97668 20.6621 8.7106 20.4491 8.50209C18.3601 6.45749 16.263 4.42066 14.158 2.39006C13.9722 2.20956 13.7142 2.09908 13.4035 1.90147V2.43518C13.4035 4.33508 13.4035 6.23342 13.4035 8.13332C13.4035 9.0078 13.7207 9.31589 14.629 9.31745C16.5979 9.31745 18.5651 9.31745 20.534 9.31745C20.6621 9.31745 20.7903 9.30655 21.0546 9.29566V9.2941Z" fill="#363740"/>
<path d="M12.4448 16.8019C12.4448 18.6256 12.4496 20.4492 12.4432 22.2729C12.44 23.0167 11.8745 23.415 11.1552 23.1972C10.7675 23.0805 10.5528 22.7506 10.5512 22.2511C10.548 20.9316 10.5512 19.6136 10.5512 18.2941C10.5512 15.9539 10.548 15.6816 10.5528 13.3413C10.5528 12.5867 11.0991 12.1868 11.8216 12.3937C12.2317 12.5104 12.4448 12.8341 12.4464 13.3631C12.448 15.1992 12.4464 14.9658 12.4464 16.8035L12.4448 16.8019Z" fill="#363740"/>
<path d="M16.3019 18.5912C16.3019 17.3884 16.2971 18.2551 16.3035 17.0523C16.3083 16.3054 16.8642 15.9055 17.5851 16.1203C17.9872 16.2401 18.1971 16.5669 18.1971 17.099C18.1987 19.3755 18.1971 19.5809 18.1971 21.8573C18.1971 22.0129 18.2019 22.1685 18.1971 22.3226C18.1762 22.889 17.7934 23.2655 17.2455 23.2624C16.696 23.2593 16.3083 22.8843 16.3051 22.3148C16.2955 21.0731 16.3019 19.8329 16.3019 18.5912Z" fill="#363740"/>
<path d="M6.69135 20.527C6.69135 21.1089 6.69615 21.6909 6.69135 22.2713C6.68494 22.875 6.32128 23.2547 5.75417 23.2625C5.19187 23.2702 4.80258 22.8859 4.79777 22.2899C4.79137 21.0871 4.79137 20.6172 4.79777 19.416C4.80098 18.82 5.19187 18.4357 5.75417 18.4435C6.32128 18.4513 6.68494 18.8309 6.69135 19.4347C6.69775 20.0415 6.69135 19.9186 6.69135 20.5254V20.527Z" fill="#363740"/>
</g>
<defs>
<clipPath id="clip0_5499_19638">
<rect width="23" height="27" fill="white"/>
</clipPath>
</defs>
</svg>
