<svg width="104" height="72" viewBox="0 0 104 72" fill="none" xmlns="http://www.w3.org/2000/svg">
<rect x="0.5" y="0.5" width="103" height="71" rx="4.5" fill="#DFE1E8" stroke="#DFE1E8"/>
<rect x="75" y="47" width="25" height="20" rx="3" fill="white"/>
<rect x="4" y="4" width="67" height="17" rx="3" fill="white"/>
<rect x="4" y="26" width="67" height="17" rx="3" fill="white"/>
<rect x="75" y="4" width="25" height="17" rx="3" fill="white"/>
<rect x="75" y="26" width="25" height="17" rx="3" fill="white"/>
<path d="M11.8273 12.7695H10.3078V12.1562H11.8273C12.1216 12.1562 12.3599 12.1094 12.5422 12.0156C12.7245 11.9219 12.8573 11.7917 12.9406 11.625C13.0266 11.4583 13.0695 11.2682 13.0695 11.0547C13.0695 10.8594 13.0266 10.6758 12.9406 10.5039C12.8573 10.332 12.7245 10.194 12.5422 10.0898C12.3599 9.98307 12.1216 9.92969 11.8273 9.92969H10.4836V15H9.72969V9.3125H11.8273C12.257 9.3125 12.6203 9.38672 12.9172 9.53516C13.2141 9.68359 13.4393 9.88932 13.593 10.1523C13.7466 10.4128 13.8234 10.7109 13.8234 11.0469C13.8234 11.4115 13.7466 11.7227 13.593 11.9805C13.4393 12.2383 13.2141 12.4349 12.9172 12.5703C12.6203 12.7031 12.257 12.7695 11.8273 12.7695ZM15.5898 11.4375V15H14.8672V10.7734H15.5703L15.5898 11.4375ZM16.9102 10.75L16.9062 11.4219C16.8464 11.4089 16.7891 11.401 16.7344 11.3984C16.6823 11.3932 16.6224 11.3906 16.5547 11.3906C16.388 11.3906 16.2409 11.4167 16.1133 11.4688C15.9857 11.5208 15.8776 11.5938 15.7891 11.6875C15.7005 11.7812 15.6302 11.8932 15.5781 12.0234C15.5286 12.151 15.4961 12.2917 15.4805 12.4453L15.2773 12.5625C15.2773 12.3073 15.3021 12.0677 15.3516 11.8438C15.4036 11.6198 15.4831 11.4219 15.5898 11.25C15.6966 11.0755 15.832 10.9401 15.9961 10.8438C16.1628 10.7448 16.3607 10.6953 16.5898 10.6953C16.6419 10.6953 16.7018 10.7018 16.7695 10.7148C16.8372 10.7253 16.8841 10.737 16.9102 10.75ZM17.5086 12.9336V12.8438C17.5086 12.5391 17.5529 12.2565 17.6414 11.9961C17.7299 11.7331 17.8576 11.5052 18.0242 11.3125C18.1909 11.1172 18.3927 10.9661 18.6297 10.8594C18.8667 10.75 19.1323 10.6953 19.4266 10.6953C19.7234 10.6953 19.9904 10.75 20.2273 10.8594C20.4669 10.9661 20.6701 11.1172 20.8367 11.3125C21.006 11.5052 21.1349 11.7331 21.2234 11.9961C21.312 12.2565 21.3562 12.5391 21.3562 12.8438V12.9336C21.3562 13.2383 21.312 13.5208 21.2234 13.7812C21.1349 14.0417 21.006 14.2695 20.8367 14.4648C20.6701 14.6576 20.4682 14.8086 20.2312 14.918C19.9969 15.0247 19.7312 15.0781 19.4344 15.0781C19.1375 15.0781 18.8706 15.0247 18.6336 14.918C18.3966 14.8086 18.1935 14.6576 18.0242 14.4648C17.8576 14.2695 17.7299 14.0417 17.6414 13.7812C17.5529 13.5208 17.5086 13.2383 17.5086 12.9336ZM18.2312 12.8438V12.9336C18.2312 13.1445 18.256 13.3438 18.3055 13.5312C18.3549 13.7161 18.4292 13.8802 18.5281 14.0234C18.6297 14.1667 18.756 14.2799 18.907 14.3633C19.0581 14.444 19.2339 14.4844 19.4344 14.4844C19.6323 14.4844 19.8055 14.444 19.9539 14.3633C20.1049 14.2799 20.2299 14.1667 20.3289 14.0234C20.4279 13.8802 20.5021 13.7161 20.5516 13.5312C20.6036 13.3438 20.6297 13.1445 20.6297 12.9336V12.8438C20.6297 12.6354 20.6036 12.4388 20.5516 12.2539C20.5021 12.0664 20.4266 11.901 20.325 11.7578C20.226 11.612 20.101 11.4974 19.95 11.4141C19.8016 11.3307 19.6271 11.2891 19.4266 11.2891C19.2286 11.2891 19.0542 11.3307 18.9031 11.4141C18.7547 11.4974 18.6297 11.612 18.5281 11.7578C18.4292 11.901 18.3549 12.0664 18.3055 12.2539C18.256 12.4388 18.2312 12.6354 18.2312 12.8438ZM25.1266 14.1797V9H25.8531V15H25.1891L25.1266 14.1797ZM22.2828 12.9336V12.8516C22.2828 12.5286 22.3219 12.2357 22.4 11.9727C22.4807 11.707 22.594 11.4792 22.7398 11.2891C22.8883 11.099 23.0641 10.9531 23.2672 10.8516C23.4729 10.7474 23.7021 10.6953 23.9547 10.6953C24.2203 10.6953 24.4521 10.7422 24.65 10.8359C24.8505 10.9271 25.0198 11.0612 25.1578 11.2383C25.2984 11.4128 25.4091 11.6237 25.4898 11.8711C25.5706 12.1185 25.6266 12.3984 25.6578 12.7109V13.0703C25.6292 13.3802 25.5732 13.6589 25.4898 13.9062C25.4091 14.1536 25.2984 14.3646 25.1578 14.5391C25.0198 14.7135 24.8505 14.8477 24.65 14.9414C24.4495 15.0326 24.2151 15.0781 23.9469 15.0781C23.6995 15.0781 23.4729 15.0247 23.2672 14.918C23.0641 14.8112 22.8883 14.6615 22.7398 14.4688C22.594 14.276 22.4807 14.0495 22.4 13.7891C22.3219 13.526 22.2828 13.2409 22.2828 12.9336ZM23.0094 12.8516V12.9336C23.0094 13.1445 23.0302 13.3424 23.0719 13.5273C23.1161 13.7122 23.1839 13.875 23.275 14.0156C23.3661 14.1562 23.482 14.2669 23.6227 14.3477C23.7633 14.4258 23.9312 14.4648 24.1266 14.4648C24.3661 14.4648 24.5628 14.4141 24.7164 14.3125C24.8727 14.2109 24.9977 14.0768 25.0914 13.9102C25.1852 13.7435 25.2581 13.5625 25.3102 13.3672V12.4258C25.2789 12.2826 25.2333 12.1445 25.1734 12.0117C25.1161 11.8763 25.0406 11.7565 24.9469 11.6523C24.8557 11.5456 24.7424 11.4609 24.607 11.3984C24.4742 11.3359 24.3167 11.3047 24.1344 11.3047C23.9365 11.3047 23.7659 11.3464 23.6227 11.4297C23.482 11.5104 23.3661 11.6224 23.275 11.7656C23.1839 11.9062 23.1161 12.0703 23.0719 12.2578C23.0302 12.4427 23.0094 12.6406 23.0094 12.8516ZM29.7641 14.0234V10.7734H30.4906V15H29.7992L29.7641 14.0234ZM29.9008 13.1328L30.2016 13.125C30.2016 13.4062 30.1716 13.6667 30.1117 13.9062C30.0544 14.1432 29.9607 14.349 29.8305 14.5234C29.7003 14.6979 29.5297 14.8346 29.3187 14.9336C29.1078 15.0299 28.8513 15.0781 28.5492 15.0781C28.3435 15.0781 28.1547 15.0482 27.9828 14.9883C27.8135 14.9284 27.6677 14.8359 27.5453 14.7109C27.4229 14.5859 27.3279 14.4232 27.2602 14.2227C27.1951 14.0221 27.1625 13.7812 27.1625 13.5V10.7734H27.8852V13.5078C27.8852 13.6979 27.906 13.8555 27.9477 13.9805C27.9919 14.1029 28.0505 14.2005 28.1234 14.2734C28.199 14.3438 28.2823 14.3932 28.3734 14.4219C28.4672 14.4505 28.5635 14.4648 28.6625 14.4648C28.9698 14.4648 29.2133 14.4062 29.393 14.2891C29.5727 14.1693 29.7016 14.0091 29.7797 13.8086C29.8604 13.6055 29.9008 13.3802 29.9008 13.1328ZM33.4836 14.4844C33.6555 14.4844 33.8143 14.4492 33.9602 14.3789C34.106 14.3086 34.2258 14.2122 34.3195 14.0898C34.4133 13.9648 34.4667 13.8229 34.4797 13.6641H35.1672C35.1542 13.9141 35.0695 14.1471 34.9133 14.3633C34.7596 14.5768 34.5578 14.75 34.3078 14.8828C34.0578 15.013 33.7831 15.0781 33.4836 15.0781C33.1659 15.0781 32.8885 15.0221 32.6516 14.9102C32.4172 14.7982 32.2219 14.6445 32.0656 14.4492C31.912 14.2539 31.7961 14.0299 31.718 13.7773C31.6424 13.5221 31.6047 13.2526 31.6047 12.9688V12.8047C31.6047 12.5208 31.6424 12.2526 31.718 12C31.7961 11.7448 31.912 11.5195 32.0656 11.3242C32.2219 11.1289 32.4172 10.9753 32.6516 10.8633C32.8885 10.7513 33.1659 10.6953 33.4836 10.6953C33.8143 10.6953 34.1034 10.763 34.3508 10.8984C34.5982 11.0312 34.7922 11.2135 34.9328 11.4453C35.076 11.6745 35.1542 11.9349 35.1672 12.2266H34.4797C34.4667 12.0521 34.4172 11.8945 34.3312 11.7539C34.2479 11.6133 34.1333 11.5013 33.9875 11.418C33.8443 11.332 33.6763 11.2891 33.4836 11.2891C33.2622 11.2891 33.076 11.3333 32.925 11.4219C32.7766 11.5078 32.6581 11.625 32.5695 11.7734C32.4836 11.9193 32.4211 12.082 32.382 12.2617C32.3456 12.4388 32.3273 12.6198 32.3273 12.8047V12.9688C32.3273 13.1536 32.3456 13.3359 32.382 13.5156C32.4185 13.6953 32.4797 13.8581 32.5656 14.0039C32.6542 14.1497 32.7727 14.2669 32.9211 14.3555C33.0721 14.4414 33.2596 14.4844 33.4836 14.4844ZM37.9492 10.7734V11.3281H35.6641V10.7734H37.9492ZM36.4375 9.74609H37.1602V13.9531C37.1602 14.0964 37.1823 14.2044 37.2266 14.2773C37.2708 14.3503 37.3281 14.3984 37.3984 14.4219C37.4688 14.4453 37.5443 14.457 37.625 14.457C37.6849 14.457 37.7474 14.4518 37.8125 14.4414C37.8802 14.4284 37.931 14.418 37.9648 14.4102L37.9688 15C37.9115 15.0182 37.8359 15.0352 37.7422 15.0508C37.651 15.069 37.5404 15.0781 37.4102 15.0781C37.2331 15.0781 37.0703 15.043 36.9219 14.9727C36.7734 14.9023 36.6549 14.7852 36.5664 14.6211C36.4805 14.4544 36.4375 14.2305 36.4375 13.9492V9.74609ZM38.7273 12.9336V12.8438C38.7273 12.5391 38.7716 12.2565 38.8602 11.9961C38.9487 11.7331 39.0763 11.5052 39.243 11.3125C39.4096 11.1172 39.6115 10.9661 39.8484 10.8594C40.0854 10.75 40.351 10.6953 40.6453 10.6953C40.9422 10.6953 41.2091 10.75 41.4461 10.8594C41.6857 10.9661 41.8888 11.1172 42.0555 11.3125C42.2247 11.5052 42.3536 11.7331 42.4422 11.9961C42.5307 12.2565 42.575 12.5391 42.575 12.8438V12.9336C42.575 13.2383 42.5307 13.5208 42.4422 13.7812C42.3536 14.0417 42.2247 14.2695 42.0555 14.4648C41.8888 14.6576 41.687 14.8086 41.45 14.918C41.2156 15.0247 40.95 15.0781 40.6531 15.0781C40.3562 15.0781 40.0893 15.0247 39.8523 14.918C39.6154 14.8086 39.4122 14.6576 39.243 14.4648C39.0763 14.2695 38.9487 14.0417 38.8602 13.7812C38.7716 13.5208 38.7273 13.2383 38.7273 12.9336ZM39.45 12.8438V12.9336C39.45 13.1445 39.4747 13.3438 39.5242 13.5312C39.5737 13.7161 39.6479 13.8802 39.7469 14.0234C39.8484 14.1667 39.9747 14.2799 40.1258 14.3633C40.2768 14.444 40.4526 14.4844 40.6531 14.4844C40.851 14.4844 41.0242 14.444 41.1727 14.3633C41.3237 14.2799 41.4487 14.1667 41.5477 14.0234C41.6466 13.8802 41.7208 13.7161 41.7703 13.5312C41.8224 13.3438 41.8484 13.1445 41.8484 12.9336V12.8438C41.8484 12.6354 41.8224 12.4388 41.7703 12.2539C41.7208 12.0664 41.6453 11.901 41.5437 11.7578C41.4448 11.612 41.3198 11.4974 41.1687 11.4141C41.0203 11.3307 40.8458 11.2891 40.6453 11.2891C40.4474 11.2891 40.2729 11.3307 40.1219 11.4141C39.9734 11.4974 39.8484 11.612 39.7469 11.7578C39.6479 11.901 39.5737 12.0664 39.5242 12.2539C39.4747 12.4388 39.45 12.6354 39.45 12.8438Z" fill="#363740"/>
<path d="M11.8273 34.7695H10.3078V34.1562H11.8273C12.1216 34.1562 12.3599 34.1094 12.5422 34.0156C12.7245 33.9219 12.8573 33.7917 12.9406 33.625C13.0266 33.4583 13.0695 33.2682 13.0695 33.0547C13.0695 32.8594 13.0266 32.6758 12.9406 32.5039C12.8573 32.332 12.7245 32.194 12.5422 32.0898C12.3599 31.9831 12.1216 31.9297 11.8273 31.9297H10.4836V37H9.72969V31.3125H11.8273C12.257 31.3125 12.6203 31.3867 12.9172 31.5352C13.2141 31.6836 13.4393 31.8893 13.593 32.1523C13.7466 32.4128 13.8234 32.7109 13.8234 33.0469C13.8234 33.4115 13.7466 33.7227 13.593 33.9805C13.4393 34.2383 13.2141 34.4349 12.9172 34.5703C12.6203 34.7031 12.257 34.7695 11.8273 34.7695ZM15.5898 33.4375V37H14.8672V32.7734H15.5703L15.5898 33.4375ZM16.9102 32.75L16.9062 33.4219C16.8464 33.4089 16.7891 33.401 16.7344 33.3984C16.6823 33.3932 16.6224 33.3906 16.5547 33.3906C16.388 33.3906 16.2409 33.4167 16.1133 33.4688C15.9857 33.5208 15.8776 33.5938 15.7891 33.6875C15.7005 33.7812 15.6302 33.8932 15.5781 34.0234C15.5286 34.151 15.4961 34.2917 15.4805 34.4453L15.2773 34.5625C15.2773 34.3073 15.3021 34.0677 15.3516 33.8438C15.4036 33.6198 15.4831 33.4219 15.5898 33.25C15.6966 33.0755 15.832 32.9401 15.9961 32.8438C16.1628 32.7448 16.3607 32.6953 16.5898 32.6953C16.6419 32.6953 16.7018 32.7018 16.7695 32.7148C16.8372 32.7253 16.8841 32.737 16.9102 32.75ZM17.5086 34.9336V34.8438C17.5086 34.5391 17.5529 34.2565 17.6414 33.9961C17.7299 33.7331 17.8576 33.5052 18.0242 33.3125C18.1909 33.1172 18.3927 32.9661 18.6297 32.8594C18.8667 32.75 19.1323 32.6953 19.4266 32.6953C19.7234 32.6953 19.9904 32.75 20.2273 32.8594C20.4669 32.9661 20.6701 33.1172 20.8367 33.3125C21.006 33.5052 21.1349 33.7331 21.2234 33.9961C21.312 34.2565 21.3562 34.5391 21.3562 34.8438V34.9336C21.3562 35.2383 21.312 35.5208 21.2234 35.7812C21.1349 36.0417 21.006 36.2695 20.8367 36.4648C20.6701 36.6576 20.4682 36.8086 20.2312 36.918C19.9969 37.0247 19.7312 37.0781 19.4344 37.0781C19.1375 37.0781 18.8706 37.0247 18.6336 36.918C18.3966 36.8086 18.1935 36.6576 18.0242 36.4648C17.8576 36.2695 17.7299 36.0417 17.6414 35.7812C17.5529 35.5208 17.5086 35.2383 17.5086 34.9336ZM18.2312 34.8438V34.9336C18.2312 35.1445 18.256 35.3438 18.3055 35.5312C18.3549 35.7161 18.4292 35.8802 18.5281 36.0234C18.6297 36.1667 18.756 36.2799 18.907 36.3633C19.0581 36.444 19.2339 36.4844 19.4344 36.4844C19.6323 36.4844 19.8055 36.444 19.9539 36.3633C20.1049 36.2799 20.2299 36.1667 20.3289 36.0234C20.4279 35.8802 20.5021 35.7161 20.5516 35.5312C20.6036 35.3438 20.6297 35.1445 20.6297 34.9336V34.8438C20.6297 34.6354 20.6036 34.4388 20.5516 34.2539C20.5021 34.0664 20.4266 33.901 20.325 33.7578C20.226 33.612 20.101 33.4974 19.95 33.4141C19.8016 33.3307 19.6271 33.2891 19.4266 33.2891C19.2286 33.2891 19.0542 33.3307 18.9031 33.4141C18.7547 33.4974 18.6297 33.612 18.5281 33.7578C18.4292 33.901 18.3549 34.0664 18.3055 34.2539C18.256 34.4388 18.2312 34.6354 18.2312 34.8438ZM25.1266 36.1797V31H25.8531V37H25.1891L25.1266 36.1797ZM22.2828 34.9336V34.8516C22.2828 34.5286 22.3219 34.2357 22.4 33.9727C22.4807 33.707 22.594 33.4792 22.7398 33.2891C22.8883 33.099 23.0641 32.9531 23.2672 32.8516C23.4729 32.7474 23.7021 32.6953 23.9547 32.6953C24.2203 32.6953 24.4521 32.7422 24.65 32.8359C24.8505 32.9271 25.0198 33.0612 25.1578 33.2383C25.2984 33.4128 25.4091 33.6237 25.4898 33.8711C25.5706 34.1185 25.6266 34.3984 25.6578 34.7109V35.0703C25.6292 35.3802 25.5732 35.6589 25.4898 35.9062C25.4091 36.1536 25.2984 36.3646 25.1578 36.5391C25.0198 36.7135 24.8505 36.8477 24.65 36.9414C24.4495 37.0326 24.2151 37.0781 23.9469 37.0781C23.6995 37.0781 23.4729 37.0247 23.2672 36.918C23.0641 36.8112 22.8883 36.6615 22.7398 36.4688C22.594 36.276 22.4807 36.0495 22.4 35.7891C22.3219 35.526 22.2828 35.2409 22.2828 34.9336ZM23.0094 34.8516V34.9336C23.0094 35.1445 23.0302 35.3424 23.0719 35.5273C23.1161 35.7122 23.1839 35.875 23.275 36.0156C23.3661 36.1562 23.482 36.2669 23.6227 36.3477C23.7633 36.4258 23.9312 36.4648 24.1266 36.4648C24.3661 36.4648 24.5628 36.4141 24.7164 36.3125C24.8727 36.2109 24.9977 36.0768 25.0914 35.9102C25.1852 35.7435 25.2581 35.5625 25.3102 35.3672V34.4258C25.2789 34.2826 25.2333 34.1445 25.1734 34.0117C25.1161 33.8763 25.0406 33.7565 24.9469 33.6523C24.8557 33.5456 24.7424 33.4609 24.607 33.3984C24.4742 33.3359 24.3167 33.3047 24.1344 33.3047C23.9365 33.3047 23.7659 33.3464 23.6227 33.4297C23.482 33.5104 23.3661 33.6224 23.275 33.7656C23.1839 33.9062 23.1161 34.0703 23.0719 34.2578C23.0302 34.4427 23.0094 34.6406 23.0094 34.8516ZM29.7641 36.0234V32.7734H30.4906V37H29.7992L29.7641 36.0234ZM29.9008 35.1328L30.2016 35.125C30.2016 35.4062 30.1716 35.6667 30.1117 35.9062C30.0544 36.1432 29.9607 36.349 29.8305 36.5234C29.7003 36.6979 29.5297 36.8346 29.3187 36.9336C29.1078 37.0299 28.8513 37.0781 28.5492 37.0781C28.3435 37.0781 28.1547 37.0482 27.9828 36.9883C27.8135 36.9284 27.6677 36.8359 27.5453 36.7109C27.4229 36.5859 27.3279 36.4232 27.2602 36.2227C27.1951 36.0221 27.1625 35.7812 27.1625 35.5V32.7734H27.8852V35.5078C27.8852 35.6979 27.906 35.8555 27.9477 35.9805C27.9919 36.1029 28.0505 36.2005 28.1234 36.2734C28.199 36.3438 28.2823 36.3932 28.3734 36.4219C28.4672 36.4505 28.5635 36.4648 28.6625 36.4648C28.9698 36.4648 29.2133 36.4062 29.393 36.2891C29.5727 36.1693 29.7016 36.0091 29.7797 35.8086C29.8604 35.6055 29.9008 35.3802 29.9008 35.1328ZM33.4836 36.4844C33.6555 36.4844 33.8143 36.4492 33.9602 36.3789C34.106 36.3086 34.2258 36.2122 34.3195 36.0898C34.4133 35.9648 34.4667 35.8229 34.4797 35.6641H35.1672C35.1542 35.9141 35.0695 36.1471 34.9133 36.3633C34.7596 36.5768 34.5578 36.75 34.3078 36.8828C34.0578 37.013 33.7831 37.0781 33.4836 37.0781C33.1659 37.0781 32.8885 37.0221 32.6516 36.9102C32.4172 36.7982 32.2219 36.6445 32.0656 36.4492C31.912 36.2539 31.7961 36.0299 31.718 35.7773C31.6424 35.5221 31.6047 35.2526 31.6047 34.9688V34.8047C31.6047 34.5208 31.6424 34.2526 31.718 34C31.7961 33.7448 31.912 33.5195 32.0656 33.3242C32.2219 33.1289 32.4172 32.9753 32.6516 32.8633C32.8885 32.7513 33.1659 32.6953 33.4836 32.6953C33.8143 32.6953 34.1034 32.763 34.3508 32.8984C34.5982 33.0312 34.7922 33.2135 34.9328 33.4453C35.076 33.6745 35.1542 33.9349 35.1672 34.2266H34.4797C34.4667 34.0521 34.4172 33.8945 34.3312 33.7539C34.2479 33.6133 34.1333 33.5013 33.9875 33.418C33.8443 33.332 33.6763 33.2891 33.4836 33.2891C33.2622 33.2891 33.076 33.3333 32.925 33.4219C32.7766 33.5078 32.6581 33.625 32.5695 33.7734C32.4836 33.9193 32.4211 34.082 32.382 34.2617C32.3456 34.4388 32.3273 34.6198 32.3273 34.8047V34.9688C32.3273 35.1536 32.3456 35.3359 32.382 35.5156C32.4185 35.6953 32.4797 35.8581 32.5656 36.0039C32.6542 36.1497 32.7727 36.2669 32.9211 36.3555C33.0721 36.4414 33.2596 36.4844 33.4836 36.4844ZM37.9492 32.7734V33.3281H35.6641V32.7734H37.9492ZM36.4375 31.7461H37.1602V35.9531C37.1602 36.0964 37.1823 36.2044 37.2266 36.2773C37.2708 36.3503 37.3281 36.3984 37.3984 36.4219C37.4688 36.4453 37.5443 36.457 37.625 36.457C37.6849 36.457 37.7474 36.4518 37.8125 36.4414C37.8802 36.4284 37.931 36.418 37.9648 36.4102L37.9688 37C37.9115 37.0182 37.8359 37.0352 37.7422 37.0508C37.651 37.069 37.5404 37.0781 37.4102 37.0781C37.2331 37.0781 37.0703 37.043 36.9219 36.9727C36.7734 36.9023 36.6549 36.7852 36.5664 36.6211C36.4805 36.4544 36.4375 36.2305 36.4375 35.9492V31.7461ZM38.7273 34.9336V34.8438C38.7273 34.5391 38.7716 34.2565 38.8602 33.9961C38.9487 33.7331 39.0763 33.5052 39.243 33.3125C39.4096 33.1172 39.6115 32.9661 39.8484 32.8594C40.0854 32.75 40.351 32.6953 40.6453 32.6953C40.9422 32.6953 41.2091 32.75 41.4461 32.8594C41.6857 32.9661 41.8888 33.1172 42.0555 33.3125C42.2247 33.5052 42.3536 33.7331 42.4422 33.9961C42.5307 34.2565 42.575 34.5391 42.575 34.8438V34.9336C42.575 35.2383 42.5307 35.5208 42.4422 35.7812C42.3536 36.0417 42.2247 36.2695 42.0555 36.4648C41.8888 36.6576 41.687 36.8086 41.45 36.918C41.2156 37.0247 40.95 37.0781 40.6531 37.0781C40.3562 37.0781 40.0893 37.0247 39.8523 36.918C39.6154 36.8086 39.4122 36.6576 39.243 36.4648C39.0763 36.2695 38.9487 36.0417 38.8602 35.7812C38.7716 35.5208 38.7273 35.2383 38.7273 34.9336ZM39.45 34.8438V34.9336C39.45 35.1445 39.4747 35.3438 39.5242 35.5312C39.5737 35.7161 39.6479 35.8802 39.7469 36.0234C39.8484 36.1667 39.9747 36.2799 40.1258 36.3633C40.2768 36.444 40.4526 36.4844 40.6531 36.4844C40.851 36.4844 41.0242 36.444 41.1727 36.3633C41.3237 36.2799 41.4487 36.1667 41.5477 36.0234C41.6466 35.8802 41.7208 35.7161 41.7703 35.5312C41.8224 35.3438 41.8484 35.1445 41.8484 34.9336V34.8438C41.8484 34.6354 41.8224 34.4388 41.7703 34.2539C41.7208 34.0664 41.6453 33.901 41.5437 33.7578C41.4448 33.612 41.3198 33.4974 41.1687 33.4141C41.0203 33.3307 40.8458 33.2891 40.6453 33.2891C40.4474 33.2891 40.2729 33.3307 40.1219 33.4141C39.9734 33.4974 39.8484 33.612 39.7469 33.7578C39.6479 33.901 39.5737 34.0664 39.5242 34.2539C39.4747 34.4388 39.45 34.6354 39.45 34.8438Z" fill="#363740"/>
<path d="M86.416 12.2012H87.1895C87.5684 12.2012 87.8809 12.1387 88.127 12.0137C88.377 11.8848 88.5625 11.7109 88.6836 11.4922C88.8086 11.2695 88.8711 11.0195 88.8711 10.7422C88.8711 10.4141 88.8164 10.1387 88.707 9.91602C88.5977 9.69336 88.4336 9.52539 88.2148 9.41211C87.9961 9.29883 87.7188 9.24219 87.3828 9.24219C87.0781 9.24219 86.8086 9.30273 86.5742 9.42383C86.3438 9.54102 86.1621 9.70898 86.0293 9.92773C85.9004 10.1465 85.8359 10.4043 85.8359 10.7012H84.752C84.752 10.2676 84.8613 9.87305 85.0801 9.51758C85.2988 9.16211 85.6055 8.87891 86 8.66797C86.3984 8.45703 86.8594 8.35156 87.3828 8.35156C87.8984 8.35156 88.3496 8.44336 88.7363 8.62695C89.123 8.80664 89.4238 9.07617 89.6387 9.43555C89.8535 9.79102 89.9609 10.2344 89.9609 10.7656C89.9609 10.9805 89.9102 11.2109 89.8086 11.457C89.7109 11.6992 89.5566 11.9258 89.3457 12.1367C89.1387 12.3477 88.8691 12.5215 88.5371 12.6582C88.2051 12.791 87.8066 12.8574 87.3418 12.8574H86.416V12.2012ZM86.416 13.0918V12.4414H87.3418C87.8848 12.4414 88.334 12.5059 88.6895 12.6348C89.0449 12.7637 89.3242 12.9355 89.5273 13.1504C89.7344 13.3652 89.8789 13.6016 89.9609 13.8594C90.0469 14.1133 90.0898 14.3672 90.0898 14.6211C90.0898 15.0195 90.0215 15.373 89.8848 15.6816C89.752 15.9902 89.5625 16.252 89.3164 16.4668C89.0742 16.6816 88.7891 16.8438 88.4609 16.9531C88.1328 17.0625 87.7754 17.1172 87.3887 17.1172C87.0176 17.1172 86.668 17.0645 86.3398 16.959C86.0156 16.8535 85.7285 16.7012 85.4785 16.502C85.2285 16.2988 85.0332 16.0508 84.8926 15.7578C84.752 15.4609 84.6816 15.123 84.6816 14.7441H85.7656C85.7656 15.041 85.8301 15.3008 85.959 15.5234C86.0918 15.7461 86.2793 15.9199 86.5215 16.0449C86.7676 16.166 87.0566 16.2266 87.3887 16.2266C87.7207 16.2266 88.0059 16.1699 88.2441 16.0566C88.4863 15.9395 88.6719 15.7637 88.8008 15.5293C88.9336 15.2949 89 15 89 14.6445C89 14.2891 88.9258 13.998 88.7773 13.7715C88.6289 13.541 88.418 13.3711 88.1445 13.2617C87.875 13.1484 87.5566 13.0918 87.1895 13.0918H86.416Z" fill="#363740"/>
<path d="M86.2051 34.9395L85.3379 34.7168L85.7656 30.4688H90.1426V31.4707H86.6855L86.4277 33.791C86.584 33.7012 86.7812 33.6172 87.0195 33.5391C87.2617 33.4609 87.5391 33.4219 87.8516 33.4219C88.2461 33.4219 88.5996 33.4902 88.9121 33.627C89.2246 33.7598 89.4902 33.9512 89.709 34.2012C89.9316 34.4512 90.1016 34.752 90.2188 35.1035C90.3359 35.4551 90.3945 35.8477 90.3945 36.2812C90.3945 36.6914 90.3379 37.0684 90.2246 37.4121C90.1152 37.7559 89.9492 38.0566 89.7266 38.3145C89.5039 38.5684 89.2227 38.7656 88.8828 38.9062C88.5469 39.0469 88.1504 39.1172 87.6934 39.1172C87.3496 39.1172 87.0234 39.0703 86.7148 38.9766C86.4102 38.8789 86.1367 38.7324 85.8945 38.5371C85.6562 38.3379 85.4609 38.0918 85.3086 37.7988C85.1602 37.502 85.0664 37.1543 85.0273 36.7559H86.0586C86.1055 37.0762 86.1992 37.3457 86.3398 37.5645C86.4805 37.7832 86.6641 37.9492 86.8906 38.0625C87.1211 38.1719 87.3887 38.2266 87.6934 38.2266C87.9512 38.2266 88.1797 38.1816 88.3789 38.0918C88.5781 38.002 88.7461 37.873 88.8828 37.7051C89.0195 37.5371 89.123 37.334 89.1934 37.0957C89.2676 36.8574 89.3047 36.5898 89.3047 36.293C89.3047 36.0234 89.2676 35.7734 89.1934 35.543C89.1191 35.3125 89.0078 35.1113 88.8594 34.9395C88.7148 34.7676 88.5371 34.6348 88.3262 34.541C88.1152 34.4434 87.873 34.3945 87.5996 34.3945C87.2363 34.3945 86.9609 34.4434 86.7734 34.541C86.5898 34.6387 86.4004 34.7715 86.2051 34.9395Z" fill="#363740"/>
<path d="M91.4681 57.226L82.9995 57.2426L91.4681 57.226Z" fill="#363740"/>
<path d="M87.2255 61.4686L87.2422 53M91.4681 57.226L82.9995 57.2426" stroke="#363740" stroke-linecap="round"/>
</svg>
