<?xml version="1.0" standalone="no"?>
<!DOCTYPE svg PUBLIC "-//W3C//DTD SVG 20010904//EN"
 "http://www.w3.org/TR/2001/REC-SVG-20010904/DTD/svg10.dtd">
<svg version="1.0" xmlns="http://www.w3.org/2000/svg"
 width="895.000000pt" height="895.000000pt" viewBox="0 0 895.000000 895.000000"
 preserveAspectRatio="xMidYMid meet">
<metadata>
Created by potrace 1.11, written by Peter Selinger 2001-2013
</metadata>
<g transform="translate(0.000000,895.000000) scale(0.100000,-0.100000)"
fill="#000000" stroke="none">
<path d="M4387 8234 c-1 -1 -40 -5 -87 -8 -247 -17 -527 -94 -766 -212 -548
-271 -958 -770 -1114 -1358 -16 -61 -32 -129 -35 -151 -4 -22 -8 -47 -10 -55
-2 -8 -7 -42 -11 -75 -3 -33 -8 -73 -10 -90 -5 -41 -5 -294 0 -325 3 -14 8
-43 11 -65 14 -85 18 -102 42 -185 63 -218 180 -451 351 -700 63 -91 196 -267
244 -321 13 -15 41 -48 62 -75 51 -63 1398 -1414 1410 -1414 17 0 1251 1245
1379 1391 230 264 378 465 498 679 73 130 84 153 126 250 89 210 126 379 127
585 2 311 -54 578 -181 865 -77 173 -187 351 -302 490 -55 66 -227 238 -300
299 -94 78 -270 190 -405 256 -115 57 -354 146 -426 158 -14 3 -59 12 -100 20
-93 19 -124 24 -225 33 -73 6 -274 12 -278 8z m331 -948 c238 -51 440 -162
612 -335 177 -177 282 -376 335 -632 23 -110 23 -253 0 -343 -50 -199 -220
-501 -435 -775 -25 -32 -54 -70 -65 -85 -11 -16 -25 -33 -30 -40 -6 -6 -37
-42 -69 -81 -191 -228 -557 -595 -593 -595 -19 0 -427 410 -542 545 -237 276
-429 553 -541 775 -95 190 -125 307 -116 454 20 301 140 567 353 781 87 88
242 198 328 235 28 12 68 30 90 39 55 25 186 59 270 70 95 13 314 6 403 -13z"/>
<path d="M6205 4210 c-753 -753 -1367 -1371 -1365 -1374 43 -48 596 -596 601
-596 4 0 605 598 1336 1329 l1329 1329 -169 219 c-93 120 -176 227 -185 238
-9 11 -50 64 -91 118 -41 54 -78 100 -81 102 -3 2 -622 -612 -1375 -1365z"/>
<path d="M1103 5233 l-261 -338 1809 -1810 1809 -1810 605 -1 c333 -1 605 1
605 3 0 9 -4288 4293 -4297 4293 -4 0 -126 -152 -270 -337z"/>
<path d="M381 4298 c-78 -101 -147 -190 -154 -198 -7 -8 -34 -44 -62 -80 -27
-36 -52 -67 -55 -70 -7 -7 -95 -123 -103 -136 -4 -7 500 -519 1258 -1276
l1264 -1265 606 0 607 0 -1604 1604 c-881 881 -1606 1603 -1610 1603 -3 0 -70
-82 -147 -182z"/>
<path d="M8139 4202 c-152 -152 -739 -738 -1304 -1300 l-1028 -1024 224 -226
c123 -125 260 -262 305 -304 l80 -78 1267 1269 1267 1269 -165 214 c-91 117
-200 258 -243 313 -92 119 -114 145 -121 145 -3 -1 -130 -125 -282 -278z"/>
</g>
</svg>
