<svg width="13" height="10" viewBox="0 0 13 10" fill="none" xmlns="http://www.w3.org/2000/svg">
<g clip-path="url(#clip0_16177_41391)">
<path d="M12.5435 4.52282C12.5379 4.51699 12.5331 4.51033 12.5276 4.5045C12.134 4.09394 11.7405 3.68338 11.3477 3.27199C11.182 3.09877 11.0171 2.92555 10.8506 2.754L9.43649 1.27582V4.37209C8.84855 4.37209 8.26141 4.37209 7.67347 4.37209C7.66152 4.37209 7.65037 4.37209 7.63842 4.37209C7.52848 4.37209 7.43846 4.33628 7.37871 4.23218C7.35003 4.18221 7.31099 4.13807 7.27673 4.09061C6.81706 3.46019 6.35738 2.82978 5.8977 2.19937C5.50176 1.65556 5.10661 1.11093 4.70908 0.568787C4.56488 0.372252 4.37448 0.23068 4.16097 0.130746C3.95224 0.0333111 3.72758 0.000832778 3.49974 0C2.56923 0 1.63793 0 0.706625 0C0.653248 0 0.600668 0.00416389 0.548088 0.0108261C0.351312 0.0366422 0.194368 0.124084 0.085225 0.304797C-0.0764983 0.571286 -0.000814957 0.961859 0.250932 1.13674C0.380788 1.22668 0.526578 1.25416 0.677945 1.255C1.38459 1.25666 2.09203 1.255 2.79867 1.255C3.0313 1.255 3.26313 1.2525 3.49575 1.25583C3.59534 1.2575 3.69651 1.26499 3.76662 1.35826C3.81362 1.42072 3.86461 1.48068 3.91082 1.54397C4.23187 1.98368 4.55213 2.42422 4.87239 2.86476C5.16955 3.27365 5.4675 3.68171 5.76307 4.09227C5.96701 4.37625 6.17893 4.65523 6.37491 4.94587C6.3996 4.98251 6.40359 5.01083 6.3765 5.04747C6.12475 5.39224 5.8754 5.73867 5.62445 6.08344C5.35358 6.45653 5.08192 6.82878 4.81105 7.20187C4.46689 7.67572 4.12353 8.1504 3.78016 8.62425C3.73874 8.68171 3.68616 8.72252 3.61605 8.73085C3.56666 8.73668 3.51726 8.74334 3.46707 8.74334C2.54772 8.74334 1.62837 8.74334 0.709015 8.74334C0.654045 8.74334 0.599872 8.7475 0.545698 8.755C0.352905 8.78081 0.198352 8.86576 0.0892083 9.0423C-0.0892449 9.33294 0.0095417 9.74767 0.301918 9.91173C0.417435 9.97668 0.543308 9.9975 0.672368 9.99833C1.08265 10.0008 1.49214 9.99917 1.90242 9.99833C2.44336 9.99833 2.98429 9.99917 3.52523 9.9975C3.68456 9.9975 3.8431 9.98168 3.99686 9.93338C4.28047 9.84427 4.51788 9.68271 4.69713 9.43621C5.02774 8.98151 5.35358 8.52432 5.6826 8.06879C5.94869 7.7007 6.21717 7.33511 6.48246 6.96619C6.78041 6.55147 7.07279 6.13258 7.38508 5.72951C7.42491 5.67871 7.47431 5.64624 7.53645 5.63874C7.58584 5.63291 7.63523 5.62625 7.68463 5.62625C8.16581 5.62708 8.647 5.62625 9.12818 5.62625C9.23095 5.62625 9.33372 5.62625 9.43649 5.62625V8.72252L9.43968 8.71919L12.5427 5.47552L13 4.9975L12.5443 4.52115L12.5435 4.52282Z" fill="white"/>
</g>
<defs>
<clipPath id="clip0_16177_41391">
<rect width="13" height="10" fill="white"/>
</clipPath>
</defs>
</svg>
