<svg width="23" height="20" viewBox="0 0 23 20" fill="none" xmlns="http://www.w3.org/2000/svg">
<g clip-path="url(#clip0_14897_130534)">
<path d="M14.1089 9.95113C13.2363 9.84368 12.3649 9.73623 11.4922 9.62878C9.46688 9.37925 7.44153 9.12854 5.41619 8.87902C4.85005 8.80977 4.28151 8.75366 3.71898 8.66412C3.58797 8.64382 3.41969 8.53876 3.36199 8.42653C2.28982 6.3229 1.22727 4.21689 0.173124 2.10729C-0.300458 1.15695 0.241637 0.0955879 1.26333 0.0048525C1.55541 -0.021413 1.88475 0.0621591 2.16001 0.177966C7.81655 2.57529 13.4695 4.98336 19.1224 7.39024C20.0876 7.80094 21.0504 8.21641 22.018 8.62233C22.5986 8.86588 22.9988 9.23957 23 9.90934C23 10.603 22.6539 11.0698 22.0192 11.3396C15.3758 14.1727 8.73246 17.0082 2.08909 19.8413C1.44002 20.1183 0.83662 20.0263 0.424339 19.5977C-0.0396275 19.1166 -0.126171 18.4695 0.193558 17.8344C1.23929 15.7534 2.28982 13.6749 3.33074 11.5915C3.4281 11.3957 3.55191 11.3289 3.76346 11.3038C5.79 11.0626 7.81535 10.8071 9.8407 10.5564C11.2013 10.3881 12.562 10.2233 13.9226 10.0562C13.9863 10.0478 14.0501 10.0311 14.1126 10.018C14.1126 9.9953 14.1101 9.97262 14.1101 9.94874L14.1089 9.95113Z" fill="#9899AA"/>
</g>
<defs>
<clipPath id="clip0_14897_130534">
<rect width="23" height="20" fill="white"/>
</clipPath>
</defs>
</svg>
