<svg width="13" height="12" viewBox="0 0 13 12" fill="none" xmlns="http://www.w3.org/2000/svg">
<path d="M12.9462 4.02195C12.9103 3.94061 12.8655 3.8683 12.8028 3.80504L9.21655 0.1898C8.96552 -0.0632666 8.51724 -0.0632666 8.26621 0.1898C8.14069 0.316333 8.06897 0.488057 8.06897 0.668819C8.06897 0.84958 8.14069 1.0213 8.26621 1.14784L10.7048 3.6062H2.46552C1.82 3.6062 1.18345 3.8683 0.726207 4.33828C0.268966 4.80826 0 5.44093 0 6.09167V11C0 11.1808 0.0717241 11.3525 0.197241 11.479C0.322759 11.6056 0.493103 11.6779 0.672414 11.6779C0.851724 11.6779 1.02207 11.6056 1.14759 11.479C1.2731 11.3525 1.34483 11.1808 1.34483 11V6.09167C1.34483 5.79342 1.46138 5.5042 1.67655 5.29632C1.89172 5.08844 2.16966 4.96191 2.46552 4.96191H10.7048L8.26621 7.42027C8.14069 7.5468 8.06897 7.71853 8.06897 7.89929C8.06897 8.08005 8.14069 8.25178 8.26621 8.37831C8.51724 8.63138 8.96552 8.63138 9.21655 8.37831L12.8028 4.76307C12.8655 4.69981 12.9103 4.6275 12.9462 4.54616C12.9821 4.46482 13 4.37443 13 4.28405C13 4.19367 12.9821 4.10329 12.9462 4.02195Z" fill="#363740"/>
</svg>
