<svg width="15" height="15" viewBox="0 0 15 15" fill="none" xmlns="http://www.w3.org/2000/svg">
<path id="Vector" d="M14.1685 0.348772C14.0118 0.193185 13.8153 0.083808 13.6005 0.0326617C13.3856 -0.0184845 13.1609 -0.00942043 12.9509 0.0588579L0.832489 4.10108C0.60774 4.1723 0.409136 4.30852 0.261762 4.49254C0.114388 4.67657 0.0248538 4.90014 0.00446813 5.13501C-0.0159176 5.36989 0.0337595 5.60555 0.147225 5.81221C0.260691 6.01887 0.432855 6.18727 0.641974 6.29614L5.66991 8.78112L8.15488 13.8256C8.25476 14.0231 8.4076 14.1888 8.5963 14.3044C8.78501 14.42 9.00214 14.4808 9.22342 14.48H9.30625C9.54323 14.4625 9.76948 14.3742 9.95561 14.2265C10.1417 14.0788 10.2791 13.8785 10.3499 13.6517L14.4501 1.56641C14.5234 1.35761 14.5358 1.13232 14.4859 0.916751C14.436 0.701183 14.326 0.504213 14.1685 0.348772ZM1.34605 5.24417L11.9238 1.71551L6.05093 7.58833L1.34605 5.24417ZM9.2814 13.1712L6.92896 8.46635L12.8018 2.59353L9.2814 13.1712Z" fill="#363740"/>
</svg>
