<svg width="201" height="201" viewBox="0 0 201 201" fill="none" xmlns="http://www.w3.org/2000/svg">
<circle cx="100.5" cy="100.5" r="100.5" fill="#F8F8FF"/>
<g clip-path="url(#clip0_0_1)">
<path d="M100.91 146.995C99.4184 146.995 97.9266 147.009 96.4347 146.995C93.5841 146.958 91.7847 145.139 91.7755 142.309C91.7755 140.664 91.7388 139.014 91.7893 137.37C91.8122 136.579 91.546 136.134 90.8436 135.739C86.3543 133.23 83.5633 129.389 82.7692 124.344C81.1075 113.796 89.1957 105.746 97.922 105.553C101.043 105.485 104.192 105.213 107.291 105.976C114.342 107.713 119.396 114.108 119.451 121.376C119.497 127.772 116.646 132.518 111.197 135.739C110.509 136.147 110.233 136.579 110.256 137.37C110.307 139.092 110.284 140.815 110.27 142.538C110.247 145.028 108.438 146.885 105.955 146.99C105.877 146.99 105.804 146.995 105.726 146.995C104.119 146.995 102.512 146.995 100.906 146.995H100.91ZM110.389 116.212V127.179C113.07 124.225 113.038 118.753 110.389 116.212ZM91.725 116.098C89.0304 119.314 89.0855 124.831 91.725 127.051V116.098Z" fill="#24397C"/>
<path d="M73.4674 142.396C71.9021 142.396 70.3322 142.419 68.7669 142.392C66.0632 142.346 64.0848 140.49 64.2821 137.82C64.4703 135.28 63.8185 133.713 61.5187 132.183C55.8175 128.384 53.6784 121.005 55.8083 114.338C57.8694 107.893 63.8644 103.362 70.6077 103.243C73.2012 103.197 75.8039 103.055 78.3929 103.427C80.4356 103.716 82.2855 104.502 84.0895 105.444C84.9342 105.885 84.9801 106.275 84.2823 106.964C80.2887 110.893 78.3608 115.781 78.2001 121.285C78.0716 125.696 79.3385 129.803 81.8862 133.497C83.3413 135.606 83.0659 137.94 82.1203 140.136C81.4639 141.657 80.0592 142.355 78.4021 142.392C76.7587 142.429 75.1154 142.401 73.472 142.401L73.4674 142.396ZM64.1628 113.888C61.5325 116.672 61.5417 122.172 64.1628 124.804V113.888Z" fill="#24397C"/>
<path d="M128.524 142.396C126.918 142.396 125.311 142.428 123.709 142.387C121.152 142.323 119.422 140.453 119.298 137.903C119.197 135.849 119.688 134.131 120.826 132.344C125.646 124.777 124.746 114.021 117.902 107.065C116.938 106.087 116.984 105.976 118.219 105.306C120.684 103.969 123.301 103.183 126.114 103.224C129.048 103.27 131.999 102.953 134.905 103.684C141.873 105.434 146.941 111.839 147.001 119.015C147.056 125.457 144.196 130.226 138.706 133.465C138.059 133.846 137.769 134.255 137.806 135.004C137.861 135.996 137.834 136.993 137.815 137.99C137.783 140.411 135.988 142.3 133.569 142.382C131.889 142.437 130.204 142.391 128.524 142.391V142.396ZM137.893 124.818C140.588 122.424 140.588 116.291 137.893 113.911V124.818Z" fill="#24397C"/>
<path d="M100.949 101.046C95.8445 101.019 91.7545 96.8516 91.7774 91.6921C91.8004 86.6153 96.0235 82.4988 101.16 82.5493C106.26 82.5952 110.309 86.7807 110.272 91.9632C110.235 96.9665 106.021 101.078 100.949 101.051V101.046Z" fill="#24397C"/>
<path d="M81.5822 90.6357C81.5822 95.1244 78.0017 98.731 73.5215 98.7448C68.9909 98.7585 65.3736 95.1382 65.3828 90.5989C65.392 86.1378 69.0184 82.5358 73.5032 82.5449C77.9788 82.5541 81.5822 86.1607 81.5868 90.6357H81.5822Z" fill="#24397C"/>
<path d="M136.668 90.7002C136.659 95.1613 133.028 98.7587 128.543 98.7449C124.022 98.7358 120.446 95.097 120.469 90.5348C120.492 86.092 124.16 82.513 128.649 82.5451C133.111 82.5773 136.677 86.2069 136.668 90.7002Z" fill="#24397C"/>
<path d="M128.247 76.9682C126.756 76.9682 125.259 76.9866 123.767 76.9636C122.826 76.9499 122.142 76.4169 122.156 75.5532C122.216 71.8731 121.766 68.17 122.587 64.5266C123.45 60.6995 125.374 57.4559 128.105 54.6717C128.771 53.9917 129.418 53.2888 130.106 52.6272C130.529 52.2229 130.501 51.9196 130.084 51.5291C129.23 50.7205 128.413 49.8751 127.586 49.0344C127.058 48.5014 126.769 47.8995 127.104 47.1415C127.426 46.4156 128.004 46.1445 128.771 46.0939C134.059 45.7448 139.347 45.3772 144.635 45.0143C145.939 44.927 146.747 45.6115 146.669 46.9163C146.512 49.5811 146.283 52.2366 146.058 54.8968C145.838 57.4926 145.571 60.0839 145.356 62.6751C145.287 63.4791 145.002 64.081 144.222 64.3842C143.446 64.6874 142.868 64.3337 142.349 63.8145C141.536 63.0059 140.715 62.2111 139.93 61.3795C139.53 60.9568 139.241 60.9476 138.842 61.3795C138.126 62.1467 137.359 62.8635 136.629 63.6169C135.105 65.1928 134.513 67.1316 134.486 69.268C134.463 71.0828 134.486 72.893 134.481 74.7078C134.481 76.5731 134.068 76.9774 132.163 76.9774C130.859 76.9774 129.556 76.9774 128.257 76.9774L128.247 76.9682ZM142.018 59.0823C142.119 59.0042 142.225 58.9261 142.326 58.848C142.349 58.7239 142.39 58.6045 142.399 58.4804C142.679 55.347 142.95 52.2137 143.24 49.0803C143.295 48.4784 142.923 48.4692 142.523 48.4922C141.224 48.5565 139.921 48.6163 138.622 48.7036C136.606 48.8414 134.596 48.9976 132.581 49.1446C132.516 49.2273 132.452 49.3146 132.388 49.3973C132.838 49.7832 133.32 50.137 133.737 50.5597C134.784 51.6164 134.798 52.4388 133.77 53.5369C132.636 54.7406 131.47 55.9122 130.318 57.1021C128.661 58.8112 127.361 60.75 126.48 62.9737C125.167 66.2955 125.291 69.7688 125.323 73.2376C125.328 73.7981 125.75 73.7797 126.14 73.7797C127.573 73.7797 129.005 73.7522 130.432 73.7935C131.126 73.8119 131.305 73.5133 131.291 72.8792C131.259 71.4779 131.282 70.0767 131.286 68.68C131.286 65.9049 132.273 63.5159 134.164 61.5127C135.431 60.1712 136.749 58.8801 138.066 57.5891C138.966 56.7024 139.82 56.6886 140.733 57.5753C141.206 58.0348 141.592 58.5815 142.018 59.0869V59.0823Z" fill="#24397C"/>
</g>
<defs>
<clipPath id="clip0_0_1">
<rect width="92" height="102" fill="white" transform="translate(55 45)"/>
</clipPath>
</defs>
</svg>