<svg width="39" height="39" viewBox="0 0 39 39" fill="none" xmlns="http://www.w3.org/2000/svg">
<rect width="39" height="39" rx="5" fill="#7F96E0"/>
<g clip-path="url(#clip0_1301_16172)">
<path d="M29.9969 15.5786C29.8809 17.4175 29.6591 19.247 28.9902 20.9833C27.6313 24.5126 25.4163 27.4306 21.9115 29.3763C21.7599 29.46 21.6027 29.5353 21.45 29.617C20.4924 30.1319 19.5437 30.1183 18.5672 29.6369C16.9965 28.8634 15.6097 27.8743 14.476 26.5933C12.8763 24.7847 11.5731 22.8118 10.8586 20.5375C10.29 18.7247 10.027 16.8649 10.0002 14.9788C9.98794 14.0955 10.5331 13.5544 11.368 13.2289C13.7269 12.3079 16.0846 11.3847 18.4423 10.4627C18.6898 10.3653 18.9417 10.2753 19.1859 10.1717C19.7432 9.93515 20.2939 9.95085 20.8536 10.1706C23.3974 11.1702 25.9436 12.1655 28.4897 13.1609C29.6881 13.6297 30.037 14.1332 29.9969 15.3441C29.9946 15.4226 29.9969 15.5011 29.9969 15.5786ZM28.0092 15.4582C27.9557 15.2887 28.1564 15.0301 27.7829 14.8867C25.2491 13.9113 22.7252 12.9149 20.1947 11.9342C20.0833 11.8913 19.9194 11.8892 19.809 11.9321C17.2696 12.917 14.7346 13.9113 12.1963 14.8993C12.0358 14.9621 11.9633 15.0385 11.9811 15.206C12.0792 16.105 12.1272 17.0093 12.2699 17.9021C12.6478 20.2622 13.563 22.4225 15.0913 24.3441C16.3454 25.9213 17.827 27.2443 19.7622 28.0701C19.9272 28.1402 20.0576 28.1454 20.2271 28.0732C21.975 27.3311 23.3629 26.1673 24.5401 24.7774C26.8365 22.0656 27.8888 18.932 28.0092 15.4593V15.4582Z" fill="white"/>
<path d="M18.9578 20.8423C19.9689 19.713 20.9521 18.615 21.9353 17.5171C22.0312 17.4104 22.1248 17.3036 22.2218 17.1979C22.5975 16.7876 23.2284 16.7311 23.6621 17.0692C24.0578 17.3769 24.1091 17.9797 23.7479 18.3858C23.137 19.0735 22.5105 19.7485 21.8896 20.4289C21.2085 21.1751 20.5296 21.9224 19.8451 22.6655C19.6021 22.9292 19.3145 23.1511 18.9143 23.08C18.7081 23.0433 18.474 22.968 18.3279 22.8371C17.6368 22.2196 16.9701 21.5791 16.299 20.9427C15.9 20.5649 15.9044 20.0186 16.3035 19.6366C16.6903 19.265 17.2399 19.2765 17.6613 19.6617C18.0849 20.0489 18.5107 20.4341 18.96 20.8412L18.9578 20.8423Z" fill="white"/>
</g>
<defs>
<clipPath id="clip0_1301_16172">
<rect width="20" height="20" fill="white" transform="translate(10 10)"/>
</clipPath>
</defs>
</svg>
