<svg width="39" height="39" viewBox="0 0 39 39" fill="none" xmlns="http://www.w3.org/2000/svg">
<rect width="39" height="39" rx="5" fill="#7596FF"/>
<g clip-path="url(#clip0_1534_32992)">
<path d="M32.396 24.612C32.5925 24.612 32.7514 24.6108 32.9109 24.612C33.3971 24.6176 33.6765 24.8248 33.6806 25.1814C33.6847 25.5368 33.4012 25.7564 32.9232 25.762C32.611 25.7657 32.2981 25.7626 31.9858 25.7626C31.7023 25.7626 31.4188 25.7626 31.1374 25.7626C31.0073 28.0272 29.1379 29.2566 27.2486 29.2485C25.306 29.2404 23.5112 27.972 23.3866 25.7769H18.2351C18.1331 27.9887 16.2664 29.246 14.3745 29.2497C12.4352 29.2535 10.585 27.9639 10.4898 25.8172C10.1015 25.7006 9.70165 25.6292 9.3531 25.4667C8.45744 25.0487 7.99522 24.3397 7.99043 23.4428C7.97057 19.9513 7.97468 16.4592 7.98632 12.9671C7.99043 11.667 9.12439 10.6535 10.6021 10.6479C14.4231 10.6336 18.244 10.6324 22.065 10.6479C23.5913 10.6541 24.678 11.6862 24.6822 13.0669C24.6828 13.413 24.6822 13.7585 24.6822 14.135C24.8081 14.135 24.9122 14.1338 25.0156 14.135C25.8805 14.1462 26.7467 14.1456 27.6109 14.1754C28.0806 14.1915 28.46 14.4185 28.7585 14.7342C29.8151 15.8513 30.8628 16.9759 31.9125 18.0986C32.2419 18.4502 32.4056 18.8466 32.4015 19.3192C32.3871 20.984 32.396 22.6495 32.396 24.3143V24.612ZM23.3989 24.612C23.4037 24.5221 23.4099 24.4594 23.4099 24.3968C23.4106 20.5654 23.4126 16.734 23.4058 12.9026C23.4058 12.7401 23.3496 12.5651 23.2702 12.4181C23.0175 11.9505 22.571 11.791 22.015 11.7917C18.2297 11.796 14.4443 11.7941 10.6589 11.7941C10.5699 11.7941 10.4802 11.7941 10.3912 11.8003C9.74752 11.8481 9.25244 12.3307 9.25244 12.9168C9.25107 16.4412 9.25107 19.9656 9.25244 23.4893C9.25244 24.0755 9.74958 24.5518 10.3919 24.6083C10.6281 24.6287 10.7623 24.5884 10.8808 24.3651C11.5813 23.0446 12.7605 22.3139 14.3745 22.2996C15.883 22.286 17.071 22.9131 17.777 24.1325C18.0153 24.5438 18.2742 24.6275 18.7323 24.6207C20.2757 24.5971 21.8205 24.612 23.3982 24.612H23.3989ZM16.9813 25.7607C16.9772 24.4948 15.7892 23.4285 14.3929 23.4366C12.9892 23.4447 11.8203 24.5109 11.8244 25.7787C11.8285 27.0447 13.0166 28.1109 14.4128 28.1029C15.8166 28.0948 16.9854 27.0286 16.9813 25.7607ZM24.6822 25.7762C24.6856 27.0422 25.8709 28.1091 27.2678 28.1029C28.6709 28.0967 29.8418 27.0304 29.8384 25.7632C29.835 24.4972 28.6497 23.4304 27.2527 23.4366C25.8497 23.4428 24.6787 24.509 24.6822 25.7762ZM24.7048 19.9513V23.1103C24.7356 23.1029 24.7452 23.1029 24.752 23.0992C24.7808 23.0806 24.8088 23.0601 24.8376 23.0415C26.0222 22.2593 27.3062 22.0801 28.6832 22.5453C29.7021 22.8895 30.3759 23.5656 30.8299 24.4396C30.8895 24.5543 30.9347 24.6653 31.1052 24.5872V19.9519H24.7048V19.9513ZM24.6965 15.2875V18.7722H30.8779C30.8642 18.7381 30.8621 18.7213 30.8518 18.7101C29.824 17.6346 28.801 16.5553 27.7608 15.4891C27.6561 15.3818 27.4541 15.2999 27.2945 15.2962C26.4386 15.2776 25.5819 15.2875 24.6958 15.2875H24.6965Z" fill="white"/>
</g>
<defs>
<clipPath id="clip0_1534_32992">
<rect width="25.7045" height="18.6136" fill="white" transform="translate(7.97656 10.6367)"/>
</clipPath>
</defs>
</svg>
