<svg width="39" height="39" viewBox="0 0 39 39" fill="none" xmlns="http://www.w3.org/2000/svg">
<rect width="39" height="39" rx="5" fill="#7F96E0"/>
<g clip-path="url(#clip0_1301_16142)">
<path d="M19.1061 7.00805C25.6327 6.77331 31.3134 11.7003 31.9404 18.2848C32.6156 25.3753 27.3951 31.309 20.7563 31.9389C13.4202 32.6366 7.67819 27.2024 7.05903 20.7339C6.35253 13.3422 12.0841 7.17367 19.1061 7.00805ZM30.4622 19.4963C30.4127 13.3943 25.6067 8.55865 19.4893 8.543C13.454 8.52735 8.54503 13.4608 8.54112 19.4885C8.5359 25.5318 13.4553 30.4809 19.4971 30.4588C25.6184 30.4366 30.4166 25.5944 30.4622 19.4963Z" fill="white"/>
<path d="M27.3146 19.5076C27.2312 23.8295 23.9568 27.2893 19.5105 27.2959C15.0707 27.3024 11.7025 23.8465 11.7051 19.4933C11.7077 15.1714 15.0447 11.7116 19.4922 11.7051C23.932 11.6986 27.2377 15.1558 27.3146 19.5076ZM22.5294 14.0447C20.9105 12.9557 18.0141 12.9844 16.4759 14.0499C17.0625 14.8676 17.6452 15.6879 18.2409 16.4977C18.2826 16.5538 18.4338 16.5747 18.5146 16.5486C19.1768 16.3412 19.8325 16.3412 20.4959 16.5499C20.5781 16.576 20.7384 16.5316 20.7866 16.4651C21.3719 15.6709 21.9415 14.865 22.5294 14.0447ZM20.2743 25.684C22.1892 25.6109 24.4391 24.0082 25.1534 22.1733C24.2005 21.8485 23.249 21.5225 22.2935 21.2082C22.227 21.186 22.0967 21.233 22.0523 21.2904C21.6274 21.8381 21.1021 22.2346 20.4321 22.4328C20.3656 22.4523 20.2835 22.5658 20.2822 22.6362C20.273 23.643 20.2757 24.6511 20.2757 25.684H20.2743ZM18.7271 25.697C18.7271 24.6537 18.7323 23.6352 18.7167 22.618C18.7167 22.5436 18.585 22.4341 18.4938 22.4054C17.8811 22.2137 17.3923 21.8498 17.0091 21.3451C16.8852 21.1808 16.7757 21.1704 16.5971 21.2382C16.2126 21.383 15.819 21.5056 15.4292 21.6373C14.8974 21.8172 14.3668 21.9985 13.835 22.1798C14.5272 23.9443 16.8605 25.6461 18.7258 25.6983L18.7271 25.697ZM13.3136 20.6501C13.384 20.6501 13.4179 20.6579 13.4466 20.6501C14.3655 20.3566 15.2845 20.0658 16.1983 19.7567C16.2817 19.728 16.3664 19.5768 16.3756 19.4763C16.4316 18.8373 16.5789 18.2309 16.9687 17.7119C17.1003 17.5371 17.0781 17.425 16.9543 17.2646C16.4642 16.6281 15.9871 15.9813 15.5048 15.3397C15.4097 15.2132 15.3119 15.0906 15.1946 14.9393C13.5952 16.5603 13.0229 18.4565 13.3136 20.6514V20.6501ZM23.8043 14.9328C23.1903 15.7752 22.605 16.5695 22.0354 17.3741C21.9911 17.4367 22.0237 17.5997 22.0771 17.6767C22.4473 18.214 22.6207 18.8112 22.6155 19.4542C22.6141 19.6654 22.6911 19.732 22.8722 19.7867C23.4314 19.9563 23.9854 20.1454 24.5433 20.324C24.9109 20.4427 25.2798 20.5588 25.6891 20.6879C25.9668 18.4591 25.4349 16.5486 23.8056 14.9315L23.8043 14.9328ZM21.0773 19.5207C21.0799 18.5856 20.4399 17.9323 19.5157 17.927C18.5954 17.9231 17.9332 18.5635 17.928 19.462C17.9228 20.4166 18.5654 21.0726 19.5066 21.0713C20.4203 21.0713 21.0747 20.4244 21.0773 19.5194V19.5207Z" fill="white"/>
</g>
<defs>
<clipPath id="clip0_1301_16142">
<rect width="25" height="25" fill="white" transform="translate(7 7)"/>
</clipPath>
</defs>
</svg>
