<svg width="39" height="39" viewBox="0 0 39 39" fill="none" xmlns="http://www.w3.org/2000/svg">
<rect width="39" height="39" rx="5" fill="#7F96E0"/>
<g clip-path="url(#clip0_1301_16087)">
<path d="M10.1001 6.5H26.2615C26.6593 6.58588 27.0466 6.69846 27.3794 6.94798C28.0659 7.46096 28.3534 8.16079 28.3534 9.00104C28.3534 13.4878 28.3534 17.9746 28.3534 22.4614V22.7736H30.653V15.2275H29.5305V14.0751H33V15.2484H31.8288V23.9655H28.3755C28.365 24.0073 28.3569 24.0236 28.3569 24.0386C28.3558 24.7466 28.3569 25.4557 28.3523 26.1637C28.3442 27.2836 27.7748 28.1111 26.7474 28.4802C26.6117 28.5289 26.6036 28.6032 26.6036 28.7158C26.6059 29.563 26.6036 30.4102 26.6036 31.2563V31.5H9.74869C9.74869 30.5762 9.74521 29.6721 9.75217 28.7692C9.75333 28.5997 9.71274 28.515 9.5388 28.4535C9.32775 28.3804 9.12134 28.2678 8.9416 28.1343C8.28874 27.6457 8 26.9726 8 26.1671C8 24.4402 8 22.7144 8 20.9875C8 16.98 8.00232 12.9737 8 8.96623C8 8.14106 8.2957 7.46096 8.959 6.95495C9.2976 6.6973 9.69303 6.58356 10.1001 6.5ZM9.16657 17.5429C9.16657 20.4084 9.16657 23.275 9.16657 26.1405C9.16657 26.9737 9.63273 27.4484 10.4618 27.4496C15.6036 27.4519 20.7453 27.4519 25.887 27.4496C26.7138 27.4496 27.1869 26.9691 27.1869 26.1416C27.1869 20.4176 27.1869 14.6937 27.1869 8.96971C27.1869 8.13757 26.7172 7.66754 25.887 7.66754C20.7453 7.66754 15.6036 7.66754 10.4618 7.66754C10.325 7.66754 10.1835 7.67218 10.0513 7.70468C9.48662 7.84395 9.16773 8.29425 9.16773 8.94418C9.16657 11.8096 9.16773 14.6763 9.16773 17.5417L9.16657 17.5429ZM25.4278 30.3417V28.6252H10.9269V30.3417H25.4289H25.4278Z" fill="white"/>
<path d="M10.9219 19.2871V9.4292H25.4239V19.2871H10.9219ZM24.262 10.5875H12.0815V18.1138H24.2609V10.5875H24.262Z" fill="white"/>
<path d="M20.8125 21.0615H25.4243V22.1966H20.8125V21.0615Z" fill="white"/>
</g>
<defs>
<clipPath id="clip0_1301_16087">
<rect width="25" height="25" fill="white" transform="translate(8 6.5)"/>
</clipPath>
</defs>
</svg>
