<svg width="39" height="39" viewBox="0 0 39 39" fill="none" xmlns="http://www.w3.org/2000/svg">
<rect width="39" height="39" rx="5" fill="#7596FF"/>
<path d="M14.099 17.161C14.2257 17.0343 14.3903 16.971 14.593 16.971H16.094C16.322 16.971 16.436 17.047 16.436 17.199C16.436 17.275 16.3853 17.3637 16.284 17.465L12.959 20.657C12.8577 20.7583 12.807 20.8597 12.807 20.961C12.807 21.037 12.8387 21.1193 12.902 21.208L16.341 26.452C16.3917 26.5407 16.417 26.623 16.417 26.699C16.417 26.7623 16.3853 26.8193 16.322 26.87C16.2713 26.908 16.1953 26.927 16.094 26.927H14.745C14.5423 26.927 14.384 26.8383 14.27 26.661L11.61 22.557C11.534 22.4177 11.4327 22.348 11.306 22.348C11.2173 22.348 11.1287 22.3923 11.04 22.481L10.166 23.317C10.0267 23.4437 9.957 23.6083 9.957 23.811V26.528C9.957 26.6547 9.919 26.756 9.843 26.832C9.77967 26.8953 9.68467 26.927 9.558 26.927H8.399C8.27233 26.927 8.171 26.8953 8.095 26.832C8.03167 26.756 8 26.6547 8 26.528V13.399C8 13.2723 8.03167 13.1773 8.095 13.114C8.171 13.038 8.27233 13 8.399 13H9.558C9.68467 13 9.77967 13.038 9.843 13.114C9.919 13.1773 9.957 13.2723 9.957 13.399V20.448C9.957 20.5493 9.976 20.6317 10.014 20.695C10.0647 20.7583 10.1217 20.79 10.185 20.79C10.2737 20.79 10.3623 20.7457 10.451 20.657L14.099 17.161Z" fill="white"/>
<path d="M28.9213 16.724C29.8333 16.724 30.6186 16.9963 31.2773 17.541C31.9486 18.073 32.2843 19.0863 32.2843 20.581V26.528C32.2843 26.6547 32.2463 26.756 32.1703 26.832C32.1069 26.8953 32.0119 26.927 31.8853 26.927H30.7453C30.6186 26.927 30.5173 26.8953 30.4413 26.832C30.3779 26.756 30.3463 26.6547 30.3463 26.528V20.904C30.3463 20.22 30.1943 19.6627 29.8903 19.232C29.5863 18.7887 29.1746 18.567 28.6553 18.567C28.1993 18.567 27.7686 18.776 27.3633 19.194C26.9579 19.5993 26.7046 20.2327 26.6033 21.094V26.528C26.6033 26.6547 26.5653 26.756 26.4893 26.832C26.4259 26.8953 26.3309 26.927 26.2043 26.927H24.9693C24.8426 26.927 24.7413 26.8953 24.6653 26.832C24.6019 26.756 24.5703 26.6547 24.5703 26.528V20.904C24.5703 20.1567 24.4246 19.5803 24.1333 19.175C23.8419 18.7697 23.4303 18.567 22.8983 18.567C22.6069 18.567 22.3093 18.6683 22.0053 18.871C21.7013 19.061 21.4416 19.365 21.2263 19.783C21.0109 20.1883 20.8779 20.7013 20.8273 21.322V26.528C20.8273 26.6547 20.7893 26.756 20.7133 26.832C20.6499 26.8953 20.5549 26.927 20.4283 26.927H19.2123C19.0856 26.927 18.9843 26.8953 18.9083 26.832C18.8449 26.756 18.8133 26.6547 18.8133 26.528V17.37C18.8133 17.2433 18.8449 17.1483 18.9083 17.085C18.9843 17.009 19.0856 16.971 19.2123 16.971H20.4283C20.5549 16.971 20.6499 17.009 20.7133 17.085C20.7893 17.1483 20.8273 17.2433 20.8273 17.37V17.408C20.8273 17.6107 20.8716 17.712 20.9603 17.712C21.0489 17.712 21.1376 17.655 21.2263 17.541C21.5049 17.2623 21.8153 17.0597 22.1573 16.933C22.5119 16.7937 22.8476 16.724 23.1643 16.724C24.4309 16.724 25.3493 17.1483 25.9193 17.997C25.9953 18.1363 26.0839 18.206 26.1853 18.206C26.2613 18.206 26.3373 18.1617 26.4133 18.073C27.1353 17.1737 27.9713 16.724 28.9213 16.724Z" fill="white"/>
</svg>