<svg width="39" height="39" viewBox="0 0 39 39" fill="none" xmlns="http://www.w3.org/2000/svg">
<rect width="39" height="39" rx="5" fill="#7F96E0"/>
<g clip-path="url(#clip0_1301_16221)">
<path d="M27.6947 26.8261C27.6947 26.9553 27.6947 27.0552 27.6947 27.1551C27.6947 28.4397 27.6962 29.7235 27.6947 31.0081C27.6932 31.9449 27.1428 32.4993 26.2122 32.5C20.2968 32.5 14.3814 32.5008 8.46592 32.5C7.55488 32.5 7.00075 31.9411 7.00075 31.0231C7 23.007 7 14.9915 7 6.97613C7 6.05815 7.55413 5.5 8.46667 5.5C14.3821 5.5 20.2975 5.5 26.213 5.5C27.1428 5.5 27.6932 6.05439 27.6939 6.9919C27.6954 8.27647 27.6939 9.56029 27.6939 10.8449V11.1739C27.8266 11.1739 27.9279 11.1739 28.0283 11.1739C29.519 11.1739 31.0097 11.1724 32.5003 11.1739C33.4601 11.1754 33.9993 11.7148 33.9993 12.6711C33.9993 16.8899 33.9993 21.1086 33.9993 25.3274C33.9993 26.2822 33.4586 26.8231 32.4996 26.8246C31.0089 26.8269 29.5182 26.8246 28.0276 26.8246C27.9271 26.8246 27.8266 26.8246 27.6939 26.8246L27.6947 26.8261ZM26.7949 11.1746V10.9072C26.7949 9.60461 26.7956 8.30126 26.7949 6.99866C26.7949 6.54869 26.6411 6.4007 26.18 6.4007C20.293 6.4007 14.4069 6.4007 8.51991 6.4007C8.04152 6.4007 7.9013 6.54043 7.9013 7.01895C7.9013 15.0051 7.9013 22.9919 7.9013 30.978C7.9013 31.4581 8.04152 31.6 8.51691 31.6C14.4039 31.6 20.29 31.6 26.177 31.6C26.6501 31.6 26.7949 31.4543 26.7949 30.9765C26.7956 29.692 26.7949 28.4082 26.7949 27.1236C26.7949 27.0327 26.7859 26.9425 26.7799 26.8254H26.4574C24.8265 26.8254 23.1957 26.8261 21.564 26.8254C20.584 26.8246 20.0509 26.2912 20.0509 25.3147C20.0509 21.1056 20.0509 16.8974 20.0509 12.6883C20.0509 11.7095 20.5817 11.1761 21.561 11.1754C23.1919 11.1739 24.8228 11.1754 26.4544 11.1754C26.5557 11.1754 26.6569 11.1754 26.7956 11.1754L26.7949 11.1746ZM33.1002 19.003C33.1002 16.9041 33.1002 14.8045 33.1002 12.7056C33.1002 12.2076 32.9675 12.0753 32.4673 12.0753C28.8412 12.0753 25.2142 12.0753 21.588 12.0753C21.0841 12.0753 20.9507 12.2068 20.9507 12.7011C20.9507 16.8996 20.9507 21.0974 20.9507 25.2959C20.9507 25.7939 21.0834 25.9269 21.5828 25.9269C25.209 25.9269 28.8359 25.9269 32.4621 25.9269C32.9735 25.9269 33.1002 25.7962 33.1002 25.2726C33.1002 23.1827 33.1002 21.0929 33.1002 19.0038V19.003Z" fill="white"/>
<path d="M11.7697 17.9414C11.3198 17.9414 10.8706 17.9452 10.4207 17.9399C10.0646 17.9362 9.90259 17.7837 9.89959 17.4269C9.89284 16.5277 9.89284 15.6285 9.89959 14.7293C9.90184 14.3567 10.0616 14.2072 10.4387 14.2057C11.3288 14.2027 12.2181 14.2019 13.1081 14.2057C13.4845 14.2072 13.6398 14.3612 13.6413 14.7323C13.6443 15.6225 13.6443 16.5119 13.6413 17.4021C13.6398 17.7874 13.4845 17.9377 13.0901 17.9407C12.65 17.9437 12.2098 17.9407 11.7697 17.9407V17.9414ZM10.8136 15.1199V17.0227H12.728V15.1199H10.8136Z" fill="white"/>
<path d="M11.7986 20.0591C12.2298 20.0591 12.6602 20.0569 13.0914 20.0591C13.4858 20.0621 13.6395 20.2116 13.641 20.5985C13.644 21.4887 13.644 22.3781 13.641 23.2683C13.6395 23.6386 13.4835 23.7926 13.1064 23.7941C12.2163 23.7979 11.327 23.7979 10.4369 23.7941C10.0605 23.7926 9.90157 23.6416 9.89932 23.269C9.89332 22.3698 9.89257 21.4707 9.89932 20.5715C9.90231 20.2139 10.0635 20.0636 10.4219 20.0599C10.8808 20.0554 11.3397 20.0591 11.7986 20.0584V20.0591ZM10.8134 20.9726V22.8747H12.7262V20.9726H10.8134Z" fill="white"/>
<path d="M11.7836 12.0883C11.3337 12.0883 10.8846 12.0913 10.4347 12.0875C10.0628 12.0845 9.90157 11.932 9.89932 11.5587C9.89332 10.6595 9.89257 9.76027 9.89932 8.86107C9.90231 8.50425 10.0628 8.354 10.4242 8.3525C11.3232 8.34799 12.2223 8.34799 13.1221 8.3525C13.4805 8.354 13.6395 8.51326 13.641 8.86558C13.6447 9.76478 13.6447 10.664 13.641 11.5632C13.6395 11.9313 13.4798 12.0845 13.1041 12.0883C12.664 12.092 12.2238 12.089 11.7836 12.089V12.0883ZM10.8134 9.26597V11.1695H12.7277V9.26597H10.8134Z" fill="white"/>
<path d="M11.783 29.6502C11.3241 29.6502 10.8652 29.6547 10.4063 29.6487C10.0651 29.6442 9.90315 29.491 9.90016 29.1499C9.89266 28.2417 9.89266 27.3327 9.90016 26.4245C9.90315 26.0684 10.0666 25.9159 10.425 25.9144C11.3241 25.9107 12.2231 25.9107 13.1229 25.9144C13.4791 25.9159 13.6403 26.0759 13.6418 26.4283C13.6456 27.3275 13.6448 28.2267 13.6418 29.1259C13.6403 29.4925 13.4821 29.6457 13.1049 29.6495C12.6648 29.654 12.2246 29.6502 11.7845 29.6502H11.783ZM12.7195 28.733V26.8287H10.8112V28.733H12.7195Z" fill="white"/>
<path d="M27.0207 18.4359C25.578 18.4359 24.1353 18.4359 22.6919 18.4359C22.2322 18.4359 22.08 18.2871 22.0792 17.8349C22.0778 16.7389 22.0778 15.6429 22.0792 14.5461C22.0792 14.1066 22.2337 13.9489 22.6694 13.9489C25.5735 13.9474 28.4783 13.9474 31.3824 13.9489C31.8151 13.9489 31.9666 14.1081 31.9673 14.5514C31.9688 15.6474 31.9688 16.7434 31.9673 17.8401C31.9673 18.2789 31.8121 18.4351 31.3772 18.4351C29.9248 18.4366 28.4731 18.4351 27.0207 18.4351V18.4359ZM22.9948 17.5111H31.0525V14.8646H22.9948V17.5111Z" fill="white"/>
<path d="M23.1653 20.3469C23.3797 20.3469 23.5949 20.3402 23.8094 20.3484C24.0771 20.3582 24.2593 20.5385 24.2638 20.7826C24.2683 21.0215 24.0891 21.2289 23.8259 21.2379C23.388 21.2529 22.9486 21.2536 22.5107 21.2364C22.2527 21.2266 22.0713 21.0057 22.0825 20.7714C22.0945 20.5287 22.279 20.3567 22.5497 20.3477C22.7551 20.3409 22.9606 20.3462 23.166 20.3462L23.1653 20.3469Z" fill="white"/>
<path d="M30.9058 20.3467C31.1113 20.3467 31.3167 20.3392 31.5214 20.3482C31.7734 20.3595 31.9511 20.533 31.9661 20.7651C31.9803 20.9882 31.8116 21.2203 31.5717 21.2309C31.106 21.2511 30.6381 21.2519 30.1732 21.2294C29.931 21.2173 29.7698 20.9875 29.7863 20.7598C29.8036 20.5262 29.979 20.364 30.234 20.3467C30.2527 20.3452 30.2715 20.3459 30.2902 20.3459C30.4957 20.3459 30.7011 20.3459 30.9066 20.3459L30.9058 20.3467Z" fill="white"/>
<path d="M23.1653 23.1543C23.3797 23.1543 23.5949 23.1475 23.8094 23.1565C24.0786 23.1678 24.26 23.3474 24.2645 23.59C24.269 23.8274 24.0891 24.0362 23.8259 24.0452C23.388 24.0602 22.9486 24.061 22.5107 24.0437C22.2512 24.0332 22.0713 23.8139 22.0825 23.5787C22.0945 23.3361 22.2767 23.1656 22.5497 23.1558C22.7544 23.1483 22.9598 23.1543 23.1653 23.1543Z" fill="white"/>
<path d="M30.9051 23.1551C31.1105 23.1551 31.316 23.1476 31.5207 23.1574C31.7756 23.1694 31.9504 23.3407 31.9661 23.5728C31.9811 23.8072 31.8026 24.0325 31.5447 24.043C31.0978 24.0611 30.6486 24.0618 30.2017 24.043C29.9423 24.0318 29.7691 23.8072 29.7863 23.569C29.8028 23.3361 29.9775 23.1746 30.234 23.1559C30.2527 23.1544 30.2715 23.1544 30.2902 23.1544C30.4957 23.1544 30.7011 23.1544 30.9058 23.1544V23.1566L30.9051 23.1551Z" fill="white"/>
<path d="M27.0456 20.3468C27.2518 20.3468 27.458 20.3401 27.6642 20.3483C27.9229 20.3589 28.0938 20.5264 28.1058 20.7645C28.1178 21.0064 27.9678 21.2197 27.7174 21.2318C27.2593 21.2543 26.7989 21.2543 26.3415 21.234C26.0775 21.222 25.9223 21.0034 25.9433 20.7487C25.9628 20.5106 26.1323 20.3604 26.3992 20.3468C26.4179 20.3461 26.4367 20.3468 26.4554 20.3468C26.6519 20.3468 26.8491 20.3468 27.0456 20.3468Z" fill="white"/>
<path d="M27.0249 24.0512C26.8187 24.0512 26.6125 24.0602 26.4071 24.0489C26.1146 24.0331 25.9392 23.8536 25.9414 23.5922C25.9437 23.3308 26.1221 23.1602 26.4191 23.155C26.8217 23.1482 27.2251 23.1482 27.6278 23.155C27.9255 23.1602 28.1047 23.33 28.1077 23.5907C28.1107 23.8521 27.9345 24.0331 27.6436 24.0489C27.4381 24.0602 27.2311 24.0512 27.0257 24.0512H27.0249Z" fill="white"/>
</g>
<defs>
<clipPath id="clip0_1301_16221">
<rect width="27" height="27" fill="white" transform="translate(7 5.5)"/>
</clipPath>
</defs>
</svg>
