<svg width="19" height="21" viewBox="0 0 19 21" fill="none" xmlns="http://www.w3.org/2000/svg">
<path d="M11.2441 20.0833H7.75578C7.30547 20.0833 6.91585 19.7699 6.81948 19.33L6.42944 17.5245C5.90912 17.2966 5.41574 17.0115 4.9584 16.6745L3.19794 17.2351C2.76861 17.372 2.30189 17.1913 2.07669 16.801L0.328692 13.7813C0.105964 13.3908 0.182698 12.8982 0.513651 12.5939L1.87928 11.3481C1.81717 10.7837 1.81717 10.2143 1.87928 9.64992L0.513651 8.40696C0.182211 8.10256 0.105446 7.60936 0.328692 7.21863L2.07286 4.197C2.29805 3.80667 2.76478 3.62596 3.19411 3.76288L4.95457 4.3235C5.18846 4.15019 5.43194 3.99022 5.68386 3.84433C5.92568 3.70796 6.17456 3.58448 6.42944 3.47442L6.82044 1.67083C6.91634 1.23093 7.30554 0.9171 7.75578 0.916626H11.2441C11.6943 0.9171 12.0835 1.23093 12.1794 1.67083L12.5743 3.47538C12.8434 3.59375 13.1054 3.72749 13.3591 3.87596C13.5958 4.01282 13.8246 4.16288 14.0444 4.32542L15.8058 3.76479C16.2348 3.62839 16.701 3.80903 16.9261 4.19892L18.6702 7.22054C18.893 7.61105 18.8162 8.10366 18.4853 8.40792L17.1196 9.65375C17.1818 10.2181 17.1818 10.7876 17.1196 11.3519L18.4853 12.5978C18.8162 12.902 18.893 13.3946 18.6702 13.7851L16.9261 16.8068C16.701 17.1966 16.2348 17.3773 15.8058 17.2409L14.0444 16.6803C13.8215 16.8444 13.5899 16.9964 13.3505 17.1355C13.0993 17.281 12.8401 17.4125 12.5743 17.5293L12.1794 19.33C12.0832 19.7696 11.6941 20.0829 11.2441 20.0833ZM5.30244 14.5528L6.08828 15.1278C6.26542 15.2582 6.45006 15.3782 6.64123 15.4871C6.82111 15.5913 7.00633 15.686 7.19611 15.7708L8.09023 16.1628L8.52819 18.1666H10.4736L10.9116 16.1618L11.8057 15.7698C12.196 15.5977 12.5665 15.3837 12.9107 15.1316L13.6974 14.5566L15.6534 15.1795L16.6261 13.4948L15.1091 12.1119L15.2164 11.142C15.2635 10.7178 15.2635 10.2897 15.2164 9.86554L15.1091 8.89571L16.6271 7.50996L15.6534 5.82425L13.6974 6.44717L12.9107 5.87217C12.5664 5.61889 12.196 5.40331 11.8057 5.22913L10.9116 4.83717L10.4736 2.83329H8.52819L8.08832 4.83813L7.19611 5.22913C7.00617 5.31254 6.82094 5.40628 6.64123 5.50992C6.45123 5.61853 6.26757 5.73787 6.09115 5.86738L5.30436 6.44238L3.34936 5.81946L2.37473 7.50996L3.89178 8.89092L3.78444 9.86171C3.73729 10.2859 3.73729 10.714 3.78444 11.1382L3.89178 12.108L2.37473 13.4909L3.34744 15.1757L5.30244 14.5528ZM9.49611 14.3333C7.37902 14.3333 5.66278 12.6171 5.66278 10.5C5.66278 8.38287 7.37902 6.66663 9.49611 6.66663C11.6132 6.66663 13.3294 8.38287 13.3294 10.5C13.3268 12.616 11.6121 14.3307 9.49611 14.3333ZM9.49611 8.58329C8.44903 8.58435 7.59658 9.42552 7.58158 10.4725C7.56658 11.5195 8.39457 12.3847 9.44118 12.4158C10.4878 12.4468 11.3657 11.6322 11.4128 10.5862V10.9695V10.5C11.4128 9.44141 10.5547 8.58329 9.49611 8.58329Z" fill="#363740"/>
</svg>
