<svg width="23" height="22" viewBox="0 0 23 22" fill="none" xmlns="http://www.w3.org/2000/svg">
<path d="M0 15.6923V0.942857C0 0.169714 0.161371 0 0.907333 0H22.1018C22.8203 0 23 0.179143 23 0.920857V21.0697C23 21.8051 22.8112 22 22.1018 22H0.867752C0.176596 22 0 21.8114 0 21.0917V15.6954V15.6923ZM1.28184 20.6769H21.706V1.32629H1.28184V20.6769Z" fill="#363740"/>
<path d="M15.3109 15.057C16.5471 15.057 17.7833 15.0508 19.0195 15.0633C19.2173 15.0633 19.4701 15.1073 19.598 15.2362C19.7349 15.3713 19.8323 15.651 19.7958 15.8334C19.7593 16.0157 19.5523 16.1917 19.3818 16.308C19.2752 16.3834 19.0955 16.3582 18.9463 16.3582C16.5227 16.3582 14.0991 16.3582 11.6755 16.3582C11.6268 16.3582 11.575 16.3582 11.5263 16.3582C11.0848 16.3362 10.8047 16.0848 10.8047 15.7076C10.8047 15.3305 11.0848 15.0602 11.5233 15.057C12.7838 15.0476 14.0443 15.057 15.3048 15.057H15.3109Z" fill="#363740"/>
<path d="M15.3456 9.97784C16.5816 9.97784 17.8178 9.97784 19.054 9.97784C19.5503 9.97784 19.8456 10.2324 19.8366 10.6347C19.8274 11.0213 19.5321 11.2758 19.0662 11.2758C16.5695 11.2758 14.0698 11.2758 11.5731 11.2758C11.1072 11.2758 10.815 11.0181 10.8089 10.6284C10.8028 10.2387 11.0951 9.98098 11.5609 9.97784C12.8214 9.97469 14.085 9.97784 15.3456 9.97784Z" fill="#363740"/>
<path d="M15.3118 6.18255C14.0756 6.18255 12.8394 6.18255 11.6033 6.18255C11.107 6.18255 10.8086 5.93427 10.8086 5.53512C10.8086 5.13598 11.11 4.8877 11.6033 4.8877C14.0878 4.8877 16.5754 4.8877 19.0598 4.8877C19.5439 4.8877 19.8454 5.15484 19.8332 5.55712C19.821 5.9437 19.5287 6.1857 19.0568 6.1857C17.8085 6.1857 16.5571 6.1857 15.3087 6.1857L15.3118 6.18255Z" fill="#363740"/>
<path d="M5.10124 16.4397C5.96595 15.5534 6.785 14.7111 7.60402 13.8688C7.70756 13.762 7.81107 13.6457 7.93286 13.5608C8.21602 13.3628 8.49613 13.3974 8.74275 13.6394C8.97111 13.8625 8.99243 14.1925 8.80061 14.4691C8.74276 14.5508 8.67273 14.6231 8.6027 14.6954C7.65274 15.6728 6.69974 16.6503 5.74673 17.6277C5.28394 18.1023 4.98859 18.1023 4.5258 17.6277C4.14824 17.2443 3.77069 16.8608 3.39924 16.4711C3.08563 16.1411 3.07345 15.7734 3.34748 15.4968C3.61238 15.2297 3.98688 15.2517 4.29744 15.5691C4.56537 15.8426 4.82113 16.1348 5.10124 16.4397Z" fill="#363740"/>
<path d="M5.11051 7.8727C5.94478 7.0147 6.73944 6.19756 7.53109 5.38356C7.62852 5.28613 7.71986 5.18241 7.82034 5.08813C8.12481 4.8147 8.49626 4.8147 8.74898 5.08813C8.99255 5.34899 8.99561 5.71356 8.71853 6.00584C8.12481 6.63441 7.5189 7.24727 6.91604 7.86641C6.51414 8.27813 6.11527 8.69299 5.71033 9.1047C5.2871 9.53527 4.97045 9.52899 4.5381 9.09213C4.16055 8.7087 3.78301 8.32527 3.41154 7.93556C3.07967 7.5867 3.06444 7.21584 3.35066 6.93299C3.61859 6.66899 3.98395 6.69727 4.30062 7.02098C4.56246 7.28813 4.81517 7.56784 5.10442 7.8727H5.11051Z" fill="#363740"/>
</svg>
