<svg width="18" height="14" viewBox="0 0 18 14" fill="none" xmlns="http://www.w3.org/2000/svg">
<path d="M9.00125 10.7501C7.02599 10.7501 5.42703 9.2212 5.27989 7.2837L2.54812 5.1725C2.18901 5.62303 1.85854 6.09933 1.59187 6.62016C1.5323 6.738 1.50126 6.8682 1.50126 7.00024C1.50126 7.13228 1.5323 7.26248 1.59187 7.38032C3.00411 10.1358 5.79994 12.0001 9.00125 12.0001C9.70203 12.0001 10.3781 11.8959 11.0296 11.7277L9.67833 10.6821C9.45516 10.7253 9.22853 10.748 9.00125 10.7501ZM17.1736 12.2631L14.2947 10.0381C15.1693 9.30113 15.8885 8.39758 16.4106 7.38006C16.4702 7.26222 16.5012 7.13202 16.5012 6.99998C16.5012 6.86794 16.4702 6.73774 16.4106 6.6199C14.9984 3.86443 12.2025 2.00011 9.00125 2.00011C7.66049 2.00173 6.34151 2.33927 5.16479 2.98188L1.85177 0.421203C1.80856 0.387585 1.75916 0.36281 1.70638 0.348293C1.6536 0.333776 1.59847 0.329801 1.54416 0.336597C1.48984 0.343393 1.43739 0.360826 1.38981 0.387899C1.34224 0.414972 1.30046 0.451155 1.26687 0.49438L0.755673 1.15245C0.68786 1.23969 0.657473 1.35029 0.671196 1.45992C0.684919 1.56956 0.741628 1.66926 0.82885 1.73709L16.1507 13.579C16.1939 13.6126 16.2433 13.6374 16.2961 13.6519C16.3489 13.6664 16.404 13.6704 16.4583 13.6636C16.5127 13.6568 16.5651 13.6394 16.6127 13.6123C16.6603 13.5852 16.702 13.5491 16.7356 13.5058L17.2471 12.8478C17.3149 12.7605 17.3452 12.6499 17.3314 12.5402C17.3177 12.4306 17.2609 12.3309 17.1736 12.2631ZM12.3893 8.56521L11.3658 7.77407C11.452 7.52497 11.4977 7.26367 11.5012 7.00011C11.5063 6.61424 11.4208 6.23256 11.2517 5.88572C11.0825 5.53888 10.8343 5.23656 10.5271 5.00303C10.2198 4.7695 9.86213 4.61128 9.48267 4.54108C9.10321 4.47088 8.71257 4.49065 8.34213 4.59881C8.49917 4.81159 8.58411 5.06898 8.58458 5.33344C8.58069 5.42145 8.56725 5.50876 8.54447 5.59386L6.62755 4.11235C7.29343 3.55589 8.13347 3.25075 9.00125 3.25011C9.49378 3.24984 9.98154 3.34664 10.4366 3.535C10.8917 3.72336 11.3052 3.99957 11.6535 4.34785C12.0018 4.69612 12.278 5.10963 12.4664 5.56472C12.6547 6.01982 12.7515 6.50758 12.7512 7.00011C12.7512 7.56339 12.6135 8.08839 12.3893 8.56547V8.56521Z" fill="#9FA2B4"/>
</svg>
