<svg width="104" height="72" viewBox="0 0 104 72" fill="none" xmlns="http://www.w3.org/2000/svg">
<rect x="2.5" y="2.5" width="99" height="67" rx="2.5" stroke="#DFE1E8" stroke-width="5"/>
<path d="M35.0228 36.7099C39.1609 33.8255 43.5817 30.0202 44.2382 24.7564C44.5416 22.3238 43.7167 18.7554 41.5005 17.266C39.9197 16.2035 38.1196 18.5915 37.565 19.7308C36.7896 21.3239 36.7095 23.1186 36.7889 24.8461C37.024 29.9617 38.6199 34.8193 39.6794 39.797C40.4752 43.5356 41.5613 48.3004 39.6305 51.954C38.0561 54.9333 34.6544 55.4105 31.6617 54.724C30.4953 54.4564 29.3395 54.0724 28.2885 53.5095C26.6329 52.6229 24.0421 50.5019 23.3507 48.6395C21.7157 44.2352 26.1434 40.8884 29.4862 39.1688C36.936 35.3365 45.7545 34.5039 54.0281 34.5801C62.7697 34.6605 71.4536 36.1915 80 37.8287" stroke="#363740" stroke-width="1.5" stroke-linecap="round"/>
<path d="M46 30.5942C48.4439 30.5217 53.6037 30.9582 53.787 26.7355C53.8355 25.6195 53.0828 24.2185 52.0551 25.0139C50.2747 26.3919 49.0783 30.206 51.1284 31.9758C53.7487 34.238 57.4116 32.6954 59.5452 30.3298C60.7878 28.9521 62.4285 25.78 60.2875 24.3339C59.6044 23.8726 58.5739 23.8782 57.9212 24.4203C57.1323 25.0755 57.0041 26.7736 57.0845 27.7987C57.2204 29.5314 58.1127 31.0744 59.5137 31.6304C61.887 32.5724 64.2707 31.5758 66.2256 29.8765C66.9855 29.2159 69.983 26.3194 68.6729 24.7063C67.7491 23.5689 65.7052 27.4415 65.3799 27.9714C62.3585 32.8927 59.8114 38.3752 57.8223 44" stroke="#363740" stroke-width="1.5" stroke-linecap="round"/>
</svg>
