<svg width="21" height="21" viewBox="0 0 21 21" fill="none" xmlns="http://www.w3.org/2000/svg">
<path d="M0.3 10.5C0.3 4.87493 4.87493 0.3 10.5 0.3C16.1251 0.3 20.7 4.87493 20.7 10.5C20.7 16.125 16.125 20.7 10.5 20.7C4.87493 20.7 0.3 16.125 0.3 10.5ZM1.79997 10.5C1.79997 15.2962 5.70379 19.2 10.5 19.2C15.2962 19.2 19.2 15.2962 19.2 10.5C19.2 5.70379 15.2962 1.80001 10.5 1.80001C5.7038 1.80001 1.79997 5.70379 1.79997 10.5Z" fill="black" stroke="#F2F2F2" stroke-width="0.6"/>
<path d="M7.65156 10.4998C7.65156 8.92777 8.92948 7.64985 10.5016 7.64985C12.0737 7.64985 13.3516 8.92777 13.3516 10.4998C13.3516 12.0719 12.0737 13.3498 10.5016 13.3498C8.92948 13.3498 7.65156 12.0719 7.65156 10.4998Z" fill="black" stroke="#F2F2F2" stroke-width="0.6"/>
</svg>
