<svg width="51" height="9" viewBox="0 0 51 9" fill="none" xmlns="http://www.w3.org/2000/svg">
<path d="M5.73412 0.0948755C5.82047 0.108692 5.86537 0.160501 5.86537 0.246852V0.429915C5.86537 0.481726 5.84119 0.585346 5.79629 0.744231C5.74793 0.903116 5.68922 1.08618 5.61668 1.29342C5.54415 1.50066 5.46125 1.71826 5.37145 1.94968C5.28164 2.1811 5.19184 2.40216 5.10549 2.60595C5.01914 2.81319 4.93969 2.98934 4.86716 3.13441C4.79463 3.27948 4.73936 3.36928 4.70482 3.40728L4.58393 3.52817L4.71519 2.54032L4.51831 3.00661C4.45268 3.14477 4.3836 3.2553 4.30761 3.3382C4.23162 3.42109 4.16254 3.46254 4.09692 3.46254C3.95185 3.46254 3.88622 3.39001 3.89658 3.24494C3.90694 3.09987 4.0002 2.85463 4.1729 2.50578C4.25235 2.33999 4.32834 2.17419 4.39396 2.01185C4.46304 1.84952 4.50794 1.73553 4.52867 1.66991L4.54939 1.61464C4.56321 1.56283 4.5563 1.51793 4.52867 1.47303C4.50104 1.42813 4.45613 1.40395 4.39741 1.39704C4.3387 1.39704 4.26962 1.38668 4.19017 1.36941C4.11073 1.35214 4.0451 1.33141 3.99329 1.31069C3.93458 1.28306 3.85859 1.28651 3.76533 1.32105C3.67207 1.35559 3.57191 1.41431 3.47174 1.49375L3.19887 1.71135C3.15397 1.73899 3.13324 1.78734 3.13324 1.85297L3.18851 2.32962C3.19542 2.40907 3.20923 2.50232 3.2265 2.60595C3.24377 2.70957 3.2645 2.82009 3.28522 2.93062C3.30595 3.04115 3.33012 3.15859 3.3543 3.27257C3.37848 3.39001 3.40611 3.49363 3.4372 3.58689C3.46483 3.68014 3.49246 3.79413 3.5201 3.92883C3.54427 4.06354 3.56845 4.2017 3.58572 4.34677C3.60299 4.49184 3.62026 4.64036 3.63408 4.79234C3.64789 4.94431 3.6548 5.08593 3.6548 5.21718L3.67553 6.11868C3.67553 6.1394 3.66862 6.16704 3.6548 6.19467L3.41647 6.71622C3.33703 6.86129 3.27486 7.00291 3.2265 7.14452C3.17815 7.28614 3.15742 7.37594 3.15742 7.41048C3.15742 7.50374 3.11598 7.5521 3.03653 7.5521C3.00199 7.5521 2.94673 7.57627 2.87419 7.62808C2.80166 7.67989 2.73258 7.74207 2.66695 7.81115L2.47007 8.00803C2.42517 8.05293 2.38372 8.06674 2.33882 8.05293L1.88289 8.0322C1.55821 8.01148 1.27844 7.95276 1.04702 7.86296C0.8156 7.77315 0.584182 7.61081 0.352763 7.37939L0.0488088 7.0858C0.0211767 7.05817 0.00390625 7.01672 0.00390625 6.96491V6.56425C0.00390625 5.99088 0.0833495 5.70765 0.242234 5.70765C0.373487 5.70765 0.553096 5.89762 0.784515 6.27411C0.884681 6.4399 0.974486 6.56425 1.05047 6.64714C1.12646 6.73004 1.17136 6.75422 1.18518 6.71622C1.199 6.68168 1.18518 6.61606 1.14719 6.51934C1.10574 6.42609 1.05047 6.32592 0.977939 6.22575C0.78106 5.94252 0.687801 5.74219 0.694709 5.6213C0.701617 5.50041 0.8156 5.44169 1.02975 5.44169H1.04011C1.08501 5.44169 1.12301 5.45896 1.15409 5.49005C1.18518 5.52113 1.20245 5.55913 1.20245 5.60403V5.96325C1.20245 6.02887 1.23699 6.08068 1.30953 6.11522L1.52713 6.20158C1.61348 6.23612 1.69292 6.26375 1.762 6.28447C1.83108 6.30174 1.89325 6.3121 1.95197 6.3121C2.15576 6.3121 2.25592 6.17049 2.25592 5.88726C2.25592 5.60403 2.17303 5.12392 2.00724 4.44348C1.96233 4.27078 1.92089 4.09463 1.88289 3.91502C1.84144 3.73886 1.81036 3.56616 1.78618 3.40382C1.762 3.24148 1.73782 3.09296 1.72055 2.95826C1.70328 2.82355 1.69292 2.71647 1.69292 2.63703C1.69292 2.49887 1.71019 2.34689 1.74818 2.1811C1.78272 2.01531 1.83454 1.84952 1.90016 1.68027C1.96579 1.51448 2.04178 1.35559 2.12813 1.20361C2.21448 1.05164 2.30428 0.920385 2.40099 0.81331C2.48044 0.720052 2.5806 0.630248 2.70495 0.547352C2.82929 0.464456 2.96054 0.388466 3.10216 0.326294C3.24377 0.260668 3.38884 0.208858 3.53736 0.167409C3.68589 0.125961 3.81714 0.108692 3.93458 0.108692H4.07619C4.27998 0.108692 4.44577 0.181225 4.57702 0.326294L4.80499 0.554259C4.84989 0.599161 4.89825 0.616432 4.95006 0.609524C5.00532 0.602616 5.04677 0.574984 5.0744 0.523174L5.28164 0.0983289C5.29546 0.0637887 5.32309 0.0361574 5.35763 0.0154333C5.39217 -0.00183682 5.43017 -0.00529099 5.46471 0.00852507L5.73412 0.0948755ZM2.52188 4.03591C2.5357 4.02209 2.5357 3.9392 2.51498 3.79067C2.49771 3.64215 2.46662 3.4729 2.42172 3.28639C2.37682 3.09642 2.33537 2.94098 2.29737 2.81319C2.25592 2.68539 2.23175 2.63012 2.21448 2.64394C2.20066 2.65776 2.20411 2.74065 2.22484 2.88917C2.24556 3.0377 2.27665 3.20694 2.31119 3.39346C2.35609 3.58343 2.39754 3.73886 2.43553 3.86666C2.48044 3.99446 2.50461 4.05318 2.52188 4.03591Z" fill="#828282"/>
<path d="M10.1146 2.45054L10.0593 3.12408C10.0248 3.55928 9.92113 4.0083 9.75534 4.47805C9.58955 4.94434 9.37885 5.38646 9.12671 5.80439C8.87457 6.22233 8.59134 6.58846 8.28393 6.90622C7.97652 7.22399 7.66221 7.45541 7.34444 7.60048C7.12684 7.69374 6.97831 7.7421 6.89887 7.7421C6.85397 7.7421 6.81598 7.73519 6.77798 7.72483C6.74344 7.71446 6.69508 7.69719 6.63637 7.67647C6.58456 7.66265 6.53275 7.65229 6.47748 7.64538C6.42222 7.63847 6.37732 7.64193 6.34278 7.65575C6.31514 7.66956 6.27715 7.66956 6.22879 7.65575C6.18044 7.64193 6.13899 7.62121 6.10445 7.59012C6.06991 7.55558 6.02501 7.5314 5.9732 7.52449C5.92139 7.51758 5.87648 7.52104 5.83158 7.53485L5.68997 7.59012L5.12351 6.99258L5.03716 6.52628C4.95081 6.05654 4.97844 5.51426 5.12351 4.90289C5.26858 4.29153 5.54144 3.56274 5.93866 2.71305L6.32896 1.90826L7.41352 0.844426H7.828C7.94544 0.844426 8.0456 0.854789 8.13886 0.872059C8.22867 0.889329 8.28048 0.910053 8.29775 0.930777L8.35301 1.01713L8.50499 0.94114C8.53953 0.920416 8.60516 0.899691 8.70187 0.882421C8.79513 0.865151 8.89529 0.847881 8.99546 0.834065L9.3305 0.802979L9.35122 0.975679C9.36504 1.02749 9.39612 1.08621 9.43757 1.15529C9.48248 1.22437 9.53083 1.28309 9.58955 1.3349C9.64827 1.39362 9.7139 1.48342 9.78643 1.60776C9.85896 1.73211 9.91768 1.85645 9.95913 1.98771L10.1146 2.45054ZM7.15792 6.71971C7.27536 6.64717 7.41352 6.53664 7.58277 6.38467C7.74856 6.23269 7.90744 6.07035 8.05942 5.90111C8.2114 5.73186 8.3392 5.57297 8.44627 5.42791C8.54989 5.28284 8.60515 5.18267 8.60515 5.12395C8.60515 5.07214 8.54989 5.04796 8.44282 5.04796C8.3841 5.04796 8.32193 5.02379 8.25285 4.97198C8.18377 4.92017 8.11469 4.85454 8.04561 4.7751C7.97652 4.69565 7.9109 4.6024 7.84873 4.49187C7.78655 4.38479 7.73474 4.27081 7.68984 4.15683L7.55859 3.73198L7.58968 3.25533C7.60349 3.12408 7.61731 3.00319 7.63458 2.89266C7.64839 2.78213 7.66221 2.7096 7.67948 2.68196C7.72438 2.62325 7.71402 2.59907 7.65875 2.60598C7.60004 2.61288 7.54132 2.65088 7.48605 2.71305C7.44806 2.76486 7.38934 2.89611 7.30645 3.11372C7.22355 3.33132 7.1372 3.58001 7.05085 3.85633C6.9645 4.1361 6.8816 4.41588 6.80216 4.70256C6.72272 4.98925 6.664 5.22066 6.62946 5.40373L6.49821 6.12216L6.67091 6.37085C6.72272 6.43648 6.76071 6.50556 6.78489 6.58155C6.80907 6.65753 6.81598 6.7128 6.80216 6.75079C6.73653 6.93386 6.85397 6.92349 7.15792 6.71971ZM9.16816 3.79761C9.27523 3.21043 9.28905 2.7165 9.19925 2.30893C9.13362 2.03261 9.05763 1.89445 8.97128 1.89445C8.89875 1.89445 8.83312 1.9808 8.7744 2.15005C8.71568 2.31929 8.6846 2.55762 8.67769 2.86157L8.65696 3.42803L8.80894 3.75271C8.90911 3.9634 8.9851 4.06702 9.03691 4.06702C9.09562 4.07048 9.14053 3.98067 9.16816 3.79761ZM8.91947 4.52641C8.94019 4.52641 8.95056 4.49877 8.95056 4.44006C8.95056 4.38134 8.92292 4.35371 8.86421 4.35371C8.8124 4.35371 8.79858 4.38134 8.8193 4.44006C8.86421 4.49532 8.89875 4.52641 8.91947 4.52641ZM8.90911 1.10348C8.88839 1.1622 8.91602 1.18983 8.99546 1.18983C9.08181 1.18983 9.12671 1.17947 9.12671 1.15874C9.12671 1.10693 9.09908 1.07585 9.04036 1.06548C8.98164 1.05512 8.93674 1.06894 8.90911 1.10348Z" fill="#828282"/>
<path d="M17.7248 0.170818L17.6937 0.702736L17.521 0.692374C17.4139 0.692374 17.369 0.720006 17.3898 0.778724C17.4416 0.865075 17.4174 0.944517 17.3241 1.01705C17.2309 1.08959 17.0893 1.13794 16.8993 1.15867C16.6817 1.1863 16.4572 1.22084 16.2258 1.25538C15.9943 1.28992 15.7802 1.32791 15.5833 1.36936C15.3864 1.41081 15.2206 1.4488 15.0825 1.48334C14.9443 1.52134 14.858 1.55242 14.8234 1.58006C14.7854 1.60769 14.7267 1.69058 14.6438 1.82529C14.5609 1.96 14.4746 2.10507 14.3882 2.2605C14.3019 2.41593 14.2224 2.56445 14.1534 2.69916C14.0843 2.83732 14.0497 2.92712 14.0497 2.97202C14.0497 2.99275 14.1085 3.01347 14.2293 3.02729C14.3502 3.04111 14.4919 3.04456 14.6576 3.03765C14.9823 3.03765 15.2448 3.07564 15.4383 3.15163C15.6351 3.22762 15.7284 3.3347 15.7215 3.47286L15.7111 3.64556L15.0929 3.61447L15.2759 3.74572C15.4486 3.8528 15.5039 3.92879 15.4348 3.97369C15.3657 4.01859 15.1896 4.01859 14.9063 3.97369C14.7613 3.95296 14.5886 3.9426 14.3917 3.9426C14.1914 3.9426 14.0325 3.95642 13.9081 3.98751L13.4418 4.08422L12.9306 5.14806C12.6474 5.74215 12.4125 6.22916 12.226 6.61601C12.036 6.99941 11.8841 7.30336 11.7632 7.52787C11.6423 7.75238 11.5525 7.90781 11.4869 7.99416C11.4212 8.08051 11.366 8.12541 11.3245 8.12541C11.29 8.12541 11.252 8.09088 11.2174 8.01834C11.2036 7.99071 11.1656 7.96308 11.1104 7.93545C11.0517 7.91127 10.9929 7.89745 10.9377 7.89745C10.872 7.89054 10.8133 7.86982 10.7581 7.83182C10.7028 7.79728 10.6683 7.75584 10.6544 7.71093C10.6406 7.65912 10.6372 7.60731 10.6441 7.55205C10.651 7.49679 10.6786 7.40698 10.727 7.27918C10.7753 7.15138 10.8513 6.97868 10.9618 6.75763C11.0689 6.53657 11.214 6.23607 11.3971 5.84922C11.4696 5.70415 11.5352 5.56254 11.5974 5.42438C11.6596 5.28622 11.7148 5.16533 11.7666 5.0617C11.8184 4.95808 11.8564 4.86828 11.8875 4.80265C11.9152 4.73357 11.9324 4.69558 11.9324 4.68867C11.9324 4.66104 11.9013 4.63686 11.8392 4.62304C11.777 4.60923 11.7045 4.60577 11.6181 4.61268C11.5318 4.6265 11.4385 4.61959 11.3349 4.58505C11.2347 4.55396 11.1553 4.51252 11.0966 4.46071L10.879 4.26383L11.0413 4.17748C11.1415 4.11185 11.176 4.03931 11.138 3.95987C11.1242 3.93224 11.1518 3.89079 11.2244 3.83553C11.2969 3.78026 11.3936 3.725 11.5179 3.66628C11.6423 3.60756 11.777 3.55575 11.9255 3.50394C12.074 3.45213 12.2122 3.41759 12.3435 3.39687L12.6267 3.3416L12.9203 2.77515C12.9997 2.62317 13.0653 2.48846 13.1172 2.37448C13.169 2.25704 13.1897 2.19832 13.1828 2.19142C13.169 2.1776 13.0861 2.19487 12.9375 2.24668C12.789 2.29849 12.6129 2.36412 12.4091 2.44356C12.1777 2.53682 11.9877 2.6059 11.8426 2.64389C11.6976 2.68534 11.5698 2.70261 11.4627 2.70261C11.3832 2.70261 11.3038 2.69225 11.2278 2.67152C11.1518 2.6508 11.0689 2.61971 10.9826 2.58517L10.6993 2.45392L11.3625 1.56279L11.9048 1.32446C12.005 1.27956 12.1466 1.22775 12.3296 1.16212C12.5092 1.09649 12.713 1.02741 12.9341 0.951425C13.1551 0.875437 13.3866 0.799449 13.6249 0.730368C13.8632 0.657834 14.0946 0.588753 14.3157 0.519673C14.5368 0.450593 14.7405 0.391874 14.9305 0.340064C15.1205 0.288254 15.2656 0.253715 15.3761 0.23299C15.6524 0.174272 15.9287 0.129369 16.2085 0.0982828C16.4883 0.0671966 16.7301 0.0499268 16.9408 0.0499268C17.0409 0.0499268 17.1307 0.0533817 17.2067 0.0602897C17.2827 0.0671977 17.3483 0.0775598 17.407 0.0913759L17.7248 0.170818Z" fill="#828282"/>
<path d="M22.8877 1.13795L23.0846 1.26921C23.1433 1.30375 23.1882 1.34174 23.2262 1.37628C23.2607 1.41082 23.2815 1.43845 23.2815 1.45227C23.2815 1.46609 23.2262 1.4799 23.1122 1.49717C22.9982 1.51099 22.8601 1.5179 22.6943 1.5179C22.5285 1.5248 22.3696 1.53517 22.2176 1.54553C22.0656 1.55589 21.962 1.56971 21.9033 1.58352L21.6961 1.63879L21.3472 2.34341C21.2609 2.5092 21.1641 2.71644 21.0536 2.96167C20.9465 3.20691 20.8326 3.47287 20.7117 3.75955C20.5908 4.04624 20.4733 4.33637 20.3594 4.63342C20.2419 4.93046 20.1349 5.21369 20.0347 5.47965C19.9345 5.74907 19.8447 5.99085 19.7756 6.20845C19.7031 6.42605 19.6478 6.59875 19.6133 6.73001C19.5684 6.90271 19.5339 7.04778 19.5062 7.15831C19.4786 7.27229 19.4475 7.35518 19.4199 7.4139C19.3922 7.47262 19.3646 7.51061 19.337 7.53479C19.3128 7.55552 19.2817 7.56588 19.2437 7.56588C19.1919 7.56588 19.185 7.53479 19.223 7.46917C19.2368 7.44153 19.2299 7.43117 19.2023 7.44153C19.1746 7.4519 19.1263 7.48298 19.0607 7.53479C19.0019 7.57969 18.9536 7.6246 18.9156 7.6695C18.8741 7.71785 18.8638 7.74894 18.8776 7.76276C18.8914 7.78348 18.8914 7.82148 18.8776 7.87674C18.8638 7.93201 18.843 7.98727 18.8189 8.04944C18.7947 8.11161 18.7671 8.16342 18.736 8.20833C18.7083 8.25323 18.6807 8.27395 18.66 8.27395C18.6393 8.27395 18.6116 8.26359 18.5771 8.24287C18.546 8.22214 18.5184 8.19451 18.4942 8.16688C18.4735 8.12888 18.4493 8.08743 18.4251 8.04253C18.4009 7.99418 18.3802 7.95273 18.3664 7.91819L18.3111 7.78694L18.3008 7.93891C18.3008 7.98382 18.2939 8.02181 18.28 8.05289C18.2662 8.08398 18.249 8.10125 18.2248 8.10125C18.1522 8.10125 18.0901 8.05635 18.0348 7.97C17.9795 7.88365 17.945 7.78003 17.9312 7.66605C17.9174 7.54861 17.9208 7.43463 17.9416 7.3241C17.9623 7.21357 18.0072 7.13067 18.0728 7.07886C18.1592 7.01324 18.1764 6.95452 18.1281 6.90616C18.1143 6.88544 18.1073 6.84054 18.1108 6.77491C18.1143 6.70928 18.135 6.6402 18.1695 6.56767C18.2041 6.48823 18.2351 6.43642 18.2559 6.40878C18.2766 6.3846 18.287 6.38806 18.287 6.42605L18.2973 6.55731L18.3733 6.47096C18.3802 6.45714 18.3975 6.41569 18.4286 6.35007C18.4562 6.28444 18.4907 6.19809 18.5253 6.09101C18.5598 5.98394 18.6047 5.8596 18.6565 5.72834C18.7083 5.59364 18.7567 5.45202 18.8085 5.30004C18.8603 5.14807 18.9156 4.97882 18.9778 4.78885C19.0399 4.60233 19.1056 4.41236 19.1746 4.22239C19.2437 4.03587 19.3128 3.85281 19.3819 3.6732C19.451 3.49705 19.5097 3.33816 19.5615 3.2C19.6686 2.92368 19.7618 2.68535 19.8344 2.48157C19.9069 2.27778 19.9345 2.17071 19.9207 2.15689C19.9069 2.14307 19.8516 2.14653 19.7515 2.17416C19.6547 2.19834 19.5477 2.23288 19.4371 2.27087C19.3266 2.31232 19.2195 2.35377 19.1228 2.40212C19.0261 2.45048 18.9674 2.48502 18.9536 2.50574C18.9398 2.52647 18.9363 2.55756 18.9432 2.599C18.9501 2.64045 18.9708 2.67845 19.0088 2.71299L19.1056 2.84424H18.9847C18.9467 2.84424 18.9087 2.86151 18.8707 2.8995C18.8292 2.93404 18.8016 2.97895 18.7774 3.03076L18.6911 3.21382L17.7343 3.5385L17.4096 3.45215C17.2508 3.40724 17.1402 3.35543 17.085 3.28981C17.0262 3.22418 17.0608 3.19309 17.1817 3.19309C17.2093 3.19309 17.2058 3.16892 17.1713 3.11711C17.1368 3.0653 17.078 2.99967 16.9986 2.92023C16.8535 2.77516 16.7637 2.65081 16.7326 2.55065C16.7016 2.45048 16.743 2.41939 16.857 2.4643L16.9882 2.51956V2.09472L17.3578 1.81149C17.5167 1.68714 17.7136 1.5628 17.9485 1.43845C18.1833 1.31066 18.432 1.19322 18.698 1.08614C18.9639 0.97907 19.2299 0.878904 19.4959 0.792553C19.7653 0.706203 20.0071 0.644031 20.2247 0.609491C20.311 0.595675 20.4457 0.568042 20.6253 0.533502C20.8049 0.498962 20.9811 0.460967 21.1469 0.426427C21.2332 0.405703 21.3369 0.384979 21.4508 0.371163C21.5683 0.357347 21.6892 0.34353 21.8204 0.32626C21.9517 0.312444 22.0829 0.298629 22.2176 0.288267C22.3523 0.277905 22.4767 0.270996 22.5907 0.270996H23.4162L23.8065 0.488599L23.5785 1.05506L22.8877 1.13795Z" fill="#828282"/>
<path d="M31.003 0.23645L30.9374 0.367703C30.9167 0.402243 30.896 0.474778 30.8821 0.578398C30.8683 0.682019 30.8614 0.789092 30.8614 0.899621C30.8614 1.01015 30.8511 1.12068 30.8338 1.24157C30.8165 1.36246 30.7992 1.44881 30.7854 1.50753C30.7647 1.58006 30.6887 1.75276 30.5575 2.02908C30.4262 2.30541 30.2708 2.63008 30.0843 3.00657C29.8977 3.38306 29.7009 3.78372 29.4867 4.20857C29.2726 4.63341 29.0688 5.03062 28.8788 5.40366C28.6854 5.77669 28.5196 6.09791 28.3745 6.37078C28.2295 6.64365 28.1327 6.80944 28.0809 6.87507C28.0533 6.91997 27.998 7.01668 27.9186 7.16866C27.8392 7.32064 27.7563 7.48297 27.6699 7.65913L27.366 8.29812L26.7995 8.31885L26.6164 8.02526C26.5577 7.94581 26.499 7.86637 26.4368 7.79038C26.3747 7.7144 26.3228 7.66604 26.2779 7.64531L26.1363 7.55896L26.1467 5.81123V4.05314L26.0396 4.14985C25.9602 4.21548 25.9187 4.28801 25.9187 4.36745C25.9187 4.40199 25.8945 4.46762 25.8427 4.56433C25.7909 4.65759 25.7322 4.75776 25.6597 4.85792C25.5802 4.95809 25.5146 5.05135 25.4628 5.13424C25.411 5.21714 25.3868 5.26895 25.3868 5.29313C25.3868 5.30695 25.3626 5.37948 25.3177 5.50382C25.2694 5.63162 25.2072 5.77324 25.1277 5.93212C25.0552 6.09101 24.993 6.22917 24.9447 6.3466C24.8929 6.46404 24.8687 6.52621 24.8687 6.54348C24.8687 6.56421 24.8411 6.63674 24.7858 6.76109C24.7305 6.88543 24.6684 7.01668 24.6027 7.1583C24.5337 7.29991 24.468 7.43117 24.4059 7.55551C24.3437 7.67986 24.3057 7.74894 24.2919 7.76275C24.2781 7.77657 24.247 7.77657 24.1986 7.75584C24.1503 7.73857 24.1054 7.71094 24.0639 7.67295L23.9016 7.53133V7.67295C23.9016 7.7662 23.8705 7.81456 23.8049 7.81456C23.7531 7.81456 23.7151 7.78693 23.684 7.72821C23.6702 7.70749 23.6667 7.68676 23.6771 7.66949C23.6874 7.65222 23.7116 7.64186 23.7461 7.64186C23.7807 7.64186 23.7807 7.62804 23.7392 7.59696C23.6978 7.56932 23.6391 7.53479 23.5596 7.50025L23.266 7.34827L23.3869 3.62139H23.1797L23.2453 2.71989C23.2591 2.45047 23.2868 2.2156 23.3213 2.01527C23.3558 1.81148 23.3938 1.68368 23.4284 1.62496C23.4629 1.57315 23.494 1.52134 23.5147 1.46263C23.5354 1.40391 23.5493 1.35901 23.5596 1.32101C23.5596 1.29338 23.5838 1.24848 23.6287 1.18976C23.6771 1.13104 23.7323 1.07232 23.798 1.01706L24.0466 0.833995L24.4266 0.930707V1.35555L24.7616 1.24848L24.9585 1.62842L24.9136 2.29159C24.8998 2.48156 24.8825 2.66462 24.8652 2.84423C24.848 3.02384 24.8307 3.15164 24.8169 3.22417C24.8031 3.31743 24.7893 3.44523 24.772 3.60412C24.7582 3.763 24.7478 3.92189 24.7409 4.08077C24.734 4.23966 24.7271 4.37782 24.7236 4.49525C24.7202 4.61269 24.7202 4.66795 24.7305 4.66795C24.7444 4.66795 24.8514 4.49525 25.0449 4.1533C25.2417 3.8079 25.4939 3.34161 25.8047 2.74752C25.8704 2.61627 25.936 2.49192 26.0051 2.37449C26.0742 2.25359 26.1363 2.14652 26.195 2.05326C26.2538 1.96 26.3056 1.88056 26.3574 1.81494C26.4092 1.74931 26.4437 1.70786 26.4645 1.68368C26.5232 1.63878 26.5888 1.60424 26.6648 1.58006C26.7408 1.55588 26.8202 1.54207 26.8997 1.54207C27.0516 1.54207 27.1587 1.58352 27.2243 1.66296C27.252 1.69059 27.2762 1.8253 27.29 2.06017C27.3038 2.29504 27.3141 2.58864 27.3176 2.93404C27.3211 3.28289 27.3176 3.65938 27.3107 4.0635C27.3038 4.46762 27.29 4.86138 27.2658 5.23786L27.2105 6.20499L27.701 5.12043C27.9531 4.54706 28.2018 4.01514 28.4402 3.52467C28.6785 3.03075 28.903 2.59209 29.1137 2.19833C29.3244 1.80803 29.5144 1.47299 29.6905 1.20012C29.8632 0.9238 30.0117 0.723466 30.1361 0.592213L30.3848 0.319347L31.003 0.23645ZM28.1915 5.05826L28.1051 5.15497C28.0844 5.17569 28.0568 5.2206 28.0222 5.28968C27.9911 5.35876 27.96 5.43129 27.9359 5.50728C27.9117 5.58327 27.891 5.64889 27.8806 5.70761C27.8702 5.76633 27.8702 5.79396 27.8875 5.79396C27.9082 5.79396 27.9359 5.76633 27.9704 5.70761C28.0015 5.64889 28.036 5.58327 28.0671 5.51073C28.0982 5.4382 28.1293 5.36912 28.1535 5.30004C28.1776 5.23096 28.1915 5.18606 28.1915 5.16533V5.05826Z" fill="#828282"/>
<path d="M37.5393 0.530126L37.7465 0.768454L37.6498 0.823718C37.6291 0.837534 37.5842 0.934246 37.5151 1.1104C37.446 1.28656 37.3769 1.4938 37.3044 1.72522C37.2664 1.84265 37.2249 1.97045 37.1731 2.11552C37.1213 2.26059 37.073 2.40911 37.0212 2.56109C36.9693 2.71306 36.921 2.86159 36.8692 3.00666C36.8174 3.15172 36.7725 3.27952 36.7276 3.3866C36.6412 3.61802 36.5687 3.83217 36.51 4.02904C36.4512 4.22592 36.4236 4.35027 36.4236 4.40899C36.4236 4.53333 36.3994 4.62659 36.3476 4.69222C36.3338 4.71294 36.3131 4.76475 36.282 4.84419C36.2544 4.92363 36.2233 5.0238 36.1956 5.14124C36.168 5.26213 36.1369 5.38993 36.1093 5.52809C36.0817 5.66625 36.054 5.80095 36.0333 5.92875C36.0195 6.0082 35.9919 6.12909 35.9573 6.29142C35.9228 6.45376 35.8848 6.61265 35.8502 6.76463C35.8157 6.90969 35.7846 7.06858 35.7639 7.23782C35.7432 7.40707 35.7328 7.53487 35.7328 7.62467C35.7259 7.71102 35.7155 7.79047 35.7052 7.863C35.6948 7.93554 35.681 7.98389 35.6672 8.00462C35.6465 8.01843 35.6257 8.04952 35.6119 8.09097C35.5981 8.13587 35.5912 8.17386 35.5912 8.21186V8.36383L34.7657 8.39492L34.6344 8.11169C34.5999 8.03225 34.5723 7.94244 34.5515 7.84573C34.5343 7.74902 34.5274 7.62813 34.5343 7.48306C34.5412 7.33799 34.5619 7.16529 34.593 6.96841C34.6241 6.76808 34.6655 6.5263 34.7173 6.23616C34.7519 6.00474 34.783 5.80786 34.8106 5.64552C34.8348 5.48318 34.8417 5.39338 34.8279 5.37956C34.814 5.36575 34.7484 5.37266 34.631 5.4072C34.5135 5.44174 34.3823 5.48664 34.2303 5.5419L33.6777 5.73878L34.3616 5.83549L33.8607 5.98747C33.7157 6.03237 33.581 6.08418 33.4601 6.14981C33.3357 6.21544 33.2563 6.27761 33.2217 6.33287C32.9316 6.74736 32.6726 7.10657 32.4446 7.41398C32.2166 7.72139 32.0405 7.95626 31.9161 8.11514L31.6122 8.47436L31.4049 8.464C31.3462 8.45709 31.284 8.45018 31.215 8.44673C31.1459 8.44328 31.0941 8.43292 31.0561 8.4191C30.9835 8.40528 30.9352 8.35002 30.911 8.25676C30.8868 8.1635 30.8834 8.0357 30.9041 7.87682C30.911 7.84228 30.9559 7.74902 31.0353 7.6005C31.1148 7.45197 31.2081 7.28618 31.3186 7.10657C31.4257 6.93387 31.5155 6.78189 31.5845 6.65064C31.6536 6.51939 31.6813 6.44686 31.6674 6.43304C31.6536 6.41922 31.6018 6.41577 31.5086 6.42613C31.4187 6.43649 31.3117 6.45722 31.1942 6.49176C31.0733 6.52284 30.9525 6.56084 30.8316 6.59883C30.7072 6.64028 30.6071 6.67827 30.5276 6.71281C30.462 6.75081 30.3998 6.77499 30.3445 6.7888C30.2858 6.80262 30.2513 6.80262 30.2375 6.7888C30.2237 6.77499 30.1926 6.77153 30.1511 6.7819C30.1062 6.79226 30.0648 6.81298 30.0199 6.84061L29.8472 6.92696L29.6503 6.7439L29.9335 6.68864C30.013 6.67482 30.0855 6.6541 30.1511 6.62301C30.2167 6.59538 30.2547 6.56775 30.272 6.54702L30.3273 6.46067L30.1304 6.51594C30.0855 6.52975 30.0268 6.53321 29.9473 6.52284C29.8679 6.51248 29.7884 6.49521 29.7125 6.46758C29.6365 6.4434 29.5708 6.41232 29.5121 6.38123C29.4534 6.35014 29.4258 6.31906 29.4258 6.28797C29.4258 6.27415 29.45 6.25343 29.4949 6.22234C29.5432 6.19471 29.5985 6.16708 29.6641 6.14636L29.9024 6.06001L29.488 5.89767L29.8679 5.73533C29.975 5.69043 30.1546 5.62825 30.3998 5.53845C30.645 5.4521 30.8903 5.3692 31.1286 5.28976C31.3738 5.21032 31.626 5.12397 31.8781 5.03416C32.1303 4.94436 32.3202 4.87182 32.4446 4.82347L32.8798 4.66113L33.4981 3.74927C33.6293 3.55239 33.7778 3.3417 33.9436 3.10682C34.1094 2.8754 34.2821 2.64053 34.4583 2.40566C34.6344 2.17078 34.814 1.93591 34.9971 1.70449C35.1767 1.47307 35.346 1.26238 35.4979 1.07586C35.6499 0.889345 35.7846 0.727005 35.9055 0.592299C36.0264 0.457592 36.1128 0.364334 36.1715 0.315978C36.2578 0.243443 36.358 0.18818 36.4685 0.146732C36.579 0.105283 36.6792 0.0880127 36.7656 0.0880127C36.883 0.0880127 36.959 0.115645 36.9935 0.174363C37.0073 0.195087 37.0488 0.215812 37.1144 0.233082C37.18 0.250352 37.2526 0.260713 37.332 0.260713C37.4115 0.260713 37.4909 0.267622 37.5669 0.281438C37.6429 0.295254 37.6947 0.312524 37.7258 0.336702L37.8467 0.41269L37.5393 0.530126ZM35.3805 3.59038C35.4254 3.46604 35.4599 3.35206 35.4841 3.24153C35.5083 3.13445 35.5152 3.06883 35.5014 3.04465C35.4807 3.01011 35.4392 3.00666 35.377 3.03774C35.3149 3.06883 35.2423 3.12064 35.1594 3.18972C35.0765 3.2588 34.9902 3.34515 34.9038 3.44532C34.8175 3.54548 34.7381 3.65256 34.6655 3.75963C34.593 3.86671 34.5343 3.97033 34.4859 4.06359C34.4376 4.15684 34.4168 4.21211 34.4168 4.22592C34.4168 4.26046 34.4617 4.28119 34.5481 4.28119C34.6552 4.28119 34.745 4.25701 34.8071 4.2052C34.8279 4.18448 34.8659 4.1603 34.9142 4.13957C34.966 4.11885 35.0109 4.10503 35.0558 4.09467L35.2285 4.06359L35.3805 3.59038Z" fill="#828282"/>
<path d="M42.8561 1.80124L42.6178 3.48335L42.2931 3.89783C42.1998 4.01526 42.0548 4.14306 41.8579 4.28813C41.661 4.4332 41.471 4.55409 41.2811 4.64735L40.5868 4.9962L40.7699 5.26907C40.8562 5.40723 40.9668 5.55921 41.1015 5.73191C41.2362 5.90116 41.3709 6.0635 41.5021 6.21547C41.6368 6.36745 41.7612 6.4987 41.8821 6.60577C42.003 6.71285 42.0859 6.77848 42.1377 6.80265C42.2447 6.83719 42.3173 6.92009 42.3553 7.04098C42.3898 7.16533 42.3691 7.26549 42.2896 7.34493C42.2689 7.36566 42.2033 7.3553 42.0928 7.31385C41.9857 7.26895 41.8614 7.21023 41.7232 7.13078C41.5263 7.02371 41.402 6.96845 41.3432 6.96845C41.2845 6.96845 41.2914 7.00989 41.364 7.09279C41.4365 7.17569 41.5712 7.28622 41.7646 7.42438L42.1791 7.70761L41.8752 7.73869C41.7888 7.75251 41.6817 7.7456 41.5609 7.71106C41.4365 7.67997 41.3329 7.63162 41.2465 7.57635C41.1464 7.51073 41.0048 7.37948 40.8217 7.18605C40.6421 6.98917 40.4556 6.77157 40.2621 6.52979C40.0687 6.28801 39.8926 6.03932 39.7233 5.79063C39.5575 5.54194 39.4332 5.33124 39.3537 5.16545L39.105 4.66462L38.9254 5.33124C38.8978 5.4245 38.8667 5.53503 38.8322 5.65592C38.8011 5.78026 38.7631 5.90806 38.7251 6.04277C38.6837 6.17748 38.6457 6.30873 38.6111 6.43998C38.5766 6.57123 38.5386 6.68867 38.504 6.7992C38.4384 7.0168 38.3832 7.21714 38.3417 7.39675C38.2968 7.57635 38.2726 7.68688 38.2657 7.72142C38.2657 7.81468 38.2623 7.86304 38.2554 7.86304C38.2208 7.84231 38.1794 7.81813 38.1345 7.79741C38.0999 7.78359 38.055 7.76287 38.0101 7.73869C37.9618 7.71451 37.91 7.68688 37.8512 7.6558L37.4609 7.45892L37.492 7.06861C37.4989 6.99608 37.5266 6.86137 37.5784 6.66104C37.6302 6.46071 37.6924 6.22929 37.7683 5.95987C37.8443 5.69046 37.9272 5.41069 38.017 5.11364C38.1068 4.81659 38.1932 4.53682 38.2761 4.27086C38.359 4.0049 38.435 3.77694 38.504 3.58006C38.5731 3.38318 38.6215 3.25883 38.6491 3.20012C38.6837 3.1414 38.7078 3.08613 38.7182 3.03087C38.7286 2.9756 38.7286 2.94106 38.7113 2.92725C38.6906 2.91343 38.6526 2.94452 38.6042 3.02051C38.5524 3.0965 38.5006 3.19321 38.4419 3.30719C38.3832 3.42463 38.3244 3.54897 38.2692 3.68022C38.2105 3.81493 38.1725 3.93237 38.1483 4.03253C38.1207 4.13961 38.0585 4.23632 37.9652 4.31576C37.872 4.39521 37.7856 4.43665 37.7062 4.43665C37.6544 4.43665 37.6129 4.41938 37.5749 4.38139C37.5093 4.31576 37.492 4.1776 37.5266 3.96345C37.5576 3.7493 37.6267 3.50407 37.7269 3.2312C37.8271 2.95488 37.9549 2.67165 38.0999 2.37806C38.2484 2.08447 38.4108 1.82542 38.5835 1.60091C38.7355 1.40403 38.9082 1.22787 39.105 1.06208C39.3019 0.899741 39.5092 0.76158 39.7302 0.647598C39.9513 0.537069 40.1827 0.447265 40.421 0.388547C40.6594 0.326374 40.8942 0.295288 41.1256 0.295288H41.7888L42.1688 0.664869C42.2689 0.765035 42.3725 0.88938 42.4796 1.03445C42.5832 1.17952 42.6592 1.30732 42.7007 1.41439L42.8561 1.80124ZM41.4987 3.33137C41.5988 3.19321 41.6679 3.02741 41.7059 2.83744C41.7405 2.64402 41.7543 2.45405 41.737 2.26753C41.7232 2.07756 41.6817 1.90831 41.6161 1.75288C41.5505 1.59745 41.4607 1.49038 41.3432 1.43166C41.2776 1.39712 41.1878 1.36949 41.0773 1.34876C40.9668 1.32804 40.8493 1.32113 40.7353 1.32113C40.6352 1.32113 40.5385 1.32804 40.4487 1.34186C40.3589 1.35567 40.2898 1.3764 40.2483 1.40748C40.2207 1.42821 40.1654 1.52837 40.0894 1.70453C40.0135 1.88068 39.934 2.09138 39.8546 2.3297C39.7751 2.56803 39.6991 2.81327 39.6266 3.06196C39.5541 3.31064 39.4988 3.52479 39.4643 3.69749L39.409 4.00145L39.6162 4.05671C39.6957 4.07744 39.7579 4.09125 39.8062 4.10161C39.8546 4.10852 39.8891 4.11198 39.9098 4.11198C39.9824 4.11198 39.9478 4.06362 39.8131 3.97036L39.5955 3.80802H39.8028C39.8615 3.80111 39.9306 3.81148 40.01 3.83911C40.0894 3.86674 40.162 3.90128 40.2276 3.93582L40.4452 4.07744L40.8597 3.84947C40.9771 3.79075 41.098 3.71131 41.2224 3.60424C41.3467 3.50407 41.44 3.41081 41.4987 3.33137ZM40.9564 0.865201L41.1187 0.972276C41.2327 1.05172 41.3225 1.09317 41.3847 1.09317C41.4469 1.09317 41.4503 1.05172 41.402 0.972276C41.3881 0.944644 41.3536 0.917011 41.3053 0.896287C41.2534 0.875563 41.2016 0.865201 41.1429 0.865201H40.9564Z" fill="#828282"/>
<path d="M50.4075 0.485185C50.5146 0.564627 50.6078 0.647522 50.6804 0.733873C50.7529 0.820223 50.7874 0.885849 50.7874 0.930752C50.7874 0.975654 50.7391 1.08618 50.6424 1.26234C50.5457 1.43849 50.4317 1.62846 50.3073 1.82534C50.1795 2.02567 50.0587 2.20874 49.9378 2.37453C49.8169 2.54032 49.7374 2.63358 49.6925 2.65776C49.6649 2.67158 49.6062 2.66812 49.5233 2.64049C49.4404 2.61631 49.3506 2.57486 49.2573 2.51614L48.9085 2.31927L48.9845 2.06021C49.0052 1.98077 49.0328 1.90133 49.0604 1.82189C49.0881 1.74245 49.1157 1.67682 49.1364 1.62501L49.2021 1.46267L48.8221 1.5283C48.684 1.55593 48.5354 1.58701 48.3765 1.62155C48.2177 1.65264 48.0588 1.69064 47.8999 1.72863C47.741 1.77008 47.589 1.80462 47.444 1.8357C47.2989 1.86679 47.1745 1.89788 47.0744 1.92896C46.8844 1.98077 46.7186 2.09821 46.5736 2.28127C46.4285 2.46433 46.2834 2.74411 46.1383 3.11369L45.9656 3.5489L47.2367 3.33129C47.6201 3.26567 47.9172 3.21386 48.1209 3.17932C48.3282 3.14478 48.4802 3.12405 48.5838 3.12405C48.684 3.12405 48.7461 3.14132 48.7634 3.17932C48.7807 3.21386 48.7876 3.26912 48.7807 3.34166C48.7738 3.40728 48.7599 3.46255 48.7358 3.50399C48.715 3.5489 48.684 3.56962 48.6494 3.56962C48.6149 3.56271 48.5907 3.57998 48.5803 3.62489C48.57 3.66979 48.57 3.71814 48.5872 3.77686L48.6425 3.9841L47.4267 4.19134C47.2609 4.21898 47.0951 4.24661 46.9259 4.27424C46.7601 4.29842 46.6046 4.3226 46.463 4.34332C46.3214 4.36404 46.1971 4.38477 46.0934 4.40204C45.9898 4.41931 45.9138 4.43312 45.8724 4.44003L45.5477 4.48493L45.3301 4.94086C45.2645 5.07212 45.1885 5.23446 45.0952 5.43479C45.0054 5.63512 44.9225 5.81473 44.85 5.97362L44.6013 6.54007L45.9277 6.3881C46.1073 6.36737 46.3007 6.34665 46.5079 6.32938C46.7152 6.31211 46.9155 6.29484 47.1158 6.27411C47.3162 6.25684 47.5027 6.23957 47.6823 6.22576C47.8584 6.21194 48.0104 6.20158 48.1348 6.19467L49.0155 6.14977L48.9948 6.50899L48.5182 6.55389C48.3869 6.56771 48.2108 6.58152 47.9862 6.59188C47.7617 6.60225 47.5545 6.61606 47.368 6.62988C47.178 6.64369 47.0157 6.65751 46.874 6.67478C46.7324 6.6886 46.6564 6.70241 46.6392 6.71968C46.539 6.81294 46.6323 6.8613 46.9224 6.8613C47.0088 6.8613 47.1158 6.85439 47.2436 6.84403C47.3714 6.83367 47.5165 6.81985 47.6823 6.80603C47.9517 6.7784 48.1866 6.76113 48.3938 6.75768C48.6011 6.75422 48.7116 6.76458 48.7254 6.78531C48.7392 6.79912 48.7219 6.84057 48.677 6.9062C48.6287 6.97183 48.57 7.04091 48.4974 7.11344C48.4249 7.18598 48.3489 7.2516 48.2695 7.31032C48.19 7.36904 48.1279 7.40012 48.0864 7.40703C48.0657 7.41394 48.0346 7.42085 48.0001 7.42776C47.9621 7.43466 47.9275 7.44503 47.893 7.45884C47.8584 7.46575 47.7686 7.47957 47.627 7.50374C47.4854 7.52447 47.33 7.5521 47.1538 7.57973C47.0675 7.58664 46.9569 7.60046 46.8222 7.62463C46.6875 7.64536 46.5459 7.66954 46.3939 7.69371C46.242 7.71789 46.0831 7.74552 45.9207 7.7697C45.7584 7.79388 45.5995 7.82152 45.4475 7.8526C45.1574 7.90441 44.9156 7.9424 44.7257 7.96658C44.5322 7.99076 44.3699 8.00458 44.2317 8.00458C44.0418 8.00458 43.8932 7.9804 43.7793 7.92859C43.6687 7.87678 43.5375 7.79734 43.3924 7.69026C43.2853 7.60391 43.1886 7.51756 43.1092 7.43121C43.0297 7.34486 42.9883 7.28269 42.9883 7.24815C42.9883 7.21361 43.0194 7.11689 43.0815 6.96492C43.1437 6.81294 43.2197 6.64715 43.3164 6.46409C43.4166 6.2603 43.5271 6.03579 43.6411 5.79055C43.7585 5.54532 43.876 5.28972 43.9934 5.03067C44.1143 4.77162 44.2317 4.51257 44.3457 4.26042C44.4631 4.00828 44.5668 3.77686 44.66 3.56617C44.7533 3.35547 44.8327 3.17586 44.8949 3.02734C44.9571 2.87882 44.9951 2.7821 45.0089 2.74066L45.0952 2.44707L44.7153 2.36072C44.6151 2.33999 44.5081 2.29854 44.3941 2.23637C44.2835 2.1742 44.1972 2.11203 44.1385 2.0464L43.9416 1.80807L44.3319 1.07927L44.9951 0.982562C45.0883 0.968746 45.2092 0.948023 45.3543 0.923845C45.4994 0.899667 45.6582 0.86858 45.8309 0.830586C46.0036 0.796046 46.1867 0.754597 46.3732 0.709695C46.5632 0.664793 46.7428 0.623345 46.9155 0.578443C47.0882 0.533541 47.2747 0.495546 47.475 0.457552C47.6754 0.419558 47.8723 0.388472 48.0726 0.36084C48.2729 0.333208 48.4594 0.305575 48.6391 0.284851C48.8152 0.264127 48.9706 0.253765 49.1019 0.253765L50.0345 0.208862L50.4075 0.485185Z" fill="#828282"/>
</svg>
