<svg width="52" height="9" viewBox="0 0 52 9" fill="none" xmlns="http://www.w3.org/2000/svg">
<path d="M6.62134 0.0942369C6.7071 0.10796 6.7517 0.159421 6.7517 0.24519V0.427022C6.7517 0.478484 6.72769 0.581407 6.68309 0.739222C6.63506 0.897037 6.57674 1.07887 6.50469 1.28471C6.43264 1.49056 6.35031 1.7067 6.26111 1.93656C6.17191 2.16642 6.0827 2.38599 5.99694 2.58841C5.91117 2.79425 5.83226 2.96922 5.76021 3.11331C5.68817 3.25741 5.63328 3.34661 5.59897 3.38435L5.47889 3.50442L5.60926 2.52322L5.41371 2.98638C5.34852 3.12361 5.27991 3.23339 5.20443 3.31573C5.12895 3.39807 5.06034 3.43924 4.99515 3.43924C4.85106 3.43924 4.78587 3.36719 4.79617 3.2231C4.80646 3.07901 4.89909 2.83542 5.07063 2.48891C5.14954 2.32424 5.22501 2.15956 5.2902 1.99831C5.35881 1.83707 5.40341 1.72385 5.424 1.65867L5.44458 1.60378C5.4583 1.55231 5.45144 1.50771 5.424 1.46311C5.39655 1.41851 5.35195 1.3945 5.29363 1.38764C5.2353 1.38764 5.16669 1.37734 5.08778 1.36019C5.00887 1.34304 4.94369 1.32245 4.89223 1.30187C4.8339 1.27442 4.75843 1.27785 4.6658 1.31216C4.57317 1.34647 4.47367 1.40479 4.37418 1.4837L4.10315 1.69984C4.05855 1.72728 4.03797 1.77531 4.03797 1.8405L4.09286 2.31395C4.09972 2.39285 4.11344 2.48548 4.1306 2.58841C4.14775 2.69133 4.16834 2.80111 4.18892 2.9109C4.20951 3.02068 4.23352 3.13733 4.25753 3.25055C4.28155 3.36719 4.309 3.47011 4.33987 3.56275C4.36732 3.65538 4.39477 3.76859 4.42221 3.90239C4.44623 4.03619 4.47024 4.17342 4.4874 4.31751C4.50455 4.46161 4.5217 4.60913 4.53543 4.76008C4.54915 4.91104 4.55601 5.0517 4.55601 5.18207L4.5766 6.0775C4.5766 6.09808 4.56974 6.12553 4.55601 6.15298L4.31929 6.67102C4.24038 6.81511 4.17863 6.95578 4.1306 7.09644C4.08256 7.2371 4.06198 7.3263 4.06198 7.36061C4.06198 7.45324 4.02081 7.50127 3.9419 7.50127C3.9076 7.50127 3.8527 7.52528 3.78066 7.57675C3.70861 7.62821 3.64 7.68996 3.57481 7.75858L3.37926 7.95413C3.33466 7.99873 3.29349 8.01245 3.24889 7.99873L2.79603 7.97815C2.47353 7.95756 2.19564 7.89924 1.96578 7.81004C1.73592 7.72084 1.50606 7.55959 1.2762 7.32973L0.974288 7.03812C0.946842 7.01067 0.929688 6.9695 0.929688 6.91804V6.52007C0.929688 5.95056 1.0086 5.66924 1.16641 5.66924C1.29678 5.66924 1.47518 5.85793 1.70504 6.23188C1.80453 6.39656 1.89373 6.52007 1.96921 6.60241C2.04469 6.68475 2.08929 6.70876 2.10301 6.67102C2.11673 6.63671 2.10301 6.57153 2.06527 6.47547C2.0241 6.38284 1.96921 6.28335 1.89716 6.18385C1.70161 5.90253 1.60898 5.70355 1.61584 5.58347C1.6227 5.46339 1.73592 5.40507 1.94863 5.40507H1.95892C2.00352 5.40507 2.04126 5.42222 2.07213 5.4531C2.10301 5.48398 2.12017 5.52171 2.12017 5.56631V5.92312C2.12017 5.9883 2.15447 6.03976 2.22652 6.07407L2.44266 6.15984C2.52843 6.19415 2.60733 6.22159 2.67595 6.24218C2.74457 6.25933 2.80632 6.26962 2.86464 6.26962C3.06706 6.26962 3.16655 6.12896 3.16655 5.84764C3.16655 5.56631 3.08421 5.08944 2.91953 4.41358C2.87493 4.24204 2.83377 4.06707 2.79603 3.88867C2.75486 3.7137 2.72398 3.54216 2.69997 3.38091C2.67595 3.21967 2.65193 3.07215 2.63478 2.93835C2.61763 2.80455 2.60733 2.69819 2.60733 2.61928C2.60733 2.48205 2.62449 2.3311 2.66223 2.16642C2.69653 2.00175 2.748 1.83707 2.81318 1.66896C2.87837 1.50428 2.95384 1.34647 3.03961 1.19551C3.12538 1.04456 3.21458 0.91419 3.31064 0.807836C3.38955 0.715206 3.48904 0.626007 3.61255 0.543668C3.73606 0.46133 3.86643 0.385852 4.00709 0.324098C4.14775 0.258913 4.29184 0.207452 4.43937 0.166283C4.58689 0.125114 4.71726 0.10796 4.8339 0.10796H4.97457C5.17698 0.10796 5.34166 0.180006 5.47203 0.324098L5.69846 0.550529C5.74306 0.595129 5.79109 0.612284 5.84255 0.605422C5.89744 0.598561 5.93861 0.571114 5.96606 0.519653L6.17191 0.0976671C6.18563 0.0633594 6.21308 0.035914 6.24738 0.0153294C6.28169 -0.00182446 6.31943 -0.00525538 6.35374 0.00846769L6.62134 0.0942369ZM3.43072 4.00875C3.44444 3.99502 3.44444 3.91268 3.42386 3.76516C3.4067 3.61764 3.37583 3.44953 3.33123 3.26427C3.28663 3.07558 3.24546 2.92119 3.20772 2.79425C3.16655 2.66731 3.14253 2.61242 3.12538 2.62615C3.11166 2.63987 3.11509 2.72221 3.13567 2.86973C3.15626 3.01725 3.18713 3.18536 3.22144 3.37062C3.26604 3.55931 3.30721 3.7137 3.34495 3.84064C3.38955 3.96758 3.41357 4.0259 3.43072 4.00875Z" fill="#E1E1E1"/>
<path d="M10.9746 2.43396L10.9197 3.10296C10.8854 3.53524 10.7825 3.98124 10.6178 4.44782C10.4531 4.91098 10.2438 5.35012 9.99339 5.76524C9.74294 6.18036 9.46162 6.54403 9.15628 6.85966C8.85094 7.17529 8.53875 7.40515 8.22311 7.54924C8.00698 7.64187 7.85945 7.6899 7.78054 7.6899C7.73594 7.6899 7.69821 7.68304 7.66047 7.67275C7.62616 7.66246 7.57813 7.6453 7.51981 7.62472C7.46834 7.61099 7.41688 7.6007 7.36199 7.59384C7.3071 7.58698 7.2625 7.59041 7.22819 7.60413C7.20074 7.61786 7.16301 7.61786 7.11497 7.60413C7.06694 7.59041 7.02577 7.56983 6.99147 7.53895C6.95716 7.50464 6.91256 7.48062 6.8611 7.47376C6.80964 7.4669 6.76504 7.47033 6.72044 7.48406L6.57978 7.53895L6.01713 6.94543L5.93136 6.48227C5.84559 6.01569 5.87304 5.47706 6.01713 4.86981C6.16122 4.26256 6.43225 3.53867 6.82679 2.6947L7.21447 1.89533L8.29173 0.838654H8.70342C8.82007 0.838654 8.91956 0.848947 9.01219 0.866101C9.10139 0.883255 9.15285 0.903839 9.17 0.924423L9.2249 1.01019L9.37585 0.934717C9.41016 0.914132 9.47535 0.893547 9.57141 0.876393C9.66404 0.859239 9.76353 0.842085 9.86302 0.828362L10.1958 0.797485L10.2164 0.969024C10.2301 1.02049 10.261 1.07881 10.3022 1.14742C10.3468 1.21604 10.3948 1.27436 10.4531 1.32582C10.5114 1.38415 10.5766 1.47335 10.6487 1.59686C10.7207 1.72036 10.779 1.84387 10.8202 1.97424L10.9746 2.43396ZM8.03785 6.67439C8.1545 6.60235 8.29173 6.49256 8.45984 6.34161C8.62451 6.19066 8.78233 6.02941 8.93328 5.8613C9.08424 5.69319 9.21117 5.53538 9.31753 5.39129C9.42045 5.24719 9.47534 5.1477 9.47534 5.08938C9.47534 5.03792 9.42045 5.0139 9.3141 5.0139C9.25578 5.0139 9.19402 4.98989 9.12541 4.93842C9.05679 4.88696 8.98818 4.82178 8.91956 4.74287C8.85094 4.66396 8.78576 4.57133 8.72401 4.46155C8.66225 4.35519 8.61079 4.24198 8.56619 4.12876L8.43582 3.70678L8.4667 3.23333C8.48042 3.10296 8.49414 2.98289 8.5113 2.8731C8.52502 2.76332 8.53874 2.69127 8.5559 2.66382C8.6005 2.6055 8.59021 2.58149 8.53531 2.58835C8.47699 2.59521 8.41867 2.63295 8.36377 2.6947C8.32604 2.74616 8.26771 2.87653 8.18538 3.09267C8.10304 3.30881 8.01727 3.55582 7.9315 3.83029C7.84573 4.10818 7.76339 4.38607 7.68448 4.67082C7.60558 4.95558 7.54725 5.18544 7.51295 5.36727L7.38257 6.08087L7.55411 6.32789C7.60557 6.39307 7.64331 6.46169 7.66733 6.53716C7.69134 6.61264 7.69821 6.66753 7.68448 6.70527C7.6193 6.8871 7.73594 6.87681 8.03785 6.67439ZM10.0346 3.77196C10.1409 3.18873 10.1546 2.69813 10.0654 2.2933C10.0003 2.01884 9.92478 1.88161 9.83901 1.88161C9.76696 1.88161 9.70178 1.96738 9.64345 2.13549C9.58513 2.30359 9.55425 2.54032 9.54739 2.84222L9.52681 3.40487L9.67776 3.72736C9.77725 3.93664 9.85273 4.03956 9.90419 4.03956C9.96251 4.04299 10.0071 3.95379 10.0346 3.77196ZM9.78754 4.49585C9.80813 4.49585 9.81842 4.46841 9.81842 4.41009C9.81842 4.35176 9.79097 4.32432 9.73265 4.32432C9.68119 4.32432 9.66747 4.35176 9.68805 4.41009C9.73265 4.46498 9.76696 4.49585 9.78754 4.49585ZM9.77725 1.09596C9.75667 1.15429 9.78411 1.18173 9.86302 1.18173C9.94879 1.18173 9.99339 1.17144 9.99339 1.15085C9.99339 1.09939 9.96594 1.06852 9.90762 1.05822C9.8493 1.04793 9.8047 1.06165 9.77725 1.09596Z" fill="#E1E1E1"/>
<path d="M18.5287 0.16976L18.4978 0.698098L18.3263 0.687806C18.2199 0.687806 18.1753 0.715252 18.1959 0.773575C18.2474 0.859345 18.2234 0.938252 18.1307 1.0103C18.0381 1.08234 17.8974 1.13037 17.7087 1.15096C17.4926 1.17841 17.2696 1.21271 17.0397 1.24702C16.8099 1.28133 16.5972 1.31907 16.4016 1.36024C16.2061 1.40141 16.0414 1.43914 15.9042 1.47345C15.7669 1.51119 15.6812 1.54207 15.6468 1.56951C15.6091 1.59696 15.5508 1.6793 15.4685 1.8131C15.3861 1.9469 15.3003 2.09099 15.2146 2.24538C15.1288 2.39976 15.0499 2.54728 14.9813 2.68108C14.9127 2.81831 14.8784 2.90751 14.8784 2.95211C14.8784 2.9727 14.9367 2.99328 15.0568 3.00701C15.1768 3.02073 15.3175 3.02416 15.4822 3.0173C15.8047 3.0173 16.0654 3.05504 16.2575 3.13051C16.4531 3.20599 16.5457 3.31234 16.5388 3.44958L16.5286 3.62111L15.9144 3.59024L16.0963 3.72061C16.2678 3.82696 16.3227 3.90244 16.2541 3.94704C16.1855 3.99164 16.0105 3.99164 15.7292 3.94704C15.5851 3.92645 15.4136 3.91616 15.218 3.91616C15.019 3.91616 14.8612 3.92988 14.7377 3.96076L14.2745 4.05682L13.7668 5.1135C13.4855 5.70359 13.2522 6.18733 13.0669 6.57158C12.8782 6.95239 12.7273 7.2543 12.6072 7.4773C12.4871 7.7003 12.3979 7.85468 12.3327 7.94045C12.2675 8.02622 12.2126 8.07082 12.1715 8.07082C12.1372 8.07082 12.0994 8.03652 12.0651 7.96447C12.0514 7.93702 12.0137 7.90958 11.9588 7.88213C11.9004 7.85812 11.8421 7.84439 11.7872 7.84439C11.722 7.83753 11.6637 7.81695 11.6088 7.77921C11.5539 7.7449 11.5196 7.70373 11.5059 7.65913C11.4922 7.60767 11.4888 7.55621 11.4956 7.50132C11.5025 7.44642 11.5299 7.35722 11.578 7.23028C11.626 7.10335 11.7015 6.93181 11.8112 6.71224C11.9176 6.49267 12.0617 6.19419 12.2435 5.80995C12.3156 5.66585 12.3808 5.52519 12.4425 5.38796C12.5043 5.25073 12.5592 5.13065 12.6106 5.02773C12.6621 4.92481 12.6998 4.83561 12.7307 4.77042C12.7581 4.70181 12.7753 4.66407 12.7753 4.65721C12.7753 4.62976 12.7444 4.60575 12.6827 4.59202C12.6209 4.5783 12.5489 4.57487 12.4631 4.58173C12.3773 4.59545 12.2847 4.58859 12.1818 4.55428C12.0823 4.52341 12.0034 4.48224 11.945 4.43078L11.7289 4.23522L11.8902 4.14945C11.9896 4.08427 12.024 4.01222 11.9862 3.93331C11.9725 3.90587 11.9999 3.8647 12.072 3.80981C12.144 3.75491 12.2401 3.70002 12.3636 3.6417C12.4871 3.58338 12.6209 3.53191 12.7684 3.48045C12.916 3.42899 13.0532 3.39468 13.1836 3.3741L13.4649 3.31921L13.7565 2.75656C13.8354 2.60561 13.9006 2.47181 13.952 2.35859C14.0035 2.24194 14.0241 2.18362 14.0172 2.17676C14.0035 2.16304 13.9212 2.18019 13.7736 2.23165C13.6261 2.28311 13.4512 2.3483 13.2487 2.42721C13.0189 2.51984 12.8302 2.58845 12.6861 2.62619C12.542 2.66736 12.4151 2.68451 12.3087 2.68451C12.2298 2.68451 12.1509 2.67422 12.0754 2.65364C11.9999 2.63305 11.9176 2.60218 11.8318 2.56787L11.5505 2.4375L12.2092 1.55236L12.7478 1.31564C12.8473 1.27104 12.988 1.21958 13.1698 1.15439C13.3482 1.08921 13.5506 1.02059 13.7702 0.945114C13.9898 0.869637 14.2196 0.79416 14.4564 0.725545C14.6931 0.653499 14.923 0.584883 15.1425 0.516268C15.3621 0.447652 15.5645 0.389329 15.7532 0.337867C15.9419 0.286406 16.086 0.252099 16.1958 0.231514C16.4702 0.173191 16.7447 0.12859 17.0226 0.0977132C17.3005 0.0668363 17.5406 0.0496826 17.7499 0.0496826C17.8494 0.0496826 17.9386 0.0531143 18.0141 0.0599758C18.0896 0.0668374 18.1547 0.0771297 18.2131 0.0908528L18.5287 0.16976Z" fill="#E1E1E1"/>
<path d="M23.6548 1.13029L23.8504 1.26066C23.9087 1.29497 23.9533 1.3327 23.991 1.36701C24.0253 1.40132 24.0459 1.42877 24.0459 1.44249C24.0459 1.45621 23.991 1.46994 23.8778 1.48709C23.7646 1.50081 23.6274 1.50767 23.4627 1.50767C23.298 1.51453 23.1402 1.52483 22.9892 1.53512C22.8383 1.54541 22.7354 1.55914 22.677 1.57286L22.4712 1.62775L22.1247 2.32763C22.0389 2.4923 21.9429 2.69815 21.8331 2.94174C21.7267 3.18532 21.6135 3.44949 21.4934 3.73424C21.3733 4.019 21.2567 4.30718 21.1435 4.60223C21.0268 4.89727 20.9205 5.1786 20.821 5.44277C20.7215 5.71037 20.6323 5.95052 20.5637 6.16666C20.4916 6.3828 20.4367 6.55434 20.4024 6.6847C20.3578 6.85624 20.3235 7.00034 20.2961 7.11012C20.2686 7.22334 20.2378 7.30567 20.2103 7.364C20.1829 7.42232 20.1554 7.46006 20.128 7.48407C20.104 7.50466 20.0731 7.51495 20.0353 7.51495C19.9839 7.51495 19.977 7.48408 20.0148 7.41889C20.0285 7.39144 20.0216 7.38115 19.9942 7.39144C19.9667 7.40174 19.9187 7.43261 19.8535 7.48407C19.7952 7.52867 19.7472 7.57327 19.7094 7.61787C19.6683 7.6659 19.658 7.69678 19.6717 7.71051C19.6854 7.73109 19.6854 7.76883 19.6717 7.82372C19.658 7.87861 19.6374 7.93351 19.6134 7.99526C19.5893 8.05701 19.5619 8.10848 19.531 8.15308C19.5036 8.19768 19.4761 8.21826 19.4555 8.21826C19.435 8.21826 19.4075 8.20797 19.3732 8.18738C19.3423 8.1668 19.3149 8.13935 19.2909 8.11191C19.2703 8.07417 19.2463 8.033 19.2222 7.9884C19.1982 7.94037 19.1777 7.8992 19.1639 7.86489L19.109 7.73452L19.0987 7.88548C19.0987 7.93008 19.0919 7.96781 19.0782 7.99869C19.0644 8.02957 19.0473 8.04672 19.0233 8.04672C18.9512 8.04672 18.8895 8.00212 18.8346 7.91635C18.7797 7.83058 18.7454 7.72766 18.7316 7.61444C18.7179 7.4978 18.7214 7.38458 18.7419 7.2748C18.7625 7.16501 18.8071 7.08267 18.8723 7.03121C18.9581 6.96603 18.9752 6.90771 18.9272 6.85967C18.9135 6.83909 18.9066 6.79449 18.9101 6.72931C18.9135 6.66412 18.9341 6.59551 18.9684 6.52346C19.0027 6.44455 19.0336 6.39309 19.0541 6.36564C19.0747 6.34163 19.085 6.34506 19.085 6.3828L19.0953 6.51317L19.1708 6.4274C19.1777 6.41367 19.1948 6.37251 19.2257 6.30732C19.2531 6.24214 19.2874 6.15637 19.3217 6.05001C19.3561 5.94366 19.4007 5.82015 19.4521 5.68978C19.5036 5.55598 19.5516 5.41532 19.6031 5.26437C19.6545 5.11341 19.7094 4.9453 19.7712 4.75661C19.8329 4.57135 19.8981 4.38266 19.9667 4.19397C20.0353 4.0087 20.104 3.82687 20.1726 3.64847C20.2412 3.4735 20.2995 3.31569 20.351 3.17846C20.4573 2.904 20.55 2.66727 20.622 2.46486C20.6941 2.26244 20.7215 2.15609 20.7078 2.14237C20.6941 2.12864 20.6392 2.13207 20.5397 2.15952C20.4436 2.18354 20.3372 2.21784 20.2275 2.25558C20.1177 2.29675 20.0113 2.33792 19.9153 2.38595C19.8192 2.43398 19.7609 2.46829 19.7472 2.48887C19.7334 2.50946 19.73 2.54034 19.7369 2.5815C19.7437 2.62267 19.7643 2.66041 19.8021 2.69472L19.8981 2.82509H19.778C19.7403 2.82509 19.7026 2.84224 19.6648 2.87998C19.6237 2.91429 19.5962 2.95889 19.5722 3.01035L19.4864 3.19218L18.5361 3.51467L18.2136 3.42891C18.0558 3.38431 17.946 3.33284 17.8911 3.26766C17.8328 3.20247 17.8671 3.1716 17.9872 3.1716C18.0146 3.1716 18.0112 3.14758 17.9769 3.09612C17.9426 3.04466 17.8843 2.97947 17.8053 2.90057C17.6613 2.75647 17.5721 2.63297 17.5412 2.53347C17.5103 2.43398 17.5515 2.4031 17.6647 2.4477L17.7951 2.5026V2.08061L18.1621 1.79929C18.32 1.67578 18.5155 1.55227 18.7488 1.42877C18.9821 1.30183 19.2291 1.18518 19.4933 1.07883C19.7575 0.972473 20.0216 0.872981 20.2858 0.787212C20.5534 0.701443 20.7935 0.639689 21.0097 0.605382C21.0955 0.591659 21.2293 0.564212 21.4077 0.529904C21.5861 0.495597 21.761 0.457858 21.9257 0.42355C22.0115 0.402965 22.1144 0.382381 22.2276 0.368658C22.3443 0.354935 22.4643 0.341211 22.5947 0.324057C22.7251 0.310334 22.8554 0.296612 22.9892 0.28632C23.123 0.276028 23.2465 0.269165 23.3598 0.269165H24.1797L24.5674 0.485304L24.341 1.04795L23.6548 1.13029Z" fill="#E1E1E1"/>
<path d="M31.7199 0.234863L31.6547 0.365233C31.6341 0.399541 31.6136 0.471587 31.5998 0.57451C31.5861 0.677433 31.5792 0.783786 31.5792 0.89357C31.5792 1.00336 31.569 1.11314 31.5518 1.23322C31.5346 1.35329 31.5175 1.43906 31.5038 1.49739C31.4832 1.56943 31.4077 1.74097 31.2773 2.01543C31.147 2.28989 30.9926 2.61239 30.8073 2.98634C30.6221 3.36029 30.4265 3.75826 30.2138 4.18025C30.0011 4.60223 29.7987 4.99677 29.61 5.36729C29.4179 5.73782 29.2532 6.05688 29.1091 6.32791C28.965 6.59894 28.8689 6.76362 28.8175 6.8288C28.79 6.8734 28.7351 6.96946 28.6562 7.12042C28.5773 7.27137 28.495 7.43262 28.4092 7.60759L28.1073 8.24228L27.5447 8.26287L27.3628 7.97125C27.3045 7.89234 27.2462 7.81343 27.1844 7.73796C27.1227 7.66248 27.0712 7.61445 27.0266 7.59386L26.886 7.50809L26.8963 5.77213V4.02586L26.7899 4.12193C26.711 4.18711 26.6698 4.25916 26.6698 4.33806C26.6698 4.37237 26.6458 4.43756 26.5943 4.53362C26.5429 4.62625 26.4846 4.72574 26.4125 4.82523C26.3336 4.92473 26.2684 5.01736 26.217 5.09969C26.1655 5.18203 26.1415 5.23349 26.1415 5.25751C26.1415 5.27123 26.1175 5.34328 26.0729 5.46679C26.0248 5.59373 25.9631 5.73439 25.8842 5.8922C25.8121 6.05002 25.7504 6.18725 25.7023 6.30389C25.6509 6.42054 25.6269 6.48229 25.6269 6.49945C25.6269 6.52003 25.5994 6.59208 25.5445 6.71559C25.4896 6.83909 25.4279 6.96946 25.3627 7.11013C25.2941 7.25079 25.2289 7.38116 25.1671 7.50467C25.1054 7.62817 25.0676 7.69679 25.0539 7.71051C25.0402 7.72423 25.0093 7.72423 24.9613 7.70365C24.9133 7.68649 24.8687 7.65905 24.8275 7.62131L24.6662 7.48065V7.62131C24.6662 7.71394 24.6354 7.76197 24.5702 7.76197C24.5187 7.76197 24.481 7.73453 24.4501 7.6762C24.4364 7.65562 24.433 7.63503 24.4432 7.61788C24.4535 7.60072 24.4776 7.59043 24.5119 7.59043C24.5462 7.59043 24.5462 7.57671 24.505 7.54583C24.4638 7.51839 24.4055 7.48408 24.3266 7.44977L24.035 7.29882L24.1551 3.59702H23.9492L24.0144 2.70159C24.0281 2.43399 24.0556 2.20069 24.0899 2.00171C24.1242 1.79929 24.1619 1.67236 24.1962 1.61403C24.2305 1.56257 24.2614 1.51111 24.282 1.45279C24.3026 1.39446 24.3163 1.34986 24.3266 1.31212C24.3266 1.28468 24.3506 1.24008 24.3952 1.18176C24.4432 1.12343 24.4981 1.06511 24.5633 1.01022L24.8103 0.828386L25.1877 0.924447V1.34643L25.5205 1.24008L25.7161 1.61746L25.6715 2.27617C25.6577 2.46486 25.6406 2.64669 25.6234 2.82509C25.6063 3.00349 25.5891 3.13043 25.5754 3.20248C25.5617 3.29511 25.548 3.42205 25.5308 3.57986C25.5171 3.73768 25.5068 3.89549 25.4999 4.05331C25.4931 4.21113 25.4862 4.34836 25.4828 4.465C25.4793 4.58165 25.4793 4.63654 25.4896 4.63654C25.5034 4.63654 25.6097 4.465 25.8018 4.12536C25.9974 3.78228 26.2478 3.31913 26.5566 2.72903C26.6218 2.59866 26.687 2.47516 26.7556 2.35851C26.8242 2.23843 26.886 2.13208 26.9443 2.03945C27.0026 1.94682 27.0541 1.86791 27.1055 1.80272C27.157 1.73754 27.1913 1.69637 27.2119 1.67236C27.2702 1.62776 27.3354 1.59345 27.4109 1.56943C27.4863 1.54542 27.5652 1.53169 27.6442 1.53169C27.7951 1.53169 27.9015 1.57286 27.9667 1.65177C27.9941 1.67922 28.0181 1.81302 28.0318 2.04631C28.0456 2.2796 28.0559 2.57122 28.0593 2.91429C28.0627 3.2608 28.0593 3.63476 28.0524 4.03616C28.0456 4.43756 28.0318 4.82866 28.0078 5.20262L27.9529 6.16323L28.4401 5.08597C28.6905 4.51646 28.9376 3.98813 29.1743 3.50096C29.411 3.01036 29.634 2.57465 29.8433 2.18354C30.0526 1.79586 30.2413 1.46308 30.4162 1.19205C30.5878 0.917587 30.7353 0.718601 30.8588 0.588232L31.1058 0.317202L31.7199 0.234863ZM28.9273 5.02422L28.8415 5.12028C28.8209 5.14086 28.7935 5.18546 28.7592 5.25408C28.7283 5.3227 28.6974 5.39474 28.6734 5.47022C28.6494 5.54569 28.6288 5.61088 28.6185 5.6692C28.6082 5.72753 28.6082 5.75497 28.6254 5.75497C28.6459 5.75497 28.6734 5.72753 28.7077 5.6692C28.7386 5.61088 28.7729 5.54569 28.8038 5.47365C28.8346 5.4016 28.8655 5.33299 28.8895 5.26437C28.9135 5.19576 28.9273 5.15116 28.9273 5.13057V5.02422Z" fill="#E1E1E1"/>
<path d="M38.2073 0.52654L38.4132 0.763264L38.3171 0.818157C38.2965 0.83188 38.2519 0.927941 38.1833 1.10291C38.1147 1.27788 38.0461 1.48373 37.974 1.71359C37.9363 1.83023 37.8951 1.95717 37.8437 2.10126C37.7922 2.24536 37.7442 2.39288 37.6927 2.54383C37.6412 2.69479 37.5932 2.84231 37.5417 2.9864C37.4903 3.1305 37.4457 3.25743 37.4011 3.36379C37.3153 3.59365 37.2433 3.80636 37.1849 4.00191C37.1266 4.19746 37.0992 4.32097 37.0992 4.3793C37.0992 4.5028 37.0752 4.59543 37.0237 4.66062C37.01 4.6812 36.9894 4.73266 36.9585 4.81157C36.9311 4.89048 36.9002 4.98997 36.8727 5.10662C36.8453 5.2267 36.8144 5.35363 36.787 5.49086C36.7595 5.6281 36.7321 5.7619 36.7115 5.88883C36.6978 5.96774 36.6703 6.08782 36.636 6.24906C36.6017 6.41031 36.564 6.56813 36.5297 6.71908C36.4954 6.86317 36.4645 7.02099 36.4439 7.18909C36.4233 7.3572 36.413 7.48414 36.413 7.57334C36.4062 7.65911 36.3959 7.73802 36.3856 7.81007C36.3753 7.88211 36.3616 7.93014 36.3478 7.95073C36.3273 7.96445 36.3067 7.99533 36.2929 8.0365C36.2792 8.0811 36.2724 8.11883 36.2724 8.15657V8.30753L35.4524 8.3384L35.322 8.05708C35.2877 7.97817 35.2603 7.88897 35.2397 7.79291C35.2225 7.69685 35.2157 7.57677 35.2225 7.43268C35.2294 7.28859 35.25 7.11705 35.2809 6.9215C35.3117 6.72251 35.3529 6.48236 35.4044 6.19417C35.4387 5.96431 35.4696 5.76876 35.497 5.60751C35.521 5.44626 35.5279 5.35706 35.5142 5.34334C35.5004 5.32962 35.4353 5.33648 35.3186 5.37079C35.202 5.4051 35.0716 5.4497 34.9206 5.50459L34.3717 5.70014L35.051 5.7962L34.5535 5.94716C34.4095 5.99176 34.2757 6.04322 34.1556 6.1084C34.0321 6.17359 33.9532 6.23534 33.9189 6.29023C33.6307 6.70193 33.3734 7.05873 33.1469 7.36406C32.9205 7.6694 32.7455 7.9027 32.622 8.06051L32.3201 8.41731L32.1143 8.40702C32.0559 8.40016 31.9942 8.3933 31.9256 8.38986C31.857 8.38643 31.8055 8.37614 31.7678 8.36242C31.6957 8.3487 31.6477 8.2938 31.6237 8.20117C31.5996 8.10854 31.5962 7.9816 31.6168 7.82379C31.6237 7.78948 31.6683 7.69685 31.7472 7.54933C31.8261 7.4018 31.9187 7.23713 32.0285 7.05873C32.1349 6.88719 32.2241 6.73623 32.2927 6.60587C32.3613 6.4755 32.3887 6.40345 32.375 6.38973C32.3613 6.376 32.3098 6.37257 32.2172 6.38286C32.128 6.39316 32.0216 6.41374 31.905 6.44805C31.7849 6.47893 31.6648 6.51666 31.5448 6.5544C31.4213 6.59557 31.3218 6.63331 31.2428 6.66762C31.1777 6.70536 31.1159 6.72937 31.061 6.7431C31.0027 6.75682 30.9684 6.75682 30.9547 6.7431C30.9409 6.72937 30.9101 6.72594 30.8689 6.73623C30.8243 6.74653 30.7831 6.76711 30.7385 6.79456L30.567 6.88033L30.3714 6.6985L30.6528 6.6436C30.7317 6.62988 30.8037 6.6093 30.8689 6.57842C30.9341 6.55097 30.9718 6.52353 30.989 6.50294L31.0439 6.41717L30.8483 6.47206C30.8037 6.48579 30.7454 6.48922 30.6665 6.47893C30.5876 6.46863 30.5087 6.45148 30.4332 6.42403C30.3577 6.40002 30.2925 6.36914 30.2342 6.33827C30.1759 6.30739 30.1484 6.27651 30.1484 6.24563C30.1484 6.23191 30.1725 6.21133 30.2171 6.18045C30.2651 6.153 30.32 6.12556 30.3852 6.10497L30.6219 6.0192L30.2102 5.85796L30.5876 5.69671C30.6939 5.65211 30.8723 5.59036 31.1159 5.50116C31.3595 5.41539 31.6031 5.33305 31.8398 5.25414C32.0834 5.17523 32.3338 5.08946 32.5843 5.00026C32.8347 4.91106 33.0234 4.83902 33.1469 4.79099L33.5792 4.62974L34.1933 3.72402C34.3237 3.52846 34.4712 3.31919 34.6359 3.0859C34.8006 2.85603 34.9721 2.62274 35.1471 2.38945C35.322 2.15616 35.5004 1.92286 35.6823 1.693C35.8607 1.46314 36.0288 1.25386 36.1797 1.0686C36.3307 0.883341 36.4645 0.722094 36.5846 0.588294C36.7046 0.454494 36.7904 0.361864 36.8487 0.313833C36.9345 0.241787 37.034 0.186895 37.1438 0.145726C37.2536 0.104557 37.3531 0.0874023 37.4388 0.0874023C37.5555 0.0874023 37.6309 0.114849 37.6652 0.173172C37.679 0.193756 37.7201 0.214342 37.7853 0.231495C37.8505 0.248649 37.9226 0.258941 38.0015 0.258941C38.0804 0.258941 38.1593 0.265803 38.2348 0.279526C38.3102 0.293249 38.3617 0.310403 38.3926 0.334418L38.5127 0.409894L38.2073 0.52654ZM36.0631 3.5662C36.1077 3.44269 36.142 3.32948 36.166 3.2197C36.19 3.11334 36.1969 3.04816 36.1832 3.02414C36.1626 2.98983 36.1214 2.9864 36.0597 3.01728C35.9979 3.04816 35.9259 3.09962 35.8435 3.16823C35.7612 3.23685 35.6754 3.32262 35.5896 3.42211C35.5039 3.5216 35.425 3.62796 35.3529 3.73431C35.2809 3.84066 35.2225 3.94359 35.1745 4.03622C35.1265 4.12885 35.1059 4.18374 35.1059 4.19746C35.1059 4.23177 35.1505 4.25236 35.2363 4.25236C35.3426 4.25236 35.4318 4.22834 35.4936 4.17688C35.5142 4.1563 35.5519 4.13228 35.5999 4.1117C35.6514 4.09111 35.696 4.07739 35.7406 4.06709L35.9121 4.03622L36.0631 3.5662Z" fill="#E1E1E1"/>
<path d="M43.4917 1.78915L43.2549 3.45994L42.9325 3.87163C42.8398 3.98827 42.6957 4.11521 42.5002 4.25931C42.3046 4.4034 42.1159 4.52348 41.9272 4.61611L41.2377 4.96261L41.4195 5.23364C41.5053 5.37088 41.615 5.52183 41.7488 5.69337C41.8826 5.86148 42.0164 6.02272 42.1468 6.17368C42.2806 6.32463 42.4041 6.455 42.5242 6.56135C42.6443 6.66771 42.7266 6.73289 42.7781 6.75691C42.8844 6.79121 42.9565 6.87355 42.9942 6.99363C43.0285 7.11714 43.0079 7.21663 42.929 7.29554C42.9084 7.31612 42.8433 7.30583 42.7335 7.26466C42.6271 7.22006 42.5036 7.16174 42.3664 7.08283C42.1708 6.97648 42.0473 6.92158 41.989 6.92158C41.9307 6.92158 41.9375 6.96275 42.0096 7.04509C42.0816 7.12743 42.2154 7.23721 42.4075 7.37444L42.8192 7.65577L42.5173 7.68665C42.4316 7.70037 42.3252 7.69351 42.2051 7.6592C42.0816 7.62832 41.9787 7.58029 41.8929 7.5254C41.7934 7.46021 41.6528 7.32985 41.4709 7.13772C41.2926 6.94217 41.1073 6.72603 40.9152 6.48588C40.723 6.24572 40.5481 5.99871 40.38 5.75169C40.2153 5.50468 40.0918 5.2954 40.0129 5.13072L39.7659 4.63326L39.5875 5.2954C39.56 5.38803 39.5291 5.49781 39.4948 5.61789C39.4639 5.7414 39.4262 5.86834 39.3885 6.00214C39.3473 6.13594 39.3096 6.26631 39.2753 6.39668C39.2409 6.52704 39.2032 6.64369 39.1689 6.75348C39.1037 6.96961 39.0488 7.1686 39.0077 7.347C38.9631 7.5254 38.939 7.63518 38.9322 7.66949C38.9322 7.76212 38.9287 7.81015 38.9219 7.81015C38.8876 7.78957 38.8464 7.76555 38.8018 7.74497C38.7675 7.73125 38.7229 7.71066 38.6783 7.68665C38.6303 7.66263 38.5788 7.63518 38.5205 7.60431L38.1328 7.40875L38.1637 7.02108C38.1705 6.94903 38.198 6.81523 38.2495 6.61624C38.3009 6.41726 38.3627 6.1874 38.4382 5.9198C38.5136 5.6522 38.596 5.37431 38.6852 5.07926C38.7744 4.78421 38.8601 4.50632 38.9425 4.24215C39.0248 3.97798 39.1003 3.75155 39.1689 3.556C39.2375 3.36044 39.2855 3.23694 39.313 3.17861C39.3473 3.12029 39.3713 3.0654 39.3816 3.01051C39.3919 2.95561 39.3919 2.92131 39.3747 2.90758C39.3542 2.89386 39.3164 2.92474 39.2684 3.00021C39.2169 3.07569 39.1655 3.17175 39.1071 3.28497C39.0488 3.40161 38.9905 3.52512 38.9356 3.65549C38.8773 3.78929 38.8395 3.90594 38.8155 4.00543C38.7881 4.11178 38.7263 4.20784 38.6337 4.28675C38.5411 4.36566 38.4553 4.40683 38.3764 4.40683C38.3249 4.40683 38.2838 4.38968 38.246 4.35194C38.1808 4.28675 38.1637 4.14952 38.198 3.93681C38.2289 3.72411 38.2975 3.48052 38.397 3.20949C38.4965 2.93503 38.6234 2.65371 38.7675 2.36209C38.915 2.07047 39.0763 1.81317 39.2478 1.59017C39.3988 1.39461 39.5703 1.21964 39.7659 1.05497C39.9614 0.89372 40.1673 0.756489 40.3868 0.643274C40.6064 0.533489 40.8363 0.444289 41.073 0.385966C41.3097 0.324212 41.543 0.293335 41.7729 0.293335H42.4316L42.8089 0.660429C42.9084 0.759921 43.0114 0.883429 43.1177 1.02752C43.2206 1.17161 43.2961 1.29855 43.3373 1.40491L43.4917 1.78915ZM42.1434 3.30898C42.2429 3.17175 42.3115 3.00707 42.3492 2.81838C42.3835 2.62626 42.3973 2.43757 42.3801 2.25231C42.3664 2.06361 42.3252 1.8955 42.26 1.74112C42.1948 1.58674 42.1056 1.48038 41.989 1.42206C41.9238 1.38775 41.8346 1.36031 41.7248 1.33972C41.615 1.31914 41.4984 1.31227 41.3852 1.31227C41.2857 1.31227 41.1896 1.31914 41.1004 1.33286C41.0112 1.34658 40.9426 1.36717 40.9014 1.39804C40.874 1.41863 40.8191 1.51812 40.7436 1.69309C40.6681 1.86806 40.5892 2.07734 40.5103 2.31406C40.4314 2.55078 40.3559 2.79437 40.2839 3.04138C40.2119 3.2884 40.157 3.50111 40.1227 3.67264L40.0678 3.97455L40.2736 4.02944C40.3525 4.05003 40.4143 4.06375 40.4623 4.07404C40.5103 4.08091 40.5446 4.08434 40.5652 4.08434C40.6373 4.08434 40.603 4.03631 40.4692 3.94368L40.253 3.78243H40.4589C40.5172 3.77557 40.5858 3.78586 40.6647 3.81331C40.7436 3.84075 40.8157 3.87506 40.8809 3.90937L41.097 4.05003L41.5087 3.8236C41.6253 3.76527 41.7454 3.68637 41.8689 3.58001C41.9924 3.48052 42.0851 3.38789 42.1434 3.30898ZM41.6047 0.859413L41.766 0.965767C41.8792 1.04467 41.9684 1.08584 42.0302 1.08584C42.0919 1.08584 42.0953 1.04467 42.0473 0.965767C42.0336 0.938321 41.9993 0.910874 41.9513 0.89029C41.8998 0.869705 41.8483 0.859413 41.79 0.859413H41.6047Z" fill="#E1E1E1"/>
<path d="M50.9904 0.48186C51.0967 0.560768 51.1894 0.643105 51.2614 0.728875C51.3335 0.814644 51.3678 0.879828 51.3678 0.924428C51.3678 0.969028 51.3197 1.07881 51.2237 1.25378C51.1276 1.42875 51.0144 1.61744 50.8909 1.813C50.764 2.01198 50.6439 2.19381 50.5238 2.35849C50.4037 2.52317 50.3248 2.6158 50.2802 2.63981C50.2528 2.65354 50.1944 2.65011 50.1121 2.62266C50.0298 2.59864 49.9406 2.55747 49.8479 2.49915L49.5014 2.3036L49.5769 2.04629C49.5975 1.96738 49.6249 1.88848 49.6524 1.80957C49.6798 1.73066 49.7073 1.66548 49.7279 1.61401L49.7931 1.45277L49.4157 1.51795C49.2784 1.5454 49.1309 1.57627 48.9731 1.61058C48.8153 1.64146 48.6575 1.6792 48.4996 1.71694C48.3418 1.75811 48.1909 1.79241 48.0468 1.82329C47.9027 1.85417 47.7792 1.88505 47.6797 1.91592C47.491 1.96738 47.3263 2.08403 47.1822 2.26586C47.0381 2.44769 46.894 2.72558 46.75 3.09268L46.5784 3.52495L47.8409 3.30881C48.2218 3.24363 48.5168 3.19217 48.7192 3.15786C48.9251 3.12355 49.076 3.10297 49.1789 3.10297C49.2784 3.10297 49.3402 3.12012 49.3573 3.15786C49.3745 3.19217 49.3814 3.24706 49.3745 3.31911C49.3676 3.38429 49.3539 3.43918 49.3299 3.48035C49.3093 3.52495 49.2784 3.54554 49.2441 3.54554C49.2098 3.53868 49.1858 3.55583 49.1755 3.60043C49.1652 3.64503 49.1652 3.69306 49.1824 3.75138L49.2373 3.95723L48.0296 4.16308C47.865 4.19052 47.7003 4.21797 47.5322 4.24541C47.3675 4.26943 47.2131 4.29344 47.0724 4.31403C46.9318 4.33461 46.8083 4.3552 46.7054 4.37235C46.6024 4.38951 46.527 4.40323 46.4858 4.41009L46.1633 4.45469L45.9472 4.90755C45.882 5.03792 45.8065 5.19917 45.7139 5.39815C45.6247 5.59714 45.5423 5.77554 45.4703 5.93335L45.2233 6.496L46.5407 6.34505C46.7191 6.32446 46.9112 6.30388 47.117 6.28672C47.3229 6.26957 47.5219 6.25241 47.7209 6.23183C47.9198 6.21468 48.1051 6.19752 48.2835 6.1838C48.4585 6.17008 48.6094 6.15978 48.7329 6.15292L49.6078 6.10832L49.5872 6.46512L49.1138 6.50972C48.9834 6.52345 48.8084 6.53717 48.5854 6.54746C48.3624 6.55775 48.1566 6.57148 47.9713 6.5852C47.7826 6.59892 47.6214 6.61265 47.4807 6.6298C47.34 6.64352 47.2646 6.65725 47.2474 6.6744C47.1479 6.76703 47.2406 6.81506 47.5287 6.81506C47.6145 6.81506 47.7209 6.8082 47.8478 6.79791C47.9747 6.78761 48.1188 6.77389 48.2835 6.76017C48.5511 6.73272 48.7844 6.71557 48.9903 6.71214C49.1961 6.70871 49.3059 6.719 49.3196 6.73958C49.3333 6.75331 49.3162 6.79448 49.2716 6.85966C49.2235 6.92485 49.1652 6.99346 49.0932 7.06551C49.0211 7.13755 48.9457 7.20274 48.8667 7.26106C48.7878 7.31939 48.7261 7.35026 48.6849 7.35712C48.6643 7.36398 48.6335 7.37085 48.5991 7.37771C48.5614 7.38457 48.5271 7.39486 48.4928 7.40859C48.4585 7.41545 48.3693 7.42917 48.2286 7.45318C48.088 7.47377 47.9336 7.50122 47.7586 7.52866C47.6728 7.53552 47.5631 7.54925 47.4293 7.57326C47.2955 7.59385 47.1548 7.61786 47.0038 7.64187C46.8529 7.66589 46.6951 7.69334 46.5338 7.71735C46.3726 7.74137 46.2148 7.76882 46.0638 7.79969C45.7756 7.85115 45.5355 7.88889 45.3468 7.91291C45.1546 7.93692 44.9934 7.95064 44.8562 7.95064C44.6675 7.95064 44.52 7.92663 44.4067 7.87517C44.297 7.82371 44.1666 7.7448 44.0225 7.63845C43.9161 7.55268 43.8201 7.46691 43.7412 7.38114C43.6623 7.29537 43.6211 7.23362 43.6211 7.19931C43.6211 7.165 43.652 7.06894 43.7137 6.91798C43.7755 6.76703 43.851 6.60235 43.947 6.42052C44.0465 6.21811 44.1563 5.99511 44.2695 5.75152C44.3862 5.50794 44.5028 5.25406 44.6194 4.99675C44.7395 4.73945 44.8562 4.48214 44.9694 4.23169C45.086 3.98125 45.189 3.75138 45.2816 3.54211C45.3742 3.33283 45.4531 3.15443 45.5149 3.00691C45.5766 2.85938 45.6144 2.76332 45.6281 2.72215L45.7139 2.43054L45.3365 2.34477C45.237 2.32418 45.1306 2.28301 45.0174 2.22126C44.9076 2.15951 44.8219 2.09775 44.7635 2.03257L44.568 1.79584L44.9557 1.07195L45.6144 0.97589C45.707 0.962167 45.8271 0.941583 45.9712 0.917568C46.1153 0.893553 46.2731 0.862676 46.4446 0.824937C46.6162 0.790629 46.798 0.749459 46.9832 0.704859C47.1719 0.660259 47.3503 0.619091 47.5219 0.574491C47.6934 0.529891 47.8787 0.492152 48.0777 0.454413C48.2766 0.416675 48.4722 0.385798 48.6712 0.358352C48.8702 0.330906 49.0554 0.303459 49.2338 0.282875C49.4088 0.26229 49.5632 0.251998 49.6936 0.251998L50.6199 0.207397L50.9904 0.48186Z" fill="#E1E1E1"/>
</svg>
