<svg width="21" height="25" viewBox="0 0 21 25" fill="none" xmlns="http://www.w3.org/2000/svg">
<g clip-path="url(#clip0_11398_2539)">
<path d="M7.69141 10.4487C7.69141 9.89639 7.85626 9.3565 8.16511 8.89729C8.47396 8.43808 8.91294 8.08016 9.42654 7.86881C9.94014 7.65746 10.5053 7.60216 11.0505 7.70991C11.5958 7.81765 12.0966 8.08361 12.4897 8.47413C12.8828 8.86466 13.1505 9.36222 13.2589 9.9039C13.3674 10.4456 13.3117 11.007 13.099 11.5173C12.8862 12.0275 12.526 12.4637 12.0638 12.7705C11.6015 13.0773 11.0581 13.2411 10.5022 13.2411C9.75685 13.2407 9.04218 12.9463 8.51516 12.4227C7.98814 11.8991 7.69186 11.1891 7.69141 10.4487Z" fill="black"/>
<path d="M10.5012 13.2664C9.94019 13.2665 9.39174 13.1014 8.92521 12.7919C8.45867 12.4824 8.09501 12.0424 7.88021 11.5275C7.66541 11.0126 7.60912 10.4461 7.71846 9.89942C7.8278 9.35277 8.09786 8.85062 8.49449 8.45646C8.89112 8.06231 9.39649 7.79386 9.9467 7.68506C10.4969 7.57627 11.0672 7.63202 11.5855 7.84527C12.1038 8.05851 12.5469 8.41967 12.8586 8.88307C13.1703 9.34646 13.3366 9.89128 13.3366 10.4486C13.3357 11.1955 13.0367 11.9116 12.5052 12.4398C11.9737 12.968 11.253 13.2653 10.5012 13.2664ZM10.5012 7.68238C9.95024 7.68222 9.41162 7.84438 8.95346 8.14837C8.4953 8.45236 8.13817 8.88451 7.92725 9.39016C7.71634 9.89581 7.66111 10.4522 7.76855 10.9891C7.876 11.5259 8.14129 12.0191 8.53086 12.4061C8.92044 12.7931 9.4168 13.0567 9.95717 13.1634C10.4975 13.2702 11.0576 13.2153 11.5666 13.0057C12.0756 12.7962 12.5106 12.4414 12.8166 11.9862C13.1225 11.5311 13.2858 10.996 13.2856 10.4486C13.2834 9.71604 12.9891 9.01417 12.4673 8.49656C11.9455 7.97894 11.2386 7.68772 10.5012 7.68661V7.68238Z" fill="#F2F2F2"/>
<path d="M10.5 25.0017L9.97713 24.5582C8.23354 23.0494 6.58793 21.4323 5.0502 19.7167C1.69955 15.9639 0 12.8387 0 10.4314C0 7.66485 1.10625 5.01157 3.07538 3.0553C5.04451 1.09902 7.71523 0 10.5 0C13.2848 0 15.9555 1.09902 17.9246 3.0553C19.8937 5.01157 21 7.66485 21 10.4314C21 12.8387 19.2996 15.9622 15.9506 19.715C14.4129 21.4306 12.7673 23.0477 11.0237 24.5565L10.5 25.0017ZM10.5 1.60484C8.14448 1.60752 5.88621 2.53832 4.22061 4.19305C2.55501 5.84778 1.61808 8.0913 1.61538 10.4314C1.61538 14.2383 7.60336 20.3198 10.5 22.8816C13.3975 20.3198 19.3846 14.2383 19.3846 10.4314C19.3821 8.09124 18.4453 5.84758 16.7796 4.19281C15.114 2.53803 12.8556 1.6073 10.5 1.60484Z" fill="black"/>
</g>
<defs>
<clipPath id="clip0_11398_2539">
<rect width="21" height="25" fill="white"/>
</clipPath>
</defs>
</svg>
