<svg width="14" height="17" viewBox="0 0 14 17" fill="none" xmlns="http://www.w3.org/2000/svg">
<g clip-path="url(#clip0_1356_16302)">
<path d="M6.76605 6.11606H5.96605H5.69351H5.68459H5.67566H5.66674H5.65781H5.64888H5.63996H5.63103H5.62211H5.61318H5.60426H5.59533H5.58641H5.57749H5.56856H5.55964H5.55071H5.54179H5.53286H5.52394H5.51501H5.50609H5.49716H5.48824H5.47931H5.47039H5.46146H5.45254H5.44361H5.43469H5.42576H5.41684H5.40791H5.39899H5.39007H5.38114H5.37222H5.36329H5.35437H5.34544H5.33652H5.32759H5.31867H5.30974H5.30082H5.2919H5.28297H5.27405H5.26512H5.2562H5.24727H5.23835H5.22943H5.2205H5.21158H5.20265H5.19373H5.1848H5.17588H5.16696H5.15803H5.14911H5.14018H5.13126H5.12234H5.11341H5.10449H5.09556H5.08664H5.07771H5.06879H5.05987H5.05094H5.04202H5.03309H5.02417H5.01525H5.00632H4.9974H4.98848H4.97955H4.97063H4.9617H4.95278H4.94386H4.93493H4.92601H4.91708H4.90816H4.89924H4.89031H4.88139H4.87247H4.86354H4.85462H4.84569H4.83677H4.82785H4.81892H4.81H4.80108H4.79215H4.78323H4.77431H4.76538H4.75646H4.74753H4.73861H4.72969H4.72076H4.71184H4.70292H4.69399H4.68507H4.67615H4.66722H4.6583H4.64938H4.64045H4.63153H4.62261H4.61368H4.60476H4.59584H4.58691H4.57799H4.56907H4.56014H4.55122H4.5423H4.53337H4.52445H4.51553H4.5066H4.49768H4.48876H4.47983H4.47091H4.46199H4.45306H4.44414H4.43522H4.42629H4.41737H4.40845H4.39952H4.3906H4.38168H4.37275H4.36383H4.35491H4.34598H4.33706H4.32814H4.31922H4.31029H4.30137H4.29245H4.28352H4.2746H4.26568H4.25675H4.24783H4.23891H4.22998H4.22106H4.21214H4.20322H4.19429H4.18537H4.17645H4.16752H4.1586H4.14968H4.14075H4.13183H4.12291H4.11399H4.10506H4.09614H4.08722H4.07829H4.06937H4.06045H4.05153H4.0426H4.03368H4.02476H4.01583H4.00691H3.99799H3.98906H3.98014H3.97122H3.9623H3.95337H3.94445H3.93553H3.9266H3.91768H3.90876H3.89984H3.89091H3.88199H3.87307H3.86414H3.85522H3.8463H3.83738H3.82845H3.81953H3.81061H3.80169H3.79276H3.78384H3.77492H3.76599H3.75707H3.74815H3.73923H3.7303H3.72138H3.71246H3.70353H3.69461H3.68569H3.67677H3.66784H3.65892H3.65H3.64108H3.63215H3.62323H3.61431H3.60538H3.59646H3.58754H3.57862H3.56969H3.56077H3.55185H3.54293H3.534H3.52508H3.51616H3.50723H3.49831H3.48939H3.48047H3.47154H3.46262H3.4537H3.44478H3.43585H3.42693H3.41801H3.40908H3.40016H3.39124H3.38232H3.37339H3.36447H3.35555H3.34663H3.3377H3.32878H3.31986H3.31093H3.30201H3.29309H3.28417H3.27524H3.26632H3.2574H3.24848H3.23955H3.23063H3.22171H3.21278H3.20386H3.19494H3.18602H3.17709H3.16817H3.15925H3.15033H3.1414H3.13248H3.12356H3.11463H3.10571H3.09679H3.08787H3.07894H3.07002H3.0611H3.05217H3.04325H3.03433H3.02541H3.01648H3.00756H2.99864H2.98972H2.98079H2.97187H2.96295H2.95402H2.9451H2.93618H2.92726H2.91833H2.90941H2.90049H2.89156H2.88264H2.87372H2.8648H2.85587H2.84695H2.83803H2.8291H2.82018H2.81126H2.80234H2.79341H2.78449H2.77557H2.76664H2.75772H2.7488H2.73987H2.73095H2.72203H2.71311H2.70418H2.69526H2.68634H2.67741H2.66849H2.65957H2.65065H2.64172H2.6328H2.62388H2.61495H2.60603H2.59711H2.58818H2.57926H2.57034H2.56141H2.55249H2.54357H2.53465H2.52572H2.5168H2.50788H2.49895H2.49003H2.48111H2.47218H2.46326H2.45434H2.44541H2.43649H2.42757H2.41865H2.40972H2.4008H2.39188H2.38295H2.37403H2.36511H2.35618H2.34726H2.33834H2.32941H2.32049H2.31157H2.30264H2.29372H2.2848H2.27587H2.26695H2.25803H2.2491H2.24018H2.23126H2.22233H2.21341H2.20449H2.19556H2.18664H2.17772H2.16879H2.15987H2.15095H2.14202H2.1331H2.12418H2.11525H2.10633H2.0974H2.08848H2.07956H2.07063H2.06171H2.05279H2.04386H2.03494H2.02602H2.01709H2.00817H1.99924H1.99032H1.9814H1.97247H1.96355H1.95463H1.9457H1.93678H1.92786H1.91893H1.91001H1.90108H1.89216H1.88324H1.87431H1.86539H1.85646H1.84754H1.83862H1.82969H1.82077H1.81185H1.80292H1.794H1.78507H1.77615H1.76723H1.7583H1.74938H1.74045H1.73153H1.72261H1.71368H1.70476H1.69583H1.68691H1.67799H1.66906H1.66014H1.65121H1.64229H1.63336H1.62444H1.61552H1.60659H1.59767H1.58874H1.57982H1.57089H1.56197H1.55305H1.54412H1.5352H1.52627H1.51735H1.50842H1.4995H1.49058H1.48165H1.47273H1.4638H1.45488H1.44595H1.43703H1.4281H1.41918H1.41025H1.40133H1.39241H1.38348H1.37456H1.36563H1.35671H1.34778H1.33886H1.32993H1.32101H1.31208H1.30316H1.29423H1.28531H1.27638H1.26746H1.25853H1.24961H1.24068H1.23176H1.22283H1.21391H1.20498H1.19606H1.18713H1.17821H1.16928H1.16036H1.15143H1.14251H1.13358H1.12466C0.895483 6.11606 0.841969 6.19435 0.834358 6.20564C0.819592 6.22755 0.758394 6.34462 0.845728 6.61795L6.76605 6.11606ZM6.76605 6.11606V5.31606M6.76605 6.11606V5.31606M6.76605 5.31606V3.7064V2.9064M6.76605 5.31606V2.9064M6.76605 2.9064H5.96605M6.76605 2.9064H5.96605M5.96605 2.9064C5.88614 2.9064 5.81947 2.90726 5.75988 2.90803C5.65167 2.90943 5.5668 2.91052 5.46831 2.90561L5.46817 2.90561M5.96605 2.9064L5.46817 2.90561M5.46817 2.90561C5.43485 2.90395 5.41706 2.89861 5.40966 2.89589C5.40275 2.89336 5.39784 2.89057 5.3921 2.88597C5.38027 2.8765 5.34015 2.83837 5.29552 2.72818C5.26482 2.6521 5.2665 2.60924 5.26991 2.5869C5.27357 2.56298 5.28646 2.51708 5.34096 2.44738C5.35686 2.42731 5.36701 2.42181 5.37669 2.41753C5.39137 2.41103 5.42729 2.39918 5.49822 2.39663L5.50088 2.39653C5.58821 2.3931 5.66455 2.39389 5.76551 2.39494C5.82441 2.39556 5.89169 2.39626 5.97441 2.39626H6.77441V1.59626C6.77441 1.51732 6.77385 1.44971 6.77333 1.388C6.77246 1.28363 6.77173 1.19615 6.77411 1.09929L5.46817 2.90561ZM7.9909 1.04255C7.94659 0.825146 7.89308 0.589109 7.77437 0.414299C7.51854 0.0389468 7.0579 -0.0861707 6.65326 0.0549192L7.9909 1.04255ZM7.9909 1.04255C7.99346 1.05509 7.99568 1.06771 7.99758 1.08041L7.9909 1.04255ZM8.7011 2.6464C8.68371 2.54424 8.64305 2.48128 8.60981 2.44821C8.57884 2.41739 8.54716 2.40384 8.51072 2.40108L8.5098 2.40101C8.42012 2.39412 8.34916 2.39558 8.24504 2.39773C8.17982 2.39908 8.10158 2.4007 7.99758 2.4007H7.19758V1.6007C7.19758 1.5317 7.19986 1.46807 7.20206 1.41564C7.20282 1.3974 7.20353 1.38143 7.20417 1.3669C7.20556 1.3353 7.20666 1.31048 7.20741 1.28373C7.20912 1.22312 7.20682 1.20243 7.2067 1.20078L8.7011 2.6464ZM8.7011 2.6464C8.70815 2.68808 8.70138 2.74857 8.67242 2.80601C8.64667 2.85707 8.62034 2.87388 8.61578 2.87658C8.6116 2.87792 8.59645 2.88245 8.56429 2.88796C8.5198 2.89559 8.47322 2.90058 8.39559 2.90889L8.37811 2.91076C8.37786 2.91079 8.37762 2.91081 8.37737 2.91084C8.32703 2.91608 8.29554 2.91515 8.23406 2.91333C8.18616 2.91191 8.12005 2.90995 8.01263 2.90995H7.21263V3.70995V5.31695V6.11695H8.01263H8.25424H8.26325H8.27225H8.28125H8.29026H8.29926H8.30826H8.31727H8.32627H8.33527H8.34428H8.35328H8.36228H8.37129H8.38029H8.3893H8.3983H8.4073H8.41631H8.42531H8.43431H8.44332H8.45232H8.46132H8.47033H8.47933H8.48833H8.49734H8.50634H8.51534H8.52435H8.53335H8.54236H8.55136H8.56036H8.56937H8.57837H8.58737H8.59638H8.60538H8.61438H8.62339H8.63239H8.64139H8.6504H8.6594H8.66841H8.67741H8.68641H8.69542H8.70442H8.71342H8.72243H8.73143H8.74043H8.74944H8.75844H8.76745H8.77645H8.78545H8.79446H8.80346H8.81246H8.82147H8.83047H8.83947H8.84848H8.85748H8.86649H8.87549H8.88449H8.8935H8.9025H8.9115H8.92051H8.92951H8.93851H8.94752H8.95652H8.96553H8.97453H8.98353H8.99254H9.00154H9.01054H9.01955H9.02855H9.03755H9.04656H9.05556H9.06457H9.07357H9.08257H9.09158H9.10058H9.10958H9.11859H9.12759H9.1366H9.1456H9.1546H9.16361H9.17261H9.18161H9.19062H9.19962H9.20863H9.21763H9.22663H9.23564H9.24464H9.25364H9.26265H9.27165H9.28066H9.28966H9.29866H9.30767H9.31667H9.32568H9.33468H9.34368H9.35269H9.36169H9.37069H9.3797H9.3887H9.39771H9.40671H9.41571H9.42472H9.43372H9.44273H9.45173H9.46073H9.46974H9.47874H9.48774H9.49675H9.50575H9.51476H9.52376H9.53276H9.54177H9.55077H9.55978H9.56878H9.57778H9.58679H9.59579H9.6048H9.6138H9.6228H9.63181H9.64081H9.64982H9.65882H9.66782H9.67683H9.68583H9.69484H9.70384H9.71284H9.72185H9.73085H9.73986H9.74886H9.75786H9.76687H9.77587H9.78488H9.79388H9.80288H9.81189H9.82089H9.8299H9.8389H9.84791H9.85691H9.86591H9.87492H9.88392H9.89293H9.90193H9.91093H9.91994H9.92894H9.93795H9.94695H9.95595H9.96496H9.97396H9.98297H9.99197H10.001H10.01H10.019H10.028H10.037H10.046H10.055H10.064H10.073H10.082H10.091H10.1H10.109H10.118H10.127H10.136H10.145H10.154H10.1631H10.1721H10.1811H10.1901H10.1991H10.2081H10.2171H10.2261H10.2351H10.2441H10.2531H10.2621H10.2711H10.2801H10.2891H10.2981H10.3071H10.3161H10.3251H10.3341H10.3431H10.3521H10.3612H10.3702H10.3792H10.3882H10.3972H10.4062H10.4152H10.4242H10.4332H10.4422H10.4512H10.4602H10.4692H10.4782H10.4872H10.4962H10.5052H10.5142H10.5232H10.5322H10.5412H10.5503H10.5593H10.5683H10.5773H10.5863H10.5953H10.6043H10.6133H10.6223H10.6313H10.6403H10.6493H10.6583H10.6673H10.6763H10.6853H10.6943H10.7033H10.7123H10.7213H10.7303H10.7394H10.7484H10.7574H10.7664H10.7754H10.7844H10.7934H10.8024H10.8114H10.8204H10.8294H10.8384H10.8474H10.8564H10.8654H10.8744H10.8834H10.8924H10.9014H10.9104H10.9195H10.9285H10.9375H10.9465H10.9555H10.9645H10.9735H10.9825H10.9915H11.0005H11.0095H11.0185H11.0275H11.0365H11.0455H11.0545H11.0635H11.0725H11.0815H11.0906H11.0996H11.1086H11.1176H11.1266H11.1356H11.1446H11.1536H11.1626H11.1716H11.1806H11.1896H11.1986H11.2076H11.2166H11.2256H11.2346H11.2436H11.2527H11.2617H11.2707H11.2797H11.2887H11.2977H11.3067H11.3157H11.3247H11.3337H11.3427H11.3517H11.3607H11.3697H11.3787H11.3877H11.3967H11.4058H11.4148H11.4238H11.4328H11.4418H11.4508H11.4598H11.4688H11.4778H11.4868H11.4958H11.5048H11.5138H11.5228H11.5318H11.5408H11.5498H11.5589H11.5679H11.5769H11.5859H11.5949H11.6039H11.6129H11.6219H11.6309H11.6399H11.6489H11.6579H11.6669H11.6759H11.6849H11.6939H11.703H11.712H11.721H11.73H11.739H11.748H11.757H11.766H11.775H11.784H11.793H11.802H11.811H11.82H11.829H11.838H11.8471H11.8561H11.8651H11.8741H11.8831H11.8921H11.9011H11.9101H11.9191H11.9281H11.9371H11.9461H11.9551H11.9641H11.9731H11.9822H11.9912H12.0002H12.0092H12.0182H12.0272H12.0362H12.0452H12.0542H12.0632H12.0722H12.0812H12.0902H12.0992H12.1082H12.1173H12.1263H12.1353H12.1443H12.1533H12.1623H12.1713H12.1803H12.1893H12.1983H12.2073H12.2163H12.2253H12.2343H12.2434H12.2524H12.2614H12.2704H12.2794H12.2884H12.2974H12.3064H12.3154H12.3244H12.3334H12.3424H12.3514H12.3605H12.3695H12.3785H12.3875H12.3965H12.4055H12.4145H12.4235H12.4325H12.4415H12.4505H12.4595H12.4685H12.4775H12.4866H12.4956H12.5046H12.5136H12.5226H12.5316H12.5406H12.5496H12.5586H12.5676H12.5766H12.5856H12.5947H12.6037H12.6127H12.6217H12.6307H12.6397H12.6487H12.6577H12.6667H12.6757H12.6847H12.6937H12.7027H12.7118H12.7208H12.7298H12.7388H12.7478H12.7568H12.7658H12.7748H12.7838H12.7928H12.8018H12.8108H12.8199H12.8289H12.8379H12.8469H12.8559H12.8649C13.0834 6.11695 13.1446 6.19377 13.16 6.21667C13.182 6.24944 13.2403 6.37391 13.1557 6.63783L8.7011 2.6464ZM11.1098 13.0127C11.5503 11.6357 11.9926 10.2589 12.4347 8.88275C12.6752 8.1343 12.9156 7.38601 13.1557 6.63794L11.1098 13.0127ZM11.1098 13.0127C8.37191 13.0083 5.63405 13.0083 2.8962 13.0127C2.50591 11.7903 2.11327 10.5677 1.72086 9.34583C1.42869 8.43611 1.13665 7.52678 0.845809 6.6182L11.1098 13.0127ZM10.9931 13.3775C10.9903 13.3865 10.9903 13.3839 10.9946 13.3729C10.9942 13.3741 10.9938 13.3752 10.9935 13.3764L10.9931 13.3775Z" stroke="#363740" stroke-width="1.6"/>
<path d="M6.99948 16.9994C5.22042 16.9994 3.44137 16.9994 1.66232 16.9994C1.14232 16.9994 0.926623 16.7243 1.02193 16.1848C1.16238 15.3915 1.78354 14.8857 2.6296 14.8857C5.48628 14.8848 8.34212 14.8848 11.1988 14.8866C11.3786 14.8866 11.56 14.9017 11.738 14.9256C12.4219 15.0206 12.9427 15.6018 13.0029 16.3303C13.0397 16.7802 12.8399 16.9976 12.3793 16.9985C10.586 16.9994 8.79274 16.9985 7.00031 16.9985L6.99948 16.9994Z" fill="#363740"/>
</g>
<defs>
<clipPath id="clip0_1356_16302">
<rect width="14" height="17" fill="white"/>
</clipPath>
</defs>
</svg>
