<svg width="27" height="26" viewBox="0 0 27 26" fill="none" xmlns="http://www.w3.org/2000/svg">
<path d="M25.8271 0.0910156C25.7762 0.0707031 25.7253 0.065625 25.6693 0.065625V0.0605469H20.3727H15.4837H10.5946C10.4876 0.0605469 10.3807 0.101172 10.3043 0.177344L5.41519 5.05234C5.34389 5.12344 5.29297 5.225 5.29297 5.3418V15.498C5.29297 15.7215 5.47631 15.9043 5.70039 15.9043H20.7751C20.8871 15.9043 20.989 15.8586 21.0654 15.7824L25.9545 10.9074C26.0309 10.8312 26.0716 10.7297 26.0716 10.618V0.466797C26.0818 0.304297 25.9799 0.157031 25.8271 0.0910156ZM15.6568 0.873047H19.3949L15.2036 5.05234C15.1272 5.12852 15.0864 5.23008 15.0864 5.3418V9.05391L14.4957 8.66289C14.3582 8.57148 14.1799 8.57148 14.0424 8.66289L13.0442 9.32305L12.046 8.66289C11.9798 8.61719 11.8983 8.59687 11.8219 8.59687C11.7455 8.59687 11.6641 8.61719 11.5978 8.66289L11.0071 9.05391V5.51445L15.6568 0.873047ZM10.7677 0.873047H14.5058L10.4316 4.93555H6.69349L10.7677 0.873047ZM20.3778 15.0918H6.118V5.74805H10.1922V9.81055C10.1922 9.96289 10.2737 10.1 10.4061 10.1711C10.5385 10.2422 10.7015 10.232 10.8237 10.1508L11.8219 9.49062L12.8201 10.1508C12.9576 10.2422 13.1359 10.2422 13.2734 10.1508L14.2716 9.49062L15.2698 10.1508C15.336 10.1965 15.4174 10.2168 15.4938 10.2168C15.56 10.2168 15.6263 10.2016 15.6874 10.1711C15.8198 10.1 15.9013 9.96289 15.9013 9.81055V5.74805H20.3829V15.0918H20.3778ZM20.6172 4.93555H16.4717L20.5459 0.873047H24.6914L20.6172 4.93555ZM25.2669 10.4555L21.1927 14.518V5.50937L25.2669 1.44687V10.4555Z" fill="black"/>
<path d="M23.977 18.423C23.6765 18.1691 23.2793 18.0625 22.8922 18.1285L14.8099 19.5301L12.513 17.2398C12.4366 17.1637 12.3348 17.123 12.2228 17.123H8.1485C8.1485 16.8996 7.96516 16.7168 7.74108 16.7168H6.11138H0V17.5293H5.70395V23.2168H0V24.0293H6.11138H7.74108C7.96516 24.0293 8.1485 23.8465 8.1485 23.623H9.27402L13.6284 25.7965C13.8168 25.8879 14.0205 25.9387 14.2242 25.9387C14.4585 25.9387 14.6877 25.8777 14.8965 25.7559L23.7834 20.5863C24.1909 20.3477 24.4455 19.9109 24.4455 19.4387C24.4506 19.0477 24.2774 18.677 23.977 18.423ZM7.33875 23.2168H6.5239V17.5293H7.33875V23.2168ZM23.376 19.8855L14.4891 25.0551C14.3363 25.1414 14.1529 25.1465 14.0002 25.0703L9.55921 22.8563C9.50319 22.8258 9.44208 22.8156 9.37588 22.8156H8.1536V17.9406H12.0598L15.2683 21.1398C15.4058 21.277 15.4873 21.4699 15.4873 21.6629C15.4873 22.0742 15.1511 22.4043 14.7437 22.4043C14.5502 22.4043 14.3566 22.323 14.2191 22.1859L12.1107 20.0836L11.5352 20.6574L13.6437 22.7598C13.939 23.0543 14.3312 23.2168 14.7488 23.2168C15.6095 23.2168 16.3072 22.5211 16.3072 21.6629C16.3072 21.2465 16.1442 20.8555 15.8488 20.5609L15.5178 20.2309L23.0348 18.9258C23.1876 18.9004 23.3404 18.941 23.4575 19.0375C23.5746 19.134 23.6408 19.2813 23.6408 19.4336C23.6357 19.6215 23.539 19.7941 23.376 19.8855Z" fill="black"/>
</svg>
