<svg width="16" height="16" viewBox="0 0 16 16" fill="none" xmlns="http://www.w3.org/2000/svg">
<path d="M7.99 0C3.57026 0 0 3.58257 0 7.99C0 12.3974 3.58257 15.98 7.99 15.98C12.3974 15.98 15.98 12.3974 15.98 7.99C15.98 3.58257 12.3974 0 7.99 0ZM7.99 14.8474C4.21044 14.8474 1.13263 11.7819 1.13263 7.99C1.13263 4.19814 4.19813 1.13263 7.99 1.13263C11.7819 1.13263 14.8474 4.19814 14.8474 7.99C14.8351 11.7696 11.7696 14.8351 7.99 14.8474Z" fill="#FF8D24"/>
<path d="M7.99316 2.85626C7.67307 2.85626 7.42685 3.1148 7.42685 3.42258V7.42374H3.42569C3.1056 7.42374 2.85938 7.68227 2.85938 7.99005C2.85938 8.31015 3.11791 8.55637 3.42569 8.55637H7.99316C8.31326 8.55637 8.55948 8.29783 8.55948 7.99005V3.42258C8.55948 3.10249 8.31326 2.85626 7.99316 2.85626Z" fill="#FF8D24"/>
</svg>
