<svg width="15" height="19" viewBox="0 0 15 19" fill="none" xmlns="http://www.w3.org/2000/svg">
<path d="M9.2883 8.86011C10.3629 8.52806 11.3024 7.85965 11.9685 6.95335C12.6346 6.04705 12.992 4.95079 12.988 3.82606V2.31745C13.2861 2.29183 13.5628 2.15212 13.7603 1.92747C13.9579 1.70281 14.0611 1.41056 14.0484 1.11166C14.0357 0.812756 13.9081 0.530291 13.6923 0.323175C13.4764 0.116059 13.1889 0.000285197 12.8897 0H1.16127C0.853279 6.49034e-09 0.557907 0.122347 0.340127 0.340127C0.122347 0.557906 0 0.853279 0 1.16127C0 1.46925 0.122347 1.76462 0.340127 1.9824C0.557907 2.20018 0.853279 2.32253 1.16127 2.32253H1.21184V3.82566C1.20784 4.95042 1.56521 6.04673 2.23128 6.95307C2.89736 7.8594 3.83693 8.52784 4.91156 8.85991C5.03934 8.89725 5.15174 8.97465 5.23219 9.08071C5.31265 9.18676 5.3569 9.31586 5.35844 9.44897V9.54403C5.35697 9.67716 5.31274 9.80629 5.23227 9.91236C5.15181 10.0184 5.03937 10.0958 4.91156 10.1331C3.83716 10.4652 2.89777 11.1334 2.23173 12.0395C1.56568 12.9456 1.20817 14.0416 1.21184 15.1661V16.6693H1.16127C0.853279 16.6693 0.557907 16.7916 0.340127 17.0094C0.122347 17.2272 0 17.5225 0 17.8305C0 18.1385 0.122347 18.4339 0.340127 18.6517C0.557907 18.8694 0.853279 18.9918 1.16127 18.9918H12.8897C13.1889 18.9915 13.4764 18.8757 13.6923 18.6686C13.9081 18.4615 14.0357 18.179 14.0484 17.8801C14.0611 17.5812 13.9579 17.289 13.7603 17.0643C13.5628 16.8397 13.2861 16.6999 12.988 16.6743V15.1661C12.992 14.0415 12.6347 12.9453 11.9687 12.039C11.3027 11.1328 10.3632 10.4644 9.2887 10.1323C9.16091 10.095 9.0485 10.0176 8.96803 9.91151C8.88757 9.80545 8.84333 9.67634 8.84183 9.54322V9.44816C8.84349 9.31526 8.88776 9.1864 8.96813 9.08054C9.0485 8.97468 9.16073 8.89742 9.2883 8.86011ZM1.16127 1.61159C1.04183 1.61159 0.927289 1.56415 0.842836 1.4797C0.758383 1.39524 0.710938 1.2807 0.710938 1.16127C0.710938 1.04183 0.758383 0.927288 0.842836 0.842835C0.927289 0.758382 1.04183 0.710938 1.16127 0.710938H12.8897C13.0091 0.710938 13.1237 0.758382 13.2081 0.842835C13.2926 0.927288 13.34 1.04183 13.34 1.16127C13.34 1.2807 13.2926 1.39524 13.2081 1.4797C13.1237 1.56415 13.0091 1.61159 12.8897 1.61159H1.16127ZM12.8897 17.3806C13.0091 17.3806 13.1237 17.428 13.2081 17.5125C13.2926 17.5969 13.34 17.7115 13.34 17.8309C13.34 17.9504 13.2926 18.0649 13.2081 18.1494C13.1237 18.2338 13.0091 18.2812 12.8897 18.2812H1.16127C1.04183 18.2812 0.927289 18.2338 0.842836 18.1494C0.758383 18.0649 0.710938 17.9504 0.710938 17.8309C0.710938 17.7115 0.758383 17.5969 0.842836 17.5125C0.927289 17.428 1.04183 17.3806 1.16127 17.3806H12.8897ZM9.07664 10.8109C10.0063 11.0982 10.8191 11.6765 11.3952 12.4606C11.9714 13.2447 12.2806 14.1931 12.2771 15.1661V16.6693H1.92278V15.1661C1.9194 14.193 2.22863 13.2446 2.80492 12.4604C3.38121 11.6763 4.19409 11.098 5.12383 10.8107C5.39626 10.7285 5.63511 10.5611 5.80521 10.333C5.97533 10.1049 6.06771 9.82817 6.06877 9.54362V9.44856C6.06771 9.16396 5.9753 8.88722 5.80515 8.65907C5.63501 8.43093 5.39611 8.26344 5.12363 8.18127C4.19393 7.894 3.38108 7.31572 2.80482 6.53164C2.22856 5.74756 1.91936 4.79912 1.92278 3.82606V2.32294H12.2771V3.82606C12.2805 4.79913 11.9714 5.74757 11.3951 6.53168C10.8189 7.3158 10.0061 7.89412 9.07644 8.18147C8.80396 8.26358 8.56504 8.43102 8.39489 8.65914C8.22474 8.88725 8.13234 9.16398 8.1313 9.44856V9.54362C8.1324 9.82825 8.22485 10.105 8.39503 10.3331C8.56521 10.5613 8.80414 10.7288 9.07664 10.8109Z" fill="#7E858E"/>
<path d="M10.8994 13.3407C10.6733 13.3321 10.4342 13.3226 10.1781 13.312C8.88987 13.2576 8.6319 12.9996 8.38206 12.75C8.15335 12.4895 7.84255 12.3149 7.50111 12.2552C6.77676 12.113 6.16353 12.5499 5.57142 12.9718C5.23026 13.2478 4.8453 13.4649 4.4325 13.6139C4.26553 13.6598 3.92855 13.6908 3.27327 13.5795C3.19179 13.5657 3.10803 13.5806 3.0364 13.6218C2.96477 13.6631 2.90975 13.728 2.88083 13.8054C2.71698 14.2404 2.63296 14.7015 2.63281 15.1663V15.6035C2.63279 15.6502 2.64196 15.6964 2.65982 15.7395C2.67767 15.7827 2.70385 15.8219 2.73687 15.8549C2.76988 15.8879 2.80908 15.9141 2.85222 15.9319C2.89536 15.9498 2.94159 15.959 2.98828 15.9589H11.2091C11.2558 15.959 11.3021 15.9498 11.3452 15.9319C11.3884 15.9141 11.4275 15.8879 11.4606 15.8549C11.4936 15.8219 11.5198 15.7827 11.5376 15.7395C11.5555 15.6964 11.5646 15.6502 11.5646 15.6035V15.1661C11.5653 14.6069 11.4437 14.0544 11.2085 13.547C11.1811 13.4874 11.1377 13.4366 11.0831 13.4002C11.0285 13.3638 10.9649 13.3432 10.8994 13.3407ZM10.8539 15.2478H3.34314V15.1665C3.34314 14.8826 3.38168 14.6 3.4577 14.3264C3.84291 14.392 4.23711 14.3831 4.61897 14.3002C5.11445 14.1327 5.57647 13.879 5.98376 13.5509C6.49665 13.1853 6.93967 12.8702 7.36501 12.9531C7.5675 12.9872 7.75053 13.0942 7.87953 13.2539C8.26546 13.6388 8.70096 13.962 10.148 14.0232C10.3215 14.0305 10.4872 14.0374 10.6463 14.0435C10.7838 14.4021 10.854 14.783 10.8535 15.1672L10.8539 15.2478Z" fill="#7E858E"/>
<path d="M10.9501 4.31396C10.2668 4.67959 9.24203 5.09396 8.24549 4.99159C7.75318 4.9342 7.26725 4.83125 6.79396 4.68406C6.14885 4.47601 5.47711 4.36203 4.79947 4.34565C4.21596 4.35125 3.63605 4.43786 3.07636 4.60301C3.02997 4.61595 2.98669 4.63819 2.94915 4.66837C2.91161 4.69855 2.88059 4.73604 2.85799 4.77858C2.83538 4.82111 2.82165 4.8678 2.81764 4.9158C2.81363 4.9638 2.81941 5.01211 2.83464 5.05781C3.02377 5.63316 3.34791 6.15487 3.77996 6.57929C4.21202 7.00371 4.73942 7.3185 5.31805 7.49734C5.58474 7.57595 5.83256 7.70818 6.04636 7.88593C6.26015 8.06367 6.4354 8.28319 6.56138 8.53104C6.61216 8.63032 6.68937 8.71365 6.78449 8.77184C6.87962 8.83003 6.98897 8.86082 7.10048 8.86082C7.21199 8.86082 7.32134 8.83003 7.41646 8.77184C7.51158 8.71365 7.58879 8.63032 7.63957 8.53104C7.76555 8.28311 7.94085 8.06354 8.15472 7.88579C8.36859 7.70803 8.61652 7.57585 8.88331 7.49734C9.52023 7.29932 10.0939 6.93739 10.5469 6.44781C10.9999 5.95822 11.3162 5.35818 11.4642 4.70782C11.4797 4.64126 11.4757 4.57165 11.4526 4.50732C11.4295 4.44299 11.3884 4.38667 11.3342 4.34511C11.2799 4.30355 11.2148 4.27851 11.1467 4.27298C11.0786 4.26746 11.0103 4.28169 10.9501 4.31396ZM8.67734 6.81687C8.01927 7.01563 7.45775 7.45035 7.10048 8.03765C6.74625 7.44764 6.18355 7.012 5.52362 6.81687C5.11569 6.69083 4.73856 6.48101 4.41639 6.20084C4.09421 5.92067 3.83407 5.57632 3.65263 5.18984C4.02483 5.10118 4.40609 5.05619 4.78871 5.05577C5.40427 5.07153 6.0143 5.17642 6.59977 5.36717C7.11238 5.52622 7.63873 5.637 8.17196 5.69806C8.96269 5.75541 9.75568 5.62309 10.4849 5.31212C10.2978 5.66974 10.0417 5.9868 9.73145 6.24505C9.42122 6.5033 9.06298 6.69764 8.67734 6.81687Z" fill="#7E858E"/>
</svg>
