<svg width="13" height="14" viewBox="0 0 13 14" fill="none" xmlns="http://www.w3.org/2000/svg">
<path d="M1.04525 3.51085C0.862116 3.49404 0.700712 3.49039 0.543964 3.46263C0.227364 3.40638 -0.000774007 3.13825 1.97352e-06 2.84164C0.000777954 2.5443 0.227364 2.27325 0.547068 2.22504C0.755031 2.19362 0.969978 2.19508 1.1826 2.19289C1.6412 2.18851 2.09903 2.18778 2.55763 2.19435C2.68024 2.19581 2.75628 2.1644 2.82535 2.06431C3.13574 1.6172 3.45777 1.17666 3.77282 0.731742C4.10882 0.254677 4.58294 0.0106654 5.18666 0.00555136C6.06429 -0.00175438 6.9427 -0.00321553 7.82033 0.00555136C8.445 0.0121265 8.93542 0.268558 9.27995 0.763157C9.58026 1.19493 9.88367 1.62523 10.1778 2.06066C10.2453 2.16075 10.319 2.19435 10.4431 2.19362C11.0368 2.18778 11.6312 2.18778 12.2248 2.19216C12.4622 2.19435 12.6904 2.23965 12.8425 2.43617C13.0016 2.64073 13.052 2.85918 12.9356 3.10319C12.8083 3.36985 12.5755 3.46994 12.2884 3.49112C12.1868 3.49843 12.0836 3.49258 11.9602 3.49258C11.9354 3.76801 11.909 4.03175 11.888 4.29622C11.7538 6.02841 11.6211 7.76133 11.4868 9.49425C11.4116 10.4696 11.3379 11.4449 11.2556 12.4195C11.1796 13.3188 10.3888 13.9887 9.37695 13.9931C7.4595 14.0019 5.54283 14.0019 3.62538 13.9931C2.54677 13.988 1.80571 13.2889 1.73432 12.2755C1.63499 10.8758 1.51316 9.47745 1.40297 8.07767C1.30598 6.84227 1.21286 5.60613 1.11664 4.37C1.09491 4.08581 1.06853 3.80089 1.0437 3.51012L1.04525 3.51085ZM2.43968 3.50135C2.43968 3.57879 2.4358 3.6387 2.43968 3.69861C2.52427 4.74625 2.61118 5.79316 2.69498 6.84081C2.83776 8.62706 2.97899 10.4133 3.121 12.1996C3.14971 12.5619 3.30102 12.6927 3.68901 12.6927C4.40524 12.6934 5.12147 12.6927 5.8377 12.6927C7.00555 12.6927 8.17418 12.6934 9.34203 12.6927C9.68191 12.6927 9.88444 12.532 9.90927 12.2405C9.95195 11.7378 9.98842 11.2352 10.0257 10.7326C10.1087 9.63014 10.1886 8.5277 10.2732 7.42527C10.3694 6.16575 10.4688 4.90551 10.5658 3.646C10.5696 3.59998 10.5611 3.55395 10.558 3.50208H2.43891L2.43968 3.50135ZM8.62813 2.18559C8.4481 1.935 8.28515 1.71875 8.13383 1.49446C8.04071 1.35638 7.92199 1.30232 7.74817 1.30378C6.96132 1.30963 6.1737 1.3162 5.38686 1.30086C5.12535 1.29575 4.95309 1.35638 4.82738 1.58359C4.71486 1.78815 4.55656 1.9708 4.40214 2.18559H8.62735H8.62813Z" fill="#3B4FFF"/>
</svg>
