<svg width="27" height="26" viewBox="0 0 27 26" fill="none" xmlns="http://www.w3.org/2000/svg">
<path d="M6.31763 17.291C6.10882 17.291 5.94077 17.2249 5.81344 17.0929C5.68612 16.9609 5.625 16.7984 5.625 16.6054V10.1511C5.625 9.95815 5.69121 9.79565 5.82871 9.66362C5.96113 9.53159 6.13429 9.46558 6.34309 9.46558C6.5519 9.46558 6.71995 9.53159 6.84218 9.66362C6.96441 9.79565 7.02553 9.95815 7.02553 10.1511V16.6054C7.02553 16.7984 6.96443 16.9609 6.83711 17.0929C6.70979 17.2249 6.53662 17.291 6.31763 17.291ZM11.1609 9.41479C11.3392 9.41479 11.4868 9.48589 11.604 9.63315C11.7211 9.78042 11.7772 9.92769 11.7772 10.075C11.7772 10.2324 11.7109 10.3746 11.5734 10.5117L6.87784 14.9906L6.82181 13.391L10.6109 9.6687C10.784 9.49604 10.9674 9.41479 11.1609 9.41479ZM11.0234 17.291C10.8146 17.291 10.6465 17.2046 10.5192 17.032L7.93207 13.6347L8.95063 12.5937L11.6294 16.123C11.7364 16.2652 11.7873 16.4175 11.7873 16.58C11.7873 16.7882 11.7109 16.9558 11.553 17.0878C11.3952 17.2249 11.2169 17.291 11.0234 17.291Z" fill="black"/>
<path d="M13.6707 9.45532C13.7777 9.45532 13.8846 9.48579 14.0017 9.54165C14.1189 9.59751 14.2055 9.6686 14.2666 9.76001L16.9912 13.9393L16.431 13.919L19.2219 9.76509C19.3645 9.56196 19.5478 9.46548 19.7719 9.46548C19.9502 9.46548 20.1132 9.52642 20.2558 9.65337C20.3984 9.78032 20.4696 9.94282 20.4696 10.1459V16.6053C20.4696 16.7983 20.4085 16.9608 20.2812 17.0928C20.1539 17.2249 19.9858 17.2909 19.777 17.2909C19.5682 17.2909 19.4001 17.2249 19.2677 17.0928C19.1353 16.9608 19.0742 16.7983 19.0742 16.6053V11.3444L19.5122 11.4459L17.2255 14.9194C17.1593 15.0006 17.0727 15.0717 16.976 15.1327C16.8741 15.1936 16.7723 15.219 16.6653 15.2088C16.5685 15.2139 16.4718 15.1885 16.3699 15.1327C16.2681 15.0717 16.1866 15.0006 16.1204 14.9194L13.9814 11.5475L14.2717 10.9534V16.6053C14.2717 16.7983 14.2106 16.9608 14.0934 17.0928C13.9763 17.2249 13.8184 17.2909 13.6249 17.2909C13.4364 17.2909 13.2837 17.2249 13.1665 17.0928C13.0494 16.9608 12.9883 16.7983 12.9883 16.6053V10.1409C12.9883 9.95298 13.0596 9.79556 13.1971 9.65845C13.3091 9.52642 13.4721 9.45532 13.6707 9.45532Z" fill="black"/>
<path d="M13.0376 1.01562C14.6622 1.01562 16.2359 1.33047 17.7179 1.95508C19.149 2.55938 20.4324 3.42266 21.5375 4.52461C22.6426 5.62656 23.5084 6.90625 24.1145 8.3332C24.7409 9.81094 25.0566 11.3801 25.0566 13C25.0566 14.6199 24.7409 16.1891 24.1145 17.6668C23.5084 19.0938 22.6426 20.3734 21.5375 21.4754C20.4324 22.5773 19.149 23.4406 17.7179 24.0449C16.2359 24.6695 14.6622 24.9844 13.0376 24.9844C11.413 24.9844 9.83932 24.6695 8.35731 24.0449C6.92623 23.4406 5.64284 22.5773 4.5377 21.4754C3.43256 20.3734 2.56678 19.0938 1.96073 17.6668C1.33432 16.1891 1.01856 14.6199 1.01856 13C1.01856 11.3801 1.33432 9.81094 1.96073 8.3332C2.56678 6.90625 3.43256 5.62656 4.5377 4.52461C5.64284 3.42266 6.92623 2.55938 8.35731 1.95508C9.84441 1.33047 11.4181 1.01562 13.0376 1.01562ZM13.0376 0C5.83636 0 0 5.81953 0 13C0 20.1805 5.83636 26 13.0376 26C20.2388 26 26.0752 20.1805 26.0752 13C26.0752 5.81953 20.2388 0 13.0376 0Z" fill="black"/>
</svg>
