<svg width="27" height="18" viewBox="0 0 27 18" fill="none" xmlns="http://www.w3.org/2000/svg">
<path d="M2.88546 15.4027H5.33511L5.40132 15.6516C5.75272 16.9719 6.95972 17.891 8.32459 17.891C9.68947 17.891 10.8965 16.9719 11.2479 15.6516L11.3141 15.4027H16.8296L16.8958 15.6516C17.2472 16.9719 18.4542 17.891 19.8191 17.891C21.189 17.891 22.391 16.9719 22.7424 15.6516L22.8086 15.4027H25.5078C25.7879 15.4027 26.0119 15.1793 26.0119 14.9V9.44609C26.0119 9.33438 25.9763 9.22774 25.905 9.13633L24.0869 6.80039L21.7798 2.05742C21.6932 1.88477 21.5201 1.7832 21.3316 1.7832H17.4051V0.610156C17.4051 0.330859 17.181 0.107422 16.9009 0.107422H2.87528C2.59517 0.107422 2.37109 0.330859 2.37109 0.610156C2.37109 0.889453 2.59517 1.11289 2.87528 1.11289H16.3967V7.32344C16.3967 7.60274 16.6208 7.82617 16.9009 7.82617H23.6081L25.0036 9.62383V14.4023H22.8137L22.7474 14.1484C22.4113 12.8027 21.2043 11.8582 19.8089 11.8582C18.4135 11.8582 17.2065 12.7977 16.8703 14.1484L16.8041 14.4023H11.3294L11.2631 14.1484C10.927 12.8027 9.72002 11.8582 8.32459 11.8582C6.92916 11.8582 5.72216 12.7977 5.38604 14.1484L5.31983 14.4023H2.88038C2.60027 14.4023 2.37618 14.6258 2.37618 14.9051C2.38127 15.1742 2.61045 15.4027 2.88546 15.4027ZM17.4153 6.8207V2.78867H21.0312L21.0464 2.81914L23.0632 6.8207H17.4153ZM19.8293 12.8586C20.9446 12.8586 21.8511 13.7625 21.8511 14.8746C21.8511 15.9867 20.9446 16.8906 19.8293 16.8906C18.7139 16.8906 17.8074 15.9867 17.8074 14.8746C17.8074 13.7625 18.7139 12.8586 19.8293 12.8586ZM8.32969 12.8586C9.44502 12.8586 10.3515 13.7625 10.3515 14.8746C10.3515 15.9867 9.44502 16.8906 8.32969 16.8906C7.21436 16.8906 6.30783 15.9867 6.30783 14.8746C6.30783 13.7625 7.21436 12.8586 8.32969 12.8586Z" fill="black"/>
<path d="M5.74972 10.147H1.87918C1.59908 10.147 1.375 10.3704 1.375 10.6497C1.375 10.929 1.59908 11.1524 1.87918 11.1524H5.74972C6.02983 11.1524 6.25392 10.929 6.25392 10.6497C6.25392 10.5177 6.20299 10.3907 6.10622 10.2942C6.00946 10.1978 5.88214 10.147 5.74972 10.147Z" fill="black"/>
<path d="M7.68507 6.84619H0.504185C0.224079 6.84619 0 7.06963 0 7.34893C0 7.62822 0.224079 7.85166 0.504185 7.85166H7.68507C7.96518 7.85166 8.18927 7.62822 8.18927 7.34893C8.18927 7.07471 7.96518 6.84619 7.68507 6.84619Z" fill="black"/>
<path d="M9.06006 3.54541H1.87918C1.59908 3.54541 1.375 3.76885 1.375 4.04814C1.375 4.32744 1.59908 4.55088 1.87918 4.55088H9.06006C9.34016 4.55088 9.56425 4.32744 9.56425 4.04814C9.56425 3.91611 9.51332 3.78916 9.41656 3.69268C9.31979 3.60127 9.19247 3.54541 9.06006 3.54541Z" fill="black"/>
</svg>
