<svg width="32" height="24" viewBox="0 0 32 24" fill="none" xmlns="http://www.w3.org/2000/svg">
<path d="M29.5006 17.5183C29.73 17.5183 29.9154 17.5169 30.1016 17.5183C30.6691 17.5249 30.9952 17.7698 31 18.1913C31.0047 18.6114 30.6739 18.871 30.116 18.8776C29.7516 18.882 29.3864 18.8783 29.0219 18.8783C28.691 18.8783 28.3602 18.8783 28.0317 18.8783C27.8799 21.555 25.698 23.0081 23.493 22.9985C21.2257 22.989 19.131 21.4897 18.9855 18.8952H12.9731C12.854 21.5095 10.6754 22.9956 8.46717 23C6.20382 23.0044 4.04437 21.4802 3.93328 18.9428C3.48013 18.805 3.0134 18.7207 2.6066 18.5286C1.56124 18.0345 1.02178 17.1965 1.01618 16.1364C0.993007 12.0095 0.997802 7.88197 1.01139 3.7544C1.01618 2.21775 2.33967 1.0198 4.06435 1.0132C8.52391 0.99634 12.9835 0.994874 17.443 1.0132C19.2245 1.02053 20.4928 2.24047 20.4976 3.87244C20.4984 4.28153 20.4976 4.68989 20.4976 5.1349C20.6447 5.1349 20.7661 5.13343 20.8868 5.1349C21.8962 5.1481 22.9072 5.14736 23.9158 5.18255C24.4641 5.20162 24.9068 5.46994 25.2553 5.84311C26.4884 7.16349 27.7112 8.49267 28.9364 9.81965C29.3208 10.2353 29.5118 10.7038 29.507 11.2625C29.4903 13.2302 29.5006 15.1987 29.5006 17.1664V17.5183ZM18.9999 17.5183C19.0055 17.412 19.0127 17.338 19.0127 17.2639C19.0135 12.7353 19.0159 8.20675 19.0079 3.67816C19.0079 3.48607 18.9423 3.27933 18.8496 3.10558C18.5547 2.55279 18.0337 2.36437 17.3847 2.36511C12.9667 2.37024 8.54869 2.36804 4.13068 2.36804C4.02679 2.36804 3.92209 2.36804 3.8182 2.37537C3.06694 2.43182 2.48912 3.0022 2.48912 3.69502C2.48752 7.8607 2.48752 12.0264 2.48912 16.1913C2.48912 16.8842 3.06934 17.4472 3.81899 17.5139C4.09472 17.5381 4.25136 17.4905 4.38963 17.2265C5.20721 15.6657 6.58344 14.802 8.46717 14.7852C10.2278 14.7691 11.6144 15.5103 12.4384 16.9516C12.7165 17.4377 13.0186 17.5367 13.5533 17.5286C15.3547 17.5007 17.1577 17.5183 18.9991 17.5183H18.9999ZM11.5097 18.8761C11.5049 17.3798 10.1183 16.1195 8.48875 16.129C6.85038 16.1386 5.48614 17.3988 5.49093 18.8974C5.49573 20.3937 6.88235 21.654 8.51193 21.6444C10.1503 21.6349 11.5145 20.3746 11.5097 18.8761ZM20.4976 18.8944C20.5016 20.3908 21.885 21.6518 23.5154 21.6444C25.153 21.6371 26.5196 20.3768 26.5156 18.879C26.5116 17.3827 25.1282 16.1217 23.4978 16.129C21.8602 16.1364 20.4936 17.3966 20.4976 18.8944ZM20.524 12.0095V15.7434C20.5599 15.7346 20.5711 15.7346 20.5791 15.7302C20.6127 15.7082 20.6455 15.684 20.679 15.662C22.0616 14.7375 23.5602 14.5257 25.1674 15.0755C26.3566 15.4824 27.143 16.2815 27.6729 17.3145C27.7424 17.4501 27.7951 17.5814 27.9941 17.489V12.0103H20.524V12.0095ZM20.5144 6.49707V10.6158H27.7288C27.7128 10.5755 27.7104 10.5557 27.6984 10.5425C26.4988 9.27126 25.3048 7.9956 24.0908 6.73534C23.9685 6.60851 23.7328 6.51173 23.5466 6.50733C22.5476 6.48534 21.5478 6.49707 20.5136 6.49707H20.5144Z" fill="#363740" stroke="#363740" stroke-width="0.7"/>
</svg>
