<svg width="263" height="89" viewBox="0 0 263 89" fill="none" xmlns="http://www.w3.org/2000/svg">
<mask id="path-1-inside-1_8161_29452" fill="white">
<path d="M0 5C0 2.23858 2.23858 0 5 0H230.441C232.048 0 233.557 0.772375 234.497 2.07589L261.94 40.14C263.164 41.838 263.201 44.1188 262.032 45.8555L234.486 86.7914C233.557 88.1721 232.002 89 230.338 89H5C2.23857 89 0 86.7614 0 84V5Z"/>
</mask>
<path d="M0 5C0 2.23858 2.23858 0 5 0H230.441C232.048 0 233.557 0.772375 234.497 2.07589L261.94 40.14C263.164 41.838 263.201 44.1188 262.032 45.8555L234.486 86.7914C233.557 88.1721 232.002 89 230.338 89H5C2.23857 89 0 86.7614 0 84V5Z" fill="#F9F9FC"/>
<path d="M261.94 40.14L261.128 40.7248L261.94 40.14ZM262.032 45.8555L261.202 45.2972L262.032 45.8555ZM234.486 86.7914L235.316 87.3497L234.486 86.7914ZM234.497 2.07589L235.308 1.49107L234.497 2.07589ZM5 1H230.441V-1H5V1ZM230.338 88H5V90H230.338V88ZM1 84V5H-1V84H1ZM233.685 2.66071L261.128 40.7248L262.751 39.5552L235.308 1.49107L233.685 2.66071ZM261.202 45.2972L233.657 86.2331L235.316 87.3497L262.862 46.4137L261.202 45.2972ZM261.128 40.7248C262.108 42.0832 262.137 43.9078 261.202 45.2972L262.862 46.4137C264.264 44.3297 264.22 41.5927 262.751 39.5552L261.128 40.7248ZM5 88C2.79086 88 1 86.2091 1 84H-1C-1 87.3137 1.68629 90 5 90V88ZM230.338 90C232.335 90 234.201 89.0065 235.316 87.3497L233.657 86.2331C232.913 87.3376 231.669 88 230.338 88V90ZM230.441 1C231.726 1 232.934 1.6179 233.685 2.66071L235.308 1.49107C234.18 -0.0731508 232.369 -1 230.441 -1V1ZM5 -1C1.68629 -1 -1 1.68629 -1 5H1C1 2.79086 2.79086 1 5 1V-1Z" fill="#DFE1E8" mask="url(#path-1-inside-1_8161_29452)"/>
</svg>
