<svg width="11" height="10" viewBox="0 0 11 10" fill="none" xmlns="http://www.w3.org/2000/svg">
<path fill-rule="evenodd" clip-rule="evenodd" d="M8.07187 8.19998L9.69668 6.57466L8.72005 7.83448L7.87656 8.67824V8.68313L8.70319 7.85623L8.72005 7.83448L9.35049 7.20385L9.34451 7.21471L9.84281 6.71625C9.90149 6.65757 9.98108 6.62461 10.0641 6.62461C10.0676 6.62461 10.071 6.62466 10.0745 6.62478C10.0695 6.62453 10.0644 6.62441 10.0594 6.62441C9.97639 6.62441 9.8968 6.65738 9.83813 6.71605L9.35049 7.20385L9.69668 6.57466C9.79287 6.47847 9.92335 6.42441 10.0594 6.42441C10.1954 6.42441 10.3259 6.47845 10.422 6.57463C10.5182 6.67082 10.5723 6.80128 10.5723 6.9373C10.5723 7.07333 10.5182 7.20379 10.422 7.29998L7.92205 9.79998L8.26208 9.18199L7.78531 9.65875C7.75628 9.68785 7.7218 9.71094 7.68383 9.7267C7.64587 9.74245 7.60517 9.75056 7.56406 9.75056C7.55905 9.75056 7.55404 9.75043 7.54905 9.75019C7.51147 9.74895 7.47439 9.74093 7.4396 9.7265C7.40164 9.71075 7.36715 9.68766 7.33812 9.65856L7.32004 9.64047L7.322 9.63794L4.84281 7.15875C4.78413 7.10007 4.75117 7.02048 4.75117 6.9375C4.75117 6.85452 4.78413 6.77493 4.84281 6.71625C4.90149 6.65757 4.98108 6.62461 5.06406 6.62461C5.06761 6.62461 5.07116 6.62466 5.0747 6.62478C5.06961 6.62454 5.0645 6.62441 5.05937 6.62441C4.97639 6.62441 4.8968 6.65738 4.83813 6.71605C4.77945 6.77473 4.74648 6.85432 4.74648 6.9373C4.74648 7.02029 4.77945 7.09988 4.83813 7.15855L7.32004 9.64047L7.19652 9.7998L4.6967 7.29998C4.60052 7.20379 4.54648 7.07333 4.54648 6.9373C4.54648 6.80128 4.60052 6.67082 4.6967 6.57463C4.79289 6.47845 4.92335 6.42441 5.05937 6.42441C5.1954 6.42441 5.32588 6.47847 5.42207 6.57466L7.04687 8.19998V2.5623C7.04687 2.36671 6.96917 2.17912 6.83087 2.04081C6.69256 1.90251 6.50497 1.8248 6.30937 1.8248H1.30937C1.17345 1.8248 1.04309 1.77081 0.946982 1.6747C0.85087 1.57858 0.796875 1.44823 0.796875 1.3123C0.796875 1.17638 0.85087 1.04603 0.946982 0.949912C1.04309 0.8538 1.17345 0.799805 1.30937 0.799805H6.30937C6.77682 0.799805 7.22512 0.985496 7.55565 1.31603C7.88618 1.64656 8.07187 2.09486 8.07187 2.5623V8.19998ZM7.19652 9.7998C7.24409 9.84744 7.30077 9.88542 7.36295 9.91123C7.42521 9.93706 7.49196 9.95036 7.55937 9.95036C7.62679 9.95036 7.69354 9.93706 7.7558 9.91123C7.81798 9.88542 7.87448 9.84762 7.92205 9.79998L7.19652 9.7998ZM7.24687 2.5623V8.67844L7.25156 8.68313V2.5625C7.25156 2.31386 7.15279 2.0754 6.97697 1.89959C6.80983 1.73245 6.58608 1.63493 6.35078 1.62572C6.58436 1.63604 6.80626 1.73336 6.97229 1.89939C7.1481 2.07521 7.24687 2.31366 7.24687 2.5623ZM1.29871 1.62462C1.22142 1.62082 1.14807 1.58845 1.09309 1.53347C1.03449 1.47487 1.00156 1.39538 1.00156 1.3125C1.00156 1.22962 1.03449 1.15013 1.09309 1.09153C1.1517 1.03292 1.23118 1 1.31406 1H6.31406C6.33474 1 6.35537 1.00041 6.37595 1.00122C6.35382 1.00028 6.33162 0.999805 6.30937 0.999805H1.30937C1.22649 0.999805 1.14701 1.03273 1.0884 1.09133C1.0298 1.14994 0.996875 1.22942 0.996875 1.3123C0.996875 1.39518 1.0298 1.47467 1.0884 1.53328C1.14449 1.58936 1.2197 1.62193 1.29871 1.62462Z" fill="#24397C"/>
</svg>
