<svg width="191" height="89" viewBox="0 0 191 89" fill="none" xmlns="http://www.w3.org/2000/svg">
<mask id="path-1-inside-1_8161_29454" fill="white">
<path d="M0 5C0 2.23858 2.23858 0 5 0H164.054C165.872 0 167.547 0.986515 168.428 2.57645L189.512 40.6234C190.323 42.0865 190.348 43.8582 189.58 45.3439L168.398 86.297C167.539 87.9573 165.826 89 163.957 89H5C2.23858 89 0 86.7614 0 84V5Z"/>
</mask>
<path d="M0 5C0 2.23858 2.23858 0 5 0H164.054C165.872 0 167.547 0.986515 168.428 2.57645L189.512 40.6234C190.323 42.0865 190.348 43.8582 189.58 45.3439L168.398 86.297C167.539 87.9573 165.826 89 163.957 89H5C2.23858 89 0 86.7614 0 84V5Z" fill="#F9F9FC"/>
<path d="M189.512 40.6234L190.386 40.1387L189.512 40.6234ZM189.58 45.3439L188.691 44.8845L189.58 45.3439ZM168.398 86.297L169.286 86.7564L168.398 86.297ZM168.428 2.57645L167.553 3.06116L168.428 2.57645ZM5 1H164.054V-1H5V1ZM163.957 88H5V90H163.957V88ZM1 84V5H-1V84H1ZM167.553 3.06116L188.637 41.1081L190.386 40.1387L169.302 2.09174L167.553 3.06116ZM188.691 44.8845L167.51 85.8376L169.286 86.7564L190.468 45.8033L188.691 44.8845ZM188.637 41.1081C189.286 42.2786 189.306 43.6959 188.691 44.8845L190.468 45.8033C191.39 44.0204 191.359 41.8944 190.386 40.1387L188.637 41.1081ZM5 88C2.79086 88 1 86.2091 1 84H-1C-1 87.3137 1.68629 90 5 90V88ZM163.957 90C166.2 90 168.256 88.7488 169.286 86.7564L167.51 85.8376C166.823 87.1659 165.452 88 163.957 88V90ZM164.054 1C165.509 1 166.848 1.78921 167.553 3.06116L169.302 2.09174C168.245 0.183816 166.236 -1 164.054 -1V1ZM5 -1C1.68629 -1 -1 1.68629 -1 5H1C1 2.79086 2.79086 1 5 1V-1Z" fill="#DFE1E8" mask="url(#path-1-inside-1_8161_29454)"/>
</svg>
