<svg width="18" height="19" viewBox="0 0 18 19" fill="none" xmlns="http://www.w3.org/2000/svg">
<path d="M17.984 8.85175C17.984 11.045 17.954 13.2382 17.999 15.4304C18.0172 16.2914 17.6297 16.8548 16.9758 17.3028C16.2127 17.8259 15.3447 18.1225 14.4574 18.3618C13.1474 18.7145 11.8095 18.8818 10.4567 18.9559C8.34183 19.0724 6.24301 18.9644 4.17095 18.5175C3.16809 18.3014 2.19628 17.9901 1.29938 17.4807C0.979366 17.2996 0.698952 17.073 0.452788 16.8029C0.160601 16.4831 0.00969091 16.123 0.0107612 15.6782C0.0182532 11.1954 0.0310965 8.03842 5.83744e-05 3.55556C-0.00529303 2.71681 0.357533 2.16294 0.990069 1.7192C1.74783 1.18651 2.61369 0.881515 3.50202 0.648529C5.78493 0.0480605 8.11172 -0.0821998 10.461 0.0448834C12.0653 0.131724 13.6483 0.341411 15.1756 0.856098C16.0115 1.1378 16.8292 1.4608 17.4649 2.10893C17.816 2.46794 17.9936 2.87249 17.9904 3.38717C17.9754 5.65031 17.984 6.58861 17.984 8.85281V8.85175ZM16.6708 3.87327C16.6708 3.36281 16.6408 4.17509 16.6793 3.66676C16.7147 3.21243 16.5241 2.9445 16.1453 2.73269C15.243 2.2286 14.2701 1.92783 13.2651 1.72132C11.5505 1.36761 9.81561 1.28289 8.06784 1.34325C6.64116 1.39197 5.2316 1.55294 3.85521 1.93525C3.09959 2.14493 2.36217 2.4044 1.69967 2.83436C1.45457 2.99321 1.31543 3.1849 1.32079 3.50578C1.34005 4.60611 1.34326 4.38266 1.31865 5.48299C1.31115 5.82082 1.4428 5.99026 1.72428 6.13747C2.65436 6.62356 3.65186 6.91267 4.6697 7.13083C6.35539 7.4909 8.0657 7.56292 9.78672 7.5195C11.2969 7.48137 12.7803 7.29816 14.2391 6.91267C14.9894 6.71463 15.7214 6.47635 16.3946 6.08028C16.5894 5.9659 16.6815 5.82717 16.6751 5.59207C16.659 5.02019 16.6697 4.44726 16.6697 3.87432L16.6708 3.87327ZM1.32828 9.233C1.32828 9.63861 1.36146 10.0463 1.31972 10.4477C1.27476 10.8787 1.46206 11.1001 1.82917 11.2865C2.65436 11.7048 3.5352 11.9452 4.42781 12.1496C6.08247 12.5298 7.76388 12.6251 9.45921 12.5986C11.0582 12.5732 12.6337 12.409 14.1813 12.0002C14.9572 11.7948 15.7204 11.5607 16.4107 11.1414C16.5477 11.0588 16.6761 10.9762 16.6751 10.7792C16.6697 9.74875 16.6708 8.71831 16.6751 7.68788C16.6751 7.4962 16.6087 7.48667 16.4514 7.55656C14.497 8.43026 12.4185 8.74267 10.3026 8.83375C9.0418 8.88776 7.77887 8.87293 6.51807 8.75326C4.80776 8.59017 3.14134 8.26081 1.56481 7.56186C1.35075 7.46654 1.32614 7.54279 1.32828 7.72812C1.3347 8.2301 1.33042 8.73208 1.33042 9.23406L1.32828 9.233ZM16.6708 14.2284C16.6708 13.7445 16.6686 13.2605 16.6718 12.7754C16.6729 12.6177 16.6504 12.5382 16.4621 12.6229C14.5195 13.4977 12.4506 13.8122 10.3443 13.9054C8.88875 13.97 7.43103 13.9446 5.97758 13.7709C4.45885 13.5888 2.98293 13.2605 1.58193 12.6431C1.37644 12.553 1.32186 12.5816 1.324 12.804C1.33256 13.6576 1.35396 14.5133 1.31651 15.3658C1.29724 15.8064 1.48347 16.0542 1.83559 16.2543C2.74105 16.7712 3.72357 17.0698 4.73713 17.2784C6.45065 17.6321 8.18557 17.7158 9.93227 17.6554C11.359 17.6067 12.7675 17.4458 14.1438 17.0634C14.8984 16.8538 15.6358 16.5943 16.2983 16.1654C16.5423 16.0076 16.6965 15.8159 16.6772 15.494C16.6515 15.0735 16.6708 14.6489 16.6708 14.2263V14.2284Z" fill="#363740"/>
</svg>
