<svg width="24" height="22" viewBox="0 0 24 22" fill="none" xmlns="http://www.w3.org/2000/svg">
<path d="M23.0179 11.0037C23.0192 9.17386 22.5542 7.37266 21.665 5.76332C20.7759 4.15399 19.4908 2.78739 17.9262 1.78738C16.3616 0.787382 14.5669 0.185588 12.7048 0.0365423C10.8426 -0.112503 8.972 0.195912 7.26234 0.933836C5.55268 1.67176 4.05807 2.81586 2.91396 4.26246C1.76985 5.70906 1.0124 7.41241 0.710278 9.21815C0.408152 11.0239 0.570893 12.8749 1.18375 14.6035C1.79661 16.3321 2.84022 17.8835 4.21998 19.1173C4.25783 19.1606 4.3014 19.1988 4.34954 19.2309C6.4002 21.0148 9.04772 22.0001 11.7905 22C14.5333 21.9999 17.1807 21.0146 19.2313 19.2306C19.2791 19.1987 19.3223 19.1608 19.3599 19.1178C20.5128 18.0893 21.4337 16.8362 22.0636 15.439C22.6935 14.0417 23.0186 12.5311 23.0179 11.0037ZM1.88341 11.0037C1.88218 9.42003 2.27676 7.86015 3.03271 6.46022C3.78866 5.06029 4.883 3.86286 6.22019 2.97246C7.55738 2.08207 9.09678 1.52577 10.704 1.35213C12.3112 1.1785 13.9374 1.3928 15.4406 1.97634C16.9438 2.55987 18.2783 3.4949 19.3276 4.6998C20.377 5.9047 21.1092 7.34284 21.4605 8.88868C21.8117 10.4345 21.7713 12.0411 21.3427 13.5681C20.9141 15.0951 20.1104 16.4961 19.0017 17.6489C17.9637 16.0687 16.4125 14.8768 14.5984 14.2654C15.5027 13.6751 16.1891 12.8155 16.5562 11.8136C16.9232 10.8117 16.9514 9.72077 16.6365 8.702C16.3217 7.68324 15.6805 6.79073 14.8077 6.15641C13.935 5.52209 12.877 5.17961 11.7902 5.17961C10.7034 5.17961 9.64544 5.52209 8.7727 6.15641C7.89996 6.79073 7.25877 7.68324 6.9439 8.702C6.62903 9.72077 6.6572 10.8117 7.02424 11.8136C7.39128 12.8155 8.07771 13.6751 8.98207 14.2654C7.16788 14.8768 5.61675 16.0687 4.57872 17.6489C2.84613 15.8526 1.88165 13.4747 1.88341 11.0037ZM8.04764 10.1412C8.04764 9.41626 8.26714 8.70758 8.67838 8.1048C9.08962 7.50202 9.67413 7.03221 10.358 6.75478C11.0419 6.47735 11.7944 6.40476 12.5204 6.54619C13.2463 6.68762 13.9132 7.03673 14.4366 7.54935C14.96 8.06197 15.3165 8.71509 15.4609 9.42612C15.6053 10.1372 15.5312 10.8742 15.2479 11.5439C14.9646 12.2137 14.4849 12.7862 13.8695 13.1889C13.254 13.5917 12.5304 13.8067 11.7902 13.8067C10.798 13.8056 9.84669 13.419 9.14507 12.7319C8.44345 12.0447 8.04878 11.113 8.04764 10.1412ZM5.56467 18.5451C6.21121 17.4941 7.12417 16.6246 8.21495 16.0211C9.30574 15.4175 10.5373 15.1003 11.7902 15.1003C13.043 15.1003 14.2746 15.4175 15.3654 16.0211C16.4561 16.6246 17.3691 17.4941 18.0156 18.5451C16.2549 19.9433 14.0569 20.7063 11.7902 20.7063C9.52337 20.7063 7.32544 19.9433 5.56467 18.5451Z" fill="black"/>
</svg>
