<svg width="17" height="19" viewBox="0 0 17 19" fill="none" xmlns="http://www.w3.org/2000/svg">
<path d="M3.8955 2.36309C3.8955 1.84976 3.8885 1.37218 3.8975 0.894597C3.90851 0.274038 4.43682 -0.12014 5.03916 0.0337582C5.41238 0.129076 5.67453 0.48056 5.67853 0.907504C5.68354 1.38409 5.67953 1.86068 5.67953 2.34918H11.0857C11.0857 1.86167 11.0827 1.38509 11.0867 0.90949C11.0907 0.48056 11.3498 0.130069 11.724 0.0337582C12.3254 -0.121133 12.8557 0.272052 12.8687 0.892611C12.8777 1.36324 12.8747 1.83387 12.8777 2.30351C12.8777 2.31046 12.8827 2.3184 12.8997 2.36309C13.1058 2.36309 13.327 2.35911 13.5471 2.36309C13.9123 2.37202 14.2805 2.3611 14.6427 2.4028C15.8924 2.54677 16.7629 3.53768 16.7639 4.80858C16.7669 7.97095 16.7639 11.1333 16.7649 14.2947C16.7649 15.0294 16.7649 15.7642 16.7649 16.4989C16.7629 17.9694 15.7223 18.996 14.2245 18.997C10.5724 18.999 6.92025 19 3.26814 18.995C2.80387 18.995 2.3286 19.0099 1.87834 18.9196C0.750684 18.6942 0.0022513 17.7212 0.00125072 16.5515C-0.000750434 13.3077 0.000250145 10.063 0.000250145 6.8182C0.000250145 6.16587 0.000250145 5.51354 0.000250145 4.8612C0.0022513 3.41059 1.03185 2.37798 2.49169 2.36408C2.94795 2.35911 3.40422 2.36408 3.8955 2.36408V2.36309ZM1.79229 7.11904C1.78828 7.19847 1.78428 7.24812 1.78428 7.29776C1.78428 10.3857 1.78428 13.4746 1.78428 16.5624C1.78428 17.0142 2.00841 17.2277 2.49169 17.2277C6.41896 17.2297 10.3462 17.2297 14.2735 17.2277C14.7728 17.2277 14.9799 17.0122 14.9799 16.5118C14.9799 13.4646 14.9799 10.4174 14.9799 7.37124C14.9799 7.29081 14.9729 7.21039 14.9689 7.12004H1.79329L1.79229 7.11904Z" fill="#A5A9BC"/>
</svg>
