<svg width="309" height="257" viewBox="0 0 309 257" fill="none" xmlns="http://www.w3.org/2000/svg">
<rect width="309" height="257" rx="5" fill="#EFF0F4"/>
<g opacity="0.3" clip-path="url(#clip0_0_1)">
<path d="M203.55 149.566C204.384 149.566 205.057 149.561 205.734 149.566C207.796 149.591 208.98 150.504 208.998 152.075C209.015 153.64 207.813 154.608 205.786 154.632C204.462 154.649 203.135 154.635 201.811 154.635C200.609 154.635 199.407 154.635 198.213 154.635C197.662 164.612 189.735 170.027 181.723 169.992C173.485 169.956 165.875 164.368 165.346 154.698H143.501C143.069 164.442 135.153 169.981 127.13 169.997C118.907 170.014 111.061 164.333 110.657 154.876C109.011 154.362 107.315 154.048 105.837 153.332C102.039 151.49 100.079 148.367 100.059 144.416C99.9746 129.034 99.992 113.65 100.041 98.2661C100.059 92.5387 104.867 88.0738 111.134 88.0492C127.336 87.9864 143.539 87.9809 159.742 88.0492C166.214 88.0765 170.823 92.6234 170.84 98.706C170.843 100.231 170.84 101.753 170.84 103.411C171.374 103.411 171.816 103.406 172.254 103.411C175.921 103.461 179.595 103.458 183.259 103.589C185.251 103.66 186.86 104.66 188.126 106.051C192.606 110.972 197.049 115.926 201.5 120.872C202.897 122.422 203.591 124.168 203.574 126.25C203.513 133.584 203.55 140.921 203.55 148.255V149.566ZM165.398 149.566C165.419 149.17 165.445 148.894 165.445 148.618C165.448 131.739 165.456 114.861 165.427 97.9819C165.427 97.266 165.189 96.4954 164.853 95.8478C163.781 93.7875 161.888 93.0852 159.53 93.088C143.478 93.1071 127.426 93.0989 111.375 93.0989C110.997 93.0989 110.617 93.0989 110.239 93.1262C107.51 93.3366 105.41 95.4625 105.41 98.0447C105.405 113.571 105.405 129.097 105.41 144.62C105.41 147.203 107.518 149.301 110.242 149.55C111.244 149.64 111.813 149.462 112.315 148.479C115.286 142.661 120.286 139.442 127.13 139.379C133.527 139.319 138.565 142.082 141.559 147.454C142.569 149.266 143.667 149.635 145.61 149.605C152.155 149.501 158.705 149.566 165.396 149.566H165.398ZM138.185 154.627C138.167 149.05 133.129 144.353 127.209 144.388C121.256 144.424 116.299 149.121 116.317 154.706C116.334 160.283 121.372 164.98 127.293 164.945C133.245 164.909 138.202 160.212 138.185 154.627ZM170.84 154.695C170.854 160.272 175.881 164.972 181.804 164.945C187.754 164.918 192.72 160.22 192.705 154.638C192.691 149.061 187.664 144.361 181.741 144.388C175.791 144.416 170.825 149.113 170.84 154.695ZM170.936 129.034V142.951C171.066 142.918 171.107 142.918 171.136 142.902C171.258 142.82 171.377 142.73 171.499 142.648C176.523 139.202 181.967 138.412 187.806 140.462C192.127 141.978 194.984 144.957 196.91 148.807C197.162 149.312 197.354 149.801 198.077 149.457V129.037H170.936V129.034ZM170.901 108.488V123.84H197.113C197.055 123.689 197.046 123.616 197.003 123.566C192.644 118.828 188.306 114.074 183.895 109.376C183.451 108.904 182.594 108.543 181.918 108.527C178.288 108.445 174.655 108.488 170.898 108.488H170.901Z" fill="#A0A5BA"/>
</g>
<defs>
<clipPath id="clip0_0_1">
<rect width="109" height="82" fill="white" transform="translate(100 88)"/>
</clipPath>
</defs>
</svg>
