<svg width="26" height="24" viewBox="0 0 26 24" fill="none" xmlns="http://www.w3.org/2000/svg">
<path d="M17.839 8.53613C17.839 8.19082 17.7066 7.86582 17.4571 7.62207C17.2075 7.37832 16.8867 7.24121 16.5404 7.24121C16.3774 7.24121 16.2195 7.27168 16.0718 7.32754V6.62168C16.0718 6.27637 15.9394 5.95137 15.695 5.70254C15.4505 5.45879 15.1246 5.32168 14.7783 5.32168H14.7579C14.4981 5.32168 14.2537 5.39785 14.05 5.52988C14.0092 5.46895 13.9583 5.41309 13.9074 5.3623C13.6629 5.11855 13.337 4.98145 12.9907 4.98145H12.9652C12.3744 4.98145 11.8703 5.38262 11.7175 5.9209C11.5596 5.8498 11.3813 5.81426 11.198 5.81426H11.1827C10.4646 5.81426 9.88405 6.39316 9.88405 7.10918V9.71934C9.73636 9.66348 9.57339 9.62793 9.40533 9.62793C8.68724 9.62793 8.10156 10.2119 8.10156 10.9279V14.1525C8.10156 16.8287 10.2864 19.0021 12.9652 19.0021C14.2639 19.0021 15.4913 18.4943 16.408 17.5803C17.3298 16.6611 17.834 15.4424 17.8289 14.1475V12.7713L17.839 8.53613ZM17.0038 14.1576C17.0038 15.2342 16.5862 16.2447 15.8223 17.0064C15.0584 17.7682 14.0449 18.1896 12.9652 18.1896C10.7396 18.1896 8.92659 16.3818 8.92659 14.1627V10.9381C8.92659 10.674 9.1405 10.4607 9.40533 10.4607C9.67016 10.4607 9.88405 10.674 9.88405 10.9381V13.1064C9.88405 13.335 10.0674 13.5178 10.2966 13.5178C11.0299 13.5178 11.6309 14.1119 11.6309 14.8482V15.5236C11.6309 15.7521 11.8142 15.935 12.0434 15.935C12.2726 15.935 12.4559 15.7521 12.4559 15.5236V14.8482C12.4559 13.8021 11.7022 12.9236 10.7091 12.7307V7.11426C10.7091 6.85527 10.9179 6.64707 11.1776 6.64707H11.1929C11.4526 6.64707 11.6614 6.85527 11.6614 7.11426V10.9229C11.6614 11.1514 11.8448 11.3342 12.074 11.3342C12.3031 11.3342 12.4865 11.1514 12.4865 10.9229C12.4865 10.3135 12.4865 6.79434 12.4865 6.28144C12.4865 6.02246 12.6953 5.81426 12.955 5.81426H12.9805C13.1078 5.81426 13.2249 5.86504 13.3115 5.95137C13.3981 6.03769 13.449 6.15957 13.449 6.28144C13.4439 7.66269 13.4439 9.55176 13.4388 10.9279C13.4388 11.1564 13.6222 11.3393 13.8514 11.3393C14.0805 11.3393 14.2639 11.1564 14.2639 10.9279C14.2639 9.99863 14.269 7.51035 14.2741 6.6166C14.2741 6.35762 14.4829 6.14941 14.7426 6.14941H14.763C14.8903 6.14941 15.0074 6.20019 15.094 6.28652C15.1806 6.37285 15.2315 6.49473 15.2315 6.6166C15.2264 7.95723 15.2264 10.085 15.2213 11.4154C15.2213 11.6439 15.4047 11.8268 15.6339 11.8268C15.863 11.8268 16.0464 11.6439 16.0464 11.4154C16.0464 11.2123 16.0515 8.61738 16.0515 8.52598C16.0515 8.26699 16.2654 8.05879 16.52 8.05879C16.6473 8.05879 16.7645 8.10957 16.851 8.1959C16.9376 8.28223 16.9885 8.4041 16.9885 8.52598L16.9784 12.7713L17.0038 14.1576Z" fill="black"/>
<path d="M18.907 1.67578C18.9274 1.67578 18.9478 1.68594 18.9579 1.70625L24.9013 11.9691C24.9114 11.9895 24.9114 12.0098 24.9013 12.0301L18.9579 22.293C18.9478 22.3133 18.9274 22.3234 18.907 22.3234H7.02043C7.00005 22.3234 6.97968 22.3133 6.9695 22.293L1.02621 12.0301C1.01603 12.0098 1.01603 11.9895 1.02621 11.9691L6.9695 1.70625C6.97968 1.68594 7.00005 1.67578 7.02043 1.67578H18.907ZM18.907 0.660156H7.02043C6.63337 0.660156 6.27689 0.863281 6.08845 1.19844L0.145145 11.4613C-0.0483816 11.7965 -0.0483816 12.2027 0.145145 12.5379L6.08845 22.8008C6.28198 23.1359 6.63847 23.3391 7.02043 23.3391H18.907C19.2941 23.3391 19.6506 23.1359 19.839 22.8008L25.7823 12.5379C25.9758 12.2027 25.9758 11.7965 25.7823 11.4613L19.8441 1.19844C19.6506 0.863281 19.2941 0.660156 18.907 0.660156Z" fill="black"/>
</svg>
