<svg width="29" height="22" viewBox="0 0 29 22" fill="none" xmlns="http://www.w3.org/2000/svg">
<path d="M27.5501 16.5178C27.7718 16.5178 27.9511 16.5163 28.1311 16.5178C28.6796 16.5244 28.9948 16.7692 28.9994 17.1908C29.0041 17.6109 28.6842 17.8704 28.145 17.877C27.7927 17.8814 27.4396 17.8777 27.0874 17.8777C26.7675 17.8777 26.4477 17.8777 26.1302 17.8777C25.9834 20.5543 23.8743 22.0073 21.7429 21.9978C19.5511 21.9883 17.5263 20.4891 17.3857 17.8946H11.5738C11.4587 20.5089 9.35269 21.9949 7.21813 21.9993C5.03027 22.0037 2.94284 20.4795 2.83545 17.9422C2.39742 17.8044 1.94625 17.7201 1.55302 17.528C0.542524 17.0339 0.021052 16.196 0.0156441 15.1359C-0.00675982 11.0092 -0.00212451 6.88174 0.0110088 2.75431C0.0156441 1.21771 1.29499 0.0197998 2.96215 0.0132018C7.27298 -0.00365985 11.5838 -0.00512607 15.8946 0.0132018C17.6167 0.0205329 18.8427 1.24043 18.8473 2.87234C18.8481 3.28142 18.8473 3.68977 18.8473 4.13477C18.9895 4.13477 19.1069 4.1333 19.2236 4.13477C20.1993 4.14796 21.1766 4.14723 22.1515 4.18242C22.6815 4.20148 23.1095 4.4698 23.4463 4.84295C24.6384 6.16329 25.8204 7.49243 27.0047 8.81936C27.3763 9.23504 27.5609 9.7035 27.5563 10.2621C27.5401 12.2298 27.5501 14.1982 27.5501 16.1659V16.5178ZM17.3996 16.5178C17.405 16.4115 17.4119 16.3374 17.4119 16.2634C17.4127 11.735 17.415 7.20651 17.4073 2.67807C17.4073 2.48599 17.344 2.27926 17.2543 2.10551C16.9693 1.55274 16.4656 1.36433 15.8383 1.36506C11.5676 1.3702 7.29693 1.368 3.02627 1.368C2.92584 1.368 2.82464 1.368 2.72421 1.37533C1.99801 1.43178 1.43945 2.00214 1.43945 2.69493C1.43791 6.86048 1.43791 11.026 1.43945 15.1909C1.43945 15.8836 2.00033 16.4467 2.72498 16.5134C2.99151 16.5376 3.14293 16.4899 3.27658 16.226C4.0669 14.6652 5.39723 13.8016 7.21813 13.7847C8.92006 13.7686 10.2604 14.5098 11.0569 15.9511C11.3258 16.4371 11.6178 16.5361 12.1346 16.5281C13.876 16.5002 15.6188 16.5178 17.3988 16.5178H17.3996ZM10.1592 17.8755C10.1546 16.3792 8.81422 15.119 7.23899 15.1285C5.65526 15.1381 4.33652 16.3983 4.34115 17.8968C4.34579 19.3931 5.68616 20.6533 7.26139 20.6438C8.84512 20.6342 10.1639 19.374 10.1592 17.8755ZM18.8473 17.8938C18.8512 19.3901 20.1885 20.6511 21.7645 20.6438C23.3474 20.6364 24.6685 19.3762 24.6646 17.8784C24.6608 16.3822 23.3235 15.1212 21.7475 15.1285C20.1645 15.1359 18.8435 16.3961 18.8473 17.8938ZM18.8728 11.0092V14.7429C18.9076 14.7341 18.9184 14.7341 18.9261 14.7297C18.9586 14.7077 18.9903 14.6835 19.0227 14.6615C20.3592 13.7371 21.8077 13.5252 23.3613 14.0751C24.5109 14.4819 25.2711 15.281 25.7833 16.314C25.8505 16.4496 25.9015 16.5808 26.0939 16.4885V11.0099H18.8728V11.0092ZM18.8636 5.49689V9.61552H25.8374C25.8219 9.5752 25.8196 9.55541 25.808 9.54221C24.6484 8.27099 23.4942 6.99538 22.3207 5.73515C22.2025 5.60833 21.9746 5.51155 21.7946 5.50716C20.8289 5.48516 19.8625 5.49689 18.8628 5.49689H18.8636Z" fill="#363740"/>
</svg>
