<svg width="24" height="20" viewBox="0 0 24 20" fill="none" xmlns="http://www.w3.org/2000/svg">
<path d="M10.7144 15.3061C10.7144 15.6309 10.8498 15.9423 11.0909 16.172C11.332 16.4016 11.659 16.5306 12 16.5306C12.341 16.5306 12.668 16.4016 12.9091 16.172C13.1502 15.9423 13.2856 15.6309 13.2856 15.3061C13.2856 14.9814 13.1502 14.6699 12.9091 14.4403C12.668 14.2106 12.341 14.0816 12 14.0816C11.659 14.0816 11.332 14.2106 11.0909 14.4403C10.8498 14.6699 10.7144 14.9814 10.7144 15.3061ZM11.1429 7.55102V12.2449C11.1429 12.3571 11.2393 12.449 11.3572 12.449H12.6428C12.7607 12.449 12.8571 12.3571 12.8571 12.2449V7.55102C12.8571 7.43878 12.7607 7.34694 12.6428 7.34694H11.3572C11.2393 7.34694 11.1429 7.43878 11.1429 7.55102ZM23.8841 18.7755L12.7419 0.408163C12.5759 0.135204 12.2893 0 12 0C11.7107 0 11.4215 0.135204 11.2581 0.408163L0.115851 18.7755C-0.213595 19.3214 0.198882 20 0.857773 20H23.1422C23.8011 20 24.2136 19.3214 23.8841 18.7755ZM2.89873 18.0638L12 3.05867L21.1013 18.0638H2.89873Z" fill="#FF2424"/>
</svg>
