<svg width="21" height="15" viewBox="0 0 21 15" fill="none" xmlns="http://www.w3.org/2000/svg">
<path d="M16.6244 14.5001H5.24944C2.51451 14.5017 0.236469 12.4035 0.0137556 9.67763C-0.208958 6.95178 1.69827 4.51157 4.39719 4.06922C5.63944 1.86675 7.97079 0.503172 10.4994 0.50005C12.0762 0.49409 13.6078 1.02624 14.8412 2.0086C16.0523 2.96923 16.9133 4.30195 17.2912 5.80085C19.5521 6.14825 21.1638 8.17868 20.989 10.4594C20.8141 12.7402 18.9119 14.5013 16.6244 14.5001ZM10.4994 2.25009C8.60219 2.25233 6.85303 3.27569 5.92144 4.92847L5.51194 5.6626L4.68156 5.79822C2.88806 6.0987 1.62345 7.72261 1.7715 9.53507C1.91955 11.3475 3.43095 12.7447 5.24944 12.7501H16.6244C17.9969 12.7515 19.1388 11.6954 19.2444 10.3269C19.3499 8.95849 18.3834 7.73976 17.0269 7.53073L15.8754 7.35572L15.5937 6.22522C15.0121 3.88618 12.9097 2.24569 10.4994 2.25009ZM11.7682 11.0001H9.23069V8.3751H6.99944L10.4994 4.8751L13.9994 8.3751H11.7682V11.0001Z" fill="white"/>
</svg>
