<svg width="21" height="15" viewBox="0 0 21 15" fill="none" xmlns="http://www.w3.org/2000/svg">
<path d="M16.6254 14.5001H5.25041C2.51549 14.5017 0.237446 12.4035 0.0147322 9.67763C-0.207982 6.95178 1.69925 4.51157 4.39816 4.06922C5.64041 1.86675 7.97176 0.503172 10.5004 0.50005C12.0772 0.49409 13.6088 1.02624 14.8422 2.0086C16.0532 2.96923 16.9143 4.30195 17.2922 5.80085C19.5531 6.14825 21.1647 8.17868 20.9899 10.4594C20.8151 12.7402 18.9129 14.5013 16.6254 14.5001ZM10.5004 2.25009C8.60316 2.25233 6.854 3.27569 5.92241 4.92847L5.51291 5.6626L4.68254 5.79822C2.88904 6.0987 1.62442 7.72261 1.77248 9.53507C1.92053 11.3475 3.43192 12.7447 5.25041 12.7501H16.6254C17.9979 12.7515 19.1398 11.6954 19.2453 10.3269C19.3509 8.95849 18.3844 7.73976 17.0279 7.53073L15.8764 7.35572L15.5947 6.22522C15.013 3.88618 12.9107 2.24569 10.5004 2.25009ZM10.5004 11.0001L7.00041 7.5001H9.23166V4.8751H11.7692V7.5001H14.0004L10.5004 11.0001Z" fill="#363740"/>
</svg>
