<svg width="22" height="19" viewBox="0 0 22 19" fill="none" xmlns="http://www.w3.org/2000/svg">
<path d="M21.6239 9.99305C21.7055 10.0699 21.7704 10.1618 21.8147 10.2632C21.859 10.3647 21.8818 10.4738 21.8818 10.5839C21.8818 10.6941 21.859 10.8031 21.8147 10.9046C21.7704 11.0061 21.7055 11.098 21.6239 11.1748C21.4565 11.3323 21.2321 11.4205 20.9985 11.4205C20.7649 11.4205 20.5406 11.3323 20.3732 11.1748L11.002 2.34248L1.62886 11.1748C1.54465 11.2543 1.44507 11.317 1.3358 11.3593C1.22652 11.4016 1.1097 11.4227 0.992 11.4213C0.8743 11.42 0.758026 11.3962 0.649818 11.3514C0.541612 11.3067 0.443594 11.2417 0.361358 11.1603C0.282964 11.0828 0.221159 10.991 0.179479 10.8904C0.1378 10.7897 0.117061 10.6821 0.118455 10.5737C0.119848 10.4652 0.143344 10.3582 0.187599 10.2585C0.231853 10.1589 0.295995 10.0687 0.376356 9.99305L10.3476 0.60067C10.5227 0.435707 10.7575 0.343383 11.002 0.343383C11.2465 0.343383 11.4813 0.435707 11.6564 0.60067L21.6239 9.99305ZM21.6239 17.243C21.7055 17.3199 21.7704 17.4118 21.8147 17.5133C21.859 17.6147 21.8818 17.7238 21.8818 17.8339C21.8818 17.9441 21.859 18.0531 21.8147 18.1546C21.7704 18.2561 21.7055 18.348 21.6239 18.4248C21.4565 18.5823 21.2321 18.6705 20.9985 18.6705C20.7649 18.6705 20.5406 18.5823 20.3732 18.4248L11.002 9.59248L1.62886 18.4248C1.54465 18.5043 1.44507 18.567 1.3358 18.6093C1.22652 18.6516 1.1097 18.6727 0.992 18.6713C0.874299 18.67 0.758025 18.6462 0.649818 18.6015C0.541612 18.5567 0.443593 18.4917 0.361358 18.4103C0.282964 18.3328 0.221158 18.241 0.179479 18.1404C0.137799 18.0397 0.117061 17.9321 0.118455 17.8237C0.119847 17.7152 0.143344 17.6082 0.187598 17.5085C0.231853 17.4089 0.295995 17.3187 0.376355 17.243L10.3476 7.85067C10.5227 7.68571 10.7575 7.59338 11.002 7.59338C11.2465 7.59338 11.4813 7.68571 11.6564 7.85067L21.6239 17.243Z" fill="white"/>
</svg>
