<svg width="17" height="19" viewBox="0 0 17 19" fill="none" xmlns="http://www.w3.org/2000/svg">
<g clip-path="url(#clip0_15194_38538)">
<path d="M3.03727 7.08943C3.03727 6.50998 3.01497 5.9325 3.04133 5.35702C3.14777 3.0511 4.19298 1.31869 6.40706 0.415767C9.55585 -0.868165 13.2429 0.921798 13.8532 4.42235C13.9212 4.8103 13.9384 5.20918 13.9516 5.60309C13.9678 6.09622 13.9556 6.59134 13.9556 7.09836C14.2608 7.1192 14.5538 7.12714 14.8427 7.15988C16.0572 7.2978 16.9787 8.2662 16.9868 9.46877C17.0041 11.862 17.0051 14.2542 16.9868 16.6475C16.9767 17.9731 15.8899 18.9881 14.4919 18.9921C10.4956 19.002 6.49931 19.003 2.50301 18.9921C1.03912 18.9881 0.00202755 17.9364 0.00101378 16.5006C0 14.1907 -0.00101378 11.8799 0.00202755 9.56998C0.0040551 8.40214 0.759318 7.44465 1.90083 7.19758C2.25768 7.12019 2.63379 7.12515 3.03727 7.08943ZM11.4891 7.11325C11.4891 6.33237 11.5672 5.56737 11.4729 4.8232C11.2884 3.36464 10.0181 2.35555 8.49645 2.35655C6.97376 2.35655 5.71465 3.36563 5.51798 4.82419C5.4237 5.52173 5.47135 6.23811 5.45614 6.94556C5.45513 7.00013 5.46932 7.0547 5.47743 7.11325H11.4891ZM9.71805 13.0596C9.71805 12.6389 9.72109 12.2182 9.71805 11.7975C9.71197 11.1546 9.18582 10.6753 8.4924 10.6763C7.801 10.6773 7.27891 11.1595 7.27688 11.8064C7.27384 12.6399 7.27384 13.4734 7.27688 14.3068C7.27891 14.9548 7.79897 15.438 8.48936 15.4399C9.19494 15.4419 9.71501 14.9597 9.71805 14.2969C9.72008 13.8841 9.71805 13.4714 9.71805 13.0586V13.0596Z" fill="#DEE0E8"/>
</g>
<defs>
<clipPath id="clip0_15194_38538">
<rect width="17" height="19" fill="white"/>
</clipPath>
</defs>
</svg>
