<svg width="16" height="19" viewBox="0 0 16 19" fill="none" xmlns="http://www.w3.org/2000/svg">
<path d="M5.14616 7.12149H5.45435C8.16125 7.12149 10.8691 7.11951 13.576 7.12149C14.7601 7.12248 15.656 7.82208 15.9232 8.96065C15.9719 9.16676 15.9957 9.38377 15.9957 9.59682C16.0005 11.8987 15.9995 14.2017 15.9986 16.5036C15.9986 17.9374 15.0187 18.9888 13.639 18.9918C9.87584 19.0017 6.11271 19.0027 2.34957 18.9918C0.982289 18.9868 0.0033395 17.9345 0.00143121 16.5174C-0.000477071 14.2155 -0.000477071 11.9126 0.00143121 9.6107C0.00143121 8.17782 0.984197 7.14528 2.36293 7.12149C2.51941 7.11852 2.67684 7.12149 2.86004 7.12149C2.86004 6.56459 2.86195 6.03048 2.86004 5.49638C2.85718 4.83939 2.94973 4.19529 3.1625 3.57794C3.80369 1.72392 5.06029 0.58535 6.90274 0.132497C9.16405 -0.423412 11.641 0.815245 12.6219 2.99924C12.8432 3.49074 12.7583 4.04269 12.4091 4.38852C12.0541 4.73931 11.4721 4.83543 11.0437 4.56292C10.8577 4.445 10.685 4.25177 10.5838 4.05062C9.71173 2.32145 7.75001 1.81806 6.23007 2.96952C5.56408 3.4739 5.21963 4.20223 5.15666 5.04055C5.10609 5.71933 5.14616 6.40605 5.14616 7.12149ZM7.99618 14.2512C8.39311 14.2512 8.79003 14.2581 9.18695 14.2492C9.84245 14.2344 10.2938 13.7429 10.2938 13.0561C10.2938 12.3714 9.84054 11.876 9.18314 11.867C8.39692 11.8571 7.61166 11.8571 6.82545 11.867C6.16423 11.875 5.70815 12.3655 5.70624 13.0472C5.70529 13.7478 6.15755 14.2363 6.82831 14.2492C7.2176 14.2571 7.60594 14.2502 7.99523 14.2492L7.99618 14.2512Z" fill="#29CC97"/>
</svg>
