<svg width="15" height="14" viewBox="0 0 15 14" fill="none" xmlns="http://www.w3.org/2000/svg">
<g id="Capa_1" clip-path="url(#clip0_19106_41896)">
<path id="Vector" d="M4.61954 6.32269C4.89989 6.76284 5.13782 7.21172 5.44562 7.59946C5.78005 8.02127 5.88403 8.47015 5.85658 9.00374C5.82414 9.63515 5.85242 10.2692 5.8466 10.9023C5.84493 11.0499 5.89568 11.1233 6.02712 11.173C6.97216 11.532 7.91387 11.8988 8.85725 12.2612C9.15007 12.3738 9.15174 12.3712 9.15174 12.0533C9.15174 10.8525 9.15423 9.65174 9.14924 8.45094C9.14924 8.28152 9.19084 8.14441 9.28651 8.00817C9.6567 7.48157 10.0136 6.94361 10.3272 6.37683C10.3405 6.35325 10.3605 6.33492 10.3896 6.29998C10.4428 6.39168 10.4237 6.47988 10.4237 6.5611C10.4254 8.40203 10.4245 10.243 10.4245 12.0839C10.4245 12.3686 10.4262 12.3712 10.6874 12.2717C11.6441 11.9049 12.6 11.5337 13.5575 11.1695C13.6798 11.1233 13.7297 11.0551 13.7297 10.9154C13.7264 8.76184 13.7264 6.60739 13.7297 4.45381C13.7297 4.27478 13.669 4.26168 13.5309 4.31583C12.7381 4.62498 11.9444 4.92889 11.15 5.23367C11.0867 5.25813 11.0077 5.321 10.957 5.27035C10.8879 5.20136 10.9711 5.12276 11.0019 5.05727C11.1724 4.69572 11.2839 4.31408 11.3629 3.92196C11.3954 3.76128 11.4719 3.67569 11.62 3.6198C12.4278 3.31327 13.2322 2.99539 14.0383 2.68274C14.5965 2.46616 15 2.75523 15 3.37353C15 6.06594 15 8.75835 15 11.4508C15 11.9145 14.8577 12.1241 14.4426 12.2821C13.0093 12.828 11.5759 13.3729 10.1442 13.9222C9.90461 14.0139 9.67584 14.0157 9.43542 13.9231C8.1077 13.4139 6.77749 12.9127 5.44978 12.4018C5.28257 12.3372 5.13532 12.3407 4.96894 12.4044C3.63541 12.9179 2.29937 13.4244 0.963341 13.9318C0.598137 14.0707 0.294493 13.9895 0.108979 13.71C0.0316122 13.593 0 13.4646 0 13.3205C0.0016638 10.5696 0.0016638 7.81954 0 5.06862C0 4.72715 0.158061 4.49136 0.450058 4.37871C1.41839 4.00406 2.39338 3.64513 3.36421 3.27746C3.48733 3.23118 3.56303 3.24166 3.57634 3.39973C3.60463 3.74818 3.66203 4.09139 3.76685 4.42499C3.81343 4.57258 3.70529 4.59441 3.61378 4.62934C2.90999 4.8957 2.20786 5.16905 1.50075 5.42493C1.32605 5.48781 1.26948 5.57688 1.26948 5.76901C1.2753 7.87892 1.27281 9.98971 1.27364 12.0996C1.27364 12.3703 1.27614 12.373 1.52903 12.2752C2.48572 11.9084 3.44074 11.5355 4.39909 11.1748C4.548 11.1189 4.57795 11.0281 4.57795 10.8805C4.57462 9.45437 4.57545 8.02826 4.57712 6.60127C4.57712 6.51744 4.55466 6.42836 4.61871 6.32356L4.61954 6.32269Z" fill="#363740"/>
<path id="Vector_2" d="M7.25081 0C9.33972 0.00261992 10.7539 1.58418 10.625 3.50196C10.5892 4.03992 10.3754 4.52985 10.1541 5.00755C9.63837 6.11927 8.93125 7.10174 8.23495 8.09032C8.12764 8.24228 8.02115 8.39598 7.90053 8.53571C7.6651 8.80731 7.33068 8.81168 7.1019 8.53397C6.89393 8.28158 6.70592 8.00911 6.51708 7.74013C5.83242 6.76726 5.19103 5.7682 4.69937 4.66783C4.2959 3.76483 4.23767 2.85659 4.64197 1.94922C5.20517 0.68118 6.18598 0.0576383 7.25081 0ZM8.52445 3.07317C8.52861 2.49155 8.0694 2.00861 7.50537 2.00337C6.94717 1.99813 6.48214 2.47757 6.47798 3.06444C6.47382 3.64606 6.93386 4.129 7.49706 4.13424C8.05526 4.13948 8.52029 3.65916 8.52445 3.07317Z" fill="#363740"/>
</g>
<defs>
<clipPath id="clip0_19106_41896">
<rect width="15" height="14" fill="white"/>
</clipPath>
</defs>
</svg>
