<svg width="15" height="13" viewBox="0 0 15 13" fill="none" xmlns="http://www.w3.org/2000/svg">
<g id="Capa_1" clip-path="url(#clip0_19206_38615)">
<path id="Vector" d="M8.10424 13C6.1658 13 4.22737 13 2.28893 13C0.871082 12.9991 0 12.1363 0 10.7312C0 7.45785 0 4.18444 0 0.91197C0 0.764611 0 0.619106 0.0514051 0.478235C0.162627 0.177957 0.410306 0.00186798 0.726214 1.44142e-05C1.04025 -0.00183915 1.29354 0.175177 1.40663 0.471748C1.46271 0.620033 1.46177 0.773879 1.46177 0.928652C1.46177 4.16313 1.46177 7.3976 1.46177 10.633C1.46177 10.7331 1.45897 10.8341 1.46551 10.9342C1.48514 11.2623 1.67487 11.4717 2.00012 11.5459C2.14593 11.5793 2.29267 11.583 2.44034 11.583C6.34058 11.583 10.2418 11.583 14.142 11.5811C14.4859 11.5811 14.7738 11.6599 14.9327 11.9963C15.1196 12.392 14.9037 12.8554 14.4785 12.9713C14.356 13.0046 14.2317 13.0009 14.1074 13.0009C12.1064 13.0009 10.1053 13.0009 8.10518 13.0009L8.10424 13Z" fill="#363740"/>
<path id="Vector_2" d="M12.6183 5.06553C12.6183 5.53819 12.6145 5.9849 12.6192 6.43161C12.6229 6.79491 12.7977 7.05812 13.0893 7.16192C13.6034 7.34449 14.0716 6.99973 14.0763 6.42049C14.0838 5.50946 14.0791 4.59843 14.0791 3.6874C14.0791 3.5558 14.0838 3.4242 14.0772 3.29352C14.0548 2.83754 13.7754 2.55487 13.3192 2.55209C12.2444 2.54561 11.1705 2.54468 10.0957 2.55209C9.65827 2.55487 9.35265 2.85701 9.35171 3.25645C9.35078 3.65497 9.6564 3.95432 10.0929 3.96451C10.4976 3.97378 10.9023 3.96544 11.3079 3.96915C11.3817 3.96915 11.4621 3.94412 11.5322 3.9951C11.5238 4.07665 11.4575 4.11187 11.4098 4.15821C10.635 4.92929 9.85455 5.69574 9.08441 6.47146C8.94608 6.61141 8.8657 6.60399 8.73205 6.46868C8.0778 5.80789 7.41421 5.15543 6.75249 4.50112C6.30666 4.05997 5.90477 4.05997 5.45988 4.50019C4.74862 5.20362 4.0383 5.90798 3.32984 6.61326C3.13544 6.80696 3.00085 7.03031 3.0616 7.31762C3.11768 7.58453 3.26816 7.78101 3.54107 7.86627C3.8495 7.96266 4.11307 7.86998 4.33271 7.65682C4.84396 7.15914 5.34586 6.65311 5.8543 6.15172C6.14123 5.86905 6.07394 5.87183 6.36555 6.15914C7.00577 6.7912 7.64226 7.42605 8.28249 8.05812C8.70494 8.47517 9.11712 8.47424 9.54144 8.05441C10.4836 7.12207 11.4247 6.18694 12.3669 5.2546C12.4313 5.19065 12.4827 5.10909 12.6201 5.06553H12.6183Z" fill="#363740"/>
</g>
<defs>
<clipPath id="clip0_19206_38615">
<rect width="15" height="13" fill="white"/>
</clipPath>
</defs>
</svg>
