<svg width="15" height="15" viewBox="0 0 15 15" fill="none" xmlns="http://www.w3.org/2000/svg">
<g id="Capa_1" clip-path="url(#clip0_19106_41942)">
<path id="Vector" d="M6.78543 1.18991C6.78543 1.01859 6.77888 0.84634 6.78637 0.675024C6.80602 0.281839 7.11675 -0.00462424 7.51077 5.65363e-05C7.8945 0.00473731 8.19867 0.289328 8.21271 0.673152C8.22394 0.99238 8.22675 1.31255 8.21271 1.63177C8.20335 1.84147 8.267 1.93415 8.486 1.97066C9.47527 2.13449 10.3625 2.53516 11.1328 3.18205C12.1445 4.03114 12.7575 5.11895 13.0383 6.40054C13.1216 6.7825 13.1169 6.78343 13.5147 6.78343C13.7721 6.78343 14.0295 6.77781 14.2868 6.78624C14.7108 6.80028 15 7.09236 15.0019 7.49491C15.0038 7.89933 14.7164 8.19702 14.2943 8.21107C13.9827 8.22136 13.6701 8.2223 13.3593 8.21107C13.1787 8.20545 13.102 8.26443 13.0664 8.45166C12.8502 9.59938 12.3532 10.6095 11.5352 11.4474C10.6863 12.3161 9.64654 12.8366 8.45792 13.0603C8.27448 13.095 8.20616 13.1615 8.21458 13.3468C8.22675 13.6351 8.21926 13.9235 8.21739 14.2118C8.21458 14.6864 7.93568 14.9944 7.50796 14.9972C7.07089 15.001 6.78824 14.6893 6.78637 14.2006C6.78543 13.9122 6.77795 13.623 6.78918 13.3356C6.79573 13.1615 6.73302 13.0969 6.558 13.0632C4.91734 12.7421 3.61173 11.9126 2.71605 10.4812C2.33607 9.87274 2.09273 9.20713 1.97387 8.50127C1.93643 8.28128 1.85688 8.19515 1.62757 8.21013C1.33276 8.22979 1.03514 8.21949 0.739386 8.21294C0.296696 8.20358 0.00188073 7.91524 8.8901e-06 7.50333C-0.00186295 7.09049 0.292016 6.79747 0.730963 6.78624C1.04262 6.77875 1.35522 6.77501 1.66595 6.78624C1.84845 6.79373 1.93081 6.73288 1.96263 6.54846C2.13859 5.51962 2.54946 4.60032 3.23549 3.80552C4.0956 2.80946 5.1822 2.215 6.46628 1.97815C6.71805 1.93134 6.82193 1.84147 6.78637 1.5859C6.76859 1.45578 6.78356 1.32097 6.78356 1.18897C6.78356 1.18897 6.7845 1.18897 6.78543 1.18897V1.18991ZM11.6971 7.50801C11.6766 5.2472 9.94323 3.31685 7.50141 3.31498C5.07925 3.31311 3.31691 5.21818 3.30755 7.48087C3.29819 9.78755 5.0961 11.6954 7.5089 11.6861C9.96756 11.6758 11.67 9.73513 11.6971 7.50895V7.50801Z" fill="#363740"/>
<path id="Vector_2" d="M10.3223 7.50781C10.3223 9.07493 9.06631 10.3247 7.49396 10.3228C5.92629 10.321 4.67778 9.06744 4.67871 7.49471C4.67871 5.92758 5.93472 4.67782 7.50706 4.67969C9.07473 4.68156 10.3232 5.93507 10.3223 7.50781ZM8.88567 7.49002C8.87164 6.728 8.22959 6.10264 7.48273 6.12418C6.72089 6.14664 6.11441 6.75608 6.11441 7.50126C6.11441 8.2558 6.7499 8.88583 7.50519 8.87834C8.26797 8.87085 8.89878 8.23614 8.88474 7.49002H8.88567Z" fill="#363740"/>
</g>
<defs>
<clipPath id="clip0_19106_41942">
<rect width="15" height="15" fill="white"/>
</clipPath>
</defs>
</svg>
