<svg width="15" height="15" viewBox="0 0 15 15" fill="none" xmlns="http://www.w3.org/2000/svg">
<g clip-path="url(#clip0_18995_49073)">
<path d="M7.48156 14.9986C5.63496 14.9986 3.7893 15.0023 1.9427 14.9967C0.981534 14.9939 0.258788 14.4082 0.0465462 13.4763C0.0241065 13.3781 0.0166266 13.2761 0.0128866 13.1751C-0.0394727 11.9251 0.059636 10.6872 0.256918 9.45219C0.425216 8.39867 0.546764 7.3386 0.713192 6.28509C0.86466 5.32513 1.63322 4.68797 2.60654 4.67955C3.05814 4.6758 3.51067 4.67206 3.96227 4.68142C4.1474 4.68516 4.22407 4.63744 4.22407 4.43441C4.22407 3.77012 4.23155 3.77012 3.5649 3.77012C3.01139 3.77012 2.45881 3.77292 1.9053 3.76824C1.31158 3.76357 0.947874 3.39212 0.946939 2.8008C0.946939 2.17674 0.945069 1.55361 0.946939 0.929547C0.948809 0.395303 1.31719 0.00608159 1.85014 0.00421033C4.06232 -0.00140344 6.2745 -0.00140344 8.48668 0.00421033C9.01962 0.00514596 9.38707 0.395303 9.38894 0.932354C9.39081 1.5639 9.39081 2.19545 9.38894 2.827C9.388 3.38838 9.01868 3.7645 8.45302 3.76918C7.76019 3.77479 7.06643 3.77573 6.3736 3.76824C6.18754 3.76637 6.11274 3.81503 6.11274 4.01619C6.11274 4.67955 6.10526 4.67955 6.77284 4.67955C8.61944 4.67955 10.466 4.71042 12.3108 4.66738C13.3187 4.64399 14.2041 5.43366 14.3238 6.37678C14.5024 7.77461 14.6931 9.1715 14.9072 10.5637C15.0353 11.3955 14.9914 12.2273 14.9961 13.059C15.0026 14.1781 14.1892 14.9911 13.0662 14.9967C11.804 15.0033 10.5427 14.9986 9.28048 14.9986C8.68022 14.9986 8.08089 14.9986 7.48063 14.9986H7.48156ZM7.51055 11.228C9.43475 11.228 11.358 11.2233 13.2822 11.2336C13.516 11.2346 13.5543 11.1578 13.5235 10.9529C13.3009 9.48306 13.0849 8.01132 12.8662 6.54051C12.8306 6.3038 12.6988 6.15971 12.4594 6.12509C12.3828 6.11387 12.3042 6.11106 12.2266 6.11106C9.08039 6.11106 5.93323 6.11106 2.78699 6.11106C2.70191 6.11106 2.61589 6.12042 2.53174 6.13351C2.29987 6.17 2.17832 6.31596 2.14653 6.54051C1.93896 8.00477 1.73326 9.46997 1.52757 10.9342C1.48643 11.2252 1.48923 11.2271 1.78656 11.2271C3.69487 11.2271 5.60318 11.2271 7.51148 11.2271L7.51055 11.228ZM7.53018 12.6595C5.6144 12.6595 3.69954 12.6595 1.78375 12.6595C1.71363 12.6595 1.6435 12.6595 1.57338 12.6623C1.4883 12.6651 1.45651 12.7119 1.44248 12.7943C1.3574 13.3004 1.56777 13.5661 2.07266 13.5661C5.69387 13.568 9.31414 13.5661 12.9353 13.568C13.0532 13.568 13.1691 13.5568 13.2804 13.5175C13.5132 13.4352 13.6319 13.1479 13.5646 12.798C13.5178 12.5538 13.3131 12.6651 13.1831 12.6651C11.2991 12.6577 9.41418 12.6605 7.53018 12.6605V12.6595ZM5.1441 2.33954C5.86778 2.33954 6.59052 2.34048 7.3142 2.33954C7.73027 2.3386 7.95373 2.17861 7.95467 1.88763C7.95467 1.59571 7.73121 1.43385 7.31607 1.43385C5.88554 1.43292 4.45408 1.43292 3.02355 1.43385C2.60654 1.43385 2.38401 1.59478 2.38308 1.88576C2.38308 2.17768 2.60654 2.3386 3.02168 2.33954C3.72946 2.34141 4.43725 2.33954 5.14503 2.33954H5.1441Z" fill="#3B4FFF"/>
<path d="M4.01174 7.49437C4.01361 7.89575 3.70787 8.20638 3.3077 8.21106C2.89724 8.21573 2.58028 7.90136 2.58402 7.49062C2.58682 7.09017 2.89817 6.78422 3.30022 6.78516C3.70226 6.78516 4.01081 7.09298 4.01268 7.49343L4.01174 7.49437Z" fill="#3B4FFF"/>
<path d="M6.8165 7.50095C6.81556 7.9014 6.50795 8.20922 6.10591 8.21109C5.69545 8.21296 5.38223 7.89578 5.38877 7.48411C5.39438 7.08553 5.70947 6.78145 6.11152 6.78519C6.51263 6.78893 6.81837 7.09956 6.81743 7.50001L6.8165 7.50095Z" fill="#3B4FFF"/>
<path d="M9.62134 7.51252C9.61666 7.91203 9.30437 8.21704 8.90233 8.21424C8.49187 8.21143 8.18332 7.89145 8.19361 7.47883C8.20296 7.08119 8.52179 6.77992 8.92477 6.78927C9.32494 6.7977 9.62694 7.11113 9.62227 7.51252H9.62134Z" fill="#3B4FFF"/>
<path d="M10.999 7.50393C10.9981 7.10349 11.3038 6.79286 11.7049 6.78911C12.1154 6.78444 12.4314 7.09974 12.4277 7.51048C12.4239 7.91 12.1126 8.21595 11.7106 8.21408C11.3085 8.2122 11.0009 7.90438 11 7.50393H10.999Z" fill="#3B4FFF"/>
<path d="M5.41452 9.85895C5.4061 10.2566 5.08821 10.5588 4.68616 10.5513C4.27757 10.5438 3.97277 10.2201 3.98679 9.80655C4.00082 9.40985 4.32339 9.11232 4.72637 9.12542C5.12561 9.13852 5.42293 9.45569 5.41452 9.85801V9.85895Z" fill="#3B4FFF"/>
<path d="M6.79102 9.8258C6.79569 9.42629 7.10891 9.12221 7.51096 9.12502C7.92048 9.12783 8.22996 9.44875 8.21968 9.86042C8.20939 10.2581 7.89056 10.5584 7.48852 10.55C7.08834 10.5416 6.78728 10.2272 6.79195 9.8258H6.79102Z" fill="#3B4FFF"/>
<path d="M11.0244 9.83514C11.0254 10.2356 10.7196 10.5462 10.3195 10.5509C9.909 10.5556 9.59297 10.2403 9.59671 9.82953C9.60045 9.43002 9.9118 9.12407 10.3138 9.125C10.7159 9.12594 11.0235 9.43376 11.0254 9.83421L11.0244 9.83514Z" fill="#3B4FFF"/>
</g>
<defs>
<clipPath id="clip0_18995_49073">
<rect width="15" height="15" fill="white"/>
</clipPath>
</defs>
</svg>
