<svg width="15" height="13" viewBox="0 0 15 13" fill="none" xmlns="http://www.w3.org/2000/svg">
<g id="Capa_1" clip-path="url(#clip0_19106_41959)">
<path id="Vector" d="M7.47659 4.1969C5.346 4.1969 3.21541 4.1969 1.08389 4.1969C0.345377 4.1969 -7.33263e-05 3.85224 -7.33263e-05 3.12029C-7.33263e-05 2.41057 -0.00100697 1.69993 -7.33263e-05 0.990218C0.00179397 0.380568 0.375253 0.00162141 0.984926 0.00069489C5.32453 -0.00023163 9.66412 -0.00023163 14.0028 0.00069489C14.6143 0.00069489 14.9925 0.376862 14.9962 0.984659C15.0009 1.72587 15.0009 2.46616 14.9962 3.20738C14.9925 3.8263 14.6143 4.19598 13.9841 4.1969C11.8143 4.19876 9.64452 4.1969 7.47472 4.1969H7.47659ZM7.49993 1.41734C5.57941 1.41734 3.6589 1.42012 1.73838 1.41364C1.52551 1.41364 1.44428 1.47386 1.45735 1.68881C1.47229 1.94268 1.46015 2.19747 1.46109 2.45227C1.46109 2.66969 1.57344 2.77871 1.79813 2.77933C5.59995 2.77933 9.4027 2.77933 13.2045 2.77933C13.2512 2.77933 13.2979 2.77562 13.3446 2.77933C13.4837 2.78952 13.5416 2.72744 13.5397 2.58939C13.535 2.29661 13.5238 2.00198 13.5434 1.71012C13.5593 1.47108 13.4706 1.41178 13.2381 1.41271C11.3251 1.42105 9.41297 1.41734 7.49993 1.41734Z" fill="#363740"/>
<path id="Vector_2" d="M7.47758 12.9989C5.97627 12.9989 4.47497 12.9998 2.97366 12.9989C1.72817 12.998 0.935504 12.2077 0.93457 10.9671C0.93457 9.12236 0.93457 7.27673 0.93457 5.43203C0.93457 5.09756 0.935504 5.09663 1.26882 5.09663C1.54144 5.09663 1.81313 5.09663 2.08576 5.09663C2.38826 5.09756 2.39386 5.10219 2.39386 5.41257C2.39386 7.02564 2.39386 8.63964 2.39386 10.2527C2.39386 10.5381 2.39013 10.8244 2.39573 11.1097C2.40133 11.3877 2.49563 11.4989 2.77012 11.5554C2.86069 11.5739 2.95499 11.5804 3.04742 11.5804C6.01175 11.5813 8.97515 11.5823 11.9395 11.5804C12.4754 11.5804 12.6042 11.4526 12.6042 10.93C12.6042 9.09271 12.6042 7.25542 12.6042 5.41813C12.6042 5.09756 12.6061 5.09663 12.9282 5.0957C13.185 5.0957 13.4417 5.0957 13.6985 5.0957C13.9412 5.0957 14.0629 5.21337 14.0635 5.44871C14.0635 6.33631 14.0635 7.22392 14.0635 8.11245C14.0635 9.06213 14.0645 10.0118 14.0635 10.9615C14.0617 12.2123 13.2681 12.9989 12.0039 12.9998C10.4951 13.0008 8.98542 12.9998 7.47665 12.9998L7.47758 12.9989Z" fill="#363740"/>
<path id="Vector_3" d="M7.50846 5.5608C8.20123 5.5608 8.89306 5.55802 9.58583 5.56173C9.893 5.56358 10.1208 5.69885 10.2534 5.98237C10.3794 6.25198 10.3206 6.49381 10.1507 6.71988C10.0144 6.90147 9.81831 6.97374 9.59983 6.97374C8.19936 6.97652 6.79889 6.98023 5.39935 6.97282C4.97641 6.97004 4.67951 6.66707 4.6739 6.27515C4.6683 5.8786 4.97547 5.56914 5.40962 5.56358C6.10985 5.55432 6.81009 5.5608 7.51033 5.5608H7.50846Z" fill="#363740"/>
</g>
<defs>
<clipPath id="clip0_19106_41959">
<rect width="15" height="13" fill="white"/>
</clipPath>
</defs>
</svg>
