<svg width="15" height="13" viewBox="0 0 15 13" fill="none" xmlns="http://www.w3.org/2000/svg">
<g clip-path="url(#clip0_18995_53775)">
<path d="M4.17821 5.67332C4.97991 5.67332 5.78245 5.67088 6.58415 5.67332C7.62321 5.67656 8.3469 6.37928 8.35105 7.39568C8.35603 8.68522 8.3552 9.97558 8.35105 11.2651C8.34773 12.2823 7.62487 12.9891 6.5883 12.9907C4.97742 12.994 3.36571 12.994 1.75484 12.9907C0.728224 12.9883 0.00370275 12.2799 0.00121299 11.2789C-0.0021067 9.98206 -0.00127678 8.68604 0.00121299 7.3892C0.00370275 6.38577 0.725734 5.67818 1.75069 5.67332C2.55986 5.67007 3.36903 5.67332 4.17738 5.67332H4.17821ZM4.17572 11.7522C4.95667 11.7522 5.73763 11.7547 6.51859 11.7514C6.92857 11.7498 7.05389 11.6242 7.05389 11.2311C7.05389 9.9618 7.05389 8.69333 7.05389 7.42405C7.05389 7.05121 6.92857 6.92233 6.54846 6.91585C6.18247 6.90937 5.81564 6.92071 5.44965 6.91099C5.282 6.90693 5.2347 6.97259 5.23719 7.12578C5.24383 7.55779 5.243 7.98979 5.23719 8.4218C5.23304 8.79546 5.08614 8.9373 4.70853 8.93973C4.36328 8.94216 4.0172 8.94135 3.67196 8.93973C3.25119 8.93811 3.11259 8.80356 3.11176 8.39344C3.1101 7.96791 3.11176 7.5432 3.1101 7.11767C3.1101 7.03419 3.13251 6.91828 2.99806 6.91909C2.53579 6.92152 2.0727 6.881 1.61209 6.94179C1.40129 6.96934 1.29921 7.10227 1.29921 7.30571C1.29838 8.65605 1.29838 10.0056 1.29921 11.3559C1.29921 11.5585 1.39631 11.6898 1.60794 11.7247C1.70255 11.7401 1.79965 11.7514 1.89509 11.7522C2.6553 11.7547 3.41551 11.7531 4.17572 11.7531V11.7522Z" fill="#3B4FFF"/>
<path d="M11.0585 12.9971C10.2842 12.9971 9.50986 12.9971 8.73471 12.9955C8.67745 12.9955 8.59777 13.0263 8.5679 12.9566C8.54383 12.9014 8.6069 12.8609 8.63844 12.8196C8.84094 12.5578 9.00277 12.2733 9.06834 11.9515C9.10236 11.7837 9.18785 11.7545 9.33972 11.7545C10.5705 11.7586 11.8013 11.757 13.0329 11.7562C13.1092 11.7562 13.1856 11.7594 13.2611 11.7521C13.5732 11.7229 13.6927 11.5997 13.6935 11.2958C13.6952 9.99246 13.6952 8.68914 13.6935 7.38501C13.6935 7.07052 13.5715 6.93436 13.2478 6.92301C12.847 6.90842 12.4461 6.92139 12.0444 6.91653C11.8951 6.9149 11.8785 6.9992 11.8785 7.11267C11.8801 7.5382 11.8809 7.96372 11.8785 8.38925C11.876 8.81072 11.7374 8.94284 11.3025 8.94365C10.9705 8.94446 10.6385 8.94446 10.3066 8.94365C9.88913 8.94203 9.75302 8.80586 9.75136 8.39087C9.75053 7.97183 9.74472 7.5536 9.75385 7.13456C9.75717 6.96678 9.69825 6.91166 9.52729 6.91409C9.14303 6.91896 9.14054 6.91247 9.01937 6.54855C8.93472 6.29485 8.79861 6.06953 8.63844 5.85555C8.6069 5.8134 8.54383 5.77287 8.56624 5.71857C8.59528 5.64724 8.67496 5.67885 8.73222 5.67885C9.9215 5.67723 11.1108 5.67723 12.3009 5.67723C12.6187 5.67723 12.9374 5.6748 13.2553 5.67723C14.2387 5.68534 14.9741 6.36942 14.9865 7.32989C15.0031 8.66726 15.0031 10.0046 14.9865 11.3412C14.9749 12.3016 14.2396 12.9882 13.257 12.9946C12.5241 12.9995 11.7913 12.9955 11.0577 12.9955L11.0585 12.9971Z" fill="#3B4FFF"/>
<path d="M7.50487 0.00129163C8.30658 0.00129163 9.10911 -0.00113994 9.91081 0.00129163C10.9391 0.00534425 11.6653 0.706448 11.6711 1.70826C11.6769 2.68089 11.6678 3.6527 11.6761 4.62533C11.6777 4.82634 11.6171 4.90821 11.4047 4.89119C11.2055 4.87579 11.0038 4.88956 10.8038 4.88794C10.344 4.88389 10.3764 4.94387 10.3756 4.47944C10.3756 3.57489 10.3756 2.66954 10.3756 1.76499C10.3756 1.36946 10.2511 1.24626 9.84276 1.24139C9.4834 1.23734 9.12405 1.24545 8.76469 1.23815C8.61033 1.23491 8.55804 1.29165 8.5597 1.43916C8.56551 1.86469 8.56385 2.29021 8.56053 2.71493C8.55804 3.12829 8.41861 3.26446 8.00282 3.26608C7.64347 3.2677 7.28411 3.26933 6.92393 3.26527C6.59528 3.26122 6.43925 3.11289 6.4351 2.79274C6.42929 2.34695 6.4268 1.90116 6.43593 1.45618C6.43925 1.28597 6.37618 1.23329 6.20687 1.23815C5.84752 1.24788 5.48816 1.23734 5.12881 1.24301C4.74123 1.2495 4.61923 1.37189 4.61923 1.74392C4.6184 2.69629 4.61923 3.64784 4.61923 4.60021C4.61923 4.88794 4.61757 4.88875 4.31631 4.88875C4.04659 4.88875 3.77686 4.8847 3.50714 4.88956C3.37352 4.892 3.32124 4.83607 3.32207 4.70882C3.32456 3.66243 3.29966 2.61523 3.33286 1.56966C3.36024 0.671595 4.09721 0.0118284 5.01594 0.0037232C5.84586 -0.00357152 6.67495 0.00210215 7.50487 0.00210215V0.00129163Z" fill="#3B4FFF"/>
</g>
<defs>
<clipPath id="clip0_18995_53775">
<rect width="15" height="13" fill="white"/>
</clipPath>
</defs>
</svg>
