<svg width="15" height="13" viewBox="0 0 15 13" fill="none" xmlns="http://www.w3.org/2000/svg">
<g id="Capa_1" clip-path="url(#clip0_19106_41966)">
<path id="Vector" d="M4.1787 5.67527C4.9804 5.67527 5.78293 5.67284 6.58464 5.67527C7.6237 5.67851 8.34739 6.38124 8.35154 7.39763C8.35652 8.68718 8.35569 9.97753 8.35154 11.2671C8.34822 12.2843 7.62536 12.9911 6.58879 12.9927C4.97791 12.9959 3.3662 12.9959 1.75533 12.9927C0.728712 12.9903 0.00419103 12.2819 0.00170127 11.2809C-0.00161842 9.98402 -0.000788498 8.68799 0.00170127 7.39115C0.00419103 6.38772 0.726223 5.68013 1.75118 5.67527C2.56035 5.67203 3.36952 5.67527 4.17787 5.67527H4.1787ZM4.17621 11.7542C4.95716 11.7542 5.73812 11.7566 6.51907 11.7534C6.92906 11.7518 7.05437 11.6261 7.05437 11.233C7.05437 9.96375 7.05437 8.69528 7.05437 7.426C7.05437 7.05316 6.92906 6.92429 6.54895 6.9178C6.18296 6.91132 5.81613 6.92267 5.45014 6.91294C5.28249 6.90889 5.23519 6.97454 5.23768 7.12773C5.24432 7.55974 5.24348 7.99175 5.23768 8.42376C5.23353 8.79741 5.08663 8.93925 4.70902 8.94168C4.36377 8.94411 4.01769 8.9433 3.67244 8.94168C3.25167 8.94006 3.11308 8.80551 3.11225 8.39539C3.11059 7.96986 3.11225 7.54515 3.11059 7.11962C3.11059 7.03614 3.13299 6.92023 2.99855 6.92105C2.53628 6.92348 2.07319 6.88295 1.61258 6.94374C1.40178 6.9713 1.2997 7.10422 1.2997 7.30767C1.29887 8.658 1.29887 10.0075 1.2997 11.3579C1.2997 11.5605 1.3968 11.6918 1.60843 11.7266C1.70304 11.742 1.80014 11.7534 1.89558 11.7542C2.65579 11.7566 3.416 11.755 4.17621 11.755V11.7542Z" fill="#363740"/>
<path id="Vector_2" d="M11.0585 12.9951C10.2842 12.9951 9.50986 12.9951 8.73471 12.9935C8.67745 12.9935 8.59777 13.0243 8.5679 12.9546C8.54383 12.8995 8.6069 12.859 8.63844 12.8176C8.84094 12.5558 9.00277 12.2713 9.06834 11.9495C9.10236 11.7818 9.18785 11.7526 9.33972 11.7526C10.5705 11.7566 11.8013 11.755 13.0329 11.7542C13.1092 11.7542 13.1856 11.7575 13.2611 11.7502C13.5732 11.721 13.6927 11.5978 13.6935 11.2938C13.6952 9.99051 13.6952 8.68719 13.6935 7.38305C13.6935 7.06857 13.5715 6.9324 13.2478 6.92106C12.847 6.90647 12.4461 6.91944 12.0444 6.91457C11.8951 6.91295 11.8785 6.99725 11.8785 7.11072C11.8801 7.53624 11.8809 7.96177 11.8785 8.38729C11.876 8.80877 11.7374 8.94088 11.3025 8.94169C10.9705 8.9425 10.6385 8.9425 10.3066 8.94169C9.88913 8.94007 9.75302 8.8039 9.75136 8.38892C9.75053 7.96987 9.74472 7.55164 9.75385 7.1326C9.75717 6.96482 9.69825 6.90971 9.52729 6.91214C9.14303 6.917 9.14054 6.91052 9.01937 6.54659C8.93472 6.2929 8.79861 6.06757 8.63844 5.8536C8.6069 5.81145 8.54383 5.77092 8.56624 5.71662C8.59528 5.64529 8.67496 5.6769 8.73222 5.6769C9.9215 5.67528 11.1108 5.67528 12.3009 5.67528C12.6187 5.67528 12.9374 5.67285 13.2553 5.67528C14.2387 5.68339 14.9741 6.36747 14.9865 7.32794C15.0031 8.6653 15.0031 10.0027 14.9865 11.3392C14.9749 12.2997 14.2396 12.9862 13.257 12.9927C12.5241 12.9976 11.7913 12.9935 11.0577 12.9935L11.0585 12.9951Z" fill="#363740"/>
<path id="Vector_3" d="M7.50487 0.00129163C8.30658 0.00129163 9.10911 -0.00113994 9.91081 0.00129163C10.9391 0.00534425 11.6653 0.706448 11.6711 1.70826C11.6769 2.68089 11.6678 3.6527 11.6761 4.62533C11.6777 4.82634 11.6171 4.90821 11.4047 4.89119C11.2055 4.87579 11.0038 4.88956 10.8038 4.88794C10.344 4.88389 10.3764 4.94387 10.3756 4.47944C10.3756 3.57489 10.3756 2.66954 10.3756 1.76499C10.3756 1.36946 10.2511 1.24626 9.84276 1.24139C9.4834 1.23734 9.12405 1.24545 8.76469 1.23815C8.61033 1.23491 8.55804 1.29165 8.5597 1.43916C8.56551 1.86469 8.56385 2.29021 8.56053 2.71493C8.55804 3.12829 8.41861 3.26446 8.00282 3.26608C7.64347 3.2677 7.28411 3.26933 6.92393 3.26527C6.59528 3.26122 6.43925 3.11289 6.4351 2.79274C6.42929 2.34695 6.4268 1.90116 6.43593 1.45618C6.43925 1.28597 6.37618 1.23329 6.20687 1.23815C5.84752 1.24788 5.48816 1.23734 5.12881 1.24301C4.74123 1.2495 4.61923 1.37189 4.61923 1.74392C4.6184 2.69629 4.61923 3.64784 4.61923 4.60021C4.61923 4.88794 4.61757 4.88875 4.31631 4.88875C4.04659 4.88875 3.77686 4.8847 3.50714 4.88956C3.37352 4.892 3.32124 4.83607 3.32207 4.70882C3.32456 3.66243 3.29966 2.61523 3.33286 1.56966C3.36024 0.671595 4.09721 0.0118284 5.01594 0.0037232C5.84586 -0.00357152 6.67495 0.00210215 7.50487 0.00210215V0.00129163Z" fill="#363740"/>
</g>
<defs>
<clipPath id="clip0_19106_41966">
<rect width="15" height="13" fill="white"/>
</clipPath>
</defs>
</svg>
