<svg width="11" height="11" viewBox="0 0 11 11" fill="none" xmlns="http://www.w3.org/2000/svg">
<g clip-path="url(#clip0_18995_50392)">
<path d="M0.774421 11.0006C0.189051 10.9939 -0.151303 10.4574 0.0660661 9.9715C0.128989 9.83022 0.230999 9.72044 0.337777 9.61352C3.4267 6.52153 6.51467 3.42954 9.60169 0.337554C9.70275 0.236366 9.80571 0.137086 9.93727 0.0740814C10.2271 -0.065292 10.5875 -0.00324222 10.7953 0.220137C11.0279 0.4712 11.067 0.803405 10.8849 1.09934C10.8191 1.20625 10.7343 1.30362 10.6447 1.39336C7.55957 4.48726 4.47064 7.57829 1.38458 10.6712C1.19867 10.8574 0.995603 10.9977 0.775374 11.0006H0.774421Z" fill="#3B4FFF"/>
<path d="M1.65192 3.12312C0.856803 3.11357 0.217091 2.46062 0.225671 1.66638C0.234252 0.859733 0.887311 0.22587 1.70054 0.234461C2.50328 0.242098 3.14203 0.882643 3.14203 1.67879C3.14203 2.49307 2.48135 3.13267 1.65192 3.12312Z" fill="#3B4FFF"/>
<path d="M9.29311 10.7637C8.49513 10.7589 7.85447 10.1164 7.85352 9.32029C7.85352 8.51555 8.50371 7.87215 9.31503 7.87501C10.1292 7.87787 10.7813 8.53083 10.7699 9.33079C10.7584 10.1413 10.1111 10.7694 9.29311 10.7646V10.7637Z" fill="#3B4FFF"/>
</g>
<defs>
<clipPath id="clip0_18995_50392">
<rect width="11" height="11" fill="white"/>
</clipPath>
</defs>
</svg>
