<svg width="11" height="11" viewBox="0 0 11 11" fill="none" xmlns="http://www.w3.org/2000/svg">
<g id="Capa_1" clip-path="url(#clip0_19106_41973)">
<path id="Vector" d="M0.774421 11.0006C0.189051 10.9939 -0.151303 10.4574 0.0660661 9.9715C0.128989 9.83022 0.230999 9.72044 0.337777 9.61352C3.4267 6.52153 6.51467 3.42954 9.60169 0.337554C9.70275 0.236366 9.80571 0.137086 9.93727 0.0740814C10.2271 -0.065292 10.5875 -0.00324222 10.7953 0.220137C11.0279 0.4712 11.067 0.803405 10.8849 1.09934C10.8191 1.20625 10.7343 1.30362 10.6447 1.39336C7.55957 4.48726 4.47064 7.57829 1.38458 10.6712C1.19867 10.8574 0.995603 10.9977 0.775374 11.0006H0.774421Z" fill="#363740"/>
<path id="Vector_2" d="M1.65192 3.12507C0.856803 3.11553 0.217091 2.46257 0.225671 1.66833C0.234252 0.861686 0.887311 0.227823 1.70054 0.236414C2.50328 0.244051 3.14203 0.884596 3.14203 1.68074C3.14203 2.49503 2.48135 3.13462 1.65192 3.12507Z" fill="#363740"/>
<path id="Vector_3" d="M9.29262 10.7617C8.49465 10.7569 7.85398 10.1145 7.85303 9.31834C7.85303 8.5136 8.50323 7.87019 9.31455 7.87306C10.1287 7.87592 10.7808 8.52888 10.7694 9.32884C10.758 10.1393 10.1106 10.7674 9.29262 10.7627V10.7617Z" fill="#363740"/>
</g>
<defs>
<clipPath id="clip0_19106_41973">
<rect width="11" height="11" fill="white"/>
</clipPath>
</defs>
</svg>
