<svg width="12" height="16" viewBox="0 0 12 16" fill="none" xmlns="http://www.w3.org/2000/svg">
<g id="Capa_1" clip-path="url(#clip0_19106_41981)">
<path id="Vector" d="M0.00220807 8.99187C0.00220807 7.38728 0.00220807 5.78369 0.00220807 4.1791C0.00220807 2.84793 0.849127 1.99973 2.17815 1.99774C2.55887 1.99774 2.93958 1.99175 3.3203 1.99973C3.47636 2.00273 3.55489 1.95283 3.6036 1.79517C4.12944 0.0578584 5.97935 -0.389192 7.24972 0.327286C7.81931 0.648603 8.1871 1.13657 8.371 1.75924C8.42567 1.94385 8.51215 2.00771 8.70201 2.00173C9.09068 1.98776 9.48034 1.99674 9.86901 1.99774C11.1255 2.00372 11.9903 2.86889 11.9913 4.13619C11.9952 7.07894 11.9943 10.0207 11.9913 12.9634C11.9913 13.3945 12.0271 13.8276 11.9565 14.2577C11.7875 15.2945 10.9913 15.993 9.94157 15.995C7.30837 16.001 4.67517 16.002 2.04296 15.995C0.879942 15.992 0.00817228 15.1039 0.00419614 13.9294C-0.00276211 12.2839 0.00220807 10.6384 0.00220807 8.99187ZM1.55589 9.00085C1.55589 10.6054 1.55589 12.209 1.55589 13.8136C1.55589 14.3215 1.69505 14.4692 2.20201 14.4702C4.73581 14.4722 7.26861 14.4732 9.80241 14.4702C10.2895 14.4702 10.4376 14.3116 10.4386 13.8236C10.4386 10.6074 10.4386 7.39028 10.4386 4.17411C10.4386 4.09129 10.4426 4.00647 10.4286 3.92564C10.3789 3.63326 10.1235 3.49755 9.704 3.52549C9.38591 3.54645 9.54296 3.79093 9.51115 3.94161C9.49127 4.0374 9.51115 4.14018 9.5042 4.23997C9.47239 4.71796 9.17815 5.01632 8.704 5.01832C6.89883 5.0243 5.09366 5.0243 3.28948 5.01832C2.80141 5.01632 2.50817 4.71097 2.48829 4.21802C2.48133 4.05237 2.48233 3.88572 2.4863 3.71908C2.48929 3.58337 2.43263 3.53148 2.29445 3.5225C1.74177 3.48757 1.55489 3.65721 1.55489 4.21403C1.55489 5.80964 1.55489 7.40524 1.55489 9.00185L1.55589 9.00085ZM5.2865 2.49668C5.27954 2.91179 5.5867 3.22413 5.99923 3.22313C6.39585 3.22213 6.70897 2.9098 6.70996 2.51364C6.71096 2.11848 6.40082 1.80415 6.0042 1.80016C5.60261 1.79517 5.29346 2.09653 5.2865 2.49668Z" fill="#363740"/>
<path id="Vector_2" d="M5.17274 11.9048C4.93218 11.9098 4.74629 11.834 4.59222 11.6783C4.06538 11.1494 3.53457 10.6245 3.01369 10.0907C2.66478 9.73244 2.65286 9.26643 2.96697 8.9521C3.27214 8.64675 3.75624 8.66072 4.10713 8.99601C4.40037 9.27741 4.68963 9.5638 4.96598 9.86117C5.10514 10.0099 5.19461 10.0148 5.34272 9.86616C6.16677 9.03692 7.00276 8.21866 7.83278 7.39541C8.01468 7.21479 8.21449 7.08008 8.48486 7.08407C9.07532 7.09305 9.43218 7.70775 9.13894 8.22066C9.08228 8.32044 9.00773 8.41325 8.92622 8.49407C7.88049 9.53586 6.83079 10.5737 5.78506 11.6154C5.60713 11.7931 5.4123 11.9168 5.17274 11.9038V11.9048Z" fill="#363740"/>
</g>
<defs>
<clipPath id="clip0_19106_41981">
<rect width="12" height="16" fill="white"/>
</clipPath>
</defs>
</svg>
