<svg width="12" height="16" viewBox="0 0 12 16" fill="none" xmlns="http://www.w3.org/2000/svg">
<g clip-path="url(#clip0_19106_47263)">
<path d="M0.00171979 8.99187C0.00171979 7.38728 0.00171979 5.78369 0.00171979 4.1791C0.00171979 2.84793 0.848638 1.99973 2.17766 1.99774C2.55838 1.99774 2.9391 1.99175 3.31981 1.99973C3.47587 2.00273 3.5544 1.95283 3.60311 1.79517C4.12896 0.0578584 5.97886 -0.389192 7.24923 0.327286C7.81882 0.648603 8.18661 1.13657 8.37051 1.75924C8.42518 1.94385 8.51166 2.00771 8.70152 2.00173C9.09019 1.98776 9.47985 1.99674 9.86852 1.99774C11.125 2.00372 11.9898 2.86889 11.9908 4.13619C11.9948 7.07894 11.9938 10.0207 11.9908 12.9634C11.9908 13.3945 12.0266 13.8276 11.956 14.2577C11.787 15.2945 10.9908 15.993 9.94108 15.995C7.30788 16.001 4.67468 16.002 2.04248 15.995C0.879453 15.992 0.007684 15.1039 0.00370786 13.9294C-0.00325039 12.2839 0.00171979 10.6384 0.00171979 8.99187ZM1.5554 9.00085C1.5554 10.6054 1.5554 12.209 1.5554 13.8136C1.5554 14.3215 1.69456 14.4692 2.20152 14.4702C4.73532 14.4722 7.26812 14.4732 9.80192 14.4702C10.289 14.4702 10.4371 14.3116 10.4381 13.8236C10.4381 10.6074 10.4381 7.39028 10.4381 4.17411C10.4381 4.09129 10.4421 4.00647 10.4282 3.92564C10.3785 3.63326 10.123 3.49755 9.70351 3.52549C9.38542 3.54645 9.54248 3.79093 9.51067 3.94161C9.49079 4.0374 9.51067 4.14018 9.50371 4.23997C9.4719 4.71796 9.17766 5.01632 8.70351 5.01832C6.89834 5.0243 5.09317 5.0243 3.289 5.01832C2.80092 5.01632 2.50768 4.71097 2.4878 4.21802C2.48085 4.05237 2.48184 3.88572 2.48582 3.71908C2.4888 3.58337 2.43214 3.53148 2.29397 3.5225C1.74128 3.48757 1.5544 3.65721 1.5544 4.21403C1.5544 5.80964 1.5544 7.40524 1.5544 9.00185L1.5554 9.00085ZM5.28601 2.49668C5.27906 2.91179 5.58621 3.22413 5.99874 3.22313C6.39536 3.22213 6.70848 2.9098 6.70947 2.51364C6.71047 2.11848 6.40033 1.80415 6.00371 1.80016C5.60212 1.79517 5.29297 2.09653 5.28601 2.49668Z" fill="#3B4FFF"/>
<path d="M5.17274 11.9068C4.93218 11.9118 4.74629 11.8359 4.59222 11.6803C4.06538 11.1514 3.53457 10.6265 3.01369 10.0926C2.66478 9.7344 2.65286 9.26839 2.96697 8.95405C3.27214 8.6487 3.75624 8.66267 4.10713 8.99796C4.40037 9.27936 4.68963 9.56575 4.96598 9.86312C5.10514 10.0118 5.19461 10.0168 5.34272 9.86811C6.16677 9.03887 7.00276 8.22061 7.83278 7.39736C8.01468 7.21675 8.21449 7.08203 8.48486 7.08602C9.07532 7.095 9.43218 7.7097 9.13894 8.22261C9.08228 8.3224 9.00773 8.4152 8.92622 8.49603C7.88049 9.53781 6.83079 10.5756 5.78506 11.6174C5.60713 11.795 5.4123 11.9188 5.17274 11.9058V11.9068Z" fill="#3B4FFF"/>
</g>
<defs>
<clipPath id="clip0_19106_47263">
<rect width="12" height="16" fill="white"/>
</clipPath>
</defs>
</svg>
