<svg width="9" height="14" viewBox="0 0 9 14" fill="none" xmlns="http://www.w3.org/2000/svg">
<g id="Capa_1" clip-path="url(#clip0_19106_41936)">
<path id="Vector" d="M0.000729681 6.96903C0.000729681 5.23488 -0.00172286 3.49985 0.00236471 1.7657C0.00399973 1.1483 0.252524 0.659449 0.725046 0.306148C0.95068 0.137368 1.2082 0.0542895 1.48288 0.0210582C1.68317 -0.00342807 1.88346 0.00181898 2.08457 0.000944469C3.82015 0.000944469 5.55573 -0.00167906 7.29049 0.00181898C7.67472 0.00269349 8.03443 0.101513 8.3459 0.361242C8.66555 0.627092 8.86911 0.96815 8.9574 1.39054C8.98438 1.51909 8.99909 1.64939 8.99909 1.78057C8.99909 5.27073 9.00073 8.76177 8.99909 12.2519C8.99909 12.6927 8.8405 13.0713 8.57644 13.4072C8.32628 13.7255 8.00418 13.8986 7.62976 13.9703C7.50959 13.9931 7.38696 14.0001 7.26351 14.0001C5.42738 14.0001 3.59206 14.0001 1.75593 13.9983C1.49433 13.9983 1.23681 13.9651 0.994008 13.8462C0.434011 13.5733 0.118452 13.1037 0.0211675 12.4601C0.00645227 12.3612 0.00154719 12.2615 0.00154719 12.161C0.00154719 10.4303 0.00154719 8.69968 0.00154719 6.96903H0.000729681ZM1.23354 5.24012C1.23354 6.37873 1.23354 7.51734 1.23354 8.65595C1.23354 8.716 1.26079 8.74603 1.31529 8.74603C3.43919 8.74603 5.56227 8.74603 7.68617 8.74603C7.69598 8.74603 7.70661 8.74515 7.71642 8.74603C7.75811 8.75127 7.77201 8.73028 7.76792 8.68831C7.76628 8.67432 7.76792 8.65945 7.76792 8.64458C7.76792 6.38398 7.76792 4.12338 7.76792 1.8619C7.76792 1.80331 7.7671 1.74471 7.75647 1.68787C7.72786 1.53658 7.66164 1.41328 7.51531 1.36255C7.43274 1.33369 7.34608 1.31883 7.25943 1.31883C5.42002 1.31883 3.58062 1.31883 1.74203 1.31883C1.65292 1.31883 1.56627 1.33719 1.48125 1.3643C1.41012 1.38704 1.35698 1.43689 1.31447 1.5016C1.25071 1.59867 1.23436 1.70886 1.23436 1.82342C1.23436 2.96203 1.23436 4.10064 1.23436 5.23925L1.23354 5.24012ZM4.50277 10.0648C3.43674 10.0648 2.3707 10.0648 1.30466 10.0648C1.25779 10.0648 1.23436 10.0896 1.23436 10.1391C1.23436 10.8151 1.23436 11.4911 1.23436 12.1671C1.23436 12.2169 1.23599 12.2659 1.2458 12.314C1.27932 12.4802 1.36434 12.6227 1.54174 12.6542C1.62431 12.6691 1.70606 12.6822 1.79027 12.6822C3.58879 12.6822 5.38732 12.6822 7.18585 12.6822C7.2488 12.6822 7.31175 12.6787 7.3747 12.6708C7.51286 12.6533 7.63875 12.6131 7.70906 12.4671C7.75157 12.3787 7.76956 12.286 7.76956 12.1881C7.76956 11.5086 7.76956 10.8291 7.76956 10.1496C7.76956 10.0936 7.74394 10.0657 7.69271 10.0657C6.62994 10.0657 5.56717 10.0657 4.50441 10.0657L4.50277 10.0648Z" fill="#363740"/>
<path id="Vector_2" d="M3.88379 11.3523C3.88461 11.0174 4.17564 10.7113 4.50101 10.7209C4.90323 10.7323 5.12232 11.0585 5.11333 11.3768C5.10352 11.7187 4.86726 12.0327 4.50837 12.0248C4.10861 12.0161 3.90177 11.7161 3.88461 11.3523H3.88379Z" fill="#363740"/>
</g>
<defs>
<clipPath id="clip0_19106_41936">
<rect width="9" height="14" fill="white"/>
</clipPath>
</defs>
</svg>
