<svg width="15" height="15" viewBox="0 0 15 15" fill="none" xmlns="http://www.w3.org/2000/svg">
<g id="Capa_1" clip-path="url(#clip0_19106_42044)">
<path id="Vector" d="M14.5111 9.11738C13.7914 7.13265 12.5305 5.49185 10.6568 4.10027C10.4542 3.94947 10.2452 3.79867 10.043 3.65317C9.99647 3.6193 9.94937 3.58544 9.90281 3.55157C10.1753 3.16585 10.4425 2.78858 10.7097 2.41185L10.7484 2.35682C10.8209 2.2547 10.8939 2.15258 10.9669 2.05046C11.1331 1.81871 11.3045 1.57902 11.4659 1.33668C11.64 1.07583 11.6791 0.780578 11.5738 0.527659C11.468 0.273152 11.2304 0.0921936 10.9209 0.0313449C10.8272 0.0128257 10.724 0.00383068 10.6055 0.00383068C8.76146 0.00330156 6.91794 0.00330156 5.0739 0.00330156C4.99241 0.00330156 4.91092 0.00330156 4.82944 0.00277244C4.65165 0.0017142 4.46804 0.00118508 4.28601 0.0043598C3.80344 0.0133548 3.45632 0.282147 3.38013 0.706501C3.32774 1.00016 3.46003 1.23774 3.5812 1.41288C3.95318 1.94676 4.32464 2.48064 4.69927 3.02034L5.0739 3.55898C5.0231 3.59655 4.97283 3.63306 4.92257 3.6701C4.70774 3.82725 4.50508 3.97593 4.30242 4.13096C1.59217 6.20828 0.18784 8.65863 0.0100495 11.6206C-0.0433934 12.5085 0.115348 13.1837 0.509556 13.744C1.09372 14.5758 1.93082 14.998 2.99862 14.9991C4.26961 15.0001 5.57975 15.0012 6.94493 15.0012C8.54346 15.0012 10.2176 15.0001 11.994 14.9985C12.2268 14.9985 12.4289 14.9827 12.6115 14.9504C13.9878 14.7086 14.9921 13.5255 15 12.1381C15.0063 11.0465 14.8423 10.0301 14.5111 9.11791V9.11738ZM9.73984 1.65415C9.41018 2.13301 9.06995 2.62773 8.73712 3.11664C8.69638 3.17696 8.67098 3.18966 8.60642 3.18913C8.25825 3.18648 7.90426 3.18595 7.56243 3.18595C7.17775 3.18595 6.77984 3.18595 6.38881 3.18172C6.356 3.18172 6.30679 3.16003 6.29674 3.14944C5.86866 2.54096 5.44059 1.9166 5.02628 1.31287L4.9522 1.20493H10.0494L9.74037 1.65415H9.73984ZM5.893 4.48759C5.95597 4.44367 6.05333 4.41404 6.13588 4.41351C6.583 4.40981 7.03806 4.40928 7.4783 4.40928C7.89738 4.40928 8.33074 4.40928 8.75723 4.40557C8.93502 4.40557 9.06783 4.44367 9.21334 4.54156C10.0123 5.07967 10.6843 5.6326 11.268 6.23156C12.6781 7.67817 13.4692 9.22162 13.6851 10.9513L13.6904 10.992C13.7444 11.4217 13.7999 11.8667 13.7539 12.2836C13.656 13.1725 12.9655 13.772 12.0347 13.7747C10.9621 13.7784 9.87212 13.7779 8.81808 13.7768C8.42493 13.7768 8.03178 13.7763 7.63863 13.7763H7.47989C7.03118 13.7757 6.58247 13.7757 6.13376 13.7763C5.10088 13.7763 4.03308 13.7773 2.98275 13.7752C2.31233 13.7736 1.79854 13.4916 1.45618 12.9366C1.2276 12.5651 1.20273 12.1593 1.23659 11.6243C1.39322 9.18246 2.51605 7.14165 4.67017 5.3855C5.03316 5.0892 5.42683 4.81352 5.80781 4.54685L5.89248 4.48759H5.893Z" fill="#363740"/>
<path id="Vector_2" d="M6.028 9.28628C6.32961 9.48311 6.66561 9.62438 6.9905 9.7609C7.03706 9.78047 7.08363 9.80005 7.12966 9.81963C7.30322 9.89371 7.4826 9.95667 7.65563 10.0175C7.80749 10.071 7.96464 10.1255 8.11333 10.1874C8.15355 10.2038 8.27683 10.2546 8.26784 10.4673C8.26308 10.5816 8.21281 10.6535 8.11333 10.681C7.9202 10.7355 7.72071 10.7916 7.55192 10.7689C7.33497 10.7398 7.12384 10.6874 6.90002 10.6329C6.73334 10.5921 6.56084 10.5498 6.38728 10.5181C6.2206 10.4874 5.98514 10.4704 5.80894 10.5652C5.61686 10.6689 5.50838 10.8588 5.51791 11.0731C5.52902 11.3102 5.68088 11.5197 5.91582 11.6197C6.15499 11.7213 6.40527 11.7996 6.64762 11.8753C6.72487 11.8996 6.80266 11.9239 6.87991 11.9488C6.88097 11.9594 6.88256 11.9705 6.88361 11.9811C6.89631 12.0933 6.91113 12.2202 6.95029 12.3435C7.02278 12.57 7.22544 12.6986 7.50747 12.6986C7.5117 12.6986 7.5154 12.6986 7.51964 12.6986C7.97364 12.6917 8.071 12.3705 8.11227 11.9927C8.17365 11.9657 8.23503 11.9403 8.29482 11.9155C8.49113 11.834 8.67633 11.7567 8.84883 11.6456C9.25891 11.3805 9.52031 10.8456 9.49861 10.3144C9.47851 9.82651 9.22822 9.42967 8.7938 9.19686C8.52923 9.05558 8.2472 8.94764 7.97417 8.84341C7.88527 8.80954 7.79585 8.77515 7.70801 8.74023C7.58843 8.69261 7.46672 8.64869 7.34873 8.60583C7.19104 8.54921 7.0286 8.49048 6.87515 8.42328C6.78096 8.38254 6.73334 8.30212 6.73334 8.18465C6.73334 8.14655 6.73334 8.07618 6.86986 8.03332L6.89473 8.02539C7.09844 7.96189 7.30851 7.89628 7.50271 7.89628C7.64028 7.89628 7.78103 7.92538 7.93025 7.95607C8.04243 7.97882 8.15831 8.00263 8.27683 8.0148C8.43981 8.03174 8.65041 8.04073 8.83031 7.96507C9.06366 7.86771 9.18748 7.63278 9.14568 7.36663C9.11763 7.18779 9.00863 6.95445 8.64776 6.85815C8.49484 6.81741 8.34033 6.78513 8.19058 6.75444C8.16519 6.74915 8.13979 6.74386 8.11439 6.73857C8.06994 6.31739 7.96358 5.94119 7.50165 5.95547C7.46831 5.95653 7.17464 5.97029 7.07728 6.14648C6.99579 6.29199 6.94341 6.44861 6.89314 6.59994C6.87938 6.64121 6.86562 6.68248 6.85134 6.72322C6.81906 6.73963 6.76085 6.75815 6.72276 6.77032L6.68942 6.7809C6.01636 7.0026 5.62585 7.43701 5.52955 8.07195C5.45124 8.58519 5.63326 9.02701 6.02853 9.28522L6.028 9.28628Z" fill="#363740"/>
</g>
<defs>
<clipPath id="clip0_19106_42044">
<rect width="15" height="15" fill="white"/>
</clipPath>
</defs>
</svg>
