<svg width="17" height="17" viewBox="0 0 17 17" fill="none" xmlns="http://www.w3.org/2000/svg">
<g id="Group 9833">
<path id="Vector" d="M8.51404 1C10.3668 1 12.2102 1 14.063 1C15.0268 1 15.7473 1.58016 15.9719 2.51591C16 2.64691 16.0094 2.77792 16.0094 2.90892C16.0094 5.69744 16.0094 8.48596 16.0094 11.2838C16.0094 12.36 15.1953 13.1834 14.1192 13.1928C12.8559 13.2021 11.5926 13.1928 10.3294 13.1928C10.1516 13.1928 10.0206 13.2396 9.88023 13.3425C8.80412 14.1659 7.71865 14.98 6.63319 15.7941C6.55833 15.8503 6.48347 15.9064 6.39925 15.9439C6.05303 16.1029 5.69744 15.8784 5.68809 15.5041C5.68809 14.821 5.68809 14.1285 5.68809 13.4454C5.68809 13.2583 5.63194 13.1834 5.43543 13.1928C4.62134 13.1928 3.81659 13.1928 3.0025 13.1928C1.79538 13.1928 1 12.3974 1 11.1996C1 8.46725 1 5.72551 1 2.99314C1 1.79538 1.79538 1 3.0025 1C4.84591 1 6.67998 1 8.52339 1H8.51404ZM8.49532 1.96382C7.11978 1.96382 5.73487 1.96382 4.35933 1.96382C3.90081 1.96382 3.4423 1.96382 2.98378 1.96382C2.33812 1.98253 1.97318 2.32876 1.97318 2.90892C1.97318 5.69744 1.97318 8.49532 1.97318 11.2838C1.97318 11.4523 2.01996 11.602 2.09482 11.7517C2.30069 12.1447 2.65627 12.2196 3.03993 12.2196C3.91017 12.2196 4.78977 12.2196 5.66001 12.2196C6.28696 12.2196 6.6519 12.5845 6.6519 13.2021C6.6519 13.5203 6.6519 13.8384 6.6519 14.1566C6.6519 14.2502 6.59576 14.3999 6.67998 14.4373C6.78291 14.4935 6.86712 14.3531 6.94198 14.2876C7.73737 13.6887 8.54211 13.0898 9.32814 12.4816C9.58079 12.2851 9.85215 12.1915 10.1703 12.2009C11.3961 12.2009 12.622 12.2009 13.8384 12.2009C13.9694 12.2009 14.1004 12.2009 14.2314 12.1728C14.7274 12.0979 15.0175 11.7611 15.0268 11.2558C15.0268 8.46725 15.0268 5.66937 15.0268 2.88085C15.0268 2.6937 14.98 2.52527 14.8865 2.36619C14.6712 1.98253 14.3063 1.92639 13.9133 1.92639C12.1073 1.92639 10.292 1.92639 8.48596 1.92639L8.49532 1.96382Z" fill="#363740" stroke="#363740" stroke-width="0.3"/>
<path id="Vector_2" d="M8.52338 5.21053C9.58078 5.21053 10.6382 5.21053 11.7049 5.21053C12.0699 5.21053 12.257 5.38832 12.257 5.69712C12.257 5.94977 12.0979 6.12756 11.8546 6.16499C11.7891 6.16499 11.733 6.16499 11.6675 6.16499C9.55271 6.16499 7.44728 6.16499 5.33249 6.16499C4.98627 6.16499 4.79912 6.04334 4.75233 5.78133C4.69619 5.45382 4.90205 5.21053 5.25763 5.20117C5.93137 5.20117 6.59575 5.20117 7.26949 5.20117C7.69057 5.20117 8.11166 5.20117 8.53274 5.20117L8.52338 5.21053Z" fill="#363740" stroke="#363740" stroke-width="0.3"/>
<path id="Vector_3" d="M7.09165 8.9818C6.48341 8.9818 5.87518 8.9818 5.26694 8.9818C4.92072 8.9818 4.72421 8.77594 4.74293 8.46714C4.76164 8.19578 4.93943 8.02734 5.24823 8.02734C5.65996 8.02734 6.07168 8.02734 6.48341 8.02734C7.28815 8.02734 8.08354 8.02734 8.88828 8.02734C9.12221 8.02734 9.31872 8.09285 9.41229 8.32678C9.5433 8.66365 9.31872 8.9818 8.92571 8.9818C8.30812 8.9818 7.69988 8.9818 7.08229 8.9818H7.09165Z" fill="#363740" stroke="#363740" stroke-width="0.3"/>
</g>
</svg>
