<svg width="15" height="15" viewBox="0 0 15 15" fill="none" xmlns="http://www.w3.org/2000/svg">
<g id="Capa_1" clip-path="url(#clip0_19106_41902)">
<path id="Vector" d="M0 7.49301C0.0159335 3.28412 3.36103 0.0131516 7.50562 3.39944e-05C11.5612 -0.0121467 15.0422 3.25039 15 7.60357C14.9606 11.6269 11.6971 14.9494 7.59654 15C3.41727 15.0506 0.0121845 11.6916 0 7.49301ZM13.5904 7.49957C13.611 4.12365 10.8057 1.41955 7.49906 1.42048C4.24956 1.42048 1.44901 4.04588 1.40965 7.44054C1.37028 10.8005 4.1549 13.573 7.51312 13.5796C10.7607 13.5861 13.5969 10.8923 13.5904 7.49957Z" fill="#363740"/>
<path id="Vector_2" d="M6.79524 9.55408C6.79524 9.13432 6.79524 8.71456 6.79524 8.29479C6.79524 8.23483 6.76588 8.20484 6.70714 8.20484C5.89078 8.20484 5.07536 8.20578 4.259 8.20484C4.10154 8.20484 3.94596 8.18517 3.81193 8.09147C3.52981 7.8947 3.40984 7.41497 3.67321 7.14325C3.77163 7.04206 3.89066 6.97366 4.01813 6.9165C4.53081 6.68507 5.05006 6.47051 5.56649 6.24844C6.46814 5.86054 7.37073 5.4745 8.27238 5.08753C8.60792 4.94418 8.94346 4.80082 9.279 4.6584C9.38866 4.61155 9.49832 4.56658 9.60985 4.52441C9.77669 4.4607 9.94727 4.44852 10.1207 4.49443C10.3644 4.55814 10.4787 4.73804 10.5359 4.96385C10.5724 5.10627 10.5518 5.24869 10.489 5.38081C10.3231 5.73217 10.1778 6.09197 10.0241 6.44896C9.69889 7.20134 9.37741 7.95467 9.05499 8.708C8.75882 9.39855 8.46358 10.0891 8.16834 10.7796C8.12429 10.8818 8.08305 10.9848 8.03525 11.086C7.88997 11.3915 7.65284 11.5058 7.35948 11.4796C7.11579 11.4571 6.93209 11.309 6.84305 11.0673C6.81118 10.9802 6.79431 10.8911 6.79431 10.7984C6.79431 10.3842 6.79431 9.97104 6.79431 9.55689L6.79524 9.55408Z" fill="#363740"/>
</g>
<defs>
<clipPath id="clip0_19106_41902">
<rect width="15" height="15" fill="white"/>
</clipPath>
</defs>
</svg>
