<svg width="15" height="11" viewBox="0 0 15 11" fill="none" xmlns="http://www.w3.org/2000/svg">
<g id="Capa_1" clip-path="url(#clip0_19106_42033)">
<path id="Vector" d="M6.62463 7.40247C6.62366 7.04796 6.62268 6.6939 6.62268 6.33939V6.29135C6.12978 6.20239 5.8553 5.86389 5.8826 5.36616C5.89723 5.09661 5.89382 4.81994 5.89089 4.55217C5.88943 4.4205 5.88797 4.28884 5.88797 4.15673C5.88845 4.10247 5.89186 4.0313 5.91137 3.96013C5.98742 3.68524 6.21169 3.35742 6.84792 3.35742H14.0318C14.0854 3.35742 14.141 3.35742 14.1985 3.36231C14.6851 3.40457 14.9995 3.71949 14.9995 4.16474C15 4.59976 15.0005 5.04946 14.999 5.49293C14.9985 5.56143 14.9946 5.63437 14.9717 5.70777C14.8684 6.03692 14.6309 6.23174 14.2643 6.28779V6.34606C14.2643 6.69656 14.2633 7.04752 14.2628 7.39802C14.2609 8.28941 14.2585 9.2106 14.2706 10.1162C14.2741 10.3778 14.1756 10.6108 13.9937 10.7727C13.8177 10.9298 13.5744 11.008 13.2917 10.9987C12.9879 10.9889 12.6769 10.9916 12.3756 10.9938C11.8261 10.9978 11.2777 10.9956 10.7287 10.9947C9.70293 10.9929 8.64254 10.9911 7.60019 11.0005C7.5958 11.0005 7.59141 11.0005 7.58703 11.0005C7.29987 11.0005 7.05707 10.9169 6.884 10.7585C6.70849 10.5979 6.61342 10.3675 6.61683 10.1091C6.62902 9.20704 6.62707 8.28941 6.62463 7.40202V7.40247ZM7.65479 6.30514V10.0557H13.2317V6.30514H7.6543H7.65479ZM6.91374 4.29774V5.35948H13.9684V4.29774H6.91374Z" fill="#363740"/>
<path id="Vector_2" d="M1.30338 0.00366963C3.62502 -0.00122321 5.75506 -0.00122321 7.81636 0.00366963C8.57789 0.00544885 9.11077 0.497402 9.11321 1.19975C9.11418 1.51333 9.11369 1.82737 9.11321 2.1414V2.93715H8.09231V1.21932C8.09231 0.984017 8.03624 0.93331 7.77687 0.93331H4.31927C3.32177 0.93331 2.32428 0.93331 1.32678 0.93331C1.0679 0.93331 1.02256 1.01071 1.02256 1.1735C1.02207 3.74447 1.02207 6.78293 1.02451 9.82361C1.02451 9.87565 1.03377 9.92324 1.05132 9.95883C1.09081 10.0411 1.15614 10.0647 1.34238 10.0647H6.14802L6.20408 10.8493L6.21725 10.9734L6.08171 10.9899C6.07147 10.9917 6.05002 10.9957 6.02418 10.9957C5.60295 10.9957 5.18172 10.9961 4.76049 10.9966C4.25687 10.997 3.74642 10.9979 3.23256 10.9979C2.58511 10.9979 1.93376 10.997 1.28826 10.9939C0.530634 10.9908 0.00165749 10.4957 0.00165749 9.78936C0.00117016 6.92927 0.00117016 4.06918 0.00165749 1.20909C0.00214577 0.500516 0.537947 0.00500404 1.30435 0.00366963H1.30338Z" fill="#363740"/>
<path id="Vector_3" d="M3.99806 9.6216C3.93273 9.63983 3.86886 9.64917 3.80743 9.64917C3.69969 9.64917 3.60072 9.62115 3.51832 9.56555C3.3862 9.47659 3.31307 9.32803 3.31307 9.14744C3.31258 8.3628 3.31258 7.57728 3.31258 6.7922C3.27992 6.822 3.24677 6.85136 3.2141 6.88116C3.05614 7.02394 2.8933 7.17162 2.7212 7.30817C2.60907 7.39713 2.44477 7.45451 2.30436 7.45451H2.30095C2.09911 7.45451 1.93578 7.32908 1.86412 7.11824C1.78514 6.88605 1.96211 6.72325 2.02939 6.66187C2.49255 6.23797 2.96253 5.80874 3.42715 5.38662C3.69432 5.14331 3.95564 5.14465 4.22574 5.39018C4.56165 5.69487 4.89659 6.00045 5.23103 6.30603L5.58986 6.63385L5.59961 6.6423C5.62058 6.66054 5.64398 6.68144 5.66592 6.70635C5.7254 6.77441 5.86483 6.9332 5.77464 7.14537C5.68834 7.34687 5.52746 7.46118 5.33537 7.45585C5.19398 7.45229 5.03115 7.39224 4.92096 7.30239C4.72302 7.14093 4.53386 6.97057 4.33397 6.79086V9.13854C4.33397 9.47615 4.12384 9.58601 3.99855 9.62115L3.99806 9.6216Z" fill="#363740"/>
<path id="Vector_4" d="M11.5268 7.63937C11.2055 7.6416 10.8584 7.64382 10.4991 7.64382C10.1397 7.64382 9.7346 7.6416 9.3475 7.63493C9.19636 7.63181 9.01549 7.54641 8.92627 7.43654C8.81413 7.29776 8.79366 7.12829 8.87166 6.98329C8.95893 6.82093 9.15248 6.71774 9.37724 6.71285C9.6249 6.70751 9.87599 6.70884 10.1188 6.71018C10.3235 6.71107 10.5288 6.71107 10.734 6.71107C10.9788 6.71107 11.2318 6.71018 11.4805 6.7124C11.5887 6.71329 11.8135 6.71507 11.9534 6.89789C12.067 7.04556 12.086 7.20969 12.008 7.37116C11.9261 7.54241 11.7554 7.63759 11.5273 7.63937H11.5268Z" fill="#363740"/>
</g>
<defs>
<clipPath id="clip0_19106_42033">
<rect width="15" height="11" fill="white" transform="matrix(-1 0 0 1 15 0)"/>
</clipPath>
</defs>
</svg>
