<svg width="15" height="13" viewBox="0 0 15 13" fill="none" xmlns="http://www.w3.org/2000/svg">
<g clip-path="url(#clip0_18995_52460)">
<path d="M0.389704 12.0351C0.474253 12.018 0.564228 12.0092 0.656012 12.0092C1.00551 12.0074 1.36134 12.0074 1.70587 12.0079H1.92832V10.0546H0.655559C0.412311 10.0546 0.240048 10.0009 0.127919 9.89099C0.0411091 9.80522 -0.00229645 9.6913 -3.52859e-05 9.55232C0.00222492 9.36935 0.0899401 9.06279 0.64923 9.06279C5.47169 9.06235 9.52824 9.06235 14.3516 9.06323C14.4402 9.06323 14.5252 9.07159 14.6034 9.0883C14.8417 9.138 14.9973 9.32097 15 9.55408C15.0027 9.78763 14.8458 9.97763 14.6093 10.0269C14.5252 10.0445 14.4352 10.0533 14.343 10.0533C13.9926 10.055 13.6354 10.0546 13.29 10.0546H13.0703V12.0079H14.3435C14.5867 12.0079 14.759 12.0615 14.8711 12.1715C14.9579 12.2573 15.0013 12.3712 14.9995 12.5102C14.9973 12.6931 14.9095 12.9997 14.3502 12.9997C12.3957 12.9997 10.5672 12.9997 8.76232 12.9997C6.11372 12.9997 3.51621 12.9997 0.647874 12.9988C0.559256 12.9988 0.474254 12.9905 0.396034 12.9737C0.158212 12.924 0.00267792 12.7415 0.000416756 12.5084C-0.00229549 12.2757 0.154142 12.0857 0.390157 12.0356L0.389704 12.0351ZM6.97052 11.9991V10.0647H2.98812V11.9991H6.97052ZM8.03258 10.0599V11.9986H12.0136V10.0599H8.03258Z" fill="#3B4FFF"/>
<path d="M11.9395 7.40264C11.5986 7.82971 11.1198 8.04699 10.5157 8.04919C10.0821 8.05095 9.64357 8.05139 9.20907 8.05139C8.92197 8.05139 8.63667 8.05139 8.35499 8.05139C8.06879 8.05139 7.78304 8.05139 7.49684 8.05139H7.36482C7.09444 8.05095 6.82407 8.05139 6.55324 8.05139C5.87323 8.05183 5.16971 8.05271 4.47794 8.05007C3.4421 8.04655 2.71869 7.35558 2.71869 6.36949C2.71824 5.19426 2.71824 2.85306 2.71869 1.67784C2.71959 0.712417 3.44888 0.00913129 4.45307 0.00605249C6.60026 -0.00186442 8.59643 -0.00186442 10.5564 0.00517283C11.5367 0.00913129 12.2782 0.7045 12.2813 1.62242C12.2872 2.87813 12.2863 5.28355 12.2813 6.43766C12.28 6.79568 12.1647 7.12027 11.9395 7.40264ZM6.47954 2.27117C6.50712 2.25885 6.53515 2.2461 6.56228 2.23378C6.78066 2.13526 6.98729 2.04246 7.19075 1.93998C7.40189 1.8331 7.60083 1.83354 7.81605 1.94218C8.01408 2.04158 8.21664 2.13306 8.4305 2.23026C8.4617 2.24434 8.49289 2.25841 8.52454 2.27293V1.0049H6.47954V2.27117ZM9.83664 0.997865C9.74802 0.998745 9.65895 1.00006 9.56897 1.0005V3.03427C9.56671 3.23703 9.48081 3.4046 9.33386 3.49433C9.18466 3.58493 8.98843 3.58625 8.79447 3.49741C8.38664 3.31048 7.98786 3.12707 7.59134 2.93443C7.519 2.89924 7.48102 2.8988 7.41365 2.93135C7.13152 3.06858 6.84215 3.20272 6.56228 3.33247C6.45015 3.38437 6.33802 3.43627 6.22634 3.48861C6.01836 3.58581 5.81942 3.58757 5.6657 3.49389C5.51378 3.40109 5.43059 3.22867 5.43059 3.00832V1.00622C5.337 1.00534 5.24386 1.00358 5.15298 1.00226C4.83875 0.996985 4.54169 0.991707 4.24419 1.01458C4.10855 1.02469 3.98421 1.08891 3.89424 1.19491C3.80426 1.30091 3.75453 1.43813 3.75453 1.58152V2.97357C3.75453 4.1809 3.75408 5.60902 3.75453 6.47328C3.75453 6.78908 4.00546 7.03846 4.33778 7.0543C4.4576 7.06002 4.58103 7.05914 4.70084 7.05826C4.7447 7.05826 4.78811 7.05782 4.83151 7.05782H6.24805C7.65735 7.05782 9.11503 7.05738 10.5483 7.05914H10.5515C10.8616 7.05914 11.0506 6.96457 11.1632 6.75302C11.2125 6.66021 11.241 6.56081 11.241 6.47944C11.2468 5.33017 11.2459 3.17325 11.245 1.885V1.57316C11.245 1.27628 11.0086 1.02206 10.7178 1.00622C10.5524 0.997425 10.3878 0.994786 10.22 0.994786C10.0939 0.994786 9.9664 0.996106 9.83573 0.997865H9.83664Z" fill="#3B4FFF"/>
</g>
<defs>
<clipPath id="clip0_18995_52460">
<rect width="15" height="13" fill="white" transform="matrix(-1 0 0 1 15 0)"/>
</clipPath>
</defs>
</svg>
