<svg width="15" height="14" viewBox="0 0 15 14" fill="none" xmlns="http://www.w3.org/2000/svg">
<g id="Frame" clip-path="url(#clip0_19106_42060)">
<path id="Vector" d="M0 9.986V0.6C0 0.108 0.105242 0 0.591739 0H14.4142C14.8828 0 15 0.114 15 0.586V13.408C15 13.876 14.8769 14 14.4142 14H0.565925C0.115171 14 0 13.88 0 13.422V9.988V9.986ZM0.835981 13.158H14.1561V0.844H0.835981V13.158Z" fill="#363740"/>
<path id="Vector_2" d="M9.98572 9.58079C10.7919 9.58079 11.5981 9.57679 12.4043 9.58479C12.5333 9.58479 12.6982 9.61279 12.7816 9.69479C12.8709 9.78079 12.9344 9.95879 12.9106 10.0748C12.8868 10.1908 12.7518 10.3028 12.6406 10.3768C12.5711 10.4248 12.4539 10.4088 12.3566 10.4088C10.776 10.4088 9.19541 10.4088 7.61479 10.4088C7.58302 10.4088 7.54926 10.4088 7.51749 10.4088C7.22957 10.3948 7.04688 10.2348 7.04688 9.99479C7.04688 9.75479 7.22957 9.58279 7.51551 9.58079C8.33759 9.57479 9.15967 9.58079 9.98175 9.58079H9.98572Z" fill="#363740"/>
<path id="Vector_3" d="M10.0081 6.34855C10.8142 6.34855 11.6204 6.34855 12.4266 6.34855C12.7503 6.34855 12.9429 6.51054 12.937 6.76654C12.931 7.01254 12.7384 7.17454 12.4346 7.17454C10.8063 7.17454 9.17606 7.17454 7.54779 7.17454C7.24397 7.17454 7.05335 7.01054 7.04938 6.76254C7.0454 6.51454 7.23603 6.35055 7.53984 6.34855C8.36193 6.34655 9.18599 6.34855 10.0081 6.34855Z" fill="#363740"/>
<path id="Vector_4" d="M9.98568 3.93338C9.17948 3.93338 8.37329 3.93338 7.56709 3.93338C7.24342 3.93338 7.04883 3.77538 7.04883 3.52138C7.04883 3.26738 7.24541 3.10938 7.56709 3.10938C9.18743 3.10938 10.8098 3.10938 12.4301 3.10938C12.7458 3.10938 12.9424 3.27938 12.9345 3.53538C12.9265 3.78138 12.7359 3.93538 12.4281 3.93538C11.614 3.93538 10.7979 3.93538 9.98369 3.93538L9.98568 3.93338Z" fill="#363740"/>
<path id="Vector_5" d="M3.32668 10.4626C3.89062 9.89856 4.42478 9.36256 4.95893 8.82656C5.02645 8.75856 5.09396 8.68456 5.17339 8.63056C5.35806 8.50456 5.54074 8.52656 5.70158 8.68056C5.85051 8.82256 5.86441 9.03256 5.73931 9.20856C5.70158 9.26056 5.65591 9.30656 5.61024 9.35256C4.9907 9.97456 4.36918 10.5966 3.74765 11.2186C3.44583 11.5206 3.25321 11.5206 2.95139 11.2186C2.70516 10.9746 2.45893 10.7306 2.21668 10.4826C2.01215 10.2726 2.00421 10.0386 2.18292 9.86256C2.35568 9.69256 2.59992 9.70656 2.80246 9.90856C2.9772 10.0826 3.144 10.2686 3.32668 10.4626Z" fill="#363740"/>
<path id="Vector_6" d="M3.33283 5.00992C3.87692 4.46392 4.39518 3.94392 4.91147 3.42592C4.97501 3.36392 5.03458 3.29792 5.10011 3.23792C5.29868 3.06392 5.54093 3.06392 5.70575 3.23792C5.8646 3.40392 5.86659 3.63592 5.68589 3.82192C5.29868 4.22192 4.90352 4.61192 4.51035 5.00592C4.24824 5.26792 3.98811 5.53192 3.72402 5.79392C3.448 6.06792 3.24149 6.06392 2.95952 5.78592C2.71329 5.54192 2.46707 5.29792 2.22481 5.04992C2.00837 4.82792 1.99844 4.59192 2.1851 4.41192C2.35984 4.24392 2.59812 4.26192 2.80464 4.46792C2.97541 4.63792 3.14022 4.81592 3.32886 5.00992H3.33283Z" fill="#363740"/>
</g>
<defs>
<clipPath id="clip0_19106_42060">
<rect width="15" height="14" fill="white"/>
</clipPath>
</defs>
</svg>
