<svg width="15" height="14" viewBox="0 0 15 14" fill="none" xmlns="http://www.w3.org/2000/svg">
<g clip-path="url(#clip0_19106_47074)">
<path d="M7.49696 0.00527294C9.09246 0.00527294 10.6871 0.0113838 12.2826 3.50528e-05C12.6692 -0.00258389 12.931 0.141458 13.133 0.463588C13.6268 1.25451 14.1425 2.03146 14.6372 2.82151C15.4762 4.16066 14.7962 5.8106 13.2666 6.10392C12.5172 6.24796 11.8257 6.05591 11.252 5.53648C11.1176 5.41514 11.0359 5.39157 10.8909 5.52339C10.0132 6.31955 8.6725 6.35185 7.75262 5.61069C7.71309 5.57839 7.66652 5.5522 7.63489 5.51291C7.53386 5.38982 7.45566 5.42823 7.34848 5.51902C6.38731 6.33613 5.08789 6.35534 4.11179 5.55656C3.9431 5.41863 3.85524 5.43609 3.69534 5.56529C2.9916 6.13447 2.19648 6.31082 1.33284 5.99393C0.192442 5.57489 -0.318014 4.25145 0.206499 3.11396C0.420872 2.64953 0.736283 2.2436 1.00425 1.8106C1.29594 1.34006 1.60081 0.878254 1.89864 0.411209C2.0726 0.138839 2.30982 0.000908034 2.64544 0.002654C4.2629 0.00876486 5.87949 0.00527294 7.49696 0.00527294ZM7.52507 1.34093C6.06926 1.34093 4.61346 1.34355 3.15677 1.33744C2.97491 1.33744 2.86157 1.39157 2.76668 1.5487C2.43106 2.10305 2.08139 2.64866 1.73874 3.19864C1.63858 3.35927 1.52788 3.51553 1.44969 3.68663C1.23532 4.15281 1.48923 4.72636 1.95487 4.78834C2.31246 4.83635 2.65422 4.75342 2.91077 4.46359C3.42562 3.88306 4.32704 3.82631 4.83662 4.39724C5.27503 4.88786 6.11934 4.90182 6.55951 4.40248C7.04976 3.84639 7.938 3.88306 8.44143 4.4147C8.91411 4.91405 9.60643 4.92801 10.0967 4.44787C10.688 3.86909 11.4602 3.86298 12.0489 4.43391C12.193 4.57358 12.3564 4.68009 12.5488 4.73858C12.9617 4.86254 13.2411 4.79881 13.4441 4.53866C13.6663 4.25495 13.6839 3.89266 13.4783 3.56005C13.061 2.88524 12.6323 2.21653 12.2202 1.53823C12.128 1.38633 12.0199 1.33744 11.8477 1.33832C10.4059 1.34355 8.96506 1.34181 7.52331 1.34181L7.52507 1.34093Z" fill="#3B4FFF"/>
<path d="M7.50359 9.16775C9.01123 9.16775 10.5198 9.16338 12.0274 9.17298C12.255 9.17473 12.3138 9.10227 12.3085 8.88577C12.2954 8.32619 12.3094 7.76574 12.3015 7.20616C12.2989 7.01323 12.3525 6.91458 12.5625 6.94688C12.8761 6.9949 13.1889 6.9591 13.5008 6.9172C13.6124 6.90236 13.6695 6.93902 13.6747 7.05164C13.6747 7.06648 13.6765 7.08045 13.6765 7.09529C13.6765 8.81943 13.7002 10.5436 13.666 12.266C13.6457 13.29 12.8612 13.9927 11.8324 13.9936C8.94095 13.9971 6.04954 13.9971 3.15813 13.9936C2.09944 13.9918 1.32629 13.2236 1.32278 12.1734C1.31839 10.5078 1.32102 8.84212 1.3219 7.17648C1.3219 6.90411 1.32717 6.90672 1.58899 6.93466C1.8798 6.96521 2.17149 6.98617 2.46318 6.94601C2.63626 6.92244 2.69776 6.99926 2.696 7.16775C2.69073 7.74915 2.70127 8.33143 2.69073 8.91284C2.68721 9.11624 2.75838 9.17211 2.95694 9.17124C4.47249 9.16425 5.98716 9.16775 7.50271 9.16775H7.50359ZM7.5238 10.5034C6.0021 10.5034 4.47952 10.5069 2.95782 10.4999C2.75926 10.499 2.68634 10.554 2.69161 10.7574C2.70391 11.2227 2.69424 11.688 2.696 12.1533C2.69776 12.4982 2.81637 12.6256 3.16077 12.6553C3.23369 12.6614 3.30661 12.6588 3.38041 12.6588C6.12422 12.6588 8.86803 12.6588 11.6127 12.6588C11.6856 12.6588 11.7594 12.6614 11.8324 12.6553C12.1741 12.6274 12.3015 12.4938 12.3042 12.1551C12.3068 11.6968 12.2945 11.2385 12.3094 10.781C12.3173 10.5602 12.2479 10.4964 12.0248 10.4973C10.525 10.5069 9.02441 10.5017 7.52468 10.5025L7.5238 10.5034Z" fill="#3B4FFF"/>
</g>
<defs>
<clipPath id="clip0_19106_47074">
<rect width="15" height="14" fill="white"/>
</clipPath>
</defs>
</svg>
