<svg width="15" height="14" viewBox="0 0 15 14" fill="none" xmlns="http://www.w3.org/2000/svg">
<g id="Capa_1" clip-path="url(#clip0_19106_42026)">
<path id="Vector" d="M7.49696 0.00527294C9.09246 0.00527294 10.6871 0.0113838 12.2826 3.50528e-05C12.6692 -0.00258389 12.931 0.141458 13.133 0.463588C13.6268 1.25451 14.1425 2.03146 14.6372 2.82151C15.4762 4.16066 14.7962 5.8106 13.2666 6.10392C12.5172 6.24796 11.8257 6.05591 11.252 5.53648C11.1176 5.41514 11.0359 5.39157 10.8909 5.52339C10.0132 6.31955 8.6725 6.35185 7.75262 5.61069C7.71309 5.57839 7.66652 5.5522 7.63489 5.51291C7.53386 5.38982 7.45566 5.42823 7.34848 5.51902C6.38731 6.33613 5.08789 6.35534 4.11179 5.55656C3.9431 5.41863 3.85524 5.43609 3.69534 5.56529C2.9916 6.13447 2.19648 6.31082 1.33284 5.99393C0.192442 5.57489 -0.318014 4.25145 0.206499 3.11396C0.420872 2.64953 0.736283 2.2436 1.00425 1.8106C1.29594 1.34006 1.60081 0.878254 1.89864 0.411209C2.0726 0.138839 2.30982 0.000908034 2.64544 0.002654C4.2629 0.00876486 5.87949 0.00527294 7.49696 0.00527294ZM7.52507 1.34093C6.06926 1.34093 4.61346 1.34355 3.15677 1.33744C2.97491 1.33744 2.86157 1.39157 2.76668 1.5487C2.43106 2.10305 2.08139 2.64866 1.73874 3.19864C1.63858 3.35927 1.52788 3.51553 1.44969 3.68663C1.23532 4.15281 1.48923 4.72636 1.95487 4.78834C2.31246 4.83635 2.65422 4.75342 2.91077 4.46359C3.42562 3.88306 4.32704 3.82631 4.83662 4.39724C5.27503 4.88786 6.11934 4.90182 6.55951 4.40248C7.04976 3.84639 7.938 3.88306 8.44143 4.4147C8.91411 4.91405 9.60643 4.92801 10.0967 4.44787C10.688 3.86909 11.4602 3.86298 12.0489 4.43391C12.193 4.57358 12.3564 4.68009 12.5488 4.73858C12.9617 4.86254 13.2411 4.79881 13.4441 4.53866C13.6663 4.25495 13.6839 3.89266 13.4783 3.56005C13.061 2.88524 12.6323 2.21653 12.2202 1.53823C12.128 1.38633 12.0199 1.33744 11.8477 1.33832C10.4059 1.34355 8.96506 1.34181 7.52331 1.34181L7.52507 1.34093Z" fill="#363740"/>
<path id="Vector_2" d="M7.5031 9.1697C9.01075 9.1697 10.5193 9.16533 12.0269 9.17494C12.2545 9.17668 12.3133 9.10423 12.3081 8.88773C12.2949 8.32815 12.3089 7.76769 12.301 7.20811C12.2984 7.01518 12.352 6.91653 12.562 6.94883C12.8756 6.99685 13.1884 6.96106 13.5003 6.91915C13.6119 6.90431 13.669 6.94098 13.6742 7.05359C13.6742 7.06843 13.676 7.0824 13.676 7.09724C13.676 8.82138 13.6997 10.5455 13.6655 12.2679C13.6453 13.2919 12.8607 13.9947 11.8319 13.9955C8.94046 13.999 6.04905 13.999 3.15764 13.9955C2.09896 13.9938 1.32581 13.2256 1.32229 12.1754C1.3179 10.5097 1.32053 8.84408 1.32141 7.17843C1.32141 6.90606 1.32668 6.90868 1.5885 6.93661C1.87931 6.96717 2.171 6.98812 2.46269 6.94796C2.63577 6.92439 2.69727 7.00121 2.69551 7.1697C2.69024 7.7511 2.70078 8.33338 2.69024 8.91479C2.68673 9.11819 2.75789 9.17406 2.95645 9.17319C4.472 9.16621 5.98667 9.1697 7.50222 9.1697H7.5031ZM7.52331 10.5054C6.00161 10.5054 4.47903 10.5089 2.95733 10.5019C2.75877 10.501 2.68585 10.556 2.69112 10.7594C2.70342 11.2247 2.69375 11.69 2.69551 12.1553C2.69727 12.5001 2.81588 12.6276 3.16028 12.6573C3.2332 12.6634 3.30613 12.6608 3.37993 12.6608C6.12373 12.6608 8.86754 12.6608 11.6122 12.6608C11.6851 12.6608 11.7589 12.6634 11.8319 12.6573C12.1736 12.6293 12.301 12.4958 12.3037 12.157C12.3063 11.6987 12.294 11.2404 12.3089 10.783C12.3168 10.5621 12.2474 10.4984 12.0243 10.4992C10.5245 10.5089 9.02392 10.5036 7.52419 10.5045L7.52331 10.5054Z" fill="#363740"/>
</g>
<defs>
<clipPath id="clip0_19106_42026">
<rect width="15" height="14" fill="white"/>
</clipPath>
</defs>
</svg>
