<svg width="15" height="15" viewBox="0 0 15 15" fill="none" xmlns="http://www.w3.org/2000/svg">
<g id="Capa_1" clip-path="url(#clip0_19106_41990)">
<path id="Vector" d="M7.51331 0.000312051C9.32563 0.000312051 11.138 0.000312051 12.9503 0.000312051C14.1977 0.000312051 14.997 0.799788 14.9979 2.04675C14.9998 4.74474 14.9988 7.44368 14.9979 10.1417C14.9979 11.3933 14.2005 12.1956 12.9587 12.1975C11.7374 12.1993 10.5161 12.2003 9.29482 12.1947C9.12955 12.1947 8.9979 12.2387 8.86718 12.3388C7.77848 13.1701 6.68324 13.9939 5.59547 14.8271C5.38445 14.9881 5.1753 15.0602 4.92787 14.9376C4.68417 14.8168 4.6655 14.594 4.66737 14.359C4.67017 13.7271 4.66177 13.0952 4.67204 12.4643C4.67577 12.263 4.61601 12.1909 4.4078 12.1937C3.60668 12.204 2.80556 12.1993 2.00444 12.1975C0.805555 12.1956 0.00163399 11.3868 0.00070028 10.1819C-0.000233427 7.46053 -0.000233427 4.73819 0.00070028 2.01679C0.00163399 0.812894 0.806489 0.00312051 2.0063 0.00124821C3.84197 -0.00156026 5.67764 0.00124821 7.51331 0.00124821V0.000312051ZM7.50303 1.43263C5.71405 1.43263 3.92507 1.43263 2.13609 1.43263C1.57866 1.43263 1.46008 1.55058 1.46008 2.0973C1.46008 4.7644 1.46008 7.43151 1.46008 10.0986C1.46008 10.1847 1.45822 10.2709 1.46475 10.3561C1.47876 10.548 1.57493 10.6734 1.76541 10.7249C1.88772 10.7577 2.01004 10.7661 2.13515 10.7661C2.93627 10.7661 3.7374 10.7652 4.53852 10.7661C5.54505 10.767 6.11181 11.3306 6.13049 12.3435C6.13142 12.4081 6.0922 12.4989 6.17157 12.5326C6.23039 12.5579 6.28081 12.4877 6.32937 12.4521C6.94188 11.9981 7.55812 11.5478 8.16503 11.0844C8.44981 10.8672 8.75327 10.7595 9.11368 10.7614C10.3742 10.7708 11.6338 10.7661 12.8943 10.7642C13.4097 10.7642 13.5385 10.6294 13.5385 10.1108C13.5385 7.43619 13.5385 4.76066 13.5385 2.08606C13.5385 2.01585 13.5413 1.94564 13.5357 1.87543C13.518 1.65918 13.4209 1.5122 13.194 1.46258C13.0698 1.43544 12.9475 1.43263 12.8233 1.43263C11.0502 1.43263 9.27614 1.43263 7.50303 1.43263Z" fill="#363740"/>
<path id="Vector_2" d="M7.51533 3.27734C8.3398 3.27734 9.16426 3.27734 9.98872 3.27734C10.2492 3.27734 10.4836 3.33726 10.6414 3.56755C10.7982 3.79597 10.8412 4.03563 10.7151 4.29494C10.5826 4.57017 10.3594 4.70311 10.0625 4.70685C9.57229 4.71247 9.08303 4.70966 8.59283 4.70966C8.35069 4.70966 8.22962 4.83479 8.22962 5.08506C8.22962 6.24683 8.23242 7.40859 8.22775 8.57036C8.22495 9.16576 7.78051 9.51775 7.2623 9.34737C6.94857 9.24439 6.7721 8.97572 6.77117 8.57972C6.76837 7.39455 6.77117 6.20938 6.77024 5.02421C6.77024 4.71153 6.7693 4.7106 6.46491 4.7106C5.95137 4.70966 5.43784 4.71528 4.92523 4.70592C4.65072 4.70123 4.43317 4.58515 4.29965 4.32958C4.16239 4.06652 4.1904 3.81751 4.3482 3.57785C4.50133 3.34662 4.73475 3.27828 4.99619 3.27828C5.83653 3.27828 6.67593 3.27828 7.51627 3.27828L7.51533 3.27734Z" fill="#363740"/>
</g>
<defs>
<clipPath id="clip0_19106_41990">
<rect width="15" height="15" fill="white"/>
</clipPath>
</defs>
</svg>
