<svg width="15" height="10" viewBox="0 0 15 10" fill="none" xmlns="http://www.w3.org/2000/svg">
<g id="Capa_1" clip-path="url(#clip0_19106_41997)">
<path id="Vector" d="M7.51394 0.00199108C7.68925 -0.00798327 7.86757 0.0198024 8.03839 0.0789361C10.2134 0.824163 12.3891 1.56796 14.561 2.31889C15.0136 2.47492 15.1379 2.943 14.8278 3.24722C14.7154 3.35765 14.5663 3.40538 14.4202 3.45597C12.9839 3.94898 11.5485 4.442 10.1122 4.93431C9.46189 5.15731 8.81008 5.37888 8.16051 5.60473C7.70124 5.76432 7.25171 5.75221 6.7917 5.59119C5.58172 5.16728 4.36574 4.75619 3.15426 4.33513C3.0299 4.29168 2.95048 4.31447 2.85683 4.39854C2.32713 4.87375 2.03119 5.46081 1.92406 6.14049C1.90533 6.25876 1.91132 6.37418 1.96302 6.48888C2.41929 7.50983 2.47248 8.56853 2.28593 9.64933C2.23798 9.9279 2.04093 10.0455 1.71877 9.98418C1.50525 9.94357 1.29472 9.88657 1.08344 9.83599C0.853431 9.78184 0.623423 9.72841 0.394913 9.67141C-0.000672088 9.57309 -0.114552 9.28669 0.122199 8.97107C0.584464 8.35409 0.913368 7.68367 1.05946 6.93417C1.12989 6.57153 1.10592 6.20105 1.18159 5.83841C1.31195 5.2143 1.56968 4.65146 2.00722 4.167C2.15182 4.00598 2.14957 4.00028 1.93305 3.92547C1.4588 3.76161 0.983794 3.59846 0.509542 3.43459C0.355953 3.38116 0.208358 3.31633 0.112459 3.18167C-0.111556 2.87033 0.0105661 2.49415 0.396411 2.33171C0.595702 2.24836 0.804732 2.18637 1.01002 2.11584C2.9737 1.44115 4.93739 0.767166 6.90033 0.0931851C7.09588 0.0262145 7.29741 -0.00655837 7.51394 0.00199108ZM12.6843 2.86677C12.6056 2.83186 12.5734 2.81476 12.5397 2.80265C10.9641 2.25833 9.38697 1.71544 7.81212 1.16899C7.5956 1.09418 7.39107 1.09774 7.17529 1.17255C5.60644 1.71687 4.03534 2.25762 2.46574 2.80051C2.42828 2.81333 2.37733 2.81405 2.36235 2.88173C2.61858 2.96865 2.87631 3.05272 3.13179 3.14391C3.24492 3.18381 3.34681 3.17384 3.4577 3.13394C4.44216 2.77842 5.42813 2.42576 6.41409 2.07238C6.72876 1.95981 7.04268 1.84297 7.3611 1.74038C7.59186 1.66557 7.77466 1.74608 7.85708 1.93559C7.93724 2.12012 7.86157 2.30963 7.66078 2.41721C7.61733 2.44072 7.57088 2.45782 7.52443 2.47492C6.79544 2.73568 6.06571 2.99572 5.33672 3.25648C5.03779 3.36335 4.74035 3.47164 4.4092 3.59062C4.4991 3.62553 4.5493 3.64762 4.60175 3.66543C5.42888 3.94898 6.25826 4.2247 7.08089 4.51824C7.37309 4.62225 7.63981 4.61655 7.93125 4.51254C8.87601 4.17412 9.82826 3.85352 10.7768 3.52579C11.3971 3.31134 12.0175 3.09689 12.6843 2.86677Z" fill="#363740"/>
<path id="Vector_2" d="M7.50091 9.99549C6.56065 10.0012 5.63537 9.89646 4.73406 9.63571C4.33323 9.51958 3.94964 9.36284 3.59226 9.15337C3.45366 9.07215 3.33229 8.9717 3.21766 8.86056C2.94644 8.59624 2.99364 8.27919 3.03035 7.95645C3.1315 7.07871 3.22814 6.20025 3.3188 5.32109C3.33453 5.17005 3.38098 5.13656 3.52783 5.19213C3.77132 5.28404 4.01632 5.37309 4.26581 5.44577C4.42913 5.49279 4.47933 5.57686 4.4591 5.73217C4.39917 6.2031 4.34747 6.67475 4.29353 7.14639C4.26056 7.43494 4.23883 7.72562 4.19238 8.01202C4.16691 8.17233 4.23734 8.24001 4.37369 8.31197C4.87941 8.57842 5.42858 8.71308 5.99049 8.78717C7.25217 8.9546 8.5101 8.93964 9.75379 8.63827C10.0647 8.56275 10.3517 8.43736 10.6371 8.30199C10.7675 8.24072 10.8184 8.15665 10.8019 8.01915C10.73 7.41855 10.6626 6.81724 10.5952 6.21593C10.5734 6.02143 10.5599 5.82622 10.5337 5.63172C10.5202 5.52912 10.5607 5.48068 10.6603 5.45004C10.939 5.36455 11.217 5.27549 11.4927 5.18216C11.6171 5.14012 11.662 5.18073 11.6748 5.29757C11.7827 6.31211 11.898 7.32593 11.9984 8.34046C12.0247 8.60478 11.8531 8.79928 11.6583 8.966C11.2874 9.28233 10.8327 9.45403 10.3711 9.59937C9.43987 9.89219 8.47713 9.99977 7.49866 9.99549H7.50091Z" fill="#363740"/>
</g>
<defs>
<clipPath id="clip0_19106_41997">
<rect width="15" height="10" fill="white"/>
</clipPath>
</defs>
</svg>
