<svg width="15" height="15" viewBox="0 0 15 15" fill="none" xmlns="http://www.w3.org/2000/svg">
<g id="Capa_1" clip-path="url(#clip0_19106_41908)">
<path id="Vector" d="M8.47088 14.9918C7.09926 14.9918 5.72857 14.9918 4.35694 14.99C4.28495 14.99 4.18303 15.0311 4.14657 14.946C4.11665 14.8759 4.20734 14.83 4.24848 14.7767C4.51495 14.4409 4.79264 14.1136 5.04509 13.7675C5.16009 13.6103 5.28351 13.5561 5.47332 13.5561C7.71728 13.5617 9.96125 13.5598 12.2043 13.5589C12.596 13.5589 12.9598 13.4916 13.2412 13.1745C13.5451 12.8331 13.6395 12.4477 13.4815 12.0278C13.3272 11.6171 13.0327 11.3393 12.5745 11.2823C11.992 11.2093 11.4077 11.2664 10.8242 11.2486C10.2717 11.2318 9.71442 11.3075 9.16839 11.2075C8.18571 11.0279 7.49382 10.4611 7.16377 9.51638C6.83372 8.57356 7.01043 7.70369 7.67428 6.94607C8.17449 6.37458 8.81309 6.09398 9.56856 6.07808C9.90328 6.07153 10.2389 6.07808 10.5737 6.07434C10.6326 6.07434 10.7111 6.10427 10.7466 6.0416C10.7831 5.97706 10.713 5.92842 10.6784 5.88072C10.2978 5.34571 9.9678 4.78077 9.69291 4.18496C9.35632 3.45539 9.22916 2.70525 9.49002 1.91583C9.90235 0.672766 11.0486 -0.0801805 12.4268 0.00680583C13.6479 0.0844388 14.7016 1.03006 14.9391 2.25723C15.0999 3.08406 14.8568 3.8314 14.4829 4.5488C13.9574 5.55522 13.2907 6.46531 12.5484 7.32208C12.4212 7.46892 12.2716 7.5185 12.0753 7.5185C11.1805 7.5185 10.2829 7.45677 9.39091 7.5503C8.86919 7.60455 8.4447 8.12647 8.44657 8.66709C8.44844 9.20865 8.87199 9.71186 9.39465 9.78201C9.99959 9.86339 10.6083 9.80165 11.2151 9.82036C11.7676 9.8372 12.3249 9.75863 12.8709 9.86713C13.8405 10.0598 14.5212 10.6266 14.8438 11.5648C15.1654 12.501 14.9906 13.3634 14.3361 14.1154C13.8256 14.7019 13.172 14.9881 12.3978 14.9909C11.0888 14.9956 9.77987 14.9918 8.47088 14.9928V14.9918ZM13.5553 2.82123C13.5581 2.029 12.8027 1.35837 12.0472 1.46032C11.0589 1.59314 10.5456 2.47703 10.9243 3.40301C11.202 4.08394 11.5797 4.70781 12.0276 5.29052C12.1304 5.42334 12.1987 5.44018 12.3081 5.29707C12.7653 4.70126 13.1458 4.06243 13.4319 3.36747C13.5067 3.18508 13.5301 2.9924 13.5553 2.82123Z" fill="#363740"/>
<path id="Vector_2" d="M5.63915 10.2738C5.62699 10.9631 5.38296 11.5814 5.03982 12.166C4.5209 13.0499 3.89353 13.8524 3.19603 14.6007C2.96134 14.8523 2.69955 14.8644 2.46674 14.61C1.66358 13.7364 0.913721 12.8207 0.383583 11.7488C0.0123934 10.9987 -0.13066 10.2205 0.142357 9.39645C0.554686 8.15151 1.70285 7.3995 3.07915 7.48742C4.29931 7.56599 5.35304 8.51068 5.59053 9.73878C5.62419 9.91556 5.6485 10.0923 5.64008 10.2738H5.63915ZM2.82577 8.9241C1.94782 8.91662 1.24938 9.76964 1.49528 10.6086C1.73184 11.413 2.25169 12.0696 2.74162 12.7347C2.80053 12.8151 2.85569 12.7955 2.90805 12.7244C3.38022 12.0846 3.86548 11.4476 4.12447 10.6853C4.41525 9.82576 3.74206 8.93252 2.82577 8.9241Z" fill="#363740"/>
</g>
<defs>
<clipPath id="clip0_19106_41908">
<rect width="15" height="15" fill="white"/>
</clipPath>
</defs>
</svg>
