<svg width="15" height="12" viewBox="0 0 15 12" fill="none" xmlns="http://www.w3.org/2000/svg">
<g id="Capa_1" clip-path="url(#clip0_19106_41914)">
<path id="Vector" d="M4.88651 0.00151331C5.99715 0.00151331 7.10779 -0.00222967 8.21843 0.00301051C8.99056 0.00600489 9.5837 0.493341 9.73573 1.24493C9.7889 1.50919 9.75894 1.78018 9.7552 2.04743C9.75295 2.20388 9.80613 2.25479 9.9604 2.24955C10.2472 2.24056 10.5341 2.24655 10.8217 2.24955C11.1429 2.25254 11.4215 2.37007 11.647 2.5939C12.3959 3.33576 13.1403 4.08286 13.8847 4.82996C14.1348 5.08074 14.2547 5.38317 14.2532 5.7395C14.2494 6.62509 14.2554 7.51068 14.2487 8.39627C14.2472 8.55572 14.2906 8.61112 14.4569 8.61786C14.7849 8.62984 15.0036 8.87388 14.9998 9.19053C14.9968 9.50494 14.7699 9.74 14.4419 9.75198C14.1925 9.76171 13.9424 9.75947 13.693 9.75348C13.5642 9.75048 13.5073 9.78267 13.4968 9.92715C13.4084 11.1137 12.446 11.9978 11.2515 12C10.0465 12.0023 9.08717 11.1234 8.99281 9.92191C8.98232 9.79016 8.93439 9.75348 8.81007 9.75348C7.93684 9.75722 7.06285 9.75722 6.18887 9.75348C6.0623 9.75348 6.01812 9.79315 6.00838 9.92341C5.91552 11.1227 4.95316 12.003 3.74741 12C2.55364 11.997 1.59054 11.1099 1.50366 9.92565C1.49468 9.79914 1.44974 9.76096 1.32917 9.7415C0.497124 9.60526 0.000593484 9.01536 -0.000155431 8.17095C-0.000155431 5.97531 -0.000904345 3.77968 -0.000155431 1.58405C0.000593484 0.649798 0.640166 0.0045077 1.57331 0.00151331C2.67796 -0.00148107 3.78261 0.000764717 4.88651 0.00151331ZM1.14568 4.85916C1.14568 5.93189 1.14568 7.00463 1.14568 8.07737C1.14568 8.14624 1.14194 8.21586 1.15392 8.28249C1.18388 8.45317 1.27899 8.5662 1.45798 8.59091C1.62274 8.61411 1.77627 8.65154 1.89909 8.4629C2.75285 7.15061 4.75395 7.1536 5.61071 8.45766C5.6841 8.5692 5.76573 8.61411 5.90054 8.61262C6.63672 8.60663 7.3729 8.61112 8.10909 8.60887C8.48954 8.60813 8.61236 8.48236 8.61236 8.10133C8.61236 5.95585 8.61236 3.81037 8.61236 1.66489C8.61236 1.27038 8.49253 1.14612 8.1016 1.14612C5.95521 1.14537 3.80882 1.14537 1.66243 1.14612C1.26701 1.14612 1.14568 1.26889 1.14568 1.65891C1.14568 2.72566 1.14568 3.79166 1.14568 4.85841V4.85916ZM13.001 5.61524C12.9793 5.57332 12.974 5.5546 12.962 5.54262C12.279 4.85841 11.5953 4.17569 10.9123 3.49222C10.8471 3.42709 10.767 3.3949 10.6764 3.39415C10.421 3.39191 10.1649 3.39565 9.90948 3.39116C9.79489 3.38891 9.75745 3.43907 9.75745 3.54836C9.75969 4.18392 9.75969 4.82023 9.75745 5.45653C9.75745 5.56358 9.7889 5.61673 9.90648 5.61673C10.9287 5.61449 11.9518 5.61524 13.001 5.61524ZM11.2485 10.8449C11.8574 10.8397 12.3637 10.3329 12.3554 9.73551C12.3472 9.13738 11.8544 8.65005 11.2508 8.64331C10.6509 8.63582 10.1356 9.14337 10.1349 9.743C10.1342 10.3426 10.6472 10.8494 11.2493 10.8449H11.2485ZM4.86404 9.74449C4.86404 9.14113 4.35553 8.63732 3.75116 8.64331C3.14678 8.6493 2.65849 9.13139 2.64726 9.73476C2.63602 10.3314 3.14004 10.8389 3.75116 10.8457C4.35553 10.8524 4.86404 10.3486 4.86479 9.74449H4.86404Z" fill="#363740"/>
</g>
<defs>
<clipPath id="clip0_19106_41914">
<rect width="15" height="12" fill="white"/>
</clipPath>
</defs>
</svg>
