<svg width="17" height="17" viewBox="0 0 17 17" fill="none" xmlns="http://www.w3.org/2000/svg">
<g id="Group 9894">
<path id="Vector" d="M9.13606 8.46864C9.58192 8.17721 10.0762 8.06827 10.6118 8.1051C11.1686 8.1435 11.6496 8.35193 12.0408 8.73664C13.2472 9.92214 14.4411 11.1201 15.6389 12.3142C16.1136 12.7875 16.1191 13.3125 15.653 13.7896C15.0439 14.4134 14.4325 15.0355 13.8211 15.656C13.362 16.1222 12.8591 16.1097 12.3976 15.6443C11.2303 14.4651 10.059 13.2905 8.88464 12.1191C8.45049 11.6859 8.17871 11.1805 8.10923 10.5639C8.05535 10.0827 8.17092 9.6455 8.40749 9.2365C8.47621 9.11821 8.47078 9.05471 8.37314 8.95757C7.60637 8.19757 6.84817 7.42812 6.0806 6.66888C6.01579 6.60463 5.90335 6.5584 5.81199 6.55761C5.2084 6.54821 4.60403 6.55605 4.00044 6.54821C3.92235 6.54743 3.81537 6.5106 3.77086 6.45262C2.8604 5.25616 1.95775 4.05501 1.08398 2.89537L2.88383 1C2.95254 1.04623 3.00096 1.076 3.04624 1.1097C4.18627 1.97315 5.32474 2.83817 6.46712 3.69849C6.57254 3.77841 6.60923 3.86304 6.60767 3.99232C6.60142 4.59173 6.60142 5.19113 6.60923 5.79054C6.61001 5.87202 6.64046 5.97545 6.69512 6.03108C7.48534 6.83264 8.28099 7.62793 9.07671 8.42479C9.08999 8.43807 9.10714 8.44829 9.13606 8.46864ZM15.0431 13.0601C15.04 13.0539 15.0353 13.0406 15.0267 13.032C13.8016 11.8112 12.5835 10.5842 11.3481 9.37364C10.8211 8.85729 9.91614 8.9145 9.42028 9.45907C8.88464 10.0467 8.89714 10.8491 9.46164 11.4226C10.6329 12.6136 11.8096 13.7999 12.9849 14.9876C13.0114 15.0143 13.0419 15.0363 13.0566 15.0496C13.7211 14.3836 14.3763 13.7277 15.0431 13.0601ZM2.24119 2.94239C2.92365 3.84189 3.58346 4.71239 4.2464 5.58055C4.27373 5.61659 4.32839 5.65341 4.37134 5.6542C4.79221 5.65969 5.21309 5.65734 5.64801 5.65734C5.65348 5.5829 5.66129 5.5257 5.66129 5.46929C5.66207 5.12374 5.67066 4.77821 5.65582 4.43345C5.65191 4.34569 5.5957 4.23521 5.52699 4.18037C5.09986 3.84031 4.66259 3.5128 4.22844 3.18214C3.81069 2.86325 3.39216 2.54435 3.01266 2.25522L2.23963 2.94239H2.24119Z" fill="#363740" stroke="#363740" stroke-width="0.3"/>
<path id="Vector_2" d="M15.0109 4.82525C14.9289 4.90282 14.8781 4.94747 14.8305 4.99527C14.2566 5.57117 13.6811 6.1455 13.1096 6.72453C13.0268 6.80837 12.9549 6.84912 12.8253 6.82561C12.1171 6.69711 11.4057 6.58585 10.6983 6.45813C10.6389 6.44716 10.5585 6.36489 10.5476 6.30534C10.4204 5.59467 10.3086 4.88166 10.1821 4.17021C10.1611 4.05111 10.1884 3.97981 10.2696 3.8991C10.8466 3.32634 11.4182 2.74809 11.9945 2.17455C12.0445 2.12518 12.114 2.09462 12.1577 2.03037C11.8211 1.89874 11.5002 1.90892 11.1832 1.94654C10.0885 2.07425 9.25529 2.62586 8.65486 3.54573C8.48465 3.80665 8.23707 3.86777 7.98644 3.71341C7.75687 3.57237 7.7069 3.32791 7.87009 3.06856C8.63686 1.8486 9.73472 1.1489 11.1691 1.03607C11.615 1.00081 12.0741 1.05879 12.52 1.12382C12.9698 1.18964 13.2244 1.5007 13.2376 1.89404C13.2454 2.1338 13.1439 2.31872 12.9799 2.48169C12.4044 3.05602 11.8336 3.63505 11.2551 4.20625C11.1645 4.29557 11.1387 4.38098 11.1621 4.50007C11.2277 4.83151 11.2816 5.16608 11.3542 5.49595C11.3675 5.55628 11.444 5.63385 11.5041 5.64717C11.8329 5.72082 12.1663 5.77175 12.4966 5.8407C12.6278 5.86813 12.7129 5.82503 12.8034 5.73258C13.3649 5.16217 13.9302 4.59645 14.4964 4.03074C14.9844 3.5426 15.6739 3.73143 15.8495 4.40135C16.3134 6.16587 15.5856 7.89357 14.266 8.9443C14.045 9.12059 13.6983 9.08844 13.5437 8.89102C13.3719 8.6708 13.4274 8.40837 13.6897 8.19602C14.6072 7.454 15.0765 6.49731 15.0578 5.30947C15.0554 5.16294 15.0312 5.01721 15.0124 4.82367L15.0109 4.82525Z" fill="#363740" stroke="#363740" stroke-width="0.3"/>
<path id="Vector_3" d="M3.18276 15.984C2.22545 15.9346 1.51723 15.495 1.16975 14.587C0.823056 13.6812 1.01202 12.853 1.69448 12.1619C2.96413 10.8753 4.24471 9.59895 5.52139 8.31867C5.83061 8.00837 6.2546 8.05303 6.385 8.40795C6.46699 8.63131 6.38422 8.81224 6.22493 8.97131C5.59557 9.60131 4.96699 10.2328 4.33763 10.8644C3.67626 11.528 3.01254 12.1877 2.35585 12.8553C1.78661 13.4336 1.82644 14.2524 2.44096 14.7805C2.91884 15.191 3.7153 15.1409 4.1963 14.6606C5.06616 13.7925 5.93211 12.9196 6.79963 12.0498C7.00577 11.843 7.23456 11.796 7.42821 11.9159C7.66793 12.0647 7.70541 12.4165 7.49692 12.6461C7.35246 12.8044 7.19396 12.9501 7.04247 13.1014C6.2913 13.8488 5.54013 14.5971 4.78818 15.3438C4.36574 15.763 3.75278 16.0059 3.18433 15.9832L3.18276 15.984Z" fill="#363740" stroke="#363740" stroke-width="0.3"/>
<path id="Vector_4" d="M3.77015 13.6576C3.77015 13.8973 3.57806 14.0878 3.33443 14.0893C3.10643 14.0909 2.88545 13.8801 2.88623 13.6615C2.88623 13.4405 3.0994 13.2392 3.336 13.2345C3.58587 13.2298 3.77015 13.41 3.77015 13.6584V13.6576Z" fill="#363740" stroke="#363740" stroke-width="0.3"/>
</g>
</svg>
