<svg width="15" height="13" viewBox="0 0 15 13" fill="none" xmlns="http://www.w3.org/2000/svg">
<g id="Capa_1" clip-path="url(#clip0_19106_41922)">
<path id="Vector" d="M14.9992 3.81583C14.9992 3.69077 14.9958 3.54514 14.9591 3.39374C14.7223 2.41792 13.9492 1.80906 12.9418 1.80412C11.4825 1.79837 10.0022 1.80083 8.69711 1.80412H8.69378C8.35353 1.80412 8.09918 1.7021 7.8932 1.48242C7.59215 1.16071 7.27025 0.852163 6.96753 0.565834C6.57392 0.192289 6.11775 0.00304892 5.61489 0.00304892C5.22544 0.00304892 4.83599 0.00304892 4.44738 0.00140335C3.64847 -0.000242223 2.82204 -0.00188779 2.00895 0.00551727C0.865625 0.0170363 0.00250181 0.881783 0.00166787 2.01723C0 4.34488 0 6.67254 0 9.00102V10.9765C0 11.1156 0.00333574 11.253 0.0375271 11.3978C0.271029 12.3818 1.04992 12.9948 2.06983 12.9973C3.35242 13.0006 4.63585 12.9998 5.91844 12.9989H7.50042C8.05081 12.9989 8.59788 12.9989 9.14661 12.9989C9.65781 12.9989 10.1765 12.9998 10.6977 12.9998C11.4483 12.9998 12.2046 12.9989 12.9535 12.9956C14.1177 12.9907 14.9958 12.121 14.9975 10.9732C14.9992 9.16558 14.9992 7.35792 14.9983 5.55026V3.81501L14.9992 3.81583ZM8.51031 11.7105H6.04854C5.84005 11.7105 5.6324 11.7105 5.42392 11.7105V10.8564C5.49814 10.2368 5.8609 9.86742 6.47885 9.78925C7.04926 9.71685 7.66554 9.71273 8.42025 9.77526C9.11158 9.83286 9.49019 10.1834 9.57692 10.8457V11.7105C9.22166 11.7105 8.86557 11.7105 8.51031 11.7105ZM13.6949 7.02552C13.6949 8.34362 13.6949 9.66254 13.6941 10.9806C13.6941 11.369 13.4706 11.6257 13.0811 11.6841C12.9727 11.7006 12.8526 11.7088 12.7234 11.7088C12.1146 11.7088 11.5066 11.7088 10.8979 11.7088L10.8895 10.7733C10.8512 9.55393 9.8371 8.53121 8.59037 8.47526C8.34019 8.46374 8.08918 8.46704 7.84483 8.47033C7.73309 8.47197 7.62217 8.4728 7.51042 8.4728H7.50709C7.39367 8.4728 7.28109 8.47115 7.16768 8.47033C6.91916 8.46704 6.66231 8.46457 6.40796 8.47609C5.1629 8.53286 4.14049 9.57039 4.10963 10.7741L4.10296 11.7096C3.47084 11.7096 2.83955 11.7096 2.20743 11.7096C1.83883 11.7096 1.57781 11.6545 1.42103 11.3813C1.34264 11.2448 1.30594 11.1172 1.30594 10.979C1.30594 9.66748 1.30594 8.35596 1.30594 7.04526C1.30594 5.3709 1.30594 3.69653 1.30761 2.02216C1.30761 1.5721 1.57864 1.30881 2.05148 1.29976C2.57353 1.28988 3.09974 1.28659 3.62428 1.28659C4.14883 1.28659 4.7009 1.28988 5.22878 1.29318L5.53733 1.29482C5.77334 1.29647 5.97515 1.38697 6.15445 1.5721C6.38795 1.81482 6.63229 2.05261 6.86913 2.28299L7.07594 2.48457C7.48874 2.88938 7.9816 3.09096 8.53116 3.09178C10.0673 3.08685 11.5609 3.08931 12.8184 3.09178C13.2404 3.09261 13.4572 3.18969 13.5915 3.43653C13.6632 3.56818 13.6966 3.69077 13.6966 3.82324C13.6966 4.89039 13.6966 5.95754 13.6966 7.02552H13.6949Z" fill="#363740"/>
<path id="Vector_2" d="M7.52216 3.96762C7.51715 3.96762 7.51215 3.96762 7.50714 3.96762C6.96675 3.96762 6.45889 4.17332 6.07528 4.54851C5.6925 4.92205 5.48068 5.41819 5.47901 5.94559C5.47568 7.04977 6.378 7.95072 7.49047 7.95401H7.49714C8.60794 7.95401 9.51526 7.07281 9.52193 5.98756C9.5286 4.88091 8.63129 3.97502 7.52216 3.9668V3.96762ZM8.01418 6.45654C7.88158 6.58654 7.70229 6.65977 7.49881 6.65813C7.09018 6.6573 6.78329 6.35699 6.78329 5.9604C6.78329 5.76787 6.85584 5.5918 6.9876 5.46427C7.11936 5.33591 7.30116 5.26597 7.49881 5.26597H7.50047C7.9091 5.2668 8.21599 5.56711 8.21516 5.9637C8.21516 6.15458 8.14344 6.32983 8.01251 6.45737L8.01418 6.45654Z" fill="#363740"/>
</g>
<defs>
<clipPath id="clip0_19106_41922">
<rect width="15" height="13" fill="white"/>
</clipPath>
</defs>
</svg>
