<svg width="15" height="12" viewBox="0 0 15 12" fill="none" xmlns="http://www.w3.org/2000/svg">
<g id="Capa_1" clip-path="url(#clip0_19106_41928)">
<path id="Vector" d="M5.2582 11.9901C3.77391 11.9901 2.28963 11.9759 0.806099 11.9984C0.335291 12.0059 -0.0180025 11.6305 0.000710059 11.1804C0.0912789 9.02398 1.64966 7.34313 3.64143 7.15396C4.79263 7.04405 5.96553 6.99769 7.11074 7.18985C8.91388 7.49193 10.217 8.90734 10.467 10.7161C10.491 10.8888 10.5089 11.0615 10.5082 11.2365C10.5067 11.6903 10.2185 11.9894 9.76568 11.9894C8.26269 11.9916 6.76044 11.9894 5.25745 11.9901H5.2582ZM5.2582 10.8462C5.78215 10.8462 6.30535 10.8462 6.8293 10.8462C7.60251 10.8462 8.37496 10.8462 9.14817 10.8462C9.23574 10.8462 9.31882 10.8648 9.29787 10.7138C9.1302 9.52944 7.91538 8.37123 6.72825 8.28898C5.80161 8.22543 4.87272 8.22618 3.94532 8.28151C2.6549 8.35852 1.48799 9.37017 1.22526 10.6286C1.18035 10.8447 1.18035 10.8462 1.40565 10.8462C2.69008 10.8462 3.97376 10.8462 5.2582 10.8462Z" fill="#363740"/>
<path id="Vector_2" d="M10.1158 6.00112C9.46612 6.01009 8.89576 5.79849 8.3995 5.37753C8.29246 5.28706 8.26252 5.22051 8.34785 5.08443C9.07839 3.92024 9.1989 2.70147 8.63228 1.43635C8.56118 1.27709 8.6248 1.21428 8.74231 1.14026C9.76776 0.492738 11.1607 0.660225 12.005 1.54477C12.7498 2.32538 12.9504 3.24955 12.6008 4.25671C12.2603 5.23771 11.5342 5.80746 10.5073 5.98691C10.4706 5.99364 10.4332 5.99962 10.3958 6.00112C10.3022 6.00336 10.2086 6.00112 10.1151 6.00112H10.1158Z" fill="#363740"/>
<path id="Vector_3" d="M8.2625 3.01479C8.31639 4.54236 6.97657 6.01609 5.25501 6.01535C3.53795 6.0146 2.23106 4.53787 2.2393 2.99086C2.24753 1.47076 3.54094 -0.00596357 5.26924 1.81107e-05C6.98031 0.00599979 8.32388 1.47749 8.2625 3.01479ZM3.39798 2.99086C3.38301 3.98382 4.23855 4.86387 5.25052 4.8564C6.22657 4.84892 7.08585 4.11317 7.11504 3.02376C7.14124 2.0308 6.27672 1.15074 5.26549 1.15822C4.28945 1.1657 3.43765 1.90219 3.39873 2.99086H3.39798Z" fill="#363740"/>
<path id="Vector_4" d="M12.7844 11.9909C12.2672 11.9909 11.75 11.9924 11.232 11.9894C11.1624 11.9894 11.0314 12.0163 11.0958 11.8742C11.3271 11.3643 11.2403 10.8439 11.131 10.334C10.9057 9.28269 10.4049 8.3802 9.5973 7.65642C9.55913 7.62202 9.49101 7.59286 9.51946 7.52407C9.53892 7.47697 9.59506 7.48594 9.63622 7.48594C10.3151 7.49267 10.997 7.43136 11.6722 7.51585C13.3376 7.72446 14.5591 8.85126 14.9177 10.4858C14.9723 10.7355 15.0015 10.9882 14.9985 11.2454C14.9933 11.6843 14.7013 11.9857 14.2605 11.9886C13.768 11.9924 13.2754 11.9894 12.7829 11.9901L12.7844 11.9909Z" fill="#363740"/>
</g>
<defs>
<clipPath id="clip0_19106_41928">
<rect width="15" height="12" fill="white"/>
</clipPath>
</defs>
</svg>
