<svg width="15" height="17" viewBox="0 0 15 17" fill="none" xmlns="http://www.w3.org/2000/svg">
<g clip-path="url(#clip0_18995_48291)">
<path d="M6.4338 1.62664C6.4338 1.44196 6.43291 1.23686 6.4338 1.03177C6.43738 0.436008 6.89881 -0.00615036 7.50958 6.47106e-05C8.1123 0.00627978 8.56031 0.443111 8.56389 1.03088C8.56478 1.23598 8.56389 1.44107 8.56389 1.62575C8.97077 1.75449 9.36602 1.83973 9.72819 2.00043C11.5194 2.79685 12.5701 4.16061 12.8035 6.10504C12.8643 6.60846 12.8464 7.12165 12.8455 7.6304C12.8446 9.20725 13.3284 10.6163 14.2978 11.8629C14.4569 12.0671 14.6179 12.2704 14.7807 12.4719C14.9863 12.7268 15.0722 13.0073 14.9327 13.3163C14.7878 13.6377 14.5124 13.7798 14.169 13.8064C14.1171 13.8108 14.0653 13.8082 14.0125 13.8082C9.66917 13.8082 5.32673 13.8082 0.983405 13.8064C0.865365 13.8064 0.745537 13.7949 0.63018 13.77C0.0802213 13.6519 -0.171955 13.0713 0.127616 12.6007C0.242079 12.4204 0.382475 12.2553 0.519294 12.0902C1.64425 10.737 2.19421 9.18772 2.1495 7.43063C2.12982 6.64753 2.12982 5.86177 2.39273 5.10974C3.0178 3.31803 4.2599 2.18955 6.11277 1.72608C6.20667 1.703 6.30056 1.68257 6.39446 1.66038C6.40072 1.6586 6.40519 1.65061 6.43291 1.62575L6.4338 1.62664ZM12.5772 12.2127C12.537 12.1408 12.512 12.0893 12.4816 12.0413C11.8636 11.0567 11.4487 9.9939 11.3378 8.8379C11.2654 8.08321 11.2895 7.32053 11.2502 6.5623C11.1742 5.1275 10.5133 4.0665 9.17465 3.46364C8.51202 3.16531 7.80468 3.14756 7.09644 3.18396C5.39827 3.27097 4.13203 4.32487 3.82262 5.97364C3.71621 6.5401 3.75108 7.13408 3.7475 7.71652C3.73677 9.25697 3.35672 10.6918 2.53849 12.0058C2.50093 12.0662 2.46785 12.1301 2.42134 12.2127H12.5772Z" fill="#3B4FFF"/>
<path d="M5.37012 14.8945H9.60882C9.70271 15.7069 8.9131 16.9428 7.55296 16.9988C6.42085 17.0458 5.34329 16.0337 5.37101 14.8945H5.37012Z" fill="#3B4FFF"/>
</g>
<defs>
<clipPath id="clip0_18995_48291">
<rect width="15" height="17" fill="white"/>
</clipPath>
</defs>
</svg>
