<svg width="91" height="91" viewBox="0 0 91 91" fill="none" xmlns="http://www.w3.org/2000/svg">
<path d="M45.5 60.668C51.7822 60.668 56.875 55.5752 56.875 49.293C56.875 43.0107 51.7822 37.918 45.5 37.918C39.2178 37.918 34.125 43.0107 34.125 49.293C34.125 55.5752 39.2178 60.668 45.5 60.668Z" stroke="#DFE1E8" stroke-width="2" stroke-linecap="round" stroke-linejoin="round"/>
<path d="M75.8333 26.543H15.1667C13.0726 26.543 11.375 28.2406 11.375 30.3346V68.2513C11.375 70.3454 13.0726 72.043 15.1667 72.043H75.8333C77.9274 72.043 79.625 70.3454 79.625 68.2513V30.3346C79.625 28.2406 77.9274 26.543 75.8333 26.543Z" stroke="#DFE1E8" stroke-width="2" stroke-linecap="round" stroke-linejoin="round"/>
<path d="M54.142 15.168H36.8578C35.2257 15.168 33.7768 16.2123 33.2607 17.7606L31.9968 21.5523C31.1784 24.0075 33.0059 26.543 35.5939 26.543H55.4059C57.9939 26.543 59.8214 24.0075 59.003 21.5523L57.7391 17.7606C57.223 16.2123 55.7741 15.168 54.142 15.168Z" stroke="#DFE1E8" stroke-width="2" stroke-linecap="round" stroke-linejoin="round"/>
</svg>
