<svg width="149" height="175" viewBox="0 0 149 175" fill="none" xmlns="http://www.w3.org/2000/svg">
<g clip-path="url(#clip0_2705_681)">
<path d="M97.0677 77.7513C98.726 77.7513 100.154 77.7513 101.581 77.7513C104.912 77.7948 107.008 79.6335 107.032 82.9103C107.115 92.6685 107.115 102.425 107.032 112.18C107.008 115.336 105.027 117.228 101.879 117.233C85.3316 117.271 68.7808 117.271 52.2268 117.233C48.8094 117.233 46.9396 115.167 46.9059 111.557C46.8723 103.908 46.9059 96.2638 46.9059 88.6146C46.9059 86.8097 46.8627 85 46.9059 83.1951C47.0117 79.7059 48.992 77.7851 52.4816 77.7465C53.9236 77.7465 55.3319 77.7465 56.9325 77.7465C56.9325 73.6106 56.8845 69.6485 56.9325 65.6815C57.0335 59.0892 59.4944 53.5538 64.7673 49.5676C71.2706 44.6547 78.4469 43.8391 85.7577 47.42C93.232 51.0781 96.8418 57.4388 97.0485 65.7298C97.1734 69.6582 97.0677 73.572 97.0677 77.7513ZM51.9913 82.8765V112.132H102.028V82.8765H51.9913ZM92.0544 77.6983C92.0544 73.2342 92.2563 68.9053 92.0063 64.6053C91.8356 60.9007 90.3043 57.3908 87.7081 54.7529C85.1118 52.115 81.6345 50.5359 77.947 50.3204C74.2004 50.0704 70.4979 51.2499 67.5802 53.6228C64.6624 55.9958 62.7446 59.3873 62.2102 63.1189C61.8208 65.5898 61.9891 68.1524 61.9506 70.6764C61.917 72.9977 61.9506 75.319 61.9506 77.6934L92.0544 77.6983Z" fill="#FF8D24"/>
<path d="M51.9922 153.51C58.5856 155.837 65.505 157.099 72.4923 157.25C107.1 157.868 135.94 134.766 142.669 100.68C146.384 81.7957 142.501 64.2243 131.926 48.1634C130.364 45.7939 130.297 44.4764 131.777 43.4677C133.257 42.4591 134.478 43.0527 136.069 45.3981C166.125 89.5801 141.092 150.682 88.7579 160.923C76.052 163.445 62.9085 162.561 50.6511 158.36C50.3243 158.249 49.9878 158.167 49.3533 157.984L53.4341 168.91C53.7754 169.807 54.1407 170.7 54.4243 171.617C54.8809 173.089 54.2993 174.44 52.9823 174.855C51.4923 175.338 50.3483 174.773 49.7763 173.335C48.69 170.599 47.6951 167.829 46.652 165.078C45.351 161.651 44.0468 158.227 42.7394 154.803C42.0136 152.897 42.5424 151.613 44.3785 150.942C50.3675 148.669 56.3662 146.43 62.3504 144.143C63.6914 143.631 64.9315 143.457 65.9217 144.736C66.984 146.112 66.4024 147.897 64.5566 148.631C60.9949 150.05 57.3996 151.372 53.8187 152.743C53.2995 152.907 52.7852 153.162 51.9922 153.51Z" fill="#FF8D24"/>
<path d="M96.9239 21.0172C92.0693 20.0521 87.253 18.8166 82.3599 18.1892C71.6652 16.8235 61.2108 18.1892 51.0497 21.7798C49.2136 22.4313 47.8677 21.8908 47.339 20.414C46.8103 18.9372 47.6178 17.7163 49.4635 17.0648C65.5047 11.4023 81.6117 11.1931 97.7843 16.4374L99.5435 17.0069C99.3561 16.3795 99.2407 15.8969 99.0629 15.4336C97.6209 11.6114 96.1789 7.79886 94.7369 3.97185C94.0592 2.14763 94.5447 0.738445 95.9722 0.183456C97.3998 -0.371532 98.6687 0.337887 99.3849 2.19589C101.702 8.2509 104.006 14.314 106.297 20.385C106.97 22.1803 106.417 23.4109 104.59 24.1107C98.5534 26.4272 92.5083 28.7211 86.4551 30.9926C84.6334 31.6779 83.2443 31.1325 82.7348 29.6461C82.2253 28.1597 82.9031 27.0063 84.8113 26.2679C88.82 24.7188 92.8383 23.1938 96.8518 21.6543L96.9239 21.0172Z" fill="#FF8D24"/>
<path d="M0.000303383 87.6205C-0.017004 81.6021 0.706265 75.6046 2.15367 69.7643C2.67278 67.6698 3.73985 66.6901 5.23471 67.0087C6.85934 67.3513 7.4938 68.7267 6.9843 70.8695C3.61968 85.0868 4.41759 99.0436 9.71447 112.677C10.8873 115.688 12.411 118.565 13.8241 121.48C14.7854 123.41 14.5884 124.785 13.1704 125.553C11.7525 126.32 10.4883 125.755 9.42607 123.859C3.24665 112.789 0.00113836 100.311 0.000303383 87.6205V87.6205Z" fill="#FF8D24"/>
<path d="M35.9373 28.3863C35.2644 29.2647 34.8366 30.0658 34.1925 30.616C32.5054 32.0638 30.7269 33.3909 28.9725 34.747C27.6267 35.7942 26.2232 35.7508 25.2907 34.6698C24.3582 33.5888 24.4687 32.0831 25.7425 31.0165C27.6022 29.4045 29.5452 27.8919 31.5633 26.4849C31.9664 26.2661 32.4104 26.1338 32.8672 26.0964C33.3239 26.059 33.7834 26.1174 34.2165 26.2677C34.8991 26.5428 35.2932 27.5418 35.9373 28.3863Z" fill="#FF8D24"/>
<path d="M12.0265 54.7507C9.84431 54.6928 8.57056 53.0037 9.36845 51.4691C10.6615 49.0361 12.1063 46.6876 13.6944 44.4376C14.4731 43.318 15.7805 43.2601 16.9052 44.0564C18.03 44.8526 18.3472 45.9868 17.655 47.2222C16.3813 49.3939 15.0739 51.5656 13.6511 53.6263C13.2378 54.2344 12.3678 54.5336 12.0265 54.7507Z" fill="#FF8D24"/>
<path d="M74.5153 97.4366C74.5153 96.4714 74.4721 95.5062 74.5153 94.541C74.6018 93.0932 75.3709 92.1666 76.8561 92.0894C78.3414 92.0122 79.3267 92.8519 79.4229 94.2804C79.5743 96.4349 79.5743 98.5975 79.4229 100.752C79.4171 101.073 79.3436 101.389 79.2071 101.679C79.0707 101.969 78.8745 102.227 78.6314 102.436C78.3884 102.644 78.104 102.799 77.7972 102.888C77.4903 102.978 77.1679 103.002 76.8513 102.958C75.4094 102.866 74.5922 101.944 74.5153 100.477C74.4721 99.4731 74.5153 98.45 74.5153 97.4366Z" fill="#FF8D24"/>
</g>
<defs>
<clipPath id="clip0_2705_681">
<rect width="149" height="175" fill="white"/>
</clipPath>
</defs>
</svg>
