<svg id="e015736a-e95e-45d2-9a07-119a88f66a5d" data-name="Capa 1" xmlns="http://www.w3.org/2000/svg" viewBox="0 0 134.3 26.57"><path d="M43.29,21.21a7.35,7.35,0,0,0,7.63-7.73,7.33,7.33,0,0,0-7.63-7.69,6.21,6.21,0,0,0-5,2.13l-.23.28V6H34.93V26.57h3.32V18.93l.23.26A6.18,6.18,0,0,0,43.29,21.21ZM38.2,13.48a4.68,4.68,0,1,1,9.34,0,4.68,4.68,0,1,1-9.34,0Z" style="fill:#24397c"/><path d="M61.34,5.79c-4.64,0-8,3.24-8,7.69s3.37,7.73,8,7.73A8.26,8.26,0,0,0,67.12,19a7.58,7.58,0,0,0,2.26-5.56A7.53,7.53,0,0,0,67.12,8,8.28,8.28,0,0,0,61.34,5.79Zm0,12.61a4.59,4.59,0,0,1-4.66-4.92,4.68,4.68,0,1,1,9.35,0A4.6,4.6,0,0,1,61.34,18.4Z" style="fill:#24397c"/><rect x="73.08" width="3.32" height="21.01" style="fill:#24397c"/><path d="M89.72,21.21a7.35,7.35,0,0,0,7.64-7.73,7.33,7.33,0,0,0-7.64-7.69,6.19,6.19,0,0,0-5,2.13l-.23.28V6H81.37V26.57h3.32V18.93l.23.26A6.17,6.17,0,0,0,89.72,21.21Zm-5.09-7.73a4.68,4.68,0,1,1,9.35,0,4.68,4.68,0,1,1-9.35,0Z" style="fill:#24397c"/><path d="M113.56,8a8.29,8.29,0,0,0-5.78-2.16c-4.64,0-8,3.24-8,7.69s3.37,7.73,8,7.73A8.26,8.26,0,0,0,113.56,19a7.62,7.62,0,0,0,2.26-5.56A7.57,7.57,0,0,0,113.56,8ZM107.78,18.4a4.58,4.58,0,0,1-4.66-4.92,4.68,4.68,0,1,1,9.35,0A4.6,4.6,0,0,1,107.78,18.4Z" style="fill:#24397c"/><path d="M126.27,5.79c-4.65,0-8,3.24-8,7.69s3.36,7.73,8,7.73A8.23,8.23,0,0,0,132,19a7.58,7.58,0,0,0,2.26-5.56A7.53,7.53,0,0,0,132,8,8.25,8.25,0,0,0,126.27,5.79Zm0,12.61a4.58,4.58,0,0,1-4.66-4.92,4.68,4.68,0,1,1,9.34,0A4.59,4.59,0,0,1,126.27,18.4Z" style="fill:#24397c"/><path d="M14,17.3l.24-.25,2.13-2.13c.36-.37.8-.78,1.24-1.23,2-2.12,3.06-3.89,3.06-5.5a6.66,6.66,0,0,0-13.32,0c0,1.47.83,3.11,2.54,5ZM14,4.42a3.77,3.77,0,0,1,3.77,3.77,2.72,2.72,0,0,1-.34,1.15,9.35,9.35,0,0,1-.91,1.46,18.58,18.58,0,0,1-1.25,1.52c-.42.45-.86.87-1.27,1.23a14.56,14.56,0,0,1-1.27-1.23,16.88,16.88,0,0,1-1.26-1.52,10.17,10.17,0,0,1-.91-1.46,2.87,2.87,0,0,1-.34-1.15A3.77,3.77,0,0,1,14,4.42Z" style="fill:#24397c"/><polygon points="17.02 20.3 25.35 11.97 23.7 9.84 15.13 18.41 17.02 20.3" style="fill:#24397c"/><polygon points="26.36 13.27 18.17 21.42 20.07 23.31 27.99 15.38 26.36 13.27" style="fill:#24397c"/><polygon points="2.64 11.98 13.97 23.31 17.76 23.31 4.29 9.85 2.64 11.98" style="fill:#24397c"/><polygon points="0 15.39 7.92 23.31 11.7 23.31 1.65 13.26 0 15.39" style="fill:#24397c"/></svg>