<svg width="54" height="51" viewBox="0 0 54 51" fill="none" xmlns="http://www.w3.org/2000/svg">
<path d="M36.8175 7.56934H15.2528C14.5902 7.56934 14.0547 8.07154 14.0547 8.69287C14.0547 9.31419 14.5902 9.81639 15.2528 9.81639H36.8175C37.4801 9.81639 38.0156 9.31419 38.0156 8.69287C38.0156 8.07154 37.4801 7.56934 36.8175 7.56934Z" fill="#3B4FFF"/>
<path d="M24.8379 13.1865H20.0457C19.3832 13.1865 18.8477 13.6887 18.8477 14.3101C18.8477 14.9314 19.3832 15.4336 20.0457 15.4336H24.8379C25.5005 15.4336 26.036 14.9314 26.036 14.3101C26.036 13.6887 25.5005 13.1865 24.8379 13.1865Z" fill="#3B4FFF"/>
<path d="M36.8121 13.1865H29.6239C28.9613 13.1865 28.4258 13.6887 28.4258 14.3101C28.4258 14.9314 28.9613 15.4336 29.6239 15.4336H36.8121C37.4747 15.4336 38.0102 14.9314 38.0102 14.3101C38.0102 13.6887 37.4747 13.1865 36.8121 13.1865Z" fill="#3B4FFF"/>
<path d="M53.2175 28.046C52.5333 27.1708 51.4767 26.6686 50.3194 26.6686H47.5986V23.2981C47.5986 21.4398 45.9861 19.9276 44.0045 19.9276H42.8064V1.95166C42.8064 1.33033 42.2709 0.828125 41.6083 0.828125H10.4593C9.79674 0.828125 9.26121 1.33033 9.26121 1.95166V14.3101H4.46912C2.48753 14.3101 0.875 15.8223 0.875 17.6806V46.8914C0.875 48.7497 2.48753 50.2619 4.46912 50.2619H46.4005C46.4005 50.2619 46.4005 50.2619 46.4018 50.2619C46.5504 50.2619 46.6905 50.2294 46.8246 50.1822C46.8701 50.1665 46.9073 50.1429 46.9504 50.1215C47.0343 50.0799 47.1109 50.0339 47.1817 49.9754C47.2225 49.9429 47.2572 49.9092 47.2931 49.8709C47.3519 49.8081 47.3997 49.7373 47.4428 49.662C47.468 49.617 47.4955 49.5765 47.5147 49.5283C47.5219 49.5103 47.5363 49.4958 47.5422 49.4766L53.748 31.0547C54.0956 30.0177 53.9027 28.9211 53.2175 28.046ZM11.6574 3.07519H40.4104V19.9276H17.6475V17.6807C17.6475 15.8224 16.035 14.3102 14.0534 14.3102H11.6574V3.07519ZM45.2026 27.792V48.015H4.46912C3.80781 48.015 3.27105 47.5116 3.27105 46.8914V17.6806C3.27105 17.0604 3.80781 16.557 4.46912 16.557H14.0534C14.7147 16.557 15.2515 17.0604 15.2515 17.6806V21.0511C15.2515 21.6724 15.787 22.1746 16.4496 22.1746H41.6084H44.0045C44.6658 22.1746 45.2026 22.6779 45.2026 23.2981V27.792ZM51.4635 30.3784L47.5986 41.8515V28.9156H50.3194C50.7039 28.9156 51.0562 29.0819 51.285 29.3739C51.515 29.6672 51.5785 30.0323 51.4635 30.3784Z" fill="#3B4FFF"/>
</svg>
