<svg width="52" height="49" viewBox="0 0 52 49" fill="none" xmlns="http://www.w3.org/2000/svg">
<path d="M46.1974 33.7663C47.1754 32.884 47.8631 31.7261 48.1698 30.4451C48.4764 29.1641 48.3876 27.8203 47.915 26.5908C47.4424 25.3613 46.6083 24.3039 45.5226 23.5581C44.4369 22.8123 43.1507 22.4131 41.8335 22.4131C40.5163 22.4131 39.2301 22.8123 38.1444 23.5581C37.0587 24.3039 36.2246 25.3613 35.752 26.5908C35.2794 27.8203 35.1906 29.1641 35.4973 30.4451C35.8039 31.7261 36.4916 32.884 37.4697 33.7663C36.9659 33.8038 36.4688 33.9036 35.9897 34.0634C35.3619 33.3778 34.6031 32.8251 33.758 32.4379C32.913 32.0507 31.9989 31.8369 31.0698 31.809C32.2406 30.8413 33.0842 29.5358 33.4855 28.0707C33.8868 26.6057 33.8262 25.0525 33.3119 23.6232C32.7977 22.1939 31.8549 20.9581 30.6122 20.0845C29.3695 19.211 27.8875 18.7422 26.3685 18.7422C24.8495 18.7422 23.3675 19.211 22.1248 20.0845C20.8822 20.9581 19.9393 22.1939 19.4251 23.6232C18.9109 25.0525 18.8502 26.6057 19.2515 28.0707C19.6528 29.5358 20.4964 30.8413 21.6673 31.809C20.738 31.8369 19.8238 32.0509 18.9786 32.4382C18.1335 32.8255 17.3746 33.3784 16.7468 34.0641C16.2678 33.904 15.7708 33.804 15.2672 33.7664C16.2452 32.8842 16.9329 31.7262 17.2395 30.4453C17.5462 29.1643 17.4574 27.8205 16.9848 26.591C16.5122 25.3615 15.6781 24.3042 14.5924 23.5584C13.5068 22.8126 12.2206 22.4133 10.9034 22.4133C9.58625 22.4133 8.30003 22.8126 7.21436 23.5584C6.1287 24.3042 5.29458 25.3615 4.82201 26.591C4.34944 27.8205 4.26062 29.1643 4.56726 30.4453C4.8739 31.7262 5.5616 32.8842 6.53966 33.7664C4.99223 33.886 3.5468 34.5847 2.49176 35.723C1.43672 36.8614 0.849646 38.3556 0.847656 39.9076V47.3424C0.847656 47.568 0.937283 47.7844 1.09682 47.9439C1.25636 48.1035 1.47273 48.1931 1.69835 48.1931H51.0387C51.2643 48.1931 51.4807 48.1035 51.6402 47.9439C51.7997 47.7844 51.8894 47.568 51.8894 47.3424V39.9076C51.8874 38.3556 51.3003 36.8613 50.2453 35.723C49.1903 34.5846 47.7448 33.8859 46.1974 33.7663ZM6.08943 28.9327C6.08943 27.9806 6.37176 27.0499 6.90072 26.2583C7.42968 25.4666 8.18151 24.8496 9.06113 24.4853C9.94076 24.1209 10.9087 24.0256 11.8425 24.2114C12.7763 24.3971 13.634 24.8556 14.3073 25.5288C14.9805 26.2021 15.439 27.0598 15.6247 27.9936C15.8104 28.9275 15.7151 29.8954 15.3507 30.775C14.9863 31.6546 14.3693 32.4064 13.5777 32.9354C12.786 33.4643 11.8553 33.7466 10.9032 33.7466C9.62693 33.7451 8.40337 33.2375 7.50093 32.335C6.59848 31.4326 6.09086 30.209 6.08943 28.9327ZM14.9091 38.7739V46.4917H6.79742V41.6778C6.79742 41.4522 6.70779 41.2358 6.54826 41.0763C6.38872 40.9168 6.17234 40.8271 5.94672 40.8271C5.7211 40.8271 5.50473 40.9168 5.34519 41.0763C5.18565 41.2358 5.09603 41.4522 5.09603 41.6778V46.4917H2.54905V39.9076C2.5504 38.7253 3.0207 37.5917 3.85678 36.7556C4.69286 35.9196 5.82644 35.4493 7.00882 35.448H14.7976C15.1031 35.4478 15.4079 35.4789 15.7071 35.5408C15.1821 36.5376 14.9082 37.6473 14.9091 38.7739ZM20.6908 26.1251C20.6907 25.0021 21.0237 23.9044 21.6476 22.9707C22.2714 22.037 23.1582 21.3092 24.1957 20.8795C25.2331 20.4497 26.3747 20.3373 27.4761 20.5563C28.5775 20.7754 29.5892 21.3161 30.3833 22.1102C31.1773 22.9042 31.7181 23.9159 31.9372 25.0173C32.1562 26.1187 32.0438 27.2603 31.6141 28.2978C31.1843 29.3352 30.4566 30.222 29.5229 30.8459C28.5892 31.4698 27.4915 31.8028 26.3685 31.8028C24.8632 31.801 23.4201 31.2023 22.3557 30.1379C21.2913 29.0735 20.6925 27.6304 20.6908 26.1251ZM36.1265 46.4917H32.9316V40.814C32.9316 40.5883 32.842 40.372 32.6825 40.2124C32.5229 40.0529 32.3065 39.9633 32.0809 39.9633C31.8553 39.9633 31.6389 40.0529 31.4794 40.2124C31.3199 40.372 31.2302 40.5883 31.2302 40.814V46.4917H21.5068V40.814C21.5068 40.5883 21.4172 40.372 21.2576 40.2124C21.0981 40.0529 20.8817 39.9633 20.6561 39.9633C20.4305 39.9633 20.2141 40.0529 20.0546 40.2124C19.895 40.372 19.8054 40.5883 19.8054 40.814V46.4917H16.6105V38.7739C16.6121 37.3768 17.1678 36.0373 18.1557 35.0494C19.1437 34.0615 20.4831 33.5058 21.8802 33.5041H30.8568C32.2539 33.5058 33.5934 34.0615 34.5813 35.0494C35.5692 36.0373 36.1249 37.3768 36.1265 38.7739V46.4917ZM37.0197 28.9327C37.0197 27.9806 37.3021 27.0499 37.831 26.2583C38.36 25.4666 39.1118 24.8496 39.9914 24.4853C40.8711 24.1209 41.839 24.0256 42.7728 24.2113C43.7066 24.3971 44.5643 24.8556 45.2375 25.5288C45.9108 26.202 46.3692 27.0598 46.555 27.9936C46.7407 28.9274 46.6454 29.8953 46.2811 30.7749C45.9167 31.6545 45.2997 32.4064 44.5081 32.9353C43.7164 33.4643 42.7857 33.7466 41.8336 33.7466C40.5574 33.7451 39.3338 33.2374 38.4314 32.335C37.529 31.4325 37.0214 30.209 37.02 28.9327H37.0197ZM50.188 46.4917H47.641V41.6778C47.641 41.4522 47.5514 41.2358 47.3918 41.0763C47.2323 40.9168 47.0159 40.8271 46.7903 40.8271C46.5647 40.8271 46.3483 40.9168 46.1888 41.0763C46.0292 41.2358 45.9396 41.4522 45.9396 41.6778V46.4917H37.8279V38.7739C37.8289 37.6475 37.5551 36.5379 37.0304 35.5412C37.3295 35.4792 37.6341 35.4479 37.9396 35.4478H45.7282C46.9106 35.4491 48.0442 35.9194 48.8803 36.7555C49.7164 37.5916 50.1867 38.7252 50.188 39.9076V46.4917Z" fill="#3B4FFF"/>
<path d="M44.2768 0.702148H8.15833C7.85742 0.702148 7.61328 0.946 7.61328 1.2472V17.962C7.61328 18.1766 7.73932 18.3713 7.9352 18.4593C8.00674 18.4914 8.08282 18.507 8.15833 18.507C8.2892 18.507 8.41864 18.4599 8.52056 18.3693L11.6358 15.6001H44.2768C44.5777 15.6001 44.8218 15.3562 44.8218 15.0551V1.2472C44.8218 0.946 44.5777 0.702148 44.2768 0.702148ZM43.7317 14.51H11.4286C11.2952 14.51 11.1663 14.5591 11.0664 14.6477L8.70338 16.7484V1.79224H43.7317V14.51Z" fill="#3B4FFF"/>
<path d="M15.2784 9.20041L14.9409 11.1688C14.9057 11.3732 14.9897 11.5799 15.1578 11.7017C15.3256 11.8237 15.5481 11.8399 15.7318 11.7434L17.4992 10.814L19.2666 11.7434C19.3464 11.7851 19.4336 11.8058 19.5201 11.8058C19.6331 11.8058 19.7458 11.7706 19.8406 11.7017C20.0084 11.5799 20.0924 11.3732 20.0575 11.1685L19.72 9.20041L21.1499 7.80656C21.2984 7.66178 21.352 7.44518 21.2879 7.24789C21.2237 7.05031 21.0531 6.90667 20.8478 6.87686L18.8718 6.58986L17.9878 4.79915C17.8961 4.61293 17.7064 4.49512 17.4989 4.49512C17.2917 4.49512 17.1021 4.61293 17.0104 4.79915L16.1264 6.58986L14.1503 6.87686C13.945 6.90667 13.7744 7.05059 13.7103 7.24789C13.6461 7.44518 13.6998 7.66178 13.8482 7.80656L15.2784 9.20041ZM16.567 7.62743C16.7444 7.6016 16.898 7.49004 16.9774 7.32936L17.4992 6.27191L18.021 7.32936C18.1005 7.49004 18.254 7.6016 18.4315 7.62743L19.5982 7.79691L18.754 8.62016C18.6254 8.74535 18.5669 8.92561 18.597 9.10247L18.7965 10.2647L17.7527 9.71564C17.6735 9.6742 17.5864 9.65319 17.4992 9.65319C17.4121 9.65319 17.3249 9.6742 17.2457 9.71564L16.2019 10.2647L16.4015 9.10247C16.4315 8.92561 16.3731 8.74535 16.2445 8.62016L15.4002 7.79691L16.567 7.62743Z" fill="#3B4FFF"/>
<path d="M32.7198 9.20041L32.3823 11.1688C32.3471 11.3732 32.4311 11.5799 32.5992 11.7017C32.767 11.8237 32.9895 11.8399 33.1732 11.7434L34.9406 10.814L36.708 11.7434C36.7878 11.7851 36.875 11.8058 36.9615 11.8058C37.0745 11.8058 37.1872 11.7706 37.282 11.7017C37.4498 11.5799 37.5338 11.3732 37.4989 11.1685L37.1614 9.20041L38.5913 7.80656C38.7398 7.66178 38.7934 7.44518 38.7293 7.24789C38.6651 7.05031 38.4945 6.90667 38.2892 6.87686L36.3132 6.58986L35.4292 4.79915C35.3375 4.61293 35.1478 4.49512 34.9403 4.49512C34.7331 4.49512 34.5435 4.61293 34.4518 4.79915L33.5678 6.58986L31.5917 6.87686C31.3865 6.90667 31.2158 7.05059 31.1517 7.24789C31.0875 7.44518 31.1412 7.66178 31.2897 7.80656L32.7198 9.20041ZM34.0084 7.62743C34.1858 7.6016 34.3394 7.49004 34.4188 7.32936L34.9406 6.27191L35.4624 7.32936C35.5419 7.49004 35.6954 7.6016 35.8729 7.62743L37.0396 7.79691L36.1954 8.62016C36.0668 8.74535 36.0083 8.92561 36.0384 9.10247L36.2379 10.2647L35.1941 9.71564C35.1149 9.6742 35.0278 9.65319 34.9406 9.65319C34.8535 9.65319 34.7663 9.6742 34.6871 9.71564L33.6433 10.2647L33.8429 9.10247C33.8729 8.92561 33.8145 8.74535 33.6859 8.62016L32.8416 7.79691L34.0084 7.62743Z" fill="#3B4FFF"/>
<path d="M23.9972 9.20041L23.6596 11.1688C23.6244 11.3732 23.7085 11.5799 23.8765 11.7017C24.0443 11.8237 24.2669 11.8399 24.4505 11.7434L26.218 10.814L27.9854 11.7434C28.0652 11.7851 28.1523 11.8058 28.2389 11.8058C28.3519 11.8058 28.4646 11.7706 28.5594 11.7017C28.7272 11.5799 28.8112 11.3732 28.7763 11.1685L28.4387 9.20041L29.8686 7.80656C30.0171 7.66178 30.0708 7.44518 30.0066 7.24789C29.9424 7.05031 29.7718 6.90667 29.5666 6.87686L27.5905 6.58986L26.7065 4.79915C26.6148 4.61293 26.4252 4.49512 26.2177 4.49512C26.0104 4.49512 25.8208 4.61293 25.7291 4.79915L24.8451 6.58986L22.869 6.87686C22.6638 6.90667 22.4932 7.05059 22.429 7.24789C22.3649 7.44518 22.4185 7.66178 22.567 7.80656L23.9972 9.20041ZM25.2857 7.62743C25.4631 7.6016 25.6167 7.49004 25.6962 7.32936L26.218 6.27191L26.7397 7.32936C26.8192 7.49004 26.9728 7.6016 27.1502 7.62743L28.317 7.79691L27.4727 8.62016C27.3441 8.74535 27.2856 8.92561 27.3157 9.10247L27.5153 10.2647L26.4715 9.71564C26.3923 9.6742 26.3051 9.65319 26.218 9.65319C26.1308 9.65319 26.0437 9.6742 25.9645 9.71564L24.9206 10.2647L25.1202 9.10247C25.1503 8.92561 25.0918 8.74535 24.9632 8.62016L24.119 7.79691L25.2857 7.62743Z" fill="#3B4FFF"/>
</svg>
