<svg width="72" height="71" viewBox="0 0 72 71" fill="none" xmlns="http://www.w3.org/2000/svg">
<path d="M24.005 54.7134C21.1038 55.039 19.0125 57.6336 19.3429 60.4974C19.5031 61.8825 20.2012 63.1237 21.3087 63.9925C22.2555 64.7352 23.404 65.129 24.5949 65.129C24.7971 65.129 25.0003 65.1176 25.2041 65.0947C28.1053 64.769 30.1968 62.1745 29.8663 59.3107C29.5354 56.4501 26.9062 54.3885 24.005 54.7134ZM24.8856 62.3391C24.2275 62.4132 23.5789 62.2293 23.0593 61.8219C22.5397 61.4143 22.2122 60.8323 22.1373 60.1835C21.9822 58.8394 22.9627 57.6216 24.323 57.469C24.4179 57.4583 24.5122 57.4531 24.6056 57.4531C25.8504 57.4531 26.9274 58.377 27.0716 59.6245C27.2268 60.9686 26.2463 62.1864 24.8856 62.3391Z" fill="#FF8D24"/>
<path d="M47.2374 48.1596L38.7432 49.1148C37.9716 49.2014 37.4173 49.8887 37.5053 50.6496C37.5871 51.3572 38.1953 51.8793 38.9007 51.8793C38.9538 51.8793 39.0076 51.8764 39.0617 51.8703L47.5559 50.9151C48.3275 50.8284 48.8818 50.1412 48.7938 49.3803C48.7058 48.6194 48.009 48.072 47.2374 48.1596Z" fill="#FF8D24"/>
<path d="M50.5938 59.9434C49.8171 59.9434 49.1875 60.5642 49.1875 61.3301C49.1875 62.096 49.8171 62.7168 50.5938 62.7168H50.6018C51.3784 62.7168 52.0041 62.096 52.0041 61.3301C52.0041 60.5642 51.3704 59.9434 50.5938 59.9434Z" fill="#FF8D24"/>
<path d="M71.4728 55.8819C71.1887 53.4342 68.9385 51.6697 66.4566 51.9496L65.8367 52.0194L63.2976 30.0419C63.2555 29.6765 63.0677 29.3426 62.7759 29.1136C62.484 28.8847 62.1118 28.78 61.7412 28.8212L52.8501 29.8207L50.327 8.00187C50.2848 7.63648 50.0971 7.30256 49.8052 7.07362C49.5132 6.84481 49.1416 6.73984 48.7705 6.78116L26.6453 9.26959L26.2676 6.0017C26.0613 4.21161 25.1555 2.60457 23.7173 1.47677C22.2794 0.349381 20.4874 -0.159675 18.6726 0.0438918L4.51718 1.63194C2.03434 1.91233 0.245482 4.13174 0.529681 6.57898C0.812755 9.02345 3.06145 10.7898 5.54626 10.5155L17.5099 9.16739L19.6061 27.2971L13.7479 34.86C13.5273 35.1448 13.427 35.5028 13.4682 35.859L15.498 53.4043C13.908 55.5696 13.0988 58.3021 13.4283 61.1608C13.7676 64.1046 15.2498 66.7418 17.602 68.5865C19.6128 70.1636 22.0531 70.9999 24.5855 70.9999C25.0146 70.9999 25.4465 70.976 25.8793 70.9274C29.9409 70.4693 33.2539 67.9213 34.8411 64.4991L44.4815 63.4158C45.2531 63.3292 45.8074 62.6419 45.7194 61.881C45.6315 61.1201 44.9357 60.5735 44.163 60.6603L35.7198 61.6091C35.8714 60.6499 35.8994 59.6565 35.7823 58.6464C35.7648 58.4957 35.7426 58.3462 35.7193 58.1971L64.7365 54.9345C64.7438 54.9338 64.751 54.9341 64.7582 54.9333C64.7663 54.9323 64.774 54.9303 64.7822 54.9294L66.7755 54.7053C67.716 54.5986 68.5709 55.2686 68.6786 56.1971C68.7862 57.1256 68.1074 57.9676 67.1662 58.0738L56.7069 59.2492C55.9353 59.3359 55.381 60.0231 55.469 60.784C55.5509 61.4916 56.1591 62.0139 56.8644 62.0139C56.9176 62.0139 56.9713 62.011 57.0254 62.0049L64.3023 61.1871L64.83 64.951C64.9282 65.6515 65.5362 66.1586 66.2334 66.1586C66.2981 66.1586 66.3636 66.1543 66.4295 66.1453C67.2057 66.0395 67.7478 65.3333 67.6405 64.5679L67.1222 60.8703L67.4854 60.8295C69.9675 60.549 71.7564 58.3298 71.4728 55.8819ZM39.7878 10.5828L40.3615 15.5474L38.5217 14.6823C38.0366 14.4542 37.4619 14.5187 37.0411 14.8487L35.4429 16.1021L34.8689 11.1359L39.7878 10.5828ZM32.0747 11.4503L32.9359 18.9015C32.9939 19.4023 33.3226 19.8326 33.7948 20.0255C33.9684 20.0964 34.1512 20.131 34.3329 20.131C34.6458 20.131 34.9553 20.0281 35.2084 19.8297L38.1042 17.5586L41.4408 19.1275C41.9022 19.3445 42.4467 19.2975 42.8628 19.0046C43.2789 18.7119 43.5012 18.2195 43.4433 17.7187L42.5821 10.2686L47.692 9.69392L50.0556 30.1345L29.3263 32.4647L26.9638 12.0251L32.0747 11.4503ZM48.9232 39.4343L46.4581 38.2749C45.9729 38.0466 45.3982 38.1112 44.9775 38.4411L42.8377 40.119L42.1111 33.819L48.1942 33.1352L48.9232 39.4343ZM5.23028 7.75961C4.28656 7.86362 3.43143 7.19287 3.32386 6.26378C3.216 5.33553 3.89493 4.49366 4.83597 4.38744L12.2208 3.55889L12.6111 6.92787L5.23028 7.75961ZM18.5882 6.25449L15.4056 6.61309L15.0155 3.2455L18.9905 2.79954C20.0592 2.67973 21.1167 2.98078 21.9669 3.6475C22.8168 4.31409 23.3519 5.26134 23.4733 6.31537L26.6883 34.1297C26.6892 34.1389 26.689 34.1479 26.69 34.1571C26.6911 34.1662 26.6933 34.1749 26.6945 34.1841L28.4624 49.4791C27.3324 49.0713 26.1412 48.8445 24.9246 48.8128L20.145 7.47534C20.1028 7.10981 19.915 6.77589 19.623 6.54709C19.3309 6.31786 18.9586 6.21317 18.5882 6.25449ZM20.0658 31.2726L22.1251 49.0829C20.6175 49.4185 19.2374 50.0489 18.0392 50.9025L16.3267 36.0997L20.0658 31.2726ZM25.5605 68.1718C23.3204 68.4226 21.1163 67.7992 19.3526 66.4159C17.5888 65.0326 16.4773 63.055 16.2229 60.8475C15.6975 56.289 19.0297 52.1564 23.6512 51.6351C25.8899 51.3844 28.0944 52.008 29.8581 53.3911C31.6219 54.7745 32.7334 56.752 32.988 58.9605C33.5164 63.518 30.1842 67.6502 25.5605 68.1718ZM34.9345 55.4939C34.2107 53.8386 33.0799 52.3745 31.6084 51.2206C31.5674 51.1885 31.5248 51.1589 31.4834 51.1275L29.6448 35.2205L39.3167 34.1334L40.3299 42.9185C40.3877 43.4194 40.7166 43.8498 41.1887 44.0428C41.3622 44.1137 41.5451 44.1485 41.7268 44.1485C42.0397 44.1485 42.3492 44.0456 42.6023 43.8472L46.0401 41.1513L50.0025 43.0149C50.464 43.2319 51.0083 43.1849 51.4246 42.8921C51.8408 42.5994 52.063 42.1069 52.0051 41.6061L50.9885 32.8214L60.6624 31.7339L63.0424 52.3335L34.9345 55.4939Z" fill="#FF8D24"/>
</svg>
