<svg width="77" height="72" viewBox="0 0 77 72" fill="none" xmlns="http://www.w3.org/2000/svg">
<path d="M75.2572 39.4616C74.2748 38.2049 72.7574 37.4837 71.0955 37.4837H67.1886V32.6437C67.1886 29.9752 64.873 27.8037 62.0274 27.8037H60.307V1.99034C60.307 1.09811 59.538 0.376953 58.5866 0.376953H13.8567C12.9053 0.376953 12.1363 1.09811 12.1363 1.99034V19.737H5.25489C2.40933 19.737 0.09375 21.9084 0.09375 24.577V66.5236C0.09375 69.1921 2.40933 71.3636 5.25489 71.3636H65.4681C65.4681 71.3636 65.4681 71.3636 65.4699 71.3636C65.6833 71.3636 65.8846 71.3168 66.0771 71.2491C66.1425 71.2265 66.1959 71.1926 66.2578 71.1619C66.3783 71.1022 66.4883 71.0361 66.5899 70.9522C66.6484 70.9054 66.6983 70.857 66.7499 70.8021C66.8342 70.7118 66.9029 70.6102 66.9649 70.502C67.001 70.4375 67.0405 70.3794 67.0681 70.3101C67.0784 70.2842 67.099 70.2634 67.1076 70.2358L76.0191 43.7821C76.5181 42.293 76.2412 40.7183 75.2572 39.4616ZM15.5772 3.60372H56.8663V27.8037H24.179V24.5771C24.179 21.9086 21.8634 19.7371 19.0179 19.7371H15.5772V3.60372ZM63.7479 39.097V68.1369H5.25489C4.30524 68.1369 3.53446 67.4141 3.53446 66.5236V24.577C3.53446 23.6864 4.30524 22.9636 5.25489 22.9636H19.0179C19.9675 22.9636 20.7383 23.6864 20.7383 24.577V29.417C20.7383 30.3092 21.5073 31.0303 22.4587 31.0303H58.5867H62.0274C62.9771 31.0303 63.7479 31.7532 63.7479 32.6437V39.097ZM72.7386 42.8109L67.1886 59.2863V40.7103H71.0955C71.6478 40.7103 72.1536 40.9492 72.4821 41.3686C72.8124 41.7896 72.9037 42.314 72.7386 42.8109Z" fill="#FF8D24"/>
</svg>
