<svg width="73" height="73" viewBox="0 0 73 73" fill="none" xmlns="http://www.w3.org/2000/svg">
<path d="M60.7757 54.268C57.7633 54.268 55.3125 51.8189 55.3125 48.8088C55.3125 45.7987 57.7633 43.3496 60.7757 43.3496C63.7858 43.3496 66.2348 45.7987 66.2348 48.8088C66.2348 51.8189 63.7858 54.268 60.7757 54.268ZM60.7757 46.2012C59.3355 46.2012 58.1641 47.3709 58.1641 48.8088C58.1641 50.2467 59.3356 51.4164 60.7757 51.4164C62.2136 51.4164 63.3833 50.2467 63.3833 48.8088C63.3833 47.3709 62.2136 46.2012 60.7757 46.2012Z" fill="#FF8D24"/>
<path d="M25.8195 24.3937V14.3375H49.7258C54.2079 14.3375 57.8542 17.9821 57.8542 22.4618C57.8542 26.9438 54.2079 30.5901 49.7258 30.5901H39.9011C39.1137 30.5901 38.4753 31.2286 38.4753 32.0159C38.4753 32.8032 39.1137 33.4417 39.9011 33.4417H49.7258C55.7801 33.4417 60.7058 28.516 60.7058 22.4618C60.7058 16.4097 55.7801 11.4859 49.7258 11.4859H25.8195V1.42578C25.8195 0.638465 25.181 0 24.3937 0H1.42578C0.638465 0 0 0.638465 0 1.42578V24.3937C0 25.181 0.638465 25.8195 1.42578 25.8195H24.3937C25.181 25.8195 25.8195 25.181 25.8195 24.3937ZM10.2354 2.85156H15.5841V8.25242L13.6598 7.06646C13.2014 6.78401 12.6229 6.78372 12.1642 7.06617L10.2355 8.2537V2.85156H10.2354ZM22.9679 22.9679H2.85156V2.85156H7.38383V10.8061C7.38383 11.3227 7.66329 11.7989 8.11426 12.0508C8.56538 12.3028 9.11759 12.2912 9.55715 12.02L12.9112 9.95466L16.2616 12.0198C16.4906 12.1609 16.7501 12.2318 17.0097 12.2318C17.249 12.2318 17.4885 12.1716 17.7048 12.0508C18.1559 11.7989 18.4355 11.3227 18.4355 10.806V2.85156H22.9678V22.9679H22.9679Z" fill="#FF8D24"/>
<path d="M67.1118 61.8393C70.0289 58.0062 72.7258 54.3317 72.6696 48.8001C72.6658 42.2409 67.3301 36.9065 60.7723 36.9065C54.2123 36.9065 48.8749 42.2416 48.8709 48.8008C48.8151 54.3318 51.5121 58.0072 54.4314 61.8393C51.5552 62.6431 49.5815 63.9722 48.8541 65.5892H13.3048C10.8729 65.5892 8.89453 63.6128 8.89453 61.1833C8.89453 58.7514 10.8729 56.773 13.3048 56.773H32.6434C36.6475 56.773 39.9051 53.5173 39.9051 49.5154C39.9051 45.5112 36.6475 42.2536 32.6434 42.2536H14.5697C12.1402 42.2536 10.1636 40.277 10.1636 37.8475C10.1636 35.418 12.1402 33.4414 14.5697 33.4414H27.0945C27.8818 33.4414 28.5203 32.8029 28.5203 32.0156C28.5203 31.2283 27.8818 30.5898 27.0945 30.5898H14.5697C10.5678 30.5898 7.31206 33.8456 7.31206 37.8475C7.31206 41.8494 10.5678 45.1052 14.5697 45.1052H32.6434C35.0752 45.1052 37.0536 47.0836 37.0536 49.5154C37.0536 51.9449 35.0752 53.9215 32.6434 53.9215H13.3048C9.30059 53.9215 6.04297 57.1791 6.04297 61.1833C6.04297 65.185 9.30059 68.4408 13.3048 68.4408H48.8522C49.4028 69.6745 50.6789 70.7504 52.5795 71.5523C54.7914 72.4854 57.701 72.9994 60.7723 72.9994C63.8419 72.9994 66.7503 72.4854 68.9617 71.5521C71.5638 70.4537 72.997 68.8424 72.997 67.0147C72.997 64.7605 70.7946 62.869 67.1118 61.8393ZM51.7223 48.8229C51.7225 48.8179 51.7224 48.8129 51.7224 48.8079C51.7224 43.8178 55.7822 39.758 60.7723 39.758C65.7601 39.758 69.818 43.8178 69.818 48.8079C69.818 48.8129 69.818 48.8179 69.8182 48.8229C69.8678 53.515 67.4398 56.7026 64.6288 60.3932C64.3355 60.7782 61.4767 64.1864 61.4767 64.1864C61.2301 64.4711 60.9741 64.6371 60.7722 64.6432C60.4936 64.6351 60.2096 64.3543 60.066 64.1887C60.066 64.1887 57.2123 60.7833 56.9206 60.4009C54.1045 56.7076 51.6727 53.5183 51.7223 48.8229ZM60.7723 70.1479C54.7049 70.1479 51.3951 68.0781 51.3951 67.0147C51.3951 66.2898 52.9904 64.9852 56.3966 64.299L57.9076 66.0523C58.9321 67.2358 60.0256 67.4899 60.7629 67.4948H60.772C60.772 67.4948 60.7783 67.4948 60.7813 67.4948C61.5166 67.4899 62.608 67.2358 63.6336 66.051L65.1463 64.2989C68.5507 64.9852 70.1451 66.29 70.1451 67.0147C70.1454 68.0781 66.837 70.1479 60.7723 70.1479Z" fill="#FF8D24"/>
<path d="M32.0742 32.0156C32.0742 32.8029 32.7127 33.4414 33.5 33.4414H33.504C34.2913 33.4414 34.9278 32.8029 34.9278 32.0156C34.9278 31.2283 34.2873 30.5898 33.4999 30.5898C32.7124 30.5898 32.0742 31.2282 32.0742 32.0156Z" fill="#FF8D24"/>
</svg>
