<svg width="82" height="63" viewBox="0 0 82 63" fill="none" xmlns="http://www.w3.org/2000/svg">
<path d="M16.0625 49.4219C15.2837 49.4219 14.5225 49.6556 13.8749 50.0934C13.2274 50.5312 12.7227 51.1535 12.4247 51.8815C12.1267 52.6095 12.0487 53.4107 12.2007 54.1836C12.3526 54.9565 12.7276 55.6664 13.2783 56.2236C13.8289 56.7809 14.5305 57.1603 15.2943 57.3141C16.0581 57.4678 16.8498 57.3889 17.5693 57.0873C18.2888 56.7858 18.9038 56.2751 19.3364 55.6199C19.7691 54.9646 20 54.1943 20 53.4063C19.9988 52.3499 19.5836 51.3371 18.8454 50.5902C18.1073 49.8432 17.1064 49.4231 16.0625 49.4219ZM16.0625 54.7344C15.8029 54.7344 15.5492 54.6565 15.3333 54.5106C15.1175 54.3646 14.9492 54.1572 14.8499 53.9145C14.7506 53.6718 14.7246 53.4048 14.7752 53.1471C14.8259 52.8895 14.9509 52.6529 15.1344 52.4671C15.318 52.2814 15.5518 52.1549 15.8064 52.1036C16.061 52.0524 16.3249 52.0787 16.5648 52.1792C16.8046 52.2797 17.0096 52.45 17.1538 52.6684C17.298 52.8868 17.375 53.1436 17.375 53.4063C17.3746 53.7584 17.2362 54.096 16.9901 54.3449C16.7441 54.5939 16.4105 54.734 16.0625 54.7344Z" fill="#FF8D24"/>
<path d="M65.9375 49.4219C65.1587 49.4219 64.3975 49.6556 63.7499 50.0934C63.1024 50.5312 62.5977 51.1535 62.2997 51.8815C62.0017 52.6095 61.9237 53.4107 62.0757 54.1836C62.2276 54.9565 62.6026 55.6664 63.1533 56.2236C63.7039 56.7809 64.4055 57.1603 65.1693 57.3141C65.9331 57.4678 66.7248 57.3889 67.4443 57.0873C68.1638 56.7858 68.7788 56.2751 69.2114 55.6199C69.6441 54.9646 69.875 54.1943 69.875 53.4063C69.8738 52.3499 69.4586 51.3371 68.7204 50.5902C67.9823 49.8432 66.9814 49.4231 65.9375 49.4219ZM65.9375 54.7344C65.6779 54.7344 65.4242 54.6565 65.2083 54.5106C64.9925 54.3646 64.8243 54.1572 64.7249 53.9145C64.6256 53.6718 64.5996 53.4048 64.6502 53.1471C64.7009 52.8895 64.8259 52.6529 65.0094 52.4671C65.193 52.2814 65.4268 52.1549 65.6814 52.1036C65.936 52.0524 66.1999 52.0787 66.4398 52.1792C66.6796 52.2797 66.8846 52.45 67.0288 52.6684C67.173 52.8868 67.25 53.1436 67.25 53.4063C67.2496 53.7584 67.1112 54.096 66.8652 54.3449C66.6191 54.5939 66.2855 54.734 65.9375 54.7344Z" fill="#FF8D24"/>
<path d="M81.4791 31.4374L69.6666 12.8437C69.5477 12.6567 69.3843 12.5029 69.1914 12.3965C68.9985 12.29 68.7822 12.2343 68.5625 12.2344H52.8125V4.92969C52.8112 3.69726 52.3267 2.51571 51.4655 1.64425C50.6043 0.772795 49.4367 0.282612 48.2188 0.28125H4.90625C3.68832 0.282612 2.52067 0.772795 1.65947 1.64425C0.798262 2.51571 0.313846 3.69726 0.3125 4.92969V53.4063C0.3125 53.7585 0.450781 54.0963 0.696922 54.3454C0.943064 54.5945 1.2769 54.7344 1.625 54.7344H6.97016C7.28566 56.9469 8.37848 58.9702 10.0484 60.4337C11.7183 61.8971 13.8534 62.7026 16.0625 62.7026C18.2716 62.7026 20.4067 61.8971 22.0766 60.4337C23.7465 58.9702 24.8393 56.9469 25.1548 54.7344H56.8452C57.1607 56.9469 58.2535 58.9702 59.9234 60.4337C61.5933 61.8971 63.7284 62.7026 65.9375 62.7026C68.1466 62.7026 70.2817 61.8971 71.9516 60.4337C73.6215 58.9702 74.7143 56.9469 75.0298 54.7344H80.375C80.7231 54.7344 81.0569 54.5945 81.3031 54.3454C81.5492 54.0963 81.6875 53.7585 81.6875 53.4063V32.1563C81.6875 31.9014 81.6152 31.6519 81.4791 31.4374ZM16.0625 60.0469C14.7646 60.0469 13.4958 59.6574 12.4166 58.9277C11.3374 58.1981 10.4962 57.1609 9.99954 55.9475C9.50284 54.7341 9.37288 53.3989 9.6261 52.1107C9.87931 50.8226 10.5043 49.6393 11.4221 48.7106C12.3399 47.7819 13.5092 47.1495 14.7822 46.8932C16.0552 46.637 17.3747 46.7685 18.5739 47.2711C19.773 47.7737 20.7979 48.6249 21.519 49.7169C22.2401 50.809 22.625 52.0929 22.625 53.4063C22.6233 55.1669 21.9313 56.855 20.701 58.0999C19.4706 59.3449 17.8025 60.0451 16.0625 60.0469ZM50.1875 52.0781H25.1548C24.8393 49.8656 23.7465 47.8423 22.0766 46.3788C20.4067 44.9154 18.2716 44.1099 16.0625 44.1099C13.8534 44.1099 11.7183 44.9154 10.0484 46.3788C8.37848 47.8423 7.28566 49.8656 6.97016 52.0781H2.9375V38.7969H50.1875V52.0781ZM50.1875 36.1406H2.9375V4.92969C2.93793 4.40146 3.1455 3.895 3.51461 3.52148C3.88373 3.14797 4.38424 2.93794 4.90625 2.9375H48.2188C48.7408 2.93794 49.2413 3.14797 49.6104 3.52148C49.9795 3.895 50.1871 4.40146 50.1875 4.92969V36.1406ZM70.377 18.875L77.9715 30.8281H59.375V18.875H70.377ZM65.9375 60.0469C64.6396 60.0469 63.3708 59.6574 62.2916 58.9277C61.2124 58.1981 60.3712 57.1609 59.8745 55.9475C59.3778 54.7341 59.2479 53.3989 59.5011 52.1107C59.7543 50.8226 60.3793 49.6393 61.2971 48.7106C62.2149 47.7819 63.3842 47.1495 64.6572 46.8932C65.9302 46.637 67.2497 46.7685 68.4489 47.2711C69.648 47.7737 70.6729 48.6249 71.394 49.7169C72.1151 50.809 72.5 52.0929 72.5 53.4063C72.4983 55.1669 71.8063 56.855 70.576 58.0999C69.3456 59.3449 67.6775 60.0451 65.9375 60.0469ZM79.0625 41.4531H76.4375C76.0894 41.4531 75.7556 41.3132 75.5094 41.0641C75.2633 40.8151 75.125 40.4772 75.125 40.125C75.125 39.7728 75.2633 39.4349 75.5094 39.1859C75.7556 38.9368 76.0894 38.7969 76.4375 38.7969H79.0625V41.4531ZM79.0625 36.1406H76.4375C75.3932 36.1406 74.3917 36.5604 73.6533 37.3076C72.9148 38.0548 72.5 39.0683 72.5 40.125C72.5 41.1817 72.9148 42.1952 73.6533 42.9424C74.3917 43.6896 75.3932 44.1094 76.4375 44.1094H79.0625V52.0781H75.0298C74.7143 49.8656 73.6215 47.8423 71.9516 46.3788C70.2817 44.9154 68.1466 44.1099 65.9375 44.1099C63.7284 44.1099 61.5933 44.9154 59.9234 46.3788C58.2535 47.8423 57.1607 49.8656 56.8452 52.0781H52.8125V14.8906H67.8456L68.6905 16.2188H58.0625C57.7144 16.2188 57.3806 16.3587 57.1344 16.6077C56.8883 16.8568 56.75 17.1946 56.75 17.5469V32.1563C56.75 32.5085 56.8883 32.8463 57.1344 33.0954C57.3806 33.3445 57.7144 33.4844 58.0625 33.4844H79.0625V36.1406Z" fill="#FF8D24"/>
<path d="M62 36.1406H58.0625C57.7144 36.1406 57.3806 36.2806 57.1344 36.5296C56.8883 36.7787 56.75 37.1165 56.75 37.4688C56.75 37.821 56.8883 38.1588 57.1344 38.4079C57.3806 38.6569 57.7144 38.7969 58.0625 38.7969H62C62.3481 38.7969 62.6819 38.6569 62.9281 38.4079C63.1742 38.1588 63.3125 37.821 63.3125 37.4688C63.3125 37.1165 63.1742 36.7787 62.9281 36.5296C62.6819 36.2806 62.3481 36.1406 62 36.1406Z" fill="#FF8D24"/>
<path d="M34.4375 44.1094H44.9375C45.2856 44.1094 45.6194 43.9694 45.8656 43.7204C46.1117 43.4713 46.25 43.1335 46.25 42.7812C46.25 42.429 46.1117 42.0912 45.8656 41.8421C45.6194 41.5931 45.2856 41.4531 44.9375 41.4531H34.4375C34.0894 41.4531 33.7556 41.5931 33.5094 41.8421C33.2633 42.0912 33.125 42.429 33.125 42.7812C33.125 43.1335 33.2633 43.4713 33.5094 43.7204C33.7556 43.9694 34.0894 44.1094 34.4375 44.1094Z" fill="#FF8D24"/>
<path d="M44.9375 45.4375H41C40.6519 45.4375 40.3181 45.5774 40.0719 45.8265C39.8258 46.0756 39.6875 46.4134 39.6875 46.7656C39.6875 47.1179 39.8258 47.4557 40.0719 47.7048C40.3181 47.9538 40.6519 48.0938 41 48.0938H44.9375C45.2856 48.0938 45.6194 47.9538 45.8656 47.7048C46.1117 47.4557 46.25 47.1179 46.25 46.7656C46.25 46.4134 46.1117 46.0756 45.8656 45.8265C45.6194 45.5774 45.2856 45.4375 44.9375 45.4375Z" fill="#FF8D24"/>
</svg>
