<svg width="66" height="78" viewBox="0 0 66 78" fill="none" xmlns="http://www.w3.org/2000/svg">
<path d="M54.0056 45.3732C54.7196 45.5084 55.3761 45.6014 56.0174 45.7606C62.0922 47.2799 66.3125 52.8649 65.9828 58.9362C65.6379 65.3289 60.9124 70.4124 54.5199 71.2591C54.1266 71.3102 53.8604 71.3942 53.7273 71.8537C52.5777 75.8142 49.6552 77.9851 45.4833 77.9881C37.2787 77.9971 29.0741 77.9911 20.8665 77.9911C16.7097 77.9911 12.556 78.0091 8.39919 77.9851C4.30898 77.9641 1.13241 75.5289 0.236923 71.7306C0.070531 71.0189 0.010025 70.2653 0.010025 69.5296C-0.00207624 52.5526 -0.00207624 35.5756 0.00397436 18.5986C0.00699967 13.6322 3.48912 10.1701 8.48995 10.1461C10.405 10.1371 12.323 10.1461 14.359 10.1461C14.359 9.56056 14.356 9.01708 14.359 8.47359C14.3772 6.33871 15.7507 4.93046 17.9138 4.96049C18.6973 4.9725 19.0361 4.75931 19.3266 4.01165C20.216 1.72362 21.9525 0.315378 24.4182 0.135219C26.7507 -0.0359324 29.1074 -0.0359324 31.4429 0.0991871C34.2201 0.261331 36.0504 1.82271 36.9822 4.41701C37.0337 4.56414 37.0881 4.71127 37.1607 4.91545C38.5705 4.89743 39.9743 4.93647 41.0119 6.14954C42.0133 7.32057 41.6987 8.74684 41.8106 10.1431C43.048 10.1431 44.2157 10.1401 45.3835 10.1431C50.5447 10.1551 54.0026 13.5841 54.0026 18.7066C54.0056 27.2732 54.0026 35.8428 54.0026 44.4094C54.0056 44.7247 54.0056 45.0399 54.0056 45.3732ZM14.3651 12.368C12.3926 12.368 10.5078 12.365 8.62306 12.368C4.69319 12.374 2.2427 14.8092 2.2427 18.7127C2.23967 35.6116 2.23967 52.5105 2.2427 69.4095C2.2427 73.361 4.67807 75.7721 8.67752 75.7721C20.9058 75.7751 33.1341 75.7751 45.3623 75.7691C45.8675 75.7691 46.3758 75.7481 46.875 75.676C49.1137 75.3638 51.2314 73.391 51.4674 71.3792C47.958 70.9348 44.9751 69.4515 42.6668 66.7612C40.3222 64.0287 39.5961 60.7889 39.8018 57.2908C39.9622 54.5614 40.7336 52.0361 42.5216 49.9012C44.9025 47.0577 48.07 45.7305 51.7215 45.3642C51.7397 45.151 51.7669 44.9679 51.7669 44.7877C51.7699 35.9809 51.779 27.1741 51.7639 18.3673C51.7578 15.5358 49.982 13.0917 47.3318 12.6083C45.5529 12.284 43.6984 12.3801 41.7683 12.281C41.7683 13.1187 41.8015 13.7763 41.7622 14.4279C41.6503 16.2234 40.2919 17.5746 38.4919 17.5807C31.5397 17.6047 24.5845 17.6047 17.6324 17.5807C15.8142 17.5746 14.4226 16.1304 14.3711 14.3318C14.35 13.7042 14.3651 13.0767 14.3651 12.368ZM42.0163 58.3387C41.9982 64.317 46.8266 69.1483 52.8499 69.1753C58.7886 69.1993 63.7289 64.35 63.7562 58.4618C63.7834 52.5045 58.8975 47.5952 52.9377 47.5892C46.8962 47.5862 42.0375 52.3694 42.0163 58.3387ZM28.0848 15.3707C31.4399 15.3707 34.7919 15.3737 38.147 15.3677C39.1211 15.3647 39.5265 14.9924 39.5356 14.0435C39.5537 12.1939 39.5537 10.3442 39.5356 8.49461C39.5265 7.53977 39.1302 7.17945 38.147 7.15843C37.5359 7.14642 36.9217 7.14942 36.3106 7.15543C35.5422 7.16444 35.1308 6.7831 35.0158 6.04144C34.6286 3.54023 33.1734 2.27311 30.6442 2.24909C28.941 2.23408 27.2377 2.23708 25.5345 2.24909C22.9539 2.2671 21.4715 3.54323 21.0994 6.07447C20.9935 6.79511 20.5912 7.14642 19.8681 7.15243C19.2298 7.15543 18.5914 7.14342 17.9531 7.15843C16.988 7.18546 16.6099 7.56679 16.6038 8.52764C16.5947 10.2722 16.6008 12.0167 16.6008 13.7583C16.6008 15.0614 16.9184 15.3647 18.2647 15.3677C21.5381 15.3707 24.8114 15.3707 28.0848 15.3707Z" fill="#FF8D24"/>
<path d="M33.6027 46.4398C30.8073 46.4398 28.0149 46.4428 25.2195 46.4338C24.9049 46.4338 24.4814 46.4728 24.3029 46.2987C23.9973 46.0044 23.6645 45.542 23.6887 45.1697C23.7099 44.8484 24.1819 44.5211 24.5086 44.2659C24.6447 44.1578 24.92 44.2178 25.1318 44.2178C30.8012 44.2148 36.4706 44.2148 42.137 44.2178C42.3216 44.2178 42.5122 44.2148 42.6937 44.2478C43.2715 44.3469 43.6739 44.7343 43.5892 45.2717C43.5287 45.6621 43.1626 46.0554 42.8359 46.3347C42.6574 46.4878 42.2762 46.4338 41.9858 46.4368C39.1904 46.4428 36.398 46.4398 33.6027 46.4398Z" fill="#FF8D24"/>
<path d="M33.63 34.8402C36.371 34.8402 39.1119 34.8402 41.8528 34.8402C42.119 34.8402 42.3853 34.8342 42.6485 34.8642C43.2323 34.9333 43.5682 35.2936 43.6135 35.8521C43.6589 36.4556 43.3443 36.867 42.7422 36.9991C42.4609 37.0622 42.1614 37.0562 41.871 37.0562C36.3619 37.0592 30.8528 37.0592 25.3437 37.0562C25.0533 37.0562 24.7538 37.0592 24.4724 36.9931C23.8704 36.852 23.577 36.4406 23.6314 35.8281C23.6828 35.2516 24.0308 34.9213 24.6086 34.8582C24.8718 34.8282 25.141 34.8372 25.4073 34.8372C28.1482 34.8402 30.8891 34.8402 33.63 34.8402Z" fill="#FF8D24"/>
<path d="M33.5523 27.6603C30.8114 27.6603 28.0704 27.6603 25.3295 27.6572C25.0391 27.6572 24.6639 27.7323 24.4733 27.5852C24.1315 27.327 23.6928 26.9306 23.6837 26.5823C23.6747 26.231 24.0861 25.8106 24.4128 25.5344C24.5913 25.3812 24.9755 25.4413 25.266 25.4413C30.8265 25.4383 36.39 25.4383 41.9505 25.4383C42.1381 25.4383 42.3226 25.4353 42.5102 25.4503C43.1909 25.5104 43.6235 25.8707 43.6175 26.5583C43.6114 27.2429 43.1818 27.6212 42.4951 27.6452C41.7509 27.6723 41.0066 27.6603 40.2594 27.6603C38.0237 27.6603 35.788 27.6603 33.5523 27.6603Z" fill="#FF8D24"/>
<path d="M12.6632 27.5376C13.9823 26.2194 15.2015 25.0033 16.4207 23.7873C16.6082 23.6011 16.7837 23.3969 16.9924 23.2378C17.5037 22.8504 18.0422 22.8294 18.5051 23.2858C18.968 23.7422 19.0073 24.3127 18.5535 24.7751C16.8624 26.4957 15.1531 28.1982 13.4165 29.8706C12.9506 30.318 12.3728 30.237 11.9069 29.7926C11.084 29.0059 10.2672 28.2072 9.47759 27.3844C8.96632 26.853 8.96934 26.1864 9.46549 25.769C9.98887 25.3306 10.5546 25.3486 11.0417 25.8231C11.5923 26.3545 12.0945 26.931 12.6632 27.5376Z" fill="#FF8D24"/>
<path d="M12.6919 36.9028C14.1319 35.4615 15.457 34.1253 16.7972 32.8041C17.3962 32.2156 18.0981 32.1646 18.5459 32.672C19.0057 33.1915 18.9815 33.75 18.5005 34.2334C16.8517 35.8879 15.1968 37.5363 13.5269 39.1698C13.0065 39.6772 12.4136 39.6592 11.8932 39.1608C11.0673 38.3741 10.2565 37.5694 9.4639 36.7496C8.98892 36.2602 8.97077 35.7077 9.43969 35.1912C9.84508 34.7499 10.5258 34.7258 11.0159 35.1792C11.5756 35.6987 12.0868 36.2752 12.6919 36.9028Z" fill="#FF8D24"/>
<path d="M12.6706 46.306C14.0864 44.8918 15.3813 43.5676 16.7154 42.2825C16.9817 42.0243 17.3992 41.745 17.7229 41.769C18.0738 41.796 18.5941 42.1113 18.6789 42.4056C18.7878 42.7779 18.6728 43.3784 18.4126 43.6637C17.4203 44.7627 16.3312 45.7776 15.2784 46.8225C14.7157 47.384 14.1621 47.9545 13.5812 48.498C12.9883 49.0505 12.4165 49.0415 11.8265 48.477C11.043 47.7233 10.2715 46.9576 9.51522 46.1799C8.98579 45.6364 8.96159 45.0329 9.40631 44.5615C9.85405 44.0871 10.5468 44.0931 11.1005 44.6306C11.6299 45.15 12.1109 45.7085 12.6706 46.306Z" fill="#FF8D24"/>
<path d="M51.6511 60.3685C53.0669 58.9543 54.3617 57.6301 55.6959 56.345C55.9621 56.0867 56.3796 55.8075 56.7033 55.8315C57.0543 55.8585 57.5746 56.1738 57.6593 56.4681C57.7682 56.8404 57.6533 57.4409 57.3931 57.7262C56.4008 58.8252 55.3117 59.8401 54.2589 60.885C53.6962 61.4465 53.1425 62.017 52.5617 62.5605C51.9687 63.113 51.397 63.104 50.807 62.5395C50.0235 61.7858 49.252 61.0201 48.4957 60.2424C47.9663 59.6989 47.9421 59.0954 48.3868 58.624C48.8345 58.1496 49.5273 58.1556 50.0809 58.6931C50.6073 59.2095 51.0914 59.768 51.6511 60.3685Z" fill="#FF8D24"/>
<path d="M29.2437 62.9798C30.6293 62.9798 32.0118 62.9738 33.3974 62.9828C34.2384 62.9888 34.6862 63.3641 34.7104 64.0427C34.7346 64.7484 34.2536 65.1957 33.4035 65.1987C30.5809 65.2078 27.7582 65.2078 24.9387 65.1987C24.0795 65.1957 23.6045 64.7574 23.6257 64.0487C23.6469 63.3701 24.0946 62.9888 24.9326 62.9828C26.3696 62.9708 27.8067 62.9798 29.2437 62.9798Z" fill="#FF8D24"/>
<path d="M29.2088 53.5996C30.5944 53.5996 31.977 53.5936 33.3626 53.6026C34.252 53.6086 34.7119 53.996 34.7088 54.7046C34.7058 55.4042 34.2308 55.8156 33.3565 55.8186C30.5611 55.8276 27.7658 55.8276 24.9704 55.8186C24.0961 55.8156 23.6211 55.3982 23.6211 54.6986C23.6241 53.984 24.0688 53.6086 24.9734 53.6026C26.3862 53.5936 27.796 53.5996 29.2088 53.5996Z" fill="#FF8D24"/>
<path d="M14.023 62.9805C14.8731 62.9805 15.7202 62.9655 16.5703 62.9835C17.3266 62.9985 17.7683 63.4099 17.7804 64.0584C17.7925 64.71 17.3509 65.1784 16.6187 65.1904C14.8398 65.2145 13.064 65.2145 11.2851 65.1874C10.5651 65.1754 10.1022 64.671 10.1567 64.0284C10.2142 63.3408 10.6317 62.9925 11.3184 62.9835C12.2169 62.9715 13.1215 62.9805 14.023 62.9805Z" fill="#FF8D24"/>
<path d="M13.9595 53.6029C14.8338 53.6029 15.7111 53.5878 16.5855 53.6089C17.3388 53.6269 17.7774 54.0442 17.7805 54.6958C17.7835 55.3414 17.3388 55.8038 16.5976 55.8128C14.8459 55.8368 13.0943 55.8368 11.3426 55.8128C10.5984 55.8038 10.1506 55.3474 10.1446 54.7078C10.1385 54.0412 10.6105 53.6179 11.4092 53.6059C12.2623 53.5908 13.1094 53.6029 13.9595 53.6029Z" fill="#FF8D24"/>
<path d="M30.3718 7.34699C30.3718 8.63513 29.3221 9.67105 28.0333 9.65303C26.7959 9.63501 25.7552 8.59009 25.7462 7.353C25.7371 6.09188 26.8201 5.03495 28.1059 5.05296C29.3644 5.07398 30.3718 6.09188 30.3718 7.34699Z" fill="#FF8D24"/>
</svg>
