<svg width="73" height="73" viewBox="0 0 73 73" fill="none" xmlns="http://www.w3.org/2000/svg">
<path d="M72.9977 36.4638C73.0748 56.5465 56.7744 72.8902 36.5642 72.9977C16.4662 73.1052 -0.0116719 56.661 6.20355e-06 36.5059C0.0116843 16.3648 16.326 0.0397983 36.4802 7.23391e-05C56.5712 -0.0396536 72.9229 16.2877 72.9977 36.4638ZM36.4288 2.71546C17.7017 2.78323 2.6416 17.9118 2.71167 36.5807C2.78174 55.3454 17.9516 70.4132 36.66 70.2964C55.3567 70.1819 70.3654 55.0696 70.286 36.4358C70.2089 17.6992 55.0951 2.64535 36.4288 2.71546Z" fill="#FF8D24"/>
<path d="M46.1517 28.0231C45.7803 27.7473 45.3879 27.4926 45.0399 27.1888C44.6662 26.864 44.3322 26.4971 43.9842 26.1419C42.2675 24.3893 42.2161 21.9099 43.8604 20.2858C45.479 18.6875 47.9477 18.7295 49.6528 20.4237C52.612 23.3611 55.5525 26.3148 58.4954 29.2686C60.4504 31.2315 60.448 33.5239 58.4838 35.4986C55.5852 38.4126 52.6774 41.3196 49.7625 44.2172C49.3958 44.5818 48.9824 44.9323 48.5293 45.1753C46.8173 46.0937 44.6942 45.6053 43.5054 44.0653C42.3119 42.5184 42.3563 40.3825 43.7016 38.929C44.4396 38.1322 45.3085 37.4545 46.1166 36.7207C46.0465 36.6436 45.9765 36.5665 45.9064 36.4917C40.1608 36.4917 34.4175 36.4917 28.5924 36.4917C28.5924 36.903 28.5924 37.2465 28.5924 37.5923C28.5924 43.3666 28.5924 49.1386 28.5901 54.9129C28.5901 55.3499 28.5831 55.7892 28.5387 56.2238C28.3378 58.1283 26.6959 59.6543 24.783 59.7314C22.2862 59.8319 20.5228 58.0045 20.5181 55.2634C20.5088 47.8276 20.5111 40.3919 20.5158 32.9584C20.5181 29.9533 22.1017 28.3689 25.096 28.3666C31.7128 28.3619 38.3296 28.3642 44.9465 28.3642C45.2618 28.3642 45.5747 28.3642 45.8901 28.3642C45.9788 28.2497 46.0652 28.1352 46.1517 28.0231ZM25.0282 31.0376C23.6712 31.0376 23.2415 31.4605 23.2415 32.7995C23.2391 40.289 23.2391 47.7809 23.2415 55.2704C23.2415 55.4737 23.2321 55.6817 23.2602 55.8803C23.3676 56.6304 23.8511 57.037 24.5658 57.0417C25.2852 57.0464 25.764 56.6211 25.8831 55.8873C25.9298 55.6022 25.9041 55.3055 25.9041 55.0134C25.9041 48.5731 25.9041 42.1305 25.9041 35.6902C25.9041 34.1198 26.3058 33.7109 27.859 33.7109C34.8519 33.7085 41.8448 33.7109 48.8376 33.7109C48.9824 33.7109 49.1576 33.6595 49.2697 33.7226C49.7485 33.989 50.3558 34.1876 50.6361 34.6012C50.9864 35.1153 50.7015 35.7065 50.2413 36.1599C48.9147 37.4708 47.6021 38.7958 46.2824 40.1138C46.1166 40.2797 45.9438 40.4363 45.792 40.6115C45.2244 41.2635 45.2174 42.037 45.7686 42.5698C46.2871 43.0699 47.0766 43.0956 47.6535 42.5254C50.7178 39.4898 53.7658 36.4403 56.8021 33.3767C57.4327 32.7411 57.414 32.005 56.7741 31.3577C53.7588 28.3152 50.7295 25.2866 47.6908 22.2675C47.0602 21.6412 46.2941 21.6552 45.7476 22.209C45.2081 22.7582 45.2081 23.5317 45.8223 24.1626C47.226 25.6021 48.6508 27.0229 50.0825 28.4343C50.594 28.9391 50.9607 29.4766 50.6524 30.2103C50.3441 30.9464 49.6995 31.0446 48.9824 31.0422C44.9908 31.0282 40.9993 31.0352 37.0077 31.0352C33.0114 31.0352 29.0198 31.0329 25.0282 31.0376Z" fill="#FF8D24"/>
</svg>
