<svg width="74" height="69" viewBox="0 0 74 69" fill="none" xmlns="http://www.w3.org/2000/svg">
<path d="M65.1417 47.9479C66.5429 46.684 67.5282 45.0251 67.9675 43.1899C68.4068 41.3547 68.2795 39.4295 67.6025 37.6681C66.9254 35.9067 65.7304 34.3918 64.175 33.3233C62.6196 32.2549 60.7769 31.6829 58.8899 31.6829C57.0028 31.6829 55.1601 32.2549 53.6047 33.3233C52.0493 34.3918 50.8543 35.9067 50.1773 37.6681C49.5003 39.4295 49.373 41.3547 49.8123 43.1899C50.2516 45.0251 51.2368 46.684 52.638 47.9479C51.9164 48.0016 51.2042 48.1446 50.5177 48.3736C49.6184 47.3915 48.5313 46.5996 47.3206 46.0449C46.11 45.4902 44.8004 45.1838 43.4693 45.1439C45.1467 43.7575 46.3553 41.8871 46.9302 39.7883C47.5051 37.6894 47.4182 35.4642 46.6815 33.4166C45.9448 31.3689 44.5941 29.5984 42.8138 28.3469C41.0334 27.0954 38.9103 26.4238 36.7341 26.4238C34.5579 26.4238 32.4347 27.0954 30.6544 28.3469C28.8741 29.5984 27.5234 31.3689 26.7867 33.4166C26.0499 35.4642 25.9631 37.6894 26.538 39.7883C27.1129 41.8871 28.3215 43.7575 29.9989 45.1439C28.6676 45.1839 27.3578 45.4904 26.147 46.0453C24.9363 46.6002 23.849 47.3923 22.9497 48.3746C22.2634 48.1453 21.5514 48.002 20.8298 47.9481C22.231 46.6842 23.2163 45.0253 23.6556 43.1901C24.0949 41.355 23.9676 39.4297 23.2906 37.6684C22.6136 35.907 21.4186 34.3922 19.8632 33.3237C18.3079 32.2552 16.4652 31.6833 14.5781 31.6833C12.6911 31.6833 10.8484 32.2552 9.29308 33.3237C7.73771 34.3922 6.54272 35.907 5.8657 37.6684C5.18868 39.4297 5.06143 41.355 5.50073 43.1901C5.94004 45.0253 6.92526 46.6842 8.32647 47.9481C6.10956 48.1195 4.03878 49.1205 2.52729 50.7513C1.0158 52.3821 0.174725 54.5228 0.171875 56.7463V67.3977C0.171875 67.7209 0.300278 68.0309 0.528836 68.2594C0.757394 68.488 1.06739 68.6164 1.39062 68.6164H72.0776C72.4008 68.6164 72.7108 68.488 72.9393 68.2594C73.1679 68.0309 73.2963 67.7209 73.2963 67.3977V56.7463C73.2935 54.5228 72.4524 52.382 70.9409 50.7512C69.4294 49.1204 67.3586 48.1194 65.1417 47.9479ZM7.68145 41.0232C7.68145 39.6592 8.08593 38.3258 8.84374 37.1917C9.60155 36.0575 10.6786 35.1736 11.9388 34.6516C13.199 34.1296 14.5857 33.9931 15.9235 34.2592C17.2613 34.5253 18.4902 35.1821 19.4546 36.1467C20.4191 37.1112 21.076 38.34 21.342 39.6778C21.6081 41.0157 21.4715 42.4023 20.9495 43.6625C20.4275 44.9227 19.5436 45.9998 18.4094 46.7575C17.2753 47.5153 15.9419 47.9198 14.5778 47.9198C12.7494 47.9177 10.9965 47.1904 9.70362 45.8975C8.41074 44.6046 7.68351 42.8516 7.68145 41.0232ZM20.3169 55.1221V66.1789H8.69575V59.2824C8.69575 58.9591 8.56734 58.6492 8.33879 58.4206C8.11023 58.192 7.80024 58.0636 7.47701 58.0636C7.15378 58.0636 6.84378 58.192 6.61523 58.4206C6.38667 58.6492 6.25827 58.9591 6.25827 59.2824V66.1789H2.60936V56.7463C2.61129 55.0524 3.28507 53.4284 4.48287 52.2306C5.68067 51.0329 7.30468 50.3591 8.9986 50.3572H20.1571C20.5948 50.357 21.0314 50.4016 21.4601 50.4902C20.708 51.9182 20.3156 53.5081 20.3169 55.1221ZM28.5999 37.0009C28.5999 35.3921 29.0769 33.8194 29.9707 32.4818C30.8645 31.1441 32.1348 30.1015 33.6212 29.4858C35.1075 28.8701 36.743 28.709 38.3209 29.0228C39.8988 29.3367 41.3482 30.1114 42.4858 31.249C43.6234 32.3865 44.3981 33.8359 44.712 35.4138C45.0258 36.9917 44.8648 38.6272 44.2491 40.1135C43.6334 41.5999 42.5909 42.8703 41.2532 43.7641C39.9156 44.6579 38.3429 45.1349 36.7341 45.1349C34.5776 45.1325 32.51 44.2747 30.9851 42.7498C29.4602 41.2249 28.6024 39.1574 28.5999 37.0009ZM50.7138 66.1789H46.1367V58.0447C46.1367 57.7215 46.0083 57.4115 45.7797 57.183C45.5512 56.9544 45.2412 56.826 44.9179 56.826C44.5947 56.826 44.2847 56.9544 44.0562 57.183C43.8276 57.4115 43.6992 57.7215 43.6992 58.0447V66.1789H29.769V58.0447C29.769 57.7215 29.6406 57.4115 29.412 57.183C29.1835 56.9544 28.8735 56.826 28.5502 56.826C28.227 56.826 27.917 56.9544 27.6885 57.183C27.4599 57.4115 27.3315 57.7215 27.3315 58.0447V66.1789H22.7544V55.1221C22.7567 53.1205 23.5528 51.2015 24.9682 49.7862C26.3835 48.3709 28.3024 47.5747 30.304 47.5724H43.1642C45.1657 47.5747 47.0847 48.3709 48.5 49.7862C49.9154 51.2015 50.7115 53.1205 50.7138 55.1221V66.1789ZM51.9935 41.0232C51.9935 39.6592 52.398 38.3258 53.1558 37.1917C53.9136 36.0576 54.9907 35.1736 56.2508 34.6516C57.511 34.1296 58.8977 33.9931 60.2355 34.2592C61.5733 34.5253 62.8021 35.1821 63.7666 36.1466C64.7311 37.1111 65.388 38.34 65.6541 39.6778C65.9202 41.0156 65.7836 42.4022 65.2616 43.6624C64.7396 44.9226 63.8557 45.9997 62.7215 46.7575C61.5874 47.5153 60.254 47.9198 58.89 47.9198C57.0616 47.9176 55.3087 47.1903 54.0159 45.8974C52.7231 44.6045 51.9958 42.8516 51.9938 41.0232H51.9935ZM70.8588 66.1789H67.2099V59.2824C67.2099 58.9591 67.0815 58.6492 66.853 58.4206C66.6244 58.192 66.3144 58.0636 65.9912 58.0636C65.6679 58.0636 65.3579 58.192 65.1294 58.4206C64.9008 58.6492 64.7724 58.9591 64.7724 59.2824V66.1789H53.1513V55.1221C53.1526 53.5084 52.7605 51.9187 52.0087 50.4908C52.4372 50.4019 52.8736 50.3571 53.3112 50.3569H64.4696C66.1636 50.3588 67.7876 51.0326 68.9854 52.2304C70.1832 53.4283 70.857 55.0524 70.8588 56.7463V66.1789Z" fill="#FF8D24"/>
<path d="M62.3928 0.576172H10.648C10.2169 0.576172 9.86719 0.925524 9.86719 1.35703V25.3033C9.86719 25.6108 10.0478 25.8897 10.3284 26.0158C10.4309 26.0618 10.5399 26.0841 10.648 26.0841C10.8355 26.0841 11.021 26.0166 11.167 25.8869L15.6301 21.9196H62.3928C62.8239 21.9196 63.1736 21.5702 63.1736 21.1387V1.35703C63.1736 0.925524 62.8239 0.576172 62.3928 0.576172ZM61.6119 20.3579H15.3332C15.142 20.3579 14.9574 20.4282 14.8142 20.5551L11.4289 23.5647V2.13788H61.6119V20.3579Z" fill="#FF8D24"/>
<path d="M20.8473 12.7527L20.3638 15.5727C20.3133 15.8656 20.4337 16.1616 20.6745 16.3361C20.9148 16.511 21.2337 16.5342 21.4968 16.3959L24.0289 15.0644L26.561 16.3959C26.6753 16.4557 26.8001 16.4854 26.9242 16.4854C27.086 16.4854 27.2475 16.4349 27.3833 16.3361C27.6237 16.1616 27.7441 15.8656 27.6941 15.5723L27.2105 12.7527L29.259 10.7558C29.4717 10.5484 29.5486 10.2381 29.4567 9.95545C29.3648 9.67239 29.1203 9.4666 28.8263 9.4239L25.9953 9.01273L24.7288 6.44729C24.5975 6.1805 24.3258 6.01172 24.0285 6.01172C23.7316 6.01172 23.4599 6.1805 23.3286 6.44729L22.0621 9.01273L19.2311 9.4239C18.9371 9.4666 18.6926 9.6728 18.6007 9.95545C18.5088 10.2381 18.5857 10.5484 18.7984 10.7558L20.8473 12.7527ZM22.6933 10.4992C22.9475 10.4622 23.1675 10.3024 23.2814 10.0722L24.0289 8.55723L24.7764 10.0722C24.8903 10.3024 25.1103 10.4622 25.3645 10.4992L27.036 10.742L25.8265 11.9214C25.6423 12.1008 25.5585 12.359 25.6016 12.6124L25.8875 14.2774L24.3921 13.4909C24.2786 13.4315 24.1538 13.4014 24.0289 13.4014C23.904 13.4014 23.7792 13.4315 23.6657 13.4909L22.1703 14.2774L22.4562 12.6124C22.4993 12.359 22.4155 12.1008 22.2313 11.9214L21.0218 10.742L22.6933 10.4992Z" fill="#FF8D24"/>
<path d="M45.8317 12.7527L45.3481 15.5727C45.2977 15.8656 45.4181 16.1616 45.6589 16.3361C45.8992 16.511 46.2181 16.5342 46.4812 16.3959L49.0133 15.0644L51.5454 16.3959C51.6597 16.4557 51.7845 16.4854 51.9086 16.4854C52.0704 16.4854 52.2319 16.4349 52.3677 16.3361C52.6081 16.1616 52.7284 15.8656 52.6784 15.5723L52.1949 12.7527L54.2434 10.7558C54.4561 10.5484 54.533 10.2381 54.441 9.95545C54.3491 9.67239 54.1047 9.4666 53.8107 9.4239L50.9797 9.01273L49.7132 6.44729C49.5818 6.1805 49.3102 6.01172 49.0129 6.01172C48.716 6.01172 48.4443 6.1805 48.313 6.44729L47.0465 9.01273L44.2155 9.4239C43.9214 9.4666 43.677 9.6728 43.5851 9.95545C43.4932 10.2381 43.5701 10.5484 43.7828 10.7558L45.8317 12.7527ZM47.6777 10.4992C47.9319 10.4622 48.1519 10.3024 48.2658 10.0722L49.0133 8.55723L49.7608 10.0722C49.8747 10.3024 50.0947 10.4622 50.3489 10.4992L52.0204 10.742L50.8109 11.9214C50.6266 12.1008 50.5429 12.359 50.586 12.6124L50.8719 14.2774L49.3765 13.4909C49.263 13.4315 49.1381 13.4014 49.0133 13.4014C48.8884 13.4014 48.7636 13.4315 48.6501 13.4909L47.1547 14.2774L47.4406 12.6124C47.4837 12.359 47.3999 12.1008 47.2157 11.9214L46.0062 10.742L47.6777 10.4992Z" fill="#FF8D24"/>
<path d="M33.3395 12.7527L32.8559 15.5727C32.8055 15.8656 32.9259 16.1616 33.1667 16.3361C33.407 16.511 33.7259 16.5342 33.989 16.3959L36.5211 15.0644L39.0532 16.3959C39.1675 16.4557 39.2923 16.4854 39.4164 16.4854C39.5782 16.4854 39.7397 16.4349 39.8755 16.3361C40.1159 16.1616 40.2363 15.8656 40.1862 15.5723L39.7027 12.7527L41.7512 10.7558C41.9639 10.5484 42.0408 10.2381 41.9489 9.95545C41.8569 9.67239 41.6125 9.4666 41.3185 9.4239L38.4875 9.01273L37.221 6.44729C37.0897 6.1805 36.818 6.01172 36.5207 6.01172C36.2238 6.01172 35.9521 6.1805 35.8208 6.44729L34.5543 9.01273L31.7233 9.4239C31.4293 9.4666 31.1848 9.6728 31.0929 9.95545C31.001 10.2381 31.0779 10.5484 31.2906 10.7558L33.3395 12.7527ZM35.1855 10.4992C35.4397 10.4622 35.6597 10.3024 35.7736 10.0722L36.5211 8.55723L37.2686 10.0722C37.3825 10.3024 37.6025 10.4622 37.8567 10.4992L39.5282 10.742L38.3187 11.9214C38.1345 12.1008 38.0507 12.359 38.0938 12.6124L38.3797 14.2774L36.8843 13.4909C36.7708 13.4315 36.6459 13.4014 36.5211 13.4014C36.3962 13.4014 36.2714 13.4315 36.1579 13.4909L34.6625 14.2774L34.9484 12.6124C34.9915 12.359 34.9077 12.1008 34.7235 11.9214L33.514 10.742L35.1855 10.4992Z" fill="#FF8D24"/>
</svg>
