<svg width="72" height="71" viewBox="0 0 72 71" fill="none" xmlns="http://www.w3.org/2000/svg">
<path d="M35.9942 0C26.3678 0 16.9426 3.91482 10.1309 10.742C3.43267 17.4547 -0.16166 26.2086 0.00558415 35.3897C0.201175 46.0396 4.01094 55.1006 11.0239 61.5927C17.518 67.6046 26.3621 70.9442 35.9262 71C45.4705 70.986 54.3174 67.6911 60.8399 61.7184C67.9209 55.2346 71.776 46.1429 71.9914 35.4232C72.1757 26.2505 68.5955 17.4994 61.9142 10.7811C55.1054 3.93436 45.6661 0.00558461 36.0169 0C36.0084 0 36.0028 0 35.9942 0ZM67.7593 35.8337C67.8897 43.937 64.712 51.6521 58.8188 57.555C52.8235 63.5585 44.5124 67.007 36.0198 67.0126C36.0141 67.0126 36.0056 67.0126 35.9999 67.0126C27.4988 67.0126 19.1791 63.5557 13.1668 57.5243C7.25377 51.5935 4.08464 43.8671 4.23771 35.7639C4.41913 26.2617 7.85188 18.2086 14.1646 12.476C19.919 7.25162 27.6689 4.36996 35.9857 4.36438C35.9942 4.36438 36.0028 4.36438 36.0113 4.36438C44.3451 4.36438 52.1035 7.24883 57.8635 12.49C64.1848 18.2366 67.6062 26.3119 67.7593 35.8337Z" fill="#FF8D24"/>
<path d="M38.3711 37.6679C38.8501 37.4584 39.315 37.2714 39.7657 37.0899C40.687 36.7185 41.5572 36.3666 42.3481 35.9115C47.0054 33.2309 49.1257 27.5988 47.51 22.2152C45.9027 16.8708 41.166 13.5507 35.4656 13.7657C29.0366 14.0031 23.733 19.4285 23.886 25.6163C23.9172 26.8281 24.7336 27.7272 25.8703 27.8054C26.9701 27.878 27.9311 27.0431 28.0983 25.8564C28.1182 25.7196 28.121 25.5716 28.1267 25.4152C28.1295 25.3287 28.1323 25.2421 28.138 25.1583C28.2684 22.9273 29.4136 20.8554 31.2845 19.4788C32.6763 18.454 34.3289 17.9151 35.9985 17.9151C36.5739 17.9151 37.155 17.9793 37.7248 18.1105C41.7075 19.0264 44.2246 22.5056 43.8448 26.5712C43.4933 30.3129 40.259 33.2923 36.3188 33.4962C34.6208 33.5855 33.8923 34.3283 33.8838 35.9813C33.8753 37.9164 33.8668 40.2005 33.8867 42.4678C33.898 43.8668 34.7456 44.805 36.0013 44.805C36.0042 44.805 36.0098 44.805 36.0127 44.805C37.2599 44.7994 38.1075 43.8528 38.1216 42.4483C38.133 41.404 38.1301 40.3569 38.1273 39.346C38.1273 38.9076 38.1245 38.4748 38.1245 38.0504V37.7768L38.3711 37.6679Z" fill="#FF8D24"/>
<path d="M33.9384 53.9135C33.9214 54.4496 34.1397 54.9913 34.5394 55.399C34.9419 55.8123 35.489 56.0524 36.0417 56.058C36.569 56.058 37.0764 55.8653 37.4562 55.4968C37.8389 55.1254 38.0515 54.6284 38.0572 54.0978C38.06 53.5589 37.8276 53.0172 37.4137 52.6151C37.0027 52.213 36.4556 51.984 35.9113 51.9924C34.8398 52.0092 33.9724 52.8524 33.9384 53.9135Z" fill="#FF8D24"/>
</svg>
