<svg width="87" height="51" viewBox="0 0 87 51" fill="none" xmlns="http://www.w3.org/2000/svg">
<path d="M76.9633 26.191C78.6139 24.7022 79.7745 22.748 80.292 20.5861C80.8094 18.4243 80.6595 16.1564 79.862 14.0815C79.0645 12.0066 77.6568 10.2221 75.8245 8.96348C73.9923 7.70482 71.8216 7.03106 69.5987 7.03106C67.3758 7.03106 65.2051 7.70482 63.3729 8.96348C61.5406 10.2221 60.1329 12.0066 59.3354 14.0815C58.5379 16.1564 58.3879 18.4243 58.9054 20.5861C59.4229 22.748 60.5835 24.7022 62.2341 26.191C61.384 26.2543 60.5451 26.4227 59.7364 26.6924C58.677 25.5355 57.3964 24.6027 55.9703 23.9493C54.5441 23.2958 53.0015 22.9349 51.4335 22.8879C53.4094 21.2547 54.8331 19.0515 55.5103 16.5791C56.1876 14.1066 56.0853 11.4854 55.2174 9.07327C54.3495 6.66112 52.7584 4.57557 50.6612 3.10132C48.5641 1.62706 46.063 0.835938 43.4995 0.835938C40.936 0.835938 38.4349 1.62706 36.3377 3.10132C34.2405 4.57557 32.6494 6.66112 31.7816 9.07327C30.9137 11.4854 30.8114 14.1066 31.4886 16.5791C32.1658 19.0515 33.5896 21.2547 35.5655 22.8879C33.9972 22.935 32.4544 23.2961 31.0281 23.9497C29.6018 24.6034 28.3211 25.5365 27.2616 26.6937C26.4532 26.4235 25.6144 26.2548 24.7645 26.1912C26.4151 24.7024 27.5757 22.7482 28.0932 20.5864C28.6106 18.4246 28.4608 16.1567 27.6632 14.0819C26.8657 12.007 25.458 10.2225 23.6258 8.9639C21.7936 7.70525 19.623 7.0315 17.4001 7.0315C15.1772 7.0315 13.0065 7.70525 11.1743 8.9639C9.34213 10.2225 7.93445 12.007 7.13693 14.0819C6.33941 16.1567 6.18952 18.4246 6.70701 20.5864C7.2245 22.7482 8.38508 24.7024 10.0357 26.1912C7.42419 26.3932 4.98485 27.5723 3.20433 29.4934C1.42382 31.4144 0.433045 33.9361 0.429688 36.5554V49.1026C0.429688 49.4833 0.580944 49.8485 0.850182 50.1177C1.11942 50.387 1.48459 50.5382 1.86535 50.5382H85.1336C85.5144 50.5382 85.8795 50.387 86.1488 50.1177C86.418 49.8485 86.5693 49.4833 86.5693 49.1026V36.5554C86.566 33.9361 85.5752 31.4143 83.7947 29.4932C82.0142 27.5722 79.5748 26.393 76.9633 26.191ZM9.27586 18.0338C9.27586 16.427 9.75233 14.8563 10.645 13.5203C11.5377 12.1843 12.8065 11.143 14.291 10.5281C15.7755 9.91327 17.409 9.75239 18.9849 10.0659C20.5608 10.3794 22.0084 11.1531 23.1445 12.2893C24.2807 13.4255 25.0544 14.8731 25.3679 16.449C25.6813 18.0249 25.5204 19.6584 24.9055 21.1429C24.2906 22.6273 23.2493 23.8961 21.9132 24.7888C20.5772 25.6814 19.0065 26.1579 17.3997 26.1578C15.2459 26.1554 13.1809 25.2987 11.658 23.7756C10.135 22.2526 9.27829 20.1877 9.27586 18.0338ZM24.1602 34.6421V47.6669H10.4707V39.5429C10.4707 39.1621 10.3194 38.7969 10.0502 38.5277C9.78096 38.2585 9.41579 38.1072 9.03503 38.1072C8.65427 38.1072 8.28911 38.2585 8.01987 38.5277C7.75063 38.7969 7.59937 39.1621 7.59937 39.5429V47.6669H3.30101V36.5554C3.30329 34.56 4.09699 32.647 5.50798 31.236C6.91897 29.825 8.83203 29.0314 10.8275 29.0292H23.972C24.4876 29.0289 25.0019 29.0814 25.5069 29.1858C24.621 30.868 24.1588 32.7409 24.1602 34.6421ZM33.9175 13.2956C33.9175 11.4004 34.4794 9.54786 35.5323 7.97209C36.5851 6.39632 38.0816 5.16815 39.8325 4.44289C41.5834 3.71762 43.51 3.52784 45.3687 3.89754C47.2274 4.26725 48.9348 5.17982 50.2749 6.51988C51.615 7.85993 52.5276 9.56727 52.8973 11.426C53.267 13.2847 53.0773 15.2113 52.3521 16.9622C51.6268 18.7131 50.3987 20.2096 48.8229 21.2625C47.2472 22.3154 45.3946 22.8774 43.4995 22.8774C40.9591 22.8745 38.5236 21.864 36.7273 20.0677C34.931 18.2714 33.9205 15.836 33.9175 13.2956ZM59.9674 47.6669H54.5756V38.0849C54.5756 37.7042 54.4243 37.339 54.1551 37.0698C53.8859 36.8005 53.5207 36.6493 53.1399 36.6493C52.7592 36.6493 52.394 36.8005 52.1248 37.0698C51.8555 37.339 51.7043 37.7042 51.7043 38.0849V47.6669H35.2947V38.0849C35.2947 37.7042 35.1434 37.339 34.8742 37.0698C34.605 36.8005 34.2398 36.6493 33.859 36.6493C33.4783 36.6493 33.1131 36.8005 32.8439 37.0698C32.5746 37.339 32.4234 37.7042 32.4234 38.0849V47.6669H27.0316V34.6421C27.0343 32.2842 27.9721 30.0237 29.6394 28.3565C31.3066 26.6892 33.5671 25.7514 35.9249 25.7487H51.074C53.4319 25.7514 55.6924 26.6892 57.3596 28.3565C59.0268 30.0237 59.9647 32.2842 59.9674 34.6421V47.6669ZM61.4748 18.0338C61.4748 16.427 61.9513 14.8563 62.844 13.5203C63.7367 12.1843 65.0055 11.1431 66.4899 10.5282C67.9744 9.91328 69.6079 9.75239 71.1838 10.0659C72.7597 10.3793 74.2073 11.1531 75.3434 12.2892C76.4796 13.4254 77.2533 14.873 77.5668 16.4489C77.8803 18.0248 77.7194 19.6583 77.1045 21.1427C76.4896 22.6272 75.4483 23.896 74.1124 24.7887C72.7764 25.6814 71.2057 26.1578 69.5989 26.1578C67.4451 26.1553 65.3802 25.2986 63.8572 23.7756C62.3343 22.2525 61.4776 20.1876 61.4752 18.0338H61.4748ZM83.698 47.6669H79.3996V39.5429C79.3996 39.1621 79.2483 38.7969 78.9791 38.5277C78.7099 38.2585 78.3447 38.1072 77.9639 38.1072C77.5832 38.1072 77.218 38.2585 76.9488 38.5277C76.6795 38.7969 76.5283 39.1621 76.5283 39.5429V47.6669H62.8387V34.6421C62.8403 32.7412 62.3783 30.8686 61.4928 29.1865C61.9975 29.0818 62.5117 29.0289 63.0271 29.0288H76.1715C78.167 29.031 80.0801 29.8247 81.4911 31.2358C82.9021 32.6468 83.6958 34.56 83.698 36.5554V47.6669Z" fill="#FF8D24"/>
</svg>
