<svg width="51" height="51" viewBox="0 0 51 51" fill="none" xmlns="http://www.w3.org/2000/svg">
<path d="M18.0383 17.0422V10.0166H34.74C37.8713 10.0166 40.4187 12.5628 40.4187 15.6925C40.4187 18.8238 37.8713 21.3712 34.74 21.3712H27.8761C27.326 21.3712 26.88 21.8172 26.88 22.3673C26.88 22.9173 27.326 23.3634 27.8761 23.3634H34.74C38.9697 23.3634 42.4109 19.9222 42.4109 15.6925C42.4109 11.4643 38.9697 8.02443 34.74 8.02443H18.0383V0.996094C18.0383 0.446051 17.5922 0 17.0422 0H0.996094C0.446051 0 0 0.446051 0 0.996094V17.0422C0 17.5922 0.446051 18.0383 0.996094 18.0383H17.0422C17.5922 18.0383 18.0383 17.5922 18.0383 17.0422ZM7.15076 1.99219H10.8875V5.76539L9.54317 4.93684C9.22293 4.73951 8.81872 4.73931 8.49827 4.93664L7.15086 5.76629V1.99219H7.15076ZM16.0461 16.0461H1.99219V1.99219H5.15857V7.54949C5.15857 7.91038 5.3538 8.24307 5.66887 8.41908C5.98403 8.59509 6.36982 8.58703 6.67692 8.39757L9.02013 6.95463L11.3608 8.39737C11.5208 8.49598 11.7021 8.54549 11.8835 8.54549C12.0506 8.54549 12.218 8.50345 12.3691 8.41908C12.6843 8.24307 12.8796 7.91038 12.8796 7.54939V1.99219H16.046V16.0461H16.0461Z" fill="#3B4FFF"/>
<path d="M46.8872 43.2029C48.9252 40.525 50.8093 37.9579 50.77 34.0933C50.7673 29.5109 47.0397 25.7841 42.4582 25.7841C37.8752 25.7841 34.1463 29.5114 34.1435 34.0938C34.1046 37.958 35.9888 40.5257 38.0283 43.2029C36.0189 43.7645 34.64 44.693 34.1318 45.8227H9.29596C7.59702 45.8227 6.21484 44.4419 6.21484 42.7446C6.21484 41.0456 7.59702 39.6635 9.29596 39.6635H22.8065C25.6039 39.6635 27.8798 37.3889 27.8798 34.593C27.8798 31.7956 25.6039 29.5197 22.8065 29.5197H10.1797C8.48235 29.5197 7.10147 28.1389 7.10147 26.4415C7.10147 24.7442 8.48235 23.3633 10.1797 23.3633H18.9299C19.4799 23.3633 19.926 22.9172 19.926 22.3672C19.926 21.8171 19.4799 21.3711 18.9299 21.3711H10.1797C7.38386 21.3711 5.10928 23.6457 5.10928 26.4415C5.10928 29.2373 7.38386 31.5119 10.1797 31.5119H22.8065C24.5054 31.5119 25.8876 32.8941 25.8876 34.593C25.8876 36.2904 24.5054 37.6713 22.8065 37.6713H9.29596C6.49853 37.6713 4.22266 39.9471 4.22266 42.7446C4.22266 45.5403 6.49853 47.8149 9.29596 47.8149H34.1305C34.5152 48.6768 35.4067 49.4285 36.7345 49.9887C38.2798 50.6406 40.3125 50.9997 42.4582 50.9997C44.6027 50.9997 46.6346 50.6406 48.1796 49.9886C49.9975 49.2212 50.9987 48.0955 50.9987 46.8186C50.9987 45.2438 49.4601 43.9223 46.8872 43.2029ZM36.1356 34.1092C36.1357 34.1058 36.1357 34.1023 36.1357 34.0988C36.1357 30.6126 38.972 27.7763 42.4582 27.7763C45.9429 27.7763 48.7778 30.6126 48.7778 34.0988C48.7778 34.1023 48.7778 34.1058 48.7779 34.1092C48.8126 37.3873 47.1164 39.6143 45.1525 42.1926C44.9476 42.4616 42.9503 44.8427 42.9503 44.8427C42.7781 45.0416 42.5992 45.1575 42.4581 45.1618C42.2635 45.1561 42.0651 44.96 41.9648 44.8442C41.9648 44.8442 39.9711 42.4652 39.7673 42.198C37.7999 39.6177 36.101 37.3896 36.1356 34.1092ZM42.4582 49.0075C38.2193 49.0075 35.907 47.5615 35.907 46.8186C35.907 46.3122 37.0215 45.4008 39.4012 44.9213L40.4569 46.1462C41.1726 46.9731 41.9366 47.1506 42.4516 47.154H42.458C42.458 47.154 42.4624 47.154 42.4645 47.154C42.9782 47.1506 43.7407 46.9731 44.4572 46.1453L45.514 44.9212C47.8924 45.4008 49.0063 46.3123 49.0063 46.8186C49.0065 47.5615 46.6952 49.0075 42.4582 49.0075Z" fill="#3B4FFF"/>
<path d="M22.4062 22.3672C22.4062 22.9172 22.8523 23.3633 23.4023 23.3633H23.4051C23.9552 23.3633 24.3998 22.9172 24.3998 22.3672C24.3998 21.8171 23.9524 21.3711 23.4022 21.3711C22.8521 21.3711 22.4062 21.817 22.4062 22.3672Z" fill="#3B4FFF"/>
</svg>
