<svg width="47" height="55" viewBox="0 0 47 55" fill="none" xmlns="http://www.w3.org/2000/svg">
<path d="M21.6683 0.706017C21.5103 0.728493 20.935 0.807159 20.371 0.874588C19.0287 1.04316 16.6711 1.63879 15.34 2.167C5.3794 6.06669 -0.407432 16.1137 1.19438 26.7339C2.29986 34.0388 6.49616 40.3323 13.8735 45.7379C14.5165 46.2212 14.9677 46.6033 14.8775 46.6033C14.7872 46.6033 14.4037 46.7606 14.0202 46.9517C11.0422 48.4239 11.0873 52.6832 14.0879 54.1554L14.8436 54.5263L23.2362 54.56C31.4371 54.5937 31.6627 54.5825 32.4072 54.3577C33.4111 54.0543 34.3474 53.2114 34.8212 52.1999C35.0919 51.5931 35.137 51.3458 35.137 50.5367C35.1483 49.4016 34.8438 48.6262 34.0767 47.7945C33.6255 47.3113 32.4298 46.6033 32.0688 46.6033C31.9785 46.6033 32.3057 46.3111 32.7907 45.9627C34.6971 44.5916 36.0056 43.4678 37.7992 41.6697C42.2888 37.1856 44.7028 32.7127 45.7519 26.9924C46.0001 25.6213 46.1016 22.542 45.9324 21.1373C45.4135 16.7094 43.7214 12.6861 40.8788 9.10103C39.9876 7.9772 37.7767 5.83068 36.6373 4.97657C33.8624 2.91996 30.7264 1.54889 27.4213 0.964497C26.1917 0.739731 22.4241 0.571156 21.6683 0.706017ZM25.8195 2.56034C32.5538 3.29082 38.5776 7.55014 41.8489 13.8998C44.4208 18.8784 44.9059 24.0255 43.3153 29.4873C41.1946 36.8035 34.8438 43.5352 25.7969 48.0418C23.428 49.2218 23.507 49.2218 21.2622 48.0642C14.7196 44.6815 10.2638 41.1302 7.2181 36.8259C3.51814 31.6114 1.91633 24.4638 3.16845 18.7098C4.97331 10.4047 12.3732 3.63921 20.8222 2.56034C21.9503 2.42548 24.5448 2.41424 25.8195 2.56034ZM19.4009 49.1768C23.1234 51.1997 23.8792 51.1997 27.6694 49.1319L29.2036 48.289H30.388C31.4596 48.289 31.6288 48.3227 32.1703 48.6037C33.2871 49.1881 33.6932 50.4805 33.0953 51.6156C32.9712 51.8628 32.6554 52.1999 32.3959 52.391L31.9109 52.7281L23.7213 52.7619C14.5391 52.7956 14.9339 52.8293 14.1781 51.9977C13.4787 51.2222 13.3998 50.2894 13.9412 49.3454C14.4263 48.525 14.9677 48.3115 16.6372 48.3003L17.754 48.289L19.4009 49.1768Z" fill="#3B4FFF"/>
<path d="M21.0934 5.29213C16.7166 5.92147 12.9715 7.92189 9.97097 11.2484C6.83502 14.7098 5.10912 19.7334 5.5265 24.2062C6.2146 31.6797 10.2981 37.3325 16.7505 39.7488C19.2434 40.6928 21.5334 41.0524 24.2519 40.9513C27.0495 40.8389 29.2491 40.2995 31.6519 39.1307C37.2244 36.4222 40.6423 31.3762 41.4094 24.7456C42.0524 19.0928 39.6158 13.1477 35.1149 9.40535C32.6784 7.37122 29.9936 6.07881 26.9141 5.47194C25.4138 5.16851 22.5599 5.08984 21.0934 5.29213ZM26.9931 7.37122C30.1403 8.04551 32.7912 9.47278 34.9796 11.653C37.2582 13.9119 38.6119 16.4967 39.3451 19.9581C39.7512 21.8911 39.7737 24.5995 39.4015 26.3415C38.7021 29.5781 37.2695 32.1966 34.9232 34.523C32.5881 36.8605 29.9824 38.2653 26.6546 38.9846C25.1544 39.3105 22.1087 39.333 20.5407 39.0295C14.6185 37.8832 9.8356 33.6801 8.04202 28.0609C7.48928 26.3415 7.3088 25.1502 7.29752 23.397C7.29752 18.8231 8.95573 14.6424 11.9676 11.653C14.4944 9.13563 17.4724 7.7196 21.4995 7.11273C21.6913 7.09026 22.7516 7.07902 23.8684 7.10149C25.38 7.13521 26.1809 7.20264 26.9931 7.37122Z" fill="#3B4FFF"/>
<path d="M15.3652 13.3837C14.8237 13.5748 14.1469 14.1816 13.8536 14.7211L13.6055 15.1931V23.1161C13.6055 31.0166 13.6055 31.0391 13.8536 31.4886C14.1695 32.073 14.6207 32.4888 15.2411 32.7698C15.7375 32.9946 15.9518 33.0058 23.4307 33.0058C31.9925 33.0058 31.7669 33.0283 32.5565 32.2416C33.4025 31.3987 33.3461 32.0618 33.3461 23.1161C33.3461 14.1704 33.4025 14.8335 32.5565 13.9906C31.7669 13.2039 31.9925 13.2264 23.4307 13.2376C17.7002 13.2376 15.6472 13.2826 15.3652 13.3837ZM18.9636 17.7779C18.9636 20.6661 19.0201 21.0707 19.4713 21.2505C19.5728 21.2842 21.4115 21.318 23.5435 21.318H27.4352L27.7059 21.037L27.988 20.7673V17.8903V15.0245H29.5108C30.9885 15.0245 31.0562 15.0357 31.3157 15.3055L31.5977 15.5752V23.1161V30.657L31.3157 30.9267L31.0449 31.2077H23.5435C19.4261 31.2077 15.9631 31.1739 15.8615 31.1402C15.5231 31.0054 15.3539 30.4659 15.3539 29.4657V28.5105H18.2304H21.1182L21.3889 28.2295C21.7612 27.8699 21.7612 27.3529 21.3889 26.9933L21.1182 26.7123H18.2304H15.3539V21.2618C15.3539 16.6653 15.3765 15.7438 15.5231 15.474C15.6134 15.3055 15.7487 15.1369 15.8277 15.1032C15.9067 15.0695 16.6512 15.0357 17.4746 15.0357L18.9636 15.0245V17.7779ZM26.1831 17.2722V19.5198H23.4758H20.7685V17.2722V15.0245H23.4758H26.1831V17.2722Z" fill="#3B4FFF"/>
<path d="M23.9604 26.8459C23.5995 27.0257 23.4191 27.5313 23.577 27.9358C23.78 28.3964 24.1296 28.5088 25.404 28.5088C26.4528 28.5088 26.5543 28.4863 26.8024 28.2279C26.9829 28.0594 27.0844 27.8234 27.0844 27.6099C27.0844 27.3965 26.9829 27.1605 26.8024 26.992C26.543 26.7336 26.4528 26.7111 25.3701 26.7223C24.7273 26.7223 24.0958 26.7785 23.9604 26.8459Z" fill="#3B4FFF"/>
</svg>
