<svg width="39" height="51" viewBox="0 0 39 51" fill="none" xmlns="http://www.w3.org/2000/svg">
<g clip-path="url(#clip0_10862_33541)">
<path d="M39.0009 18.9497C38.9274 21.3037 38.2608 23.7352 37.2976 26.0973C35.6514 30.1373 33.4283 33.8807 30.944 37.4532C28.0761 41.576 25.0395 45.584 22.0165 49.6026C20.6015 51.4837 18.4003 51.4463 16.9173 49.6133C11.9896 43.5212 7.3095 37.2661 3.64432 30.3323C2.24573 27.6871 0.955976 24.9884 0.368241 22.0492C-0.744645 16.4755 0.697482 11.4762 4.25382 7.08081C7.80744 2.68541 12.5148 0.318036 18.218 0.032135C26.0925 -0.363317 32.1358 2.81366 36.3289 9.34932C37.9234 11.8369 38.9302 15.5964 39.0009 18.9471V18.9497ZM19.3499 47.8338C19.6546 47.4784 19.807 47.3181 19.9376 47.1471C21.5321 45.0736 23.143 43.0135 24.7102 40.9214C28.5006 35.8687 31.8746 30.5755 34.3344 24.7586C35.4718 22.0679 36.0595 19.3559 35.5344 16.398C33.4365 4.61992 19.4098 -0.870993 9.67132 6.30059C4.59667 10.0387 1.30426 17.5656 4.46878 24.47C6.26463 28.3845 8.15845 32.2375 10.6318 35.7752C13.4426 39.7991 16.3813 43.7376 19.3526 47.8311L19.3499 47.8338Z" fill="#3B4FFF"/>
<path d="M27.5973 19.0673C27.434 23.7833 24.2069 27.0378 19.4669 27.0351C14.7569 27.0351 11.4019 23.826 11.3829 19.126C11.3665 14.41 14.7324 11.1555 19.4724 11.1582C24.1824 11.1582 27.3986 14.3672 27.5946 19.0673H27.5973ZM24.3702 19.1153C24.3811 16.4728 22.1417 14.2737 19.4561 14.2871C16.7895 14.3004 14.58 16.4647 14.5692 19.0779C14.5583 21.7205 16.7976 23.9196 19.4833 23.9062C22.1498 23.8928 24.3593 21.7285 24.3702 19.1153Z" fill="#3B4FFF"/>
</g>
<defs>
<clipPath id="clip0_10862_33541">
<rect width="39" height="51" fill="white"/>
</clipPath>
</defs>
</svg>
