<svg width="48" height="41" viewBox="0 0 48 41" fill="none" xmlns="http://www.w3.org/2000/svg">
<g clip-path="url(#clip0_10862_33658)">
<path d="M26.868 41.0003C20.5532 41.0003 14.2409 41.0052 7.92606 40.9954C6.71322 40.9954 5.52042 40.8386 4.39779 40.3389C1.40578 39.004 0.0576165 36.6159 0.0300519 33.5174C-0.0250773 27.6341 0.0125108 21.7482 0.0125108 15.8648C0.0125108 11.1204 0.0125108 6.37598 0.0125108 1.63155C0.0175226 0.394623 0.85699 -0.247112 2.0122 0.0884518C2.63867 0.269705 2.88424 0.739984 2.97445 1.31559C3.00452 1.51398 2.98448 1.72218 2.98448 1.92548C2.98448 12.372 2.98448 22.8162 2.98448 33.2627C2.98448 36.2779 4.83882 38.0929 7.92606 38.0929C20.5732 38.0929 33.2228 38.0929 45.87 38.0978C46.2208 38.0978 46.5792 38.1272 46.92 38.2006C47.589 38.3427 48.0125 38.911 47.9975 39.5772C47.9824 40.2287 47.569 40.7529 46.92 40.8925C46.5992 40.9611 46.2634 40.9929 45.9326 40.9929C39.5777 40.9978 33.2228 40.9978 26.8654 40.9978L26.868 41.0003Z" fill="#3B4FFF"/>
<path d="M29.8909 24.1948C29.8007 24.114 29.6328 23.967 29.4724 23.8127C27.0993 21.5225 24.7288 19.2324 22.3582 16.9422C21.3083 15.9282 20.6993 15.9233 19.6719 16.9251C16.3566 20.1631 13.0414 23.4036 9.72611 26.6442C9.29259 27.0679 8.8716 27.5088 9.07709 28.1873C9.41037 29.2797 10.6207 29.6226 11.5003 28.878C11.6256 28.7727 11.7408 28.6526 11.8586 28.5375C14.7153 25.7722 17.577 23.0093 20.4287 20.239C20.6016 20.07 20.7244 19.8496 20.8998 19.612C21.2155 19.9059 21.396 20.0676 21.5689 20.2366C23.9545 22.5415 26.34 24.8463 28.7281 27.1512C29.6854 28.077 30.3294 28.077 31.2816 27.1561C34.6119 23.9303 37.9422 20.7044 41.265 17.4737C41.4705 17.2753 41.6209 17.0206 41.7963 16.7928L42.0268 16.9055C42.0268 17.1137 42.0268 17.3194 42.0268 17.5276C42.0268 19.95 42.0193 22.3749 42.0293 24.7973C42.0343 25.9779 42.8938 26.6074 44.0265 26.2816C44.6605 26.0979 44.9963 25.5787 44.9988 24.7508C45.0013 22.3063 44.9988 19.8643 44.9988 17.4198C44.9988 16.0972 45.0013 14.7721 44.9988 13.4494C44.9963 12.3521 44.4951 11.7814 43.39 11.7765C39.4733 11.752 35.5541 11.7593 31.6375 11.7765C31.0135 11.7789 30.4472 11.9749 30.164 12.6142C29.926 13.153 30.0011 13.6502 30.3444 14.1132C30.7203 14.6202 31.2917 14.6667 31.858 14.6692C34.2536 14.679 36.6517 14.6741 39.0473 14.6741H39.6588C36.4187 17.8362 33.1861 20.991 29.8934 24.207L29.8909 24.1948Z" fill="#3B4FFF"/>
</g>
<defs>
<clipPath id="clip0_10862_33658">
<rect width="48" height="41" fill="white"/>
</clipPath>
</defs>
</svg>
