<svg width="92" height="21" viewBox="0 0 92 21" fill="none" xmlns="http://www.w3.org/2000/svg">
<path d="M8.29173 5.29194C8.74075 3.90998 10.6959 3.90998 11.1449 5.29194L11.5634 6.58008C11.7642 7.19811 12.3402 7.61655 12.99 7.61655H14.3444C15.7975 7.61655 16.4017 9.47598 15.2261 10.3301L14.1304 11.1262C13.6046 11.5082 13.3847 12.1852 13.5855 12.8032L14.004 14.0914C14.453 15.4733 12.8713 16.6225 11.6957 15.7684L10.6 14.9723C10.0743 14.5904 9.36236 14.5904 8.83663 14.9723L7.74088 15.7684C6.56531 16.6225 4.98359 15.4733 5.43262 14.0914L5.85116 12.8032C6.05197 12.1852 5.83198 11.5082 5.30625 11.1262L4.2105 10.3301C3.03493 9.47598 3.63909 7.61655 5.09217 7.61655H6.4466C7.09644 7.61655 7.67237 7.19811 7.87318 6.58008L8.29173 5.29194Z" fill="#FFBF1A"/>
<path d="M26.4324 5.29194C26.8814 3.90998 28.8365 3.90998 29.2855 5.29194L29.7041 6.58008C29.9049 7.19811 30.4808 7.61655 31.1306 7.61655H32.4851C33.9382 7.61655 34.5423 9.47598 33.3668 10.3301L32.271 11.1262C31.7453 11.5082 31.5253 12.1852 31.7261 12.8032L32.1446 14.0914C32.5937 15.4733 31.0119 16.6225 29.8364 15.7684L28.7406 14.9723C28.2149 14.5904 27.503 14.5904 26.9773 14.9723L25.8815 15.7684C24.7059 16.6225 23.1242 15.4733 23.5732 14.0914L23.9918 12.8032C24.1926 12.1852 23.9726 11.5082 23.4469 11.1262L22.3511 10.3301C21.1756 9.47598 21.7797 7.61655 23.2328 7.61655H24.5872C25.2371 7.61655 25.813 7.19811 26.0138 6.58008L26.4324 5.29194Z" fill="#FFBF1A"/>
<path d="M44.573 5.29194C45.022 3.90998 46.9771 3.90998 47.4261 5.29194L47.8447 6.58008C48.0455 7.19811 48.6214 7.61655 49.2713 7.61655H50.6257C52.0788 7.61655 52.6829 9.47598 51.5074 10.3301L50.4116 11.1262C49.8859 11.5082 49.6659 12.1852 49.8667 12.8032L50.2853 14.0914C50.7343 15.4733 49.1526 16.6225 47.977 15.7684L46.8812 14.9723C46.3555 14.5904 45.6436 14.5904 45.1179 14.9723L44.0221 15.7684C42.8466 16.6225 41.2648 15.4733 41.7139 14.0914L42.1324 12.8032C42.3332 12.1852 42.1132 11.5082 41.5875 11.1262L40.4917 10.3301C39.3162 9.47598 39.9203 7.61655 41.3734 7.61655H42.7278C43.3777 7.61655 43.9536 7.19811 44.1544 6.58008L44.573 5.29194Z" fill="#FFBF1A"/>
<path d="M62.7136 5.29194C63.1626 3.90998 65.1177 3.90998 65.5668 5.29194L65.9853 6.58008C66.1861 7.19811 66.7621 7.61655 67.4119 7.61655H68.7663C70.2194 7.61655 70.8236 9.47598 69.648 10.3301L68.5522 11.1262C68.0265 11.5082 67.8065 12.1852 68.0073 12.8032L68.4259 14.0914C68.8749 15.4733 67.2932 16.6225 66.1176 15.7684L65.0219 14.9723C64.4961 14.5904 63.7842 14.5904 63.2585 14.9723L62.1628 15.7684C60.9872 16.6225 59.4055 15.4733 59.8545 14.0914L60.273 12.8032C60.4738 12.1852 60.2539 11.5082 59.7281 11.1262L58.6324 10.3301C57.4568 9.47598 58.061 7.61655 59.514 7.61655H60.8685C61.5183 7.61655 62.0942 7.19811 62.2951 6.58008L62.7136 5.29194Z" fill="#FFBF1A"/>
<path d="M80.8542 5.29194C81.3033 3.90998 83.2584 3.90998 83.7074 5.29194L84.1259 6.58008C84.3267 7.19811 84.9027 7.61655 85.5525 7.61655H86.9069C88.36 7.61655 88.9642 9.47598 87.7886 10.3301L86.6929 11.1262C86.1671 11.5082 85.9472 12.1852 86.148 12.8032L86.5665 14.0914C87.0155 15.4733 85.4338 16.6225 84.2582 15.7684L83.1625 14.9723C82.6368 14.5904 81.9249 14.5904 81.3991 14.9723L80.3034 15.7684C79.1278 16.6225 77.5461 15.4733 77.9951 14.0914L78.4137 12.8032C78.6145 12.1852 78.3945 11.5082 77.8687 11.1262L76.773 10.3301C75.5974 9.47598 76.2016 7.61655 77.6547 7.61655H79.0091C79.6589 7.61655 80.2349 7.19811 80.4357 6.58008L80.8542 5.29194Z" fill="#FFBF1A"/>
</svg>
