<svg width="70" height="40" viewBox="0 0 70 40" fill="none" xmlns="http://www.w3.org/2000/svg">
<path d="M61.7782 20.4301C63.0954 19.2419 64.0216 17.6824 64.4346 15.9573C64.8475 14.2321 64.7279 12.4223 64.0914 10.7665C63.455 9.11065 62.3316 7.68664 60.8695 6.6822C59.4073 5.67777 57.6751 5.1401 55.9012 5.1401C54.1272 5.1401 52.395 5.67777 50.9328 6.6822C49.4707 7.68664 48.3473 9.11065 47.7109 10.7665C47.0744 12.4223 46.9548 14.2321 47.3678 15.9573C47.7807 17.6824 48.7069 19.2419 50.0241 20.4301C49.3457 20.4806 48.6762 20.615 48.0309 20.8302C47.1855 19.907 46.1635 19.1626 45.0254 18.6411C43.8874 18.1197 42.6563 17.8317 41.405 17.7942C42.9818 16.4908 44.118 14.7326 44.6584 12.7596C45.1988 10.7865 45.1172 8.69475 44.4246 6.76982C43.7321 4.84488 42.4623 3.18058 40.7888 2.0041C39.1152 0.82762 37.1193 0.196289 35.0735 0.196289C33.0278 0.196289 31.0319 0.82762 29.3583 2.0041C27.6847 3.18058 26.415 4.84488 25.7224 6.76982C25.0299 8.69475 24.9482 10.7865 25.4887 12.7596C26.0291 14.7326 27.1653 16.4908 28.7421 17.7942C27.4906 17.8317 26.2594 18.1198 25.1212 18.6415C23.983 19.1631 22.9609 19.9077 22.1155 20.8312C21.4704 20.6156 20.801 20.4809 20.1227 20.4302C21.4399 19.2421 22.3661 17.6826 22.779 15.9575C23.192 14.2323 23.0724 12.4225 22.436 10.7667C21.7995 9.11096 20.6762 7.68696 19.214 6.68254C17.7519 5.67812 16.0197 5.14045 14.2458 5.14045C12.4719 5.14045 10.7397 5.67812 9.27754 6.68254C7.81541 7.68696 6.69205 9.11096 6.05562 10.7667C5.41919 12.4225 5.29957 14.2323 5.71253 15.9575C6.1255 17.6826 7.05166 19.2421 8.36887 20.4302C6.28486 20.5914 4.33822 21.5324 2.91734 23.0654C1.49646 24.5984 0.705804 26.6108 0.703125 28.701V38.7139C0.703125 39.0177 0.82383 39.3091 1.03869 39.524C1.25354 39.7388 1.54495 39.8595 1.84881 39.8595H68.2983C68.6021 39.8595 68.8935 39.7388 69.1084 39.524C69.3233 39.3091 69.444 39.0177 69.444 38.7139V28.701C69.4413 26.6108 68.6507 24.5984 67.2298 23.0653C65.8089 21.5322 63.8623 20.5913 61.7782 20.4301ZM7.76252 13.9205C7.76252 12.6382 8.14275 11.3848 8.85514 10.3186C9.56752 9.25248 10.58 8.42153 11.7647 7.93084C12.9493 7.44015 14.2529 7.31177 15.5105 7.56193C16.7681 7.8121 17.9233 8.42957 18.83 9.33627C19.7366 10.243 20.3541 11.3982 20.6042 12.6558C20.8543 13.9134 20.7259 15.2169 20.2352 16.4016C19.7445 17.5862 18.9135 18.5987 17.8474 19.3111C16.7812 20.0234 15.5277 20.4036 14.2455 20.4036C12.5267 20.4016 10.8788 19.7179 9.66347 18.5025C8.4481 17.2871 7.76446 15.6393 7.76252 13.9205ZM19.6405 27.1741V37.5682H8.71602V31.0851C8.71602 30.7812 8.59531 30.4898 8.38045 30.2749C8.1656 30.0601 7.87419 29.9394 7.57033 29.9394C7.26648 29.9394 6.97507 30.0601 6.76022 30.2749C6.54536 30.4898 6.42465 30.7812 6.42465 31.0851V37.5682H2.99449V28.701C2.99631 27.1087 3.62969 25.582 4.75569 24.4561C5.88169 23.3301 7.40834 22.6967 9.00072 22.695H19.4903C19.9018 22.6948 20.3122 22.7366 20.7152 22.82C20.0082 24.1624 19.6393 25.657 19.6405 27.1741ZM27.427 10.1393C27.427 8.62694 27.8754 7.14855 28.7156 5.89106C29.5558 4.63357 30.75 3.65347 32.1472 3.0747C33.5445 2.49592 35.0819 2.34447 36.5652 2.6395C38.0485 2.93453 39.411 3.66278 40.4804 4.73217C41.5498 5.80155 42.2781 7.16404 42.5732 8.64733C42.8682 10.1306 42.7168 11.6681 42.1381 13.0653C41.5593 14.4626 40.5792 15.6568 39.3218 16.497C38.0643 17.3372 36.5859 17.7857 35.0735 17.7857C33.0463 17.7834 31.1027 16.9771 29.6692 15.5436C28.2357 14.1101 27.4293 12.1666 27.427 10.1393ZM48.2152 37.5682H43.9125V29.9216C43.9125 29.6178 43.7918 29.3264 43.5769 29.1115C43.3621 28.8967 43.0706 28.7759 42.7668 28.7759C42.4629 28.7759 42.1715 28.8967 41.9567 29.1115C41.7418 29.3264 41.6211 29.6178 41.6211 29.9216V37.5682H28.526V29.9216C28.526 29.6178 28.4053 29.3264 28.1904 29.1115C27.9756 28.8967 27.6842 28.7759 27.3803 28.7759C27.0764 28.7759 26.785 28.8967 26.5702 29.1115C26.3553 29.3264 26.2346 29.6178 26.2346 29.9216V37.5682H21.9319V27.1741C21.934 25.2925 22.6824 23.4886 24.0129 22.1581C25.3434 20.8277 27.1473 20.0792 29.0289 20.0771H41.1182C42.9998 20.0792 44.8037 20.8277 46.1342 22.1581C47.4646 23.4886 48.2131 25.2925 48.2152 27.1741V37.5682ZM49.4182 13.9205C49.4182 12.6382 49.7984 11.3848 50.5108 10.3186C51.2232 9.2525 52.2357 8.42154 53.4203 7.93085C54.605 7.44016 55.9085 7.31177 57.1661 7.56192C58.4237 7.81208 59.5789 8.42953 60.4856 9.33622C61.3922 10.2429 62.0097 11.3981 62.2599 12.6557C62.51 13.9133 62.3816 15.2168 61.8909 16.4015C61.4002 17.5861 60.5693 18.5986 59.5031 19.311C58.437 20.0234 57.1835 20.4036 55.9013 20.4036C54.1825 20.4016 52.5347 19.7179 51.3194 18.5025C50.104 17.2871 49.4204 15.6393 49.4185 13.9205H49.4182ZM67.1526 37.5682H63.7224V31.0851C63.7224 30.7812 63.6017 30.4898 63.3869 30.2749C63.172 30.0601 62.8806 29.9394 62.5768 29.9394C62.2729 29.9394 61.9815 30.0601 61.7666 30.2749C61.5518 30.4898 61.4311 30.7812 61.4311 31.0851V37.5682H50.5066V27.1741C50.5079 25.6572 50.1392 24.1628 49.4325 22.8206C49.8353 22.737 50.2456 22.6948 50.657 22.6947H61.1464C62.7388 22.6965 64.2655 23.3298 65.3915 24.4559C66.5175 25.5819 67.1509 27.1086 67.1526 28.701V37.5682Z" fill="#3B4FFF"/>
</svg>
