<svg width="62" height="47" viewBox="0 0 62 47" fill="none" xmlns="http://www.w3.org/2000/svg">
<path d="M12 37C11.4067 37 10.8266 37.1759 10.3333 37.5056C9.83994 37.8352 9.45543 38.3038 9.22836 38.852C9.0013 39.4001 8.94189 40.0033 9.05765 40.5853C9.1734 41.1672 9.45912 41.7018 9.87868 42.1213C10.2982 42.5409 10.8328 42.8266 11.4147 42.9424C11.9967 43.0581 12.5999 42.9987 13.148 42.7716C13.6962 42.5446 14.1648 42.1601 14.4944 41.6667C14.8241 41.1734 15 40.5933 15 40C14.9991 39.2046 14.6827 38.4421 14.1203 37.8797C13.5579 37.3173 12.7954 37.0009 12 37ZM12 41C11.8022 41 11.6089 40.9414 11.4444 40.8315C11.28 40.7216 11.1518 40.5654 11.0761 40.3827C11.0004 40.2 10.9806 39.9989 11.0192 39.8049C11.0578 39.6109 11.153 39.4327 11.2929 39.2929C11.4327 39.153 11.6109 39.0578 11.8049 39.0192C11.9989 38.9806 12.2 39.0004 12.3827 39.0761C12.5654 39.1518 12.7216 39.28 12.8315 39.4444C12.9414 39.6089 13 39.8022 13 40C12.9997 40.2651 12.8942 40.5193 12.7068 40.7068C12.5193 40.8943 12.2651 40.9997 12 41Z" fill="#3B4FFF"/>
<path d="M50 37C49.4067 37 48.8266 37.1759 48.3333 37.5056C47.8399 37.8352 47.4554 38.3038 47.2284 38.852C47.0013 39.4001 46.9419 40.0033 47.0576 40.5853C47.1734 41.1672 47.4591 41.7018 47.8787 42.1213C48.2982 42.5409 48.8328 42.8266 49.4147 42.9424C49.9967 43.0581 50.5999 42.9987 51.1481 42.7716C51.6962 42.5446 52.1648 42.1601 52.4944 41.6667C52.8241 41.1734 53 40.5933 53 40C52.9991 39.2046 52.6828 38.4421 52.1203 37.8797C51.5579 37.3173 50.7954 37.0009 50 37ZM50 41C49.8022 41 49.6089 40.9414 49.4444 40.8315C49.28 40.7216 49.1518 40.5654 49.0761 40.3827C49.0004 40.2 48.9806 39.9989 49.0192 39.8049C49.0578 39.6109 49.153 39.4327 49.2929 39.2929C49.4327 39.153 49.6109 39.0578 49.8049 39.0192C49.9989 38.9806 50.2 39.0004 50.3827 39.0761C50.5654 39.1518 50.7216 39.28 50.8315 39.4444C50.9414 39.6089 51 39.8022 51 40C50.9997 40.2651 50.8943 40.5193 50.7068 40.7068C50.5193 40.8943 50.2651 40.9997 50 41Z" fill="#3B4FFF"/>
<path d="M61.8413 23.4588L52.8413 9.45875C52.7506 9.31798 52.6261 9.20221 52.4792 9.12206C52.3322 9.0419 52.1674 8.99994 52 9H40V3.5C39.999 2.57206 39.6299 1.68241 38.9737 1.02626C38.3176 0.370104 37.4279 0.00102566 36.5 0H3.5C2.57206 0.00102566 1.68241 0.370104 1.02626 1.02626C0.370104 1.68241 0.00102566 2.57206 0 3.5V40C0 40.2652 0.105357 40.5196 0.292893 40.7071C0.48043 40.8946 0.734784 41 1 41H5.0725C5.31288 42.6659 6.14551 44.1893 7.41781 45.2912C8.69011 46.3931 10.3169 46.9996 12 46.9996C13.6831 46.9996 15.3099 46.3931 16.5822 45.2912C17.8545 44.1893 18.6871 42.6659 18.9275 41H43.0725C43.3129 42.6659 44.1455 44.1893 45.4178 45.2912C46.6901 46.3931 48.3169 46.9996 50 46.9996C51.6831 46.9996 53.3099 46.3931 54.5822 45.2912C55.8545 44.1893 56.6871 42.6659 56.9275 41H61C61.2652 41 61.5196 40.8946 61.7071 40.7071C61.8946 40.5196 62 40.2652 62 40V24C62 23.8081 61.9449 23.6203 61.8413 23.4588ZM12 45C11.0111 45 10.0444 44.7068 9.22215 44.1574C8.3999 43.6079 7.75904 42.8271 7.3806 41.9134C7.00216 40.9998 6.90315 39.9945 7.09607 39.0246C7.289 38.0546 7.7652 37.1637 8.46447 36.4645C9.16373 35.7652 10.0546 35.289 11.0245 35.0961C11.9945 34.9032 12.9998 35.0022 13.9134 35.3806C14.827 35.759 15.6079 36.3999 16.1574 37.2222C16.7068 38.0444 17 39.0111 17 40C16.9987 41.3257 16.4715 42.5967 15.5341 43.5341C14.5967 44.4715 13.3257 44.9987 12 45ZM38 39H18.9275C18.6871 37.3341 17.8545 35.8107 16.5822 34.7088C15.3099 33.6069 13.6831 33.0004 12 33.0004C10.3169 33.0004 8.69011 33.6069 7.41781 34.7088C6.14551 35.8107 5.31288 37.3341 5.0725 39H2V29H38V39ZM38 27H2V3.5C2.00033 3.10228 2.15847 2.72094 2.43971 2.43971C2.72094 2.15847 3.10228 2.00033 3.5 2H36.5C36.8977 2.00033 37.2791 2.15847 37.5603 2.43971C37.8415 2.72094 37.9997 3.10228 38 3.5V27ZM53.3825 14L59.1688 23H45V14H53.3825ZM50 45C49.0111 45 48.0444 44.7068 47.2222 44.1574C46.3999 43.6079 45.759 42.8271 45.3806 41.9134C45.0022 40.9998 44.9032 39.9945 45.0961 39.0246C45.289 38.0546 45.7652 37.1637 46.4645 36.4645C47.1637 35.7652 48.0546 35.289 49.0246 35.0961C49.9945 34.9032 50.9998 35.0022 51.9134 35.3806C52.8271 35.759 53.6079 36.3999 54.1574 37.2222C54.7068 38.0444 55 39.0111 55 40C54.9987 41.3257 54.4715 42.5967 53.5341 43.5341C52.5967 44.4715 51.3257 44.9987 50 45ZM60 31H58C57.7348 31 57.4804 30.8946 57.2929 30.7071C57.1054 30.5196 57 30.2652 57 30C57 29.7348 57.1054 29.4804 57.2929 29.2929C57.4804 29.1054 57.7348 29 58 29H60V31ZM60 27H58C57.2044 27 56.4413 27.3161 55.8787 27.8787C55.3161 28.4413 55 29.2044 55 30C55 30.7957 55.3161 31.5587 55.8787 32.1213C56.4413 32.6839 57.2044 33 58 33H60V39H56.9275C56.6871 37.3341 55.8545 35.8107 54.5822 34.7088C53.3099 33.6069 51.6831 33.0004 50 33.0004C48.3169 33.0004 46.6901 33.6069 45.4178 34.7088C44.1455 35.8107 43.3129 37.3341 43.0725 39H40V11H51.4538L52.0975 12H44C43.7348 12 43.4804 12.1054 43.2929 12.2929C43.1054 12.4804 43 12.7348 43 13V24C43 24.2652 43.1054 24.5196 43.2929 24.7071C43.4804 24.8946 43.7348 25 44 25H60V27Z" fill="#3B4FFF"/>
<path d="M47 27H44C43.7348 27 43.4804 27.1054 43.2929 27.2929C43.1054 27.4804 43 27.7348 43 28C43 28.2652 43.1054 28.5196 43.2929 28.7071C43.4804 28.8946 43.7348 29 44 29H47C47.2652 29 47.5196 28.8946 47.7071 28.7071C47.8946 28.5196 48 28.2652 48 28C48 27.7348 47.8946 27.4804 47.7071 27.2929C47.5196 27.1054 47.2652 27 47 27Z" fill="#3B4FFF"/>
<path d="M26 33H34C34.2652 33 34.5196 32.8946 34.7071 32.7071C34.8946 32.5196 35 32.2652 35 32C35 31.7348 34.8946 31.4804 34.7071 31.2929C34.5196 31.1054 34.2652 31 34 31H26C25.7348 31 25.4804 31.1054 25.2929 31.2929C25.1054 31.4804 25 31.7348 25 32C25 32.2652 25.1054 32.5196 25.2929 32.7071C25.4804 32.8946 25.7348 33 26 33Z" fill="#3B4FFF"/>
<path d="M34 34H31C30.7348 34 30.4804 34.1054 30.2929 34.2929C30.1054 34.4804 30 34.7348 30 35C30 35.2652 30.1054 35.5196 30.2929 35.7071C30.4804 35.8946 30.7348 36 31 36H34C34.2652 36 34.5196 35.8946 34.7071 35.7071C34.8946 35.5196 35 35.2652 35 35C35 34.7348 34.8946 34.4804 34.7071 34.2929C34.5196 34.1054 34.2652 34 34 34Z" fill="#3B4FFF"/>
</svg>
