<svg width="22" height="13" viewBox="0 0 22 13" fill="none" xmlns="http://www.w3.org/2000/svg">
<path d="M6.32656 10.3594V0H7.77969V12H6.45156L6.32656 10.3594ZM0.639063 7.86719V7.70312C0.639063 7.05729 0.717188 6.47135 0.873438 5.94531C1.0349 5.41406 1.26146 4.95833 1.55313 4.57812C1.85 4.19792 2.20156 3.90625 2.60781 3.70312C3.01927 3.49479 3.4776 3.39062 3.98281 3.39062C4.51406 3.39062 4.9776 3.48438 5.37344 3.67188C5.77448 3.85417 6.11302 4.1224 6.38906 4.47656C6.67031 4.82552 6.89167 5.2474 7.05313 5.74219C7.21458 6.23698 7.32656 6.79688 7.38906 7.42188V8.14062C7.33177 8.76042 7.21979 9.31771 7.05313 9.8125C6.89167 10.3073 6.67031 10.7292 6.38906 11.0781C6.11302 11.4271 5.77448 11.6953 5.37344 11.8828C4.9724 12.0651 4.50365 12.1562 3.96719 12.1562C3.4724 12.1562 3.01927 12.0495 2.60781 11.8359C2.20156 11.6224 1.85 11.3229 1.55313 10.9375C1.26146 10.5521 1.0349 10.099 0.873438 9.57812C0.717188 9.05208 0.639063 8.48177 0.639063 7.86719ZM2.09219 7.70312V7.86719C2.09219 8.28906 2.13385 8.6849 2.21719 9.05469C2.30573 9.42448 2.44115 9.75 2.62344 10.0312C2.80573 10.3125 3.0375 10.5339 3.31875 10.6953C3.6 10.8516 3.93594 10.9297 4.32656 10.9297C4.80573 10.9297 5.19896 10.8281 5.50625 10.625C5.81875 10.4219 6.06875 10.1536 6.25625 9.82031C6.44375 9.48698 6.58958 9.125 6.69375 8.73438V6.85156C6.63125 6.5651 6.5401 6.28906 6.42031 6.02344C6.30573 5.7526 6.15469 5.51302 5.96719 5.30469C5.7849 5.09115 5.55833 4.92188 5.2875 4.79688C5.02188 4.67188 4.70677 4.60938 4.34219 4.60938C3.94635 4.60938 3.60521 4.69271 3.31875 4.85938C3.0375 5.02083 2.80573 5.24479 2.62344 5.53125C2.44115 5.8125 2.30573 6.14062 2.21719 6.51562C2.13385 6.88542 2.09219 7.28125 2.09219 7.70312ZM11.7922 3.54688V12H10.3469V3.54688H11.7922ZM10.3 2.3125L11.8156 0.015625H13.5578L11.4641 2.3125H10.3ZM19.3828 10.5547V6.20312C19.3828 5.86979 19.3151 5.58073 19.1797 5.33594C19.0495 5.08594 18.8516 4.89323 18.5859 4.75781C18.3203 4.6224 17.9922 4.55469 17.6016 4.55469C17.237 4.55469 16.9167 4.61719 16.6406 4.74219C16.3698 4.86719 16.1562 5.03125 16 5.23438C15.849 5.4375 15.7734 5.65625 15.7734 5.89062H14.3281C14.3281 5.58854 14.4062 5.28906 14.5625 4.99219C14.7188 4.69531 14.9427 4.42708 15.2344 4.1875C15.5312 3.94271 15.8854 3.75 16.2969 3.60938C16.7135 3.46354 17.1771 3.39062 17.6875 3.39062C18.3021 3.39062 18.8438 3.49479 19.3125 3.70312C19.7865 3.91146 20.1562 4.22656 20.4219 4.64844C20.6927 5.0651 20.8281 5.58854 20.8281 6.21875V10.1562C20.8281 10.4375 20.8516 10.737 20.8984 11.0547C20.9505 11.3724 21.026 11.6458 21.125 11.875V12H19.6172C19.5443 11.8333 19.487 11.612 19.4453 11.3359C19.4036 11.0547 19.3828 10.7943 19.3828 10.5547ZM19.6328 6.875L19.6484 7.89062H18.1875C17.776 7.89062 17.4089 7.92448 17.0859 7.99219C16.763 8.05469 16.4922 8.15104 16.2734 8.28125C16.0547 8.41146 15.888 8.57552 15.7734 8.77344C15.6589 8.96615 15.6016 9.19271 15.6016 9.45312C15.6016 9.71875 15.6615 9.96094 15.7812 10.1797C15.901 10.3984 16.0807 10.5729 16.3203 10.7031C16.5651 10.8281 16.8646 10.8906 17.2188 10.8906C17.6615 10.8906 18.0521 10.7969 18.3906 10.6094C18.7292 10.4219 18.9974 10.1927 19.1953 9.92188C19.3984 9.65104 19.5078 9.38802 19.5234 9.13281L20.1406 9.82812C20.1042 10.0469 20.0052 10.2891 19.8438 10.5547C19.6823 10.8203 19.4661 11.0755 19.1953 11.3203C18.9297 11.5599 18.612 11.7604 18.2422 11.9219C17.8776 12.0781 17.4661 12.1562 17.0078 12.1562C16.4349 12.1562 15.9323 12.0443 15.5 11.8203C15.0729 11.5964 14.7396 11.2969 14.5 10.9219C14.2656 10.5417 14.1484 10.1172 14.1484 9.64844C14.1484 9.19531 14.237 8.79688 14.4141 8.45312C14.5911 8.10417 14.8464 7.8151 15.1797 7.58594C15.513 7.35156 15.9141 7.17448 16.3828 7.05469C16.8516 6.9349 17.375 6.875 17.9531 6.875H19.6328Z" fill="#9899AA"/>
</svg>
