<svg width="39" height="39" viewBox="0 0 39 39" fill="none" xmlns="http://www.w3.org/2000/svg">
<rect width="39" height="39" rx="5" fill="#7596FF"/>
<g clip-path="url(#clip0_1615_19245)">
<path d="M19.8725 30.9919C13.8858 31.2154 8.6404 26.7034 8.05531 20.6277C7.42817 14.1145 12.2146 8.6457 18.3335 8.05676C25.0602 7.41012 30.3669 12.3789 30.9448 18.356C31.6032 25.1721 26.3145 30.8404 19.8725 30.9919ZM28.8639 19.5063C28.8663 14.3296 24.6866 10.1421 19.5073 10.1325C14.3399 10.1229 10.1386 14.3188 10.1362 19.4919C10.1338 24.6685 14.3135 28.856 19.4928 28.8657C24.6601 28.8753 28.8615 24.6794 28.8639 19.5063Z" fill="white"/>
<path d="M18.4279 16.4198C18.4279 15.421 18.4219 14.421 18.4303 13.4222C18.4363 12.6661 19.0622 12.1866 19.7891 12.3657C20.2648 12.4823 20.57 12.9077 20.5712 13.4714C20.5736 15.1806 20.5772 16.8897 20.5664 18.5976C20.5652 18.8344 20.6385 18.9738 20.8355 19.1036C22.0021 19.8741 23.1639 20.6517 24.3196 21.4378C25.0225 21.9161 25.0669 22.6625 24.4482 23.201C24.1502 23.4594 23.8222 23.4895 23.4738 23.3404C23.3285 23.2779 23.1927 23.189 23.0605 23.1012C21.6969 22.195 20.3393 21.2791 18.9685 20.3825C18.5828 20.1301 18.4219 19.8056 18.4267 19.3573C18.4363 18.3777 18.4291 17.3981 18.4303 16.4198H18.4279Z" fill="white"/>
</g>
<defs>
<clipPath id="clip0_1615_19245">
<rect width="23" height="23" fill="white" transform="translate(8 8)"/>
</clipPath>
</defs>
</svg>
