<svg width="39" height="39" viewBox="0 0 39 39" fill="none" xmlns="http://www.w3.org/2000/svg">
<rect width="39" height="39" rx="5" fill="#7596FF"/>
<g clip-path="url(#clip0_1615_19245)">
<path d="M19.5117 11.9141C19.8706 12.0136 20.2425 12.0693 20.5726 12.218C24.0712 13.7946 27.5619 15.3898 31.0565 16.9743C31.6372 17.2371 31.9948 17.671 31.9895 18.32C31.9843 18.9544 31.632 19.379 31.063 19.6378C27.558 21.2277 24.0568 22.8242 20.5531 24.4141C19.8523 24.7326 19.1424 24.7286 18.4417 24.4101C14.9379 22.8189 11.4355 21.225 7.9317 19.6338C7.36145 19.3764 7.01303 18.9464 7.01172 18.312C7.01042 17.6777 7.35492 17.2437 7.92387 16.9849C11.4381 15.3898 14.9484 13.7866 18.4665 12.2007C18.7875 12.0561 19.1516 12.0109 19.5117 11.9154V11.9141ZM8.79427 18.2988C8.9626 18.3837 9.05526 18.4341 9.15052 18.4779C12.4233 19.9696 15.6974 21.4573 18.9676 22.9542C19.3447 23.1268 19.6931 23.1095 20.0611 22.941C23.3326 21.4467 26.6054 19.9576 29.8782 18.466C29.9682 18.4248 30.0556 18.3744 30.1861 18.3081C30.07 18.2444 30.0165 18.2098 29.9578 18.1833C26.6445 16.6757 23.3313 15.1695 20.0206 13.6592C19.6592 13.4946 19.3186 13.5013 18.9571 13.6672C16.834 14.6426 14.7069 15.6074 12.5812 16.5762C11.3467 17.1389 10.1109 17.7016 8.79557 18.3001L8.79427 18.2988Z" fill="white"/>
<path d="M8.77917 24.6682C9.7135 25.0942 10.5513 25.4791 11.3903 25.8613C13.9128 27.0105 16.4365 28.1558 18.9564 29.3104C19.3178 29.4763 19.6584 29.4843 20.0199 29.3197C23.3227 27.8121 26.6281 26.3098 29.9322 24.8062C30.0001 24.7757 30.0627 24.7372 30.2036 24.6629C29.91 24.5249 29.6725 24.4134 29.435 24.3019C29.1597 24.1732 28.8778 24.0564 28.6077 23.9144C28.2006 23.7021 28.0231 23.3013 28.1536 22.9337C28.2932 22.5395 28.6977 22.3152 29.1401 22.4944C29.9126 22.8076 30.6943 23.1301 31.4068 23.5587C32.2159 24.0458 32.1845 25.2455 31.4107 25.7949C31.2698 25.8944 31.1132 25.9754 30.9553 26.0471C27.5233 27.6104 24.0887 29.1684 20.6567 30.7331C19.9012 31.0781 19.1521 31.0967 18.394 30.7517C14.9215 29.1711 11.4478 27.5945 7.97663 26.0112C7.07492 25.5998 6.74738 24.7505 7.21846 23.9675C7.36201 23.7286 7.61125 23.5176 7.86049 23.3875C8.45685 23.0744 9.0793 22.8116 9.69524 22.5395C10.0463 22.3843 10.3855 22.3643 10.6844 22.6736C10.9206 22.9178 10.9754 23.215 10.8227 23.4924C10.7144 23.6875 10.5147 23.864 10.3164 23.9675C9.84791 24.213 9.35595 24.4094 8.78047 24.6682H8.77917Z" fill="white"/>
<path d="M28.8701 8.77517C29.533 8.77517 30.1411 8.76721 30.7479 8.77915C31.0728 8.78579 31.3703 8.87205 31.5256 9.21444C31.6561 9.50243 31.6235 9.77316 31.4538 10.0293C31.2738 10.3 30.9906 10.3398 30.7061 10.3438C30.1111 10.3531 29.5147 10.3465 28.8714 10.3465C28.8714 10.88 28.8714 11.3935 28.8714 11.9071C28.8714 12.0505 28.8766 12.1938 28.8701 12.3371C28.8505 12.8003 28.5451 13.1108 28.1093 13.1201C27.6643 13.1294 27.3355 12.8082 27.3276 12.3265C27.3172 11.6789 27.325 11.0299 27.325 10.3451C26.9388 10.3451 26.5838 10.3451 26.2289 10.3451C26.0005 10.3451 25.7735 10.3465 25.5451 10.3451C24.9305 10.3398 24.586 10.0545 24.5899 9.55418C24.5938 9.05519 24.9344 8.7765 25.5555 8.77385C26.1297 8.77119 26.7026 8.77385 27.325 8.77385C27.325 8.24035 27.325 7.72676 27.325 7.21317C27.325 7.06984 27.3198 6.92652 27.3263 6.78319C27.3459 6.32003 27.6513 6.00949 28.0871 6.0002C28.5321 5.99091 28.8609 6.31207 28.8688 6.79381C28.8792 7.44143 28.8714 8.09039 28.8714 8.77517H28.8701Z" fill="white"/>
</g>
<defs>
<clipPath id="clip0_1615_19245">
<rect width="25" height="25" fill="white" transform="translate(7 6)"/>
</clipPath>
</defs>
</svg>
