<svg width="32" height="13" viewBox="0 0 32 13" fill="none" xmlns="http://www.w3.org/2000/svg">
<path d="M2.19688 0V12H0.751564V0H2.19688ZM1.85313 7.45312L1.25156 7.42969C1.25677 6.85156 1.34271 6.31771 1.50938 5.82812C1.67604 5.33333 1.91042 4.90365 2.2125 4.53906C2.51458 4.17448 2.87396 3.89323 3.29063 3.69531C3.7125 3.49219 4.17865 3.39062 4.68906 3.39062C5.10573 3.39062 5.48073 3.44792 5.81406 3.5625C6.1474 3.67188 6.43125 3.84896 6.66563 4.09375C6.90521 4.33854 7.0875 4.65625 7.2125 5.04688C7.3375 5.43229 7.4 5.90365 7.4 6.46094V12H5.94688V6.44531C5.94688 6.0026 5.88177 5.64844 5.75156 5.38281C5.62136 5.11198 5.43125 4.91667 5.18125 4.79688C4.93125 4.67188 4.62396 4.60938 4.25938 4.60938C3.9 4.60938 3.57188 4.6849 3.275 4.83594C2.98333 4.98698 2.73073 5.19531 2.51719 5.46094C2.30886 5.72656 2.14479 6.03125 2.025 6.375C1.91042 6.71354 1.85313 7.07292 1.85313 7.45312ZM9.38125 7.86719V7.6875C9.38125 7.07812 9.46979 6.51302 9.64688 5.99219C9.82396 5.46615 10.0792 5.01042 10.4125 4.625C10.7458 4.23438 11.1495 3.93229 11.6234 3.71875C12.0974 3.5 12.6286 3.39062 13.2172 3.39062C13.8109 3.39062 14.3448 3.5 14.8188 3.71875C15.2979 3.93229 15.7042 4.23438 16.0375 4.625C16.376 5.01042 16.6339 5.46615 16.8109 5.99219C16.988 6.51302 17.0766 7.07812 17.0766 7.6875V7.86719C17.0766 8.47656 16.988 9.04167 16.8109 9.5625C16.6339 10.0833 16.376 10.5391 16.0375 10.9297C15.7042 11.3151 15.3005 11.6172 14.8266 11.8359C14.3578 12.0495 13.8266 12.1562 13.2328 12.1562C12.6391 12.1562 12.1052 12.0495 11.6313 11.8359C11.1573 11.6172 10.751 11.3151 10.4125 10.9297C10.0792 10.5391 9.82396 10.0833 9.64688 9.5625C9.46979 9.04167 9.38125 8.47656 9.38125 7.86719ZM10.8266 7.6875V7.86719C10.8266 8.28906 10.876 8.6875 10.975 9.0625C11.074 9.43229 11.2224 9.76042 11.4203 10.0469C11.6234 10.3333 11.876 10.5599 12.1781 10.7266C12.4802 10.888 12.8318 10.9688 13.2328 10.9688C13.6286 10.9688 13.975 10.888 14.2719 10.7266C14.574 10.5599 14.824 10.3333 15.0219 10.0469C15.2198 9.76042 15.3682 9.43229 15.4672 9.0625C15.5714 8.6875 15.6234 8.28906 15.6234 7.86719V7.6875C15.6234 7.27083 15.5714 6.8776 15.4672 6.50781C15.3682 6.13281 15.2172 5.80208 15.0141 5.51562C14.8161 5.22396 14.5661 4.99479 14.2641 4.82812C13.9672 4.66146 13.6182 4.57812 13.2172 4.57812C12.8214 4.57812 12.4724 4.66146 12.1703 4.82812C11.8734 4.99479 11.6234 5.22396 11.4203 5.51562C11.2224 5.80208 11.074 6.13281 10.975 6.50781C10.876 6.8776 10.8266 7.27083 10.8266 7.6875ZM20.5344 4.875V12H19.0891V3.54688H20.4953L20.5344 4.875ZM23.175 3.5L23.1672 4.84375C23.0474 4.81771 22.9328 4.80208 22.8234 4.79688C22.7193 4.78646 22.5995 4.78125 22.4641 4.78125C22.1307 4.78125 21.8365 4.83333 21.5813 4.9375C21.326 5.04167 21.1099 5.1875 20.9328 5.375C20.7557 5.5625 20.6151 5.78646 20.5109 6.04688C20.412 6.30208 20.3469 6.58333 20.3156 6.89062L19.9094 7.125C19.9094 6.61458 19.9589 6.13542 20.0578 5.6875C20.162 5.23958 20.3208 4.84375 20.5344 4.5C20.7479 4.15104 21.0188 3.88021 21.3469 3.6875C21.6802 3.48958 22.076 3.39062 22.5344 3.39062C22.6385 3.39062 22.7583 3.40365 22.8938 3.42969C23.0292 3.45052 23.1229 3.47396 23.175 3.5ZM29.3828 10.5547V6.20312C29.3828 5.86979 29.3151 5.58073 29.1797 5.33594C29.0495 5.08594 28.8516 4.89323 28.5859 4.75781C28.3203 4.6224 27.9922 4.55469 27.6016 4.55469C27.237 4.55469 26.9167 4.61719 26.6406 4.74219C26.3698 4.86719 26.1563 5.03125 26 5.23438C25.849 5.4375 25.7734 5.65625 25.7734 5.89062H24.3281C24.3281 5.58854 24.4063 5.28906 24.5625 4.99219C24.7188 4.69531 24.9427 4.42708 25.2344 4.1875C25.5313 3.94271 25.8854 3.75 26.2969 3.60938C26.7135 3.46354 27.1771 3.39062 27.6875 3.39062C28.3021 3.39062 28.8438 3.49479 29.3125 3.70312C29.7865 3.91146 30.1563 4.22656 30.4219 4.64844C30.6927 5.0651 30.8281 5.58854 30.8281 6.21875V10.1562C30.8281 10.4375 30.8516 10.737 30.8984 11.0547C30.9505 11.3724 31.026 11.6458 31.125 11.875V12H29.6172C29.5443 11.8333 29.487 11.612 29.4453 11.3359C29.4036 11.0547 29.3828 10.7943 29.3828 10.5547ZM29.6328 6.875L29.6484 7.89062H28.1875C27.776 7.89062 27.4089 7.92448 27.0859 7.99219C26.763 8.05469 26.4922 8.15104 26.2734 8.28125C26.0547 8.41146 25.888 8.57552 25.7734 8.77344C25.6589 8.96615 25.6016 9.19271 25.6016 9.45312C25.6016 9.71875 25.6615 9.96094 25.7813 10.1797C25.901 10.3984 26.0807 10.5729 26.3203 10.7031C26.5651 10.8281 26.8646 10.8906 27.2188 10.8906C27.6615 10.8906 28.0521 10.7969 28.3906 10.6094C28.7292 10.4219 28.9974 10.1927 29.1953 9.92188C29.3984 9.65104 29.5078 9.38802 29.5234 9.13281L30.1406 9.82812C30.1042 10.0469 30.0052 10.2891 29.8438 10.5547C29.6823 10.8203 29.4661 11.0755 29.1953 11.3203C28.9297 11.5599 28.612 11.7604 28.2422 11.9219C27.8776 12.0781 27.4661 12.1562 27.0078 12.1562C26.4349 12.1562 25.9323 12.0443 25.5 11.8203C25.0729 11.5964 24.7396 11.2969 24.5 10.9219C24.2656 10.5417 24.1484 10.1172 24.1484 9.64844C24.1484 9.19531 24.237 8.79688 24.4141 8.45312C24.5911 8.10417 24.8464 7.8151 25.1797 7.58594C25.513 7.35156 25.9141 7.17448 26.3828 7.05469C26.8516 6.9349 27.375 6.875 27.9531 6.875H29.6328Z" fill="#9899AA"/>
</svg>
