<svg width="35" height="34" viewBox="0 0 35 34" fill="none" xmlns="http://www.w3.org/2000/svg">
<rect x="1.25" y="0.75" width="32.5" height="32.5" rx="4.25" stroke="white" stroke-width="1.5"/>
<g clip-path="url(#clip0_1342_19925)">
<path d="M17.4152 27.1449C15.0144 27.1449 12.6136 27.1429 10.2138 27.147C9.6221 27.148 9.1502 26.9467 8.88586 26.3932C8.80738 26.228 8.75265 26.0339 8.75058 25.8511C8.70618 22.5499 11.1979 19.6451 14.463 19.1991C14.9214 19.1361 15.3882 19.1061 15.8508 19.1061C17.1839 19.1061 18.519 19.0803 19.849 19.1516C21.9153 19.2631 23.5488 20.2265 24.7859 21.8694C25.6719 23.0455 26.0508 24.393 26.0787 25.848C26.0911 26.4572 25.6285 26.9962 25.0265 27.1067C24.8675 27.1356 24.7012 27.1439 24.5391 27.1439C22.1641 27.146 19.7891 27.1449 17.4152 27.1449V27.1449ZM17.4059 25.9192C17.9397 25.9192 18.4726 25.9192 19.0064 25.9192C20.8558 25.9192 22.7052 25.9151 24.5546 25.9234C24.7911 25.9244 24.8923 25.8573 24.8551 25.6157C24.8003 25.2594 24.7745 24.897 24.6961 24.5459C24.1839 22.2607 22.3851 20.6075 20.1123 20.4124C18.3889 20.2647 16.6366 20.2854 14.908 20.3917C12.2893 20.5528 10.158 22.6015 9.97525 25.5754C9.9546 25.9161 9.96389 25.9192 10.3088 25.9192C12.6745 25.9192 15.0402 25.9192 17.4059 25.9192V25.9192Z" fill="white"/>
<path d="M22.3655 12.2875C22.319 15.0683 20.262 17.2089 17.4028 17.2182C14.6168 17.2265 12.4432 15.0343 12.469 12.2627C12.4958 9.48194 14.5683 7.34135 17.4275 7.33205C20.2135 7.32379 22.3706 9.51498 22.3655 12.2875ZM21.1398 12.2793C21.1408 10.2048 19.5031 8.55982 17.4255 8.55053C15.3561 8.54123 13.6957 10.1893 13.6905 12.2586C13.6854 14.3455 15.3355 16.0028 17.4182 15.9997C19.4928 15.9977 21.1398 14.3517 21.1408 12.2793H21.1398Z" fill="white"/>
</g>
<defs>
<clipPath id="clip0_1342_19925">
<rect width="17.3292" height="19.8136" fill="white" transform="translate(8.75 7.33203)"/>
</clipPath>
</defs>
</svg>
