<svg width="25" height="22" viewBox="0 0 25 22" fill="none" xmlns="http://www.w3.org/2000/svg">
<path d="M12.5116 21.9961C9.46056 21.9961 6.40951 22.0092 3.35978 21.9829C2.85301 21.979 2.30837 21.8831 1.84862 21.6783C0.627421 21.1373 0.01878 20.1171 0.0135557 18.7949C-0.0047297 13.6005 -0.0034236 8.40477 0.0109435 3.20907C0.0161679 1.38001 1.36406 0.0354526 3.1939 0.0131309C5.07207 -0.0105038 6.95024 0.00393961 8.8284 0.00919178C9.74006 0.0131309 10.5146 0.341391 11.1546 1.0071C11.788 1.66625 12.4358 2.31227 13.0928 2.94778C13.2091 3.05939 13.4076 3.14342 13.5682 3.14342C16.2823 3.15524 18.9964 3.14867 21.7104 3.15261C23.4071 3.15524 24.6531 4.18204 24.9574 5.82334C24.9914 6.00454 24.9953 6.1923 24.9953 6.37744C24.9979 10.5135 25.0005 14.6509 24.9953 18.787C24.994 20.3167 24.051 21.5365 22.5973 21.8897C22.2851 21.9659 21.9534 21.9921 21.6308 21.9934C18.5915 22 15.5509 21.9961 12.5116 21.9961ZM12.4816 20.4427C15.5979 20.4427 18.7129 20.4454 21.8293 20.4414C22.8454 20.4401 23.4619 19.8112 23.4619 18.8146C23.4593 14.6562 23.4645 10.4991 23.4528 6.34067C23.4515 6.05837 23.3822 5.75112 23.2582 5.49902C22.9669 4.90815 22.4392 4.70331 21.8032 4.70463C18.8501 4.70988 15.897 4.70988 12.9439 4.69806C12.7833 4.69806 12.586 4.61403 12.4711 4.50242C11.6378 3.68833 10.8215 2.85849 10.0013 2.03127C9.70349 1.73059 9.34954 1.56515 8.92636 1.56515C6.97244 1.56383 5.01852 1.55595 3.0646 1.56908C2.16862 1.57565 1.5443 2.24661 1.5443 3.14867C1.5443 8.38771 1.5443 13.6254 1.54561 18.8645C1.54561 18.9839 1.55475 19.1047 1.58087 19.2203C1.75981 20.0068 2.33057 20.4414 3.20174 20.4414C6.29327 20.444 9.38741 20.4427 12.4816 20.4427Z" fill="#363740"/>
<path d="M15.6155 9.42651C15.6168 11.1282 14.2036 12.5568 12.5122 12.5621C10.8339 12.5673 9.39586 11.1269 9.39064 9.43439C9.38541 7.74976 10.8182 6.30542 12.5031 6.29885C14.1879 6.29229 15.6129 7.72481 15.6155 9.42651ZM14.0821 9.41601C14.0782 8.49032 13.4173 7.84299 12.4848 7.85086C11.5797 7.85874 10.9253 8.52052 10.924 9.42783C10.924 10.3496 11.5875 11.0114 12.5122 11.01C13.4369 11.0087 14.0848 10.3496 14.0821 9.41601Z" fill="#363740"/>
<path d="M12.7988 14.1016C13.4374 14.1659 14.3739 14.1593 15.2568 14.372C16.8842 14.7646 18.0232 16.4204 17.9578 18.0985C17.9409 18.5252 17.6731 18.8049 17.2447 18.843C16.8529 18.8771 16.5303 18.6355 16.448 18.2271C16.4101 18.0354 16.4127 17.8359 16.3722 17.6441C16.1241 16.4677 15.2477 15.7337 14.0383 15.7127C13.0182 15.6956 11.9981 15.6956 10.9794 15.7127C9.62756 15.735 8.70154 16.637 8.57877 18.0223C8.52913 18.5817 8.23918 18.8771 7.77421 18.8443C7.27267 18.8088 7.001 18.4464 7.05325 17.8805C7.23087 15.9306 8.31232 14.615 10.1487 14.2631C10.9193 14.1147 11.7252 14.1593 12.7988 14.1016Z" fill="#363740"/>
</svg>
