<svg width="39" height="39" viewBox="0 0 39 39" fill="none" xmlns="http://www.w3.org/2000/svg">
<rect width="39" height="39" rx="5" fill="#7596FF"/>
<g clip-path="url(#clip0_3464_18368)">
<path d="M19.512 7.00201C21.7914 7.00201 24.0708 6.9955 26.3501 7.00592C27.2189 7.00982 28.0069 7.2664 28.4549 8.06088C28.6803 8.46072 28.8483 8.95434 28.8522 9.40758C28.8835 12.9788 28.8691 16.5501 28.8704 20.1213C28.8704 20.473 28.7259 20.7478 28.4471 20.9536C26.272 22.5568 24.115 24.1836 21.9151 25.753C20.472 26.7819 18.2851 26.7051 16.8615 25.6527C14.758 24.0989 12.6636 22.5334 10.5587 20.9809C10.2487 20.7517 10.125 20.4704 10.125 20.0966C10.1289 16.5683 10.1263 13.04 10.1276 9.51308C10.1302 7.99967 11.1201 7.00592 12.6414 7.00331C14.9312 6.9981 17.2223 7.00201 19.512 7.00201ZM19.5199 8.54799C17.2509 8.54799 14.9833 8.54799 12.7144 8.54799C11.9146 8.54799 11.675 8.79284 11.675 9.60034C11.675 12.9215 11.6776 16.244 11.6698 19.5652C11.6698 19.81 11.7427 19.9572 11.9394 20.1018C13.8658 21.5123 15.783 22.9332 17.7055 24.349C18.8556 25.1969 20.1451 25.1982 21.2912 24.3542C23.2124 22.9371 25.1297 21.5162 27.0574 20.107C27.2671 19.9533 27.3335 19.7918 27.3322 19.5417C27.3244 16.2206 27.327 12.8981 27.327 9.5769C27.327 8.79675 27.0795 8.54929 26.2954 8.54929C24.0382 8.54929 21.7797 8.54929 19.5225 8.54929L19.5199 8.54799Z" fill="white"/>
<path d="M19.4893 31.9989C16.1888 31.9989 12.8896 32.0054 9.58905 31.9898C9.197 31.9885 8.78021 31.9207 8.41681 31.7775C7.46339 31.3985 7.01794 30.6118 7.01273 29.6272C6.99189 25.4907 7.00231 21.3555 7.00491 17.219C7.00491 16.7137 7.311 16.3933 7.77208 16.3907C8.24358 16.3868 8.54706 16.715 8.54836 17.2437C8.55097 19.7952 8.54836 22.3453 8.54836 24.8968C8.54836 26.4388 8.54836 27.9796 8.54836 29.5217C8.54836 30.1729 8.82319 30.4516 9.48094 30.4529C16.1562 30.4542 22.8328 30.4542 29.508 30.4529C30.1827 30.4529 30.451 30.1755 30.451 29.5008C30.451 25.4295 30.451 21.3594 30.451 17.288C30.451 16.7736 30.6321 16.5196 31.058 16.4245C31.5295 16.319 31.9346 16.6017 31.9906 17.0796C32.0036 17.1864 31.9958 17.2958 31.9958 17.4052C31.9958 21.4115 31.9958 25.4164 31.9958 29.4227C31.9958 31.0286 31.0267 32.0002 29.4195 32.0002C26.1085 32.0015 22.7976 32.0002 19.4867 32.0002L19.4893 31.9989Z" fill="white"/>
<path d="M19.6615 20.8412C19.035 20.8412 18.4957 20.7252 18.0464 20.4934C17.597 20.2616 17.2493 19.9295 17.0031 19.4984C16.7582 19.0673 16.6345 18.5463 16.6345 17.9381V17.5421H15.9116C15.7748 17.5421 15.6641 17.4939 15.5782 17.3989C15.4922 17.3038 15.4492 17.1827 15.4492 17.0381C15.4492 16.8831 15.4922 16.7542 15.5782 16.65C15.6641 16.5458 15.7761 16.4937 15.9116 16.4937H16.6345V15.4035H15.9116C15.7748 15.4035 15.6641 15.3554 15.5782 15.2603C15.4922 15.1652 15.4492 15.0441 15.4492 14.8995C15.4492 14.7445 15.4922 14.6156 15.5782 14.5114C15.6641 14.4072 15.7761 14.3551 15.9116 14.3551H16.6345V13.8367C16.6345 13.1009 16.7686 12.5096 17.037 12.0641C17.3053 11.6187 17.6687 11.2957 18.1271 11.0964C18.5856 10.8972 19.0975 10.7969 19.6602 10.7969C20.2684 10.7969 20.8051 10.9011 21.2687 11.1108C21.7324 11.3204 22.0958 11.6109 22.3589 11.9834C22.622 12.3559 22.7549 12.8013 22.7549 13.3197C22.7549 13.5828 22.6963 13.7599 22.5777 13.8511C22.4592 13.9422 22.2782 13.9878 22.032 13.9878C21.7858 13.9878 21.5931 13.9539 21.4797 13.8862C21.3664 13.8185 21.3091 13.7026 21.3091 13.5385C21.3091 13.3666 21.2792 13.1933 21.2206 13.0201C21.1619 12.8482 21.0682 12.6906 20.9405 12.5499C20.8129 12.4093 20.6501 12.296 20.4495 12.2087C20.2489 12.1227 20.0001 12.0798 19.6992 12.0798C19.1809 12.0798 18.781 12.223 18.4997 12.5096C18.2183 12.7961 18.0776 13.2389 18.0776 13.838V14.3564H19.7409C19.8686 14.3564 19.9819 14.4059 20.0822 14.5062C20.1825 14.6065 20.232 14.7328 20.232 14.8878C20.232 15.0337 20.1825 15.1561 20.0822 15.2564C19.9819 15.3567 19.8686 15.4061 19.7409 15.4061H18.0776V16.4963H19.7409C19.8686 16.4963 19.9819 16.5458 20.0822 16.6461C20.1825 16.7463 20.232 16.874 20.232 17.0277C20.232 17.1735 20.1825 17.296 20.0822 17.3963C19.9819 17.4965 19.8686 17.546 19.7409 17.546H18.0776V17.942C18.0776 18.1243 18.1024 18.3119 18.1532 18.5072C18.2027 18.7026 18.2913 18.8771 18.4189 19.0321C18.5465 19.1871 18.7159 19.3134 18.9295 19.4137C19.1431 19.514 19.4049 19.5635 19.7136 19.5635C20.0861 19.5635 20.3909 19.4905 20.6266 19.346C20.8624 19.2001 21.0356 19.0126 21.145 18.7807C21.2544 18.5489 21.3091 18.2962 21.3091 18.024C21.3182 17.8599 21.3795 17.744 21.4928 17.6763C21.6061 17.6085 21.7858 17.5747 22.0307 17.5747C22.2756 17.5747 22.4696 17.6203 22.583 17.7114C22.6963 17.8026 22.7536 17.9836 22.7536 18.2572C22.7536 18.7755 22.622 19.2301 22.3576 19.6208C22.0945 20.0115 21.7311 20.3137 21.2674 20.5273C20.8038 20.7409 20.2671 20.8477 19.6589 20.8477L19.6615 20.8412Z" fill="white"/>
</g>
<defs>
<clipPath id="clip0_3464_18368">
<rect width="25" height="25" fill="white" transform="translate(7 7)"/>
</clipPath>
</defs>
</svg>
