<svg width="39" height="39" viewBox="0 0 39 39" fill="none" xmlns="http://www.w3.org/2000/svg">
<rect width="39" height="39" rx="5" fill="#7596FF"/>
<g clip-path="url(#clip0_1451_20179)">
<path d="M19.512 7.00201C21.7914 7.00201 24.0708 6.9955 26.3501 7.00592C27.2189 7.00982 28.0069 7.2664 28.4549 8.06088C28.6803 8.46072 28.8483 8.95434 28.8522 9.40758C28.8835 12.9788 28.8691 16.5501 28.8704 20.1213C28.8704 20.473 28.7259 20.7478 28.4471 20.9536C26.272 22.5568 24.115 24.1836 21.9151 25.753C20.472 26.7819 18.2851 26.7051 16.8615 25.6527C14.758 24.0989 12.6636 22.5334 10.5587 20.9809C10.2487 20.7517 10.125 20.4704 10.125 20.0966C10.1289 16.5683 10.1263 13.04 10.1276 9.51308C10.1302 7.99967 11.1201 7.00592 12.6414 7.00331C14.9312 6.9981 17.2223 7.00201 19.512 7.00201ZM19.5199 8.54799C17.2509 8.54799 14.9833 8.54799 12.7144 8.54799C11.9146 8.54799 11.675 8.79284 11.675 9.60034C11.675 12.9215 11.6776 16.244 11.6698 19.5652C11.6698 19.81 11.7427 19.9572 11.9394 20.1018C13.8658 21.5123 15.783 22.9332 17.7055 24.349C18.8556 25.1969 20.1451 25.1982 21.2912 24.3542C23.2124 22.9371 25.1297 21.5162 27.0574 20.107C27.2671 19.9533 27.3335 19.7918 27.3322 19.5417C27.3244 16.2206 27.327 12.8981 27.327 9.5769C27.327 8.79675 27.0795 8.54929 26.2954 8.54929C24.0382 8.54929 21.7797 8.54929 19.5225 8.54929L19.5199 8.54799Z" fill="white"/>
<path d="M19.4893 31.9989C16.1888 31.9989 12.8896 32.0054 9.58905 31.9898C9.197 31.9885 8.78021 31.9207 8.41681 31.7775C7.46339 31.3985 7.01794 30.6118 7.01273 29.6272C6.99189 25.4907 7.00231 21.3555 7.00491 17.219C7.00491 16.7137 7.311 16.3933 7.77208 16.3907C8.24358 16.3868 8.54706 16.715 8.54836 17.2437C8.55097 19.7952 8.54836 22.3453 8.54836 24.8968C8.54836 26.4388 8.54836 27.9796 8.54836 29.5217C8.54836 30.1729 8.82319 30.4516 9.48094 30.4529C16.1562 30.4542 22.8328 30.4542 29.508 30.4529C30.1827 30.4529 30.451 30.1755 30.451 29.5008C30.451 25.4295 30.451 21.3594 30.451 17.288C30.451 16.7736 30.6321 16.5196 31.058 16.4245C31.5295 16.319 31.9346 16.6017 31.9906 17.0796C32.0036 17.1864 31.9958 17.2958 31.9958 17.4052C31.9958 21.4115 31.9958 25.4164 31.9958 29.4227C31.9958 31.0286 31.0267 32.0002 29.4195 32.0002C26.1085 32.0015 22.7976 32.0002 19.4867 32.0002L19.4893 31.9989Z" fill="white"/>
<path d="M19.6615 20.8431C19.035 20.8431 18.4957 20.7272 18.0464 20.4954C17.597 20.2635 17.2493 19.9314 17.0031 19.5003C16.7582 19.0692 16.6345 18.5482 16.6345 17.94V17.5441H15.9116C15.7748 17.5441 15.6641 17.4959 15.5782 17.4008C15.4922 17.3057 15.4492 17.1846 15.4492 17.04C15.4492 16.885 15.4922 16.7561 15.5782 16.6519C15.6641 16.5477 15.7761 16.4956 15.9116 16.4956H16.6345V15.4055H15.9116C15.7748 15.4055 15.6641 15.3573 15.5782 15.2622C15.4922 15.1672 15.4492 15.046 15.4492 14.9015C15.4492 14.7465 15.4922 14.6175 15.5782 14.5133C15.6641 14.4091 15.7761 14.357 15.9116 14.357H16.6345V13.8387C16.6345 13.1028 16.7686 12.5115 17.037 12.0661C17.3053 11.6207 17.6687 11.2977 18.1271 11.0984C18.5856 10.8991 19.0975 10.7988 19.6602 10.7988C20.2684 10.7988 20.8051 10.903 21.2687 11.1127C21.7324 11.3224 22.0958 11.6128 22.3589 11.9853C22.622 12.3578 22.7549 12.8033 22.7549 13.3216C22.7549 13.5847 22.6963 13.7618 22.5777 13.853C22.4592 13.9442 22.2782 13.9898 22.032 13.9898C21.7858 13.9898 21.5931 13.9559 21.4797 13.8882C21.3664 13.8204 21.3091 13.7045 21.3091 13.5404C21.3091 13.3685 21.2792 13.1953 21.2206 13.0221C21.1619 12.8501 21.0682 12.6926 20.9405 12.5519C20.8129 12.4112 20.6501 12.2979 20.4495 12.2107C20.2489 12.1247 20.0001 12.0817 19.6992 12.0817C19.1809 12.0817 18.781 12.225 18.4997 12.5115C18.2183 12.798 18.0776 13.2409 18.0776 13.84V14.3583H19.7409C19.8686 14.3583 19.9819 14.4078 20.0822 14.5081C20.1825 14.6084 20.232 14.7347 20.232 14.8897C20.232 15.0356 20.1825 15.158 20.0822 15.2583C19.9819 15.3586 19.8686 15.4081 19.7409 15.4081H18.0776V16.4982H19.7409C19.8686 16.4982 19.9819 16.5477 20.0822 16.648C20.1825 16.7483 20.232 16.8759 20.232 17.0296C20.232 17.1755 20.1825 17.2979 20.0822 17.3982C19.9819 17.4985 19.8686 17.548 19.7409 17.548H18.0776V17.9439C18.0776 18.1263 18.1024 18.3138 18.1532 18.5092C18.2027 18.7045 18.2913 18.8791 18.4189 19.034C18.5465 19.189 18.7159 19.3154 18.9295 19.4157C19.1431 19.5159 19.4049 19.5654 19.7136 19.5654C20.0861 19.5654 20.3909 19.4925 20.6266 19.3479C20.8624 19.2021 21.0356 19.0145 21.145 18.7827C21.2544 18.5508 21.3091 18.2982 21.3091 18.026C21.3182 17.8619 21.3795 17.746 21.4928 17.6782C21.6061 17.6105 21.7858 17.5766 22.0307 17.5766C22.2756 17.5766 22.4696 17.6222 22.583 17.7134C22.6963 17.8046 22.7536 17.9856 22.7536 18.2591C22.7536 18.7775 22.622 19.232 22.3576 19.6227C22.0945 20.0135 21.7311 20.3156 21.2674 20.5292C20.8038 20.7428 20.2671 20.8496 19.6589 20.8496L19.6615 20.8431Z" fill="white"/>
</g>
<defs>
<clipPath id="clip0_1451_20179">
<rect width="25" height="25" fill="white" transform="translate(7 7)"/>
</clipPath>
</defs>
</svg>
