<svg width="19" height="13" viewBox="0 0 19 13" fill="none" xmlns="http://www.w3.org/2000/svg">
<g clip-path="url(#clip0_11115_32580)">
<path d="M2.3537 5.42285C2.39346 6.8686 2.23048 8.26201 2.63593 9.63668C2.89193 10.5052 3.05809 11.3988 3.25604 12.2829C3.36496 12.7695 3.18052 12.9898 2.66932 12.996C2.14144 13.0015 1.61275 13.0031 1.08486 12.996C0.565722 12.989 0.396384 12.7766 0.513251 12.2728C0.75573 11.2261 1.05545 10.1897 1.2391 9.13368C1.37743 8.33777 1.38299 7.51766 1.42752 6.7077C1.45137 6.26874 1.42036 5.82666 1.43626 5.38692C1.44421 5.17057 1.36868 5.05731 1.16198 4.98311C0.915527 4.89407 0.667484 4.79409 0.445675 4.65819C-0.157739 4.28875 -0.145019 3.47878 0.463165 3.11793C0.607858 3.03202 0.770835 2.97109 0.931428 2.91408C3.55974 1.98461 6.19282 1.0653 8.81874 0.128027C9.29098 -0.0406824 9.72347 -0.0438066 10.1965 0.126465C12.7962 1.05905 15.4022 1.97368 18.0067 2.89455C18.0934 2.92501 18.1816 2.95313 18.2675 2.98515C18.7707 3.17417 19.0013 3.46004 18.9989 3.88728C18.9957 4.33327 18.7564 4.65038 18.2547 4.83158C17.253 5.19322 16.2473 5.54626 15.2424 5.90086C13.5435 6.5015 11.8422 7.0951 10.1464 7.70511C9.71631 7.85976 9.31563 7.86445 8.88076 7.70902C6.86222 6.98575 4.83732 6.28124 2.81481 5.57047C2.68204 5.52361 2.5461 5.48455 2.35291 5.42285H2.3537ZM18.052 3.92087C17.8851 3.84588 17.8199 3.81074 17.7499 3.78652C15.0842 2.83831 12.4202 1.88776 9.7505 0.951267C9.59706 0.897373 9.38559 0.916119 9.22738 0.971574C6.59351 1.89167 3.9636 2.82269 1.3337 3.75294C1.23115 3.78887 1.13575 3.84432 0.963228 3.92477C1.27328 4.04427 1.51179 4.11457 1.72962 4.22548C2.13031 4.42934 2.50873 4.40512 2.93724 4.27078C4.99633 3.62328 7.06574 3.00624 9.13198 2.37983C9.4317 2.28923 9.74652 2.20956 9.90791 2.58525C10.0359 2.88283 9.87055 3.09138 9.42216 3.23041C8.60489 3.48425 7.78602 3.73263 6.96875 3.98413C5.95273 4.29734 4.93749 4.61132 3.87059 4.94093C3.98189 4.99951 4.03675 5.03779 4.09717 5.05887C5.82234 5.66732 7.54593 6.27889 9.27588 6.87406C9.41818 6.92327 9.61296 6.89671 9.76163 6.84594C10.7832 6.49759 11.7985 6.13283 12.8161 5.77355C14.5269 5.169 16.237 4.56368 18.0528 3.92087H18.052ZM2.25274 12.0361C2.13746 11.5456 2.03172 11.0918 1.92519 10.6372C1.89737 10.6388 1.87034 10.6403 1.84251 10.6419C1.73916 11.0957 1.63501 11.5503 1.52451 12.0353H2.25353L2.25274 12.0361Z" fill="#363740"/>
<path d="M9.50351 12.0799C10.9425 12.0518 12.302 11.7683 13.601 11.2192C14.2235 10.956 14.303 10.7966 14.2211 10.146C14.1321 9.43991 14.0478 8.73305 13.9596 8.02697C13.9238 7.74032 13.9747 7.47866 14.3102 7.43649C14.6441 7.39509 14.8047 7.59895 14.8484 7.91996C14.9605 8.75336 15.1147 9.58285 15.1958 10.4186C15.2554 11.038 14.9557 11.5199 14.3968 11.8268C13.4293 12.3587 12.3735 12.6407 11.2939 12.8282C9.19743 13.1929 7.17174 12.8977 5.20886 12.1252C4.96558 12.0291 4.73344 11.9018 4.50925 11.7667C4.00123 11.4613 3.75319 10.9997 3.81361 10.4248C3.90424 9.56332 4.03065 8.70493 4.15706 7.84733C4.1976 7.57005 4.3884 7.39509 4.68256 7.43414C4.97592 7.4732 5.11107 7.6833 5.0745 7.96839C4.98466 8.66119 4.88688 9.35321 4.78273 10.0437C4.67143 10.7802 4.7549 10.9505 5.45133 11.241C6.75357 11.7839 8.11542 12.0541 9.50431 12.0799H9.50351Z" fill="#363740"/>
</g>
<defs>
<clipPath id="clip0_11115_32580">
<rect width="19" height="13" fill="white"/>
</clipPath>
</defs>
</svg>
