<svg width="16" height="15" viewBox="0 0 16 15" fill="none" xmlns="http://www.w3.org/2000/svg">
<path d="M4.0045 3.00752C4.0045 2.53648 3.98446 2.08631 4.01202 1.63865C4.02872 1.36721 4.07299 1.07991 4.18239 0.834363C4.43879 0.258917 4.94657 0.0175477 5.54705 0.0117013C7.18647 -0.00333206 8.82672 -0.00416725 10.4661 0.0108662C11.3865 0.019218 11.9895 0.660643 11.9936 1.58353C11.9962 2.04789 11.9936 2.51142 11.9936 3.00752C12.0922 3.00752 12.1724 3.00669 12.2525 3.00752C12.919 3.01838 13.588 2.99333 14.2511 3.04845C15.219 3.12779 15.9707 3.96799 15.9932 4.94099C16.0058 5.46883 15.9974 5.99667 15.9974 6.52451C15.9974 8.67011 15.9999 10.8165 15.9966 12.9621C15.9949 13.9326 15.3877 14.7102 14.4565 14.9332C14.2695 14.9783 14.0715 14.9967 13.8786 14.9967C9.96003 15 6.04063 15.0008 2.12205 14.9983C0.863467 14.9975 0.00241645 14.1339 0.00158128 12.8745C-8.90357e-05 10.2837 -0.000924196 7.69377 0.00158128 5.10301C0.00241645 4.08575 0.603732 3.29734 1.55164 3.07267C1.73871 3.0284 1.93581 3.01254 2.12957 3.01003C2.67159 3.00168 3.21361 3.00752 3.75563 3.00752C3.83079 3.00752 3.90596 3.00752 4.0045 3.00752ZM0.998763 9.00669C0.993752 9.06181 0.987071 9.09522 0.987071 9.12863C0.986235 10.4415 0.9854 11.7536 0.986235 13.0665C0.986235 13.1217 0.995422 13.1768 1.00795 13.2311C1.12571 13.7447 1.49151 14.0103 2.08614 14.0111C5.45601 14.012 8.82672 14.012 12.1966 14.0111C12.8146 14.0111 13.4335 14.0178 14.0515 14.007C14.6177 13.9969 15.0144 13.5802 15.0144 13.0173C15.0144 11.767 15.0136 10.5167 15.0136 9.26643C15.0136 9.18458 15.0136 9.10357 15.0136 9.01588C13.4969 9.01588 12.002 9.01588 10.5121 9.01588C10.5037 9.04761 10.497 9.06014 10.497 9.0735C10.4954 9.68486 10.4945 10.2954 10.4929 10.9067C10.492 11.321 10.3283 11.4956 9.9166 11.4964C8.63797 11.4997 7.35934 11.4997 6.08071 11.4964C5.68318 11.4956 5.50779 11.3143 5.50529 10.9201C5.50278 10.3572 5.50529 9.79511 5.50362 9.23219C5.50362 9.15869 5.49694 9.0852 5.49276 9.00502C3.98947 9.00669 2.50372 9.00669 0.998763 9.00669ZM14.9986 7.99778C15.0044 7.95519 15.0119 7.92261 15.0119 7.89004C15.0136 6.897 15.0178 5.90396 15.0094 4.91092C15.0086 4.77896 14.9585 4.63698 14.8967 4.51671C14.6921 4.11833 14.3404 3.99305 13.9095 3.99388C10.2064 3.99806 6.5033 3.99639 2.8002 3.99639C2.51541 3.99639 2.23062 3.99054 1.94583 3.99973C1.38628 4.01727 0.984565 4.43653 0.98373 4.99611C0.982895 5.91983 0.98373 6.84355 0.984565 7.76643C0.984565 7.84076 0.984565 7.91426 0.984565 7.99778C5.67232 7.99778 10.3308 7.99778 14.9986 7.99778ZM11.0107 2.99917C11.0107 2.49973 11.014 2.022 11.0098 1.54344C11.0065 1.18765 10.8294 0.998895 10.4703 0.99806C8.82421 0.993049 7.17811 0.993049 5.53201 0.99806C5.17206 0.998895 4.9925 1.20018 4.98999 1.56849C4.98749 1.98525 4.98916 2.40118 4.98999 2.81794C4.98999 2.87724 4.99918 2.93737 5.00419 2.99917C7.00941 2.99917 8.99375 2.99917 11.0107 2.99917ZM9.49151 10.5C9.49151 9.98804 9.49151 9.49945 9.49151 9.01504C8.4843 9.01504 7.49547 9.01504 6.50915 9.01504C6.50915 9.52117 6.50915 10.0089 6.50915 10.5C7.51218 10.5 8.496 10.5 9.49151 10.5Z" fill="#363740"/>
</svg>
