<svg width="16" height="16" viewBox="0 0 16 16" fill="none" xmlns="http://www.w3.org/2000/svg">
<g clip-path="url(#clip0_1401_15172)">
<path d="M4.9979 4.98684V3.99414C4.92199 3.99414 4.84859 3.99414 4.77602 3.99414C4.07536 3.99414 3.37471 3.99414 2.67405 3.99414C1.62306 3.99414 1.00999 3.37715 1.00999 2.32017C1.00999 2.0146 0.989971 1.70652 1.02 1.40429C1.10508 0.556864 1.70814 0.0100052 2.57312 0.0058307C4.52245 -0.00251829 6.47178 -0.00168339 8.42027 0.0058307C9.36366 0.00917029 9.99008 0.657052 9.99174 1.60299C9.99174 1.92944 10.0118 2.25755 9.98257 2.58149C9.9075 3.43893 9.28441 3.9883 8.39942 3.99331C7.60951 3.99832 6.81877 3.99414 6.01218 3.99414V5.00437H6.24406C8.50535 5.00437 10.7675 5.03192 13.0279 4.99352C14.2933 4.97181 15.1532 5.83092 15.2875 7.0098C15.4694 8.61447 15.7563 10.2075 15.9315 11.813C16.0191 12.6145 16.0241 13.4385 15.9448 14.24C15.8397 15.3012 15.0064 15.9908 13.9354 15.9933C9.97506 16.0008 6.01385 16.0033 2.05347 15.9925C0.858181 15.9891 0.0132224 15.1 0.01072 13.9019C0.01072 13.5612 0.0257341 13.2206 0.00738359 12.8816C-0.0409951 11.9925 0.160027 11.13 0.270964 10.2584C0.416934 9.10957 0.592933 7.96492 0.751414 6.81777C0.902389 5.72906 1.70314 5.01773 2.81251 5.00604C3.51984 4.99853 4.22717 5.00353 4.93534 5.00187C4.94868 5.00187 4.96203 4.99602 4.9979 4.98767V4.98684ZM0.999981 11.9933H14.9856C14.9873 11.9599 14.9923 11.939 14.9889 11.919C14.747 10.2659 14.5085 8.61197 14.2582 6.9597C14.1548 6.27676 13.8045 5.99539 13.108 5.99456C12.5458 5.99456 11.9844 5.99456 11.4231 5.99456C8.57291 5.99456 5.72191 5.99456 2.87174 5.99456C2.20695 5.99456 1.84327 6.29178 1.74234 6.9405C1.57218 8.03672 1.41537 9.13461 1.25439 10.2325C1.16931 10.8144 1.08589 11.3972 0.999981 11.9925V11.9933ZM1.00081 13.006C1.00081 13.3984 0.994976 13.7666 1.00499 14.134C1.00749 14.2342 1.04335 14.3394 1.08673 14.4312C1.28775 14.8612 1.64225 15.0098 2.10101 15.009C6.03303 15.004 9.96589 15.0065 13.8979 15.0056C13.9738 15.0056 14.0505 15.0056 14.1265 14.9998C14.5485 14.9622 14.9405 14.6341 14.9806 14.215C15.019 13.8184 14.9889 13.4151 14.9889 13.006H1.00081ZM5.50671 3.00395C6.47678 3.00395 7.44769 3.00562 8.41777 3.00312C8.82565 3.00228 9.00165 2.82278 9.00248 2.41952C9.00248 2.16321 9.00248 1.90606 9.00248 1.64975C9.00248 1.14964 8.8465 0.994351 8.34353 0.994351C6.59689 0.994351 4.85026 0.994351 3.10362 0.994351C2.90927 0.994351 2.71492 0.988506 2.52141 0.996855C2.17775 1.01105 2.00175 1.19556 1.99925 1.53704C1.99675 1.81422 1.99925 2.09224 1.99925 2.36943C1.99925 2.84031 2.16274 3.00395 2.63735 3.00395C3.59408 3.00395 4.54998 3.00395 5.50671 3.00395Z" fill="#363740"/>
<path d="M2.75865 8.00331C2.75614 7.61007 3.10981 7.25691 3.50435 7.25941C3.90222 7.26192 4.25171 7.61425 4.24587 8.00748C4.24087 8.39571 3.90305 8.73217 3.51018 8.74136C3.11732 8.75054 2.76031 8.39988 2.75781 8.00414L2.75865 8.00331Z" fill="#363740"/>
<path d="M7.24151 8.00749C7.23567 8.4024 6.87283 8.75389 6.48497 8.74054C6.08209 8.72634 5.74094 8.37234 5.75429 7.98161C5.7668 7.59171 6.11379 7.25608 6.50082 7.25942C6.89869 7.26193 7.24735 7.61509 7.24235 8.00833L7.24151 8.00749Z" fill="#363740"/>
<path d="M10.2382 8.00001C10.2382 8.39491 9.88282 8.74641 9.48912 8.74056C9.09041 8.73472 8.74342 8.38239 8.75009 7.98915C8.7576 7.60093 9.09709 7.26446 9.48829 7.25862C9.88199 7.25277 10.2373 7.60426 10.2373 7.99917L10.2382 8.00001Z" fill="#363740"/>
<path d="M13.2381 7.99838C13.239 8.39246 12.8853 8.74478 12.4908 8.74061C12.0929 8.73643 11.7442 8.38411 11.7501 7.99087C11.7559 7.60264 12.0946 7.26618 12.4874 7.25866C12.8811 7.25115 13.2373 7.60181 13.2381 7.99755V7.99838Z" fill="#363740"/>
<path d="M5.74513 10.4988C5.74597 10.8938 5.3923 11.2452 4.99777 11.2411C4.59989 11.2369 4.25123 10.8846 4.25791 10.4913C4.26375 10.1031 4.6024 9.76664 4.99526 9.75913C5.38897 9.75245 5.74513 10.1031 5.74597 10.498L5.74513 10.4988Z" fill="#363740"/>
<path d="M8.74505 10.4913C8.75172 10.8846 8.40306 11.2369 8.00519 11.2411C7.61065 11.2453 7.25615 10.8929 7.25782 10.4989C7.25865 10.1115 7.59146 9.77416 7.98767 9.75913C8.37553 9.7441 8.73921 10.0956 8.74588 10.4913H8.74505Z" fill="#363740"/>
<path d="M11.7381 10.4921C11.7439 10.8854 11.3952 11.2377 10.9974 11.241C10.6028 11.2444 10.2492 10.8929 10.25 10.498C10.2517 10.1106 10.5845 9.77328 10.9807 9.75908C11.3686 9.74489 11.7322 10.0964 11.7381 10.4913V10.4921Z" fill="#363740"/>
</g>
<defs>
<clipPath id="clip0_1401_15172">
<rect width="16" height="16" fill="white"/>
</clipPath>
</defs>
</svg>
