<svg width="13" height="17" viewBox="0 0 13 17" fill="none" xmlns="http://www.w3.org/2000/svg">
<path d="M12.9991 8.52262C12.9991 10.6262 13.0018 12.7298 12.9982 14.8325C12.9964 15.8643 12.3392 16.6901 11.3304 16.9281C11.1273 16.976 10.9134 16.9955 10.7049 16.9964C7.90406 17.0009 5.10319 17.0009 2.30142 16.9991C0.937247 16.9982 0.00181286 16.0809 0.00181286 14.7437C-0.000906429 10.5809 0 6.41815 0.000906429 2.2554C0.000906429 1.15344 0.640845 0.316091 1.67599 0.0719022C1.87903 0.0239523 2.09294 0.00352925 2.30142 0.00352925C5.10229 -0.00091055 7.90315 -0.000910549 10.7049 0.000865371C12.0718 0.00175333 12.9973 0.914576 12.9982 2.25628C12.9991 4.34565 12.9991 6.43414 12.9991 8.52262ZM8.66002 15.9477C9.41689 15.9477 10.1384 15.954 10.8599 15.946C11.5098 15.938 11.9331 15.4967 11.9331 14.8556C11.9322 10.6191 11.9322 6.38175 11.9331 2.14529C11.9331 1.49441 11.5062 1.05576 10.8373 1.05487C7.94575 1.05132 5.05425 1.05043 2.16183 1.05576C1.49833 1.05665 1.06687 1.50329 1.06687 2.15239C1.06777 6.38885 1.06687 10.6262 1.06687 14.8627C1.06687 15.4878 1.49742 15.9371 2.1292 15.946C2.81446 15.9557 3.49972 15.9495 4.18498 15.9486C4.22849 15.9486 4.272 15.9406 4.33907 15.9335C4.33907 15.8305 4.33817 15.7364 4.33907 15.6423C4.34814 14.9488 4.30826 14.2509 4.37805 13.5636C4.46688 12.6943 4.98626 12.094 5.83468 11.8205C6.6831 11.547 7.43906 11.7495 8.0645 12.3746C8.4742 12.7839 8.65821 13.2892 8.65911 13.8593C8.66092 14.5439 8.66002 15.2294 8.66002 15.9477ZM7.59497 15.9389C7.59497 15.209 7.59587 14.5021 7.59497 13.7953C7.59406 13.1853 7.13541 12.7466 6.50091 12.7475C5.87003 12.7484 5.40775 13.1924 5.40594 13.7998C5.40413 14.4409 5.40594 15.0829 5.40685 15.724C5.40685 15.7941 5.4141 15.8652 5.41772 15.9389C6.14921 15.9389 6.85441 15.9389 7.59497 15.9389Z" fill="#363740"/>
<path d="M5.40636 4.78975C5.40636 5.03305 5.40817 5.27724 5.40636 5.52054C5.40273 5.98938 5.17341 6.30461 4.69934 6.33835C4.0866 6.38097 3.4666 6.37387 2.85295 6.33125C2.43327 6.30194 2.18582 5.99382 2.17494 5.57737C2.16044 5.04637 2.16044 4.51448 2.17494 3.98348C2.18582 3.56614 2.43237 3.25535 2.85204 3.22871C3.48745 3.18964 4.1292 3.19497 4.76461 3.23493C5.15437 3.2589 5.39548 3.5839 5.40455 3.97105C5.41089 4.24365 5.40545 4.51625 5.40636 4.78975ZM4.33043 4.25875C3.95426 4.25875 3.60528 4.25875 3.2554 4.25875C3.2554 4.61837 3.2554 4.96023 3.2554 5.30032C3.62432 5.30032 3.9742 5.30032 4.33043 5.30032C4.33043 4.94691 4.33043 4.60949 4.33043 4.25875Z" fill="#363740"/>
<path d="M10.8269 4.80124C10.8269 5.03744 10.8287 5.27364 10.8269 5.50984C10.8232 5.99111 10.593 6.30723 10.109 6.34097C9.50349 6.38359 8.88984 6.37737 8.28434 6.33298C7.85288 6.3019 7.60543 5.98934 7.59546 5.56489C7.58276 5.04099 7.58276 4.5171 7.59546 3.9932C7.60543 3.56787 7.85379 3.25175 8.28434 3.22512C8.91975 3.18604 9.5615 3.19581 10.1969 3.23577C10.5713 3.25886 10.8142 3.58474 10.8251 3.95946C10.8323 4.24005 10.8269 4.52065 10.8269 4.80036C10.826 4.80124 10.8269 4.80124 10.8269 4.80124ZM9.74188 5.30649C9.74188 4.94065 9.74188 4.5979 9.74188 4.2587C9.37387 4.2587 9.02489 4.2587 8.67682 4.2587C8.67682 4.61832 8.67682 4.96108 8.67682 5.30649C9.0394 5.30649 9.38384 5.30649 9.74188 5.30649Z" fill="#363740"/>
<path d="M5.4059 9.03951C5.4059 9.28281 5.40772 9.527 5.4059 9.7703C5.40228 10.2391 5.17386 10.5561 4.70161 10.5899C4.08886 10.6334 3.46887 10.6263 2.85521 10.5837C2.43554 10.5544 2.18718 10.2463 2.17539 9.83157C2.15998 9.30057 2.16089 8.76868 2.17449 8.23768C2.18536 7.81324 2.43554 7.50334 2.87153 7.47581C3.49969 7.43674 4.13419 7.44474 4.76234 7.48647C5.15392 7.51222 5.3914 7.83366 5.4059 8.22081C5.40681 8.23591 5.40681 8.25012 5.40681 8.26521C5.4059 8.52361 5.4059 8.782 5.4059 9.03951ZM4.32816 8.50851C3.95924 8.50851 3.61027 8.50851 3.25223 8.50851C3.25223 8.86547 3.25223 9.20734 3.25223 9.55542C3.61843 9.55542 3.9674 9.55542 4.32816 9.55542C4.32816 9.20379 4.32816 8.86636 4.32816 8.50851Z" fill="#363740"/>
<path d="M10.8281 9.04563C10.8281 9.28893 10.8299 9.53312 10.8281 9.77642C10.8236 10.2355 10.5979 10.5525 10.1401 10.5862C9.5274 10.6306 8.9074 10.6297 8.29375 10.588C7.85866 10.5587 7.60849 10.2497 7.5967 9.82614C7.5822 9.29514 7.5822 8.76325 7.59761 8.23225C7.60939 7.81758 7.85776 7.5059 8.27743 7.48015C8.91284 7.44108 9.55459 7.4473 10.19 7.48725C10.5779 7.51123 10.8182 7.838 10.8272 8.22604C10.8327 8.49953 10.8281 8.77213 10.8281 9.04563ZM9.75038 8.51374C9.38418 8.51374 9.02977 8.51374 8.67263 8.51374C8.67263 8.86981 8.67263 9.20635 8.67263 9.55087C9.04065 9.55087 9.39506 9.55087 9.75038 9.55087C9.75038 9.1948 9.75038 8.85738 9.75038 8.51374Z" fill="#363740"/>
</svg>
