<svg width="19" height="15" viewBox="0 0 19 15" fill="none" xmlns="http://www.w3.org/2000/svg">
<path d="M17.9274 6.92373C17.8033 6.35814 17.5773 5.86099 17.0704 5.53586C16.6902 5.29179 16.0247 5.22515 15.6348 5.62773C15.5107 5.75562 15.3831 5.8808 15.2688 6.0168C14.9905 6.34733 14.6139 6.47522 14.2629 6.34913C13.9288 6.22935 13.7498 5.92133 13.7498 5.46741C13.7498 4.37135 13.7498 3.27618 13.7498 2.18011C13.7498 1.43169 13.3519 1.00659 12.6235 1.00749C11.5157 1.00929 10.4079 1.02461 9.30107 1.04262C9.03787 1.04712 8.78885 1.11467 8.62047 1.35243C8.33068 1.76222 8.4193 2.23865 8.84999 2.57279C9.81241 3.31941 9.69898 4.50194 8.61161 5.05583C8.08166 5.32602 7.52069 5.41338 6.93402 5.32962C6.43686 5.25847 5.99642 5.06393 5.65346 4.68116C5.15984 4.13178 5.01805 3.35364 5.72435 2.71689C5.81829 2.63223 5.92818 2.56378 6.01148 2.47012C6.23924 2.21344 6.39344 1.92073 6.25608 1.56949C6.1134 1.21194 5.84842 1.00479 5.45406 1.00389C4.34631 1.00389 3.23855 0.993083 2.1308 1.00749C1.42272 1.0174 1 1.47852 1 2.19362V2.35033C1 3.09605 1 3.84178 1 4.5884V11.0333C1 11.0855 1 11.1378 1 11.19C1 11.7529 1 12.3158 1 12.8787C1 13.5416 1.39879 13.9838 2.04749 13.991C3.18449 14.0045 4.32149 14.0009 5.45938 13.9928C5.90514 13.9901 6.20113 13.7613 6.27912 13.3506C6.35001 12.9769 6.18784 12.6842 5.8945 12.4572C4.94449 11.7232 5.04907 10.5199 6.13289 9.99578C6.48383 9.82646 6.88882 9.71389 7.27521 9.69227C7.99747 9.65174 8.66832 9.84718 9.16903 10.4317C9.67505 11.0216 9.61745 11.7772 9.03433 12.2852C8.9333 12.3725 8.81632 12.4455 8.73036 12.5464C8.50969 12.8076 8.37322 13.1012 8.4964 13.4542C8.62401 13.8181 8.90405 13.9883 9.26385 13.991C10.423 14.0009 11.583 14.0063 12.7422 13.9874C13.3555 13.9775 13.7498 13.5281 13.7498 12.9066C13.7498 11.7511 13.748 10.5956 13.7507 9.43919C13.7516 8.98708 14.0228 8.65655 14.4614 8.60791C14.8115 8.56918 15.0827 8.7376 15.298 9.0168C15.5178 9.3023 15.7588 9.56618 16.1364 9.63373C16.7656 9.74721 17.237 9.47792 17.5738 8.96726C17.9841 8.34583 18.0887 7.65414 17.9283 6.92283L17.9274 6.92373Z" stroke="#363740" stroke-linejoin="round"/>
</svg>
