<svg width="12" height="15" viewBox="0 0 12 15" fill="none" xmlns="http://www.w3.org/2000/svg">
<g clip-path="url(#clip0_653_7870)">
<path d="M6.0004 14.2914C4.33791 14.2914 2.67541 14.29 1.01363 14.2928C0.603908 14.2935 0.27713 14.1541 0.0940764 13.7708C0.0397324 13.6564 0.00183467 13.522 0.000404568 13.3954C-0.0303427 11.1094 1.69508 9.09797 3.95607 8.78907C4.27355 8.74545 4.59676 8.72471 4.9171 8.72471C5.84023 8.72471 6.76479 8.70684 7.68578 8.75618C9.1166 8.8334 10.2478 9.50054 11.1044 10.6382C11.718 11.4526 11.9804 12.3858 11.9997 13.3933C12.0083 13.8152 11.6879 14.1884 11.271 14.2649C11.1609 14.285 11.0458 14.2907 10.9335 14.2907C9.28893 14.2921 7.64431 14.2914 6.0004 14.2914ZM5.99397 13.4426C6.36365 13.4426 6.73262 13.4426 7.1023 13.4426C8.38296 13.4426 9.66361 13.4398 10.9443 13.4455C11.108 13.4462 11.1781 13.3997 11.1524 13.2324C11.1145 12.9857 11.0966 12.7347 11.0422 12.4916C10.6876 10.9092 9.44195 9.7644 7.86812 9.62925C6.6747 9.527 5.46125 9.5413 4.26426 9.61495C2.45089 9.7265 0.97502 11.1452 0.848456 13.2045C0.834155 13.4405 0.84059 13.4426 1.07942 13.4426C2.7176 13.4426 4.35578 13.4426 5.99397 13.4426Z" fill="#363740"/>
<path d="M9.42743 4.00321C9.39525 5.92884 7.97087 7.41114 5.99089 7.41758C4.06168 7.4233 2.5565 5.90525 2.57438 3.98605C2.59297 2.06041 4.02808 0.578107 6.00805 0.571671C7.93726 0.565951 9.43101 2.08329 9.42743 4.00321ZM8.57867 3.99749C8.57938 2.56095 7.44531 1.42187 6.00662 1.41543C4.57366 1.409 3.42386 2.55022 3.42028 3.98318C3.41671 5.42831 4.55936 6.57596 6.00162 6.57382C7.43816 6.57239 8.57867 5.4326 8.57938 3.99749H8.57867Z" fill="#363740"/>
</g>
<defs>
<clipPath id="clip0_653_7870">
<rect width="12" height="13.7204" fill="white" transform="translate(0 0.571655)"/>
</clipPath>
</defs>
</svg>
