<svg width="16" height="16" viewBox="0 0 16 16" fill="none" xmlns="http://www.w3.org/2000/svg">
<g clip-path="url(#clip0_653_7861)">
<path d="M15.9999 10.6852C15.9319 10.8661 15.8878 11.0587 15.7907 11.2255C15.487 11.7491 15.1674 12.2636 14.8478 12.7781C14.5609 13.2392 14.0656 13.4168 13.5235 13.255C13.0264 13.1066 12.5312 12.9532 12.0377 12.7956C11.9167 12.7572 11.8293 12.7697 11.7163 12.8373C11.3517 13.0574 10.9773 13.2642 10.5986 13.4609C10.46 13.5327 10.3743 13.6027 10.3452 13.7628C10.264 14.1997 10.1545 14.6316 10.0601 15.0669C9.93734 15.6297 9.64864 15.9424 9.05095 15.9757C8.312 16.0174 7.56687 16.0016 6.82703 15.9582C6.35647 15.9307 6.06513 15.623 5.96183 15.1886C5.84441 14.695 5.73141 14.1997 5.60163 13.7086C5.58044 13.6294 5.50275 13.5452 5.42682 13.501C5.02159 13.265 4.61018 13.0365 4.19524 12.8156C4.13079 12.7814 4.02926 12.7739 3.95863 12.7947C3.47483 12.9365 2.99544 13.0899 2.5134 13.2392C1.8954 13.4301 1.41336 13.2583 1.08935 12.7314C0.790062 12.2452 0.492539 11.7591 0.196782 11.2705C-0.126343 10.7369 -0.052183 10.2858 0.429856 9.86889C0.804187 9.54537 1.18028 9.22352 1.56168 8.9075C1.66144 8.82495 1.6844 8.74324 1.68086 8.62067C1.6685 8.19876 1.68263 7.77602 1.67292 7.35411C1.67115 7.27073 1.63142 7.16484 1.56874 7.10897C1.19441 6.77545 0.805953 6.4561 0.426325 6.12757C-0.0539487 5.71234 -0.126343 5.26208 0.198548 4.72594C0.497836 4.23232 0.79889 3.73871 1.10171 3.24759C1.40718 2.75231 1.89628 2.57554 2.47455 2.75147C2.96365 2.90073 3.44922 3.05915 3.94098 3.19923C4.02661 3.22341 4.15021 3.19923 4.23232 3.15587C4.61018 2.95742 4.97303 2.73313 5.35619 2.54302C5.51599 2.46381 5.5981 2.37376 5.63341 2.20866C5.72964 1.76007 5.8453 1.31565 5.95124 0.868727C6.07396 0.347595 6.3344 0.0607642 6.89501 0.0282456C7.64103 -0.0142788 8.3941 -0.00343923 9.14012 0.0415866C9.63981 0.0716038 9.94881 0.406796 10.0503 0.874564C10.1519 1.34317 10.2499 1.81344 10.3646 2.2787C10.3858 2.36375 10.467 2.45547 10.5483 2.503C10.9464 2.7373 11.3517 2.96243 11.7613 3.17922C11.8311 3.21591 11.9414 3.22424 12.0191 3.20173C12.4897 3.06582 12.9549 2.91657 13.4229 2.77232C14.0841 2.5672 14.5503 2.7323 14.8955 3.29512C15.1859 3.76956 15.4764 4.24483 15.7642 4.72093C16.0953 5.26708 16.022 5.71317 15.5293 6.13841C15.1603 6.45693 14.7904 6.77545 14.4134 7.08562C14.3066 7.17317 14.2828 7.25989 14.2872 7.3908C14.3004 7.80604 14.2845 8.22127 14.2951 8.63651C14.2978 8.72573 14.3401 8.83913 14.4064 8.89833C14.7851 9.23686 15.1797 9.56121 15.5647 9.8939C15.8348 10.1274 15.9681 10.395 15.9999 10.6869V10.6852ZM1.05492 10.6852C1.35862 11.1838 1.66056 11.6674 1.94925 12.1585C2.02429 12.2869 2.09581 12.3136 2.24501 12.2686C2.88067 12.0751 3.52074 11.8917 4.16081 11.7133C4.23232 11.6933 4.34797 11.6966 4.39741 11.7375C4.95714 12.2094 5.62988 12.4879 6.31321 12.7455C6.44564 12.7956 6.50126 12.8689 6.52951 12.9998C6.67342 13.6644 6.8288 14.3264 6.98241 14.996H8.98562C9.1463 14.3331 9.30874 13.6794 9.45971 13.0232C9.49414 12.8731 9.56389 12.7797 9.71486 12.7205C10.339 12.4737 10.9667 12.2319 11.4779 11.795C11.6015 11.6891 11.7154 11.6733 11.8734 11.7216C12.495 11.9126 13.12 12.0927 13.7469 12.2678C13.8122 12.2861 13.9376 12.2669 13.9649 12.2244C14.2863 11.7199 14.5944 11.2072 14.9105 10.6885C14.8416 10.6285 14.7842 10.576 14.7251 10.5251C14.2457 10.1149 13.7672 9.70212 13.2842 9.29522C13.1933 9.21851 13.1589 9.15181 13.1854 9.0284C13.331 8.34718 13.3319 7.66179 13.188 6.97973C13.1615 6.85382 13.188 6.77878 13.2895 6.69457C13.7036 6.3502 14.1097 5.9975 14.5185 5.6473C14.6483 5.5364 14.7772 5.42551 14.9122 5.30877C14.605 4.80598 14.3022 4.32237 14.0144 3.83126C13.9349 3.69618 13.8581 3.68701 13.716 3.73203C13.09 3.93132 12.4605 4.12309 11.8293 4.30653C11.7481 4.32988 11.6139 4.32071 11.5583 4.27151C11.0374 3.81125 10.4158 3.51775 9.75988 3.28094C9.57625 3.21424 9.48708 3.11418 9.44647 2.92991C9.30433 2.28621 9.14276 1.64667 8.9865 0.998802H6.98241C6.8288 1.67002 6.67342 2.33207 6.52951 2.99745C6.50126 3.13002 6.44211 3.19923 6.30703 3.24342C5.61311 3.47022 4.96862 3.7829 4.43184 4.26651C4.33473 4.35322 4.24644 4.34739 4.1352 4.31237C3.52868 4.12309 2.91775 3.94466 2.31475 3.74704C2.12229 3.68367 2.01988 3.70118 1.91747 3.88546C1.68175 4.30903 1.41601 4.7176 1.16351 5.13284C1.1282 5.1912 1.09818 5.25207 1.06375 5.31711C1.58728 5.7657 2.09492 6.20845 2.61493 6.6387C2.75618 6.75543 2.81357 6.86049 2.77384 7.0431C2.63523 7.67596 2.63611 8.31383 2.77384 8.94669C2.81269 9.12763 2.76413 9.23435 2.62022 9.35359C2.09492 9.78717 1.58287 10.2349 1.05668 10.6852H1.05492Z" fill="#363740"/>
<path d="M5.07813 7.97283C5.07636 6.47698 6.39976 5.22543 7.98449 5.22376C9.56568 5.22126 10.8926 6.47531 10.8926 7.97117C10.8926 9.48954 9.57981 10.7411 7.98625 10.7428C6.39535 10.7444 5.07989 9.4912 5.07813 7.97283ZM7.97742 9.7205C9.0448 9.72384 9.83937 8.98341 9.84466 7.9795C9.84996 7.01729 8.99359 6.20265 7.98184 6.20766C6.97273 6.21266 6.12784 7.01228 6.12608 7.96533C6.12431 8.96924 6.9127 9.71717 7.97831 9.7205H7.97742Z" fill="#363740"/>
</g>
<defs>
<clipPath id="clip0_653_7861">
<rect width="16" height="16" fill="white"/>
</clipPath>
</defs>
</svg>
