<svg width="12" height="11" viewBox="0 0 12 11" fill="none" xmlns="http://www.w3.org/2000/svg">
<g clip-path="url(#clip0_653_7878)">
<path d="M7.50364 4.16915C7.50364 3.68927 7.50801 3.23688 7.50239 2.78448C7.49801 2.42144 7.63364 2.14589 7.97238 1.9928C8.26176 1.8622 8.57863 1.94656 8.85051 2.21837C9.80488 3.17189 10.7593 4.12604 11.7124 5.08019C12.0955 5.46385 12.098 5.90999 11.7186 6.2899C10.7543 7.25592 9.78926 8.22069 8.82301 9.18484C8.51113 9.49601 8.10926 9.52601 7.78051 9.26669C7.58676 9.1136 7.50614 8.90365 7.50489 8.66371C7.50114 8.17945 7.50364 7.69519 7.50364 7.18469H7.31801C6.29176 7.18469 5.26551 7.18844 4.23927 7.18094C4.07052 7.17969 3.89427 7.15407 3.73489 7.09971C3.30114 6.95287 3.06489 6.62295 3.01989 6.18118C2.98614 5.85688 2.97989 5.52196 3.01989 5.19953C3.09864 4.56094 3.54677 4.1979 4.20489 4.1929C5.23614 4.18415 6.26739 4.17728 7.29926 4.16978C7.36051 4.16978 7.42239 4.16978 7.50364 4.16978V4.16915ZM8.24551 8.6181C9.22551 7.6377 10.218 6.64544 11.1905 5.67255C10.228 4.71028 9.23926 3.72176 8.24426 2.72637V4.93335H8.03863C6.78364 4.93335 5.52864 4.93335 4.27364 4.93335C4.22677 4.93335 4.17989 4.93147 4.13302 4.9346C3.87677 4.95084 3.74677 5.08769 3.74489 5.34575C3.74364 5.54383 3.74489 5.74128 3.74489 5.93936C3.74489 6.32552 3.86052 6.44174 4.24614 6.44174C5.51676 6.44174 6.78739 6.44174 8.05801 6.44174H8.24551V8.61747V8.6181Z" fill="#363740"/>
<path d="M0.00108131 5.68875C0.00108131 4.57464 -0.00204368 3.45991 0.00233131 2.3458C0.00420631 1.89653 0.129831 1.4835 0.414206 1.12734C0.793581 0.653078 1.30733 0.45625 1.89358 0.445002C2.61733 0.431256 3.34108 0.440004 4.06483 0.443128C4.21983 0.443753 4.36608 0.47562 4.44671 0.634957C4.51733 0.774299 4.50608 0.907392 4.41983 1.03299C4.32546 1.17108 4.17733 1.18233 4.02983 1.18233C3.35296 1.1842 2.67608 1.18233 1.99858 1.18295C1.19796 1.18295 0.742331 1.64159 0.742331 2.44515C0.742331 4.61651 0.742331 6.78849 0.742331 8.95984C0.742331 9.72778 1.20921 10.192 1.98171 10.1927C2.65358 10.1927 3.32546 10.1927 3.99733 10.1927C4.32733 10.1927 4.49046 10.3145 4.49296 10.5601C4.49546 10.8063 4.32921 10.9337 4.00421 10.9344C3.31671 10.9344 2.62921 10.9419 1.94171 10.9325C1.26296 10.9237 0.690456 10.6894 0.306081 10.0977C0.0935813 9.76965 0.00295631 9.40411 0.00233131 9.0167C0.000456315 7.90759 0.00170631 6.79848 0.00170631 5.68937L0.00108131 5.68875Z" fill="#363740"/>
</g>
<defs>
<clipPath id="clip0_653_7878">
<rect width="12" height="10.5" fill="white" transform="translate(0 0.4375)"/>
</clipPath>
</defs>
</svg>
