<svg width="14" height="11" viewBox="0 0 14 11" fill="none" xmlns="http://www.w3.org/2000/svg">
<g clip-path="url(#clip0_653_7857)">
<path d="M7 0.000625796C8.78307 0.000625796 10.5655 -2.90836e-05 12.3486 0.000625796C13.1551 0.000625796 13.7666 0.462971 13.9481 1.21412C13.9825 1.35557 13.9974 1.50488 13.9974 1.65092C14 4.21608 14 6.7819 13.9994 9.34706C13.9994 10.313 13.3257 10.9954 12.3648 10.9974C10.9493 11.0006 9.5339 10.998 8.11847 10.998C5.96258 10.998 3.80734 10.9987 1.65144 10.998C0.84485 10.998 0.23342 10.5357 0.0518711 9.78452C0.0175065 9.64307 0.00259355 9.49376 0.00259355 9.34772C0 6.78256 0 4.21739 0 1.65158C0.000648388 0.686285 0.674324 0.00324531 1.63524 0.00128068C3.42349 -0.00199372 5.21174 0.000625796 7 0.000625796ZM0.777418 5.50096C0.774176 5.54353 0.770285 5.56972 0.770285 5.59657C0.770285 6.89585 0.767692 8.19513 0.772879 9.49441C0.772879 9.59854 0.809837 9.70987 0.856521 9.80483C1.01538 10.1277 1.29353 10.2253 1.63459 10.2246C5.20072 10.2213 8.76686 10.2226 12.3323 10.2226C12.3862 10.2226 12.4406 10.2226 12.4944 10.2207C12.9224 10.2023 13.2304 9.87817 13.2304 9.4453C13.2304 8.18989 13.2304 6.93449 13.2304 5.67909C13.2304 5.62146 13.2304 5.56383 13.2304 5.50161H0.777418V5.50096ZM0.777418 4.7079H13.22V3.1506H0.776769V4.7079H0.777418ZM13.2278 2.35426C13.2278 2.03796 13.233 1.73868 13.2245 1.4394C13.2226 1.36147 13.1876 1.27961 13.1519 1.20757C12.9924 0.887987 12.7227 0.775348 12.3797 0.776003C8.79214 0.779277 5.20461 0.777968 1.61773 0.777968C1.58012 0.777968 1.54187 0.777968 1.50426 0.779932C1.15089 0.795649 0.846795 1.0111 0.796869 1.36277C0.751482 1.68563 0.787143 2.02027 0.787143 2.35361H13.2278V2.35426Z" fill="#363740"/>
<path d="M7.3731 8.64049C6.88681 8.64049 6.40052 8.6418 5.91487 8.64049C5.662 8.63984 5.5414 8.56715 5.47462 8.38378C5.39487 8.16637 5.50898 7.94305 5.73203 7.89001C5.80465 7.87298 5.88116 7.86512 5.95572 7.86447C6.9121 7.86316 7.86782 7.86316 8.82419 7.86316C8.8404 7.86316 8.85661 7.86316 8.87282 7.86316C9.16201 7.8684 9.33318 8.01574 9.33059 8.25608C9.32799 8.49708 9.15876 8.63918 8.8644 8.63984C8.36773 8.6418 7.87042 8.63984 7.37375 8.63984L7.3731 8.64049Z" fill="#363740"/>
<path d="M3.50975 7.86317C3.75289 7.86317 3.99604 7.85793 4.23854 7.86513C4.3935 7.86972 4.53809 7.90901 4.6159 8.07011C4.68398 8.21091 4.67231 8.34319 4.59191 8.47417C4.51021 8.60711 4.37599 8.63657 4.24048 8.63788C3.74382 8.64312 3.24715 8.64378 2.74984 8.63788C2.59423 8.63592 2.45223 8.58877 2.37702 8.42636C2.31153 8.28425 2.32579 8.15066 2.40944 8.02296C2.49762 7.88805 2.63832 7.86775 2.78031 7.86448C3.02346 7.85924 3.2666 7.86317 3.5091 7.86317H3.50975Z" fill="#363740"/>
</g>
<defs>
<clipPath id="clip0_653_7857">
<rect width="14" height="11" fill="white"/>
</clipPath>
</defs>
</svg>
