<svg width="25" height="20" viewBox="0 0 25 20" fill="none" xmlns="http://www.w3.org/2000/svg">
<g clip-path="url(#clip0_1376_14985)">
<path d="M1.25167 11.2452C0.610698 11.2045 0.206698 10.9049 0.0386254 10.3173C0.00835143 10.2108 0.00313179 10.095 0.00208786 9.98328C-0.00104393 9.15874 0 8.33419 0.00104393 7.51068C0.00104393 6.81243 0.44367 6.32813 1.13788 6.26238C1.22453 6.25403 1.31117 6.25403 1.39782 6.25403C5.46914 6.25403 9.54046 6.25403 13.6107 6.25403C14.3561 6.25403 14.804 6.56506 14.9616 7.18921C14.9866 7.28837 14.9929 7.39483 14.9939 7.49711C14.996 8.25173 14.9658 9.00844 15.0033 9.76097C15.043 10.5636 14.6463 11.1731 13.7444 11.2577V11.5625C13.7444 13.9056 13.7256 16.2478 13.7548 18.5909C13.7642 19.3539 13.2965 20.0094 12.334 20C9.85991 19.976 7.38579 19.9916 4.91273 19.9916C4.15797 19.9916 3.40112 19.9708 2.6474 19.9969C1.6849 20.0303 1.23184 19.3362 1.24019 18.6035C1.26837 16.2613 1.25063 13.9182 1.25063 11.575V11.2441L1.25167 11.2452ZM2.50856 11.2504V18.736H12.4875V11.2504H2.50752H2.50856ZM13.7485 7.50964H1.25689V9.98537H13.7475V7.50964H13.7485Z" fill="#363740"/>
<path d="M14.9549 19.9833C14.982 19.569 15.0081 19.1744 15.0353 18.7538C15.1365 18.7538 15.2388 18.7538 15.3401 18.7538C17.8841 18.7538 20.4282 18.7538 22.9722 18.7538C23.2698 18.7538 23.5568 18.7235 23.6946 18.4073C23.7416 18.3008 23.7615 18.1735 23.7615 18.0556C23.7646 12.6824 23.7646 7.31033 23.7635 1.9372C23.7635 1.45291 23.5297 1.24103 22.9983 1.24103C20.4543 1.23999 17.9102 1.24103 15.3662 1.24103C14.2544 1.24103 13.1437 1.24103 12.0319 1.24103C11.4546 1.24103 11.2468 1.44978 11.2468 2.02278C11.2468 2.90787 11.2468 3.79295 11.2468 4.67908V4.9755H10.0087V4.6175C10.0087 3.74077 10.0067 2.86403 10.0087 1.9873C10.0119 0.822492 10.7969 0.00942453 11.9651 0.00629333C15.6553 -0.00310026 19.3456 -0.00205653 23.0359 0.00629333C24.2166 0.00838079 25.0016 0.820405 25.0027 2.004C25.0037 7.33329 25.0037 12.6626 25.0027 17.9919C25.0027 19.1661 24.2302 19.9823 23.0631 19.9875C20.3802 20.0011 17.6973 19.9917 15.0133 19.9906C14.9872 19.9906 14.9622 19.9844 14.9549 19.9833Z" fill="#363740"/>
<path d="M18.131 11.814C17.6226 12.3087 17.1862 12.7565 16.7206 13.1729C16.5797 13.2982 16.3605 13.39 16.1746 13.3952C15.9262 13.4015 15.7592 13.2126 15.6662 12.9746C15.5775 12.746 15.6788 12.5707 15.8134 12.4026C15.8458 12.3619 15.8844 12.3265 15.922 12.2899C16.6956 11.5165 17.4681 10.7421 18.2437 9.97075C18.6049 9.61066 18.8941 9.60857 19.2501 9.96344C20.0434 10.7535 20.8358 11.5457 21.626 12.339C21.7889 12.5028 21.9236 12.6876 21.8453 12.9402C21.767 13.1917 21.5989 13.3942 21.3358 13.3921C21.15 13.3921 20.9287 13.3023 20.7878 13.1802C20.3827 12.8274 20.01 12.4371 19.6238 12.0624C19.557 11.9977 19.487 11.9382 19.3847 11.8453C19.3785 11.9789 19.3711 12.0697 19.3711 12.1595C19.3711 13.7042 19.3711 15.2499 19.3701 16.7947C19.3701 17.3155 19.0079 17.589 18.5277 17.4407C18.2708 17.3614 18.133 17.1349 18.133 16.779C18.133 15.2426 18.133 13.7063 18.133 12.1699V11.814H18.131Z" fill="#363740"/>
<path d="M7.50889 12.504C8.10811 12.504 8.70732 12.4935 9.30549 12.5071C9.87652 12.5196 10.1918 13.0342 9.87756 13.459C9.77108 13.603 9.53516 13.7241 9.3556 13.7283C8.12376 13.7512 6.89088 13.746 5.65801 13.7366C5.40746 13.7345 5.18093 13.6468 5.06714 13.3859C4.96692 13.1573 4.99615 12.9455 5.13604 12.7461C5.28323 12.5353 5.51081 12.5081 5.73839 12.506C6.32821 12.4998 6.91907 12.504 7.50889 12.504Z" fill="#363740"/>
</g>
<defs>
<clipPath id="clip0_1376_14985">
<rect width="25" height="20" fill="white"/>
</clipPath>
</defs>
</svg>
