<svg width="47" height="47" viewBox="0 0 47 47" fill="none" xmlns="http://www.w3.org/2000/svg">
<rect width="47" height="47" rx="3" fill="#E6EAF8"/>
<path d="M22.9974 36.75C16.7382 36.75 11.6641 31.6759 11.6641 25.4167C11.6641 19.1574 16.7382 14.0833 22.9974 14.0833C29.2566 14.0833 34.3307 19.1574 34.3307 25.4167C34.3237 31.673 29.2537 36.743 22.9974 36.75ZM22.9974 16.9167C18.303 16.9167 14.4974 20.7223 14.4974 25.4167C14.4974 30.1111 18.303 33.9167 22.9974 33.9167C27.6918 33.9167 31.4974 30.1111 31.4974 25.4167C31.4919 20.7245 27.6896 16.9221 22.9974 16.9167ZM24.4141 26.8333H21.5807V19.75H24.4141V26.8333ZM33.3291 17.9183L30.4958 15.0849L32.499 13.0818L35.3323 15.9151L33.3306 17.9168L33.3291 17.9183ZM27.2474 12.6667H18.7474V9.83334H27.2474V12.6667Z" fill="#24397C"/>
</svg>