<svg width="18" height="19" viewBox="0 0 18 19" fill="none" xmlns="http://www.w3.org/2000/svg">
<g clip-path="url(#clip0_5348_20244)">
<path d="M10.2812 7.09314C10.2812 8.08593 10.2812 9.07872 10.2812 10.0656C10.2761 10.2613 10.344 10.4527 10.4736 10.6076C12.7111 13.446 11.3248 17.5571 7.74819 18.6899C5.1958 19.503 2.46716 18.6899 0.988382 16.6537C-0.330263 14.8359 -0.360355 12.3609 1.11735 10.5778C1.23361 10.4446 1.29459 10.2773 1.2893 10.1063C1.27962 8.13259 1.26028 6.15694 1.2893 4.18725C1.31509 2.38434 2.23717 1.05301 4.01901 0.350118C6.90563 -0.792583 9.92336 1.00834 10.2189 3.63029C10.3339 4.65187 10.2662 5.69132 10.2812 6.72184C10.2823 6.84594 10.2812 6.97004 10.2812 7.09314ZM3.19902 7.40984C3.19902 8.33512 3.16678 9.26139 3.21084 10.1847C3.23353 10.4439 3.19872 10.7046 3.10854 10.9509C3.01836 11.1973 2.87472 11.424 2.68639 11.6173C2.23077 12.1028 1.96208 12.7141 1.92229 13.3557C1.77828 15.3819 3.21514 16.9783 5.38602 17.2196C7.57301 17.4658 9.56442 15.8793 9.65362 13.8441C9.6966 12.8821 9.33121 12.0571 8.69822 11.3363C8.46757 11.0911 8.34553 10.7745 8.35646 10.4498C8.37223 8.36093 8.37223 6.27177 8.35646 4.18228C8.35646 3.36125 7.98677 2.68714 7.25383 2.21954C6.42632 1.68939 5.5268 1.61791 4.62084 2.04779C3.67618 2.49553 3.21299 3.23913 3.20117 4.21405C3.18935 5.27932 3.19902 6.34458 3.19902 7.40984Z" fill="#A5A9BC"/>
<path d="M11.584 2.97606C11.6442 1.22974 12.922 0.0393903 14.7973 0.0086138C15.2195 -0.000570562 15.6393 0.069279 16.0315 0.213956C16.4237 0.358632 16.7802 0.575143 17.0794 0.850447C17.3786 1.12575 17.6144 1.45415 17.7726 1.81588C17.9308 2.1776 18.0081 2.56516 17.9999 2.95521C17.9709 4.70252 16.6683 5.89288 14.793 5.92365C13.0037 5.95443 11.5915 4.63005 11.584 2.97606ZM13.4991 2.94628C13.4991 3.65811 14.0225 4.15549 14.7801 4.16046C15.5378 4.16542 16.0869 3.67896 16.0912 2.9979C16.0912 2.27118 15.5689 1.77181 14.8016 1.77081C14.0429 1.77081 13.5023 2.26026 13.4991 2.94628Z" fill="#A5A9BC"/>
<path d="M7.7091 13.6268C7.62957 14.7596 6.86439 15.4138 5.77466 15.4367C5.52345 15.4381 5.27443 15.3934 5.04212 15.3051C4.80981 15.2168 4.59884 15.0866 4.42151 14.9223C4.24417 14.7579 4.10401 14.5626 4.0092 14.3476C3.91438 14.1327 3.8668 13.9026 3.86923 13.6705C3.88427 12.9755 4.22173 12.4295 4.9106 12.1158C5.10512 12.0264 5.17175 11.9262 5.15241 11.7385C5.14112 11.5905 5.14112 11.4418 5.15241 11.2938C5.15082 11.2171 5.16594 11.1409 5.19687 11.0697C5.22781 10.9985 5.27393 10.9338 5.33248 10.8795C5.39104 10.8251 5.46084 10.7822 5.53772 10.7532C5.61461 10.7243 5.69701 10.7099 5.78003 10.711C6.12178 10.711 6.44956 10.9671 6.41195 11.2898C6.35714 11.7743 6.50974 12.0701 6.98906 12.3253C7.49954 12.6003 7.65966 13.1294 7.7091 13.6268Z" fill="#A5A9BC"/>
</g>
<defs>
<clipPath id="clip0_5348_20244">
<rect width="18" height="19" fill="white"/>
</clipPath>
</defs>
</svg>
