<svg width="20" height="22" viewBox="0 0 20 22" fill="none" xmlns="http://www.w3.org/2000/svg">
<g clip-path="url(#clip0_5335_19994)">
<path d="M11.4271 8.2108C11.4271 9.36035 11.4271 10.5099 11.4271 11.6525C11.4214 11.8792 11.4968 12.1008 11.6408 12.2802C14.1269 15.5667 12.5865 20.327 8.61257 21.6386C5.77658 22.5801 2.74476 21.6386 1.10167 19.2809C-0.363487 17.1761 -0.396922 14.3103 1.24497 12.2457C1.37415 12.0914 1.4419 11.8978 1.43602 11.6997C1.42528 9.41438 1.40378 7.12678 1.43602 4.84608C1.46468 2.75851 2.48922 1.21697 4.46904 0.403089C7.6764 -0.920037 11.0294 1.16524 11.3578 4.20119C11.4856 5.38407 11.4103 6.58764 11.4271 7.78087C11.4283 7.92456 11.4271 8.06826 11.4271 8.2108ZM3.55794 8.57751C3.55794 9.64888 3.52212 10.7214 3.57108 11.7905C3.59628 12.0906 3.5576 12.3925 3.4574 12.6777C3.35721 12.963 3.1976 13.2255 2.98835 13.4493C2.48211 14.0115 2.18356 14.7193 2.13935 15.4621C1.97934 17.8084 3.57585 19.6568 5.98794 19.9362C8.41793 20.2213 10.6306 18.3843 10.7297 16.0277C10.7775 14.9138 10.3715 13.9585 9.66816 13.124C9.41188 12.84 9.27629 12.4734 9.28843 12.0974C9.30595 9.67877 9.30595 7.25974 9.28843 4.84033C9.28843 3.88966 8.87766 3.10912 8.06328 2.56768C7.14383 1.95383 6.14436 1.87106 5.13774 2.36881C4.08812 2.88726 3.57346 3.74827 3.56033 4.87712C3.54719 6.11058 3.55794 7.34404 3.55794 8.57751Z" fill="#363740"/>
<path d="M12.875 3.44877C12.9419 1.42672 14.3617 0.0484112 16.4454 0.0127753C16.9145 0.00214079 17.381 0.0830192 17.8167 0.25054C18.2525 0.41806 18.6486 0.668756 18.981 0.98753C19.3135 1.3063 19.5755 1.68656 19.7513 2.1054C19.927 2.52423 20.0129 2.97299 20.0038 3.42463C19.9715 5.44783 18.5243 6.82613 16.4406 6.86177C14.4524 6.8974 12.8834 5.36391 12.875 3.44877ZM15.0029 3.41428C15.0029 4.2385 15.5844 4.81443 16.4263 4.82017C17.2681 4.82592 17.8783 4.26264 17.8831 3.47406C17.8831 2.63259 17.3027 2.05437 16.4501 2.05322C15.6071 2.05322 15.0065 2.61994 15.0029 3.41428Z" fill="#363740"/>
<path d="M8.5635 15.7787C8.47513 17.0903 7.62493 17.8478 6.41411 17.8743C6.13499 17.876 5.85831 17.8242 5.60019 17.7219C5.34206 17.6197 5.10765 17.469 4.91061 17.2786C4.71357 17.0883 4.55784 16.8621 4.45249 16.6133C4.34714 16.3645 4.29427 16.0979 4.29697 15.8292C4.31369 15.0246 4.68864 14.3923 5.45406 14.0291C5.67019 13.9256 5.74422 13.8095 5.72273 13.5922C5.71019 13.4208 5.71019 13.2487 5.72273 13.0772C5.72096 12.9884 5.73776 12.9002 5.77213 12.8178C5.80651 12.7354 5.85775 12.6605 5.92281 12.5975C5.98787 12.5346 6.06543 12.4848 6.15086 12.4513C6.23629 12.4178 6.32784 12.4012 6.42008 12.4024C6.79981 12.4024 7.16401 12.699 7.12222 13.0726C7.06132 13.6336 7.23088 13.9762 7.76345 14.2716C8.33065 14.59 8.50857 15.2027 8.5635 15.7787Z" fill="#363740"/>
</g>
<defs>
<clipPath id="clip0_5335_19994">
<rect width="20" height="22" fill="white"/>
</clipPath>
</defs>
</svg>
