<svg width="22" height="22" viewBox="0 0 22 22" fill="none" xmlns="http://www.w3.org/2000/svg">
<g clip-path="url(#clip0_5335_19986)">
<path d="M0.0660687 2.78005C0.970052 1.83228 1.83958 0.920165 2.71599 0C2.82626 0.0759136 2.90437 0.125373 2.97788 0.180582C4.63883 1.43776 6.29747 2.69838 7.963 3.94866C8.1353 4.07863 8.20192 4.21206 8.19733 4.42484C8.18469 5.13222 8.18354 5.84075 8.20077 6.54928C8.20422 6.6919 8.27544 6.86903 8.37652 6.9691C9.80084 8.39766 11.2366 9.81471 12.6644 11.2398C12.7896 11.364 12.8838 11.3928 13.0561 11.3203C14.276 10.8142 15.5739 11.088 16.5101 12.0254C18.1434 13.6645 19.7791 15.3 21.4136 16.9379C21.702 17.2266 21.9397 17.5418 21.988 17.9674C22.0454 18.4723 21.8685 18.8898 21.5182 19.2384C20.744 20.0055 19.9732 20.7773 19.1853 21.5296C18.5903 22.0978 17.6438 22.0817 17.058 21.4985C15.3649 19.8123 13.6729 18.1227 11.9925 16.4226C11.0241 15.4438 10.8323 14.2867 11.3079 13.0123C11.3756 12.8317 11.3607 12.7305 11.2229 12.5948C9.80084 11.18 8.38685 9.7549 6.96024 8.3413C6.85916 8.24123 6.68341 8.17107 6.54098 8.16762C5.81504 8.15036 5.08909 8.16532 4.36315 8.15266C4.24714 8.15036 4.08862 8.09745 4.0243 8.01234C2.69762 6.27093 1.38242 4.52146 0.0649201 2.77315C0.0534336 2.75935 0.0488391 2.73979 0.0660687 2.78005Z" fill="#363740"/>
<path d="M15.385 2.05197C13.909 2.07842 12.7488 2.61212 11.8518 3.69676C10.9604 4.77451 10.6721 6.02478 10.8834 7.48554C10.4332 7.04731 10.0415 6.67465 9.66244 6.29048C9.6119 6.23987 9.60156 6.1329 9.60156 6.05239C9.60501 5.19203 9.6119 4.33053 9.62798 3.47017C9.63028 3.37355 9.67508 3.26889 9.72791 3.18377C11.2671 0.717728 14.0709 -0.435929 16.8817 0.238092C17.4526 0.374967 17.8672 0.694724 18.0326 1.27673C18.1969 1.85413 18.0407 2.33722 17.6053 2.75934C16.83 3.51158 16.0788 4.28797 15.3103 5.04711C15.1759 5.17938 15.1105 5.30015 15.1587 5.49569C15.2357 5.81084 15.2701 6.13635 15.3482 6.45036C15.3689 6.53432 15.4746 6.63784 15.5584 6.65854C15.872 6.73676 16.1994 6.76666 16.5107 6.85178C16.7117 6.90699 16.8277 6.83913 16.9586 6.7057C17.7305 5.92356 18.5162 5.15292 19.2835 4.36618C19.6936 3.94521 20.1771 3.82559 20.7227 3.97626C21.2511 4.12234 21.59 4.4835 21.7347 5.01375C22.4917 7.7869 21.2419 10.8533 18.7689 12.3118C18.2623 11.8195 17.7581 11.3272 17.2389 10.8223C18.963 9.97574 19.7992 8.57479 19.8682 6.6666C19.7958 6.73101 19.72 6.79312 19.6511 6.86213C18.9814 7.53155 18.3094 8.19752 17.6478 8.87384C17.5077 9.01647 17.3825 9.06593 17.1734 9.02912C16.0742 8.83358 14.9726 8.65875 13.8699 8.48622C13.6517 8.45172 13.5311 8.39766 13.4932 8.13196C13.3324 7.02661 13.1371 5.92586 12.9487 4.82397C12.9143 4.62153 12.9441 4.47085 13.1061 4.31672C13.7907 3.66341 14.4592 2.99284 15.1323 2.32802C15.2024 2.2544 15.2678 2.17849 15.385 2.05197Z" fill="#363740"/>
<path d="M6.77941 10.3105C7.25036 10.7832 7.72015 11.2536 8.20029 11.7344C8.15319 11.785 8.09002 11.8563 8.02454 11.923C6.1959 13.7841 4.36611 15.6428 2.53517 17.5027C1.90456 18.1422 1.88044 18.9289 2.47314 19.534C3.00841 20.0815 4.03645 20.0757 4.60158 19.5075C5.42401 18.6817 6.2361 17.8443 7.05279 17.0127C7.82928 16.2214 8.60576 15.4312 9.38339 14.6398C9.44197 14.58 9.504 14.5237 9.52697 14.5018C9.75211 15.2011 9.97954 15.9097 10.207 16.6182C10.2564 16.6354 10.3046 16.6527 10.354 16.6699C10.2633 16.724 10.1576 16.7631 10.0841 16.8356C8.68387 18.2331 7.30435 19.6524 5.88577 21.0292C4.92895 21.9574 3.74699 22.2082 2.48808 21.8321C1.22227 21.4537 0.417069 20.5576 0.106935 19.2717C-0.17678 18.0916 0.104638 17.0001 0.944297 16.1397C2.86713 14.1705 4.83591 12.2462 6.77941 10.3105Z" fill="#363740"/>
</g>
<defs>
<clipPath id="clip0_5335_19986">
<rect width="22" height="22" fill="white"/>
</clipPath>
</defs>
</svg>
