<svg width="66" height="66" viewBox="0 0 66 66" fill="none" xmlns="http://www.w3.org/2000/svg">
<g clip-path="url(#clip0)">
<path d="M58.2987 23.6331C58.2987 23.5506 58.2987 23.4681 58.2987 23.3856C58.3037 13.0562 49.934 4.67864 39.6046 4.67383C33.3219 4.6708 27.4575 7.82252 23.9932 13.0637C17.069 10.7524 9.58201 14.4919 7.27069 21.4161C6.82195 22.7607 6.59229 24.1685 6.59064 25.5859C6.59064 25.6794 6.59064 25.774 6.59064 25.8686C1.8859 27.0908 -0.93728 31.8955 0.284873 36.6001C1.29153 40.4753 4.78705 43.1829 8.79099 43.1887H28.5215C29.129 43.1887 29.6216 42.696 29.6216 42.0885C29.6216 41.4809 29.129 40.9883 28.5215 40.9883H8.79099C5.14543 40.9666 2.2077 37.9938 2.22929 34.3482C2.24868 31.0799 4.65695 28.3179 7.89215 27.8534C8.47414 27.7751 8.89207 27.2535 8.84159 26.6685C8.81189 26.3142 8.79099 25.9501 8.79099 25.5859C8.79883 19.5019 13.7372 14.5762 19.8212 14.584C21.2639 14.5858 22.6922 14.8712 24.0251 15.4236C24.5302 15.6335 25.1129 15.4404 25.3926 14.9703C30.0332 7.12611 40.1541 4.52916 47.9984 9.16968C53.0227 12.1421 56.1028 17.5478 56.0984 23.3856C56.0984 23.7497 56.0885 24.1029 56.0588 24.4571C56.0077 25.049 56.4358 25.5745 57.0258 25.6442C61.2469 26.1665 64.2453 30.0118 63.723 34.2328C63.2465 38.084 59.9789 40.9791 56.0984 40.9883C55.7675 40.9887 55.4367 40.9693 55.1082 40.93C54.9503 40.9106 54.79 40.9307 54.6417 40.9883H37.3558C36.7483 40.9883 36.2557 41.4809 36.2557 42.0885C36.2557 42.696 36.7483 43.1887 37.3558 43.1887H54.9982C55.0822 43.1884 55.1658 43.177 55.2468 43.1545C55.5252 43.1777 55.8101 43.1887 56.0984 43.1887C61.5669 43.1888 66 38.7558 66 33.2872C66.0002 28.6664 62.8041 24.6598 58.2987 23.6331Z" fill="#7E7E7E"/>
<path d="M41.5529 50.1121L34.096 57.569V26.6861C34.096 26.0785 33.6034 25.5859 32.9958 25.5859C32.3882 25.5859 31.8956 26.0785 31.8956 26.6861V57.569L24.4387 50.1121C24.0016 49.6899 23.3052 49.702 22.883 50.139C22.4713 50.5653 22.4713 51.2413 22.883 51.6677L32.218 61.0027C32.6476 61.4322 33.344 61.4322 33.7736 61.0027L43.1086 51.6677C43.5308 51.2307 43.5187 50.5343 43.0816 50.1121C42.6553 49.7002 41.9793 49.7002 41.5529 50.1121Z" fill="#7E7E7E"/>
</g>
<defs>
<clipPath id="clip0">
<rect width="66" height="66" fill="white"/>
</clipPath>
</defs>
</svg>
