<svg width="273" height="152" viewBox="0 0 273 152" fill="none" xmlns="http://www.w3.org/2000/svg">
<rect width="31" height="20" rx="2" fill="white"/>
<rect x="34" width="31" height="20" rx="2" fill="white"/>
<rect x="68" width="30" height="20" rx="2" fill="white"/>
<rect x="101" width="22" height="20" rx="2" fill="#C0C7DB"/>
<rect y="24" width="65" height="11" rx="2" fill="white"/>
<rect y="39" width="273" height="11" rx="2" fill="white"/>
<rect y="54" width="273" height="98" rx="2" fill="white"/>
<rect x="69" y="24" width="66" height="11" rx="2" fill="white"/>
<rect x="138" y="24" width="66" height="11" rx="2" fill="white"/>
<rect x="208" y="24" width="65" height="11" rx="2" fill="white"/>
<rect x="101" width="47" height="20" rx="2" fill="white"/>
<rect x="151" width="22" height="20" rx="2" fill="#C0C7DB"/>
<rect x="176" width="22" height="20" rx="2" fill="#C0C7DB"/>
<rect x="201" width="22" height="20" rx="2" fill="#C0C7DB"/>
<rect x="226" width="22" height="20" rx="2" fill="#C0C7DB"/>
<rect x="251" width="22" height="20" rx="2" fill="#C0C7DB"/>
</svg>
