<svg width="7" height="12" viewBox="0 0 7 12" fill="none" xmlns="http://www.w3.org/2000/svg">
<path d="M1.54688 0V12H0.101562V0H1.54688ZM1.20312 7.45312L0.601562 7.42969C0.606771 6.85156 0.692708 6.31771 0.859375 5.82812C1.02604 5.33333 1.26042 4.90365 1.5625 4.53906C1.86458 4.17448 2.22396 3.89323 2.64062 3.69531C3.0625 3.49219 3.52865 3.39062 4.03906 3.39062C4.45573 3.39062 4.83073 3.44792 5.16406 3.5625C5.4974 3.67188 5.78125 3.84896 6.01562 4.09375C6.25521 4.33854 6.4375 4.65625 6.5625 5.04688C6.6875 5.43229 6.75 5.90365 6.75 6.46094V12H5.29688V6.44531C5.29688 6.0026 5.23177 5.64844 5.10156 5.38281C4.97135 5.11198 4.78125 4.91667 4.53125 4.79688C4.28125 4.67188 3.97396 4.60938 3.60938 4.60938C3.25 4.60938 2.92188 4.6849 2.625 4.83594C2.33333 4.98698 2.08073 5.19531 1.86719 5.46094C1.65885 5.72656 1.49479 6.03125 1.375 6.375C1.26042 6.71354 1.20312 7.07292 1.20312 7.45312Z" fill="#363740"/>
</svg>
