<svg width="26" height="12" viewBox="0 0 26 12" fill="none" xmlns="http://www.w3.org/2000/svg">
<path d="M1.53906 5.22656V12H0.0859375V3.54688H1.46094L1.53906 5.22656ZM1.24219 7.45312L0.570312 7.42969C0.575521 6.85156 0.651042 6.31771 0.796875 5.82812C0.942708 5.33333 1.15885 4.90365 1.44531 4.53906C1.73177 4.17448 2.08854 3.89323 2.51562 3.69531C2.94271 3.49219 3.4375 3.39062 4 3.39062C4.39583 3.39062 4.76042 3.44792 5.09375 3.5625C5.42708 3.67188 5.71615 3.84635 5.96094 4.08594C6.20573 4.32552 6.39583 4.63281 6.53125 5.00781C6.66667 5.38281 6.73438 5.83594 6.73438 6.36719V12H5.28906V6.4375C5.28906 5.99479 5.21354 5.64062 5.0625 5.375C4.91667 5.10938 4.70833 4.91667 4.4375 4.79688C4.16667 4.67188 3.84896 4.60938 3.48438 4.60938C3.05729 4.60938 2.70052 4.6849 2.41406 4.83594C2.1276 4.98698 1.89844 5.19531 1.72656 5.46094C1.55469 5.72656 1.42969 6.03125 1.35156 6.375C1.27865 6.71354 1.24219 7.07292 1.24219 7.45312ZM6.71875 6.65625L5.75 6.95312C5.75521 6.48958 5.83073 6.04427 5.97656 5.61719C6.1276 5.1901 6.34375 4.8099 6.625 4.47656C6.91146 4.14323 7.26302 3.88021 7.67969 3.6875C8.09635 3.48958 8.57292 3.39062 9.10938 3.39062C9.5625 3.39062 9.96354 3.45052 10.3125 3.57031C10.6667 3.6901 10.9635 3.875 11.2031 4.125C11.4479 4.36979 11.6328 4.6849 11.7578 5.07031C11.8828 5.45573 11.9453 5.91406 11.9453 6.44531V12H10.4922V6.42969C10.4922 5.95573 10.4167 5.58854 10.2656 5.32812C10.1198 5.0625 9.91146 4.8776 9.64062 4.77344C9.375 4.66406 9.05729 4.60938 8.6875 4.60938C8.36979 4.60938 8.08854 4.66406 7.84375 4.77344C7.59896 4.88281 7.39323 5.03385 7.22656 5.22656C7.0599 5.41406 6.93229 5.63021 6.84375 5.875C6.76042 6.11979 6.71875 6.38021 6.71875 6.65625ZM15.9031 3.54688V12H14.45V3.54688H15.9031ZM14.3406 1.30469C14.3406 1.07031 14.4109 0.872396 14.5516 0.710938C14.6974 0.549479 14.9109 0.46875 15.1922 0.46875C15.4682 0.46875 15.6792 0.549479 15.825 0.710938C15.976 0.872396 16.0516 1.07031 16.0516 1.30469C16.0516 1.52865 15.976 1.72135 15.825 1.88281C15.6792 2.03906 15.4682 2.11719 15.1922 2.11719C14.9109 2.11719 14.6974 2.03906 14.5516 1.88281C14.4109 1.72135 14.3406 1.52865 14.3406 1.30469ZM19.8687 5.35156V12H18.4234V3.54688H19.7906L19.8687 5.35156ZM19.525 7.45312L18.9234 7.42969C18.9286 6.85156 19.0146 6.31771 19.1812 5.82812C19.3479 5.33333 19.5823 4.90365 19.8844 4.53906C20.1865 4.17448 20.5458 3.89323 20.9625 3.69531C21.3844 3.49219 21.8505 3.39062 22.3609 3.39062C22.7776 3.39062 23.1526 3.44792 23.4859 3.5625C23.8193 3.67188 24.1031 3.84896 24.3375 4.09375C24.5771 4.33854 24.7594 4.65625 24.8844 5.04688C25.0094 5.43229 25.0719 5.90365 25.0719 6.46094V12H23.6187V6.44531C23.6187 6.0026 23.5536 5.64844 23.4234 5.38281C23.2932 5.11198 23.1031 4.91667 22.8531 4.79688C22.6031 4.67188 22.2958 4.60938 21.9312 4.60938C21.5719 4.60938 21.2437 4.6849 20.9469 4.83594C20.6552 4.98698 20.4026 5.19531 20.1891 5.46094C19.9807 5.72656 19.8167 6.03125 19.6969 6.375C19.5823 6.71354 19.525 7.07292 19.525 7.45312Z" fill="#363740"/>
</svg>
