<svg width="19" height="19" viewBox="0 0 19 19" fill="none" xmlns="http://www.w3.org/2000/svg">
<g clip-path="url(#clip0_1547_18933)">
<path d="M6.64459 4.44405C5.95421 3.45108 5.27769 2.47692 4.59919 1.50277C4.43972 1.27309 4.32085 1.03153 4.37236 0.742451C4.45358 0.290022 4.8171 0.0128235 5.34603 0.00292358C5.68479 -0.00301639 6.02255 0.00193359 6.36131 0.00193359C8.74745 0.00193359 11.1326 0.00193359 13.5187 0.00292358C13.6416 0.00292358 13.7664 0.0108435 13.8872 0.0346035C14.5786 0.171223 14.854 0.81868 14.4607 1.40872C14.1636 1.85521 13.8446 2.28684 13.5356 2.72442C13.1354 3.28971 12.7353 3.855 12.3242 4.43613C12.7075 4.71431 13.0879 4.98557 13.4623 5.26376C15.7078 6.93091 17.4184 9.0109 18.3792 11.6611C18.8279 12.8986 19.0072 14.1886 18.9992 15.4983C18.9893 17.211 17.7611 18.6406 16.0782 18.9366C15.8276 18.9811 15.5691 18.996 15.3145 18.996C11.4347 19 7.55487 19.0009 3.67504 18.997C2.40421 18.996 1.36319 18.5158 0.622283 17.4605C0.0685867 16.6725 -0.0433412 15.7825 0.013118 14.843C0.258765 10.7543 2.33389 7.71895 5.48867 5.30039C5.8611 5.01527 6.24245 4.74104 6.64459 4.44405ZM9.47449 17.8248C11.4397 17.8248 13.4038 17.8298 15.369 17.8228C16.6527 17.8189 17.6571 16.9804 17.7968 15.7102C17.8612 15.1291 17.7809 14.5242 17.7076 13.9381C17.4006 11.4819 16.2228 9.4564 14.5231 7.71301C13.7099 6.87845 12.8006 6.15179 11.8319 5.49938C11.6051 5.34692 11.3901 5.28653 11.1257 5.28851C9.99451 5.29742 8.86334 5.28851 7.73317 5.29841C7.58756 5.2994 7.42116 5.3489 7.30329 5.43107C6.76346 5.80925 6.21967 6.18545 5.70955 6.60224C3.09757 8.73172 1.41271 11.374 1.19183 14.8212C1.15122 15.4577 1.16013 16.0785 1.50582 16.6398C1.99711 17.4368 2.72613 17.8209 3.65523 17.8228C5.59465 17.8268 7.53506 17.8238 9.47449 17.8238V17.8248ZM5.8403 1.14637C5.86605 1.20379 5.87398 1.23547 5.89181 1.26121C6.51682 2.172 7.13985 3.08379 7.77477 3.98667C7.82727 4.06092 7.96297 4.11438 8.06004 4.11537C9.01687 4.12527 9.9737 4.11735 10.9305 4.12527C11.092 4.12626 11.1841 4.06983 11.2713 3.94113C11.8596 3.07587 12.4549 2.21457 13.0473 1.35229C13.0869 1.29487 13.1176 1.23052 13.1661 1.14637H5.8403Z" fill="#29CC97"/>
<path d="M10.1006 15.1732C10.0432 15.8097 9.91838 16.0127 9.52316 16.0186C9.29138 16.0216 9.06357 15.9464 8.98531 15.7018C8.92192 15.5028 8.914 15.286 8.88527 15.0989C8.42964 14.9465 7.96707 14.8237 7.53124 14.6386C7.06966 14.4416 7.00231 13.8644 7.4104 13.6436C7.57582 13.5545 7.82543 13.5674 8.02353 13.604C8.53265 13.6971 9.0289 13.8614 9.54 13.9307C9.80249 13.9664 10.0917 13.8842 10.3552 13.81C10.5632 13.7515 10.689 13.5832 10.6989 13.3456C10.7098 13.0843 10.6048 12.8813 10.372 12.7853C9.95404 12.613 9.51623 12.4883 9.1012 12.3111C8.62576 12.1091 8.13645 11.9181 7.70755 11.6379C7.23904 11.332 7.06768 10.8291 7.15287 10.2707C7.27371 9.47476 7.77491 9.00748 8.51482 8.76394C8.63963 8.72335 8.76641 8.6887 8.83278 8.62138C8.92787 8.36101 8.99819 8.08679 9.13191 7.8482C9.18243 7.75712 9.37657 7.7096 9.50831 7.70564C9.90055 7.69178 10.0422 7.93334 10.1046 8.68276C10.376 8.74216 10.6573 8.79364 10.9327 8.8669C11.1852 8.93422 11.3824 9.07282 11.4269 9.35794C11.4665 9.61237 11.3516 9.82423 11.1427 9.91135C10.9614 9.98758 10.7306 9.98164 10.5266 9.96085C10.1838 9.9262 9.84508 9.8074 9.50434 9.80641C9.21016 9.80641 8.91004 9.90343 8.62378 9.99253C8.45341 10.046 8.30285 10.1588 8.30285 10.3846C8.30285 10.6182 8.41181 10.7954 8.60991 10.8815C8.96352 11.036 9.33497 11.1498 9.69353 11.2934C10.1591 11.4785 10.6385 11.6399 11.0783 11.8745C12.2966 12.5269 11.9786 14.1436 11.1347 14.6891C10.8296 14.8861 10.4721 15.0019 10.0996 15.1722L10.1006 15.1732Z" fill="#29CC97"/>
</g>
<defs>
<clipPath id="clip0_1547_18933">
<rect width="19" height="19" fill="white"/>
</clipPath>
</defs>
</svg>
