<svg width="187" height="187" viewBox="0 0 187 187" fill="none" xmlns="http://www.w3.org/2000/svg">
<rect width="187" height="187" rx="5" fill="white"/>
<path d="M108.125 73.8418H108.174" stroke="#A0AFBB" stroke-width="2" stroke-linecap="round" stroke-linejoin="round"/>
<path d="M118.194 53.7031H67.8475C59.5059 53.7031 52.7437 60.4653 52.7437 68.807V119.153C52.7437 127.495 59.5059 134.257 67.8475 134.257H118.194C126.535 134.257 133.297 127.495 133.297 119.153V68.807C133.297 60.4653 126.535 53.7031 118.194 53.7031Z" stroke="#A0AFBB" stroke-width="2" stroke-linecap="round" stroke-linejoin="round"/>
<path d="M52.7437 109.083L72.8821 88.9448C75.1782 86.7354 77.7828 85.5723 80.434 85.5723C83.0853 85.5723 85.6899 86.7354 87.986 88.9448L113.159 114.118" stroke="#A0AFBB" stroke-width="2" stroke-linecap="round" stroke-linejoin="round"/>
<path d="M103.09 104.05L108.125 99.0151C110.421 96.8057 113.025 95.6426 115.677 95.6426C118.328 95.6426 120.932 96.8057 123.229 99.0151L133.298 109.084" stroke="#A0AFBB" stroke-width="2" stroke-linecap="round" stroke-linejoin="round"/>
</svg>
