<svg width="46" height="45" viewBox="0 0 46 45" fill="none" xmlns="http://www.w3.org/2000/svg">
<ellipse cx="22.93" cy="22.5" rx="22.93" ry="22.5" fill="#EFF4FF"/>
<g clip-path="url(#clip0_0_1)">
<path d="M35.0002 22.5014C35.0734 16.4755 30.1324 10.9914 23.4908 11C16.8535 11.0086 11.9427 16.5215 12.0002 22.6064C12.0562 28.5691 16.9024 34.0072 23.5239 33.9986C30.1497 33.9914 35.072 28.513 35.0002 22.5014ZM13.4925 22.523C13.5327 17.2329 17.6119 12.5176 23.5023 12.5119C29.3295 12.5061 33.4777 17.1423 33.5107 22.4411C33.5437 27.7528 29.41 32.4824 23.5124 32.4881C17.678 32.4939 13.56 27.8419 13.4911 22.523H13.4925Z" fill="#22326B"/>
<path d="M19.9042 19.6102C19.9042 19.9149 20.0722 20.1032 20.2503 20.2828C20.8952 20.9381 21.5358 21.6007 22.1937 22.2431C22.3976 22.4428 22.3919 22.5635 22.1908 22.759C21.5244 23.41 20.8766 24.0812 20.223 24.7437C19.9746 24.9952 19.8022 25.274 19.9645 25.6405C20.1943 26.1578 20.7631 26.2584 21.2055 25.8345C21.8791 25.1906 22.5456 24.5382 23.1919 23.8685C23.4246 23.627 23.5668 23.6012 23.8124 23.8584C24.4573 24.531 25.1267 25.1791 25.7974 25.8259C26.1738 26.188 26.5946 26.1895 26.9034 25.8603C27.2022 25.5427 27.1835 25.1533 26.8244 24.7811C26.1939 24.1272 25.5504 23.4862 24.9127 22.8395C24.6876 22.6115 24.6886 22.3829 24.9155 22.154C25.5533 21.5072 26.1967 20.8663 26.8273 20.2124C27.1864 19.8402 27.2022 19.4493 26.902 19.1331C26.5917 18.8054 26.1723 18.8097 25.796 19.1719C25.1252 19.8186 24.4588 20.4711 23.8096 21.1393C23.5884 21.3664 23.4534 21.3995 23.2149 21.1508C22.57 20.4783 21.9007 19.8287 21.2299 19.182C20.7904 18.758 20.2647 18.8155 19.9947 19.2941C19.9343 19.4004 19.8999 19.5125 19.9056 19.6073L19.9042 19.6102Z" fill="#22326B"/>
</g>
<defs>
<clipPath id="clip0_0_1">
<rect width="23" height="23" fill="white" transform="matrix(-1 0 0 1 35 11)"/>
</clipPath>
</defs>
</svg>
