<svg width="41" height="40" viewBox="0 0 41 40" fill="none" xmlns="http://www.w3.org/2000/svg">
<g clip-path="url(#clip0_0_1)">
<path d="M5.23926 40C3.91318 40 2.64141 39.4732 1.70372 38.5355C0.766042 37.5979 0.239258 36.3261 0.239258 35V5C0.239258 3.67392 0.766042 2.40215 1.70372 1.46447C2.64141 0.526784 3.91318 0 5.23926 0L35.2393 0C36.5653 0 37.8371 0.526784 38.7748 1.46447C39.7125 2.40215 40.2393 3.67392 40.2393 5V35C40.2393 36.3261 39.7125 37.5979 38.7748 38.5355C37.8371 39.4732 36.5653 40 35.2393 40H5.23926ZM21.4893 28.75V14.2675L26.8543 19.635C26.9705 19.7512 27.1085 19.8434 27.2603 19.9063C27.4121 19.9692 27.5749 20.0016 27.7393 20.0016C27.9036 20.0016 28.0664 19.9692 28.2182 19.9063C28.3701 19.8434 28.508 19.7512 28.6243 19.635C28.7405 19.5188 28.8327 19.3808 28.8956 19.229C28.9585 19.0771 28.9908 18.9144 28.9908 18.75C28.9908 18.5856 28.9585 18.4229 28.8956 18.271C28.8327 18.1192 28.7405 17.9812 28.6243 17.865L21.1243 10.365C21.0081 10.2486 20.8702 10.1562 20.7183 10.0932C20.5665 10.0302 20.4037 9.99777 20.2393 9.99777C20.0748 9.99777 19.912 10.0302 19.7602 10.0932C19.6083 10.1562 19.4704 10.2486 19.3543 10.365L11.8543 17.865C11.6195 18.0997 11.4877 18.4181 11.4877 18.75C11.4877 19.0819 11.6195 19.4003 11.8543 19.635C12.089 19.8697 12.4073 20.0016 12.7393 20.0016C13.0712 20.0016 13.3895 19.8697 13.6243 19.635L18.9893 14.2675V28.75C18.9893 29.0815 19.121 29.3995 19.3554 29.6339C19.5898 29.8683 19.9077 30 20.2393 30C20.5708 30 20.8887 29.8683 21.1231 29.6339C21.3576 29.3995 21.4893 29.0815 21.4893 28.75Z" fill="#E91313"/>
<rect x="0.239258" width="40" height="40" rx="6" fill="#E91313"/>
</g>
<path d="M29.9822 18.7838C29.9822 21.2079 29.9489 23.632 29.9989 26.055C30.0191 27.0066 29.5886 27.6293 28.862 28.1244C28.0141 28.7027 27.0497 29.0304 26.0638 29.2949C24.6082 29.6847 23.1217 29.8697 21.6186 29.9516C19.2687 30.0803 16.9367 29.961 14.6344 29.467C13.5201 29.2282 12.4403 28.8841 11.4438 28.3211C11.0882 28.1209 10.7766 27.8704 10.5031 27.572C10.1784 27.2185 10.0108 26.8205 10.012 26.3289C10.0203 21.3741 10.0346 17.8849 10.0001 12.9301C9.99412 12.0031 10.3973 11.3909 11.1001 10.9005C11.942 10.3117 12.9041 9.97461 13.8911 9.7171C16.4277 9.05342 19.013 8.90945 21.6233 9.04991C23.4059 9.14589 25.1648 9.37765 26.8618 9.94652C27.7905 10.2579 28.6991 10.6149 29.4055 11.3312C29.7955 11.728 29.9929 12.1752 29.9894 12.744C29.9727 15.2454 29.9822 16.2824 29.9822 18.785V18.7838ZM28.5231 13.2813C28.5231 12.7171 28.4898 13.6149 28.5326 13.053C28.5718 12.5509 28.3602 12.2547 27.9392 12.0206C26.9367 11.4635 25.8557 11.1311 24.739 10.9028C22.8339 10.5119 20.9062 10.4182 18.9643 10.4849C17.3791 10.5388 15.8129 10.7167 14.2836 11.1393C13.444 11.371 12.6246 11.6578 11.8885 12.133C11.6162 12.3086 11.4616 12.5205 11.4675 12.8751C11.4889 14.0913 11.4925 13.8443 11.4652 15.0604C11.4568 15.4338 11.6031 15.6211 11.9159 15.7838C12.9493 16.3211 14.0576 16.6406 15.1886 16.8817C17.0615 17.2797 18.9619 17.3593 20.8741 17.3113C22.5521 17.2692 24.2003 17.0667 25.8212 16.6406C26.6548 16.4217 27.4683 16.1584 28.2163 15.7206C28.4327 15.5942 28.535 15.4409 28.5278 15.181C28.51 14.5489 28.5219 13.9157 28.5219 13.2825L28.5231 13.2813ZM11.4759 19.2052C11.4759 19.6535 11.5127 20.1041 11.4664 20.5478C11.4164 21.0242 11.6245 21.2688 12.0324 21.4748C12.9493 21.9372 13.928 22.2029 14.9198 22.4288C16.7583 22.849 18.6265 22.9543 20.5102 22.9251C22.2869 22.897 24.0374 22.7155 25.757 22.2637C26.6192 22.0366 27.4671 21.778 28.2341 21.3144C28.3863 21.2231 28.529 21.1318 28.5278 20.9141C28.5219 19.7752 28.5231 18.6363 28.5278 17.4974C28.5278 17.2856 28.4541 17.275 28.2793 17.3523C26.1078 18.318 23.7984 18.6633 21.4473 18.7639C20.0464 18.8236 18.6432 18.8072 17.2423 18.675C15.342 18.4947 13.4904 18.1307 11.7387 17.3581C11.5008 17.2528 11.4735 17.3371 11.4759 17.5419C11.483 18.0967 11.4782 18.6515 11.4782 19.2064L11.4759 19.2052ZM28.5231 24.7265C28.5231 24.1915 28.5207 23.6566 28.5243 23.1205C28.5255 22.9461 28.5005 22.8583 28.2912 22.952C26.1328 23.9188 23.8341 24.2665 21.4937 24.3695C19.8764 24.4409 18.2567 24.4128 16.6418 24.2208C14.9543 24.0195 13.3144 23.6566 11.7577 22.9742C11.5294 22.8747 11.4687 22.9063 11.4711 23.1521C11.4806 24.0956 11.5044 25.0413 11.4628 25.9836C11.4414 26.4705 11.6483 26.7444 12.0395 26.9656C13.0456 27.5368 14.1373 27.8669 15.2635 28.0975C17.1674 28.4885 19.0951 28.5809 21.0359 28.5142C22.6211 28.4604 24.1861 28.2824 25.7154 27.8599C26.5538 27.6281 27.3731 27.3414 28.1092 26.8673C28.3804 26.6929 28.5516 26.481 28.5302 26.1252C28.5017 25.6605 28.5231 25.1912 28.5231 24.7241V24.7265Z" fill="white"/>
<defs>
<clipPath id="clip0_0_1">
<rect width="40" height="40" fill="white" transform="translate(0.239258)"/>
</clipPath>
</defs>
</svg>
